<?xml version="1.0" standalone="no"?>
<!DOCTYPE svg PUBLIC "-//W3C//DTD SVG 1.1//EN" "http://www.w3.org/Graphics/SVG/1.1/DTD/svg11.dtd" >
<svg>
<metadata>
Created by FontForge 20090622 at Wed Aug 12 15:48:50 2015
 By deploy user
Copyright (c) Mark Simonson, 2000. All rights reserved.
</metadata>
<defs>
<font id="FeltTipSenior" horiz-adv-x="583" >
  <font-face 
    font-family="Felt Tip Senior"
    font-weight="400"
    font-stretch="normal"
    units-per-em="1000"
    panose-1="3 8 5 2 4 3 2 2 2 3"
    ascent="650"
    descent="-350"
    x-height="242"
    cap-height="409"
    bbox="-61 -351 1047 694"
    underline-thickness="20"
    underline-position="-113"
    unicode-range="U+000D-U+FB02"
  />
<missing-glyph horiz-adv-x="261" 
 />
    <glyph glyph-name="fi" unicode="fi" horiz-adv-x="521" 
d="M453 406q0 -18 -13 -55t-26 -37q-45 0 -45 52q0 20 1.5 32t11 23.5t26.5 11.5q45 0 45 -27zM526 197q0 -29 -62 -36l-13 -2q-5 -96 -15 -131q-6 -15 -12.5 -20.5t-21.5 -5.5q-18 0 -31 16.5t-13 35.5q0 7 8 55q3 14 5 43q-67 -5 -119 -5h-6h-7.5t-7 -0.5t-7 -1.5t-5 -2.5
t-4 -4.5t-1.5 -7q0 -10 15 -54t15 -67q0 -30 -28 -30q-5 0 -9.5 2t-9 6t-7 7.5t-6 10.5t-5 10.5l-4.5 11t-4 8.5l-11.5 27.5l-13.5 32l-11 27.5q-3 8 -6.5 11.5t-7.5 4t-13 0.5h-5h-5q-78 -1 -78 36q0 19 11 27.5t25 7.5t25 1t11 11q0 12 -4.5 42t-4.5 46q0 69 42.5 131.5
t108.5 62.5q37 0 58.5 -38.5t21.5 -78.5q0 -48 -20.5 -87.5t-61.5 -59.5q-16 -8 -16 -14q0 -8 21 -12.5t35 -4.5q26 0 78.5 8.5t78.5 8.5q25 0 61 -7t36 -22zM252 379q0 43 -13 51q-6 3 -13 3q-26 0 -43 -25.5t-22.5 -53.5t-5.5 -54t16 -26q23 0 52 40.5t29 64.5z" />
    <glyph glyph-name="fl" unicode="fl" horiz-adv-x="521" 
d="M526 197q0 -27 -52 -34v-16v-133q0 -16 -6 -23.5t-22 -7.5q-21 0 -32.5 13t-13.5 27t-2 37q0 31 4 95q-80 -8 -150 -8h-6h-7.5t-7 -0.5t-7 -1.5t-5 -2.5t-4 -4.5t-1.5 -7q0 -10 15 -54t15 -67q0 -30 -28 -30q-5 0 -9.5 2t-9 6t-7 7.5t-6 10.5t-5 10.5l-4.5 11t-4 8.5
l-11.5 27.5l-13.5 32l-11 27.5q-3 8 -6.5 11.5t-7.5 4t-13 0.5h-5h-5q-78 -1 -78 36q0 19 11 27.5t25 7.5t25 1t11 11q0 12 -4.5 42t-4.5 46q0 69 42.5 131.5t108.5 62.5q37 0 58.5 -38.5t21.5 -78.5q0 -48 -20.5 -87.5t-61.5 -59.5q-16 -8 -16 -14q0 -8 21 -12.5t35 -4.5
q26 0 72 7.5t60 8.5q0 25 -4 73t-4 72q0 55 28 55q15 0 29.5 -8.5t14.5 -22.5q0 -28 5 -171q53 -8 53 -26zM252 379q0 43 -13 51q-6 3 -13 3q-26 0 -43 -25.5t-22.5 -53.5t-5.5 -54t16 -26q23 0 52 40.5t29 64.5z" />
    <glyph glyph-name=".notdef" horiz-adv-x="261" 
 />
    <glyph glyph-name=".null" horiz-adv-x="0" 
 />
    <glyph glyph-name="nonmarkingreturn" horiz-adv-x="333" 
 />
    <glyph glyph-name="NULL" horiz-adv-x="0" 
 />
    <glyph glyph-name="NULL" horiz-adv-x="0" 
 />
    <glyph glyph-name="CR" unicode="&#xd;" horiz-adv-x="261" 
 />
    <glyph glyph-name="space" unicode=" " horiz-adv-x="261" 
 />
    <glyph glyph-name="exclam" unicode="!" horiz-adv-x="211" 
d="M154 530q0 -41 -1 -123.5t-1 -124.5q0 -65 -36 -65q-19 0 -30.5 23.5t-11.5 44.5q0 7 1 11q5 31 5 158q0 14 -1.5 43t-1.5 44q0 32 37 32q24 0 32 -9t8 -34zM146 66q0 -21 -19.5 -56t-37.5 -35q-31 0 -31 78q0 51 50 51q22 0 30 -8t8 -30z" />
    <glyph glyph-name="quotedbl" unicode="&#x22;" horiz-adv-x="322" 
d="M271 421q0 -3 0.5 -19.5t0 -29.5t-1 -32.5t-3 -33.5t-7 -28t-12 -21.5t-17.5 -7.5q-14 0 -23 12.5t-9 26.5q0 20 3 60.5t3 60.5q0 40 -6 56q-11 31 -11 43q0 26 29 26q10 0 18 -2.5t13.5 -7.5t9.5 -10t6.5 -14t4 -15t2 -17t0.5 -16.5v-16.5v-14zM144 486q0 -17 -8 -79.5
t-12 -76.5q-11 -30 -42 -30q-15 0 -26 21t-11 37q0 6 13 49.5t13 69.5q0 5 -1.5 15t-1.5 15q0 27 26 27q18 0 34 -15t16 -33z" />
    <glyph glyph-name="numbersign" unicode="#" horiz-adv-x="783" 
d="M806 283q0 -14 -23 -28.5t-38 -14.5q-191 0 -248 -10q-4 -1 -19 -3t-21 -4t-15 -7.5t-14 -15.5q-8 -19 -8 -24q0 -16 40 -16q131 0 152 -5q9 -2 17.5 -10.5t8.5 -17.5q0 -12 -19.5 -19.5t-35.5 -8.5q-27 -2 -165 -2q-22 0 -34 -4.5t-21 -21.5q-47 -87 -77 -87
q-13 0 -22.5 6.5t-9.5 18.5t16 34.5t16 35.5q0 16 -24 16q-29 0 -41 -11t-12 -24.5t-9.5 -24.5t-34.5 -11q-29 0 -29 18q0 5 5.5 14.5t5.5 13.5q0 8 -27 8.5t-54 4.5t-27 21q0 24 25 34.5t54.5 11t54.5 9.5t25 29q0 15 -29 15q-17 0 -49.5 -10t-50.5 -10q-29 0 -29 23
q0 11 5.5 19.5t17 14t19.5 8t24 5.5t19 4q14 3 44.5 2.5t52 6.5t32.5 29q1 3 10 22.5t17 35t18.5 34t21 29t18.5 10.5q15 0 25 -11.5t10 -27.5q0 -12 -19.5 -46.5t-19.5 -50.5q0 -13 14 -13q27 0 46.5 32t28 71t22 71t30.5 32q12 0 25 -12t13 -25q0 -4 -23 -59t-23 -70
q0 -16 7.5 -20t25.5 -4q43 0 131 6t131 6q14 0 28.5 -5t14.5 -17zM352 197q0 19 -29 19q-20 0 -27 -3.5t-22 -18.5q-8 -8 -8 -14q0 -9 13 -13.5t24 -4.5q49 0 49 35z" />
    <glyph glyph-name="dollar" unicode="$" horiz-adv-x="711" 
d="M688 433q0 -28 -49 -53.5t-81 -25.5q-15 0 -30 5.5t-15 18.5q0 11 28 24.5t28 24.5q0 14 -35 14q-17 0 -25 -7.5t-18 -24.5q-2 -4 -24.5 -62.5l-44 -114.5t-21.5 -57q0 -9 25 -13q28 -4 56.5 -31.5t28.5 -55.5q0 -4 -2 -10q-10 -31 -60.5 -72.5t-85.5 -54.5
q-8 -3 -29 -8.5t-35 -10t-28 -14.5t-17 -24q-2 -8 -8.5 -31l-12 -43t-5.5 -27q0 -10 -13.5 -19t-24.5 -9q-15 0 -29.5 11t-14.5 26q0 11 14 37.5t14 38.5q0 11 -15 18q-8 3 -34.5 22t-29.5 19q-4 0 -4 -9q0 -7 1.5 -22t1.5 -23q0 -37 -27 -37q-53 0 -53 73q0 29 21 74t23 53
q31 100 81 208q11 23 14 70.5t10 68.5q2 7 5 13t8 12.5t8 11t10 10.5t9.5 8.5t11.5 9l11 8t12.5 8.5t11.5 8q24 16 49 65q55 111 91 111q30 0 30 -24q0 -19 -30.5 -56t-30.5 -53t27 -16q85 0 103 58q1 4 9 46t20 68t31 26q37 0 37 -33q0 -17 -11 -50.5t-22.5 -60
t-11.5 -27.5q0 -10 31 -17q20 -3 45 -11.5t48 -25.5t23 -36zM429 420q0 13 -14 13q-49 0 -96 -18q-24 -9 -44.5 -38t-20.5 -55q0 -10 3 -19.5t9.5 -19.5t11 -15.5t15.5 -16.5l14 -14q18 -21 30 -21q3 0 6 2t5.5 6t4 7t3.5 8t3 6q70 145 70 175zM407 62q0 10 -13.5 17.5
t-25.5 7.5q-13 0 -24 -21.5t-11 -35.5q0 -9 9 -9q12 0 38.5 15.5t26.5 25.5zM292 124q0 18 -12.5 32t-31.5 27.5t-26 23.5q-13 19 -20 19q-6 0 -18 -29l-29.5 -73t-22.5 -59q0 -9 5 -15t14 -11.5t13 -9.5t5 -9t0 -13.5t-1 -9.5q0 -25 34 -25q25 0 57.5 62.5t32.5 89.5z" />
    <glyph glyph-name="percent" unicode="%" horiz-adv-x="790" 
d="M749 88q0 -56 -73.5 -105.5t-132.5 -49.5q-33 0 -44.5 12t-11.5 44q0 31 74.5 106.5t104.5 75.5q16 0 49.5 -33.5t33.5 -49.5zM733 460q0 -38 -57 -105.5t-125 -127.5t-125 -116t-57 -73q0 -13 -11.5 -23t-24.5 -10q-15 0 -28.5 15t-13.5 30q0 36 56 87q6 5 84.5 76.5
l138.5 130t60 68.5q0 14 -10 14q-3 0 -52.5 -22l-106.5 -46.5t-75 -28.5q-8 -2 -40 -4t-53.5 -9t-26.5 -24q-14 -45 -54 -79t-85 -34q-43 0 -74 32.5t-31 76.5q0 29 41 67t70 38q18 0 31 8t26 8q18 0 53 -9t54 -9q65 0 192 55q12 5 43 21.5t55.5 26.5t44.5 10q27 0 64 -11.5
t37 -32.5zM664 65q0 11 -10 11q-8 0 -33.5 -18.5t-25.5 -24.5q0 -4 10 -4q17 0 38 10.5t21 25.5zM182 286q0 12 -6 12q-2 0 -7.5 -2t-8.5 -2q-6 0 -15.5 9.5t-17.5 9.5q-12 0 -19 -12.5t-7 -24.5q0 -13 11.5 -20.5t24.5 -7.5q16 0 30.5 11t14.5 27z" />
    <glyph glyph-name="ampersand" unicode="&#x26;" horiz-adv-x="433" 
d="M406 320q0 -23 -15 -35t-32.5 -14.5t-32.5 -9.5t-15 -20q0 -3 1.5 -7t1.5 -6q0 -20 -28.5 -38t-62 -28.5t-62 -23.5t-28.5 -24q0 -6 10 -11l24 -11.5t20 -12.5q10 -12 29.5 -22.5t32.5 -20t13 -21.5q0 -10 -4.5 -20.5t-11.5 -23t-10 -19.5q-9 -23 -22 -73
q-19 -89 -19 -129q0 -8 2.5 -21.5t2.5 -20.5q0 -19 -24.5 -39t-44.5 -20q-25 0 -25 36q0 51 9 115.5t24 105.5q15 39 15 47q0 23 -28.5 51.5l-57 55t-28.5 44.5q0 22 24 44t48.5 36t24.5 17q0 5 -31.5 24.5t-31.5 41.5q0 18 22.5 38.5t40.5 24.5l20.5 4t23 5t18 7.5t15 14.5
t4.5 22q0 32 14 139q1 5 2 22t3 30t6 28t12.5 23t20.5 8q20 0 32 -36.5t12 -61.5q0 -20 -12.5 -71.5t-12.5 -75.5q0 -18 17.5 -23.5t38 -4.5t38 -8t17.5 -32z" />
    <glyph glyph-name="quotesingle" unicode="'" horiz-adv-x="221" 
d="M175 498q0 -43 -34 -139t-67 -96q-12 0 -21.5 11.5t-9.5 24.5q0 11 5 21q15 33 32.5 96t17.5 91q0 15 10.5 26.5t25.5 11.5q19 0 30 -13.5t11 -33.5z" />
    <glyph glyph-name="parenleft" unicode="(" horiz-adv-x="315" 
d="M312 462q0 -12 -7 -21.5t-12.5 -13l-20.5 -12.5q-70 -42 -112.5 -110.5t-42.5 -147.5q0 -131 79 -164q5 -2 11 -3.5t13.5 -3t11.5 -2.5q25 -4 25 -22q0 -11 -8.5 -18t-20.5 -7q-9 0 -28 -3.5t-29 -3.5q-48 0 -77 50q-54 92 -54 189q0 47 31.5 117.5t65.5 110.5
q28 32 68 66.5t63 34.5q14 0 29 -11.5t15 -24.5z" />
    <glyph glyph-name="parenright" unicode=")" horiz-adv-x="302" 
d="M250 118q0 -12 -6 -27t-10.5 -23t-17.5 -27.5t-14 -21.5q-5 -8 -34 -31.5t-29 -29.5t2.5 -16t2.5 -16q0 -28 -45 -28q-24 0 -39.5 18.5t-15.5 43.5q0 12 19 30.5t41 36t41 43.5t19 52q0 53 -38 145.5t-76 128.5q-19 17 -19 43q0 30 31 30q17 0 50 -34t49 -57
q25 -40 57 -130t32 -130z" />
    <glyph glyph-name="asterisk" unicode="*" horiz-adv-x="569" 
d="M534 255q0 -15 -17.5 -26.5t-32.5 -12.5q-2 0 -18.5 -1.5t-31.5 -3.5t-32 -4.5t-27.5 -6.5t-10.5 -8q0 -7 10 -15t27.5 -16.5l31 -14.5t31.5 -13l18 -7q24 -7 24 -28q0 -17 -15 -25t-34 -8q-17 0 -68.5 16t-64.5 26q-26 16 -32 16q-8 0 -8 -12q0 -9 3 -27.5t3 -27.5
q0 -38 -31 -38q-21 0 -31.5 15.5t-11.5 29.5t-1 39v7q0 9 2 27.5t2 28.5q0 18 -18 18q-20 0 -65 -7.5t-67 -7.5q-17 0 -30.5 9.5t-13.5 24.5q0 35 88 35q41 0 41 14q0 10 -41.5 54.5t-41.5 70.5q0 14 13 21t28 7q21 0 43 -25t40 -49.5t28 -24.5q7 0 10.5 34t3.5 55v21
q0 46 30 46q52 0 52 -43q0 -19 -6.5 -59t-6.5 -60q0 -38 26 -38q28 0 83 9t83 9q12 0 24 -6.5t12 -17.5z" />
    <glyph glyph-name="plus" unicode="+" horiz-adv-x="508" 
d="M490 184q0 -11 -10 -21t-20 -10q-5 0 -10.5 2.5t-8.5 5t-8.5 8l-6.5 6.5q-17 14 -76 14h-7h-7.5t-6.5 -0.5t-7 -1l-6 -1.5t-5.5 -3t-3.5 -5t-3 -6.5t-1 -8.5q0 -64 10 -121q0 -1 0.5 -5t0.5 -6q0 -23 -19.5 -37.5t-43.5 -14.5q-28 0 -28 54q0 16 3.5 47.5t3.5 46.5
q0 36 -20 36q-18 0 -55 -8t-55 -8q-20 0 -48.5 11.5t-28.5 28.5q0 13 6.5 21t20 10.5t24 3t27.5 -0.5t22 -1q111 0 111 51q0 10 -5.5 36t-5.5 41q0 69 36 69q48 0 48 -44q0 -12 -3 -37.5t-3 -38.5q0 -21 6 -30.5t26 -9.5q9 0 27 1.5t28 1.5q36 0 58 -18q44 -38 44 -58z" />
    <glyph glyph-name="comma" unicode="," horiz-adv-x="256" 
d="M195 -56q0 -71 -22.5 -113.5t-65.5 -71.5q-33 -23 -65 -23q-35 0 -35 30q0 9 3.5 16t10.5 12t12.5 8t16 7t14.5 6q21 11 32 19t20.5 29t9.5 53q0 35 -6.5 57t-15.5 31t-18 14.5t-15.5 14.5t-6.5 24q0 13 8 21.5t22 8.5q46 0 73.5 -47t27.5 -96z" />
    <glyph glyph-name="hyphen" unicode="-" horiz-adv-x="339" 
d="M318 209q0 -14 -7 -20t-13 -6.5t-24 -0.5q-28 0 -85 -11t-86 -11q-13 0 -20 0.5t-19 3t-18 9.5t-6 19q0 18 19.5 35.5t38.5 17.5q27 0 81.5 5t82.5 5q19 0 37.5 -14t18.5 -32z" />
    <glyph glyph-name="period" unicode="." horiz-adv-x="228" 
d="M160 13q0 -11 -16 -27.5t-29 -16.5q-21 0 -32.5 17t-11.5 37q0 19 10 40t26 20q53 -5 53 -70z" />
    <glyph glyph-name="slash" unicode="/" horiz-adv-x="462" 
d="M403 476q0 -12 -22 -46q-24 -36 -65.5 -109l-47.5 -83l-88 -137q-5 -7 -14 -21.5t-17 -26t-16 -21.5q-22 -29 -45 -29q-13 0 -23.5 12.5t-10.5 25.5q0 16 12 31l65.5 91t73.5 105q107 160 124 214q9 26 40 26q12 0 23 -10t11 -22z" />
    <glyph glyph-name="zero" unicode="0" horiz-adv-x="418" 
d="M373 256q0 -99 -55 -169.5t-151 -70.5q-56 0 -84.5 35t-28.5 92q0 73 75 154.5t143 81.5q40 0 70.5 -41t30.5 -82zM302 254q0 46 -22 46q-48 0 -99.5 -45t-51.5 -92q0 -40 11.5 -55t48.5 -15q51 0 82 53t31 108z" />
    <glyph glyph-name="one" unicode="1" horiz-adv-x="232" 
d="M177 59q0 -25 -16 -67t-37 -42q-13 0 -20.5 9t-9.5 25.5t-2.5 30.5t1 32.5t1.5 23.5q0 50 -11 161.5t-23 136.5q-11 24 -11 46q0 41 27 41q18 0 29.5 -11t15 -21.5t8.5 -32.5q14 -58 31 -171t17 -161z" />
    <glyph glyph-name="two" unicode="2" horiz-adv-x="521" 
d="M507 29q0 -10 -18.5 -19t-30.5 -9q-10 0 -26.5 6t-24.5 7q-11 1 -50 9.5t-61 8.5q-17 0 -50 -7t-49 -7q-26 0 -53 12.5t-27 35.5q0 15 20.5 42t45 53t45 59.5t20.5 59.5q0 6 -2 9.5t-7 5t-7.5 2t-10.5 0t-9 -0.5q-87 0 -136 -26q-16 -9 -29 -9q-25 0 -25 31q0 35 58 47
q99 24 178 24q27 0 46.5 -18.5t19.5 -44.5q0 -41 -24 -89t-48 -79l-23 -32q0 -7 71 -7q158 0 188 -35q19 -23 19 -29z" />
    <glyph glyph-name="three" unicode="3" horiz-adv-x="487" 
d="M451 137q0 -49 -66 -104t-115 -55q-26 0 -51.5 16.5t-25.5 41.5q0 18 27 24t60 5.5t60 14.5t27 49q0 30 -143 30q-6 0 -11 1t-11 5l-7.5 5t-9 7.5t-8.5 7.5q-20 16 -20 30q0 11 54 48t54 56q0 9 -17 9q-88 0 -166 -30q-13 -5 -23 -5q-27 0 -27 35q0 23 52.5 38.5t99 20
t74.5 4.5q91 0 91 -50q0 -20 -13.5 -43t-26.5 -38.5t-13 -17.5q0 -7 30 -12q125 -17 125 -93z" />
    <glyph glyph-name="four" unicode="4" horiz-adv-x="448" 
d="M423 248q0 -14 -20 -25t-38 -16l-20 -5t-13.5 -3.5t-5.5 -7.5t-4 -14.5v-27.5q0 -21 -2 -62t-2 -61q0 -11 -16 -28.5t-26 -17.5q-18 0 -33 21.5t-15 40.5q0 14 4 43.5t4 44.5q0 47 -20 47t-62 -4t-63 -4q-27 0 -49 13t-22 38q0 19 18 39.5t51.5 46l37.5 28.5q6 6 28 30
t41 40.5t32 16.5q26 0 46 -35.5t28 -69.5q3 -15 5 -22t9.5 -14.5t19.5 -7.5q6 0 18 1t17 1q12 0 17.5 -0.5t15.5 -2.5t14.5 -7.5t4.5 -15.5zM232 266q0 14 -6 30t-18 16q-9 0 -40.5 -29t-31.5 -35q0 -12 47 -12q15 0 23.5 1t17 8.5t8.5 20.5z" />
    <glyph glyph-name="five" unicode="5" horiz-adv-x="510" 
d="M515 322q0 -12 -22.5 -20.5t-38.5 -9.5q-93 -12 -224 -12q-29 0 -42 -14q-13 -13 -13 -15q0 -7 43 -7q154 0 154 -97q0 -74 -58.5 -122.5t-133.5 -48.5q-31 0 -69 23t-38 53q0 11 9.5 23t20.5 12q13 0 39 -21.5t44 -21.5q32 0 70.5 29t38.5 61q0 44 -76 44q-7 0 -20 -0.5
t-19 -0.5q-14 0 -38.5 -9t-38.5 -9q-20 0 -38 12t-18 32q0 6 13.5 26.5l30.5 44.5l21 30q2 3 8.5 14.5t12.5 20.5t14 19.5t15.5 16.5t13.5 6q7 0 25.5 -16t51.5 -16q37 0 111 -1t112 -1q13 0 26 -6.5t13 -18.5z" />
    <glyph glyph-name="six" unicode="6" horiz-adv-x="407" 
d="M354 95q0 -40 -46.5 -70.5t-88.5 -30.5q-58 0 -111.5 40.5t-53.5 96.5q0 46 93.5 169t128.5 123q13 0 28.5 -10.5t15.5 -23.5q0 -5 -34.5 -38t-69 -71.5t-34.5 -56.5q0 -9 25 -9q33 0 91 -39q22 -14 30.5 -21t17 -22.5t8.5 -36.5zM280 99q0 21 -38 28.5t-73 7.5
q-25 0 -25 -17t28 -36.5t47 -19.5q21 0 41 9t20 28z" />
    <glyph glyph-name="seven" unicode="7" horiz-adv-x="404" 
d="M370 371q0 -38 -65 -246q-21 -70 -21 -75t5 -16t5 -17q0 -17 -35 -17q-34 0 -46 13.5t-12 46.5q0 8 14 51.5t35 102.5l20 59q18 45 18 60t-15 15q-33 0 -100 -14t-101 -14q-46 0 -46 37q0 32 60 38q28 3 165 25q63 11 73 11q28 0 37 -14.5t9 -45.5z" />
    <glyph glyph-name="eight" unicode="8" horiz-adv-x="411" 
d="M394 419q0 -4 -2 -8q-8 -27 -14 -78q-10 -100 -81 -111q-43 -4 -43 -19q0 -10 16 -24.5t32.5 -35t16.5 -44.5q0 -18 -16 -44q-28 -43 -78.5 -65t-106.5 -22q-35 0 -63 19t-28 53q0 20 24 54.5t45 54.5q1 1 11 9.5t15 13.5l14.5 14t14.5 15.5t9 14t4 13.5q0 3 -9.5 20
t-9.5 35q0 32 29 59l20.5 20.5t22 21.5t21 18t24.5 17.5t24 12.5t28 9.5t30 2.5q50 0 50 -26zM310 311q0 9 -11.5 14.5t-21.5 5.5q-46 0 -46 -33q0 -14 21 -14q15 0 36.5 8t21.5 19zM241 99q0 44 -49 44q-19 0 -50.5 -35t-31.5 -51q0 -13 36 -13q23 0 59 17.5t36 37.5z" />
    <glyph glyph-name="nine" unicode="9" horiz-adv-x="407" 
d="M349 356q0 -1 -3 -16q-28 -86 -28 -167q0 -111 26 -146q4 -8 4 -13q0 -11 -8.5 -17t-19.5 -6q-76 0 -76 172q0 15 3 44t3 40q0 15 -11 15q-5 0 -17 -7q-38 -28 -107 -28q-81 0 -81 75q0 48 50.5 83.5t100.5 35.5q54 0 71 -37q8 -19 17 -19q3 0 16 8.5t33 8.5
q11 0 19 -7.5t8 -18.5zM224 330q0 11 -11.5 19.5t-23.5 8.5q-9 0 -21.5 -7.5t-16.5 -8.5q-2 -1 -12 -4t-14 -4.5t-8 -7.5t-4 -14q0 -18 16 -18q11 0 53 15t42 21z" />
    <glyph glyph-name="colon" unicode=":" horiz-adv-x="225" 
d="M129 362q0 -119 -40 -119t-40 94q0 65 42 65q18 0 28 -11t10 -29zM192 49q0 -18 -11.5 -30.5t-29.5 -12.5q-28 0 -41 21t-13 50q0 25 10.5 44t33.5 19q13 0 22.5 -14.5t9.5 -28.5q0 -7 9.5 -21t9.5 -27z" />
    <glyph glyph-name="semicolon" unicode=";" horiz-adv-x="219" 
d="M179 365q0 -19 -17.5 -64t-31.5 -45q-34 0 -34 72q0 44 10 55.5t32 11.5q15 0 28 -7.5t13 -22.5zM160 25q0 -53 -21 -103.5t-59 -81.5q-21 -19 -39 -19q-24 0 -24 35q0 10 11.5 25.5t24.5 31t24.5 43.5t11.5 59q0 9 -4.5 24.5t-4.5 23.5q0 12 8 19.5t20 7.5q22 0 37 -21
t15 -44z" />
    <glyph glyph-name="less" unicode="&#x3c;" horiz-adv-x="561" 
d="M537 448q0 -23 -40 -56q-29 -23 -113 -84t-127 -98q-3 -2 -28 -20l-46 -34t-21 -20t10 -8t23.5 -8t15.5 -5q21 -11 62.5 -46.5t66.5 -45.5q24 -9 70.5 -18.5t64.5 -14.5q17 -5 22.5 -13t5.5 -25q0 -18 -7.5 -34.5t-22.5 -16.5q-13 0 -43.5 10.5t-47.5 10.5q-14 0 -30 9
t-35 24t-26 19l-36.5 23.5t-42 25t-42.5 16.5q-22 6 -57.5 25.5t-54.5 24.5q-25 7 -29 18q-1 3 -1 8q0 2 0.5 6.5t0.5 6.5q0 16 77 54q25 13 56 35.5t71 54.5l54 43q8 6 61.5 51.5l98.5 80.5t56 35q15 0 24.5 -9.5t9.5 -24.5z" />
    <glyph glyph-name="equal" unicode="=" horiz-adv-x="551" 
d="M531 294q0 -32 -42 -32q-25 0 -75 0.5t-75 0.5q-167 0 -183 -9q-18 -9 -37 -9q-48 0 -48 39q0 29 77 36q31 3 141 5q172 5 208 5q14 0 24 -11t10 -25zM460 111q0 -28 -45 -28q-17 0 -49 5.5t-49 5.5q-32 0 -101.5 -12t-97.5 -12q-24 0 -54.5 11t-30.5 30q0 34 81 34
q88 0 164 14q8 1 38.5 9.5t43.5 8.5q27 0 63.5 -20.5t36.5 -45.5z" />
    <glyph glyph-name="greater" unicode="&#x3e;" horiz-adv-x="621" 
d="M594 258q0 -8 -8 -18.5t-22.5 -21t-26 -18t-28.5 -17t-19 -10.5q-108 -69 -235 -171q-5 -4 -26 -22l-41.5 -35.5l-44 -36t-41.5 -30t-25 -11.5q-32 0 -32 46q0 10 93.5 80.5l187.5 144t94 90.5q0 8 -34 14q-76 12 -127 34q-38 16 -104.5 58t-95.5 57q-32 16 -32 48
q0 9 12.5 20t21.5 11q10 0 47 -20t44 -23q43 -16 93.5 -48t97 -52t107.5 -23q3 0 25.5 -0.5t39 -2t36.5 -5.5t31.5 -13.5t11.5 -24.5z" />
    <glyph glyph-name="question" unicode="?" horiz-adv-x="400" 
d="M379 495q0 -39 -20 -77.5t-48 -67t-56 -53.5t-48 -47.5t-20 -39.5q0 -41 -43 -41q-15 0 -23.5 18t-8.5 35q0 23 29.5 58t64.5 66t64.5 66.5t29.5 59.5q0 43 -43 43q-41 0 -86 -22.5t-69 -56.5q-1 -1 -5 -7l-5 -7.5t-5 -7t-6 -7t-6 -5t-7.5 -5t-7.5 -2.5t-9 -1
q-26 0 -26 44q0 8 2 15.5t4 13t7 12t8 9.5t11 9t11 8t13 8t13 8q2 1 15 9t16 10t15.5 9t17 9t15.5 8t17.5 7.5t16.5 5.5t18 5.5t17.5 2.5t18.5 1q46 0 82 -24t36 -69zM181 28q0 -18 -13.5 -30t-31.5 -12q-19 0 -29.5 15.5t-10.5 34.5q0 11 12.5 26.5t23.5 15.5
q22 0 35.5 -13.5t13.5 -36.5z" />
    <glyph glyph-name="at" unicode="@" horiz-adv-x="774" 
d="M743 396q0 -19 -16 -57.5t-19 -51.5q-16 -64 -46.5 -101.5t-88.5 -37.5q-5 0 -22 -5q-25 -10 -74 -22t-70 -12q-36 0 -74.5 19.5t-38.5 51.5q0 39 36.5 74.5t76.5 40.5q24 4 36 7q3 1 21 9t26 8q20 0 41 -18.5t22 -38.5v-13q0 -21 17 -21q29 0 49.5 25t26.5 56
q1 8 9 32.5t8 37.5q0 21 -23 37t-57 23.5t-62 11t-49 3.5q-46 0 -99 -15t-85 -41q-153 -121 -153 -241q0 -43 21 -75.5t60 -67.5q45 -38 141 -38q26 0 77.5 4t76.5 4q19 0 34.5 -7.5t15.5 -23.5q0 -17 -23.5 -28.5t-60 -16t-60.5 -6t-44 -1.5q-163 0 -226 73
q-35 42 -48.5 60t-26 52.5t-12.5 76.5q0 48 26 103.5t63 98.5q27 30 84.5 76t87.5 56q94 30 163 30q34 0 73.5 -6t83.5 -19t73 -40.5t29 -65.5z" />
    <glyph glyph-name="A" unicode="A" horiz-adv-x="461" 
d="M475 137q0 -25 -90 -25q-31 0 -31 -25q0 -16 17 -43.5t17 -47.5q0 -15 -13.5 -29.5t-28.5 -14.5q-12 0 -20.5 25t-8.5 41q0 13 -15 47t-15 40q0 4 -7 6.5t-17.5 3.5t-21 1.5t-20 0.5h-11.5q-7 0 -27.5 2t-31.5 2q-40 0 -45 -22q-3 -13 -7.5 -27.5t-10.5 -32t-9 -27.5
q-7 -20 -42 -20q-23 0 -23 29q0 24 54.5 116t61.5 129q2 12 15 55.5t13 69.5q0 61 16 61q9 0 30 -13q37 -27 66.5 -67t38.5 -82q0 -2 3.5 -19t7 -32t8 -32.5t10 -29.5t10.5 -14q7 -3 40 -4t60 -5.5t27 -16.5zM278 199q0 25 -24.5 84.5t-42.5 59.5q-4 0 -7 -14t-5 -32t-3 -21
q-3 -9 -20.5 -41.5t-17.5 -44.5q0 -23 89 -23q31 0 31 32z" />
    <glyph glyph-name="B" unicode="B" horiz-adv-x="459" 
d="M424 82q0 -14 -14 -34q-50 -65 -194 -65q-29 0 -71 7t-60 19q-26 16 -26 53q0 7 8 22.5t8 29.5q0 11 0.5 33t0.5 34q0 49 -7 62q-5 8 -14.5 16t-14.5 16.5t-5 22.5q0 35 26 62t65 41t76.5 21t68.5 7q15 0 34.5 -1.5t46.5 -5t45.5 -12.5t18.5 -22q0 -34 -20 -67.5
t-44.5 -54.5l-44.5 -38.5t-20 -24.5q0 -5 11.5 -11.5t26 -13t18.5 -9.5q2 -1 13.5 -10l17.5 -14l17 -14.5t17 -16.5t11 -16t5 -16zM355 74q0 10 -32 42q-11 10 -43.5 18t-63 13.5t-54.5 19t-24 32.5q0 10 12 17t32.5 12.5t23.5 6.5q36 14 87.5 52t51.5 65q0 20 -54 20
q-64 0 -127 -20q-23 -7 -29.5 -12.5t-7.5 -16t-7 -19.5q-6 -8 -6 -24q0 -15 12 -75q4 -20 4.5 -61t3.5 -60q8 -40 70 -40q15 0 34 1t48.5 3.5t49 9t19.5 16.5z" />
    <glyph glyph-name="C" unicode="C" horiz-adv-x="479" 
d="M465 50q0 -3 -6 -21q-1 -6 -6.5 -10t-11 -6t-15 -3t-15.5 -1h-15.5h-11.5q-75 0 -169 8.5t-121 29.5q-24 19 -38 52t-14 65q0 109 114 177q59 35 101.5 51t96.5 16q87 0 87 -39q0 -9 -3.5 -14.5t-13 -7.5t-13 -2h-15.5q-9 0 -26.5 3.5t-25.5 3.5q-15 0 -38 -7
q-40 -14 -93.5 -39.5t-66.5 -44.5q-34 -47 -34 -103q0 -27 7.5 -43.5t24.5 -23.5t32.5 -9t44.5 -2l90 1q1 0 15 0.5t25.5 0t29 -1t31 -2.5t26.5 -5t20 -9t7 -14z" />
    <glyph glyph-name="D" unicode="D" horiz-adv-x="462" 
d="M427 213q0 -17 -4 -32t-14.5 -29.5l-17 -24t-25.5 -23.5l-25 -18.5t-29 -19t-26 -16.5q-2 -1 -24.5 -16t-35 -22.5l-33.5 -19.5t-36.5 -17.5t-25.5 -5.5q-44 0 -44 38q0 7 17 36.5t17 56.5q0 24 -9 68.5t-11 62.5q-1 9 -8 29.5t-7 28.5q0 1 1 4t1 5q0 3 -4 3
q-13 0 -25 -18t-21 -18t-16.5 13t-7.5 22q0 21 44 56q8 7 11 16t2.5 15.5t2 11.5t9.5 5q36 0 94 -8.5t85 -19.5q165 -68 165 -163zM367 217q0 19 -8.5 32t-17 18t-28 12t-27.5 11q-84 44 -109 44q-29 0 -29 -21q0 -12 11 -34q22 -52 22 -177q0 -24 21 -24q44 0 104.5 48.5
t60.5 90.5z" />
    <glyph glyph-name="E" unicode="E" horiz-adv-x="493" 
d="M493 373q0 -24 -63 -32q-10 -1 -68.5 -2.5t-90.5 -7.5q-11 -2 -52 -15.5t-61 -13.5q-7 0 -11.5 -3t-6.5 -7t-4 -12q-13 -65 -13 -83q0 -7 6 -7q2 0 11 3q28 9 97 13q21 1 62 16t62 15q13 0 27 -7.5t14 -19.5q0 -14 -21 -29t-36 -18t-52 -5.5t-56 -6.5q-54 -14 -71 -14
q-10 0 -21 8t-17 8q-16 0 -16 -22q0 -15 18.5 -26.5t44.5 -16.5t46.5 -7.5t33.5 -2.5q90 0 104 19q13 24 25 24q14 0 26 -25t12 -41q0 -28 -28 -35q-78 -20 -135 -20q-35 0 -94.5 20.5t-81.5 43.5q-34 34 -34 75q0 16 8 46.5t8 46.5q0 41 11 95t35 54q5 0 17.5 -9t29.5 -9
q10 0 22.5 3.5t28 9l21.5 7.5q55 14 119 14h64q2 0 10 0.5t14 0t15 -0.5t15.5 -2t12.5 -4.5t9.5 -7t3.5 -10.5z" />
    <glyph glyph-name="F" unicode="F" horiz-adv-x="539" 
d="M517 411q0 -10 -4 -17t-14.5 -10t-14.5 -4t-18 -3q-45 -5 -135 -10.5t-135 -11.5q-27 -3 -32.5 -9.5t-5.5 -33.5v-60q37 2 128 12t140 10q18 0 46.5 -10.5t28.5 -24.5t-77 -21q-49 -3 -171 -20q-7 -1 -25.5 -2.5t-32.5 -3t-25 -5.5q-12 -5 -12 -12q0 -26 7 -76.5t7 -75.5
q0 -13 -11 -26t-23 -13q-18 0 -29.5 12t-11.5 30q0 15 1 45t1 44q0 65 -6 68q-52 20 -52 37q0 7 10 13.5t24.5 12.5t17.5 8q8 6 8 36q0 42 -23 42q-6 0 -14 -6.5t-13 -6.5q-16 0 -16 22q0 51 87 66q47 8 196 24q98 12 126 12q24 0 48.5 -7t24.5 -25z" />
    <glyph glyph-name="G" unicode="G" horiz-adv-x="573" 
d="M558 190q0 -10 -24 -19t-59 -15t-60.5 -9t-41.5 -4h-7q-8 0 -11 -2t-3 -7q0 -8 5 -25.5t5 -26.5q0 -43 -48.5 -70.5t-94.5 -27.5q-79 0 -128 45.5t-49 123.5q0 118 141 204q137 86 184 86q38 0 73 -27.5t35 -64.5q0 -19 -15 -38t-33 -19q-10 0 -18 5t-8 14q0 7 9.5 16
t9.5 16q0 11 -16.5 20.5t-28.5 9.5q-9 0 -25 -6q-86 -31 -121 -55q-127 -88 -127 -157q0 -41 36 -75t77 -34q73 0 73 45q0 24 -72 24q-14 0 -24 9t-10 23q0 23 27 30q55 13 148 28t135 15q66 0 66 -32z" />
    <glyph glyph-name="H" unicode="H" horiz-adv-x="491" 
d="M441 66q0 -66 -35 -66q-27 0 -34 48q-5 37 -19.5 93.5t-27.5 56.5q-1 0 -9 -5q-14 -16 -95 -16q-71 0 -79 -12q-2 -3 -2 -9q0 -13 8 -38.5t8 -38.5q0 -17 -9.5 -40t-24.5 -23q-29 0 -36.5 37t-9 79.5t-15.5 50.5q-26 13 -26 28q0 11 13 23t13 40q0 21 -2 62.5t-2 62.5
q0 11 8.5 19.5t18.5 8.5q22 0 31.5 -32t12 -78.5t4.5 -54.5q3 -12 5.5 -17.5t9 -10t18.5 -4.5q16 0 48 4.5t49 4.5q36 0 58 -15l1 2q0 17 -16 67t-16 76q0 13 7.5 27.5t19.5 14.5q30 0 36 -32q6 -31 47.5 -155.5t41.5 -157.5z" />
    <glyph glyph-name="I" unicode="I" horiz-adv-x="198" 
d="M163 38q0 -13 -15 -24.5t-29 -11.5q-26 0 -40.5 39t-14.5 70q0 38 -4 113.5t-4 112.5q0 72 35 72q5 0 9.5 -1.5t7 -5l5 -7t3.5 -9t2 -9.5t1 -10.5v-10v-9.5v-8q0 -178 18 -220q26 -62 26 -81z" />
    <glyph glyph-name="J" unicode="J" horiz-adv-x="377" 
d="M334 119q0 -57 -49 -97t-107 -40q-28 0 -49.5 8t-39 28.5t-26 33.5t-24.5 44q-4 7 -6 11q-12 20 -12 32q0 15 20 24q2 1 14 6.5t21 9t15 3.5q14 0 30 -15.5t16 -28.5q0 -7 -9.5 -14.5t-9.5 -16.5q0 -21 23.5 -35t45.5 -14q28 0 53 20t25 47q0 36 -23.5 126.5t-44.5 155.5
q-6 22 -6 33q0 30 24 30t35 -12t19 -39q17 -63 41 -168t24 -132z" />
    <glyph glyph-name="K" unicode="K" horiz-adv-x="545" 
d="M516 50q0 -32 -26 -32q-73 0 -189 34q-7 2 -38.5 13l-60 21t-30.5 10q-7 0 -7 -7q0 -4 7 -21t7 -29q0 -29 -37 -29q-10 0 -18 2t-12.5 7.5l-7.5 9t-4 13.5t-1.5 13.5t0 16t0.5 15.5q0 27 -4 57.5t-8.5 53t-15 57.5t-16 51.5t-20 56.5t-18.5 52q-3 9 -3 18q0 27 19 27
q35 0 50 -45l50 -141q4 -21 12 -21q5 0 15 13q62 73 119 109q4 3 19.5 13l28 18l28 17.5t28 14.5t19.5 5q10 0 19.5 -10t9.5 -19q0 -8 -9 -17q-11 -11 -59 -40t-70 -49q-3 -3 -23 -21t-30 -28.5t-21 -27.5t-11 -30q0 -29 43 -50t82 -28q115 -21 167 -42q16 -5 16 -31z" />
    <glyph glyph-name="L" unicode="L" horiz-adv-x="380" 
d="M372 82q0 -20 -12 -41t-30 -21t-54.5 -5t-55.5 -5q-34 0 -78.5 7.5t-61.5 22.5q-38 31 -38 97q0 8 2 28q17 133 26 194q3 28 29 28q32 0 32 -37q0 -33 -6 -102t-6 -100q0 -67 76 -67q91 0 133 14q12 5 24 5q20 0 20 -18z" />
    <glyph glyph-name="M" unicode="M" horiz-adv-x="527" 
d="M485 48q0 -14 -10 -22t-25 -8q-38 0 -52 14.5t-14 52.5q0 19 1 56.5t1 55.5q0 20 -8 20q-2 0 -18.5 -11t-45 -22t-60.5 -11q-33 0 -58.5 12.5t-39 25t-17.5 12.5q-2 0 -3.5 -6t-1.5 -15v-17t0.5 -16t0.5 -9q0 -18 -0.5 -56t-0.5 -56q0 -54 -39 -54q-11 0 -18.5 5.5
t-10 17t-3 19t-0.5 20.5v6q0 50 -7 152t-7 153q0 16 8.5 31t23.5 15q18 0 41 -26.5t42 -59t45 -59t50 -26.5q31 0 67.5 24.5t57.5 53.5q17 21 32 21q11 0 23.5 -11.5t12.5 -21.5q0 -31 -2 -92.5t-2 -92.5q0 -22 6 -33.5t12.5 -13t12.5 -8t6 -20.5z" />
    <glyph glyph-name="N" unicode="N" horiz-adv-x="518" 
d="M475 243q0 -49 -8 -76q-10 -35 -25 -69t-44 -66t-60 -32q-20 0 -50.5 28.5t-56.5 62t-53 62t-40 28.5q-8 0 -8 -11q0 -10 7 -45t7 -55q0 -68 -44 -68q-16 0 -21 7t-7 25t-7 73t-10.5 93t-14.5 72q-5 17 -5 32q0 35 25 35q30 0 113 -80.5t123 -129.5q1 -1 4.5 -6t5.5 -7.5
l5.5 -7t6.5 -7t7 -5.5t7.5 -4.5t7.5 -2.5h3q31 0 51 65.5t20 107.5q0 24 -16 62t-16 59q0 20 17 20q76 0 76 -160z" />
    <glyph glyph-name="O" unicode="O" horiz-adv-x="393" 
d="M336 202q0 -106 -39 -146q-36 -37 -62.5 -51.5t-70.5 -14.5q-53 0 -84 32t-31 85q0 50 18 87.5t55 77.5q72 75 115 75q26 0 59 -25t37 -50q3 -23 3 -70zM273 210q0 28 -10 40t-37 12q-38 0 -72 -54t-34 -95q0 -8 1.5 -14t5 -10.5t6 -8t9 -5.5l10 -3t12 -1.5t11.5 -0.5h13
h12q33 0 53 50t20 90z" />
    <glyph glyph-name="P" unicode="P" horiz-adv-x="515" 
d="M486 348q0 -27 -36.5 -62t-68.5 -52q-78 -40 -152 -49q-27 -4 -31.5 -9t-4.5 -31q0 -23 3 -67.5t3 -67.5q0 -15 -12.5 -33t-27.5 -18q-27 0 -44 83q-6 31 -39.5 126t-33.5 152q0 38 33.5 65t73 36.5t76.5 9.5q72 0 190 -36q71 -19 71 -47zM375 324q0 30 -160 30
q-94 0 -94 -36q0 -8 31 -42t36 -34q3 0 11 8q7 8 52.5 16t84.5 21t39 37z" />
    <glyph glyph-name="Q" unicode="Q" horiz-adv-x="656" 
d="M613 242q0 -39 -14 -75t-31.5 -56.5l-31.5 -37.5t-14 -23q0 -5 18 -48t18 -68q0 -16 -6.5 -22t-21.5 -6q-22 0 -37 17t-21.5 38t-16 38t-21.5 17q-5 0 -11 -6q-22 -22 -97.5 -32t-134.5 -10q-32 0 -55.5 3.5t-46.5 14t-35 32.5t-12 56q0 62 41 124.5t98 107.5
q68 52 125 79.5t125 27.5q75 0 128.5 -48.5t53.5 -122.5zM550 236q0 28 -12.5 66.5t-35.5 38.5q-13 0 -17 -6t-5 -17t-5 -16q-30 -36 -60 -36q-18 0 -41 29t-34 29q-2 0 -6.5 -2t-5.5 -2q-74 -35 -143.5 -100.5t-69.5 -128.5q0 -30 12 -43t41 -13q84 0 187 27q16 4 16 8
q0 3 -30.5 29.5t-30.5 39.5q0 26 28 26q24 0 73 -30.5t53 -30.5q35 0 60.5 47.5t25.5 84.5z" />
    <glyph glyph-name="R" unicode="R" horiz-adv-x="478" 
d="M492 -55q0 -22 -31 -22q-9 0 -16.5 2t-16.5 8t-13 9t-15 12.5t-12 10.5q-32 27 -147 95q-31 19 -64 52.5t-33 60.5q0 34 30 61t66 41t66 37t30 50q0 30 -21 30t-72 -11.5t-68 -20.5q-20 -11 -28 -25t-13 -39q-14 -70 -14 -238q0 -85 -34 -85q-41 0 -41 36q0 3 0.5 9
t0.5 8q8 58 8 154q0 86 -8 128q-4 24 -4 35q0 8 0.5 14t3.5 10t4 6t7 3t7 1h9.5h10.5q5 0 8.5 1.5t5.5 3t5 5.5t5 6q35 36 75 47t103 11q112 0 112 -75q0 -49 -28.5 -85.5t-62 -52t-62 -31t-28.5 -28.5q0 -15 43 -43t94.5 -55.5t94.5 -65.5t43 -70z" />
    <glyph glyph-name="S" unicode="S" horiz-adv-x="452" 
d="M424 128q0 -31 -24 -59.5t-55 -43.5q-26 -13 -76 -29.5t-71 -16.5q-25 0 -52.5 24.5t-27.5 48.5q0 13 11.5 21.5t24.5 8.5q9 0 33 -12t38 -12q22 0 73.5 24.5t51.5 41.5q0 15 -32.5 28.5t-79 24.5t-92.5 25t-78.5 37.5t-32.5 54.5q0 38 40 67t86 41.5t82 12.5
q33 0 71 -25t38 -56q0 -21 -19 -45t-40 -24q-17 0 -17 15q0 6 3.5 19t3.5 20q0 33 -44 33q-29 0 -77 -16.5t-48 -39.5q0 -12 32 -24t77.5 -24t91 -26.5t77.5 -38.5t32 -55z" />
    <glyph glyph-name="T" unicode="T" horiz-adv-x="614" 
d="M592 391q0 -23 -51 -23q-25 -1 -71 -4.5t-84 -5.5t-71 -2q-26 0 -26 -15q0 -5 2 -13q64 -266 64 -341q0 -46 -26 -46q-28 0 -39.5 17t-14.5 49q-23 236 -51 301q-15 32 -23 38q-9 6 -31 8l-24 1q-25 1 -41 3t-38 6t-34 12t-12 20q0 8 18.5 24.5t27.5 16.5q8 0 25 -5
t20 -6q21 -5 48 -7q17 -1 50 -1q169 0 238 17q37 10 69 10q42 0 58 -20q17 -22 17 -34z" />
    <glyph glyph-name="U" unicode="U" horiz-adv-x="496" 
d="M446 268q0 -52 -19 -121t-49 -99q-57 -58 -184 -58q-42 0 -72 19t-45 52t-21.5 67.5t-6.5 74.5q0 172 50 172q35 0 35 -29q0 -6 -2 -16q-12 -65 -12 -145q0 -52 19 -90.5t65 -38.5q84 0 129 53t45 139q0 29 -13.5 60t-13.5 45q0 19 9 34.5t26 15.5q8 0 20 -12
q40 -41 40 -123z" />
    <glyph glyph-name="V" unicode="V" horiz-adv-x="487" 
d="M472 345q0 -6 -8 -17t-19.5 -23.5t-13.5 -15.5q-30 -38 -72 -157q-56 -158 -99 -158q-12 0 -33 34t-43.5 78.5t-28.5 53.5q-7 9 -42.5 52l-67 81t-31.5 40q0 28 26 28q20 0 57.5 -33.5t57.5 -58.5l30.5 -42l52 -69t30.5 -31q8 0 24 42.5l34 93t49 93t64 42.5q15 0 24 -9
t9 -24z" />
    <glyph glyph-name="W" unicode="W" horiz-adv-x="632" 
d="M575 293q0 -38 -10 -117t-20 -110q-13 -41 -56.5 -77t-84.5 -36q-31 0 -58 33.5t-39 69.5q-1 3 -3 13t-5 20l-6 20.5t-7.5 17t-8.5 6.5t-20 -19l-35.5 -41.5t-51 -41.5t-63.5 -19q-54 0 -54 75q0 45 -2 134.5t-2 133.5q0 12 6 23t18 11q18 0 28.5 -12.5t10.5 -31.5v-20
l1 -20v-36q0 -1 -0.5 -15t-0.5 -28t0.5 -34t1.5 -36.5t2.5 -32t5 -24t8.5 -8.5q22 0 88 66q13 13 25 44t24.5 52t31.5 21q23 0 39.5 -59.5l33.5 -119t40 -59.5q90 0 89 257v7q0 17 12 33t28 16q34 0 34 -56z" />
    <glyph glyph-name="X" unicode="X" horiz-adv-x="471" 
d="M429 377q0 -24 -59.5 -93.5t-59.5 -80.5q0 -23 22 -53.5t43.5 -54t21.5 -31.5q0 -13 -14.5 -26.5t-27.5 -13.5q-14 0 -36 15.5t-31 28.5q-2 3 -10 19t-16 28t-14 12t-11.5 -5.5t-11 -14.5t-7.5 -12q-2 -2 -10.5 -9.5t-14.5 -14.5t-6 -12q0 -8 15 -16.5t15 -17.5
q0 -14 -18.5 -23.5t-33.5 -9.5q-62 0 -62 50q0 33 25.5 63.5t50.5 54t25 39.5q0 15 -32 41.5t-53 37.5q-4 2 -20 9l-31 14t-31.5 16t-26.5 17.5t-10 14.5q0 16 10 29t26 13q30 0 79.5 -30.5t90.5 -60.5t50 -30q17 0 69 71.5t68 71.5q11 0 23.5 -12.5t12.5 -23.5z" />
    <glyph glyph-name="Y" unicode="Y" horiz-adv-x="509" 
d="M494 423q0 -27 -35.5 -69t-63.5 -58q-11 -6 -70 -31t-63 -29q-12 -12 -24 -54t-12 -63q0 -26 5.5 -39t12.5 -15t12.5 -10.5t5.5 -26.5q0 -13 -15 -21.5t-29 -8.5q-24 0 -39 20t-19.5 42.5t-4.5 46.5q0 15 7.5 44.5t7.5 44.5q0 18 -11 18q-53 0 -92 35.5t-39 87.5
q0 23 3.5 45t17 43.5t35.5 21.5q12 0 25.5 -8t13.5 -20q0 -8 -16 -29.5t-16 -28.5q0 -67 88 -67q35 0 87 15.5t97.5 47.5t45.5 68q0 17 11.5 28t28.5 11q12 0 28.5 -14.5t16.5 -26.5z" />
    <glyph glyph-name="Z" unicode="Z" 
d="M569 58q0 -36 -60 -44q-19 -2 -125 -7q-126 -6 -188 -7h-32q-21 0 -33 1t-32 5t-30 15t-10 29q0 28 36 67.5t79 72t79 64.5t36 46q0 8 -14 8q-22 0 -48.5 -5t-43 -9.5t-49.5 -14.5l-43 -13q-11 -3 -20 -3q-36 0 -36 23q0 35 26 45q24 10 120.5 31t121.5 21q105 0 105 -34
q0 -23 -36.5 -67.5t-66.5 -71.5l-46 -36t-61.5 -51t-35.5 -42q59 -4 132 -4q48 0 72 3q15 1 65.5 8t77.5 7q60 0 60 -37z" />
    <glyph glyph-name="bracketleft" unicode="[" horiz-adv-x="398" 
d="M394 492q0 -18 -14.5 -31t-33.5 -17q-9 -2 -44 -12t-60 -15.5t-45 -6.5q-4 0 -10 -0.5t-8.5 -0.5t-6 -0.5t-5 -2l-3.5 -3.5t-2.5 -6t-1.5 -9t-2 -12q-1 -8 -1 -25q0 -27 3.5 -81.5t3.5 -81.5q0 -26 -11 -78t-11 -77q0 -15 5.5 -22t12 -8t21.5 -1q16 0 59 -6.5t55 -11.5
q23 -12 23 -38q0 -28 -43 -28q-123 0 -175 26l-10 5l-10 5t-8 5t-7.5 6t-5.5 6.5t-5 8.5t-2 10t-1 13q0 1 3 34q4 22 13 61.5t14 72t5 63.5q0 52 -7 100q-9 72 -9 74q0 61 64 64q67 3 148 28q75 25 80 25q15 0 23.5 -9t8.5 -24z" />
    <glyph glyph-name="backslash" unicode="\" horiz-adv-x="484" 
d="M473 20q0 -13 -16 -21.5t-30 -8.5q-8 0 -29 13.5t-49 36.5l-51.5 43l-49.5 43t-31 27q-58 49 -176 184q-31 36 -31 60q0 23 33 23q27 0 68 -49q58 -74 110 -117l148 -118l23 -17.5t26.5 -21.5t20.5 -19q34 -36 34 -58z" />
    <glyph glyph-name="bracketright" unicode="]" horiz-adv-x="421" 
d="M387 465q0 -14 -22.5 -54t-44.5 -94t-22 -101q0 -33 -1 -98.5t-1 -98.5q0 -10 1 -30t1 -29q0 -20 -19.5 -34t-40.5 -14q-6 0 -10 1q-13 1 -51.5 2t-70.5 3.5t-46 8.5q-32 12 -32 41q0 15 13.5 24.5t28.5 9.5q18 0 53 -4t52 -4t27.5 13t13.5 36.5t3.5 43t-1 46.5t-1.5 33
q0 46 14 114.5t33 106.5q5 10 5 18q0 10 -5 15t-10 5.5t-16 0.5q-15 0 -44.5 2.5t-43.5 2.5t-41 -3.5t-40 -3.5q-25 0 -25 36q0 42 36 42h256q19 0 35 -9.5t16 -27.5z" />
    <glyph glyph-name="asciicircum" unicode="^" horiz-adv-x="434" 
d="M373 161q0 -20 -10 -33.5t-30 -13.5q-32 0 -47 26.5t-15 61.5q0 106 4 135q1 3 1 10q0 20 -12 20q-9 0 -79.5 -68.5t-89.5 -90.5q-14 -17 -37 -17q-18 0 -29.5 11.5t-11.5 30.5q0 21 28 40q87 61 207 181q3 3 21 24t31.5 31t28.5 10q36 0 36 -29v-8q-14 -110 -14 -165
q0 -92 12 -123q6 -16 6 -33z" />
    <glyph glyph-name="underscore" unicode="_" horiz-adv-x="695" 
d="M690 -59q0 -50 -72 -50q-20 0 -59 6.5t-59 6.5q-18 0 -37 -3q-37 -5 -170 -10q-152 -4 -228 -4q-48 0 -48 30q0 16 19.5 31.5t36.5 15.5q25 0 75 -0.5t75 -0.5q67 0 199.5 10.5t199.5 10.5q26 0 47 -10t21 -33z" />
    <glyph glyph-name="grave" unicode="`" horiz-adv-x="315" 
d="M288 307q0 -20 -11 -35.5t-30 -15.5q-10 0 -16.5 5.5t-12.5 16.5t-11 16q-16 17 -61.5 54l-52.5 43q-22 19 -22 44q0 28 34 28q13 0 45.5 -26t48.5 -43q3 -3 29.5 -23t43 -36.5t16.5 -27.5z" />
    <glyph glyph-name="a" unicode="a" horiz-adv-x="450" 
d="M444 -6q0 -18 -16 -27t-36 -9q-56 0 -87 32q-3 2 -11 13.5l-15 21.5t-8 10t-12.5 -9.5t-14.5 -10.5q-30 -18 -86 -18q-50 0 -79.5 24.5t-29.5 73.5q0 32 19 79.5t44 57.5q12 5 39.5 18t48.5 19t43 6q18 0 39.5 -7.5t30.5 -20.5q50 -10 50 -44q0 -17 -6.5 -51t-6.5 -52
q0 -31 9.5 -47.5t23.5 -20.5t28 -6t23.5 -8.5t9.5 -23.5zM265 122q0 18 -16 18q-4 0 -18 -8t-23 -8q-8 0 -16.5 6.5t-8.5 14.5q0 9 25 24t25 26q0 7 -11 7q-31 0 -64.5 -34.5t-33.5 -64.5q0 -34 42 -34q25 0 62 15.5t37 37.5z" />
    <glyph glyph-name="b" unicode="b" horiz-adv-x="410" 
d="M367 184q0 -66 -47 -127t-111 -61q-18 0 -50 7.5t-49 7.5q-4 0 -13 -1t-14 -1q-18 0 -18 20q0 30 3 90.5t3 90.5q0 66 -5 83l-12.5 37.5t-18.5 59.5t-7 34q0 10 9.5 21t18.5 11q19 0 37.5 -28.5t23.5 -50.5q0 -1 4.5 -34t13.5 -47.5t28 -14.5q27 0 57.5 -4t65.5 -14
t58 -30.5t23 -48.5zM288 164q0 42 -93 42q-29 0 -42.5 -8.5t-13.5 -34.5v-16.5v-15.5t0.5 -13t1.5 -12t3 -9.5t5.5 -9l8.5 -6t11.5 -5t15.5 -2.5t20 -1q83 0 83 91z" />
    <glyph glyph-name="c" unicode="c" horiz-adv-x="426" 
d="M421 32q0 -12 -5.5 -19.5t-16 -10t-19 -3t-23 0.5t-18.5 1q-29 0 -87.5 -1.5t-88.5 -1.5q-121 0 -121 73q0 75 67 138t143 63q40 0 70 -18.5t30 -55.5q0 -20 -14 -38.5t-34 -18.5q-23 0 -33 7.5t-9.5 17t-6 17t-23.5 7.5q-33 0 -75 -33.5t-42 -65.5q0 -8 6 -13.5
t16.5 -8.5t22 -4.5t26 -2t25 -0.5t22 0.5t13.5 0.5h12h19.5h24t27 -1t27 -2t25.5 -3.5t20.5 -5.5t14.5 -8t5 -11z" />
    <glyph glyph-name="d" unicode="d" horiz-adv-x="591" 
d="M563 36q0 -12 -27 -19.5t-43 -7.5q-39 0 -74.5 13.5t-57 27.5t-24.5 14q-7 0 -39 -17.5t-74 -35.5t-72 -18q-34 0 -70.5 23t-36.5 56q0 19 13 49q41 86 146 86q67 0 67 -38q0 -24 -35.5 -34t-70.5 -17.5t-35 -27.5q0 -24 32 -24t90 27.5t77 51.5q-20 44 -20 139
q0 42 14 106t48 123t77 59q34 0 56.5 -34t30.5 -71.5t8 -71.5q0 -46 -14 -91t-34 -77.5t-39.5 -57.5t-33.5 -40t-14 -17q0 -20 40.5 -31t66.5 -11q15 0 31.5 -10t16.5 -24zM489 387q0 27 -9.5 66.5t-27.5 39.5q-15 0 -35 -56t-25 -83q-7 -44 -7 -75q0 -42 11 -88
q34 31 63.5 91.5t29.5 104.5z" />
    <glyph glyph-name="e" unicode="e" horiz-adv-x="539" 
d="M532 53q0 -14 -19 -26t-35 -15q-134 -32 -206 -32q-50 0 -100.5 26t-74.5 67q-73 0 -73 40q0 9 3.5 15t12 8.5t13.5 3t17.5 0t13.5 -0.5q16 0 27 25q56 118 157 118q33 0 54 -16t21 -48q0 -39 -25 -65t-54.5 -34.5t-54.5 -16.5t-25 -16q0 -19 40.5 -28.5t70.5 -9.5
q8 0 22.5 0.5t21.5 0.5q51 3 91 10q45 8 54 8q48 0 48 -14zM274 195q0 8 -11.5 12t-21.5 4q-17 0 -38 -19.5t-21 -34.5q0 -7 10 -7q16 0 49 16t33 29z" />
    <glyph glyph-name="f" unicode="f" horiz-adv-x="521" 
d="M526 197q0 -29 -62 -36q-121 -14 -212 -14h-6h-7.5t-7 -0.5t-7 -1.5t-5 -2.5t-4 -4.5t-1.5 -7q0 -10 15 -54t15 -67q0 -30 -28 -30q-5 0 -9.5 2t-9 6t-7 7.5t-6 10.5t-5 10.5l-4.5 11t-4 8.5l-11.5 27.5l-13.5 32l-11 27.5q-3 8 -6.5 11.5t-7.5 4t-13 0.5h-5h-5
q-78 -1 -78 36q0 19 11 27.5t25 7.5t25 1t11 11q0 12 -4.5 42t-4.5 46q0 69 42.5 131.5t108.5 62.5q37 0 58.5 -38.5t21.5 -78.5q0 -48 -20.5 -87.5t-61.5 -59.5q-16 -8 -16 -14q0 -8 21 -12.5t35 -4.5q26 0 78.5 8.5t78.5 8.5q25 0 61 -7t36 -22zM252 379q0 43 -13 51
q-6 3 -13 3q-26 0 -43 -25.5t-22.5 -53.5t-5.5 -54t16 -26q23 0 52 40.5t29 64.5z" />
    <glyph glyph-name="g" unicode="g" horiz-adv-x="389" 
d="M343 197q0 -13 -9 -37t-9 -38q0 -30 5 -89t5 -88q0 -27 -5.5 -61.5t-17.5 -71.5t-34.5 -62t-51.5 -25q-42 0 -88 26t-76 62q-17 24 -17 29q0 19 20 34.5t40 15.5q31 0 45 -40q6 -16 23.5 -32.5t32.5 -16.5q9 0 17 5t13 15t9 20.5t6 26.5l3.5 28t2 28.5t0.5 25.5v22.5
v15.5q0 77 -29 76h-28q-145 -3 -145 80q0 54 55 82.5t116 28.5q24 0 47 -3.5t46.5 -18t23.5 -38.5zM229 174q0 12 -18 12q-11 0 -44 -11.5t-33 -18.5q0 -8 15.5 -13t26.5 -5q53 0 53 36z" />
    <glyph glyph-name="h" unicode="h" horiz-adv-x="392" 
d="M382 -28q0 -20 -13 -31.5t-35 -11.5q-24 0 -40 19t-23.5 43t-19.5 49.5t-26 35.5q-30 19 -38 19q-12 0 -12 -57q0 -18 -10.5 -28t-28.5 -10q-36 0 -44 62q-1 9 -6.5 62t-10.5 86t-18 72.5t-32 54.5q-11 10 -11 23q0 15 10 27t24 12q19 0 44 -34.5t32 -56.5
q2 -6 5.5 -39.5t11.5 -55.5t24 -22q31 0 70 -24t59 -52q26 -33 56 -103q3 -6 17.5 -19t14.5 -21z" />
    <glyph glyph-name="i" unicode="i" horiz-adv-x="192" 
d="M147 406q0 -18 -13 -55t-26 -37q-45 0 -45 52q0 20 1.5 32t11 23.5t26.5 11.5q45 0 45 -27zM145 179q0 -25 -5 -79.5t-11 -71.5q-8 -26 -33 -26q-18 0 -31 16.5t-13 35.5q0 7 8 55q6 38 6 76q0 33 38 33q22 0 31.5 -8.5t9.5 -30.5z" />
    <glyph glyph-name="j" unicode="j" horiz-adv-x="310" 
d="M166 323q0 -42 -25 -42q-17 0 -33.5 17t-18.5 34q-1 4 -0.5 22.5t-1.5 32.5t-8 19q-9 9 -9 24q0 33 37 33q22 0 32 -6t12 -26q1 -13 8 -51t7 -57zM270 54q0 -26 -1 -40.5t-6 -35.5t-17 -35t-32 -23q-3 -1 -15 -6.5l-16.5 -7.5l-15 -6.5t-17 -6.5t-15.5 -4.5t-17.5 -3.5
t-16.5 -1q-24 0 -46 14t-33 35q-20 40 -20 54q0 15 12 23.5t28 8.5q22 0 32 -7.5t10.5 -16.5t7.5 -16.5t23 -7.5q28 0 55.5 18.5t27.5 45.5q0 41 -1 63t-9 57.5t-25 55.5q-15 18 -15 38q0 30 29 30q25 0 55 -48q18 -27 28 -81t10 -96z" />
    <glyph glyph-name="k" unicode="k" horiz-adv-x="518" 
d="M517 19q0 -22 -27 -22q-24 0 -95.5 17t-93.5 28q-21 11 -59.5 37t-49.5 39q-1 1 -5.5 7t-8.5 10t-7 4q-7 0 -7 -23q0 -2 -0.5 -12.5t-1 -17.5t-2 -19.5t-3 -21.5t-4 -20.5t-6 -19.5t-7.5 -15.5t-10 -11t-13 -3.5q-14 0 -23 9.5t-11 27t-2.5 32t1 35t1.5 25.5
q0 34 -20 105.5t-20 107.5q0 8 3 24t3 24q0 16 -12.5 47.5t-12.5 49.5q0 35 33 35q21 0 41 -19.5t20 -40.5q0 -29 6.5 -83.5t7.5 -65.5q0 -2 2 -14.5t3.5 -24.5t4.5 -25.5t6 -22t6 -8.5q2 0 19.5 16.5l36.5 35t24 22.5q98 70 117 103q9 16 22 16q12 0 25.5 -11t13.5 -22
q0 -23 -50 -70.5t-87 -73.5q-33 -22 -33 -32q0 -26 79.5 -57t128.5 -42q23 -6 45 -22.5t22 -36.5z" />
    <glyph glyph-name="l" unicode="l" horiz-adv-x="193" 
d="M138 147v-133q0 -16 -6 -23.5t-22 -7.5q-21 0 -32.5 13t-13.5 27t-2 37q0 28 3 82t3 81q0 24 -4 73.5t-4 73.5q0 55 28 55q15 0 29 -8.5t14 -22.5q0 -42 3.5 -124t3.5 -123z" />
    <glyph glyph-name="m" unicode="m" horiz-adv-x="723" 
d="M689 -32q0 -14 -13.5 -20.5t-29.5 -6.5q-55 0 -85 36q-13 16 -20.5 47l-12.5 52.5t-13 21.5q-10 0 -54 -31.5t-73 -31.5q-17 0 -29 10t-17 21.5t-12 21.5t-15 10q-13 0 -29 -16t-29 -35.5t-30.5 -35.5t-32.5 -16q-30 0 -30 55q0 29 -18 66.5t-44 37.5q-18 0 -41 -24
t-34 -24q-20 0 -20 26q0 32 34.5 65.5t66.5 33.5q27 0 48 -16t31.5 -35.5t20 -35.5t16.5 -16q3 0 43.5 32.5t59.5 32.5q28 0 45 -17.5t25 -34.5t13 -17q8 0 56.5 38.5t60.5 38.5q20 0 44 -25.5t31 -47.5q5 -15 7 -41t10 -42.5t31 -31.5q39 -25 39 -45z" />
    <glyph glyph-name="n" unicode="n" horiz-adv-x="498" 
d="M456 -2q0 -14 -14.5 -26.5t-28.5 -12.5q-26 0 -41 23t-19 50t-11.5 50t-20.5 23q-19 0 -53 -46.5t-56 -46.5q-17 0 -23 21t-5.5 46.5t-11 46.5t-37.5 21q-20 0 -56.5 -16t-46.5 -16q-32 0 -32 36q0 23 61 49t92 26q21 0 38 -11t25.5 -23.5t18 -23.5t17.5 -11q5 0 18 11.5
t34 23t45 11.5q45 0 78 -98q29 -92 29 -107z" />
    <glyph glyph-name="o" unicode="o" horiz-adv-x="373" 
d="M332 167q0 -83 -45.5 -137.5t-127.5 -54.5q-48 0 -76.5 28t-28.5 75q0 63 47.5 119t109.5 56q8 0 17 -4t13 -4q5 0 15 3t16 3q60 0 60 -84zM209 144q0 8 -7.5 13t-16.5 5q-19 0 -33.5 -23t-14.5 -43v-14q0 -30 34 -30q27 0 27 12q0 4 -2 10t-2 10q0 12 7.5 32.5t7.5 27.5
z" />
    <glyph glyph-name="p" unicode="p" horiz-adv-x="399" 
d="M371 129q0 -54 -31 -103.5t-82 -49.5q-24 0 -50.5 8t-31.5 8q-10 0 -10 -43q0 -16 2 -48t2 -48q0 -20 -15 -39.5t-34 -19.5q-22 0 -31 28.5t-9 56.5q0 44 -6 122t-14 104q-5 17 -5 30q0 35 33 50q87 40 143 40q139 0 139 -96zM299 113q0 23 -10 30.5t-34 7.5
q-105 0 -105 -44q0 -57 80 -57q69 0 69 63z" />
    <glyph glyph-name="q" unicode="q" horiz-adv-x="448" 
d="M451 -88q0 -50 -46 -101.5t-95 -51.5q-93 0 -93 113q0 24 4 71.5t4 70.5q0 8 -5 8t-17 -7q-27 -12 -76 -12q-79 0 -79 100q0 42 15.5 69.5t51.5 49.5q65 37 106 37q39 0 68 -22.5t29 -60.5q0 -16 -7 -38.5t-7 -24.5q0 -4 4 -4q16 -13 35.5 -43t31.5 -41
q23 -20 35.5 -32.5t26.5 -35.5t14 -45zM240 166q0 30 -25 30q-24 0 -48.5 -12t-24.5 -34q0 -5 4 -11t4 -12q0 -14 -15 -27t-15 -19q0 -14 19 -14q17 0 68 32q15 9 24 28.5t9 38.5zM367 -98q0 19 -22.5 48.5t-40.5 29.5q-2 0 -3 -2t-1 -5v-5.5t0.5 -5.5t0.5 -4
q0 -6 -6.5 -13.5t-6.5 -22.5q0 -86 31 -86q19 0 33.5 23t14.5 43z" />
    <glyph glyph-name="r" unicode="r" horiz-adv-x="293" 
d="M273 227q0 -4 -20 -16.5l-42.5 -26t-26.5 -19.5q-8 -11 -13 -22t-8 -18.5t-4 -20.5l-1.5 -19.5t0 -23t0.5 -23.5q0 -51 -41 -51q-19 0 -29 15.5t-10 35.5q0 11 5 32.5t5 33.5q0 31 -8.5 50t-18 25t-18 17t-8.5 27q0 25 28 25q8 0 13.5 -1.5t7 -3t7 -8.5l8.5 -11
q1 -2 3.5 -6.5t4 -8.5t5 -7t6.5 -3q9 0 48.5 35t64.5 35q12 0 27 -14t15 -28z" />
    <glyph glyph-name="s" unicode="s" horiz-adv-x="363" 
d="M312 240q0 -25 -12.5 -42.5t-28 -23.5t-28 -12t-12.5 -12q0 -4 14.5 -12t29.5 -23t15 -36q0 -37 -55 -80t-94 -43q-27 0 -58 20.5t-31 46.5q0 24 30 24q12 0 35 -7t34 -7q9 0 33.5 10.5t24.5 17.5t-16.5 13t-37.5 11t-26 8q-22 13 -41.5 39.5t-19.5 49.5q0 34 56.5 66.5
t94.5 32.5q93 0 93 -41z" />
    <glyph glyph-name="t" unicode="t" horiz-adv-x="498" 
d="M482 200q0 -24 -31 -34t-68.5 -9.5t-68.5 -9.5t-31 -34q0 -26 17 -43t43 -17q13 0 38 9t38 9q39 0 39 -34q0 -18 -45.5 -37.5t-67.5 -19.5q-66 0 -99 36q-12 13 -20 40t-15 46.5t-19 19.5q-16 0 -71 -6t-65 -9q-6 -2 -10 -2q-12 0 -22 12.5t-10 25.5q0 22 32.5 29t71 5
t71.5 9t34 41q0 4 -0.5 11.5t-0.5 10.5q0 22 7.5 44t24.5 22q15 0 30 -12.5t15 -27.5q0 -7 -8 -23.5t-8 -24.5q0 -19 39 -19q19 0 59 3t60 3q41 0 41 -14z" />
    <glyph glyph-name="u" unicode="u" 
d="M585 26q0 -18 -59.5 -25t-101.5 -7q-28 0 -46 11t-24.5 23.5t-13.5 23.5t-15 11t-26.5 -17.5t-52.5 -35.5t-80 -18q-103 0 -103 76q0 117 -12 138q-5 10 -5 18q0 28 33 28q28 0 38 -29.5t7.5 -65.5t5.5 -65.5t32 -29.5q58 0 97.5 35.5t39.5 92.5q0 6 -2 18t-2 18
q0 10 7 17t17 7q22 0 34.5 -39t28 -82.5t42.5 -51.5q13 -3 63.5 -3.5t61.5 -7.5q36 -23 36 -40z" />
    <glyph glyph-name="v" unicode="v" horiz-adv-x="356" 
d="M327 218q0 -35 -9.5 -87t-22.5 -81q-17 -38 -44 -71.5t-55 -33.5q-52 0 -89 76l-16 37q-15 31 -40 91t-25 73q0 14 11 23t24 9q21 0 45 -53l47 -106t39 -53q24 0 43.5 53.5t19.5 83.5q0 10 -5.5 29.5t-5.5 30.5q0 47 39 47q22 0 33 -22t11 -46z" />
    <glyph glyph-name="w" unicode="w" horiz-adv-x="578" 
d="M543 173q0 -30 -8.5 -72t-21.5 -62q-31 -45 -99 -45h-6q-22 0 -34 1t-29.5 7t-27.5 18q-3 3 -12.5 17.5t-18.5 24t-17 9.5t-29 -14.5t-53 -28.5t-65 -14q-81 0 -81 165q0 63 30 63q44 0 44 -31q0 -11 -4.5 -35t-4.5 -36q0 -22 15 -37t37 -15q28 0 49 22t38 44t36 22
q16 0 30 -16.5t23.5 -37t29.5 -37t46 -16.5q22 0 39.5 19.5t17.5 41.5q0 8 -4 24.5t-4 25.5q0 32 38 32q26 0 36 -7.5t10 -31.5z" />
    <glyph glyph-name="x" unicode="x" horiz-adv-x="442" 
d="M418 11q0 -15 -9 -30t-23 -15q-4 0 -13 10t-19 22.5t-14 15.5q-3 2 -16.5 14.5l-25.5 23t-24.5 19.5t-16.5 9q-15 0 -40.5 -52t-44.5 -52q-12 0 -18 8t-7 15.5t-1 20.5q0 26 21.5 57.5t21.5 48.5q0 18 -15 33q-59 55 -80 55q-7 0 -19.5 -6.5t-20.5 -6.5q-20 0 -29.5 15
t-9.5 36q0 7 2.5 12t8.5 7t9.5 3t12.5 1.5t11 0.5q8 1 22.5 9.5t22.5 8.5q28 0 56 -21.5t48.5 -42.5t30.5 -21q17 0 48.5 26.5t49.5 26.5q24 0 24 -14t-32 -44.5t-32 -46.5q0 -9 13 -21t31.5 -24.5t22.5 -16.5q17 -16 35.5 -42.5t18.5 -41.5z" />
    <glyph glyph-name="y" unicode="y" horiz-adv-x="455" 
d="M398 -52q0 -66 -29 -97.5t-96 -31.5h-21.5t-23 1t-26 4.5l-20.5 8.5t-17 14t-5 21q0 10 4.5 18t13.5 12.5t18 7t22.5 3.5t22 1t21 -0.5t16.5 -0.5q25 0 37 8.5t12 32.5q0 23 -11 77.5t-25 54.5q-11 0 -31.5 -16t-49.5 -31.5t-60 -15.5q-95 0 -95 153q0 99 44 99
q15 0 26 -10.5t11 -25.5q0 -12 -4 -37t-4 -38q0 -66 31 -66q14 0 45 18q60 39 83 95q1 2 4 9.5l4 10t4 8t5.5 7t6.5 4.5t9 4t11 1q8 0 14.5 -2.5t10.5 -8t6 -10.5t3 -14.5t1 -14v-15v-12.5q0 -38 16 -112.5t16 -113.5z" />
    <glyph glyph-name="z" unicode="z" horiz-adv-x="557" 
d="M546 29q0 -23 -13.5 -30t-38.5 -7q-14 0 -41.5 9t-45.5 9q-23 0 -69 -9t-70 -9q-27 0 -59 7t-61 26t-29 46q0 23 13.5 43t30 30.5t30 21t13.5 16.5q0 4 -7 4q-25 0 -71 -16t-68 -16q-15 0 -30.5 10t-15.5 24q0 16 47 33.5t80 24.5q6 1 39 3.5l63 5t31 3.5q15 12 28 12
q45 0 45 -32q0 -24 -10.5 -38.5t-34.5 -29.5q-18 -11 -53 -41t-35 -42q0 -18 70 -18q24 0 71.5 4t71.5 4q33 0 76 -12t43 -36z" />
    <glyph glyph-name="braceleft" unicode="{" horiz-adv-x="390" 
d="M380 585q0 -21 -9.5 -30t-30.5 -9q-12 0 -36.5 8.5t-38.5 8.5q-36 0 -62.5 -32t-26.5 -69q0 -34 19 -80t19 -59q0 -7 -4.5 -20t-4.5 -19q0 -12 16 -25t32 -31.5t16 -46.5q0 -37 -34.5 -97t-34.5 -102q0 -30 13 -49.5t31 -29t36.5 -16.5t31.5 -18.5t13 -29.5t-12.5 -27.5
t-31.5 -9.5q-80 0 -123.5 51t-43.5 133q0 47 31.5 100.5t31.5 77.5q0 9 -3.5 15t-11 8t-13 2t-16.5 -0.5t-14 -0.5q-92 0 -92 56q0 22 20.5 36t44.5 14q30 0 30 24q0 15 -14 62t-14 78q0 52 22 86q36 54 64 72.5t89 18.5q36 0 73.5 -11.5t37.5 -38.5z" />
    <glyph glyph-name="bar" unicode="|" horiz-adv-x="200" 
d="M165 456q0 -9 -11 -32t-13 -37q-24 -181 -24 -232q0 -33 16 -74t16 -45q0 -24 -32 -24q-31 0 -51 23t-20 55q0 67 15 228q1 7 3 40.5t5 54t8 39.5q7 25 18 38.5t34 13.5q15 0 25.5 -16t10.5 -32z" />
    <glyph glyph-name="braceright" unicode="}" horiz-adv-x="383" 
d="M353 529q0 -39 -27 -83t-59 -76.5t-59 -69t-27 -61.5q0 -26 21 -37.5t45.5 -11.5t45.5 -7t21 -25q0 -29 -16 -38t-31.5 -11t-15.5 -13q0 -10 23.5 -63.5t23.5 -91.5q0 -34 -20 -71q-26 -45 -61 -63t-90 -18q-2 0 -18.5 -0.5t-22.5 0t-20.5 2t-21.5 4.5t-16 8.5
t-12.5 14.5t-3.5 21q0 31 27 31q14 0 41.5 -3.5t40.5 -3.5q42 0 65.5 21.5t23.5 63.5q0 52 -39 93q-19 19 -26 55t-18 50q-28 35 -28 97q0 31 27.5 73.5t60 76.5t60 66.5t27.5 45.5q0 22 -23 34t-47 12h-140q-14 0 -25 10t-11 24q0 47 71 47q25 0 75 -7t76 -7
q46 0 74.5 -22.5t28.5 -66.5z" />
    <glyph glyph-name="asciitilde" unicode="~" horiz-adv-x="623" 
d="M606 417q0 -16 -1.5 -24t-7.5 -15.5t-20 -12.5q-17 -6 -48.5 -32t-55.5 -32q-15 -4 -46.5 -14.5t-57.5 -16.5t-48 -6q-25 0 -45.5 16.5t-20.5 40.5q0 8 7 24.5t7 25.5q0 10 -8 10q-17 0 -97 -58.5t-105 -58.5q-38 0 -38 35q0 5 3.5 11.5t10 13l13.5 13t17.5 13.5t18.5 13
t19.5 12.5t18 10.5t15.5 9t11 6q6 3 44 26.5t66.5 37t46.5 13.5q22 0 33.5 -20t11.5 -43q0 -9 -6 -28t-6 -28q0 -17 17 -17q38 0 91.5 25t72.5 55q1 2 5 9t6 10t6.5 8.5t8 8t9 4.5t11.5 2q19 0 30 -14t11 -33z" />
    <glyph glyph-name="uni00A0" unicode="&#xa0;" horiz-adv-x="239" 
 />
    <glyph glyph-name="exclamdown" unicode="&#xa1;" horiz-adv-x="211" 
d="M154 288q0 -51 -50 -51q-22 0 -30 8t-8 30q0 21 19.5 56t37.5 35q31 0 31 -78zM138 57q0 -8 -1 -12q-5 -31 -5 -158q0 -15 1.5 -44t1.5 -43q0 -32 -37 -32q-24 0 -32 9t-8 34q0 41 1 124t1 125q0 64 36 64q19 0 30.5 -23t11.5 -44z" />
    <glyph glyph-name="cent" unicode="&#xa2;" horiz-adv-x="479" 
d="M465 50q0 -3 -6 -21q-1 -6 -6.5 -10t-11 -6t-15 -3t-15.5 -1h-15.5h-11.5q-9 0 -57 2l9.5 -27l8.5 -25t3 -14q0 -15 -11 -23t-25 -8q-36 0 -58.5 29t-22.5 71v2q-111 11 -137 31q-24 19 -38 52t-14 65q0 109 114 177q67 39 99 50q3 47 12 89q8 32 20.5 49t37.5 17
q18 0 29.5 -20t11.5 -41q0 -11 -11 -37t-14 -40h13q87 0 87 -39q0 -9 -3.5 -14.5t-13 -7.5t-13 -2h-15.5q-9 0 -26.5 3.5t-25.5 3.5q-7 0 -10 -1q-22 -180 -22 -253q0 -12 1 -17h16.5h26t28.5 -0.5t30.5 -2.5t25 -5.5t19 -9t6.5 -13.5zM249 308l1 15q-89 -40 -104 -62
q-34 -47 -34 -103q0 -27 7.5 -43.5t24.5 -23.5t32.5 -9t44.5 -2l12 1q2 54 16 227z" />
    <glyph glyph-name="sterling" unicode="&#xa3;" horiz-adv-x="496" 
d="M465 33q0 -25 -18.5 -38.5t-44.5 -15t-54.5 -2.5t-48.5 -1q-26 -3 -68 -12t-56 -9q-17 0 -72 -6t-65 -9q-6 -2 -9 -2q-13 0 -23 12.5t-10 25.5q0 22 32.5 29t71.5 5t71.5 9t33.5 41v9l-1 5l-19 72q-35 -6 -65 -6q-25 0 -55.5 11t-30.5 30q0 34 82 34q35 0 52 1
q-30 134 -30 157q0 57 49.5 97t107.5 40q12 0 23.5 -2.5l20 -4.5t18 -9t15 -9.5t14.5 -14t12 -14t11.5 -17.5t10 -17t11 -19t9.5 -18q12 -22 12 -32q0 -14 -20 -23q-41 -19 -51 -19q-14 0 -30 15.5t-16 28.5q0 7 10 14.5t10 16.5q0 20 -24 34.5t-46 14.5q-28 0 -52.5 -20
t-24.5 -47q0 -38 28 -146q7 0 14 1t16 2.5t14 2.5q4 1 36 10t46 9q27 0 63 -20.5t36 -45.5q0 -28 -44 -28q-16 0 -49 5t-50 5q-27 0 -64 -5q2 -6 21 -72q6 -22 6 -33q0 -7 -1 -9q8 -3 24 -3q20 0 59.5 3t59.5 3q42 0 42 -14z" />
    <glyph glyph-name="yen" unicode="&#xa5;" horiz-adv-x="509" 
d="M494 423q0 -27 -35.5 -69t-63.5 -58q-9 -5 -84 -37q74 2 111 2q14 0 24 -11t10 -25q0 -32 -42 -32q-25 0 -75 0.5t-75 0.5h-22q-11 -35 -14 -58l25 4q8 2 25.5 7t32 8t25.5 3q27 0 63 -20t36 -45q0 -28 -45 -28q-16 0 -49 5t-49 5q-18 0 -54 -4q2 -2 10 -7t11 -12.5
t3 -23.5q0 -13 -15 -21.5t-29 -8.5q-43 0 -57 60q-42 -7 -68 -7q-24 0 -54.5 11t-30.5 31q0 34 81 34q46 0 68 2q0 2 6.5 27t6.5 38q-76 -2 -89 -9q-18 -9 -37 -9q-48 0 -48 39q0 29 71 35q-39 36 -39 87q0 23 3.5 45t17 43.5t35.5 21.5q12 0 25.5 -8t13.5 -20
q0 -8 -16 -29.5t-16 -28.5q0 -67 88 -67q35 0 87 15.5t97.5 47.5t45.5 68q0 17 11.5 28t28.5 11q12 0 28.5 -14.5t16.5 -26.5z" />
    <glyph glyph-name="brokenbar" unicode="&#xa6;" horiz-adv-x="192" 
d="M157 490q0 -26 -13 -107t-26 -81q-45 0 -45 53q0 161 39 161q45 0 45 -26zM145 179q0 -25 -5 -79.5t-11 -71.5q-8 -26 -33 -26q-18 0 -31 16.5t-13 35.5q0 7 8 55q6 38 6 76q0 33 38 33q22 0 31.5 -8.5t9.5 -30.5z" />
    <glyph glyph-name="section" unicode="&#xa7;" horiz-adv-x="380" 
d="M329 128q0 -30 -15.5 -57t-36.5 -43q50 -33 50 -76q0 -31 -18 -59t-42 -44q-19 -13 -56.5 -29.5t-53.5 -16.5q-19 0 -39.5 24.5t-20.5 49.5q0 12 8.5 20.5t18.5 8.5q6 0 24.5 -11.5t29.5 -11.5q16 0 54.5 24t38.5 41q0 22 -58 44q-28 -13 -43 -13q-21 0 -42 17.5
t-18 34.5q-75 35 -75 88q0 60 72 98q-51 31 -51 77q0 55 51 88t95 33q23 0 50 -25t27 -56q0 -22 -13.5 -45.5t-28.5 -23.5q-12 0 -12 15q0 6 2.5 19t2.5 20q0 33 -31 33q-20 0 -53.5 -16.5t-33.5 -39.5q0 -5 2.5 -9t8.5 -8.5t12 -7.5t16 -7.5t18 -7.5t21.5 -8.5t21.5 -8.5
q45 -3 43 -19q74 -38 74 -92zM278 124q0 8 -5.5 15t-20 14.5t-24.5 11.5l-33 13q-6 -2 -7 -2q-21 0 -57.5 -16.5t-36.5 -38.5q0 -7 5.5 -13t18 -12t23.5 -10l31.5 -11.5t32.5 -12.5q23 10 48 29t25 33z" />
    <glyph glyph-name="dieresis" unicode="&#xa8;" horiz-adv-x="315" 
d="M276 373q0 -18 -11.5 -30.5t-29.5 -12.5q-28 0 -41 21t-13 50q0 25 10.5 44t33.5 19q13 0 22.5 -14.5t9.5 -28.5q0 -8 9.5 -21.5t9.5 -26.5zM118 434q0 -119 -39 -119q-41 0 -41 94q0 65 43 65q18 0 27.5 -11t9.5 -29z" />
    <glyph glyph-name="copyright" unicode="&#xa9;" horiz-adv-x="656" 
d="M619 299q0 -106 -52 -186q-1 -6 -6 -9q-18 -28 -35 -42q-46 -42 -90 -42q-5 0 -11 -8q-23 -27 -100 -39t-136 -12q-33 0 -57 4.5t-47.5 17t-35.5 40t-12 68.5q0 76 41.5 153.5t99.5 133.5q69 65 127 98.5t128 33.5q76 0 131 -59.5t55 -151.5zM554 298q0 35 -13 83.5
t-35 55.5q-45 10 -74.5 5t-90.5 -28q-11 -4 -13 -6q-75 -45 -145.5 -131.5t-70.5 -170.5q0 -41 11.5 -58t41.5 -17q88 0 191 35q26 9 63 28q-72 -2 -107 -2q-121 0 -121 74q0 75 67.5 137.5t142.5 62.5q40 0 69.5 -18t29.5 -55q0 -21 -13.5 -39.5t-34.5 -18.5q-23 0 -32.5 8
t-9.5 17t-6.5 17t-22.5 8q-33 0 -75 -33.5t-42 -65.5q0 -11 10.5 -17.5t30 -8.5t34 -3t35 0t21.5 1q73 0 105 -3q23 31 38.5 72t15.5 71z" />
    <glyph glyph-name="ordfeminine" unicode="&#xaa;" horiz-adv-x="450" 
d="M447 138q0 -28 -44 -28q-16 0 -49 5t-50 5q-32 0 -101 -12t-97 -12q-25 0 -55.5 11t-30.5 31q0 34 82 34q94 0 164 13q18 4 49 13q-4 2 -10 8q-2 2 -10.5 14l-15.5 22t-8 10t-12.5 -9.5t-14.5 -10.5q-30 -18 -86 -18q-50 0 -79.5 24.5t-29.5 73.5q0 32 19 79t44 57
q11 4 39.5 18t48.5 20t43 6q18 0 39.5 -7.5t30.5 -20.5q16 -4 25 -7.5t17 -13t8 -23.5q0 -17 -6.5 -51t-6.5 -52q0 -31 9.5 -47.5t23.5 -20.5t28 -6t23.5 -8.5t9.5 -23.5q0 -23 -27 -32q30 -21 30 -41zM265 339q0 18 -16 18q-4 0 -18 -8t-23 -8q-8 0 -16.5 6.5t-8.5 14.5
q0 9 25 24t25 26q0 7 -11 7q-31 0 -64.5 -34.5t-33.5 -65.5q0 -33 42 -33q26 0 62.5 15t36.5 38z" />
    <glyph glyph-name="guillemotleft" unicode="&#xab;" horiz-adv-x="614" 
d="M583 61q0 -11 -11 -21t-21 -10q-9 0 -28 10.5t-23 12.5q-10 4 -59 31t-85 29q-1 0 -18.5 0.5t-24.5 2t-19.5 5t-18 11.5t-5.5 19q0 9 7.5 18t14.5 14.5t21 14t16 9.5q57 36 115 84q4 3 27.5 23t43 33.5t28.5 13.5q31 0 31 -37q0 -14 -98 -87q-65 -50 -81 -64
q39 -8 59.5 -16t55.5 -30q32 -20 49 -29q24 -12 24 -37zM330 288q0 -20 -25 -40l-58.5 -43.5t-61.5 -46.5q-1 -1 -5 -4l-10 -7.5l-11 -8.5l-3 -2q13 -5 33.5 -23.5t32.5 -22.5t34.5 -9t32.5 -8q25 -7 25 -33q0 -13 -7.5 -26.5t-22.5 -13.5q-9 0 -23.5 5t-22.5 5
q-10 0 -18.5 4.5t-19 12.5t-15.5 11t-17 11t-21.5 12.5t-18.5 7.5q-10 3 -27.5 12.5t-27.5 12.5q-27 7 -27 27q0 2 0.5 4t0.5 3q0 18 47 41q14 7 28.5 17.5t32 25.5t26.5 22l33 27.5t52 41t33 17.5q13 0 22 -9t9 -23z" />
    <glyph glyph-name="uni00AD" unicode="&#xad;" horiz-adv-x="339" 
d="M318 209q0 -14 -7 -20t-13 -6.5t-24 -0.5q-28 0 -85 -11t-86 -11q-13 0 -20 0.5t-19 3t-18 9.5t-6 19q0 18 19.5 35.5t38.5 17.5q27 0 81.5 5t82.5 5q19 0 37.5 -14t18.5 -32z" />
    <glyph glyph-name="registered" unicode="&#xae;" horiz-adv-x="393" 
d="M336 425q0 -79 -21 -121q7 -10 7 -20q0 -18 -22 -18q-7 0 -13 3q-30 -30 -56 -42.5t-67 -12.5q-53 0 -84 32t-31 85q0 50 18 87t55 77q71 76 115 76q26 0 59 -25t37 -51q3 -22 3 -70zM245 300l-31 18q-21 14 -29 25v-17q0 -42 -23 -42q-25 0 -25 24q0 5 1 7q2 19 2 56
q0 31 -2 45q-2 10 -2 15v3q-37 -62 -37 -109q0 -19 7 -31t23 -16.5t26.5 -5.5t32.5 -1h10q26 0 47 29zM290 446q0 35 -12.5 49.5t-46.5 14.5q-42 0 -84 -58q4 1 14 1l1 2q20 26 74 26q51 0 51 -38q0 -37 -38 -59l-28 -14l11 -7q2 -2 36 -21q22 54 22 104zM244 438v1
q-32 -3 -44 -11q-9 -5 -10 -16q-2 -8 -2 -14q8 7 22.5 14.5t24 13t9.5 12.5z" />
    <glyph glyph-name="macron" unicode="&#xaf;" horiz-adv-x="339" 
d="M305 407q0 -19 -19 -36.5t-38 -17.5q-27 0 -82.5 -5t-82.5 -5q-18 0 -36.5 14t-18.5 32q0 11 2.5 17t10.5 8.5t12 2.5h18q29 0 86 11t85 11q63 0 63 -32z" />
    <glyph glyph-name="degree" unicode="&#xb0;" horiz-adv-x="359" 
d="M326 377q0 -26 -16 -45t-42.5 -27.5t-50 -12t-48.5 -3.5q-45 0 -82 22t-37 64q0 32 23 61.5t54 49.5l31.5 20t48.5 27.5t35 9.5q17 0 37.5 -14t20.5 -30q0 -3 -8.5 -13t-8.5 -18q0 -9 21.5 -35.5t21.5 -55.5zM250 373q0 9 -9 25t-11 22q0 2 -1 7.5t-2 10t-2.5 9.5t-4 8
t-6.5 3q-16 0 -53.5 -33t-37.5 -48q0 -19 55 -19q1 0 13 -0.5t19.5 0t18 1.5t16 4.5t5.5 9.5z" />
    <glyph glyph-name="twosuperior" unicode="&#xb2;" horiz-adv-x="298" 
d="M290 319q0 -11 -15 -20.5t-24 -9.5q-5 0 -13.5 3.5t-12.5 3.5q-1 0 -20.5 4.5t-29.5 4.5q-8 0 -23.5 -3.5t-23.5 -3.5q-17 0 -34.5 11t-17.5 30q0 17 29 54t32 54h-2q-41 -2 -57 -12q-12 -7 -21 -7q-26 0 -26 32q0 30 38 40q52 13 88 13q19 0 32.5 -14.5t13.5 -34.5
q0 -42 -35 -96h9q25 1 57.5 -5t43.5 -20q12 -17 12 -24z" />
    <glyph glyph-name="threesuperior" unicode="&#xb3;" horiz-adv-x="268" 
d="M220 362q0 -31 -37.5 -61t-66.5 -30q-17 0 -35 11t-18 32q0 16 13.5 22.5t29.5 6t29.5 2.5t13.5 14q-1 2 -2.5 1t-6.5 -2.5t-9 -1.5q-16 2 -37 2q-15 0 -28 11l-5 5q-15 13 -15 26q0 19 36 37q-32 -4 -53 -11q-10 -4 -16 -4q-15 0 -22 10.5t-7 21.5q0 19 50 32t76 13
q60 0 60 -38q0 -19 -16 -40q66 -13 66 -59z" />
    <glyph glyph-name="acute" unicode="&#xb4;" horiz-adv-x="328" 
d="M257 417q0 -8 -17 -25.5t-39.5 -37t-28.5 -26.5q-9 -9 -27 -34t-32 -37.5t-30 -12.5q-17 0 -30.5 9t-13.5 25q0 6 5 14t15 18.5t17 17t20.5 18t15.5 12.5l49 45l13.5 14t16 16t15.5 10.5t19 5.5q32 0 32 -32z" />
    <glyph glyph-name="paragraph" unicode="&#xb6;" horiz-adv-x="461" 
d="M400 169v-133q0 -16 -6 -23.5t-22 -7.5q-21 0 -32.5 13t-13.5 27t-2 37q0 20 5 120q-3 0 -8.5 0.5t-7.5 0.5q-7 0 -21 -0.5t-21 -0.5q5 -66 13 -85q26 -55 26 -81q0 -13 -15 -24.5t-29 -11.5q-26 0 -40.5 39t-14.5 70q0 45 -3 92q-23 -1 -70 -1q-122 0 -122 73
q0 75 68 138t143 63q35 0 63 -14.5t34 -44.5q6 32 26 32q14 0 28.5 -9t14.5 -22q0 -42 3.5 -124t3.5 -123zM215 392h-8q-33 0 -75 -33.5t-42 -65.5q0 -34 115 -28q-2 46 -2 70q0 37 12 57zM330 262q-1 15 -4 55.5t-4 62.5q-13 -37 -44 -37h-12v-6q0 -42 2 -72q30 0 62 -3z
" />
    <glyph glyph-name="periodcentered" unicode="&#xb7;" horiz-adv-x="228" 
d="M160 156q0 -12 -16 -28.5t-29 -16.5q-21 0 -32.5 17t-11.5 38q0 19 10 40t26 20q53 -5 53 -70z" />
    <glyph glyph-name="cedilla" unicode="&#xb8;" horiz-adv-x="256" 
d="M20 49q20 48 48 41q20 -5 23 -31q2 -17 -9 -34q-3 -3 -15.5 -29.5t-12.5 -34.5q4 -3 12 -2.5t27 3.5t29 3q44 0 89 -26t45 -72q0 -62 -44 -96.5t-108 -34.5q-31 0 -61.5 18t-30.5 48q0 11 9.5 23t20.5 12q13 0 31.5 -16.5t36.5 -16.5q69 0 69 50q0 17 -19 30.5t-47 13.5
q-6 0 -19.5 -0.5t-19.5 -0.5q-14 0 -38.5 -9t-38.5 -9q-46 0 -46 34q0 8 33 68t36 68z" />
    <glyph glyph-name="onesuperior" unicode="&#xb9;" horiz-adv-x="234" 
d="M164 346q0 -12 -12.5 -30.5t-30.5 -18.5q-31 0 -27 42q0 3 0.5 7t0.5 5q0 20 -7.5 64t-15.5 53q-9 13 -9 22q0 8 6 15t18 7q19 0 27.5 -6.5t15.5 -23.5q10 -23 22 -69.5t12 -66.5z" />
    <glyph glyph-name="ordmasculine" unicode="&#xba;" horiz-adv-x="373" 
d="M332 397q0 -84 -45.5 -138t-127.5 -54q-48 0 -76.5 27.5t-28.5 75.5q0 63 47 118.5t110 55.5q8 0 17 -4t13 -4q5 0 15 3t16 3q60 0 60 -83zM366 155q0 -50 -35 -50q-9 0 -28.5 6.5t-29.5 6.5q-9 0 -18 -3q-27 -7 -83 -9q-62 -5 -112 -5q-23 0 -23 30q0 16 9.5 32t17.5 16
q12 0 36.5 -1t37.5 -1q32 0 97 11t98 11t33 -44zM209 374q0 17 -24 17q-19 0 -33.5 -22.5t-14.5 -42.5v-14q0 -30 34 -30q27 0 27 12q0 4 -2 10t-2 10q0 12 7.5 32.5t7.5 27.5z" />
    <glyph glyph-name="guillemotright" unicode="&#xbb;" horiz-adv-x="614" 
d="M360 210q0 -7 -4 -14t-12.5 -13.5t-14.5 -10.5t-16.5 -10t-12.5 -7q-62 -41 -115 -84q-2 -2 -14.5 -13t-22.5 -19l-23 -18t-23 -15.5t-16 -5.5q-17 0 -24 12.5t-7 25.5t98 86q65 50 81 64q-39 8 -59.5 16t-55.5 30q-38 24 -49 29q-24 12 -24 37q0 11 11 21t21 10
q9 0 28 -10.5t23 -12.5q12 -5 60 -31.5t84 -28.5h13q12 -1 16.5 -1t16 -1.5t16.5 -4t12 -6.5t10 -10.5t3 -14.5zM583 240q0 -1 -0.5 -3.5t-0.5 -3.5q0 -5 -2.5 -9.5t-6 -8t-9.5 -7.5t-10 -6l-10.5 -5t-7.5 -4q-15 -8 -29.5 -18.5t-32 -25l-26.5 -21.5q-4 -3 -33 -27.5
t-52 -41.5t-32 -17q-14 0 -23 8.5t-9 22.5q0 20 25 40q16 13 57.5 43t62.5 48l27 19l3 2q-14 5 -34.5 23.5t-32.5 22.5t-34.5 9t-32.5 8q-24 7 -24 33q0 13 7.5 26.5t22.5 13.5q8 0 23 -5t22 -5q10 0 18.5 -4.5t19 -12.5t15.5 -11t17 -11t21.5 -12.5t18.5 -7.5q10 -3 28 -13
t27 -12q27 -7 27 -27z" />
    <glyph glyph-name="onequarter" unicode="&#xbc;" horiz-adv-x="526" 
d="M164 346q0 -12 -12.5 -30.5t-30.5 -18.5q-31 0 -27 42q0 3 0.5 7t0.5 5q0 20 -7.5 64t-15.5 53q-9 13 -9 22q0 8 6 15t18 7q19 0 27.5 -6.5t15.5 -23.5q10 -23 22 -69.5t12 -66.5zM403 476q0 -12 -22 -46q-24 -36 -65.5 -109l-47.5 -83l-88 -137q-5 -7 -14 -21.5t-17 -26
t-16 -21.5q-22 -29 -45 -29q-13 0 -23.5 12.5t-10.5 25.5q0 16 12 31l65.5 91t73.5 105q107 160 124 214q9 26 40 26q12 0 23 -10t11 -22zM516 132q0 -11 -17 -22.5t-31 -14.5q-9 -3 -15 -3v-14q0 -11 -1 -33t-1 -33q0 -12 -14 -25.5t-27 -13.5q-19 0 -32 16.5t-13 31.5
q0 8 2.5 23.5t2.5 23.5q0 1 1.5 4t2.5 4t-1 2q-13 0 -39 -2t-39 -2q-22 0 -40.5 11.5t-18.5 31.5q0 11 9 22.5t18.5 19t25 17.5t19.5 13t20 18.5t28 23.5t24 8q38 0 62 -75q2 -5 5 -5t11 1t11 1q47 0 47 -29zM378 141q0 20 -10 20q-5 0 -22.5 -13t-17.5 -16q0 -1 8 -1
q7 -1 16 -1q26 0 26 11z" />
    <glyph glyph-name="onehalf" unicode="&#xbd;" horiz-adv-x="526" 
d="M164 346q0 -12 -12.5 -30.5t-30.5 -18.5q-31 0 -27 42q0 3 0.5 7t0.5 5q0 20 -7.5 64t-15.5 53q-9 13 -9 22q0 8 6 15t18 7q19 0 27.5 -6.5t15.5 -23.5q10 -23 22 -69.5t12 -66.5zM403 476q0 -12 -22 -46q-24 -36 -65.5 -109l-47.5 -83l-88 -137q-5 -7 -14 -21.5t-17 -26
t-16 -21.5q-22 -29 -45 -29q-13 0 -23.5 12.5t-10.5 25.5q0 16 12 31l65.5 91t73.5 105q107 160 124 214q9 26 40 26q12 0 23 -10t11 -22zM496 16q0 -11 -14.5 -20.5t-23.5 -9.5q-5 0 -13.5 3.5t-12.5 3.5l-22 5.5t-28 4.5q-8 0 -23.5 -4t-23.5 -4q-17 0 -35 11t-18 30
q0 17 29.5 54t32.5 54h-2q-37 0 -57 -12q-14 -7 -21 -7q-14 0 -20.5 11t-6.5 21q0 30 39 40q52 13 88 13q19 0 32.5 -14.5t13.5 -34.5q0 -38 -35 -96l9 1q81 0 100 -25q12 -14 12 -25z" />
    <glyph glyph-name="threequarters" unicode="&#xbe;" horiz-adv-x="526" 
d="M220 362q0 -31 -37.5 -61t-66.5 -30q-17 0 -35 11t-18 32q0 16 13.5 22.5t29.5 6t29.5 2.5t13.5 14q-1 2 -2.5 1t-6.5 -2.5t-9 -1.5q-16 2 -37 2q-15 0 -28 11l-5 5q-15 13 -15 26q0 19 36 37q-32 -4 -53 -11q-10 -4 -16 -4q-15 0 -22 10.5t-7 21.5q0 19 50 32t76 13
q60 0 60 -38q0 -19 -16 -40q66 -13 66 -59zM403 476q0 -12 -22 -46q-24 -36 -65.5 -109l-47.5 -83l-88 -137q-5 -7 -14 -21.5t-17 -26t-16 -21.5q-22 -29 -45 -29q-13 0 -23.5 12.5t-10.5 25.5q0 16 12 31l65.5 91t73.5 105q107 160 124 214q9 26 40 26q12 0 23 -10t11 -22z
M516 132q0 -11 -17 -22.5t-31 -14.5q-9 -3 -15 -3v-14q0 -11 -1 -33t-1 -33q0 -12 -14 -25.5t-27 -13.5q-19 0 -32 16.5t-13 31.5q0 8 2.5 23.5t2.5 23.5q0 1 1.5 4t2.5 4t-1 2q-13 0 -39 -2t-39 -2q-22 0 -40.5 11.5t-18.5 31.5q0 11 9 22.5t18.5 19t25 17.5t19.5 13
t20 18.5t28 23.5t24 8q38 0 62 -75q2 -5 5 -5t11 1t11 1q47 0 47 -29zM378 141q0 20 -10 20q-5 0 -22.5 -13t-17.5 -16q0 -1 8 -1q7 -1 16 -1q26 0 26 11z" />
    <glyph glyph-name="questiondown" unicode="&#xbf;" horiz-adv-x="400" 
d="M308 323q0 -11 -12.5 -26.5t-22.5 -15.5q-23 0 -36.5 13.5t-13.5 36.5q0 18 13.5 29.5t32.5 11.5q18 0 28.5 -15t10.5 -34zM379 -79q0 -21 -11.5 -37.5t-21.5 -23.5t-36 -22q-80 -50 -118 -61q-25 -7 -48 -7q-46 0 -82.5 24.5t-36.5 68.5q0 40 20 78t48 67t56 54t48 47.5
t20 39.5q0 41 44 41q15 0 23 -18t8 -35q0 -23 -29.5 -58t-64.5 -66t-64.5 -66.5t-29.5 -59.5q0 -43 44 -43q41 0 85.5 22.5t68.5 56.5q1 1 5.5 7.5t6 8.5t6 7.5t7.5 7.5l7.5 5t9.5 4t10 1q25 0 25 -43z" />
    <glyph glyph-name="Agrave" unicode="&#xc0;" horiz-adv-x="461" 
d="M475 137q0 -25 -90 -25q-31 0 -31 -25q0 -16 17 -43.5t17 -47.5q0 -15 -13.5 -29.5t-28.5 -14.5q-12 0 -20.5 25t-8.5 41q0 13 -15 47t-15 40q0 4 -7 6.5t-17.5 3.5t-21 1.5t-20 0.5h-11.5q-7 0 -27.5 2t-31.5 2q-40 0 -45 -22q-3 -13 -7.5 -27.5t-10.5 -32t-9 -27.5
q-7 -20 -42 -20q-23 0 -23 29q0 24 54.5 116t61.5 129q2 12 15 55.5t13 69.5q0 61 16 61q9 0 30 -13q37 -27 66.5 -67t38.5 -82q0 -2 3.5 -19t7 -32t8 -32.5t10 -29.5t10.5 -14q7 -3 40 -4t60 -5.5t27 -16.5zM278 199q0 25 -24.5 84.5t-42.5 59.5q-4 0 -7 -14t-5 -32t-3 -21
q-3 -9 -20.5 -41.5t-17.5 -44.5q0 -23 89 -23q31 0 31 32zM333 479q0 -20 -11 -35.5t-30 -15.5q-10 0 -16.5 5.5t-12.5 16.5t-11 16q-16 17 -61.5 54l-52.5 43q-22 19 -22 44q0 28 34 28q13 0 45.5 -26t48.5 -43q3 -3 29.5 -23t43 -36.5t16.5 -27.5z" />
    <glyph glyph-name="Aacute" unicode="&#xc1;" horiz-adv-x="461" 
d="M475 137q0 -25 -90 -25q-31 0 -31 -25q0 -16 17 -43.5t17 -47.5q0 -15 -13.5 -29.5t-28.5 -14.5q-12 0 -20.5 25t-8.5 41q0 13 -15 47t-15 40q0 4 -7 6.5t-17.5 3.5t-21 1.5t-20 0.5h-11.5q-7 0 -27.5 2t-31.5 2q-40 0 -45 -22q-3 -13 -7.5 -27.5t-10.5 -32t-9 -27.5
q-7 -20 -42 -20q-23 0 -23 29q0 24 54.5 116t61.5 129q2 12 15 55.5t13 69.5q0 61 16 61q9 0 30 -13q37 -27 66.5 -67t38.5 -82q0 -2 3.5 -19t7 -32t8 -32.5t10 -29.5t10.5 -14q7 -3 40 -4t60 -5.5t27 -16.5zM278 199q0 25 -24.5 84.5t-42.5 59.5q-4 0 -7 -14t-5 -32t-3 -21
q-3 -9 -20.5 -41.5t-17.5 -44.5q0 -23 89 -23q31 0 31 32zM307 632q0 -8 -17 -25.5t-39.5 -37t-28.5 -26.5q-9 -9 -27 -34t-32 -37.5t-30 -12.5q-17 0 -30.5 9t-13.5 25q0 6 5 14t15 18.5t17 17t20.5 18t15.5 12.5l49 45l13.5 14t16 16t15.5 10.5t19 5.5q32 0 32 -32z" />
    <glyph glyph-name="Acircumflex" unicode="&#xc2;" horiz-adv-x="461" 
d="M475 137q0 -25 -90 -25q-31 0 -31 -25q0 -16 17 -43.5t17 -47.5q0 -15 -13.5 -29.5t-28.5 -14.5q-12 0 -20.5 25t-8.5 41q0 13 -15 47t-15 40q0 4 -7 6.5t-17.5 3.5t-21 1.5t-20 0.5h-11.5q-7 0 -27.5 2t-31.5 2q-40 0 -45 -22q-3 -13 -7.5 -27.5t-10.5 -32t-9 -27.5
q-7 -20 -42 -20q-23 0 -23 29q0 24 54.5 116t61.5 129q2 12 15 55.5t13 69.5q0 61 16 61q9 0 30 -13q37 -27 66.5 -67t38.5 -82q0 -2 3.5 -19t7 -32t8 -32.5t10 -29.5t10.5 -14q7 -3 40 -4t60 -5.5t27 -16.5zM278 199q0 25 -24.5 84.5t-42.5 59.5q-4 0 -7 -14t-5 -32t-3 -21
q-3 -9 -20.5 -41.5t-17.5 -44.5q0 -23 89 -23q31 0 31 32zM301 480q1 -3 1 -9q0 -13 -11 -22t-29 -9q-30 0 -42.5 30.5t-13.5 66.5l-1 3l1 1q-5 -1 -38 -41.5t-40 -52.5q-11 -18 -37 -18q-11 0 -20 6.5t-9 17.5t15 26q38 33 102 110q4 5 11.5 15.5t12.5 16t14 10.5t21 5
q16 0 20.5 -10.5t6 -37t6.5 -44.5q4 -16 16.5 -39t13.5 -25z" />
    <glyph glyph-name="Atilde" unicode="&#xc3;" horiz-adv-x="461" 
d="M475 137q0 -25 -90 -25q-31 0 -31 -25q0 -16 17 -43.5t17 -47.5q0 -15 -13.5 -29.5t-28.5 -14.5q-12 0 -20.5 25t-8.5 41q0 13 -15 47t-15 40q0 4 -7 6.5t-17.5 3.5t-21 1.5t-20 0.5h-11.5q-7 0 -27.5 2t-31.5 2q-40 0 -45 -22q-3 -13 -7.5 -27.5t-10.5 -32t-9 -27.5
q-7 -20 -42 -20q-23 0 -23 29q0 24 54.5 116t61.5 129q2 12 15 55.5t13 69.5q0 61 16 61q9 0 30 -13q37 -27 66.5 -67t38.5 -82q0 -2 3.5 -19t7 -32t8 -32.5t10 -29.5t10.5 -14q7 -3 40 -4t60 -5.5t27 -16.5zM278 199q0 25 -24.5 84.5t-42.5 59.5q-4 0 -7 -14t-5 -32t-3 -21
q-3 -9 -20.5 -41.5t-17.5 -44.5q0 -23 89 -23q31 0 31 32zM394 558q0 -19 -2.5 -27t-12.5 -14.5t-15 -11.5l-12 -12t-14.5 -13.5t-14.5 -8.5t-23.5 -10.5t-28 -11.5t-24.5 -4q-15 0 -27.5 14t-12.5 35q0 6 3 16t3 12q-7 -4 -21.5 -18l-17.5 -17q-40 -42 -55 -42
q-26 0 -26 34q0 30 66 77q4 3 17 14.5l22 19t21 14t20 6.5q15 0 22.5 -17.5t7.5 -35.5q0 -7 -3 -19t-3 -18v-1q17 0 41.5 15.5t32.5 32.5q1 1 2.5 5t2 5.5t2.5 5t3 5t2.5 4.5t3.5 4t4 2.5t4 2t5 0.5q13 0 20.5 -13.5t7.5 -29.5z" />
    <glyph glyph-name="Adieresis" unicode="&#xc4;" horiz-adv-x="461" 
d="M475 137q0 -25 -90 -25q-31 0 -31 -25q0 -16 17 -43.5t17 -47.5q0 -15 -13.5 -29.5t-28.5 -14.5q-12 0 -20.5 25t-8.5 41q0 13 -15 47t-15 40q0 4 -7 6.5t-17.5 3.5t-21 1.5t-20 0.5h-11.5q-7 0 -27.5 2t-31.5 2q-40 0 -45 -22q-3 -13 -7.5 -27.5t-10.5 -32t-9 -27.5
q-7 -20 -42 -20q-23 0 -23 29q0 24 54.5 116t61.5 129q2 12 15 55.5t13 69.5q0 61 16 61q9 0 30 -13q37 -27 66.5 -67t38.5 -82q0 -2 3.5 -19t7 -32t8 -32.5t10 -29.5t10.5 -14q7 -3 40 -4t60 -5.5t27 -16.5zM278 199q0 25 -24.5 84.5t-42.5 59.5q-4 0 -7 -14t-5 -32t-3 -21
q-3 -9 -20.5 -41.5t-17.5 -44.5q0 -23 89 -23q31 0 31 32zM300 512q0 -18 -11.5 -30.5t-29.5 -12.5q-28 0 -41 21t-13 50q0 25 10.5 44t33.5 19q13 0 22.5 -14.5t9.5 -28.5q0 -8 9.5 -21.5t9.5 -26.5zM142 573q0 -119 -39 -119q-41 0 -41 94q0 65 43 65q18 0 27.5 -11
t9.5 -29z" />
    <glyph glyph-name="Aring" unicode="&#xc5;" horiz-adv-x="461" 
d="M475 137q0 -25 -90 -25q-31 0 -31 -25q0 -16 17 -43.5t17 -47.5q0 -15 -13.5 -29.5t-28.5 -14.5q-12 0 -20.5 25t-8.5 41q0 13 -15 47t-15 40q0 4 -7 6.5t-17.5 3.5t-21 1.5t-20 0.5h-11.5q-7 0 -27.5 2t-31.5 2q-40 0 -45 -22q-3 -13 -7.5 -27.5t-10.5 -32t-9 -27.5
q-7 -20 -42 -20q-23 0 -23 29q0 24 54.5 116t61.5 129q2 12 15 55.5t13 69.5q0 61 16 61q9 0 30 -13q37 -27 66.5 -67t38.5 -82q0 -2 3.5 -19t7 -32t8 -32.5t10 -29.5t10.5 -14q7 -3 40 -4t60 -5.5t27 -16.5zM278 199q0 25 -24.5 84.5t-42.5 59.5q-4 0 -7 -14t-5 -32t-3 -21
q-3 -9 -20.5 -41.5t-17.5 -44.5q0 -23 89 -23q31 0 31 32zM307 587q0 -44 -34 -76.5t-91 -32.5q-34 0 -63.5 19t-29.5 43q0 31 44 61t89 30q5 0 11.5 -2t9.5 -2t10.5 1.5t11.5 1.5q42 0 42 -43zM217 564q0 9 -17 9q-14 0 -21.5 -6.5t-7.5 -16.5v-7q0 -15 23 -15q19 0 19 6
q0 1 -1 4.5t-1 5.5q0 6 3 11t3 9z" />
    <glyph glyph-name="AE" unicode="&#xc6;" horiz-adv-x="729" 
d="M733 373q0 -24 -64 -32q-10 -1 -68.5 -2.5t-90.5 -7.5q-11 -2 -52 -15.5t-61 -13.5q-16 0 -21 -22q-10 -31 -13 -79v-4q-2 -7 6 -7q1 0 3 0.5t4.5 1.5t3.5 1q27 9 97 13q20 1 61 16t62 15q13 0 27 -7.5t14 -19.5q0 -14 -20.5 -29t-36.5 -18q-15 -3 -51.5 -5.5t-55.5 -6.5
q-56 -11 -69.5 -11t-21.5 6.5t-18 6.5q-9 0 -14 -8l-2 -8v-6q0 -15 18.5 -26.5t44.5 -16.5t46.5 -7.5t33.5 -2.5q89 0 103 19q13 24 25 24q14 0 26 -25t12 -41q0 -28 -28 -35q-78 -20 -134 -20q-31 0 -85.5 17.5t-83.5 38.5q1 -3 3 -13t2.5 -15t-0.5 -14t-5 -18
q-6 -15 -25 -29.5t-34 -14.5q-9 0 -10.5 14t1 28.5t6.5 23.5q5 13 4 47t2 40q1 4 -4.5 6.5t-16 3.5t-21 1.5t-20 0.5h-11.5q-7 0 -26 2t-30 2q-40 0 -54 -22l-35 -48l-29 -39q-14 -20 -50 -20q-23 0 -11 29q10 24 102.5 116t114.5 129q8 14 38 56.5t41 68.5q20 61 41 61
q11 0 24 -13q27 -27 39 -66q14 -10 31 -10q10 0 22.5 3.5t28 9l21.5 7.5q55 14 119 14h65q2 0 10 0.5t14 0t15 -0.5t15.5 -2t12.5 -4.5t9.5 -7t3.5 -10.5zM312 310q-5 33 -16 33q-5 0 -14 -14t-18.5 -32t-11.5 -21q-6 -9 -37 -41.5t-35 -44.5q-4 -24 79 -23q25 0 37 19
q8 30 8 46q0 35 8 78z" />
    <glyph glyph-name="Ccedilla" unicode="&#xc7;" horiz-adv-x="479" 
d="M465 50q0 -3 -6 -21q-1 -6 -6.5 -10t-11 -6t-15 -3t-15.5 -1h-15.5h-11.5q-77 0 -160 8q-4 -11 -6 -13q-3 -3 -15.5 -29.5t-12.5 -34.5q4 -3 12 -2.5t27 3.5t29 3q44 0 89 -26t45 -72q0 -62 -44 -96.5t-108 -34.5q-31 0 -61.5 18t-30.5 48q0 11 9.5 23t20.5 12
q13 0 31.5 -16.5t36.5 -16.5q69 0 69 50q0 17 -19 30.5t-47 13.5q-7 0 -20 -0.5t-19 -0.5q-14 0 -38.5 -9t-38.5 -9q-46 0 -46 34q0 6 14.5 34l32 59.5t21.5 40.5q-45 8 -61 21q-24 19 -38 52t-14 65q0 109 114 177q59 35 101.5 51t96.5 16q87 0 87 -39q0 -9 -3.5 -14.5
t-13 -7.5t-13 -2h-15.5q-9 0 -26.5 3.5t-25.5 3.5q-15 0 -38 -7q-40 -14 -93.5 -39.5t-66.5 -44.5q-34 -47 -34 -103q0 -27 7.5 -43.5t24.5 -23.5t32.5 -9t44.5 -2l90 1q1 0 15 0.5t25.5 0t29 -1t31 -2.5t26.5 -5t20 -9t7 -14z" />
    <glyph glyph-name="Egrave" unicode="&#xc8;" horiz-adv-x="493" 
d="M493 373q0 -24 -63 -32q-10 -1 -68.5 -2.5t-90.5 -7.5q-11 -2 -52 -15.5t-61 -13.5q-7 0 -11.5 -3t-6.5 -7t-4 -12q-13 -65 -13 -83q0 -7 6 -7q2 0 11 3q28 9 97 13q21 1 62 16t62 15q13 0 27 -7.5t14 -19.5q0 -14 -21 -29t-36 -18t-52 -5.5t-56 -6.5q-54 -14 -71 -14
q-10 0 -21 8t-17 8q-16 0 -16 -22q0 -15 18.5 -26.5t44.5 -16.5t46.5 -7.5t33.5 -2.5q90 0 104 19q13 24 25 24q14 0 26 -25t12 -41q0 -28 -28 -35q-78 -20 -135 -20q-35 0 -94.5 20.5t-81.5 43.5q-34 34 -34 75q0 16 8 46.5t8 46.5q0 41 11 95t35 54q5 0 17.5 -9t29.5 -9
q10 0 22.5 3.5t28 9l21.5 7.5q55 14 119 14h64q2 0 10 0.5t14 0t15 -0.5t15.5 -2t12.5 -4.5t9.5 -7t3.5 -10.5zM371 482q0 -20 -11 -35.5t-30 -15.5q-10 0 -16.5 5.5t-12.5 16.5t-11 16q-16 17 -61.5 54l-52.5 43q-22 19 -22 44q0 28 34 28q13 0 45.5 -26t48.5 -43
q3 -3 29.5 -23t43 -36.5t16.5 -27.5z" />
    <glyph glyph-name="Eacute" unicode="&#xc9;" horiz-adv-x="493" 
d="M493 373q0 -24 -63 -32q-10 -1 -68.5 -2.5t-90.5 -7.5q-11 -2 -52 -15.5t-61 -13.5q-7 0 -11.5 -3t-6.5 -7t-4 -12q-13 -65 -13 -83q0 -7 6 -7q2 0 11 3q28 9 97 13q21 1 62 16t62 15q13 0 27 -7.5t14 -19.5q0 -14 -21 -29t-36 -18t-52 -5.5t-56 -6.5q-54 -14 -71 -14
q-10 0 -21 8t-17 8q-16 0 -16 -22q0 -15 18.5 -26.5t44.5 -16.5t46.5 -7.5t33.5 -2.5q90 0 104 19q13 24 25 24q14 0 26 -25t12 -41q0 -28 -28 -35q-78 -20 -135 -20q-35 0 -94.5 20.5t-81.5 43.5q-34 34 -34 75q0 16 8 46.5t8 46.5q0 41 11 95t35 54q5 0 17.5 -9t29.5 -9
q10 0 22.5 3.5t28 9l21.5 7.5q55 14 119 14h64q2 0 10 0.5t14 0t15 -0.5t15.5 -2t12.5 -4.5t9.5 -7t3.5 -10.5zM397 588q0 -8 -17 -25.5t-39.5 -37t-28.5 -26.5q-9 -9 -27 -34t-32 -37.5t-30 -12.5q-17 0 -30.5 9t-13.5 25q0 6 5 14t15 18.5t17 17t20.5 18t15.5 12.5l49 45
l13.5 14t16 16t15.5 10.5t19 5.5q32 0 32 -32z" />
    <glyph glyph-name="Ecircumflex" unicode="&#xca;" horiz-adv-x="493" 
d="M493 373q0 -24 -63 -32q-10 -1 -68.5 -2.5t-90.5 -7.5q-11 -2 -52 -15.5t-61 -13.5q-7 0 -11.5 -3t-6.5 -7t-4 -12q-13 -65 -13 -83q0 -7 6 -7q2 0 11 3q28 9 97 13q21 1 62 16t62 15q13 0 27 -7.5t14 -19.5q0 -14 -21 -29t-36 -18t-52 -5.5t-56 -6.5q-54 -14 -71 -14
q-10 0 -21 8t-17 8q-16 0 -16 -22q0 -15 18.5 -26.5t44.5 -16.5t46.5 -7.5t33.5 -2.5q90 0 104 19q13 24 25 24q14 0 26 -25t12 -41q0 -28 -28 -35q-78 -20 -135 -20q-35 0 -94.5 20.5t-81.5 43.5q-34 34 -34 75q0 16 8 46.5t8 46.5q0 41 11 95t35 54q5 0 17.5 -9t29.5 -9
q10 0 22.5 3.5t28 9l21.5 7.5q55 14 119 14h64q2 0 10 0.5t14 0t15 -0.5t15.5 -2t12.5 -4.5t9.5 -7t3.5 -10.5zM396 475q1 -3 1 -9q0 -13 -11 -22t-29 -9q-30 0 -42.5 30.5t-13.5 66.5l-1 3l1 1q-5 -1 -38 -41.5t-40 -52.5q-11 -18 -37 -18q-11 0 -20 6.5t-9 17.5t15 26
q38 33 102 110q4 5 11.5 15.5t12.5 16t14 10.5t21 5q16 0 20.5 -10.5t6 -37t6.5 -44.5q4 -16 16.5 -39t13.5 -25z" />
    <glyph glyph-name="Edieresis" unicode="&#xcb;" horiz-adv-x="493" 
d="M493 373q0 -24 -63 -32q-10 -1 -68.5 -2.5t-90.5 -7.5q-11 -2 -52 -15.5t-61 -13.5q-7 0 -11.5 -3t-6.5 -7t-4 -12q-13 -65 -13 -83q0 -7 6 -7q2 0 11 3q28 9 97 13q21 1 62 16t62 15q13 0 27 -7.5t14 -19.5q0 -14 -21 -29t-36 -18t-52 -5.5t-56 -6.5q-54 -14 -71 -14
q-10 0 -21 8t-17 8q-16 0 -16 -22q0 -15 18.5 -26.5t44.5 -16.5t46.5 -7.5t33.5 -2.5q90 0 104 19q13 24 25 24q14 0 26 -25t12 -41q0 -28 -28 -35q-78 -20 -135 -20q-35 0 -94.5 20.5t-81.5 43.5q-34 34 -34 75q0 16 8 46.5t8 46.5q0 41 11 95t35 54q5 0 17.5 -9t29.5 -9
q10 0 22.5 3.5t28 9l21.5 7.5q55 14 119 14h64q2 0 10 0.5t14 0t15 -0.5t15.5 -2t12.5 -4.5t9.5 -7t3.5 -10.5zM369 487q0 -18 -11.5 -30.5t-29.5 -12.5q-28 0 -41 21t-13 50q0 25 10.5 44t33.5 19q13 0 22.5 -14.5t9.5 -28.5q0 -8 9.5 -21.5t9.5 -26.5zM211 548
q0 -119 -39 -119q-41 0 -41 94q0 65 43 65q18 0 27.5 -11t9.5 -29z" />
    <glyph glyph-name="Igrave" unicode="&#xcc;" horiz-adv-x="198" 
d="M163 38q0 -13 -15 -24.5t-29 -11.5q-26 0 -40.5 39t-14.5 70q0 38 -4 113.5t-4 112.5q0 72 35 72q5 0 9.5 -1.5t7 -5l5 -7t3.5 -9t2 -9.5t1 -10.5v-10v-9.5v-8q0 -178 18 -220q26 -62 26 -81zM168 502q0 -20 -11 -35.5t-30 -15.5q-10 0 -16.5 5.5t-12.5 16.5t-11 16
q-16 17 -61.5 54l-52.5 43q-22 19 -22 44q0 28 34 28q13 0 45.5 -26t48.5 -43q3 -3 29.5 -23t43 -36.5t16.5 -27.5z" />
    <glyph glyph-name="Iacute" unicode="&#xcd;" horiz-adv-x="198" 
d="M163 38q0 -13 -15 -24.5t-29 -11.5q-26 0 -40.5 39t-14.5 70q0 38 -4 113.5t-4 112.5q0 72 35 72q5 0 9.5 -1.5t7 -5l5 -7t3.5 -9t2 -9.5t1 -10.5v-10v-9.5v-8q0 -178 18 -220q26 -62 26 -81zM252 614q0 -8 -17 -25.5t-39.5 -37t-28.5 -26.5q-9 -9 -27 -34t-32 -37.5
t-30 -12.5q-17 0 -30.5 9t-13.5 25q0 6 5 14t15 18.5t17 17t20.5 18t15.5 12.5l49 45l13.5 14t16 16t15.5 10.5t19 5.5q32 0 32 -32z" />
    <glyph glyph-name="Icircumflex" unicode="&#xce;" horiz-adv-x="198" 
d="M163 38q0 -13 -15 -24.5t-29 -11.5q-26 0 -40.5 39t-14.5 70q0 38 -4 113.5t-4 112.5q0 72 35 72q5 0 9.5 -1.5t7 -5l5 -7t3.5 -9t2 -9.5t1 -10.5v-10v-9.5v-8q0 -178 18 -220q26 -62 26 -81zM210 448q1 -3 1 -9q0 -13 -11 -22t-29 -9q-30 0 -42.5 30.5t-13.5 66.5l-1 3
l1 1q-5 -1 -38 -41.5t-40 -52.5q-11 -18 -37 -18q-11 0 -20 6.5t-9 17.5t15 26q38 33 102 110q4 5 11.5 15.5t12.5 16t14 10.5t21 5q16 0 20.5 -10.5t6 -37t6.5 -44.5q4 -16 16.5 -39t13.5 -25z" />
    <glyph glyph-name="Idieresis" unicode="&#xcf;" horiz-adv-x="198" 
d="M163 38q0 -13 -15 -24.5t-29 -11.5q-26 0 -40.5 39t-14.5 70q0 38 -4 113.5t-4 112.5q0 72 35 72q5 0 9.5 -1.5t7 -5l5 -7t3.5 -9t2 -9.5t1 -10.5v-10v-9.5v-8q0 -178 18 -220q26 -62 26 -81zM198 484q0 -18 -11.5 -30.5t-29.5 -12.5q-28 0 -41 21t-13 50q0 25 10.5 44
t33.5 19q13 0 22.5 -14.5t9.5 -28.5q0 -8 9.5 -21.5t9.5 -26.5zM40 545q0 -119 -39 -119q-41 0 -41 94q0 65 43 65q18 0 27.5 -11t9.5 -29z" />
    <glyph glyph-name="Eth" unicode="&#xd0;" horiz-adv-x="462" 
d="M427 213q0 -17 -4 -32t-14.5 -29.5l-17 -24t-25.5 -23.5l-25 -18.5t-29 -19t-26 -16.5q-2 -1 -24.5 -16t-35 -22.5l-33.5 -19.5t-36.5 -17.5t-25.5 -5.5q-44 0 -44 38q0 7 17 36.5t17 56.5q0 20 -3 40q-31 -3 -62 -3q-19 0 -37 14t-18 32q0 14 7 20t13 6.5t24 0.5
q20 0 58 6l-2 15q-1 9 -8 29.5t-7 28.5q0 1 1 4t1 5q0 3 -4 3q-13 0 -25 -18t-21 -18t-16.5 13t-7.5 22q0 21 44 56q8 7 11 16t2.5 15.5t2 11.5t9.5 5q36 0 94 -8.5t85 -19.5q165 -68 165 -163zM367 217q0 19 -8.5 32t-17 18t-28 12t-27.5 11q-84 44 -109 44q-29 0 -29 -21
q0 -12 11 -34q7 -16 14 -50q21 3 42 3q14 0 20.5 -0.5t19 -3t18.5 -9.5t6 -19q0 -18 -19.5 -35.5t-38.5 -17.5q-14 0 -40 -2v-43q0 -24 21 -24q44 0 104.5 48.5t60.5 90.5z" />
    <glyph glyph-name="Ntilde" unicode="&#xd1;" horiz-adv-x="518" 
d="M475 243q0 -49 -8 -76q-10 -35 -25 -69t-44 -66t-60 -32q-20 0 -50.5 28.5t-56.5 62t-53 62t-40 28.5q-8 0 -8 -11q0 -10 7 -45t7 -55q0 -68 -44 -68q-16 0 -21 7t-7 25t-7 73t-10.5 93t-14.5 72q-5 17 -5 32q0 35 25 35q30 0 113 -80.5t123 -129.5q1 -1 4.5 -6t5.5 -7.5
l5.5 -7t6.5 -7t7 -5.5t7.5 -4.5t7.5 -2.5h3q31 0 51 65.5t20 107.5q0 24 -16 62t-16 59q0 20 17 20q76 0 76 -160zM402 538q0 -19 -2.5 -27t-12.5 -14.5t-15 -11.5l-12 -12t-14.5 -13.5t-14.5 -8.5t-23.5 -10.5t-28 -11.5t-24.5 -4q-15 0 -27.5 14t-12.5 35q0 6 3 16t3 12
q-7 -4 -21.5 -18l-17.5 -17q-40 -42 -55 -42q-26 0 -26 34q0 30 66 77q4 3 17 14.5l22 19t21 14t20 6.5q15 0 22.5 -17.5t7.5 -35.5q0 -7 -3 -19t-3 -18v-1q17 0 41.5 15.5t32.5 32.5q1 1 2.5 5t2 5.5t2.5 5t3 5t2.5 4.5t3.5 4t4 2.5t4 2t5 0.5q13 0 20.5 -13.5t7.5 -29.5z
" />
    <glyph glyph-name="Ograve" unicode="&#xd2;" horiz-adv-x="393" 
d="M336 202q0 -106 -39 -146q-36 -37 -62.5 -51.5t-70.5 -14.5q-53 0 -84 32t-31 85q0 50 18 87.5t55 77.5q72 75 115 75q26 0 59 -25t37 -50q3 -23 3 -70zM273 210q0 28 -10 40t-37 12q-38 0 -72 -54t-34 -95q0 -8 1.5 -14t5 -10.5t6 -8t9 -5.5l10 -3t12 -1.5t11.5 -0.5h13
h12q33 0 53 50t20 90zM310 432q0 -20 -11 -35.5t-30 -15.5q-10 0 -16.5 5.5t-12.5 16.5t-11 16q-16 17 -61.5 54l-52.5 43q-22 19 -22 44q0 28 34 28q13 0 45.5 -26t48.5 -43q3 -3 29.5 -23t43 -36.5t16.5 -27.5z" />
    <glyph glyph-name="Oacute" unicode="&#xd3;" horiz-adv-x="393" 
d="M336 202q0 -106 -39 -146q-36 -37 -62.5 -51.5t-70.5 -14.5q-53 0 -84 32t-31 85q0 50 18 87.5t55 77.5q72 75 115 75q26 0 59 -25t37 -50q3 -23 3 -70zM273 210q0 28 -10 40t-37 12q-38 0 -72 -54t-34 -95q0 -8 1.5 -14t5 -10.5t6 -8t9 -5.5l10 -3t12 -1.5t11.5 -0.5h13
h12q33 0 53 50t20 90zM341 544q0 -8 -17 -25.5t-39.5 -37t-28.5 -26.5q-9 -9 -27 -34t-32 -37.5t-30 -12.5q-17 0 -30.5 9t-13.5 25q0 6 5 14t15 18.5t17 17t20.5 18t15.5 12.5l49 45l13.5 14t16 16t15.5 10.5t19 5.5q32 0 32 -32z" />
    <glyph glyph-name="Ocircumflex" unicode="&#xd4;" horiz-adv-x="393" 
d="M336 202q0 -106 -39 -146q-36 -37 -62.5 -51.5t-70.5 -14.5q-53 0 -84 32t-31 85q0 50 18 87.5t55 77.5q72 75 115 75q26 0 59 -25t37 -50q3 -23 3 -70zM273 210q0 28 -10 40t-37 12q-38 0 -72 -54t-34 -95q0 -8 1.5 -14t5 -10.5t6 -8t9 -5.5l10 -3t12 -1.5t11.5 -0.5h13
h12q33 0 53 50t20 90zM343 430q1 -3 1 -9q0 -13 -11 -22t-29 -9q-30 0 -42.5 30.5t-13.5 66.5l-1 3l1 1q-5 -1 -38 -41.5t-40 -52.5q-11 -18 -37 -18q-11 0 -20 6.5t-9 17.5t15 26q38 33 102 110q4 5 11.5 15.5t12.5 16t14 10.5t21 5q16 0 20.5 -10.5t6 -37t6.5 -44.5
q4 -16 16.5 -39t13.5 -25z" />
    <glyph glyph-name="Otilde" unicode="&#xd5;" horiz-adv-x="393" 
d="M336 202q0 -106 -39 -146q-36 -37 -62.5 -51.5t-70.5 -14.5q-53 0 -84 32t-31 85q0 50 18 87.5t55 77.5q72 75 115 75q26 0 59 -25t37 -50q3 -23 3 -70zM273 210q0 28 -10 40t-37 12q-38 0 -72 -54t-34 -95q0 -8 1.5 -14t5 -10.5t6 -8t9 -5.5l10 -3t12 -1.5t11.5 -0.5h13
h12q33 0 53 50t20 90zM369 490q0 -19 -2.5 -27t-12.5 -14.5t-15 -11.5l-12 -12t-14.5 -13.5t-14.5 -8.5t-23.5 -10.5t-28 -11.5t-24.5 -4q-15 0 -27.5 14t-12.5 35q0 6 3 16t3 12q-7 -4 -21.5 -18l-17.5 -17q-40 -42 -55 -42q-26 0 -26 34q0 30 66 77q4 3 17 14.5l22 19
t21 14t20 6.5q15 0 22.5 -17.5t7.5 -35.5q0 -7 -3 -19t-3 -18v-1q17 0 41.5 15.5t32.5 32.5q1 1 2.5 5t2 5.5t2.5 5t3 5t2.5 4.5t3.5 4t4 2.5t4 2t5 0.5q13 0 20.5 -13.5t7.5 -29.5z" />
    <glyph glyph-name="Odieresis" unicode="&#xd6;" horiz-adv-x="393" 
d="M336 202q0 -106 -39 -146q-36 -37 -62.5 -51.5t-70.5 -14.5q-53 0 -84 32t-31 85q0 50 18 87.5t55 77.5q72 75 115 75q26 0 59 -25t37 -50q3 -23 3 -70zM273 210q0 28 -10 40t-37 12q-38 0 -72 -54t-34 -95q0 -8 1.5 -14t5 -10.5t6 -8t9 -5.5l10 -3t12 -1.5t11.5 -0.5h13
h12q33 0 53 50t20 90zM348 453q0 -18 -11.5 -30.5t-29.5 -12.5q-28 0 -41 21t-13 50q0 25 10.5 44t33.5 19q13 0 22.5 -14.5t9.5 -28.5q0 -8 9.5 -21.5t9.5 -26.5zM190 514q0 -119 -39 -119q-41 0 -41 94q0 65 43 65q18 0 27.5 -11t9.5 -29z" />
    <glyph glyph-name="multiply" unicode="&#xd7;" horiz-adv-x="508" 
d="M432 341q7 -8 7 -21.5t-8 -21.5q-7 -6 -40 -6q-22 -1 -65 -41q-1 -1 -4.5 -4t-5.5 -4.5t-5 -4.5t-4 -4.5l-3 -4.5t-2.5 -5.5t-1 -5.5t0 -5.5t2.5 -6t5 -6.5q43 -48 88 -83l8 -7q15 -19 11 -42t-22 -39q-22 -21 -58 21q-10 12 -28.5 37.5t-28.5 37.5q-25 25 -40 13
q-14 -12 -35.5 -42t-34.5 -43q-9 -8 -25 -16t-33 -11.5t-26 5.5q-9 10 -9.5 20t8 21t15.5 18t21 18t17 14q82 75 48 112q-7 8 -28.5 24t-31.5 27q-47 50 -19 75q35 32 65 -1q9 -10 23.5 -31t22.5 -30q28 -30 52 -8q6 5 18 19t20 20q26 25 55 26q55 3 71 -14z" />
    <glyph glyph-name="Oslash" unicode="&#xd8;" horiz-adv-x="414" 
d="M375 212q0 -124 -46 -172q-42 -43 -73.5 -60t-83.5 -17q-27 0 -47 7q-14 -22 -22 -32q-23 -30 -46 -30q-12 0 -23 12.5t-11 25.5q0 14 13 31q8 13 26 37q-25 36 -25 87q0 58 21 102.5t65 90.5q84 89 136 89q15 0 35 -9q5 12 5 13q9 26 40 26q12 0 22.5 -10t10.5 -22
q0 -11 -21 -45l-2 -2q19 -21 22 -40q4 -35 4 -82zM305 223q0 20 -4 32l-19.5 -35l-23 -41.5l-20.5 -34.5q-7 -13 -60 -94h36q41 0 66 62t25 111zM247 287h-1q-46 0 -87.5 -67t-41.5 -117v-11q32 44 57 82z" />
    <glyph glyph-name="Ugrave" unicode="&#xd9;" horiz-adv-x="496" 
d="M446 268q0 -52 -19 -121t-49 -99q-57 -58 -184 -58q-42 0 -72 19t-45 52t-21.5 67.5t-6.5 74.5q0 172 50 172q35 0 35 -29q0 -6 -2 -16q-12 -65 -12 -145q0 -52 19 -90.5t65 -38.5q84 0 129 53t45 139q0 29 -13.5 60t-13.5 45q0 19 9 34.5t26 15.5q8 0 20 -12
q40 -41 40 -123zM332 443q0 -20 -11 -35.5t-30 -15.5q-10 0 -16.5 5.5t-12.5 16.5t-11 16q-16 17 -61.5 54l-52.5 43q-22 19 -22 44q0 28 34 28q13 0 45.5 -26t48.5 -43q3 -3 29.5 -23t43 -36.5t16.5 -27.5z" />
    <glyph glyph-name="Uacute" unicode="&#xda;" horiz-adv-x="496" 
d="M446 268q0 -52 -19 -121t-49 -99q-57 -58 -184 -58q-42 0 -72 19t-45 52t-21.5 67.5t-6.5 74.5q0 172 50 172q35 0 35 -29q0 -6 -2 -16q-12 -65 -12 -145q0 -52 19 -90.5t65 -38.5q84 0 129 53t45 139q0 29 -13.5 60t-13.5 45q0 19 9 34.5t26 15.5q8 0 20 -12
q40 -41 40 -123zM343 561q0 -8 -17 -25.5t-39.5 -37t-28.5 -26.5q-9 -9 -27 -34t-32 -37.5t-30 -12.5q-17 0 -30.5 9t-13.5 25q0 6 5 14t15 18.5t17 17t20.5 18t15.5 12.5l49 45l13.5 14t16 16t15.5 10.5t19 5.5q32 0 32 -32z" />
    <glyph glyph-name="Ucircumflex" unicode="&#xdb;" horiz-adv-x="496" 
d="M446 268q0 -52 -19 -121t-49 -99q-57 -58 -184 -58q-42 0 -72 19t-45 52t-21.5 67.5t-6.5 74.5q0 172 50 172q35 0 35 -29q0 -6 -2 -16q-12 -65 -12 -145q0 -52 19 -90.5t65 -38.5q84 0 129 53t45 139q0 29 -13.5 60t-13.5 45q0 19 9 34.5t26 15.5q8 0 20 -12
q40 -41 40 -123zM313 429q1 -3 1 -9q0 -13 -11 -22t-29 -9q-30 0 -42.5 30.5t-13.5 66.5l-1 3l1 1q-5 -1 -38 -41.5t-40 -52.5q-11 -18 -37 -18q-11 0 -20 6.5t-9 17.5t15 26q38 33 102 110q4 5 11.5 15.5t12.5 16t14 10.5t21 5q16 0 20.5 -10.5t6 -37t6.5 -44.5
q4 -16 16.5 -39t13.5 -25z" />
    <glyph glyph-name="Udieresis" unicode="&#xdc;" horiz-adv-x="496" 
d="M446 268q0 -52 -19 -121t-49 -99q-57 -58 -184 -58q-42 0 -72 19t-45 52t-21.5 67.5t-6.5 74.5q0 172 50 172q35 0 35 -29q0 -6 -2 -16q-12 -65 -12 -145q0 -52 19 -90.5t65 -38.5q84 0 129 53t45 139q0 29 -13.5 60t-13.5 45q0 19 9 34.5t26 15.5q8 0 20 -12
q40 -41 40 -123zM341 486q0 -18 -11.5 -30.5t-29.5 -12.5q-28 0 -41 21t-13 50q0 25 10.5 44t33.5 19q13 0 22.5 -14.5t9.5 -28.5q0 -8 9.5 -21.5t9.5 -26.5zM183 547q0 -119 -39 -119q-41 0 -41 94q0 65 43 65q18 0 27.5 -11t9.5 -29z" />
    <glyph glyph-name="Yacute" unicode="&#xdd;" horiz-adv-x="509" 
d="M494 423q0 -27 -35.5 -69t-63.5 -58q-11 -6 -70 -31t-63 -29q-12 -12 -24 -54t-12 -63q0 -26 5.5 -39t12.5 -15t12.5 -10.5t5.5 -26.5q0 -13 -15 -21.5t-29 -8.5q-24 0 -39 20t-19.5 42.5t-4.5 46.5q0 15 7.5 44.5t7.5 44.5q0 18 -11 18q-53 0 -92 35.5t-39 87.5
q0 23 3.5 45t17 43.5t35.5 21.5q12 0 25.5 -8t13.5 -20q0 -8 -16 -29.5t-16 -28.5q0 -67 88 -67q35 0 87 15.5t97.5 47.5t45.5 68q0 17 11.5 28t28.5 11q12 0 28.5 -14.5t16.5 -26.5zM386 566q0 -8 -17 -25.5t-39.5 -37t-28.5 -26.5q-9 -9 -27 -34t-32 -37.5t-30 -12.5
q-17 0 -30.5 9t-13.5 25q0 6 5 14t15 18.5t17 17t20.5 18t15.5 12.5l49 45l13.5 14t16 16t15.5 10.5t19 5.5q32 0 32 -32z" />
    <glyph glyph-name="Thorn" unicode="&#xde;" horiz-adv-x="515" 
d="M490 261q0 -27 -36.5 -61.5t-68.5 -51.5q-79 -39 -153 -50q-27 -3 -31.5 -8t-4.5 -31q0 -23 2 -25q1 -2 1 -24q0 -15 -12.5 -33t-27.5 -18q-27 0 -44 83l-9 47q-3 9 -7 29l-1 5q-4 20 -9 65q-5 46 -12 92q-5 24 -17 71.5t-17 71.5q-2 10 -2 21q0 36 20 38q2 1 8 1
q14 0 26.5 -6.5t13.5 -17.5l27 -131q33 16 92 16q76 0 190 -35q2 -1 10.5 -3.5l13.5 -4t13.5 -5t13.5 -6.5t10.5 -7.5t8 -10t2.5 -11.5zM379 237q0 30 -155 30h-6q-53 0 -64 -24q4 -15 5 -26l2 -11q23 -51 30 -51q2 0 11 9q7 8 52.5 15.5t85 21t39.5 36.5z" />
    <glyph glyph-name="germandbls" unicode="&#xdf;" horiz-adv-x="459" 
d="M424 82q0 -15 -8 -28q-17 -44 -67 -68q-23 -11 -67 -25.5t-63 -14.5q-22 0 -46 21.5t-24 43.5q0 11 10 18.5t21 7.5q8 0 30 -10.5t34 -10.5q18 0 64.5 21.5t46.5 36.5q-1 11 -32 42q-13 12 -53.5 21t-70.5 22.5t-30 38.5q0 10 6.5 18t12.5 11t18 8q5 2 25.5 9l35.5 12.5
t32.5 14.5t27.5 19.5t11 22.5q2 24 -8.5 38t-20 17.5t-18.5 3.5q-64 0 -127 -20q-23 -7 -29.5 -12.5t-7.5 -16t-7 -19.5q-6 -8 -6 -24q0 -15 12 -75q1 -19 0 -39.5t-6.5 -63t-10 -71l-10 -63l-6.5 -40.5q-1 -5 -2 -19.5t-2 -20t-4.5 -15.5t-8 -13t-12.5 -5.5t-20 -1.5
q-26 16 -26 53q0 7 28 101t29 107q0 18 -6 23t-14 3t-14.5 7.5t-6.5 34.5q0 19 19 29t16 32q-7 57 -2 92q6 45 71.5 69.5t132.5 24.5q25 0 82 -28t57 -53q0 -34 -19 -61t-42.5 -40.5l-42.5 -25t-19 -18.5q0 -5 11.5 -11.5t26 -13t18.5 -9.5q2 -1 13.5 -10l17.5 -14l17 -14.5
t17 -16.5t11 -16t5 -16z" />
    <glyph glyph-name="agrave" unicode="&#xe0;" horiz-adv-x="450" 
d="M444 -6q0 -18 -16 -27t-36 -9q-56 0 -87 32q-3 2 -11 13.5l-15 21.5t-8 10t-12.5 -9.5t-14.5 -10.5q-30 -18 -86 -18q-50 0 -79.5 24.5t-29.5 73.5q0 32 19 79.5t44 57.5q12 5 39.5 18t48.5 19t43 6q18 0 39.5 -7.5t30.5 -20.5q50 -10 50 -44q0 -17 -6.5 -51t-6.5 -52
q0 -31 9.5 -47.5t23.5 -20.5t28 -6t23.5 -8.5t9.5 -23.5zM265 122q0 18 -16 18q-4 0 -18 -8t-23 -8q-8 0 -16.5 6.5t-8.5 14.5q0 9 25 24t25 26q0 7 -11 7q-31 0 -64.5 -34.5t-33.5 -64.5q0 -34 42 -34q25 0 62 15.5t37 37.5zM376 377q0 -20 -11 -35.5t-30 -15.5
q-10 0 -16.5 5.5t-12.5 16.5t-11 16q-16 17 -61.5 54l-52.5 43q-22 19 -22 44q0 28 34 28q13 0 45.5 -26t48.5 -43q3 -3 29.5 -23t43 -36.5t16.5 -27.5z" />
    <glyph glyph-name="aacute" unicode="&#xe1;" horiz-adv-x="450" 
d="M444 -6q0 -18 -16 -27t-36 -9q-56 0 -87 32q-3 2 -11 13.5l-15 21.5t-8 10t-12.5 -9.5t-14.5 -10.5q-30 -18 -86 -18q-50 0 -79.5 24.5t-29.5 73.5q0 32 19 79.5t44 57.5q12 5 39.5 18t48.5 19t43 6q18 0 39.5 -7.5t30.5 -20.5q50 -10 50 -44q0 -17 -6.5 -51t-6.5 -52
q0 -31 9.5 -47.5t23.5 -20.5t28 -6t23.5 -8.5t9.5 -23.5zM265 122q0 18 -16 18q-4 0 -18 -8t-23 -8q-8 0 -16.5 6.5t-8.5 14.5q0 9 25 24t25 26q0 7 -11 7q-31 0 -64.5 -34.5t-33.5 -64.5q0 -34 42 -34q25 0 62 15.5t37 37.5zM324 503q0 -8 -17 -25.5t-39.5 -37t-28.5 -26.5
q-9 -9 -27 -34t-32 -37.5t-30 -12.5q-17 0 -30.5 9t-13.5 25q0 6 5 14t15 18.5t17 17t20.5 18t15.5 12.5l49 45l13.5 14t16 16t15.5 10.5t19 5.5q32 0 32 -32z" />
    <glyph glyph-name="acircumflex" unicode="&#xe2;" horiz-adv-x="450" 
d="M444 -6q0 -18 -16 -27t-36 -9q-56 0 -87 32q-3 2 -11 13.5l-15 21.5t-8 10t-12.5 -9.5t-14.5 -10.5q-30 -18 -86 -18q-50 0 -79.5 24.5t-29.5 73.5q0 32 19 79.5t44 57.5q12 5 39.5 18t48.5 19t43 6q18 0 39.5 -7.5t30.5 -20.5q50 -10 50 -44q0 -17 -6.5 -51t-6.5 -52
q0 -31 9.5 -47.5t23.5 -20.5t28 -6t23.5 -8.5t9.5 -23.5zM265 122q0 18 -16 18q-4 0 -18 -8t-23 -8q-8 0 -16.5 6.5t-8.5 14.5q0 9 25 24t25 26q0 7 -11 7q-31 0 -64.5 -34.5t-33.5 -64.5q0 -34 42 -34q25 0 62 15.5t37 37.5zM348 365q1 -3 1 -9q0 -13 -11 -22t-29 -9
q-30 0 -42.5 30.5t-13.5 66.5l-1 3l1 1q-5 -1 -38 -41.5t-40 -52.5q-11 -18 -37 -18q-11 0 -20 6.5t-9 17.5t15 26q38 33 102 110q4 5 11.5 15.5t12.5 16t14 10.5t21 5q16 0 20.5 -10.5t6 -37t6.5 -44.5q4 -16 16.5 -39t13.5 -25z" />
    <glyph glyph-name="atilde" unicode="&#xe3;" horiz-adv-x="450" 
d="M444 -6q0 -18 -16 -27t-36 -9q-56 0 -87 32q-3 2 -11 13.5l-15 21.5t-8 10t-12.5 -9.5t-14.5 -10.5q-30 -18 -86 -18q-50 0 -79.5 24.5t-29.5 73.5q0 32 19 79.5t44 57.5q12 5 39.5 18t48.5 19t43 6q18 0 39.5 -7.5t30.5 -20.5q50 -10 50 -44q0 -17 -6.5 -51t-6.5 -52
q0 -31 9.5 -47.5t23.5 -20.5t28 -6t23.5 -8.5t9.5 -23.5zM265 122q0 18 -16 18q-4 0 -18 -8t-23 -8q-8 0 -16.5 6.5t-8.5 14.5q0 9 25 24t25 26q0 7 -11 7q-31 0 -64.5 -34.5t-33.5 -64.5q0 -34 42 -34q25 0 62 15.5t37 37.5zM405 450q0 -19 -2.5 -27t-12.5 -14.5t-15 -11.5
l-12 -12t-14.5 -13.5t-14.5 -8.5t-23.5 -10.5t-28 -11.5t-24.5 -4q-15 0 -27.5 14t-12.5 35q0 6 3 16t3 12q-7 -4 -21.5 -18l-17.5 -17q-40 -42 -55 -42q-26 0 -26 34q0 30 66 77q4 3 17 14.5l22 19t21 14t20 6.5q15 0 22.5 -17.5t7.5 -35.5q0 -7 -3 -19t-3 -18v-1
q17 0 41.5 15.5t32.5 32.5q1 1 2.5 5t2 5.5t2.5 5t3 5t2.5 4.5t3.5 4t4 2.5t4 2t5 0.5q13 0 20.5 -13.5t7.5 -29.5z" />
    <glyph glyph-name="adieresis" unicode="&#xe4;" horiz-adv-x="450" 
d="M444 -6q0 -18 -16 -27t-36 -9q-56 0 -87 32q-3 2 -11 13.5l-15 21.5t-8 10t-12.5 -9.5t-14.5 -10.5q-30 -18 -86 -18q-50 0 -79.5 24.5t-29.5 73.5q0 32 19 79.5t44 57.5q12 5 39.5 18t48.5 19t43 6q18 0 39.5 -7.5t30.5 -20.5q50 -10 50 -44q0 -17 -6.5 -51t-6.5 -52
q0 -31 9.5 -47.5t23.5 -20.5t28 -6t23.5 -8.5t9.5 -23.5zM265 122q0 18 -16 18q-4 0 -18 -8t-23 -8q-8 0 -16.5 6.5t-8.5 14.5q0 9 25 24t25 26q0 7 -11 7q-31 0 -64.5 -34.5t-33.5 -64.5q0 -34 42 -34q25 0 62 15.5t37 37.5zM360 392q0 -18 -11.5 -30.5t-29.5 -12.5
q-28 0 -41 21t-13 50q0 25 10.5 44t33.5 19q13 0 22.5 -14.5t9.5 -28.5q0 -8 9.5 -21.5t9.5 -26.5zM202 453q0 -119 -39 -119q-41 0 -41 94q0 65 43 65q18 0 27.5 -11t9.5 -29z" />
    <glyph glyph-name="aring" unicode="&#xe5;" horiz-adv-x="450" 
d="M444 -6q0 -18 -16 -27t-36 -9q-56 0 -87 32q-3 2 -11 13.5l-15 21.5t-8 10t-12.5 -9.5t-14.5 -10.5q-30 -18 -86 -18q-50 0 -79.5 24.5t-29.5 73.5q0 32 19 79.5t44 57.5q12 5 39.5 18t48.5 19t43 6q18 0 39.5 -7.5t30.5 -20.5q50 -10 50 -44q0 -17 -6.5 -51t-6.5 -52
q0 -31 9.5 -47.5t23.5 -20.5t28 -6t23.5 -8.5t9.5 -23.5zM265 122q0 18 -16 18q-4 0 -18 -8t-23 -8q-8 0 -16.5 6.5t-8.5 14.5q0 9 25 24t25 26q0 7 -11 7q-31 0 -64.5 -34.5t-33.5 -64.5q0 -34 42 -34q25 0 62 15.5t37 37.5zM327 442q0 -44 -34 -76.5t-91 -32.5
q-34 0 -63.5 19t-29.5 43q0 31 44 61t89 30q6 0 12 -2t9 -2t10.5 1.5t11.5 1.5q42 0 42 -43zM237 419q0 9 -17 9q-14 0 -21.5 -6.5t-7.5 -16.5v-7q0 -15 23 -15q19 0 19 6q0 1 -1 4.5t-1 5.5q0 6 3 11t3 9z" />
    <glyph glyph-name="ae" unicode="&#xe6;" horiz-adv-x="695" 
d="M695 37q0 -14 -18.5 -26t-34.5 -16q-143 -32 -206 -32q-41 0 -83 17.5t-70 46.5q-11 8 -12 8t-12.5 -9.5t-14.5 -10.5q-30 -18 -86 -18q-50 0 -79.5 24.5t-29.5 73.5q0 32 19 79.5t44 57.5q12 5 39.5 18t48.5 19t43 6q18 0 39.5 -7.5t30.5 -20.5q19 -4 31 -10
q40 28 88 28q32 0 53.5 -16t21.5 -48q0 -34 -19.5 -58t-41.5 -33.5t-52 -18.5t-37 -12l13 -32q36 -16 88 -16q15 0 45 2q39 1 91 10q5 1 24.5 4.5t29.5 3.5q47 0 47 -14zM265 125q0 15 -16 15q-4 0 -18 -8t-23 -8q-8 0 -16.5 6.5t-8.5 14.5q0 9 25 24t25 26q0 7 -11 7
q-31 0 -64.5 -34.5t-33.5 -64.5q0 -34 42 -34q19 0 50.5 11t43.5 27q1 6 5 18zM437 178q0 8 -11 12t-21 4q-21 0 -45 -26l-7 -34h2q15 -1 48.5 15.5t33.5 28.5z" />
    <glyph glyph-name="ccedilla" unicode="&#xe7;" horiz-adv-x="426" 
d="M421 32q0 -12 -5.5 -19.5t-16 -10t-19 -3t-23 0.5t-18.5 1q-34 0 -104 -2l-5 -10q-3 -3 -15.5 -29.5t-12.5 -34.5q4 -3 12 -2.5t27 3.5t29 3q44 0 89 -26t45 -72q0 -62 -44 -96.5t-108 -34.5q-31 0 -61.5 18t-30.5 48q0 11 9.5 23t20.5 12q13 0 31.5 -16.5t36.5 -16.5
q69 0 69 50q0 17 -19 30.5t-47 13.5q-7 0 -20 -0.5t-19 -0.5q-14 0 -38.5 -9t-38.5 -9q-46 0 -46 34q0 5 11 26.5l28 52.5l23 42q-119 0 -119 73q0 75 67 138t143 63q40 0 70 -18.5t30 -55.5q0 -20 -14 -38.5t-34 -18.5q-23 0 -33 7.5t-9.5 17t-6 17t-23.5 7.5
q-33 0 -75 -33.5t-42 -65.5q0 -8 6 -13.5t16.5 -8.5t22 -4.5t26 -2t25 -0.5t22 0.5t13.5 0.5h12h19.5h24t27 -1t27 -2t25.5 -3.5t20.5 -5.5t14.5 -8t5 -11z" />
    <glyph glyph-name="egrave" unicode="&#xe8;" horiz-adv-x="539" 
d="M532 53q0 -14 -19 -26t-35 -15q-134 -32 -206 -32q-50 0 -100.5 26t-74.5 67q-73 0 -73 40q0 9 3.5 15t12 8.5t13.5 3t17.5 0t13.5 -0.5q16 0 27 25q56 118 157 118q33 0 54 -16t21 -48q0 -39 -25 -65t-54.5 -34.5t-54.5 -16.5t-25 -16q0 -19 40.5 -28.5t70.5 -9.5
q8 0 22.5 0.5t21.5 0.5q51 3 91 10q45 8 54 8q48 0 48 -14zM274 195q0 8 -11.5 12t-21.5 4q-17 0 -38 -19.5t-21 -34.5q0 -7 10 -7q16 0 49 16t33 29zM380 398q0 -20 -11 -35.5t-30 -15.5q-10 0 -16.5 5.5t-12.5 16.5t-11 16q-16 17 -61.5 54l-52.5 43q-22 19 -22 44
q0 28 34 28q13 0 45.5 -26t48.5 -43q3 -3 29.5 -23t43 -36.5t16.5 -27.5z" />
    <glyph glyph-name="eacute" unicode="&#xe9;" horiz-adv-x="539" 
d="M532 53q0 -14 -19 -26t-35 -15q-134 -32 -206 -32q-50 0 -100.5 26t-74.5 67q-73 0 -73 40q0 9 3.5 15t12 8.5t13.5 3t17.5 0t13.5 -0.5q16 0 27 25q56 118 157 118q33 0 54 -16t21 -48q0 -39 -25 -65t-54.5 -34.5t-54.5 -16.5t-25 -16q0 -19 40.5 -28.5t70.5 -9.5
q8 0 22.5 0.5t21.5 0.5q51 3 91 10q45 8 54 8q48 0 48 -14zM274 195q0 8 -11.5 12t-21.5 4q-17 0 -38 -19.5t-21 -34.5q0 -7 10 -7q16 0 49 16t33 29zM342 477q0 -8 -17 -25.5t-39.5 -37t-28.5 -26.5q-9 -9 -27 -34t-32 -37.5t-30 -12.5q-17 0 -30.5 9t-13.5 25q0 6 5 14
t15 18.5t17 17t20.5 18t15.5 12.5l49 45l13.5 14t16 16t15.5 10.5t19 5.5q32 0 32 -32z" />
    <glyph glyph-name="ecircumflex" unicode="&#xea;" horiz-adv-x="539" 
d="M532 53q0 -14 -19 -26t-35 -15q-134 -32 -206 -32q-50 0 -100.5 26t-74.5 67q-73 0 -73 40q0 9 3.5 15t12 8.5t13.5 3t17.5 0t13.5 -0.5q16 0 27 25q56 118 157 118q33 0 54 -16t21 -48q0 -39 -25 -65t-54.5 -34.5t-54.5 -16.5t-25 -16q0 -19 40.5 -28.5t70.5 -9.5
q8 0 22.5 0.5t21.5 0.5q51 3 91 10q45 8 54 8q48 0 48 -14zM274 195q0 8 -11.5 12t-21.5 4q-17 0 -38 -19.5t-21 -34.5q0 -7 10 -7q16 0 49 16t33 29zM380 352q1 -3 1 -9q0 -13 -11 -22t-29 -9q-30 0 -42.5 30.5t-13.5 66.5l-1 3l1 1q-5 -1 -38 -41.5t-40 -52.5
q-11 -18 -37 -18q-11 0 -20 6.5t-9 17.5t15 26q38 33 102 110q4 5 11.5 15.5t12.5 16t14 10.5t21 5q16 0 20.5 -10.5t6 -37t6.5 -44.5q4 -16 16.5 -39t13.5 -25z" />
    <glyph glyph-name="edieresis" unicode="&#xeb;" horiz-adv-x="539" 
d="M532 53q0 -14 -19 -26t-35 -15q-134 -32 -206 -32q-50 0 -100.5 26t-74.5 67q-73 0 -73 40q0 9 3.5 15t12 8.5t13.5 3t17.5 0t13.5 -0.5q16 0 27 25q56 118 157 118q33 0 54 -16t21 -48q0 -39 -25 -65t-54.5 -34.5t-54.5 -16.5t-25 -16q0 -19 40.5 -28.5t70.5 -9.5
q8 0 22.5 0.5t21.5 0.5q51 3 91 10q45 8 54 8q48 0 48 -14zM274 195q0 8 -11.5 12t-21.5 4q-17 0 -38 -19.5t-21 -34.5q0 -7 10 -7q16 0 49 16t33 29zM373 400q0 -18 -11.5 -30.5t-29.5 -12.5q-28 0 -41 21t-13 50q0 25 10.5 44t33.5 19q13 0 22.5 -14.5t9.5 -28.5
q0 -8 9.5 -21.5t9.5 -26.5zM215 461q0 -119 -39 -119q-41 0 -41 94q0 65 43 65q18 0 27.5 -11t9.5 -29z" />
    <glyph glyph-name="igrave" unicode="&#xec;" horiz-adv-x="192" 
d="M145 179q0 -25 -5 -79.5t-11 -71.5q-8 -26 -33 -26q-18 0 -31 16.5t-13 35.5q0 7 8 55q6 38 6 76q0 33 38 33q22 0 31.5 -8.5t9.5 -30.5zM169 339q0 -20 -11 -35.5t-30 -15.5q-10 0 -16.5 5.5t-12.5 16.5t-11 16q-16 17 -61.5 54l-52.5 43q-22 19 -22 44q0 28 34 28
q13 0 45.5 -26t48.5 -43q3 -3 29.5 -23t43 -36.5t16.5 -27.5z" />
    <glyph glyph-name="iacute" unicode="&#xed;" horiz-adv-x="192" 
d="M145 179q0 -25 -5 -79.5t-11 -71.5q-8 -26 -33 -26q-18 0 -31 16.5t-13 35.5q0 7 8 55q6 38 6 76q0 33 38 33q22 0 31.5 -8.5t9.5 -30.5zM294 458q0 -8 -17 -25.5t-39.5 -37t-28.5 -26.5q-9 -9 -27 -34t-32 -37.5t-30 -12.5q-17 0 -30.5 9t-13.5 25q0 6 5 14t15 18.5
t17 17t20.5 18t15.5 12.5l49 45l13.5 14t16 16t15.5 10.5t19 5.5q32 0 32 -32z" />
    <glyph glyph-name="icircumflex" unicode="&#xee;" horiz-adv-x="192" 
d="M145 179q0 -25 -5 -79.5t-11 -71.5q-8 -26 -33 -26q-18 0 -31 16.5t-13 35.5q0 7 8 55q6 38 6 76q0 33 38 33q22 0 31.5 -8.5t9.5 -30.5zM219 295q1 -3 1 -9q0 -13 -11 -22t-29 -9q-30 0 -42.5 30.5t-13.5 66.5l-1 3l1 1q-5 -1 -38 -41.5t-40 -52.5q-11 -18 -37 -18
q-11 0 -20 6.5t-9 17.5t15 26q38 33 102 110q4 5 11.5 15.5t12.5 16t14 10.5t21 5q16 0 20.5 -10.5t6 -37t6.5 -44.5q4 -16 16.5 -39t13.5 -25z" />
    <glyph glyph-name="idieresis" unicode="&#xef;" horiz-adv-x="192" 
d="M145 179q0 -25 -5 -79.5t-11 -71.5q-8 -26 -33 -26q-18 0 -31 16.5t-13 35.5q0 7 8 55q6 38 6 76q0 33 38 33q22 0 31.5 -8.5t9.5 -30.5zM219 334q0 -18 -11.5 -30.5t-29.5 -12.5q-28 0 -41 21t-13 50q0 25 10.5 44t33.5 19q13 0 22.5 -14.5t9.5 -28.5q0 -8 9.5 -21.5
t9.5 -26.5zM61 395q0 -119 -39 -119q-41 0 -41 94q0 65 43 65q18 0 27.5 -11t9.5 -29z" />
    <glyph glyph-name="eth" unicode="&#xf0;" horiz-adv-x="393" 
d="M327 497q0 -12 -75 -82q27 -47 56 -126.5t29 -116.5v-1q0 -91 -39 -125q-36 -31 -62.5 -43.5t-71.5 -12.5q-53 0 -84 27t-31 73q0 75 73 140q61 54 117 54q-22 45 -41 76q-68 -72 -97 -72q-17 0 -24 5.5t-7 20.5q0 9 7 20.5t19 24t22.5 21.5l24.5 20t17 14q-11 15 -24 28
q-19 17 -19 43q0 30 31 30q21 0 66 -51q2 2 13 14t17.5 18.5t16.5 15.5t18.5 13t15.5 4q32 0 32 -32zM226 210q-38 0 -72 -39.5t-34 -70.5q0 -6 1.5 -10.5t5 -7.5l6.5 -5.5t9 -4t9.5 -2t11.5 -1t12 -0.5h13h12q31 0 51 33.5t22 64.5v11q-2 17 -12 24.5t-35 7.5z" />
    <glyph glyph-name="ntilde" unicode="&#xf1;" horiz-adv-x="498" 
d="M456 -2q0 -14 -14.5 -26.5t-28.5 -12.5q-26 0 -41 23t-19 50t-11.5 50t-20.5 23q-19 0 -53 -46.5t-56 -46.5q-17 0 -23 21t-5.5 46.5t-11 46.5t-37.5 21q-20 0 -56.5 -16t-46.5 -16q-32 0 -32 36q0 23 61 49t92 26q21 0 38 -11t25.5 -23.5t18 -23.5t17.5 -11q5 0 18 11.5
t34 23t45 11.5q45 0 78 -98q29 -92 29 -107zM393 417q0 -19 -2.5 -27t-12.5 -14.5t-15 -11.5l-12 -12t-14.5 -13.5t-14.5 -8.5t-23.5 -10.5t-28 -11.5t-24.5 -4q-15 0 -27.5 14t-12.5 35q0 6 3 16t3 12q-7 -4 -21.5 -18l-17.5 -17q-40 -42 -55 -42q-26 0 -26 34q0 30 66 77
q4 3 17 14.5l22 19t21 14t20 6.5q15 0 22.5 -17.5t7.5 -35.5q0 -7 -3 -19t-3 -18v-1q17 0 41.5 15.5t32.5 32.5q1 1 2.5 5t2 5.5t2.5 5t3 5t2.5 4.5t3.5 4t4 2.5t4 2t5 0.5q13 0 20.5 -13.5t7.5 -29.5z" />
    <glyph glyph-name="ograve" unicode="&#xf2;" horiz-adv-x="373" 
d="M332 167q0 -83 -45.5 -137.5t-127.5 -54.5q-48 0 -76.5 28t-28.5 75q0 63 47.5 119t109.5 56q8 0 17 -4t13 -4q5 0 15 3t16 3q60 0 60 -84zM209 144q0 8 -7.5 13t-16.5 5q-19 0 -33.5 -23t-14.5 -43v-14q0 -30 34 -30q27 0 27 12q0 4 -2 10t-2 10q0 12 7.5 32.5t7.5 27.5
zM311 365q0 -20 -11 -35.5t-30 -15.5q-10 0 -16.5 5.5t-12.5 16.5t-11 16q-16 17 -61.5 54l-52.5 43q-22 19 -22 44q0 28 34 28q13 0 45.5 -26t48.5 -43q3 -3 29.5 -23t43 -36.5t16.5 -27.5z" />
    <glyph glyph-name="oacute" unicode="&#xf3;" horiz-adv-x="373" 
d="M332 167q0 -83 -45.5 -137.5t-127.5 -54.5q-48 0 -76.5 28t-28.5 75q0 63 47.5 119t109.5 56q8 0 17 -4t13 -4q5 0 15 3t16 3q60 0 60 -84zM209 144q0 8 -7.5 13t-16.5 5q-19 0 -33.5 -23t-14.5 -43v-14q0 -30 34 -30q27 0 27 12q0 4 -2 10t-2 10q0 12 7.5 32.5t7.5 27.5
zM288 466q0 -8 -17 -25.5t-39.5 -37t-28.5 -26.5q-9 -9 -27 -34t-32 -37.5t-30 -12.5q-17 0 -30.5 9t-13.5 25q0 6 5 14t15 18.5t17 17t20.5 18t15.5 12.5l49 45l13.5 14t16 16t15.5 10.5t19 5.5q32 0 32 -32z" />
    <glyph glyph-name="ocircumflex" unicode="&#xf4;" horiz-adv-x="373" 
d="M332 167q0 -83 -45.5 -137.5t-127.5 -54.5q-48 0 -76.5 28t-28.5 75q0 63 47.5 119t109.5 56q8 0 17 -4t13 -4q5 0 15 3t16 3q60 0 60 -84zM209 144q0 8 -7.5 13t-16.5 5q-19 0 -33.5 -23t-14.5 -43v-14q0 -30 34 -30q27 0 27 12q0 4 -2 10t-2 10q0 12 7.5 32.5t7.5 27.5
zM339 345q1 -3 1 -9q0 -13 -11 -22t-29 -9q-30 0 -42.5 30.5t-13.5 66.5l-1 3l1 1q-5 -1 -38 -41.5t-40 -52.5q-11 -18 -37 -18q-11 0 -20 6.5t-9 17.5t15 26q38 33 102 110q4 5 11.5 15.5t12.5 16t14 10.5t21 5q16 0 20.5 -10.5t6 -37t6.5 -44.5q4 -16 16.5 -39t13.5 -25z
" />
    <glyph glyph-name="otilde" unicode="&#xf5;" horiz-adv-x="373" 
d="M332 167q0 -83 -45.5 -137.5t-127.5 -54.5q-48 0 -76.5 28t-28.5 75q0 63 47.5 119t109.5 56q8 0 17 -4t13 -4q5 0 15 3t16 3q60 0 60 -84zM209 144q0 8 -7.5 13t-16.5 5q-19 0 -33.5 -23t-14.5 -43v-14q0 -30 34 -30q27 0 27 12q0 4 -2 10t-2 10q0 12 7.5 32.5t7.5 27.5
zM359 428q0 -19 -2.5 -27t-12.5 -14.5t-15 -11.5l-12 -12t-14.5 -13.5t-14.5 -8.5t-23.5 -10.5t-28 -11.5t-24.5 -4q-15 0 -27.5 14t-12.5 35q0 6 3 16t3 12q-7 -4 -21.5 -18l-17.5 -17q-40 -42 -55 -42q-26 0 -26 34q0 30 66 77q4 3 17 14.5l22 19t21 14t20 6.5
q15 0 22.5 -17.5t7.5 -35.5q0 -7 -3 -19t-3 -18v-1q17 0 41.5 15.5t32.5 32.5q1 1 2.5 5t2 5.5t2.5 5t3 5t2.5 4.5t3.5 4t4 2.5t4 2t5 0.5q13 0 20.5 -13.5t7.5 -29.5z" />
    <glyph glyph-name="odieresis" unicode="&#xf6;" horiz-adv-x="373" 
d="M332 167q0 -83 -45.5 -137.5t-127.5 -54.5q-48 0 -76.5 28t-28.5 75q0 63 47.5 119t109.5 56q8 0 17 -4t13 -4q5 0 15 3t16 3q60 0 60 -84zM209 144q0 8 -7.5 13t-16.5 5q-19 0 -33.5 -23t-14.5 -43v-14q0 -30 34 -30q27 0 27 12q0 4 -2 10t-2 10q0 12 7.5 32.5t7.5 27.5
zM322 378q0 -18 -11.5 -30.5t-29.5 -12.5q-28 0 -41 21t-13 50q0 25 10.5 44t33.5 19q13 0 22.5 -14.5t9.5 -28.5q0 -8 9.5 -21.5t9.5 -26.5zM164 439q0 -119 -39 -119q-41 0 -41 94q0 65 43 65q18 0 27.5 -11t9.5 -29z" />
    <glyph glyph-name="oslash" unicode="&#xf8;" horiz-adv-x="373" 
d="M395 327q0 -12 -22 -46q-20 -30 -46 -75q5 -20 5 -39q0 -76 -37.5 -128.5t-106.5 -61.5l-16 -25q-34 -52 -47 -69q-22 -29 -45 -29q-13 0 -23.5 12t-10.5 25q0 12 12 32l26 36.5l20 27.5q-50 27 -50 91t47 119.5t110 55.5q8 0 17 -4t13 -4q5 0 15 3t16 3t8 -1
q33 57 42 83q7 25 39 25q12 0 23 -9.5t11 -21.5zM209 144q0 8 -7.5 13t-16.5 5q-19 0 -33.5 -23t-14.5 -43v-14q0 -21 16 -27q30 42 44 64l11 17q1 3 1 8z" />
    <glyph glyph-name="ugrave" unicode="&#xf9;" 
d="M585 26q0 -18 -59.5 -25t-101.5 -7q-28 0 -46 11t-24.5 23.5t-13.5 23.5t-15 11t-26.5 -17.5t-52.5 -35.5t-80 -18q-103 0 -103 76q0 117 -12 138q-5 10 -5 18q0 28 33 28q28 0 38 -29.5t7.5 -65.5t5.5 -65.5t32 -29.5q58 0 97.5 35.5t39.5 92.5q0 6 -2 18t-2 18
q0 10 7 17t17 7q22 0 34.5 -39t28 -82.5t42.5 -51.5q13 -3 63.5 -3.5t61.5 -7.5q36 -23 36 -40zM293 366q0 -20 -11 -35.5t-30 -15.5q-10 0 -16.5 5.5t-12.5 16.5t-11 16q-16 17 -61.5 54l-52.5 43q-22 19 -22 44q0 28 34 28q13 0 45.5 -26t48.5 -43q3 -3 29.5 -23t43 -36.5
t16.5 -27.5z" />
    <glyph glyph-name="uacute" unicode="&#xfa;" 
d="M585 26q0 -18 -59.5 -25t-101.5 -7q-28 0 -46 11t-24.5 23.5t-13.5 23.5t-15 11t-26.5 -17.5t-52.5 -35.5t-80 -18q-103 0 -103 76q0 117 -12 138q-5 10 -5 18q0 28 33 28q28 0 38 -29.5t7.5 -65.5t5.5 -65.5t32 -29.5q58 0 97.5 35.5t39.5 92.5q0 6 -2 18t-2 18
q0 10 7 17t17 7q22 0 34.5 -39t28 -82.5t42.5 -51.5q13 -3 63.5 -3.5t61.5 -7.5q36 -23 36 -40zM274 490q0 -8 -17 -25.5t-39.5 -37t-28.5 -26.5q-9 -9 -27 -34t-32 -37.5t-30 -12.5q-17 0 -30.5 9t-13.5 25q0 6 5 14t15 18.5t17 17t20.5 18t15.5 12.5l49 45l13.5 14t16 16
t15.5 10.5t19 5.5q32 0 32 -32z" />
    <glyph glyph-name="ucircumflex" unicode="&#xfb;" 
d="M585 26q0 -18 -59.5 -25t-101.5 -7q-28 0 -46 11t-24.5 23.5t-13.5 23.5t-15 11t-26.5 -17.5t-52.5 -35.5t-80 -18q-103 0 -103 76q0 117 -12 138q-5 10 -5 18q0 28 33 28q28 0 38 -29.5t7.5 -65.5t5.5 -65.5t32 -29.5q58 0 97.5 35.5t39.5 92.5q0 6 -2 18t-2 18
q0 10 7 17t17 7q22 0 34.5 -39t28 -82.5t42.5 -51.5q13 -3 63.5 -3.5t61.5 -7.5q36 -23 36 -40zM311 360q1 -3 1 -9q0 -13 -11 -22t-29 -9q-30 0 -42.5 30.5t-13.5 66.5l-1 3l1 1q-5 -1 -38 -41.5t-40 -52.5q-11 -18 -37 -18q-11 0 -20 6.5t-9 17.5t15 26q38 33 102 110
q4 5 11.5 15.5t12.5 16t14 10.5t21 5q16 0 20.5 -10.5t6 -37t6.5 -44.5q4 -16 16.5 -39t13.5 -25z" />
    <glyph glyph-name="udieresis" unicode="&#xfc;" 
d="M585 26q0 -18 -59.5 -25t-101.5 -7q-28 0 -46 11t-24.5 23.5t-13.5 23.5t-15 11t-26.5 -17.5t-52.5 -35.5t-80 -18q-103 0 -103 76q0 117 -12 138q-5 10 -5 18q0 28 33 28q28 0 38 -29.5t7.5 -65.5t5.5 -65.5t32 -29.5q58 0 97.5 35.5t39.5 92.5q0 6 -2 18t-2 18
q0 10 7 17t17 7q22 0 34.5 -39t28 -82.5t42.5 -51.5q13 -3 63.5 -3.5t61.5 -7.5q36 -23 36 -40zM313 366q0 -18 -11.5 -30.5t-29.5 -12.5q-28 0 -41 21t-13 50q0 25 10.5 44t33.5 19q13 0 22.5 -14.5t9.5 -28.5q0 -8 9.5 -21.5t9.5 -26.5zM155 427q0 -119 -39 -119
q-41 0 -41 94q0 65 43 65q18 0 27.5 -11t9.5 -29z" />
    <glyph glyph-name="yacute" unicode="&#xfd;" horiz-adv-x="455" 
d="M398 -52q0 -66 -29 -97.5t-96 -31.5h-21.5t-23 1t-26 4.5l-20.5 8.5t-17 14t-5 21q0 10 4.5 18t13.5 12.5t18 7t22.5 3.5t22 1t21 -0.5t16.5 -0.5q25 0 37 8.5t12 32.5q0 23 -11 77.5t-25 54.5q-11 0 -31.5 -16t-49.5 -31.5t-60 -15.5q-95 0 -95 153q0 99 44 99
q15 0 26 -10.5t11 -25.5q0 -12 -4 -37t-4 -38q0 -66 31 -66q14 0 45 18q60 39 83 95q1 2 4 9.5l4 10t4 8t5.5 7t6.5 4.5t9 4t11 1q8 0 14.5 -2.5t10.5 -8t6 -10.5t3 -14.5t1 -14v-15v-12.5q0 -38 16 -112.5t16 -113.5zM381 482q0 -8 -17 -25.5t-39.5 -37t-28.5 -26.5
q-9 -9 -27 -34t-32 -37.5t-30 -12.5q-17 0 -30.5 9t-13.5 25q0 6 5 14t15 18.5t17 17t20.5 18t15.5 12.5l49 45l13.5 14t16 16t15.5 10.5t19 5.5q32 0 32 -32z" />
    <glyph glyph-name="thorn" unicode="&#xfe;" horiz-adv-x="399" 
d="M371 129q0 -54 -31 -103.5t-82 -49.5q-24 0 -50.5 8t-31.5 8q-10 0 -10 -43q0 -16 2 -48t2 -48q0 -20 -15 -39.5t-34 -19.5q-22 0 -31 28.5t-9 56.5q0 44 -6 122t-14 104q-5 17 -5 30q0 9 1 13q-7 51 -14 65q-1 3 -17 35.5t-26.5 56.5t-11.5 33q-2 9 6 21.5t17 13.5
q18 3 40.5 -22.5t31.5 -47.5q2 -5 7.5 -25.5t10 -32t15 -22t25.5 -8.5q12 2 30 2q30 8 61 8q139 0 139 -96zM299 113q0 23 -10 30.5t-34 7.5q-105 0 -105 -44q0 -57 80 -57q69 0 69 63z" />
    <glyph glyph-name="ydieresis" unicode="&#xff;" horiz-adv-x="455" 
d="M398 -52q0 -66 -29 -97.5t-96 -31.5h-21.5t-23 1t-26 4.5l-20.5 8.5t-17 14t-5 21q0 10 4.5 18t13.5 12.5t18 7t22.5 3.5t22 1t21 -0.5t16.5 -0.5q25 0 37 8.5t12 32.5q0 23 -11 77.5t-25 54.5q-11 0 -31.5 -16t-49.5 -31.5t-60 -15.5q-95 0 -95 153q0 99 44 99
q15 0 26 -10.5t11 -25.5q0 -12 -4 -37t-4 -38q0 -66 31 -66q14 0 45 18q60 39 83 95q1 2 4 9.5l4 10t4 8t5.5 7t6.5 4.5t9 4t11 1q8 0 14.5 -2.5t10.5 -8t6 -10.5t3 -14.5t1 -14v-15v-12.5q0 -38 16 -112.5t16 -113.5zM344 370q0 -18 -11.5 -30.5t-29.5 -12.5q-28 0 -41 21
t-13 50q0 25 10.5 44t33.5 19q13 0 22.5 -14.5t9.5 -28.5q0 -8 9.5 -21.5t9.5 -26.5zM186 431q0 -119 -39 -119q-41 0 -41 94q0 65 43 65q18 0 27.5 -11t9.5 -29z" />
    <glyph glyph-name="Amacron" unicode="&#x100;" horiz-adv-x="461" 
d="M475 137q0 -25 -90 -25q-31 0 -31 -25q0 -16 17 -43.5t17 -47.5q0 -15 -13.5 -29.5t-28.5 -14.5q-12 0 -20.5 25t-8.5 41q0 13 -15 47t-15 40q0 4 -7 6.5t-17.5 3.5t-21 1.5t-20 0.5h-11.5q-7 0 -27.5 2t-31.5 2q-40 0 -45 -22q-3 -13 -7.5 -27.5t-10.5 -32t-9 -27.5
q-7 -20 -42 -20q-23 0 -23 29q0 24 54.5 116t61.5 129q2 12 15 55.5t13 69.5q0 61 16 61q9 0 30 -13q37 -27 66.5 -67t38.5 -82q0 -2 3.5 -19t7 -32t8 -32.5t10 -29.5t10.5 -14q7 -3 40 -4t60 -5.5t27 -16.5zM278 199q0 25 -24.5 84.5t-42.5 59.5q-4 0 -7 -14t-5 -32t-3 -21
q-3 -9 -20.5 -41.5t-17.5 -44.5q0 -23 89 -23q31 0 31 32zM369 553q0 -19 -19 -36.5t-38 -17.5q-28 0 -82.5 -5t-82.5 -5q-18 0 -36.5 14t-18.5 32q0 11 2.5 17t10.5 8.5t12 2.5h18q29 0 86 11t85 11q63 0 63 -32z" />
    <glyph glyph-name="amacron" unicode="&#x101;" horiz-adv-x="450" 
d="M444 -6q0 -18 -16 -27t-36 -9q-56 0 -87 32q-3 2 -11 13.5l-15 21.5t-8 10t-12.5 -9.5t-14.5 -10.5q-30 -18 -86 -18q-50 0 -79.5 24.5t-29.5 73.5q0 32 19 79.5t44 57.5q12 5 39.5 18t48.5 19t43 6q18 0 39.5 -7.5t30.5 -20.5q50 -10 50 -44q0 -17 -6.5 -51t-6.5 -52
q0 -31 9.5 -47.5t23.5 -20.5t28 -6t23.5 -8.5t9.5 -23.5zM265 122q0 18 -16 18q-4 0 -18 -8t-23 -8q-8 0 -16.5 6.5t-8.5 14.5q0 9 25 24t25 26q0 7 -11 7q-31 0 -64.5 -34.5t-33.5 -64.5q0 -34 42 -34q25 0 62 15.5t37 37.5zM363 407q0 -19 -19 -36.5t-38 -17.5
q-28 0 -83 -5t-82 -5q-18 0 -36.5 14t-18.5 32q0 11 2.5 17t10.5 8.5t12 2.5h18q29 0 86 11t85 11q63 0 63 -32z" />
    <glyph glyph-name="Abreve" unicode="&#x102;" horiz-adv-x="461" 
d="M475 137q0 -25 -90 -25q-31 0 -31 -25q0 -16 17 -43.5t17 -47.5q0 -15 -13.5 -29.5t-28.5 -14.5q-12 0 -20.5 25t-8.5 41q0 13 -15 47t-15 40q0 4 -7 6.5t-17.5 3.5t-21 1.5t-20 0.5h-11.5q-7 0 -27.5 2t-31.5 2q-40 0 -45 -22q-3 -13 -7.5 -27.5t-10.5 -32t-9 -27.5
q-7 -20 -42 -20q-23 0 -23 29q0 24 54.5 116t61.5 129q2 12 15 55.5t13 69.5q0 61 16 61q9 0 30 -13q37 -27 66.5 -67t38.5 -82q0 -2 3.5 -19t7 -32t8 -32.5t10 -29.5t10.5 -14q7 -3 40 -4t60 -5.5t27 -16.5zM278 199q0 25 -24.5 84.5t-42.5 59.5q-4 0 -7 -14t-5 -32t-3 -21
q-3 -9 -20.5 -41.5t-17.5 -44.5q0 -23 89 -23q31 0 31 32zM387 587q-2 -13 -24.5 -35.5t-39.5 -34.5q-24 -16 -62 -27.5t-65 -8.5q-51 7 -95 40q-32 24 -27 58q0 5 3 14t3 13q2 13 16.5 23.5t29.5 5t17 -30.5q0 -9 1 -14q7 -25 56 -32q63 -8 118 58q23 26 47.5 12.5
t21.5 -41.5z" />
    <glyph glyph-name="abreve" unicode="&#x103;" horiz-adv-x="450" 
d="M444 -6q0 -18 -16 -27t-36 -9q-56 0 -87 32q-3 2 -11 13.5l-15 21.5t-8 10t-12.5 -9.5t-14.5 -10.5q-30 -18 -86 -18q-50 0 -79.5 24.5t-29.5 73.5q0 32 19 79.5t44 57.5q12 5 39.5 18t48.5 19t43 6q18 0 39.5 -7.5t30.5 -20.5q50 -10 50 -44q0 -17 -6.5 -51t-6.5 -52
q0 -31 9.5 -47.5t23.5 -20.5t28 -6t23.5 -8.5t9.5 -23.5zM265 122q0 18 -16 18q-4 0 -18 -8t-23 -8q-8 0 -16.5 6.5t-8.5 14.5q0 9 25 24t25 26q0 7 -11 7q-31 0 -64.5 -34.5t-33.5 -64.5q0 -34 42 -34q25 0 62 15.5t37 37.5zM381 431q-2 -13 -24.5 -35.5t-39.5 -34.5
q-24 -16 -62 -27.5t-65 -8.5q-51 7 -95 40q-32 24 -27 58q0 5 3 14t3 13q2 13 16.5 23.5t29.5 5t17 -30.5q0 -9 1 -14q7 -25 56 -32q63 -8 118 58q23 26 47.5 12.5t21.5 -41.5z" />
    <glyph glyph-name="Aogonek" unicode="&#x104;" horiz-adv-x="461" 
d="M523 -189q-69 -63 -141 -63q-95 0 -95 153q0 87 32 98q-2 7 -2 19q0 13 -15 47t-15 40q0 4 -7 6.5t-17.5 3.5t-21 1.5t-20 0.5h-11.5q-7 0 -27.5 2t-31.5 2q-40 0 -45 -22q-3 -13 -7.5 -27.5t-10.5 -32t-9 -27.5q-7 -20 -42 -20q-23 0 -23 29q0 24 54.5 116t61.5 129
q2 12 15 55.5t13 69.5q0 61 16 61q9 0 30 -13q37 -27 66.5 -67t38.5 -82q0 -2 3.5 -19t7 -32t8 -32.5t10 -29.5t10.5 -14q7 -3 40 -4t60 -5.5t27 -16.5q0 -25 -90 -25q-31 0 -31 -25q0 -16 17 -43.5t17 -47.5t-20 -36q0 -10 -4.5 -34.5t-4.5 -37.5q0 -22 7 -44t25 -22
q17 0 45 19q78 54 102 29q17 -16 -4 -46q-5 -7 -11 -13zM278 199q0 25 -24.5 84.5t-42.5 59.5q-4 0 -7 -14t-5 -32t-3 -21q-3 -9 -20.5 -41.5t-17.5 -44.5q0 -23 89 -23q31 0 31 32z" />
    <glyph glyph-name="aogonek" unicode="&#x105;" horiz-adv-x="450" 
d="M480 -174q-43 -19 -79 -19q-48 0 -70 22t-22 57q0 41 28 82q-20 8 -32 22q-3 2 -11 13.5l-15 21.5t-8 10t-12.5 -9.5t-14.5 -10.5q-30 -18 -86 -18q-50 0 -79.5 24.5t-29.5 73.5q0 32 19 79.5t44 57.5q12 5 39.5 18t48.5 19t43 6q18 0 39.5 -7.5t30.5 -20.5
q50 -10 50 -44q0 -17 -6.5 -51t-6.5 -52q0 -31 9.5 -47.5t23.5 -20.5t28 -6t23.5 -8.5t9.5 -23.5q0 -23 -27 -32q-3 -4 -18 -14t-22.5 -22t-7.5 -31q0 -28 25 -28q19 0 45.5 6.5t34.5 6.5q35 0 35 -21q0 -20 -29 -33zM265 122q0 18 -16 18q-4 0 -18 -8t-23 -8
q-8 0 -16.5 6.5t-8.5 14.5q0 9 25 24t25 26q0 7 -11 7q-31 0 -64.5 -34.5t-33.5 -64.5q0 -34 42 -34q25 0 62 15.5t37 37.5z" />
    <glyph glyph-name="Cacute" unicode="&#x106;" horiz-adv-x="479" 
d="M465 50q0 -3 -6 -21q-1 -6 -6.5 -10t-11 -6t-15 -3t-15.5 -1h-15.5h-11.5q-75 0 -169 8.5t-121 29.5q-24 19 -38 52t-14 65q0 109 114 177q59 35 101.5 51t96.5 16q87 0 87 -39q0 -9 -3.5 -14.5t-13 -7.5t-13 -2h-15.5q-9 0 -26.5 3.5t-25.5 3.5q-15 0 -38 -7
q-40 -14 -93.5 -39.5t-66.5 -44.5q-34 -47 -34 -103q0 -27 7.5 -43.5t24.5 -23.5t32.5 -9t44.5 -2l90 1q1 0 15 0.5t25.5 0t29 -1t31 -2.5t26.5 -5t20 -9t7 -14zM318 576q0 -8 -17 -25.5t-39.5 -37t-28.5 -26.5q-9 -9 -27 -34t-32 -37.5t-30 -12.5q-17 0 -30.5 9t-13.5 25
q0 6 5 14t15 18.5t17 17t20.5 18t15.5 12.5l49 45l13.5 14t16 16t15.5 10.5t19 5.5q32 0 32 -32z" />
    <glyph glyph-name="cacute" unicode="&#x107;" horiz-adv-x="426" 
d="M421 32q0 -12 -5.5 -19.5t-16 -10t-19 -3t-23 0.5t-18.5 1q-29 0 -87.5 -1.5t-88.5 -1.5q-121 0 -121 73q0 75 67 138t143 63q40 0 70 -18.5t30 -55.5q0 -20 -14 -38.5t-34 -18.5q-23 0 -33 7.5t-9.5 17t-6 17t-23.5 7.5q-33 0 -75 -33.5t-42 -65.5q0 -8 6 -13.5
t16.5 -8.5t22 -4.5t26 -2t25 -0.5t22 0.5t13.5 0.5h12h19.5h24t27 -1t27 -2t25.5 -3.5t20.5 -5.5t14.5 -8t5 -11zM346 469q0 -8 -17 -25.5t-39.5 -37t-28.5 -26.5q-9 -9 -27 -34t-32 -37.5t-30 -12.5q-17 0 -30.5 9t-13.5 25q0 6 5 14t15 18.5t17 17t20.5 18t15.5 12.5
l49 45l13.5 14t16 16t15.5 10.5t19 5.5q32 0 32 -32z" />
    <glyph glyph-name="Ccircumflex" unicode="&#x108;" horiz-adv-x="479" 
d="M465 50q0 -3 -6 -21q-1 -6 -6.5 -10t-11 -6t-15 -3t-15.5 -1h-15.5h-11.5q-75 0 -169 8.5t-121 29.5q-24 19 -38 52t-14 65q0 109 114 177q59 35 101.5 51t96.5 16q87 0 87 -39q0 -9 -3.5 -14.5t-13 -7.5t-13 -2h-15.5q-9 0 -26.5 3.5t-25.5 3.5q-15 0 -38 -7
q-40 -14 -93.5 -39.5t-66.5 -44.5q-34 -47 -34 -103q0 -27 7.5 -43.5t24.5 -23.5t32.5 -9t44.5 -2l90 1q1 0 15 0.5t25.5 0t29 -1t31 -2.5t26.5 -5t20 -9t7 -14zM375 490q1 -3 1 -9q0 -13 -11 -22t-29 -9q-30 0 -42.5 30.5t-13.5 66.5l-1 3l1 1q-5 -1 -38 -41.5t-40 -52.5
q-11 -18 -37 -18q-11 0 -20 6.5t-9 17.5t15 26q38 33 102 110q4 5 11.5 15.5t12.5 16t14 10.5t21 5q16 0 20.5 -10.5t6 -37t6.5 -44.5q4 -16 16.5 -39t13.5 -25z" />
    <glyph glyph-name="ccircumflex" unicode="&#x109;" horiz-adv-x="426" 
d="M421 32q0 -12 -5.5 -19.5t-16 -10t-19 -3t-23 0.5t-18.5 1q-29 0 -87.5 -1.5t-88.5 -1.5q-121 0 -121 73q0 75 67 138t143 63q40 0 70 -18.5t30 -55.5q0 -20 -14 -38.5t-34 -18.5q-23 0 -33 7.5t-9.5 17t-6 17t-23.5 7.5q-33 0 -75 -33.5t-42 -65.5q0 -8 6 -13.5
t16.5 -8.5t22 -4.5t26 -2t25 -0.5t22 0.5t13.5 0.5h12h19.5h24t27 -1t27 -2t25.5 -3.5t20.5 -5.5t14.5 -8t5 -11zM327 360q1 -3 1 -9q0 -13 -11 -22t-29 -9q-30 0 -42.5 30.5t-13.5 66.5l-1 3l1 1q-5 -1 -38 -41.5t-40 -52.5q-11 -18 -37 -18q-11 0 -20 6.5t-9 17.5t15 26
q38 33 102 110q4 5 11.5 15.5t12.5 16t14 10.5t21 5q16 0 20.5 -10.5t6 -37t6.5 -44.5q4 -16 16.5 -39t13.5 -25z" />
    <glyph glyph-name="Cdotaccent" unicode="&#x10a;" horiz-adv-x="479" 
d="M465 50q0 -3 -6 -21q-1 -6 -6.5 -10t-11 -6t-15 -3t-15.5 -1h-15.5h-11.5q-75 0 -169 8.5t-121 29.5q-24 19 -38 52t-14 65q0 109 114 177q59 35 101.5 51t96.5 16q87 0 87 -39q0 -9 -3.5 -14.5t-13 -7.5t-13 -2h-15.5q-9 0 -26.5 3.5t-25.5 3.5q-15 0 -38 -7
q-40 -14 -93.5 -39.5t-66.5 -44.5q-34 -47 -34 -103q0 -27 7.5 -43.5t24.5 -23.5t32.5 -9t44.5 -2l90 1q1 0 15 0.5t25.5 0t29 -1t31 -2.5t26.5 -5t20 -9t7 -14zM284 496q0 -12 -16.5 -28t-29.5 -16q-20 0 -31.5 17t-11.5 37t9.5 41t26.5 19q53 -5 53 -70z" />
    <glyph glyph-name="cdotaccent" unicode="&#x10b;" horiz-adv-x="426" 
d="M421 32q0 -12 -5.5 -19.5t-16 -10t-19 -3t-23 0.5t-18.5 1q-29 0 -87.5 -1.5t-88.5 -1.5q-121 0 -121 73q0 75 67 138t143 63q40 0 70 -18.5t30 -55.5q0 -20 -14 -38.5t-34 -18.5q-23 0 -33 7.5t-9.5 17t-6 17t-23.5 7.5q-33 0 -75 -33.5t-42 -65.5q0 -8 6 -13.5
t16.5 -8.5t22 -4.5t26 -2t25 -0.5t22 0.5t13.5 0.5h12h19.5h24t27 -1t27 -2t25.5 -3.5t20.5 -5.5t14.5 -8t5 -11zM257 381q0 -12 -16.5 -28t-29.5 -16q-20 0 -31.5 17t-11.5 37t9.5 41t26.5 19q53 -5 53 -70z" />
    <glyph glyph-name="Ccaron" unicode="&#x10c;" horiz-adv-x="479" 
d="M465 50q0 -3 -6 -21q-1 -6 -6.5 -10t-11 -6t-15 -3t-15.5 -1h-15.5h-11.5q-75 0 -169 8.5t-121 29.5q-24 19 -38 52t-14 65q0 109 114 177q59 35 101.5 51t96.5 16q87 0 87 -39q0 -9 -3.5 -14.5t-13 -7.5t-13 -2h-15.5q-9 0 -26.5 3.5t-25.5 3.5q-15 0 -38 -7
q-40 -14 -93.5 -39.5t-66.5 -44.5q-34 -47 -34 -103q0 -27 7.5 -43.5t24.5 -23.5t32.5 -9t44.5 -2l90 1q1 0 15 0.5t25.5 0t29 -1t31 -2.5t26.5 -5t20 -9t7 -14zM178 583q-1 3 -1 9q0 13 11 22t29 9q30 0 42.5 -30.5t13.5 -66.5l1 -3l-1 -1q5 1 38 41.5t40 52.5q11 18 37 18
q11 0 20 -6.5t9 -17.5t-15 -26q-38 -33 -102 -110q-4 -5 -11.5 -15.5t-12.5 -16t-14 -10.5t-21 -5q-16 0 -20.5 10.5t-6 37t-6.5 44.5q-4 16 -16.5 39t-13.5 25z" />
    <glyph glyph-name="ccaron" unicode="&#x10d;" horiz-adv-x="426" 
d="M421 32q0 -12 -5.5 -19.5t-16 -10t-19 -3t-23 0.5t-18.5 1q-29 0 -87.5 -1.5t-88.5 -1.5q-121 0 -121 73q0 75 67 138t143 63q40 0 70 -18.5t30 -55.5q0 -20 -14 -38.5t-34 -18.5q-23 0 -33 7.5t-9.5 17t-6 17t-23.5 7.5q-33 0 -75 -33.5t-42 -65.5q0 -8 6 -13.5
t16.5 -8.5t22 -4.5t26 -2t25 -0.5t22 0.5t13.5 0.5h12h19.5h24t27 -1t27 -2t25.5 -3.5t20.5 -5.5t14.5 -8t5 -11zM158 465q-1 3 -1 9q0 13 11 22t29 9q30 0 42.5 -30.5t13.5 -66.5l1 -3l-1 -1q5 1 38 41.5t40 52.5q11 18 37 18q11 0 20 -6.5t9 -17.5t-15 -26
q-38 -33 -102 -110q-4 -5 -11.5 -15.5t-12.5 -16t-14 -10.5t-21 -5q-16 0 -20.5 10.5t-6 37t-6.5 44.5q-4 16 -16.5 39t-13.5 25z" />
    <glyph glyph-name="Dcaron" unicode="&#x10e;" horiz-adv-x="462" 
d="M427 213q0 -17 -4 -32t-14.5 -29.5l-17 -24t-25.5 -23.5l-25 -18.5t-29 -19t-26 -16.5q-2 -1 -24.5 -16t-35 -22.5l-33.5 -19.5t-36.5 -17.5t-25.5 -5.5q-44 0 -44 38q0 7 17 36.5t17 56.5q0 24 -9 68.5t-11 62.5q-1 9 -8 29.5t-7 28.5q0 1 1 4t1 5q0 3 -4 3
q-13 0 -25 -18t-21 -18t-16.5 13t-7.5 22q0 21 44 56q8 7 11 16t2.5 15.5t2 11.5t9.5 5q36 0 94 -8.5t85 -19.5q165 -68 165 -163zM367 217q0 19 -8.5 32t-17 18t-28 12t-27.5 11q-84 44 -109 44q-29 0 -29 -21q0 -12 11 -34q22 -52 22 -177q0 -24 21 -24q44 0 104.5 48.5
t60.5 90.5zM152 595q-1 3 -1 9q0 13 11 22t29 9q30 0 42.5 -30.5t13.5 -66.5l1 -3l-1 -1q5 1 38 41.5t40 52.5q11 18 37 18q11 0 20 -6.5t9 -17.5t-15 -26q-38 -33 -102 -110q-4 -5 -11.5 -15.5t-12.5 -16t-14 -10.5t-21 -5q-16 0 -20.5 10.5t-6 37t-6.5 44.5
q-4 16 -16.5 39t-13.5 25z" />
    <glyph glyph-name="dcaron" unicode="&#x10f;" horiz-adv-x="719" 
d="M563 36q0 -12 -27 -19.5t-43 -7.5q-39 0 -74.5 13.5t-57 27.5t-24.5 14q-7 0 -39 -17.5t-74 -35.5t-72 -18q-34 0 -70.5 23t-36.5 56q0 19 13 49q41 86 146 86q67 0 67 -38q0 -24 -35.5 -34t-70.5 -17.5t-35 -27.5q0 -24 32 -24t90 27.5t77 51.5q-20 44 -20 139
q0 42 14 106t48 123t77 59q34 0 56.5 -34t30.5 -71.5t8 -71.5q0 -46 -14 -91t-34 -77.5t-39.5 -57.5t-33.5 -40t-14 -17q0 -20 40.5 -31t66.5 -11q15 0 31.5 -10t16.5 -24zM489 387q0 27 -9.5 66.5t-27.5 39.5q-15 0 -35 -56t-25 -83q-7 -44 -7 -75q0 -42 11 -88
q34 31 63.5 91.5t29.5 104.5zM711 498q0 -43 -34 -139t-67 -96q-12 0 -21.5 11.5t-9.5 24.5q0 11 5 21q15 33 32.5 96t17.5 91q0 15 10.5 26.5t25.5 11.5q19 0 30 -13.5t11 -33.5z" />
    <glyph glyph-name="Dcroat" unicode="&#x110;" horiz-adv-x="462" 
d="M427 213q0 -17 -4 -32t-14.5 -29.5l-17 -24t-25.5 -23.5l-25 -18.5t-29 -19t-26 -16.5q-2 -1 -24.5 -16t-35 -22.5l-33.5 -19.5t-36.5 -17.5t-25.5 -5.5q-44 0 -44 38q0 7 17 36.5t17 56.5q0 20 -3 40q-31 -3 -62 -3q-19 0 -37 14t-18 32q0 14 7 20t13 6.5t24 0.5
q20 0 58 6l-2 15q-1 9 -8 29.5t-7 28.5q0 1 1 4t1 5q0 3 -4 3q-13 0 -25 -18t-21 -18t-16.5 13t-7.5 22q0 21 44 56q8 7 11 16t2.5 15.5t2 11.5t9.5 5q36 0 94 -8.5t85 -19.5q165 -68 165 -163zM367 217q0 19 -8.5 32t-17 18t-28 12t-27.5 11q-84 44 -109 44q-29 0 -29 -21
q0 -12 11 -34q7 -16 14 -50q21 3 42 3q14 0 20.5 -0.5t19 -3t18.5 -9.5t6 -19q0 -18 -19.5 -35.5t-38.5 -17.5q-14 0 -40 -2v-43q0 -24 21 -24q44 0 104.5 48.5t60.5 90.5z" />
    <glyph glyph-name="dcroat" unicode="&#x111;" horiz-adv-x="591" 
d="M615 332q0 -8 -3.5 -13t-13 -6.5t-17 -2t-24.5 -0.5h-8h-18q-9 -33 -25 -64.5t-32.5 -54t-31.5 -40t-24.5 -27.5t-9.5 -12q0 -20 40.5 -31t66.5 -11q15 0 31.5 -10t16.5 -24q0 -12 -27 -19.5t-43 -7.5q-39 0 -74.5 13.5t-57 27.5t-24.5 14q-7 0 -39 -17.5t-74 -35.5
t-72 -18q-34 0 -70.5 23t-36.5 56q0 19 13 49q41 86 146 86q67 0 67 -38q0 -24 -35.5 -34t-70.5 -17.5t-35 -27.5q0 -24 32 -24t90 27.5t77 51.5q-20 44 -20 139v8h-17q-95 0 -95 26q0 15 29.5 29.5t57.5 14.5h34q17 84 50 147t80 63q34 0 56.5 -34t30.5 -71.5t8 -71.5
q0 -5 -0.5 -13t-0.5 -13q27 -2 50 -13t23 -24zM489 387q0 27 -9.5 66.5t-27.5 39.5q-24 0 -58 -128l93 4q2 12 2 18zM396 191q44 40 74 115l-85 -9v-18q0 -42 11 -88z" />
    <glyph glyph-name="Emacron" unicode="&#x112;" horiz-adv-x="493" 
d="M493 373q0 -24 -63 -32q-10 -1 -68.5 -2.5t-90.5 -7.5q-11 -2 -52 -15.5t-61 -13.5q-7 0 -11.5 -3t-6.5 -7t-4 -12q-13 -65 -13 -83q0 -7 6 -7q2 0 11 3q28 9 97 13q21 1 62 16t62 15q13 0 27 -7.5t14 -19.5q0 -14 -21 -29t-36 -18t-52 -5.5t-56 -6.5q-54 -14 -71 -14
q-10 0 -21 8t-17 8q-16 0 -16 -22q0 -15 18.5 -26.5t44.5 -16.5t46.5 -7.5t33.5 -2.5q90 0 104 19q13 24 25 24q14 0 26 -25t12 -41q0 -28 -28 -35q-78 -20 -135 -20q-35 0 -94.5 20.5t-81.5 43.5q-34 34 -34 75q0 16 8 46.5t8 46.5q0 41 11 95t35 54q5 0 17.5 -9t29.5 -9
q10 0 22.5 3.5t28 9l21.5 7.5q55 14 119 14h64q2 0 10 0.5t14 0t15 -0.5t15.5 -2t12.5 -4.5t9.5 -7t3.5 -10.5zM419 513q0 -19 -19 -36.5t-38 -17.5q-28 0 -83 -5t-82 -5q-18 0 -36.5 14t-18.5 32q0 11 2.5 17t10.5 8.5t12 2.5h18q29 0 86 11t85 11q63 0 63 -32z" />
    <glyph glyph-name="emacron" unicode="&#x113;" horiz-adv-x="539" 
d="M532 53q0 -14 -19 -26t-35 -15q-134 -32 -206 -32q-50 0 -100.5 26t-74.5 67q-73 0 -73 40q0 9 3.5 15t12 8.5t13.5 3t17.5 0t13.5 -0.5q16 0 27 25q56 118 157 118q33 0 54 -16t21 -48q0 -39 -25 -65t-54.5 -34.5t-54.5 -16.5t-25 -16q0 -19 40.5 -28.5t70.5 -9.5
q8 0 22.5 0.5t21.5 0.5q51 3 91 10q45 8 54 8q48 0 48 -14zM274 195q0 8 -11.5 12t-21.5 4q-17 0 -38 -19.5t-21 -34.5q0 -7 10 -7q16 0 49 16t33 29zM408 407q0 -19 -19 -36.5t-38 -17.5q-27 0 -82 -5t-83 -5q-18 0 -36.5 14t-18.5 32q0 11 2.5 17t10.5 8.5t12 2.5h18
q28 0 85 11t86 11q63 0 63 -32z" />
    <glyph glyph-name="Ebreve" unicode="&#x114;" horiz-adv-x="493" 
d="M493 373q0 -24 -63 -32q-10 -1 -68.5 -2.5t-90.5 -7.5q-11 -2 -52 -15.5t-61 -13.5q-7 0 -11.5 -3t-6.5 -7t-4 -12q-13 -65 -13 -83q0 -7 6 -7q2 0 11 3q28 9 97 13q21 1 62 16t62 15q13 0 27 -7.5t14 -19.5q0 -14 -21 -29t-36 -18t-52 -5.5t-56 -6.5q-54 -14 -71 -14
q-10 0 -21 8t-17 8q-16 0 -16 -22q0 -15 18.5 -26.5t44.5 -16.5t46.5 -7.5t33.5 -2.5q90 0 104 19q13 24 25 24q14 0 26 -25t12 -41q0 -28 -28 -35q-78 -20 -135 -20q-35 0 -94.5 20.5t-81.5 43.5q-34 34 -34 75q0 16 8 46.5t8 46.5q0 41 11 95t35 54q5 0 17.5 -9t29.5 -9
q10 0 22.5 3.5t28 9l21.5 7.5q55 14 119 14h64q2 0 10 0.5t14 0t15 -0.5t15.5 -2t12.5 -4.5t9.5 -7t3.5 -10.5zM446 546q-2 -13 -24.5 -35.5t-39.5 -34.5q-24 -16 -62 -27.5t-65 -8.5q-51 7 -95 40q-32 24 -27 58q1 4 3 13t3 14q2 13 16.5 23.5t29.5 5t17 -30.5q0 -9 1 -14
q7 -25 56 -32q63 -8 118 58q23 26 47.5 12.5t21.5 -41.5z" />
    <glyph glyph-name="ebreve" unicode="&#x115;" horiz-adv-x="539" 
d="M532 53q0 -14 -19 -26t-35 -15q-134 -32 -206 -32q-50 0 -100.5 26t-74.5 67q-73 0 -73 40q0 9 3.5 15t12 8.5t13.5 3t17.5 0t13.5 -0.5q16 0 27 25q56 118 157 118q33 0 54 -16t21 -48q0 -39 -25 -65t-54.5 -34.5t-54.5 -16.5t-25 -16q0 -19 40.5 -28.5t70.5 -9.5
q8 0 22.5 0.5t21.5 0.5q51 3 91 10q45 8 54 8q48 0 48 -14zM274 195q0 8 -11.5 12t-21.5 4q-17 0 -38 -19.5t-21 -34.5q0 -7 10 -7q16 0 49 16t33 29zM426 431q-2 -13 -24.5 -35.5t-39.5 -34.5q-24 -16 -62 -27.5t-65 -8.5q-51 7 -95 40q-32 24 -27 58q1 5 3 14t3 13
q2 13 16.5 23.5t29.5 5t17 -30.5q0 -9 1 -14q7 -25 56 -32q63 -8 118 58q23 26 47.5 12.5t21.5 -41.5z" />
    <glyph glyph-name="Edotaccent" unicode="&#x116;" horiz-adv-x="493" 
d="M493 373q0 -24 -63 -32q-10 -1 -68.5 -2.5t-90.5 -7.5q-11 -2 -52 -15.5t-61 -13.5q-7 0 -11.5 -3t-6.5 -7t-4 -12q-13 -65 -13 -83q0 -7 6 -7q2 0 11 3q28 9 97 13q21 1 62 16t62 15q13 0 27 -7.5t14 -19.5q0 -14 -21 -29t-36 -18t-52 -5.5t-56 -6.5q-54 -14 -71 -14
q-10 0 -21 8t-17 8q-16 0 -16 -22q0 -15 18.5 -26.5t44.5 -16.5t46.5 -7.5t33.5 -2.5q90 0 104 19q13 24 25 24q14 0 26 -25t12 -41q0 -28 -28 -35q-78 -20 -135 -20q-35 0 -94.5 20.5t-81.5 43.5q-34 34 -34 75q0 16 8 46.5t8 46.5q0 41 11 95t35 54q5 0 17.5 -9t29.5 -9
q10 0 22.5 3.5t28 9l21.5 7.5q55 14 119 14h64q2 0 10 0.5t14 0t15 -0.5t15.5 -2t12.5 -4.5t9.5 -7t3.5 -10.5zM322 497q0 -12 -16.5 -28t-29.5 -16q-20 0 -31.5 17t-11.5 37t9.5 41t26.5 19q53 -5 53 -70z" />
    <glyph glyph-name="edotaccent" unicode="&#x117;" horiz-adv-x="539" 
d="M532 53q0 -14 -19 -26t-35 -15q-134 -32 -206 -32q-50 0 -100.5 26t-74.5 67q-73 0 -73 40q0 9 3.5 15t12 8.5t13.5 3t17.5 0t13.5 -0.5q16 0 27 25q56 118 157 118q33 0 54 -16t21 -48q0 -39 -25 -65t-54.5 -34.5t-54.5 -16.5t-25 -16q0 -19 40.5 -28.5t70.5 -9.5
q8 0 22.5 0.5t21.5 0.5q51 3 91 10q45 8 54 8q48 0 48 -14zM274 195q0 8 -11.5 12t-21.5 4q-17 0 -38 -19.5t-21 -34.5q0 -7 10 -7q16 0 49 16t33 29zM314 381q0 -12 -16.5 -28t-29.5 -16q-20 0 -31.5 17t-11.5 37t9.5 41t26.5 19q53 -5 53 -70z" />
    <glyph glyph-name="Eogonek" unicode="&#x118;" horiz-adv-x="493" 
d="M558 -128q-69 -63 -141 -63q-95 0 -95 153q0 28 2 43q-37 -5 -65 -5q-35 0 -94.5 20.5t-81.5 43.5q-34 34 -34 75q0 16 8 46.5t8 46.5q0 41 11 95t35 54q5 0 17.5 -9t29.5 -9q10 0 22.5 3.5t28 9l21.5 7.5q55 14 119 14h64q2 0 10 0.5t14 0t15 -0.5t15.5 -2t12.5 -4.5
t9.5 -7t3.5 -10.5q0 -24 -63 -32q-10 -1 -68.5 -2.5t-90.5 -7.5q-11 -2 -52 -15.5t-61 -13.5q-7 0 -11.5 -3t-6.5 -7t-4 -12q-13 -65 -13 -83q0 -7 6 -7q2 0 11 3q28 9 97 13q21 1 62 16t62 15q13 0 27 -7.5t14 -19.5q0 -14 -21 -29t-36 -18t-52 -5.5t-56 -6.5
q-54 -14 -71 -14q-10 0 -21 8t-17 8q-16 0 -16 -22q0 -15 18.5 -26.5t44.5 -16.5t46.5 -7.5t33.5 -2.5q90 0 104 19q13 24 25 24q14 0 26 -25t12 -41q0 -23 -19 -32q0 -11 -4.5 -35.5t-4.5 -38.5q0 -22 7 -44t25 -22q16 0 45 19q78 54 102 29q17 -16 -4 -46q-5 -7 -11 -13z
" />
    <glyph glyph-name="eogonek" unicode="&#x119;" horiz-adv-x="539" 
d="M519 -130q-43 -19 -79 -19q-48 0 -70 22t-22 57q0 27 14 58q-48 -8 -90 -8q-50 0 -100.5 26t-74.5 67q-73 0 -73 40q0 9 3.5 15t12 8.5t13.5 3t17.5 0t13.5 -0.5q16 0 27 25q56 118 157 118q33 0 54 -16t21 -48q0 -39 -25 -65t-54.5 -34.5t-54.5 -16.5t-25 -16
q0 -19 40.5 -28.5t70.5 -9.5q8 0 22.5 0.5t21.5 0.5q51 3 91 10q45 8 54 8q48 0 48 -14t-19 -26t-35 -15q-14 -4 -21 -5q-4 -4 -18.5 -14t-22.5 -22t-8 -32q0 -28 25 -28q19 0 45.5 6.5t34.5 6.5q35 0 35 -21q0 -20 -29 -33zM274 195q0 8 -11.5 12t-21.5 4q-17 0 -38 -19.5
t-21 -34.5q0 -7 10 -7q16 0 49 16t33 29z" />
    <glyph glyph-name="Ecaron" unicode="&#x11a;" horiz-adv-x="493" 
d="M493 373q0 -24 -63 -32q-10 -1 -68.5 -2.5t-90.5 -7.5q-11 -2 -52 -15.5t-61 -13.5q-7 0 -11.5 -3t-6.5 -7t-4 -12q-13 -65 -13 -83q0 -7 6 -7q2 0 11 3q28 9 97 13q21 1 62 16t62 15q13 0 27 -7.5t14 -19.5q0 -14 -21 -29t-36 -18t-52 -5.5t-56 -6.5q-54 -14 -71 -14
q-10 0 -21 8t-17 8q-16 0 -16 -22q0 -15 18.5 -26.5t44.5 -16.5t46.5 -7.5t33.5 -2.5q90 0 104 19q13 24 25 24q14 0 26 -25t12 -41q0 -28 -28 -35q-78 -20 -135 -20q-35 0 -94.5 20.5t-81.5 43.5q-34 34 -34 75q0 16 8 46.5t8 46.5q0 41 11 95t35 54q5 0 17.5 -9t29.5 -9
q10 0 22.5 3.5t28 9l21.5 7.5q55 14 119 14h64q2 0 10 0.5t14 0t15 -0.5t15.5 -2t12.5 -4.5t9.5 -7t3.5 -10.5zM235 606q-1 3 -1 9q0 13 11 22t29 9q30 0 42.5 -30.5t13.5 -66.5l1 -3l-1 -1q5 1 38 41.5t40 52.5q11 18 37 18q11 0 20 -6.5t9 -17.5t-15 -26
q-38 -33 -102 -110q-4 -5 -11.5 -15.5t-12.5 -16t-14 -10.5t-21 -5q-16 0 -20.5 10.5t-6 37t-6.5 44.5q-4 16 -16.5 39t-13.5 25z" />
    <glyph glyph-name="ecaron" unicode="&#x11b;" horiz-adv-x="539" 
d="M532 53q0 -14 -19 -26t-35 -15q-134 -32 -206 -32q-50 0 -100.5 26t-74.5 67q-73 0 -73 40q0 9 3.5 15t12 8.5t13.5 3t17.5 0t13.5 -0.5q16 0 27 25q56 118 157 118q33 0 54 -16t21 -48q0 -39 -25 -65t-54.5 -34.5t-54.5 -16.5t-25 -16q0 -19 40.5 -28.5t70.5 -9.5
q8 0 22.5 0.5t21.5 0.5q51 3 91 10q45 8 54 8q48 0 48 -14zM274 195q0 8 -11.5 12t-21.5 4q-17 0 -38 -19.5t-21 -34.5q0 -7 10 -7q16 0 49 16t33 29zM146 465q-1 3 -1 9q0 13 11 22t29 9q30 0 42.5 -30.5t13.5 -66.5l1 -3l-1 -1q5 1 38 41.5t40 52.5q11 18 37 18
q11 0 20 -6.5t9 -17.5t-15 -26q-38 -33 -102 -110q-4 -5 -11.5 -15.5t-12.5 -16t-14 -10.5t-21 -5q-16 0 -20.5 10.5t-6 37t-6.5 44.5q-4 16 -16.5 39t-13.5 25z" />
    <glyph glyph-name="Gcircumflex" unicode="&#x11c;" horiz-adv-x="573" 
d="M558 190q0 -10 -24 -19t-59 -15t-60.5 -9t-41.5 -4h-7q-8 0 -11 -2t-3 -7q0 -8 5 -25.5t5 -26.5q0 -43 -48.5 -70.5t-94.5 -27.5q-79 0 -128 45.5t-49 123.5q0 118 141 204q137 86 184 86q38 0 73 -27.5t35 -64.5q0 -19 -15 -38t-33 -19q-10 0 -18 5t-8 14q0 7 9.5 16
t9.5 16q0 11 -16.5 20.5t-28.5 9.5q-9 0 -25 -6q-86 -31 -121 -55q-127 -88 -127 -157q0 -41 36 -75t77 -34q73 0 73 45q0 24 -72 24q-14 0 -24 9t-10 23q0 23 27 30q55 13 148 28t135 15q66 0 66 -32zM455 502q1 -3 1 -9q0 -13 -11 -22t-29 -9q-30 0 -42.5 30.5t-13.5 66.5
l-1 3l1 1q-5 -1 -38 -41.5t-40 -52.5q-11 -18 -37 -18q-11 0 -20 6.5t-9 17.5t15 26q38 33 102 110q4 5 11.5 15.5t12.5 16t14 10.5t21 5q16 0 20.5 -10.5t6 -37t6.5 -44.5q4 -16 16.5 -39t13.5 -25z" />
    <glyph glyph-name="gcircumflex" unicode="&#x11d;" horiz-adv-x="389" 
d="M343 197q0 -13 -9 -37t-9 -38q0 -30 5 -89t5 -88q0 -27 -5.5 -61.5t-17.5 -71.5t-34.5 -62t-51.5 -25q-42 0 -88 26t-76 62q-17 24 -17 29q0 19 20 34.5t40 15.5q31 0 45 -40q6 -16 23.5 -32.5t32.5 -16.5q9 0 17 5t13 15t9 20.5t6 26.5l3.5 28t2 28.5t0.5 25.5v22.5
v15.5q0 77 -29 76h-28q-145 -3 -145 80q0 54 55 82.5t116 28.5q24 0 47 -3.5t46.5 -18t23.5 -38.5zM229 174q0 12 -18 12q-11 0 -44 -11.5t-33 -18.5q0 -8 15.5 -13t26.5 -5q53 0 53 36zM334 360q1 -3 1 -9q0 -13 -11 -22t-29 -9q-30 0 -42.5 30.5t-13.5 66.5l-1 3l1 1
q-5 -1 -38 -41.5t-40 -52.5q-11 -18 -37 -18q-11 0 -20 6.5t-9 17.5t15 26q38 33 102 110q4 5 11.5 15.5t12.5 16t14 10.5t21 5q16 0 20.5 -10.5t6 -37t6.5 -44.5q4 -16 16.5 -39t13.5 -25z" />
    <glyph glyph-name="Gbreve" unicode="&#x11e;" horiz-adv-x="573" 
d="M558 190q0 -10 -24 -19t-59 -15t-60.5 -9t-41.5 -4h-7q-8 0 -11 -2t-3 -7q0 -8 5 -25.5t5 -26.5q0 -43 -48.5 -70.5t-94.5 -27.5q-79 0 -128 45.5t-49 123.5q0 118 141 204q137 86 184 86q38 0 73 -27.5t35 -64.5q0 -19 -15 -38t-33 -19q-10 0 -18 5t-8 14q0 7 9.5 16
t9.5 16q0 11 -16.5 20.5t-28.5 9.5q-9 0 -25 -6q-86 -31 -121 -55q-127 -88 -127 -157q0 -41 36 -75t77 -34q73 0 73 45q0 24 -72 24q-14 0 -24 9t-10 23q0 23 27 30q55 13 148 28t135 15q66 0 66 -32zM485 586q-2 -13 -24.5 -35.5t-39.5 -34.5q-24 -16 -62 -27.5t-65 -8.5
q-51 7 -95 40q-32 24 -27 58q0 4 3 13t3 14q2 13 16.5 23.5t29.5 5t17 -30.5q0 -9 1 -14q7 -25 56 -32q63 -8 118 58q23 26 47.5 12.5t21.5 -41.5z" />
    <glyph glyph-name="gbreve" unicode="&#x11f;" horiz-adv-x="389" 
d="M343 197q0 -13 -9 -37t-9 -38q0 -30 5 -89t5 -88q0 -27 -5.5 -61.5t-17.5 -71.5t-34.5 -62t-51.5 -25q-42 0 -88 26t-76 62q-17 24 -17 29q0 19 20 34.5t40 15.5q31 0 45 -40q6 -16 23.5 -32.5t32.5 -16.5q9 0 17 5t13 15t9 20.5t6 26.5l3.5 28t2 28.5t0.5 25.5v22.5
v15.5q0 77 -29 76h-28q-145 -3 -145 80q0 54 55 82.5t116 28.5q24 0 47 -3.5t46.5 -18t23.5 -38.5zM229 174q0 12 -18 12q-11 0 -44 -11.5t-33 -18.5q0 -8 15.5 -13t26.5 -5q53 0 53 36zM385 431q-2 -13 -24.5 -35.5t-39.5 -34.5q-24 -16 -62 -27.5t-65 -8.5q-51 7 -95 40
q-32 24 -27 58q0 5 3 14t3 13q2 13 16.5 23.5t29.5 5t17 -30.5q0 -9 1 -14q7 -25 56 -32q63 -8 118 58q23 26 47.5 12.5t21.5 -41.5z" />
    <glyph glyph-name="Gdotaccent" unicode="&#x120;" horiz-adv-x="573" 
d="M558 190q0 -10 -24 -19t-59 -15t-60.5 -9t-41.5 -4h-7q-8 0 -11 -2t-3 -7q0 -8 5 -25.5t5 -26.5q0 -43 -48.5 -70.5t-94.5 -27.5q-79 0 -128 45.5t-49 123.5q0 118 141 204q137 86 184 86q38 0 73 -27.5t35 -64.5q0 -19 -15 -38t-33 -19q-10 0 -18 5t-8 14q0 7 9.5 16
t9.5 16q0 11 -16.5 20.5t-28.5 9.5q-9 0 -25 -6q-86 -31 -121 -55q-127 -88 -127 -157q0 -41 36 -75t77 -34q73 0 73 45q0 24 -72 24q-14 0 -24 9t-10 23q0 23 27 30q55 13 148 28t135 15q66 0 66 -32zM345 535q0 -12 -16.5 -28t-29.5 -16q-20 0 -31.5 17t-11.5 37t9.5 41
t26.5 19q53 -5 53 -70z" />
    <glyph glyph-name="gdotaccent" unicode="&#x121;" horiz-adv-x="389" 
d="M343 197q0 -13 -9 -37t-9 -38q0 -30 5 -89t5 -88q0 -27 -5.5 -61.5t-17.5 -71.5t-34.5 -62t-51.5 -25q-42 0 -88 26t-76 62q-17 24 -17 29q0 19 20 34.5t40 15.5q31 0 45 -40q6 -16 23.5 -32.5t32.5 -16.5q9 0 17 5t13 15t9 20.5t6 26.5l3.5 28t2 28.5t0.5 25.5v22.5
v15.5q0 77 -29 76h-28q-145 -3 -145 80q0 54 55 82.5t116 28.5q24 0 47 -3.5t46.5 -18t23.5 -38.5zM229 174q0 12 -18 12q-11 0 -44 -11.5t-33 -18.5q0 -8 15.5 -13t26.5 -5q53 0 53 36zM260 381q0 -12 -16.5 -28t-29.5 -16q-20 0 -31.5 17t-11.5 37t9.5 41t26.5 19
q53 -5 53 -70z" />
    <glyph glyph-name="uni0122" unicode="&#x122;" horiz-adv-x="573" 
d="M558 190q0 -10 -24 -19t-59 -15t-60.5 -9t-41.5 -4h-7q-8 0 -11 -2t-3 -7q0 -8 5 -25.5t5 -26.5q0 -43 -48.5 -70.5t-94.5 -27.5q-79 0 -128 45.5t-49 123.5q0 118 141 204q137 86 184 86q38 0 73 -27.5t35 -64.5q0 -19 -15 -38t-33 -19q-10 0 -18 5t-8 14q0 7 9.5 16
t9.5 16q0 11 -16.5 20.5t-28.5 9.5q-9 0 -25 -6q-86 -31 -121 -55q-127 -88 -127 -157q0 -41 36 -75t77 -34q73 0 73 45q0 24 -72 24q-14 0 -24 9t-10 23q0 23 27 30q55 13 148 28t135 15q66 0 66 -32zM310 -161q0 -35 -22.5 -56t-65.5 -36q-31 -11 -65 -11q-14 0 -24 7.5
t-10 19.5q0 4 1.5 7t5.5 5t7.5 4t10.5 3.5t10.5 2t11.5 2t10 1.5q21 5 31.5 8t20 11t9.5 20q0 21 -15 30t-30.5 13t-15.5 12q-1 14 7 21t22 7q46 0 73.5 -23.5t27.5 -47.5z" />
    <glyph glyph-name="uni0123" unicode="&#x123;" horiz-adv-x="389" 
d="M343 197q0 -13 -9 -37t-9 -38q0 -30 5 -89t5 -88q0 -27 -5.5 -61.5t-17.5 -71.5t-34.5 -62t-51.5 -25q-42 0 -88 26t-76 62q-17 24 -17 29q0 19 20 34.5t40 15.5q31 0 45 -40q6 -16 23.5 -32.5t32.5 -16.5q9 0 17 5t13 15t9 20.5t6 26.5l3.5 28t2 28.5t0.5 25.5v22.5
v15.5q0 77 -29 76h-28q-145 -3 -145 80q0 54 55 82.5t116 28.5q24 0 47 -3.5t46.5 -18t23.5 -38.5zM229 174q0 12 -18 12q-11 0 -44 -11.5t-33 -18.5q0 -8 15.5 -13t26.5 -5q53 0 53 36zM127 376q0 35 22.5 56t65.5 36q31 11 65 11q14 0 24 -7.5t10 -19.5q0 -4 -1.5 -7
t-5.5 -5t-7.5 -4t-10.5 -3.5t-10.5 -2t-11.5 -2t-10 -1.5q-21 -5 -31.5 -8t-20 -11t-9.5 -20q0 -21 15 -30t30.5 -13t15.5 -12q1 -14 -7 -21t-22 -7q-46 0 -73.5 23.5t-27.5 47.5z" />
    <glyph glyph-name="Hcircumflex" unicode="&#x124;" horiz-adv-x="491" 
d="M441 66q0 -66 -35 -66q-27 0 -34 48q-5 37 -19.5 93.5t-27.5 56.5q-1 0 -9 -5q-14 -16 -95 -16q-71 0 -79 -12q-2 -3 -2 -9q0 -13 8 -38.5t8 -38.5q0 -17 -9.5 -40t-24.5 -23q-29 0 -36.5 37t-9 79.5t-15.5 50.5q-26 13 -26 28q0 11 13 23t13 40q0 21 -2 62.5t-2 62.5
q0 11 8.5 19.5t18.5 8.5q22 0 31.5 -32t12 -78.5t4.5 -54.5q3 -12 5.5 -17.5t9 -10t18.5 -4.5q16 0 48 4.5t49 4.5q36 0 58 -15l1 2q0 17 -16 67t-16 76q0 13 7.5 27.5t19.5 14.5q30 0 36 -32q6 -31 47.5 -155.5t41.5 -157.5zM303 514q1 -3 1 -9q0 -13 -11 -22t-29 -9
q-30 0 -42.5 30.5t-13.5 66.5l-1 3l1 1q-5 -1 -38 -41.5t-40 -52.5q-11 -18 -37 -18q-11 0 -20 6.5t-9 17.5t15 26q38 33 102 110q4 5 11.5 15.5t12.5 16t14 10.5t21 5q16 0 20.5 -10.5t6 -37t6.5 -44.5q4 -16 16.5 -39t13.5 -25z" />
    <glyph glyph-name="hcircumflex" unicode="&#x125;" horiz-adv-x="392" 
d="M382 -28q0 -20 -13 -31.5t-35 -11.5q-24 0 -40 19t-23.5 43t-19.5 49.5t-26 35.5q-30 19 -38 19q-12 0 -12 -57q0 -18 -10.5 -28t-28.5 -10q-36 0 -44 62q-1 9 -6.5 62t-10.5 86t-18 72.5t-32 54.5q-11 10 -11 23q0 15 10 27t24 12q19 0 44 -34.5t32 -56.5
q2 -6 5.5 -39.5t11.5 -55.5t24 -22q31 0 70 -24t59 -52q26 -33 56 -103q3 -6 17.5 -19t14.5 -21zM396 355q1 -3 1 -9q0 -13 -11 -22t-29 -9q-30 0 -42.5 30.5t-13.5 66.5l-1 3l1 1q-5 -1 -38 -41.5t-40 -52.5q-11 -18 -37 -18q-11 0 -20 6.5t-9 17.5t15 26q38 33 102 110
q4 5 11.5 15.5t12.5 16t14 10.5t21 5q16 0 20.5 -10.5t6 -37t6.5 -44.5q4 -16 16.5 -39t13.5 -25z" />
    <glyph glyph-name="Hbar" unicode="&#x126;" horiz-adv-x="491" 
d="M447 334q0 -12 -22.5 -22.5t-50.5 -13.5q6 -20 21 -64l23 -69t15.5 -54.5t7.5 -44.5q0 -66 -35 -66q-27 0 -34 48q-5 37 -19.5 93.5t-27.5 56.5q-1 0 -9 -5q-14 -16 -95 -16q-71 0 -79 -12q-2 -3 -2 -9q0 -13 8 -38.5t8 -38.5q0 -17 -9.5 -40t-24.5 -23q-29 0 -36.5 37
t-9 79.5t-15.5 50.5q-26 13 -26 28q0 11 13 23t13 40v21q-44 9 -44 26q0 18 41 20q-1 19 -1 58q0 11 8.5 19.5t18.5 8.5q33 0 41 -85q30 1 85.5 6t79.5 6q-1 5 -1 15q0 13 7.5 27.5t19.5 14.5q30 0 36 -32q1 -7 5 -23q90 0 90 -22zM321 226q0 15 -17 70q-30 0 -88.5 -2.5
t-87.5 -3.5q2 -21 4 -28q3 -12 5.5 -17.5t9 -10t18.5 -4.5q16 0 48 4.5t49 4.5q36 0 58 -15z" />
    <glyph glyph-name="hbar" unicode="&#x127;" horiz-adv-x="392" 
d="M238 275q0 -14 -18 -27t-35 -13q-18 0 -50 -2q9 -42 30 -42q31 0 70 -24t59 -52q26 -33 56 -103q3 -6 17.5 -19t14.5 -21q0 -20 -13 -31.5t-35 -11.5q-24 0 -40 19t-23.5 43t-19.5 49.5t-26 35.5q-30 19 -38 19q-12 0 -12 -57q0 -18 -10.5 -28t-28.5 -10q-36 0 -44 62
q-2 12 -5 43.5t-7 64t-9 59.5q-13 -1 -41 -1q-18 0 -35 10t-17 24t8 17t27 3h6q12 0 38 2q-13 37 -32 53q-11 10 -11 23q0 15 10 27t24 12q19 0 44 -34.5t32 -56.5l3 -14q34 4 52 4q59 0 59 -23z" />
    <glyph glyph-name="Itilde" unicode="&#x128;" horiz-adv-x="198" 
d="M163 38q0 -13 -15 -24.5t-29 -11.5q-26 0 -40.5 39t-14.5 70q0 38 -4 113.5t-4 112.5q0 72 35 72q5 0 9.5 -1.5t7 -5l5 -7t3.5 -9t2 -9.5t1 -10.5v-10v-9.5v-8q0 -178 18 -220q26 -62 26 -81zM246 564q0 -19 -2.5 -27t-12.5 -14.5t-15 -11.5l-12 -12t-14.5 -13.5
t-14.5 -8.5t-23.5 -10.5t-28 -11.5t-24.5 -4q-15 0 -27.5 14t-12.5 35q0 6 3 16t3 12q-7 -4 -21.5 -18l-17.5 -17q-40 -42 -55 -42q-26 0 -26 34q0 30 66 77q4 3 17 14.5l22 19t21 14t20 6.5q15 0 22.5 -17.5t7.5 -35.5q0 -7 -3 -19t-3 -18v-1q17 0 41.5 15.5t32.5 32.5
q1 1 2.5 5t2 5.5t2.5 5t3 5t2.5 4.5t3.5 4t4 2.5t4 2t5 0.5q13 0 20.5 -13.5t7.5 -29.5z" />
    <glyph glyph-name="itilde" unicode="&#x129;" horiz-adv-x="192" 
d="M145 179q0 -25 -5 -79.5t-11 -71.5q-8 -26 -33 -26q-18 0 -31 16.5t-13 35.5q0 7 8 55q6 38 6 76q0 33 38 33q22 0 31.5 -8.5t9.5 -30.5zM243 443q0 -19 -2.5 -27t-12.5 -14.5t-15 -11.5l-12 -12t-14.5 -13.5t-14.5 -8.5t-23.5 -10.5t-28 -11.5t-24.5 -4q-15 0 -27.5 14
t-12.5 35q0 6 3 16t3 12q-7 -4 -21.5 -18l-17.5 -17q-40 -42 -55 -42q-26 0 -26 34q0 30 66 77q4 3 17 14.5l22 19t21 14t20 6.5q15 0 22.5 -17.5t7.5 -35.5q0 -7 -3 -19t-3 -18v-1q17 0 41.5 15.5t32.5 32.5q1 1 2.5 5t2 5.5t2.5 5t3 5t2.5 4.5t3.5 4t4 2.5t4 2t5 0.5
q13 0 20.5 -13.5t7.5 -29.5z" />
    <glyph glyph-name="Imacron" unicode="&#x12a;" horiz-adv-x="198" 
d="M163 38q0 -13 -15 -24.5t-29 -11.5q-26 0 -40.5 39t-14.5 70q0 38 -4 113.5t-4 112.5q0 72 35 72q5 0 9.5 -1.5t7 -5l5 -7t3.5 -9t2 -9.5t1 -10.5v-10v-9.5v-8q0 -178 18 -220q26 -62 26 -81zM238 520q0 -19 -19 -36.5t-38 -17.5q-27 0 -82 -5t-83 -5q-18 0 -36.5 14
t-18.5 32q0 11 2.5 17t10.5 8.5t12 2.5h18q28 0 85 11t86 11q63 0 63 -32z" />
    <glyph glyph-name="imacron" unicode="&#x12b;" horiz-adv-x="192" 
d="M145 179q0 -25 -5 -79.5t-11 -71.5q-8 -26 -33 -26q-18 0 -31 16.5t-13 35.5q0 7 8 55q6 38 6 76q0 33 38 33q22 0 31.5 -8.5t9.5 -30.5zM235 349q0 -19 -19 -36.5t-38 -17.5q-28 0 -83 -5t-82 -5q-18 0 -36.5 14t-18.5 32q0 11 2.5 17t10.5 8.5t12 2.5h18q28 0 85.5 11
t85.5 11q63 0 63 -32z" />
    <glyph glyph-name="Ibreve" unicode="&#x12c;" horiz-adv-x="198" 
d="M163 38q0 -13 -15 -24.5t-29 -11.5q-26 0 -40.5 39t-14.5 70q0 38 -4 113.5t-4 112.5q0 72 35 72q5 0 9.5 -1.5t7 -5l5 -7t3.5 -9t2 -9.5t1 -10.5v-10v-9.5v-8q0 -178 18 -220q26 -62 26 -81zM256 562q-2 -13 -24.5 -35.5t-39.5 -34.5q-24 -16 -62 -27.5t-65 -8.5
q-51 7 -95 40q-32 24 -27 58q1 4 3 13t3 14q2 13 16.5 23.5t29.5 5t17 -30.5q0 -9 1 -14q7 -25 56 -32q63 -8 118 58q23 26 47.5 12.5t21.5 -41.5z" />
    <glyph glyph-name="ibreve" unicode="&#x12d;" horiz-adv-x="192" 
d="M145 179q0 -25 -5 -79.5t-11 -71.5q-8 -26 -33 -26q-18 0 -31 16.5t-13 35.5q0 7 8 55q6 38 6 76q0 33 38 33q22 0 31.5 -8.5t9.5 -30.5zM277 367q-2 -13 -24.5 -35.5t-39.5 -34.5q-24 -16 -62 -27.5t-65 -8.5q-51 7 -95 40q-32 24 -27 58q0 5 2.5 14t3.5 13
q2 13 16.5 23.5t29.5 5t17 -30.5q0 -9 1 -14q7 -25 56 -32q63 -8 118 58q23 26 47.5 12.5t21.5 -41.5z" />
    <glyph glyph-name="Iogonek" unicode="&#x12e;" horiz-adv-x="198" 
d="M284 -121q-69 -63 -141 -63q-95 0 -95 153q0 76 23 93q-7 27 -7 49q0 38 -4 113.5t-4 112.5q0 72 35 72q5 0 9.5 -1.5t7 -5l5 -7t3.5 -9t2 -9.5t1 -10.5v-10v-9.5v-8q0 -178 18 -220q26 -62 26 -81q0 -11 -12 -21.5t-25 -13.5q-6 -30 -6 -47q0 -22 7 -44t25 -22
q17 0 45 19q78 54 102 29q17 -16 -4 -46q-5 -7 -11 -13z" />
    <glyph glyph-name="iogonek" unicode="&#x12f;" horiz-adv-x="192" 
d="M179 -130q-43 -19 -79 -19q-48 0 -70 22t-22 57q0 25 13.5 56t33.5 50q-3 9 -3 18q0 7 8 55q6 38 6 76q0 33 38 33q22 0 31.5 -8.5t9.5 -30.5q0 -25 -5 -79.5t-11 -71.5q-5 -14 -9 -18q-4 -6 -18.5 -15.5t-24 -22.5t-9.5 -33q0 -28 25 -28q19 0 45.5 6.5t34.5 6.5
q35 0 35 -21q0 -20 -29 -33zM147 406q0 -18 -13 -55t-26 -37q-45 0 -45 52q0 20 1.5 32t11 23.5t26.5 11.5q45 0 45 -27z" />
    <glyph glyph-name="Idotaccent" unicode="&#x130;" horiz-adv-x="198" 
d="M163 38q0 -13 -15 -24.5t-29 -11.5q-26 0 -40.5 39t-14.5 70q0 38 -4 113.5t-4 112.5q0 72 35 72q5 0 9.5 -1.5t7 -5l5 -7t3.5 -9t2 -9.5t1 -10.5v-10v-9.5v-8q0 -178 18 -220q26 -62 26 -81zM130 511q0 -12 -16.5 -28t-29.5 -16q-20 0 -31.5 17t-11.5 37t9.5 41t26.5 19
q53 -5 53 -70z" />
    <glyph glyph-name="dotlessi" unicode="&#x131;" horiz-adv-x="192" 
d="M145 179q0 -25 -5 -79.5t-11 -71.5q-8 -26 -33 -26q-18 0 -31 16.5t-13 35.5q0 7 8 55q6 38 6 76q0 33 38 33q22 0 31.5 -8.5t9.5 -30.5z" />
    <glyph glyph-name="IJ" unicode="&#x132;" horiz-adv-x="575" 
d="M163 38q0 -13 -15 -24.5t-29 -11.5q-26 0 -40.5 39t-14.5 70q0 38 -4 113.5t-4 112.5q0 72 35 72q5 0 9.5 -1.5t7 -5l5 -7t3.5 -9t2 -9.5t1 -10.5v-10v-9.5v-8q0 -178 18 -220q26 -62 26 -81zM532 119q0 -57 -49 -97t-107 -40q-28 0 -49.5 8t-39 28.5t-26 33.5t-24.5 44
q-4 7 -6 11q-12 20 -12 32q0 15 20 24q2 1 14 6.5t21 9t15 3.5q14 0 30 -15.5t16 -28.5q0 -7 -9.5 -14.5t-9.5 -16.5q0 -21 23.5 -35t45.5 -14q28 0 53 20t25 47q0 36 -23.5 126.5t-44.5 155.5q-6 22 -6 33q0 30 24 30t35 -12t19 -39q17 -63 41 -168t24 -132z" />
    <glyph glyph-name="ij" unicode="&#x133;" horiz-adv-x="443" 
d="M147 406q0 -18 -13 -55t-26 -37q-45 0 -45 52q0 20 1.5 32t11 23.5t26.5 11.5q45 0 45 -27zM145 179q0 -25 -5 -79.5t-11 -71.5q-8 -26 -33 -26q-18 0 -31 16.5t-13 35.5q0 7 8 55q6 38 6 76q0 33 38 33q22 0 31.5 -8.5t9.5 -30.5zM287 278q0 -42 -25 -42q-17 0 -33.5 17
t-18.5 34q-1 4 -0.5 22.5t-1.5 32.5t-8 19q-9 9 -9 24q0 33 37 33q22 0 32 -6t12 -26q1 -13 8 -51t7 -57zM391 9q0 -26 -1 -40.5t-6 -35.5t-17 -35t-32 -23q-3 -1 -15 -6.5l-16.5 -7.5l-15 -6.5t-17 -6.5t-15.5 -4.5t-17.5 -3.5t-16.5 -1q-24 0 -46 14t-33 35q-20 40 -20 54
q0 15 12 23.5t28 8.5q22 0 32 -7.5t10.5 -16.5t7.5 -16.5t23 -7.5q28 0 55.5 18.5t27.5 45.5q0 41 -1 63t-9 57.5t-25 55.5q-15 18 -15 38q0 30 29 30q25 0 55 -48q18 -27 28 -81t10 -96z" />
    <glyph glyph-name="Jcircumflex" unicode="&#x134;" horiz-adv-x="377" 
d="M334 119q0 -57 -49 -97t-107 -40q-28 0 -49.5 8t-39 28.5t-26 33.5t-24.5 44q-4 7 -6 11q-12 20 -12 32q0 15 20 24q2 1 14 6.5t21 9t15 3.5q14 0 30 -15.5t16 -28.5q0 -7 -9.5 -14.5t-9.5 -16.5q0 -21 23.5 -35t45.5 -14q28 0 53 20t25 47q0 36 -23.5 126.5t-44.5 155.5
q-6 22 -6 33q0 30 24 30t35 -12t19 -39q17 -63 41 -168t24 -132zM341 485q1 -3 1 -9q0 -13 -11 -22t-29 -9q-30 0 -42.5 30.5t-13.5 66.5l-1 3l1 1q-5 -1 -38 -41.5t-40 -52.5q-11 -18 -37 -18q-11 0 -20 6.5t-9 17.5t15 26q38 33 102 110q4 5 11.5 15.5t12.5 16t14 10.5
t21 5q16 0 20.5 -10.5t6 -37t6.5 -44.5q4 -16 16.5 -39t13.5 -25z" />
    <glyph glyph-name="jcircumflex" unicode="&#x135;" horiz-adv-x="310" 
d="M270 54q0 -26 -1 -40.5t-6 -35.5t-17 -35t-32 -23q-3 -1 -15 -6.5l-16.5 -7.5l-15 -6.5t-17 -6.5t-15.5 -4.5t-17.5 -3.5t-16.5 -1q-24 0 -46 14t-33 35q-20 40 -20 54q0 15 12 23.5t28 8.5q22 0 32 -7.5t10.5 -16.5t7.5 -16.5t23 -7.5q28 0 55.5 18.5t27.5 45.5
q0 41 -1 63t-9 57.5t-25 55.5q-15 18 -15 38q0 30 29 30q25 0 55 -48q18 -27 28 -81t10 -96zM270 360q1 -3 1 -9q0 -13 -11 -22t-29 -9q-30 0 -42.5 30.5t-13.5 66.5l-1 3l1 1q-5 -1 -38 -41.5t-40 -52.5q-11 -18 -37 -18q-11 0 -20 6.5t-9 17.5t15 26q38 33 102 110
q4 5 11.5 15.5t12.5 16t14 10.5t21 5q16 0 20.5 -10.5t6 -37t6.5 -44.5q4 -16 16.5 -39t13.5 -25z" />
    <glyph glyph-name="uni0136" unicode="&#x136;" horiz-adv-x="545" 
d="M516 50q0 -32 -26 -32q-73 0 -189 34q-7 2 -38.5 13l-60 21t-30.5 10q-7 0 -7 -7q0 -4 7 -21t7 -29q0 -29 -37 -29q-10 0 -18 2t-12.5 7.5l-7.5 9t-4 13.5t-1.5 13.5t0 16t0.5 15.5q0 27 -4 57.5t-8.5 53t-15 57.5t-16 51.5t-20 56.5t-18.5 52q-3 9 -3 18q0 27 19 27
q35 0 50 -45l50 -141q4 -21 12 -21q5 0 15 13q62 73 119 109q4 3 19.5 13l28 18l28 17.5t28 14.5t19.5 5q10 0 19.5 -10t9.5 -19q0 -8 -9 -17q-11 -11 -59 -40t-70 -49q-3 -3 -23 -21t-30 -28.5t-21 -27.5t-11 -30q0 -29 43 -50t82 -28q115 -21 167 -42q16 -5 16 -31z
M366 -129q0 -35 -22.5 -56t-65.5 -36q-31 -11 -65 -11q-14 0 -24 7.5t-10 19.5q0 4 1.5 7t5.5 5t7.5 4t10.5 3.5t10.5 2t11.5 2t10 1.5q21 5 31.5 8t20 11t9.5 20q0 21 -15 30t-30.5 13t-15.5 12q-1 14 7 21t22 7q46 0 73.5 -23.5t27.5 -47.5z" />
    <glyph glyph-name="uni0137" unicode="&#x137;" horiz-adv-x="518" 
d="M517 19q0 -22 -27 -22q-24 0 -95.5 17t-93.5 28q-21 11 -59.5 37t-49.5 39q-1 1 -5.5 7t-8.5 10t-7 4q-7 0 -7 -23q0 -2 -0.5 -12.5t-1 -17.5t-2 -19.5t-3 -21.5t-4 -20.5t-6 -19.5t-7.5 -15.5t-10 -11t-13 -3.5q-14 0 -23 9.5t-11 27t-2.5 32t1 35t1.5 25.5
q0 34 -20 105.5t-20 107.5q0 8 3 24t3 24q0 16 -12.5 47.5t-12.5 49.5q0 35 33 35q21 0 41 -19.5t20 -40.5q0 -29 6.5 -83.5t7.5 -65.5q0 -2 2 -14.5t3.5 -24.5t4.5 -25.5t6 -22t6 -8.5q2 0 19.5 16.5l36.5 35t24 22.5q98 70 117 103q9 16 22 16q12 0 25.5 -11t13.5 -22
q0 -23 -50 -70.5t-87 -73.5q-33 -22 -33 -32q0 -26 79.5 -57t128.5 -42q23 -6 45 -22.5t22 -36.5zM337 -115q0 -35 -22.5 -56t-65.5 -36q-31 -11 -65 -11q-14 0 -24 7.5t-10 19.5q0 4 1.5 7t5.5 5t7.5 4t10.5 3.5t10.5 2t11.5 2t10 1.5q21 5 31.5 8t20 11t9.5 20
q0 21 -15 30t-30.5 13t-15.5 12q-1 14 7 21t22 7q46 0 73.5 -23.5t27.5 -47.5z" />
    <glyph glyph-name="kgreenlandic" unicode="&#x138;" horiz-adv-x="518" 
d="M517 -1q0 -22 -27 -22q-24 0 -95.5 17t-93.5 28q-21 11 -59.5 37t-49.5 39q-1 1 -5.5 7t-8.5 10t-7 4q-7 0 -7 -23q0 -2 -0.5 -12.5t-1 -17.5t-2 -19.5t-3 -21.5t-4 -20.5t-6 -19.5t-7.5 -15.5t-10 -11t-13 -3.5q-14 0 -23 9.5t-11 27t-2.5 32t1 35t1.5 25.5
q0 67 -15 112t-15 57q0 35 33 35q21 0 41 -19.5t20 -40.5q0 -5 -0.5 -13.5t-1 -15t-0.5 -13t2.5 -10t6.5 -3.5q2 0 19.5 16.5l36.5 35t24 22.5l20 13.5t20 14t14.5 13.5t14.5 19q9 16 22 16q12 0 25.5 -11t13.5 -22q0 -39 -89 -101q-33 -22 -33 -32q0 -26 79.5 -57
t128.5 -42q23 -6 45 -22.5t22 -36.5z" />
    <glyph glyph-name="Lacute" unicode="&#x139;" horiz-adv-x="380" 
d="M372 82q0 -20 -12 -41t-30 -21t-54.5 -5t-55.5 -5q-34 0 -78.5 7.5t-61.5 22.5q-38 31 -38 97q0 8 2 28q17 133 26 194q3 28 29 28q32 0 32 -37q0 -33 -6 -102t-6 -100q0 -67 76 -67q91 0 133 14q12 5 24 5q20 0 20 -18zM372 557q0 -8 -17 -25.5t-39.5 -37t-28.5 -26.5
q-9 -9 -27 -34t-32 -37.5t-30 -12.5q-17 0 -30.5 9t-13.5 25q0 6 5 14t15 18.5t17 17t20.5 18t15.5 12.5l49 45l13.5 14t16 16t15.5 10.5t19 5.5q32 0 32 -32z" />
    <glyph glyph-name="lacute" unicode="&#x13a;" horiz-adv-x="193" 
d="M138 147v-133q0 -16 -6 -23.5t-22 -7.5q-21 0 -32.5 13t-13.5 27t-2 37q0 28 3 82t3 81q0 24 -4 73.5t-4 73.5q0 55 28 55q15 0 29 -8.5t14 -22.5q0 -42 3.5 -124t3.5 -123zM224 611q0 -8 -17 -25.5t-39.5 -37t-28.5 -26.5q-9 -9 -27 -34t-32 -37.5t-30 -12.5
q-17 0 -30.5 9t-13.5 25q0 6 5 14t15 18.5t17 17t20.5 18t15.5 12.5l49 45l13.5 14t16 16t15.5 10.5t19 5.5q32 0 32 -32z" />
    <glyph glyph-name="uni013B" unicode="&#x13b;" horiz-adv-x="380" 
d="M372 82q0 -20 -12 -41t-30 -21t-54.5 -5t-55.5 -5q-34 0 -78.5 7.5t-61.5 22.5q-38 31 -38 97q0 8 2 28q17 133 26 194q3 28 29 28q32 0 32 -37q0 -33 -6 -102t-6 -100q0 -67 76 -67q91 0 133 14q12 5 24 5q20 0 20 -18zM283 -119q0 -35 -22.5 -56t-65.5 -36
q-31 -11 -65 -11q-14 0 -24 7.5t-10 19.5q0 4 1.5 7t5.5 5t7.5 4t10.5 3.5t10.5 2t11.5 2t10 1.5q21 5 31.5 8t20 11t9.5 20q0 21 -15 30t-30.5 13t-15.5 12q-1 14 7 21t22 7q46 0 73.5 -23.5t27.5 -47.5z" />
    <glyph glyph-name="uni013C" unicode="&#x13c;" horiz-adv-x="193" 
d="M138 147v-133q0 -16 -6 -23.5t-22 -7.5q-21 0 -32.5 13t-13.5 27t-2 37q0 28 3 82t3 81q0 24 -4 73.5t-4 73.5q0 55 28 55q15 0 29 -8.5t14 -22.5q0 -42 3.5 -124t3.5 -123zM190 -161q0 -35 -22.5 -56t-65.5 -36q-31 -11 -65 -11q-14 0 -24 7.5t-10 19.5q0 4 1.5 7t5.5 5
t7.5 4t10.5 3.5t10.5 2t11.5 2t10 1.5q21 5 31.5 8t20 11t9.5 20q0 21 -15 30t-30.5 13t-15.5 12q-1 14 7 21t22 7q46 0 73.5 -23.5t27.5 -47.5z" />
    <glyph glyph-name="Lcaron" unicode="&#x13d;" horiz-adv-x="380" 
d="M372 82q0 -20 -12 -41t-30 -21t-54.5 -5t-55.5 -5q-34 0 -78.5 7.5t-61.5 22.5q-38 31 -38 97q0 8 2 28q17 133 26 194q3 28 29 28q32 0 32 -37q0 -33 -6 -102t-6 -100q0 -67 76 -67q91 0 133 14q12 5 24 5q20 0 20 -18zM326 418q0 -43 -34 -139t-67 -96
q-12 0 -21.5 11.5t-9.5 24.5q0 11 5 21q15 33 32.5 96t17.5 91q0 15 10.5 26.5t25.5 11.5q19 0 30 -13.5t11 -33.5z" />
    <glyph glyph-name="lcaron" unicode="&#x13e;" horiz-adv-x="284" 
d="M138 147v-133q0 -16 -6 -23.5t-22 -7.5q-21 0 -32.5 13t-13.5 27t-2 37q0 28 3 82t3 81q0 24 -4 73.5t-4 73.5q0 55 28 55q15 0 29 -8.5t14 -22.5q0 -42 3.5 -124t3.5 -123zM300 498q0 -43 -34 -139t-67 -96q-12 0 -21.5 11.5t-9.5 24.5q0 11 5 21q15 33 32.5 96t17.5 91
q0 15 10.5 26.5t25.5 11.5q19 0 30 -13.5t11 -33.5z" />
    <glyph glyph-name="Ldot" unicode="&#x13f;" horiz-adv-x="380" 
d="M372 82q0 -20 -12 -41t-30 -21t-54.5 -5t-55.5 -5q-34 0 -78.5 7.5t-61.5 22.5q-38 31 -38 97q0 8 2 28q17 133 26 194q3 28 29 28q32 0 32 -37q0 -33 -6 -102t-6 -100q0 -67 76 -67q91 0 133 14q12 5 24 5q20 0 20 -18zM316 204q0 -12 -16 -28.5t-29 -16.5
q-21 0 -32.5 17t-11.5 38q0 19 10 40t26 20q53 -5 53 -70z" />
    <glyph glyph-name="ldot" unicode="&#x140;" horiz-adv-x="308" 
d="M138 147v-133q0 -16 -6 -23.5t-22 -7.5q-21 0 -32.5 13t-13.5 27t-2 37q0 28 3 82t3 81q0 24 -4 73.5t-4 73.5q0 55 28 55q15 0 29 -8.5t14 -22.5q0 -42 3.5 -124t3.5 -123zM292 156q0 -12 -16 -28.5t-29 -16.5q-21 0 -32.5 17t-11.5 38q0 19 10 40t26 20q53 -5 53 -70z
" />
    <glyph glyph-name="Lslash" unicode="&#x141;" horiz-adv-x="380" 
d="M372 82q0 -20 -12 -41t-30 -21t-54.5 -5t-55.5 -5q-34 0 -78.5 7.5t-61.5 22.5q-38 31 -38 97q0 8 2 28l1 9q-5 0 -15 -0.5t-15 -0.5q-18 0 -36.5 14t-18.5 32q0 11 2.5 17t10.5 8.5t12 2.5h18q24 0 52 5l15 107q3 28 29 28q32 0 32 -37q0 -29 -4 -85q30 4 47 4
q63 0 63 -32q0 -19 -19 -36.5t-38 -17.5q-30 0 -60 -3q-1 -11 -1 -32q0 -67 76 -67q91 0 133 14q12 5 24 5q20 0 20 -18z" />
    <glyph glyph-name="lslash" unicode="&#x142;" horiz-adv-x="193" 
d="M229 213q0 -18 -19.5 -43t-38.5 -32l-37 -15l4 -109q0 -16 -6 -23.5t-22 -7.5q-21 0 -32.5 13t-13.5 27t-2 37v29q-32 -15 -56 -24q-17 -8 -36 -0.5t-19 25.5q0 14 6.5 22.5t13 11.5t23.5 9q31 13 70 35q-4 180 -4 202q0 55 28 55q15 0 29 -8.5t14 -22.5q0 -164 1 -188
l33 15q47 16 58 8q6 -5 6 -16z" />
    <glyph glyph-name="Nacute" unicode="&#x143;" horiz-adv-x="518" 
d="M475 243q0 -49 -8 -76q-10 -35 -25 -69t-44 -66t-60 -32q-20 0 -50.5 28.5t-56.5 62t-53 62t-40 28.5q-8 0 -8 -11q0 -10 7 -45t7 -55q0 -68 -44 -68q-16 0 -21 7t-7 25t-7 73t-10.5 93t-14.5 72q-5 17 -5 32q0 35 25 35q30 0 113 -80.5t123 -129.5q1 -1 4.5 -6t5.5 -7.5
l5.5 -7t6.5 -7t7 -5.5t7.5 -4.5t7.5 -2.5h3q31 0 51 65.5t20 107.5q0 24 -16 62t-16 59q0 20 17 20q76 0 76 -160zM326 521q0 -8 -17 -25.5t-39.5 -37t-28.5 -26.5q-9 -9 -27 -34t-32 -37.5t-30 -12.5q-17 0 -30.5 9t-13.5 25q0 6 5 14t15 18.5t17 17t20.5 18t15.5 12.5
l49 45l13.5 14t16 16t15.5 10.5t19 5.5q32 0 32 -32z" />
    <glyph glyph-name="nacute" unicode="&#x144;" horiz-adv-x="498" 
d="M456 -2q0 -14 -14.5 -26.5t-28.5 -12.5q-26 0 -41 23t-19 50t-11.5 50t-20.5 23q-19 0 -53 -46.5t-56 -46.5q-17 0 -23 21t-5.5 46.5t-11 46.5t-37.5 21q-20 0 -56.5 -16t-46.5 -16q-32 0 -32 36q0 23 61 49t92 26q21 0 38 -11t25.5 -23.5t18 -23.5t17.5 -11q5 0 18 11.5
t34 23t45 11.5q45 0 78 -98q29 -92 29 -107zM429 451q0 -8 -17 -25.5t-39.5 -37t-28.5 -26.5q-9 -9 -27 -34t-32 -37.5t-30 -12.5q-17 0 -30.5 9t-13.5 25q0 6 5 14t15 18.5t17 17t20.5 18t15.5 12.5l49 45l13.5 14t16 16t15.5 10.5t19 5.5q32 0 32 -32z" />
    <glyph glyph-name="uni0145" unicode="&#x145;" horiz-adv-x="518" 
d="M475 243q0 -49 -8 -76q-10 -35 -25 -69t-44 -66t-60 -32q-20 0 -50.5 28.5t-56.5 62t-53 62t-40 28.5q-8 0 -8 -11q0 -10 7 -45t7 -55q0 -68 -44 -68q-16 0 -21 7t-7 25t-7 73t-10.5 93t-14.5 72q-5 17 -5 32q0 35 25 35q30 0 113 -80.5t123 -129.5q1 -1 4.5 -6t5.5 -7.5
l5.5 -7t6.5 -7t7 -5.5t7.5 -4.5t7.5 -2.5h3q31 0 51 65.5t20 107.5q0 24 -16 62t-16 59q0 20 17 20q76 0 76 -160zM352 -127q0 -35 -22.5 -56t-65.5 -36q-31 -11 -65 -11q-14 0 -24 7.5t-10 19.5q0 4 1.5 7t5.5 5t7.5 4t10.5 3.5t10.5 2t11.5 2t10 1.5q21 5 31.5 8t20 11
t9.5 20q0 21 -15 30t-30.5 13t-15.5 12q-1 14 7 21t22 7q46 0 73.5 -23.5t27.5 -47.5z" />
    <glyph glyph-name="uni0146" unicode="&#x146;" horiz-adv-x="498" 
d="M456 -2q0 -14 -14.5 -26.5t-28.5 -12.5q-26 0 -41 23t-19 50t-11.5 50t-20.5 23q-19 0 -53 -46.5t-56 -46.5q-17 0 -23 21t-5.5 46.5t-11 46.5t-37.5 21q-20 0 -56.5 -16t-46.5 -16q-32 0 -32 36q0 23 61 49t92 26q21 0 38 -11t25.5 -23.5t18 -23.5t17.5 -11q5 0 18 11.5
t34 23t45 11.5q45 0 78 -98q29 -92 29 -107zM342 -161q0 -35 -22.5 -56t-65.5 -36q-31 -11 -65 -11q-14 0 -24 7.5t-10 19.5q0 4 1.5 7t5.5 5t7.5 4t10.5 3.5t10.5 2t11.5 2t10 1.5q21 5 31.5 8t20 11t9.5 20q0 21 -15 30t-30.5 13t-15.5 12q-1 14 7 21t22 7
q46 0 73.5 -23.5t27.5 -47.5z" />
    <glyph glyph-name="Ncaron" unicode="&#x147;" horiz-adv-x="518" 
d="M475 243q0 -49 -8 -76q-10 -35 -25 -69t-44 -66t-60 -32q-20 0 -50.5 28.5t-56.5 62t-53 62t-40 28.5q-8 0 -8 -11q0 -10 7 -45t7 -55q0 -68 -44 -68q-16 0 -21 7t-7 25t-7 73t-10.5 93t-14.5 72q-5 17 -5 32q0 35 25 35q30 0 113 -80.5t123 -129.5q1 -1 4.5 -6t5.5 -7.5
l5.5 -7t6.5 -7t7 -5.5t7.5 -4.5t7.5 -2.5h3q31 0 51 65.5t20 107.5q0 24 -16 62t-16 59q0 20 17 20q76 0 76 -160zM188 517q-1 3 -1 9q0 13 11 22t29 9q30 0 42.5 -30.5t13.5 -66.5l1 -3l-1 -1q5 1 38 41.5t40 52.5q11 18 37 18q11 0 20 -6.5t9 -17.5t-15 -26
q-38 -33 -102 -110q-4 -5 -11.5 -15.5t-12.5 -16t-14 -10.5t-21 -5q-16 0 -20.5 10.5t-6 37t-6.5 44.5q-4 16 -16.5 39t-13.5 25z" />
    <glyph glyph-name="ncaron" unicode="&#x148;" horiz-adv-x="498" 
d="M456 -2q0 -14 -14.5 -26.5t-28.5 -12.5q-26 0 -41 23t-19 50t-11.5 50t-20.5 23q-19 0 -53 -46.5t-56 -46.5q-17 0 -23 21t-5.5 46.5t-11 46.5t-37.5 21q-20 0 -56.5 -16t-46.5 -16q-32 0 -32 36q0 23 61 49t92 26q21 0 38 -11t25.5 -23.5t18 -23.5t17.5 -11q5 0 18 11.5
t34 23t45 11.5q45 0 78 -98q29 -92 29 -107zM217 434q-1 3 -1 9q0 13 11 22t29 9q30 0 42.5 -30.5t13.5 -66.5l1 -3l-1 -1q5 1 38 41.5t40 52.5q11 18 37 18q11 0 20 -6.5t9 -17.5t-15 -26q-38 -33 -102 -110q-4 -5 -11.5 -15.5t-12.5 -16t-14 -10.5t-21 -5
q-16 0 -20.5 10.5t-6 37t-6.5 44.5q-4 16 -16.5 39t-13.5 25z" />
    <glyph glyph-name="napostrophe" unicode="&#x149;" horiz-adv-x="498" 
d="M456 -2q0 -14 -14.5 -26.5t-28.5 -12.5q-26 0 -41 23t-19 50t-11.5 50t-20.5 23q-19 0 -53 -46.5t-56 -46.5q-17 0 -23 21t-5.5 46.5t-11 46.5t-37.5 21q-20 0 -56.5 -16t-46.5 -16q-32 0 -32 36q0 23 61 49t92 26q21 0 38 -11t25.5 -23.5t18 -23.5t17.5 -11q5 0 18 11.5
t34 23t45 11.5q45 0 78 -98q29 -92 29 -107zM174 482q0 -43 -34 -139t-67 -96q-12 0 -21.5 11.5t-9.5 24.5q0 11 5 21q15 33 32.5 96t17.5 91q0 15 10.5 26.5t25.5 11.5q19 0 30 -13.5t11 -33.5z" />
    <glyph glyph-name="Eng" unicode="&#x14a;" horiz-adv-x="518" 
d="M503 -115q0 -57 -49 -97t-107 -40q-28 0 -49.5 8t-39 28.5t-26 33.5t-24.5 44q-4 7 -6 11q-12 20 -12 32q0 15 20 24q2 1 14 6.5t21 9t15 3.5q14 0 30 -15.5t16 -28.5q0 -7 -9.5 -14.5t-9.5 -16.5q0 -21 23.5 -35t45.5 -14q28 0 53 20t25 47q0 105 -7 180
q-42 -71 -89 -71q-20 0 -50.5 28.5t-56.5 62t-53 62t-40 28.5q-8 0 -8 -11q0 -10 7 -45t7 -55q0 -68 -44 -68q-16 0 -21 7t-7 25t-7 73t-10.5 93t-14.5 72q-5 17 -5 32q0 35 25 35q30 0 113 -80.5t123 -129.5q1 -1 4.5 -6t5.5 -7.5l5.5 -7t6.5 -7t7 -5.5t7.5 -4.5t7.5 -2.5
h3q31 0 51 65.5t20 107.5q0 24 -16 62t-16 59q0 20 17 20q16 0 28 -7.5t20.5 -24t14 -32.5t9.5 -43.5t6 -45t5 -49.5t4 -46q4 -40 10.5 -139t6.5 -131z" />
    <glyph glyph-name="eng" unicode="&#x14b;" horiz-adv-x="498" 
d="M444 -46q0 -26 -1 -40.5t-6 -35.5t-17 -35t-32 -23q-3 -1 -15 -6.5l-16.5 -7.5l-15 -6.5t-17 -6.5t-15.5 -4.5t-17.5 -3.5t-16.5 -1q-24 0 -46 14t-33 35q-20 40 -20 54q0 15 12 23.5t28 8.5q22 0 32 -7.5t10.5 -16.5t7.5 -16.5t23 -7.5q28 0 55.5 18.5t27.5 45.5
q0 116 -23 158q-12 12 -28 12q-19 0 -53 -46.5t-56 -46.5q-17 0 -23 21t-5.5 46.5t-11 46.5t-37.5 21q-20 0 -56.5 -16t-46.5 -16q-32 0 -32 36q0 23 61 49t92 26q21 0 38 -11t25.5 -23.5t18 -23.5t17.5 -11q5 0 18 11.5t34 23t45 11.5q45 0 78 -98q17 -56 17 -151z" />
    <glyph glyph-name="Omacron" unicode="&#x14c;" horiz-adv-x="393" 
d="M336 202q0 -106 -39 -146q-36 -37 -62.5 -51.5t-70.5 -14.5q-53 0 -84 32t-31 85q0 50 18 87.5t55 77.5q72 75 115 75q26 0 59 -25t37 -50q3 -23 3 -70zM273 210q0 28 -10 40t-37 12q-38 0 -72 -54t-34 -95q0 -8 1.5 -14t5 -10.5t6 -8t9 -5.5l10 -3t12 -1.5t11.5 -0.5h13
h12q33 0 53 50t20 90zM361 455q0 -19 -19 -36.5t-38 -17.5q-28 0 -83 -5t-82 -5q-18 0 -36.5 14t-18.5 32q0 11 2.5 17t10.5 8.5t12 2.5h18q29 0 86 11t85 11q63 0 63 -32z" />
    <glyph glyph-name="omacron" unicode="&#x14d;" horiz-adv-x="373" 
d="M332 167q0 -83 -45.5 -137.5t-127.5 -54.5q-48 0 -76.5 28t-28.5 75q0 63 47.5 119t109.5 56q8 0 17 -4t13 -4q5 0 15 3t16 3q60 0 60 -84zM209 144q0 8 -7.5 13t-16.5 5q-19 0 -33.5 -23t-14.5 -43v-14q0 -30 34 -30q27 0 27 12q0 4 -2 10t-2 10q0 12 7.5 32.5t7.5 27.5
zM353 379q0 -19 -19 -36.5t-38 -17.5q-28 0 -83 -5t-82 -5q-18 0 -36.5 14t-18.5 32q0 11 2.5 17t10.5 8.5t12 2.5h18q29 0 86 11t85 11q63 0 63 -32z" />
    <glyph glyph-name="Obreve" unicode="&#x14e;" horiz-adv-x="393" 
d="M336 202q0 -106 -39 -146q-36 -37 -62.5 -51.5t-70.5 -14.5q-53 0 -84 32t-31 85q0 50 18 87.5t55 77.5q72 75 115 75q26 0 59 -25t37 -50q3 -23 3 -70zM273 210q0 28 -10 40t-37 12q-38 0 -72 -54t-34 -95q0 -8 1.5 -14t5 -10.5t6 -8t9 -5.5l10 -3t12 -1.5t11.5 -0.5h13
h12q33 0 53 50t20 90zM396 518q-2 -13 -24.5 -35.5t-39.5 -34.5q-24 -16 -62 -27.5t-65 -8.5q-51 7 -95 40q-32 24 -27 58q1 4 3 13t3 14q2 13 16.5 23.5t29.5 5t17 -30.5q0 -9 1 -14q7 -25 56 -32q63 -8 118 58q23 26 47.5 12.5t21.5 -41.5z" />
    <glyph glyph-name="obreve" unicode="&#x14f;" horiz-adv-x="373" 
d="M332 167q0 -83 -45.5 -137.5t-127.5 -54.5q-48 0 -76.5 28t-28.5 75q0 63 47.5 119t109.5 56q8 0 17 -4t13 -4q5 0 15 3t16 3q60 0 60 -84zM209 144q0 8 -7.5 13t-16.5 5q-19 0 -33.5 -23t-14.5 -43v-14q0 -30 34 -30q27 0 27 12q0 4 -2 10t-2 10q0 12 7.5 32.5t7.5 27.5
zM382 418q-2 -13 -24.5 -35.5t-39.5 -34.5q-24 -16 -62 -27.5t-65 -8.5q-51 7 -95 40q-32 24 -27 58q1 4 3 13t3 14q2 13 16.5 23.5t29.5 5t17 -30.5q0 -9 1 -14q7 -25 56 -32q63 -8 118 58q23 26 47.5 12.5t21.5 -41.5z" />
    <glyph glyph-name="Ohungarumlaut" unicode="&#x150;" horiz-adv-x="393" 
d="M336 202q0 -106 -39 -146q-36 -37 -62.5 -51.5t-70.5 -14.5q-53 0 -84 32t-31 85q0 50 18 87.5t55 77.5q72 75 115 75q26 0 59 -25t37 -50q3 -23 3 -70zM273 210q0 28 -10 40t-37 12q-38 0 -72 -54t-34 -95q0 -8 1.5 -14t5 -10.5t6 -8t9 -5.5l10 -3t12 -1.5t11.5 -0.5h13
h12q33 0 53 50t20 90zM387 466q-2 -5 -6 -16l-7 -19t-8.5 -20t-10.5 -18t-12.5 -13.5t-15 -7t-18.5 2.5q-13 5 -16.5 21t1.5 28q8 18 14 27t14 28q15 40 15 54q0 31 6 45q10 24 36 13q9 -4 15.5 -9t10 -12t5.5 -13t1 -15.5t-2 -15.5t-4.5 -16.5t-5.5 -15.5t-6.5 -15
t-5.5 -13zM288 526q-6 -16 -37 -71t-41 -67q-20 -23 -49 -12q-14 6 -17 31t4 36q2 6 30.5 42t38.5 60q2 5 4.5 14t4.5 14q10 26 33 16q17 -7 26.5 -27t2.5 -36z" />
    <glyph glyph-name="ohungarumlaut" unicode="&#x151;" horiz-adv-x="373" 
d="M332 167q0 -83 -45.5 -137.5t-127.5 -54.5q-48 0 -76.5 28t-28.5 75q0 63 47.5 119t109.5 56q8 0 17 -4t13 -4q5 0 15 3t16 3q60 0 60 -84zM209 144q0 8 -7.5 13t-16.5 5q-19 0 -33.5 -23t-14.5 -43v-14q0 -30 34 -30q27 0 27 12q0 4 -2 10t-2 10q0 12 7.5 32.5t7.5 27.5
zM347 407q-2 -5 -6 -16l-7 -19t-8.5 -20t-10.5 -18t-12.5 -13.5t-15 -7t-18.5 2.5q-13 5 -16.5 21t1.5 28q7 19 14 28t14 27q15 40 15 54q0 31 6 45q10 24 36 13q9 -4 15.5 -9t10 -12t5.5 -13t1 -15.5t-2 -15.5t-4.5 -16.5t-5.5 -15.5t-6.5 -15t-5.5 -13zM248 467
q-6 -16 -37 -71t-41 -67q-20 -23 -49 -12q-14 6 -17 31t4 36q2 6 30.5 42t38.5 60q2 4 4.5 14t4.5 14q10 26 33 16q17 -7 26.5 -27t2.5 -36z" />
    <glyph glyph-name="OE" unicode="&#x152;" horiz-adv-x="703" 
d="M703 373q0 -24 -63 -32q-10 -1 -69 -2.5t-90 -7.5q-11 -2 -52 -15.5t-61 -13.5q-17 0 -22 -22l-10 -58v-6.5v-7.5v-6v-11q1 -1 3 -1t11 3q28 9 97 13q21 1 62 16t62 15q13 0 27 -7.5t14 -19.5q0 -14 -21 -29t-37 -18q-15 -3 -51.5 -5.5t-55.5 -6.5q-54 -14 -71 -14
q-10 0 -21 8t-17 8q-3 0 -4 -1q-2 -18 -6 -36q15 -19 61 -28.5t76 -9.5q90 0 103 19q16 24 26 24q14 0 25.5 -25t11.5 -41q0 -27 -27 -35q-80 -20 -135 -20q-32 0 -87.5 18t-82.5 40l-2 -2q-34 -37 -61 -51.5t-72 -14.5q-53 0 -84 32t-31 85q0 50 18 87.5t55 77.5
q72 75 115 75q23 0 49 -18q13 52 34 52q6 0 18.5 -9t29.5 -9q9 0 22 3.5t28.5 9l21.5 7.5q55 14 118 14h65q2 0 10 0.5t14 0t15 -0.5t15.5 -2t12.5 -4.5t9.5 -7t3.5 -10.5zM273 214q-1 26 -11 37t-36 11q-38 0 -72 -54t-34 -95q0 -8 1.5 -14t5 -10.5t6 -8t9 -5.5l10 -3
t12 -1.5t11.5 -0.5h13h12q36 0 59 66v3q0 15 6.5 42t7.5 33z" />
    <glyph glyph-name="oe" unicode="&#x153;" horiz-adv-x="627" 
d="M633 53q0 -14 -18.5 -26t-34.5 -15q-134 -32 -207 -32q-55 0 -107 29q-44 -34 -107 -34q-48 0 -76.5 28t-28.5 75q0 64 47 119.5t110 55.5q8 0 17 -4t13 -4q5 0 15 3t16 3h6q41 31 91 31q33 0 54.5 -16t21.5 -48q0 -22 -9 -40.5t-19 -28.5t-30.5 -20t-30.5 -13.5
t-31 -9.5q-7 -26 -16 -43q38 -15 87 -15q8 0 23 0.5t22 0.5q50 3 90 10q48 8 55 8q47 0 47 -14zM207 151q-6 11 -22 11q-19 0 -33.5 -23t-14.5 -43v-14q0 -30 34 -30q27 0 27 12q0 4 -2 10t-2 10l3 18q9 47 10 49zM375 195q0 8 -11.5 12t-21.5 4q-8 0 -15 -4q5 -20 5 -40v-5
q43 18 43 33z" />
    <glyph glyph-name="Racute" unicode="&#x154;" horiz-adv-x="478" 
d="M492 -55q0 -22 -31 -22q-9 0 -16.5 2t-16.5 8t-13 9t-15 12.5t-12 10.5q-32 27 -147 95q-31 19 -64 52.5t-33 60.5q0 34 30 61t66 41t66 37t30 50q0 30 -21 30t-72 -11.5t-68 -20.5q-20 -11 -28 -25t-13 -39q-14 -70 -14 -238q0 -85 -34 -85q-41 0 -41 36q0 3 0.5 9
t0.5 8q8 58 8 154q0 86 -8 128q-4 24 -4 35q0 8 0.5 14t3.5 10t4 6t7 3t7 1h9.5h10.5q5 0 8.5 1.5t5.5 3t5 5.5t5 6q35 36 75 47t103 11q112 0 112 -75q0 -49 -28.5 -85.5t-62 -52t-62 -31t-28.5 -28.5q0 -15 43 -43t94.5 -55.5t94.5 -65.5t43 -70zM282 628q0 -8 -17 -25.5
t-39.5 -37t-28.5 -26.5q-9 -9 -27 -34t-32 -37.5t-30 -12.5q-17 0 -30.5 9t-13.5 25q0 6 5 14t15 18.5t17 17t20.5 18t15.5 12.5l49 45l13.5 14t16 16t15.5 10.5t19 5.5q32 0 32 -32z" />
    <glyph glyph-name="racute" unicode="&#x155;" horiz-adv-x="293" 
d="M273 227q0 -4 -20 -16.5l-42.5 -26t-26.5 -19.5q-8 -11 -13 -22t-8 -18.5t-4 -20.5l-1.5 -19.5t0 -23t0.5 -23.5q0 -51 -41 -51q-19 0 -29 15.5t-10 35.5q0 11 5 32.5t5 33.5q0 31 -8.5 50t-18 25t-18 17t-8.5 27q0 25 28 25q8 0 13.5 -1.5t7 -3t7 -8.5l8.5 -11
q1 -2 3.5 -6.5t4 -8.5t5 -7t6.5 -3q9 0 48.5 35t64.5 35q12 0 27 -14t15 -28zM290 478q0 -8 -17 -25.5t-39.5 -37t-28.5 -26.5q-9 -9 -27 -34t-32 -37.5t-30 -12.5q-17 0 -30.5 9t-13.5 25q0 6 5 14t15 18.5t17 17t20.5 18t15.5 12.5l49 45l13.5 14t16 16t15.5 10.5t19 5.5
q32 0 32 -32z" />
    <glyph glyph-name="uni0156" unicode="&#x156;" horiz-adv-x="478" 
d="M492 -55q0 -22 -31 -22q-9 0 -16.5 2t-16.5 8t-13 9t-15 12.5t-12 10.5q-32 27 -147 95q-31 19 -64 52.5t-33 60.5q0 34 30 61t66 41t66 37t30 50q0 30 -21 30t-72 -11.5t-68 -20.5q-20 -11 -28 -25t-13 -39q-14 -70 -14 -238q0 -85 -34 -85q-41 0 -41 36q0 3 0.5 9
t0.5 8q8 58 8 154q0 86 -8 128q-4 24 -4 35q0 8 0.5 14t3.5 10t4 6t7 3t7 1h9.5h10.5q5 0 8.5 1.5t5.5 3t5 5.5t5 6q35 36 75 47t103 11q112 0 112 -75q0 -49 -28.5 -85.5t-62 -52t-62 -31t-28.5 -28.5q0 -15 43 -43t94.5 -55.5t94.5 -65.5t43 -70zM308 -123
q0 -35 -22.5 -56t-65.5 -36q-31 -11 -65 -11q-14 0 -24 7.5t-10 19.5q0 4 1.5 7t5.5 5t7.5 4t10.5 3.5t10.5 2t11.5 2t10 1.5q21 5 31.5 8t20 11t9.5 20q0 21 -15 30t-30.5 13t-15.5 12q-1 14 7 21t22 7q46 0 73.5 -23.5t27.5 -47.5z" />
    <glyph glyph-name="uni0157" unicode="&#x157;" horiz-adv-x="293" 
d="M273 227q0 -4 -20 -16.5l-42.5 -26t-26.5 -19.5q-8 -11 -13 -22t-8 -18.5t-4 -20.5l-1.5 -19.5t0 -23t0.5 -23.5q0 -51 -41 -51q-19 0 -29 15.5t-10 35.5q0 11 5 32.5t5 33.5q0 31 -8.5 50t-18 25t-18 17t-8.5 27q0 25 28 25q8 0 13.5 -1.5t7 -3t7 -8.5l8.5 -11
q1 -2 3.5 -6.5t4 -8.5t5 -7t6.5 -3q9 0 48.5 35t64.5 35q12 0 27 -14t15 -28zM240 -161q0 -35 -22.5 -56t-65.5 -36q-31 -11 -65 -11q-14 0 -24 7.5t-10 19.5q0 4 1.5 7t5.5 5t7.5 4t10.5 3.5t10.5 2t11.5 2t10 1.5q21 5 31.5 8t20 11t9.5 20q0 21 -15 30t-30.5 13t-15.5 12
q-1 14 7 21t22 7q46 0 73.5 -23.5t27.5 -47.5z" />
    <glyph glyph-name="Rcaron" unicode="&#x158;" horiz-adv-x="478" 
d="M492 -55q0 -22 -31 -22q-9 0 -16.5 2t-16.5 8t-13 9t-15 12.5t-12 10.5q-32 27 -147 95q-31 19 -64 52.5t-33 60.5q0 34 30 61t66 41t66 37t30 50q0 30 -21 30t-72 -11.5t-68 -20.5q-20 -11 -28 -25t-13 -39q-14 -70 -14 -238q0 -85 -34 -85q-41 0 -41 36q0 3 0.5 9
t0.5 8q8 58 8 154q0 86 -8 128q-4 24 -4 35q0 8 0.5 14t3.5 10t4 6t7 3t7 1h9.5h10.5q5 0 8.5 1.5t5.5 3t5 5.5t5 6q35 36 75 47t103 11q112 0 112 -75q0 -49 -28.5 -85.5t-62 -52t-62 -31t-28.5 -28.5q0 -15 43 -43t94.5 -55.5t94.5 -65.5t43 -70zM147 636q-1 3 -1 9
q0 13 11 22t29 9q30 0 42.5 -30.5t13.5 -66.5l1 -3l-1 -1q5 1 38 41.5t40 52.5q11 18 37 18q11 0 20 -6.5t9 -17.5t-15 -26q-38 -33 -102 -110q-4 -5 -11.5 -15.5t-12.5 -16t-14 -10.5t-21 -5q-16 0 -20.5 10.5t-6 37t-6.5 44.5q-4 16 -16.5 39t-13.5 25z" />
    <glyph glyph-name="rcaron" unicode="&#x159;" horiz-adv-x="293" 
d="M273 227q0 -4 -20 -16.5l-42.5 -26t-26.5 -19.5q-8 -11 -13 -22t-8 -18.5t-4 -20.5l-1.5 -19.5t0 -23t0.5 -23.5q0 -51 -41 -51q-19 0 -29 15.5t-10 35.5q0 11 5 32.5t5 33.5q0 31 -8.5 50t-18 25t-18 17t-8.5 27q0 25 28 25q8 0 13.5 -1.5t7 -3t7 -8.5l8.5 -11
q1 -2 3.5 -6.5t4 -8.5t5 -7t6.5 -3q9 0 48.5 35t64.5 35q12 0 27 -14t15 -28zM65 468q-1 3 -1 9q0 13 11 22t29 9q30 0 42.5 -30.5t13.5 -66.5l1 -3l-1 -1q5 1 38 41.5t40 52.5q11 18 37 18q11 0 20 -6.5t9 -17.5t-15 -26q-38 -33 -102 -110q-4 -5 -11.5 -15.5t-12.5 -16
t-14 -10.5t-21 -5q-16 0 -20.5 10.5t-6 37t-6.5 44.5q-4 16 -16.5 39t-13.5 25z" />
    <glyph glyph-name="Sacute" unicode="&#x15a;" horiz-adv-x="452" 
d="M424 128q0 -31 -24 -59.5t-55 -43.5q-26 -13 -76 -29.5t-71 -16.5q-25 0 -52.5 24.5t-27.5 48.5q0 13 11.5 21.5t24.5 8.5q9 0 33 -12t38 -12q22 0 73.5 24.5t51.5 41.5q0 15 -32.5 28.5t-79 24.5t-92.5 25t-78.5 37.5t-32.5 54.5q0 38 40 67t86 41.5t82 12.5
q33 0 71 -25t38 -56q0 -21 -19 -45t-40 -24q-17 0 -17 15q0 6 3.5 19t3.5 20q0 33 -44 33q-29 0 -77 -16.5t-48 -39.5q0 -12 32 -24t77.5 -24t91 -26.5t77.5 -38.5t32 -55zM329 600q0 -8 -17 -25.5t-39.5 -37t-28.5 -26.5q-9 -9 -27 -34t-32 -37.5t-30 -12.5q-17 0 -30.5 9
t-13.5 25q0 6 5 14t15 18.5t17 17t20.5 18t15.5 12.5l49 45l13.5 14t16 16t15.5 10.5t19 5.5q32 0 32 -32z" />
    <glyph glyph-name="sacute" unicode="&#x15b;" horiz-adv-x="363" 
d="M312 240q0 -25 -12.5 -42.5t-28 -23.5t-28 -12t-12.5 -12q0 -4 14.5 -12t29.5 -23t15 -36q0 -37 -55 -80t-94 -43q-27 0 -58 20.5t-31 46.5q0 24 30 24q12 0 35 -7t34 -7q9 0 33.5 10.5t24.5 17.5t-16.5 13t-37.5 11t-26 8q-22 13 -41.5 39.5t-19.5 49.5q0 34 56.5 66.5
t94.5 32.5q93 0 93 -41zM358 499q0 -8 -17 -25.5t-39.5 -37t-28.5 -26.5q-9 -9 -27 -34t-32 -37.5t-30 -12.5q-17 0 -30.5 9t-13.5 25q0 6 5 14t15 18.5t17 17t20.5 18t15.5 12.5l49 45l13.5 14t16 16t15.5 10.5t19 5.5q32 0 32 -32z" />
    <glyph glyph-name="Scircumflex" unicode="&#x15c;" horiz-adv-x="452" 
d="M424 128q0 -31 -24 -59.5t-55 -43.5q-26 -13 -76 -29.5t-71 -16.5q-25 0 -52.5 24.5t-27.5 48.5q0 13 11.5 21.5t24.5 8.5q9 0 33 -12t38 -12q22 0 73.5 24.5t51.5 41.5q0 15 -32.5 28.5t-79 24.5t-92.5 25t-78.5 37.5t-32.5 54.5q0 38 40 67t86 41.5t82 12.5
q33 0 71 -25t38 -56q0 -21 -19 -45t-40 -24q-17 0 -17 15q0 6 3.5 19t3.5 20q0 33 -44 33q-29 0 -77 -16.5t-48 -39.5q0 -12 32 -24t77.5 -24t91 -26.5t77.5 -38.5t32 -55zM349 476q1 -3 1 -9q0 -13 -11 -22t-29 -9q-30 0 -42.5 30.5t-13.5 66.5l-1 3l1 1q-5 -1 -38 -41.5
t-40 -52.5q-11 -18 -37 -18q-11 0 -20 6.5t-9 17.5t15 26q38 33 102 110q4 5 11.5 15.5t12.5 16t14 10.5t21 5q16 0 20.5 -10.5t6 -37t6.5 -44.5q4 -16 16.5 -39t13.5 -25z" />
    <glyph glyph-name="scircumflex" unicode="&#x15d;" horiz-adv-x="363" 
d="M312 240q0 -25 -12.5 -42.5t-28 -23.5t-28 -12t-12.5 -12q0 -4 14.5 -12t29.5 -23t15 -36q0 -37 -55 -80t-94 -43q-27 0 -58 20.5t-31 46.5q0 24 30 24q12 0 35 -7t34 -7q9 0 33.5 10.5t24.5 17.5t-16.5 13t-37.5 11t-26 8q-22 13 -41.5 39.5t-19.5 49.5q0 34 56.5 66.5
t94.5 32.5q93 0 93 -41zM335 360q1 -3 1 -9q0 -13 -11 -22t-29 -9q-30 0 -42.5 30.5t-13.5 66.5l-1 3l1 1q-5 -1 -38 -41.5t-40 -52.5q-11 -18 -37 -18q-11 0 -20 6.5t-9 17.5t15 26q38 33 102 110q4 5 11.5 15.5t12.5 16t14 10.5t21 5q16 0 20.5 -10.5t6 -37t6.5 -44.5
q4 -16 16.5 -39t13.5 -25z" />
    <glyph glyph-name="uni015E" unicode="&#x15e;" horiz-adv-x="452" 
d="M424 128q0 -31 -24 -59.5t-55 -43.5q-24 -12 -78 -30l-3 -6q-3 -3 -15.5 -29.5t-12.5 -34.5q4 -3 12 -2.5t27 3.5t29 3q44 0 89 -26t45 -72q0 -62 -44 -96.5t-108 -34.5q-31 0 -61.5 18t-30.5 48q0 11 9.5 23t20.5 12q13 0 31.5 -16.5t36.5 -16.5q69 0 69 50
q0 17 -19 30.5t-47 13.5q-7 0 -20 -0.5t-19 -0.5q-14 0 -38.5 -9t-38.5 -9q-46 0 -46 34q0 8 53 104q-25 5 -46.5 27.5t-21.5 43.5q0 13 11.5 21.5t24.5 8.5q9 0 33 -12t38 -12q22 0 73.5 24.5t51.5 41.5q0 15 -32.5 28.5t-79 24.5t-92.5 25t-78.5 37.5t-32.5 54.5
q0 38 40 67t86 41.5t82 12.5q33 0 71 -25t38 -56q0 -21 -19 -45t-40 -24q-17 0 -17 15q0 6 3.5 19t3.5 20q0 33 -44 33q-29 0 -77 -16.5t-48 -39.5q0 -12 32 -24t77.5 -24t91 -26.5t77.5 -38.5t32 -55z" />
    <glyph glyph-name="uni015F" unicode="&#x15f;" horiz-adv-x="363" 
d="M312 240q0 -25 -12.5 -42.5t-28 -23.5t-28 -12t-12.5 -12q0 -4 14.5 -12t29.5 -23t15 -36q0 -24 -26 -53t-61 -48q-3 -10 -10 -18q-3 -2 -18.5 -25t-16.5 -30q3 -3 11 -2.5t26 3t27 2.5q24 0 50 -8t45.5 -28.5t14.5 -47.5q-9 -54 -54 -83.5t-105 -29.5q-29 0 -54.5 15.5
t-21.5 41.5q2 10 12 20t20 10q12 0 27.5 -14t32.5 -14q64 0 70 43q2 15 -13.5 26.5t-41.5 11.5q-6 0 -18 -0.5t-18 -0.5q-13 0 -37 -8t-37 -8q-43 0 -38 30q0 3 67 95q-27 7 -49 25t-22 39q0 24 30 24q12 0 35 -7t34 -7q9 0 33.5 10.5t24.5 17.5t-16.5 13t-37.5 11t-26 8
q-22 13 -41.5 39.5t-19.5 49.5q0 34 56.5 66.5t94.5 32.5q93 0 93 -41z" />
    <glyph glyph-name="Scaron" unicode="&#x160;" horiz-adv-x="452" 
d="M424 128q0 -31 -24 -59.5t-55 -43.5q-26 -13 -76 -29.5t-71 -16.5q-25 0 -52.5 24.5t-27.5 48.5q0 13 11.5 21.5t24.5 8.5q9 0 33 -12t38 -12q22 0 73.5 24.5t51.5 41.5q0 15 -32.5 28.5t-79 24.5t-92.5 25t-78.5 37.5t-32.5 54.5q0 38 40 67t86 41.5t82 12.5
q33 0 71 -25t38 -56q0 -21 -19 -45t-40 -24q-17 0 -17 15q0 6 3.5 19t3.5 20q0 33 -44 33q-29 0 -77 -16.5t-48 -39.5q0 -12 32 -24t77.5 -24t91 -26.5t77.5 -38.5t32 -55zM164 587q-1 3 -1 9q0 13 11 22t29 9q30 0 42.5 -30.5t13.5 -66.5l1 -3l-1 -1q5 1 38 41.5t40 52.5
q11 18 37 18q11 0 20 -6.5t9 -17.5t-15 -26q-38 -33 -102 -110q-4 -5 -11.5 -15.5t-12.5 -16t-14 -10.5t-21 -5q-16 0 -20.5 10.5t-6 37t-6.5 44.5q-4 16 -16.5 39t-13.5 25z" />
    <glyph glyph-name="scaron" unicode="&#x161;" horiz-adv-x="363" 
d="M312 240q0 -25 -12.5 -42.5t-28 -23.5t-28 -12t-12.5 -12q0 -4 14.5 -12t29.5 -23t15 -36q0 -37 -55 -80t-94 -43q-27 0 -58 20.5t-31 46.5q0 24 30 24q12 0 35 -7t34 -7q9 0 33.5 10.5t24.5 17.5t-16.5 13t-37.5 11t-26 8q-22 13 -41.5 39.5t-19.5 49.5q0 34 56.5 66.5
t94.5 32.5q93 0 93 -41zM135 480q-1 3 -1 9q0 13 11 22t29 9q30 0 42.5 -30.5t13.5 -66.5l1 -3l-1 -1q5 1 38 41.5t40 52.5q11 18 37 18q11 0 20 -6.5t9 -17.5t-15 -26q-38 -33 -102 -110q-4 -5 -11.5 -15.5t-12.5 -16t-14 -10.5t-21 -5q-16 0 -20.5 10.5t-6 37t-6.5 44.5
q-4 16 -16.5 39t-13.5 25z" />
    <glyph glyph-name="Tcommaaccent" unicode="&#x162;" horiz-adv-x="614" 
d="M592 391q0 -23 -51 -23q-25 -1 -71 -4.5t-84 -5.5t-71 -2q-26 0 -26 -15q0 -5 2 -13q64 -266 64 -341q0 -46 -26 -46q-28 0 -39.5 17t-14.5 49q-23 236 -51 301q-15 32 -23 38q-9 6 -31 8l-24 1q-25 1 -41 3t-38 6t-34 12t-12 20q0 8 18.5 24.5t27.5 16.5q8 0 25 -5
t20 -6q21 -5 48 -7q17 -1 50 -1q169 0 238 17q37 10 69 10q42 0 58 -20q17 -22 17 -34zM400 -161q0 -35 -22.5 -56t-65.5 -36q-31 -11 -65 -11q-14 0 -24 7.5t-10 19.5q0 4 1.5 7t5.5 5t7.5 4t10.5 3.5t10.5 2t11.5 2t10 1.5q21 5 31.5 8t20 11t9.5 20q0 21 -15 30t-30.5 13
t-15.5 12q-1 14 7 21t22 7q46 0 73.5 -23.5t27.5 -47.5z" />
    <glyph glyph-name="tcommaaccent" unicode="&#x163;" horiz-adv-x="498" 
d="M482 200q0 -24 -31 -34t-68.5 -9.5t-68.5 -9.5t-31 -34q0 -26 17 -43t43 -17q13 0 38 9t38 9q39 0 39 -34q0 -18 -45.5 -37.5t-67.5 -19.5q-66 0 -99 36q-12 13 -20 40t-15 46.5t-19 19.5q-16 0 -71 -6t-65 -9q-6 -2 -10 -2q-12 0 -22 12.5t-10 25.5q0 22 32.5 29t71 5
t71.5 9t34 41q0 4 -0.5 11.5t-0.5 10.5q0 22 7.5 44t24.5 22q15 0 30 -12.5t15 -27.5q0 -7 -8 -23.5t-8 -24.5q0 -19 39 -19q19 0 59 3t60 3q41 0 41 -14zM342 -161q0 -35 -22.5 -56t-65.5 -36q-31 -11 -65 -11q-14 0 -24 7.5t-10 19.5q0 4 1.5 7t5.5 5t7.5 4t10.5 3.5
t10.5 2t11.5 2t10 1.5q21 5 31.5 8t20 11t9.5 20q0 21 -15 30t-30.5 13t-15.5 12q-1 14 7 21t22 7q46 0 73.5 -23.5t27.5 -47.5z" />
    <glyph glyph-name="Tcaron" unicode="&#x164;" horiz-adv-x="614" 
d="M592 391q0 -23 -51 -23q-25 -1 -71 -4.5t-84 -5.5t-71 -2q-26 0 -26 -15q0 -5 2 -13q64 -266 64 -341q0 -46 -26 -46q-28 0 -39.5 17t-14.5 49q-23 236 -51 301q-15 32 -23 38q-9 6 -31 8l-24 1q-25 1 -41 3t-38 6t-34 12t-12 20q0 8 18.5 24.5t27.5 16.5q8 0 25 -5
t20 -6q21 -5 48 -7q17 -1 50 -1q169 0 238 17q37 10 69 10q42 0 58 -20q17 -22 17 -34zM208 618q-1 3 -1 9q0 13 11 22t29 9q30 0 42.5 -30.5t13.5 -66.5l1 -3l-1 -1q5 1 38 41.5t40 52.5q11 18 37 18q11 0 20 -6.5t9 -17.5t-15 -26q-38 -33 -102 -110q-4 -5 -11.5 -15.5
t-12.5 -16t-14 -10.5t-21 -5q-16 0 -20.5 10.5t-6 37t-6.5 44.5q-4 16 -16.5 39t-13.5 25z" />
    <glyph glyph-name="tcaron" unicode="&#x165;" horiz-adv-x="500" 
d="M482 200q0 -24 -31 -34t-68.5 -9.5t-68.5 -9.5t-31 -34q0 -26 17 -43t43 -17q13 0 38 9t38 9q39 0 39 -34q0 -18 -45.5 -37.5t-67.5 -19.5q-66 0 -99 36q-12 13 -20 40t-15 46.5t-19 19.5q-16 0 -71 -6t-65 -9q-6 -2 -10 -2q-12 0 -22 12.5t-10 25.5q0 22 32.5 29t71 5
t71.5 9t34 41q0 4 -0.5 11.5t-0.5 10.5q0 22 7.5 44t24.5 22q15 0 30 -12.5t15 -27.5q0 -7 -8 -23.5t-8 -24.5q0 -19 39 -19q19 0 59 3t60 3q41 0 41 -14zM485 498q0 -43 -34 -139t-67 -96q-12 0 -21.5 11.5t-9.5 24.5q0 11 5 21q15 33 32.5 96t17.5 91q0 15 10.5 26.5
t25.5 11.5q19 0 30 -13.5t11 -33.5z" />
    <glyph glyph-name="Tbar" unicode="&#x166;" horiz-adv-x="614" 
d="M423 168q0 -19 -19 -36.5t-38 -17.5t-28 -1q17 -87 17 -126q0 -46 -26 -46q-28 0 -39.5 17t-14.5 49q-5 52 -12 100q-31 -3 -62 -3q-18 0 -36.5 14t-18.5 32q0 11 2.5 17t10.5 8.5t12 2.5h18q31 0 63 6q-16 93 -28 124q-15 32 -23 38q-9 6 -31 8l-24 1q-25 1 -41 3t-38 6
t-34 12t-12 20q0 8 18.5 24.5t27.5 16.5q8 0 25 -5t20 -6q21 -5 48 -7q17 -1 50 -1q169 0 238 17q37 10 69 10q42 0 58 -20q17 -22 17 -34q0 -23 -51 -23q-25 -1 -71 -4.5t-84 -5.5t-71 -2q-26 0 -26 -15q0 -5 2 -13q1 -4 12 -52.5l18 -78.5q4 0 12 1t14.5 1.5t12.5 0.5
q63 0 63 -32z" />
    <glyph glyph-name="tbar" unicode="&#x167;" horiz-adv-x="498" 
d="M404 54q0 -15 -21 -29t-42 -14q-22 0 -33 -1q22 -49 42 -49q14 0 38 9t38 9q39 0 39 -34q0 -18 -45.5 -37.5t-67.5 -19.5q-66 0 -99 36q-15 15 -26 81q-44 -2 -66 -2q-20 0 -40 11.5t-20 25.5q0 11 6 16t12.5 5.5t22.5 0.5h6q30 0 68 5q-11 55 -24 55q-16 0 -71 -6
t-65 -9q-6 -2 -10 -2q-12 0 -22 12.5t-10 25.5q0 22 32.5 29t71 5t71.5 9t34 41q0 4 -0.5 11.5t-0.5 10.5q0 22 7.5 44t24.5 22q15 0 30 -12.5t15 -27.5q0 -7 -8 -23.5t-8 -24.5q0 -19 39 -19q19 0 59 3t60 3q41 0 41 -14q0 -24 -31 -34t-68.5 -9.5t-68.5 -9.5t-31 -34
q0 -13 5 -36q45 3 47 3q69 0 69 -26z" />
    <glyph glyph-name="Utilde" unicode="&#x168;" horiz-adv-x="496" 
d="M446 268q0 -52 -19 -121t-49 -99q-57 -58 -184 -58q-42 0 -72 19t-45 52t-21.5 67.5t-6.5 74.5q0 172 50 172q35 0 35 -29q0 -6 -2 -16q-12 -65 -12 -145q0 -52 19 -90.5t65 -38.5q84 0 129 53t45 139q0 29 -13.5 60t-13.5 45q0 19 9 34.5t26 15.5q8 0 20 -12
q40 -41 40 -123zM378 538q0 -19 -2.5 -27t-12.5 -14.5t-15 -11.5l-12 -12t-14.5 -13.5t-14.5 -8.5t-23.5 -10.5t-28 -11.5t-24.5 -4q-15 0 -27.5 14t-12.5 35q0 6 3 16t3 12q-7 -4 -21.5 -18l-17.5 -17q-40 -42 -55 -42q-26 0 -26 34q0 30 66 77q4 3 17 14.5l22 19t21 14
t20 6.5q15 0 22.5 -17.5t7.5 -35.5q0 -7 -3 -19t-3 -18v-1q17 0 41.5 15.5t32.5 32.5q1 1 2.5 5t2 5.5t2.5 5t3 5t2.5 4.5t3.5 4t4 2.5t4 2t5 0.5q13 0 20.5 -13.5t7.5 -29.5z" />
    <glyph glyph-name="utilde" unicode="&#x169;" 
d="M585 26q0 -18 -59.5 -25t-101.5 -7q-28 0 -46 11t-24.5 23.5t-13.5 23.5t-15 11t-26.5 -17.5t-52.5 -35.5t-80 -18q-103 0 -103 76q0 117 -12 138q-5 10 -5 18q0 28 33 28q28 0 38 -29.5t7.5 -65.5t5.5 -65.5t32 -29.5q58 0 97.5 35.5t39.5 92.5q0 6 -2 18t-2 18
q0 10 7 17t17 7q22 0 34.5 -39t28 -82.5t42.5 -51.5q13 -3 63.5 -3.5t61.5 -7.5q36 -23 36 -40zM358 419q0 -19 -2.5 -27t-12.5 -14.5t-15 -11.5l-12 -12t-14.5 -13.5t-14.5 -8.5t-23.5 -10.5t-28 -11.5t-24.5 -4q-15 0 -27.5 14t-12.5 35q0 6 3 16t3 12q-7 -4 -21.5 -18
l-17.5 -17q-40 -42 -55 -42q-26 0 -26 34q0 30 66 77q4 3 17 14.5l22 19t21 14t20 6.5q15 0 22.5 -17.5t7.5 -35.5q0 -7 -3 -19t-3 -18v-1q17 0 41.5 15.5t32.5 32.5q1 1 2.5 5t2 5.5t2.5 5t3 5t2.5 4.5t3.5 4t4 2.5t4 2t5 0.5q13 0 20.5 -13.5t7.5 -29.5z" />
    <glyph glyph-name="Umacron" unicode="&#x16a;" horiz-adv-x="496" 
d="M446 268q0 -52 -19 -121t-49 -99q-57 -58 -184 -58q-42 0 -72 19t-45 52t-21.5 67.5t-6.5 74.5q0 172 50 172q35 0 35 -29q0 -6 -2 -16q-12 -65 -12 -145q0 -52 19 -90.5t65 -38.5q84 0 129 53t45 139q0 29 -13.5 60t-13.5 45q0 19 9 34.5t26 15.5q8 0 20 -12
q40 -41 40 -123zM366 498q0 -19 -19 -36.5t-38 -17.5q-27 0 -82 -5t-83 -5q-18 0 -36.5 14t-18.5 32q0 11 2.5 17t10.5 8.5t12 2.5h18q28 0 85 11t86 11q63 0 63 -32z" />
    <glyph glyph-name="umacron" unicode="&#x16b;" 
d="M585 26q0 -18 -59.5 -25t-101.5 -7q-28 0 -46 11t-24.5 23.5t-13.5 23.5t-15 11t-26.5 -17.5t-52.5 -35.5t-80 -18q-103 0 -103 76q0 117 -12 138q-5 10 -5 18q0 28 33 28q28 0 38 -29.5t7.5 -65.5t5.5 -65.5t32 -29.5q58 0 97.5 35.5t39.5 92.5q0 6 -2 18t-2 18
q0 10 7 17t17 7q22 0 34.5 -39t28 -82.5t42.5 -51.5q13 -3 63.5 -3.5t61.5 -7.5q36 -23 36 -40zM332 368q0 -19 -19 -36.5t-38 -17.5q-27 0 -82 -5t-83 -5q-18 0 -36.5 14t-18.5 32q0 11 2.5 17t10.5 8.5t12 2.5h18q29 0 86 11t85 11q63 0 63 -32z" />
    <glyph glyph-name="Ubreve" unicode="&#x16c;" horiz-adv-x="496" 
d="M446 268q0 -52 -19 -121t-49 -99q-57 -58 -184 -58q-42 0 -72 19t-45 52t-21.5 67.5t-6.5 74.5q0 172 50 172q35 0 35 -29q0 -6 -2 -16q-12 -65 -12 -145q0 -52 19 -90.5t65 -38.5q84 0 129 53t45 139q0 29 -13.5 60t-13.5 45q0 19 9 34.5t26 15.5q8 0 20 -12
q40 -41 40 -123zM394 531q-2 -13 -24.5 -35.5t-39.5 -34.5q-24 -16 -62 -27.5t-65 -8.5q-51 7 -95 40q-32 24 -27 58q1 4 3 13t3 14q2 13 16.5 23.5t29.5 5t17 -30.5q0 -9 1 -14q7 -25 56 -32q63 -8 118 58q23 26 47.5 12.5t21.5 -41.5z" />
    <glyph glyph-name="ubreve" unicode="&#x16d;" 
d="M585 26q0 -18 -59.5 -25t-101.5 -7q-28 0 -46 11t-24.5 23.5t-13.5 23.5t-15 11t-26.5 -17.5t-52.5 -35.5t-80 -18q-103 0 -103 76q0 117 -12 138q-5 10 -5 18q0 28 33 28q28 0 38 -29.5t7.5 -65.5t5.5 -65.5t32 -29.5q58 0 97.5 35.5t39.5 92.5q0 6 -2 18t-2 18
q0 10 7 17t17 7q22 0 34.5 -39t28 -82.5t42.5 -51.5q13 -3 63.5 -3.5t61.5 -7.5q36 -23 36 -40zM371 407q-2 -13 -24.5 -35.5t-39.5 -34.5q-24 -16 -62 -27.5t-65 -8.5q-51 7 -95 40q-32 24 -27 58q1 4 3.5 13t2.5 14q2 13 16.5 23.5t29.5 5t17 -30.5q0 -9 1 -14
q7 -25 56 -32q63 -8 118 58q23 26 47.5 12.5t21.5 -41.5z" />
    <glyph glyph-name="Uring" unicode="&#x16e;" horiz-adv-x="496" 
d="M446 268q0 -52 -19 -121t-49 -99q-57 -58 -184 -58q-42 0 -72 19t-45 52t-21.5 67.5t-6.5 74.5q0 172 50 172q35 0 35 -29q0 -6 -2 -16q-12 -65 -12 -145q0 -52 19 -90.5t65 -38.5q84 0 129 53t45 139q0 29 -13.5 60t-13.5 45q0 19 9 34.5t26 15.5q8 0 20 -12
q40 -41 40 -123zM336 531q0 -44 -34 -76.5t-91 -32.5q-34 0 -63.5 19t-29.5 43q0 31 44 61t89 30q5 0 12 -2t9 -2q3 0 10.5 1.5t11.5 1.5q42 0 42 -43zM246 508q0 9 -17 9q-14 0 -21.5 -6.5t-7.5 -16.5v-7q0 -15 23 -15q19 0 19 6q0 1 -1 4.5t-1 5.5q0 6 3 11t3 9z" />
    <glyph glyph-name="uring" unicode="&#x16f;" 
d="M585 26q0 -18 -59.5 -25t-101.5 -7q-28 0 -46 11t-24.5 23.5t-13.5 23.5t-15 11t-26.5 -17.5t-52.5 -35.5t-80 -18q-103 0 -103 76q0 117 -12 138q-5 10 -5 18q0 28 33 28q28 0 38 -29.5t7.5 -65.5t5.5 -65.5t32 -29.5q58 0 97.5 35.5t39.5 92.5q0 6 -2 18t-2 18
q0 10 7 17t17 7q22 0 34.5 -39t28 -82.5t42.5 -51.5q13 -3 63.5 -3.5t61.5 -7.5q36 -23 36 -40zM300 409q0 -44 -34 -76.5t-91 -32.5q-34 0 -63.5 19t-29.5 43q0 31 44 61t89 30q5 0 11.5 -2t9.5 -2t10.5 1.5t11.5 1.5q42 0 42 -43zM210 386q0 9 -17 9q-14 0 -21.5 -6.5
t-7.5 -16.5v-7q0 -15 23 -15q19 0 19 6q0 1 -1 4.5t-1 5.5q0 6 3 11t3 9z" />
    <glyph glyph-name="Uhungarumlaut" unicode="&#x170;" horiz-adv-x="496" 
d="M446 268q0 -52 -19 -121t-49 -99q-57 -58 -184 -58q-42 0 -72 19t-45 52t-21.5 67.5t-6.5 74.5q0 172 50 172q35 0 35 -29q0 -6 -2 -16q-12 -65 -12 -145q0 -52 19 -90.5t65 -38.5q84 0 129 53t45 139q0 29 -13.5 60t-13.5 45q0 19 9 34.5t26 15.5q8 0 20 -12
q40 -41 40 -123zM365 519q-2 -5 -6 -16l-7 -19t-8.5 -20t-10.5 -18t-12.5 -13.5t-15 -7t-18.5 2.5q-13 5 -16.5 21t1.5 28q8 19 14 28t14 27q15 40 15 54q0 31 6 45q10 24 36 13q9 -4 15.5 -9t10 -12t5.5 -13t1 -15.5t-2 -15.5t-4.5 -16.5t-5.5 -15.5t-6.5 -15t-5.5 -13z
M266 579q-6 -16 -37 -71t-41 -67q-20 -23 -49 -12q-14 6 -17 31t4 36q2 6 30.5 42t38.5 60q2 4 4.5 14t4.5 14q10 26 33 16q17 -7 26.5 -27t2.5 -36z" />
    <glyph glyph-name="uhungarumlaut" unicode="&#x171;" 
d="M585 26q0 -18 -59.5 -25t-101.5 -7q-28 0 -46 11t-24.5 23.5t-13.5 23.5t-15 11t-26.5 -17.5t-52.5 -35.5t-80 -18q-103 0 -103 76q0 117 -12 138q-5 10 -5 18q0 28 33 28q28 0 38 -29.5t7.5 -65.5t5.5 -65.5t32 -29.5q58 0 97.5 35.5t39.5 92.5q0 6 -2 18t-2 18
q0 10 7 17t17 7q22 0 34.5 -39t28 -82.5t42.5 -51.5q13 -3 63.5 -3.5t61.5 -7.5q36 -23 36 -40zM317 399q-2 -5 -6 -16l-7 -19t-8.5 -20t-10.5 -18t-12.5 -13.5t-15 -7t-18.5 2.5q-13 5 -16.5 21t1.5 28q7 19 14 27.5t14 27.5q15 40 15 54q0 31 6 45q10 24 36 13
q9 -4 15.5 -9t10 -12t5.5 -13t1 -15.5t-2 -15.5t-4.5 -16.5t-5.5 -15.5t-6.5 -15t-5.5 -13zM218 459q-6 -16 -37 -71t-41 -67q-20 -23 -49 -12q-14 6 -17 31t4 36q2 6 30.5 42t38.5 60q2 4 4.5 13.5t4.5 14.5q10 26 33 16q17 -7 26.5 -27t2.5 -36z" />
    <glyph glyph-name="Uogonek" unicode="&#x172;" horiz-adv-x="496" 
d="M519 -126q-69 -63 -141 -63q-95 0 -95 153q0 22 1 36q-43 -10 -90 -10q-42 0 -72 19t-45 52t-21.5 67.5t-6.5 74.5q0 172 50 172q35 0 35 -29q0 -6 -2 -16q-12 -65 -12 -145q0 -52 19 -90.5t65 -38.5q84 0 129 53t45 139q0 29 -13.5 60t-13.5 45q0 19 9 34.5t26 15.5
q8 0 20 -12q40 -41 40 -123q0 -52 -19 -121t-49 -99q-5 -5 -15 -13q0 -1 0.5 -3.5t0.5 -4.5q0 -12 -4.5 -37.5t-4.5 -38.5q0 -22 7 -44t25 -22q17 0 45 19q78 54 102 29q17 -16 -4 -46q-5 -7 -11 -13z" />
    <glyph glyph-name="uogonek" unicode="&#x173;" 
d="M509 -141q-43 -19 -79 -19q-48 0 -70 22t-22 57q0 47 33 90q-11 8 -19.5 22l-14 23t-12.5 9q-8 0 -26.5 -17.5t-52.5 -35.5t-80 -18q-103 0 -103 76q0 117 -12 138q-5 10 -5 18q0 28 33 28q28 0 38 -29.5t7.5 -65.5t5.5 -65.5t32 -29.5q58 0 97.5 35.5t39.5 92.5
q0 6 -2 18t-2 18q0 10 7 17t17 7q22 0 34.5 -39t28 -82.5t42.5 -51.5q13 -3 63.5 -3.5t61.5 -7.5q36 -23 36 -40q0 -15 -45 -22.5t-94 -8.5q-3 -4 -18 -14t-22.5 -22t-7.5 -31q0 -28 25 -28q19 0 45.5 6.5t34.5 6.5q35 0 35 -21q0 -20 -29 -33z" />
    <glyph glyph-name="Wcircumflex" unicode="&#x174;" horiz-adv-x="632" 
d="M575 293q0 -38 -10 -117t-20 -110q-13 -41 -56.5 -77t-84.5 -36q-31 0 -58 33.5t-39 69.5q-1 3 -3 13t-5 20l-6 20.5t-7.5 17t-8.5 6.5t-20 -19l-35.5 -41.5t-51 -41.5t-63.5 -19q-54 0 -54 75q0 45 -2 134.5t-2 133.5q0 12 6 23t18 11q18 0 28.5 -12.5t10.5 -31.5v-20
l1 -20v-36q0 -1 -0.5 -15t-0.5 -28t0.5 -34t1.5 -36.5t2.5 -32t5 -24t8.5 -8.5q22 0 88 66q13 13 25 44t24.5 52t31.5 21q23 0 39.5 -59.5l33.5 -119t40 -59.5q90 0 89 257v7q0 17 12 33t28 16q34 0 34 -56zM424 374q1 -3 1 -9q0 -13 -11 -22t-29 -9q-30 0 -42.5 30.5
t-13.5 66.5l-1 3l1 1q-5 -1 -38 -41.5t-40 -52.5q-11 -18 -37 -18q-11 0 -20 6.5t-9 17.5t15 26q38 33 102 110q4 5 11.5 15.5t12.5 16t14 10.5t21 5q16 0 20.5 -10.5t6 -37t6.5 -44.5q4 -16 16.5 -39t13.5 -25z" />
    <glyph glyph-name="wcircumflex" unicode="&#x175;" horiz-adv-x="578" 
d="M543 173q0 -30 -8.5 -72t-21.5 -62q-31 -45 -99 -45h-6q-22 0 -34 1t-29.5 7t-27.5 18q-3 3 -12.5 17.5t-18.5 24t-17 9.5t-29 -14.5t-53 -28.5t-65 -14q-81 0 -81 165q0 63 30 63q44 0 44 -31q0 -11 -4.5 -35t-4.5 -36q0 -22 15 -37t37 -15q28 0 49 22t38 44t36 22
q16 0 30 -16.5t23.5 -37t29.5 -37t46 -16.5q22 0 39.5 19.5t17.5 41.5q0 8 -4 24.5t-4 25.5q0 32 38 32q26 0 36 -7.5t10 -31.5zM410 272q1 -3 1 -9q0 -13 -11 -22t-29 -9q-30 0 -42.5 30.5t-13.5 66.5l-1 3l1 1q-5 -1 -38 -41.5t-40 -52.5q-11 -18 -37 -18q-11 0 -20 6.5
t-9 17.5t15 26q38 33 102 110q4 5 11.5 15.5t12.5 16t14 10.5t21 5q16 0 20.5 -10.5t6 -37t6.5 -44.5q4 -16 16.5 -39t13.5 -25z" />
    <glyph glyph-name="Ycircumflex" unicode="&#x176;" horiz-adv-x="509" 
d="M494 423q0 -27 -35.5 -69t-63.5 -58q-11 -6 -70 -31t-63 -29q-12 -12 -24 -54t-12 -63q0 -26 5.5 -39t12.5 -15t12.5 -10.5t5.5 -26.5q0 -13 -15 -21.5t-29 -8.5q-24 0 -39 20t-19.5 42.5t-4.5 46.5q0 15 7.5 44.5t7.5 44.5q0 18 -11 18q-53 0 -92 35.5t-39 87.5
q0 23 3.5 45t17 43.5t35.5 21.5q12 0 25.5 -8t13.5 -20q0 -8 -16 -29.5t-16 -28.5q0 -67 88 -67q35 0 87 15.5t97.5 47.5t45.5 68q0 17 11.5 28t28.5 11q12 0 28.5 -14.5t16.5 -26.5zM361 494q1 -3 1 -9q0 -13 -11 -22t-29 -9q-30 0 -42.5 30.5t-13.5 66.5l-1 3l1 1
q-5 -1 -38 -41.5t-40 -52.5q-11 -18 -37 -18q-11 0 -20 6.5t-9 17.5t15 26q38 33 102 110q4 5 11.5 15.5t12.5 16t14 10.5t21 5q16 0 20.5 -10.5t6 -37t6.5 -44.5q4 -16 16.5 -39t13.5 -25z" />
    <glyph glyph-name="ycircumflex" unicode="&#x177;" horiz-adv-x="455" 
d="M398 -52q0 -66 -29 -97.5t-96 -31.5h-21.5t-23 1t-26 4.5l-20.5 8.5t-17 14t-5 21q0 10 4.5 18t13.5 12.5t18 7t22.5 3.5t22 1t21 -0.5t16.5 -0.5q25 0 37 8.5t12 32.5q0 23 -11 77.5t-25 54.5q-11 0 -31.5 -16t-49.5 -31.5t-60 -15.5q-95 0 -95 153q0 99 44 99
q15 0 26 -10.5t11 -25.5q0 -12 -4 -37t-4 -38q0 -66 31 -66q14 0 45 18q60 39 83 95q1 2 4 9.5l4 10t4 8t5.5 7t6.5 4.5t9 4t11 1q8 0 14.5 -2.5t10.5 -8t6 -10.5t3 -14.5t1 -14v-15v-12.5q0 -38 16 -112.5t16 -113.5zM342 360q1 -3 1 -9q0 -13 -11 -22t-29 -9
q-30 0 -42.5 30.5t-13.5 66.5l-1 3l1 1q-5 -1 -38 -41.5t-40 -52.5q-11 -18 -37 -18q-11 0 -20 6.5t-9 17.5t15 26q38 33 102 110q4 5 11.5 15.5t12.5 16t14 10.5t21 5q16 0 20.5 -10.5t6 -37t6.5 -44.5q4 -16 16.5 -39t13.5 -25z" />
    <glyph glyph-name="Ydieresis" unicode="&#x178;" horiz-adv-x="509" 
d="M494 423q0 -27 -35.5 -69t-63.5 -58q-11 -6 -70 -31t-63 -29q-12 -12 -24 -54t-12 -63q0 -26 5.5 -39t12.5 -15t12.5 -10.5t5.5 -26.5q0 -13 -15 -21.5t-29 -8.5q-24 0 -39 20t-19.5 42.5t-4.5 46.5q0 15 7.5 44.5t7.5 44.5q0 18 -11 18q-53 0 -92 35.5t-39 87.5
q0 23 3.5 45t17 43.5t35.5 21.5q12 0 25.5 -8t13.5 -20q0 -8 -16 -29.5t-16 -28.5q0 -67 88 -67q35 0 87 15.5t97.5 47.5t45.5 68q0 17 11.5 28t28.5 11q12 0 28.5 -14.5t16.5 -26.5zM372 506q0 -18 -11.5 -30.5t-29.5 -12.5q-28 0 -41 21t-13 50q0 25 10.5 44t33.5 19
q13 0 22.5 -14.5t9.5 -28.5q0 -8 9.5 -21.5t9.5 -26.5zM214 567q0 -119 -39 -119q-41 0 -41 94q0 65 43 65q18 0 27.5 -11t9.5 -29z" />
    <glyph glyph-name="Zacute" unicode="&#x179;" 
d="M569 58q0 -36 -60 -44q-19 -2 -125 -7q-126 -6 -188 -7h-32q-21 0 -33 1t-32 5t-30 15t-10 29q0 28 36 67.5t79 72t79 64.5t36 46q0 8 -14 8q-22 0 -48.5 -5t-43 -9.5t-49.5 -14.5l-43 -13q-11 -3 -20 -3q-36 0 -36 23q0 35 26 45q24 10 120.5 31t121.5 21q105 0 105 -34
q0 -23 -36.5 -67.5t-66.5 -71.5l-46 -36t-61.5 -51t-35.5 -42q59 -4 132 -4q48 0 72 3q15 1 65.5 8t77.5 7q60 0 60 -37zM340 565q0 -8 -17 -25.5t-39.5 -37t-28.5 -26.5q-9 -9 -27 -34t-32 -37.5t-30 -12.5q-17 0 -30.5 9t-13.5 25q0 6 5 14t15 18.5t17 17t20.5 18
t15.5 12.5l49 45l13.5 14t16 16t15.5 10.5t19 5.5q32 0 32 -32z" />
    <glyph glyph-name="zacute" unicode="&#x17a;" horiz-adv-x="557" 
d="M546 29q0 -23 -13.5 -30t-38.5 -7q-14 0 -41.5 9t-45.5 9q-23 0 -69 -9t-70 -9q-27 0 -59 7t-61 26t-29 46q0 23 13.5 43t30 30.5t30 21t13.5 16.5q0 4 -7 4q-25 0 -71 -16t-68 -16q-15 0 -30.5 10t-15.5 24q0 16 47 33.5t80 24.5q6 1 39 3.5l63 5t31 3.5q15 12 28 12
q45 0 45 -32q0 -24 -10.5 -38.5t-34.5 -29.5q-18 -11 -53 -41t-35 -42q0 -18 70 -18q24 0 71.5 4t71.5 4q33 0 76 -12t43 -36zM371 477q0 -8 -17 -25.5t-39.5 -37t-28.5 -26.5q-9 -9 -27 -34t-32 -37.5t-30 -12.5q-17 0 -30.5 9t-13.5 25q0 6 5 14t15 18.5t17 17t20.5 18
t15.5 12.5l49 45l13.5 14t16 16t15.5 10.5t19 5.5q32 0 32 -32z" />
    <glyph glyph-name="Zdotaccent" unicode="&#x17b;" 
d="M569 58q0 -36 -60 -44q-19 -2 -125 -7q-126 -6 -188 -7h-32q-21 0 -33 1t-32 5t-30 15t-10 29q0 28 36 67.5t79 72t79 64.5t36 46q0 8 -14 8q-22 0 -48.5 -5t-43 -9.5t-49.5 -14.5l-43 -13q-11 -3 -20 -3q-36 0 -36 23q0 35 26 45q24 10 120.5 31t121.5 21q105 0 105 -34
q0 -23 -36.5 -67.5t-66.5 -71.5l-46 -36t-61.5 -51t-35.5 -42q59 -4 132 -4q48 0 72 3q15 1 65.5 8t77.5 7q60 0 60 -37zM299 484q0 -12 -16.5 -28t-29.5 -16q-20 0 -31.5 17t-11.5 37t9.5 41t26.5 19q53 -5 53 -70z" />
    <glyph glyph-name="zdotaccent" unicode="&#x17c;" horiz-adv-x="557" 
d="M546 29q0 -23 -13.5 -30t-38.5 -7q-14 0 -41.5 9t-45.5 9q-23 0 -69 -9t-70 -9q-27 0 -59 7t-61 26t-29 46q0 23 13.5 43t30 30.5t30 21t13.5 16.5q0 4 -7 4q-25 0 -71 -16t-68 -16q-15 0 -30.5 10t-15.5 24q0 16 47 33.5t80 24.5q6 1 39 3.5l63 5t31 3.5q15 12 28 12
q45 0 45 -32q0 -24 -10.5 -38.5t-34.5 -29.5q-18 -11 -53 -41t-35 -42q0 -18 70 -18q24 0 71.5 4t71.5 4q33 0 76 -12t43 -36zM266 381q0 -12 -16.5 -28t-29.5 -16q-20 0 -31.5 17t-11.5 37t9.5 41t26.5 19q53 -5 53 -70z" />
    <glyph glyph-name="Zcaron" unicode="&#x17d;" 
d="M569 58q0 -36 -60 -44q-19 -2 -125 -7q-126 -6 -188 -7h-32q-21 0 -33 1t-32 5t-30 15t-10 29q0 28 36 67.5t79 72t79 64.5t36 46q0 8 -14 8q-22 0 -48.5 -5t-43 -9.5t-49.5 -14.5l-43 -13q-11 -3 -20 -3q-36 0 -36 23q0 35 26 45q24 10 120.5 31t121.5 21q105 0 105 -34
q0 -23 -36.5 -67.5t-66.5 -71.5l-46 -36t-61.5 -51t-35.5 -42q59 -4 132 -4q48 0 72 3q15 1 65.5 8t77.5 7q60 0 60 -37zM183 567q-1 3 -1 9q0 13 11 22t29 9q30 0 42.5 -30.5t13.5 -66.5l1 -3l-1 -1q5 1 38 41.5t40 52.5q11 18 37 18q11 0 20 -6.5t9 -17.5t-15 -26
q-38 -33 -102 -110q-4 -5 -11.5 -15.5t-12.5 -16t-14 -10.5t-21 -5q-16 0 -20.5 10.5t-6 37t-6.5 44.5q-4 16 -16.5 39t-13.5 25z" />
    <glyph glyph-name="zcaron" unicode="&#x17e;" horiz-adv-x="557" 
d="M546 29q0 -23 -13.5 -30t-38.5 -7q-14 0 -41.5 9t-45.5 9q-23 0 -69 -9t-70 -9q-27 0 -59 7t-61 26t-29 46q0 23 13.5 43t30 30.5t30 21t13.5 16.5q0 4 -7 4q-25 0 -71 -16t-68 -16q-15 0 -30.5 10t-15.5 24q0 16 47 33.5t80 24.5q6 1 39 3.5l63 5t31 3.5q15 12 28 12
q45 0 45 -32q0 -24 -10.5 -38.5t-34.5 -29.5q-18 -11 -53 -41t-35 -42q0 -18 70 -18q24 0 71.5 4t71.5 4q33 0 76 -12t43 -36zM163 482q-1 3 -1 9q0 13 11 22t29 9q30 0 42.5 -30.5t13.5 -66.5l1 -3l-1 -1q5 1 38 41.5t40 52.5q11 18 37 18q11 0 20 -6.5t9 -17.5t-15 -26
q-38 -33 -102 -110q-4 -5 -11.5 -15.5t-12.5 -16t-14 -10.5t-21 -5q-16 0 -20.5 10.5t-6 37t-6.5 44.5q-4 16 -16.5 39t-13.5 25z" />
    <glyph glyph-name="uni0192" unicode="&#x192;" horiz-adv-x="521" 
d="M526 197q0 -29 -62 -36q-121 -14 -212 -14h-6h-7.5t-7 -0.5t-7 -1.5t-5 -2.5t-4 -4.5t-1.5 -7q0 -3 19 -65q11 -17 11 -56q0 -31 -23.5 -59t-55.5 -44q-27 -13 -76 -29.5t-71 -16.5q-25 0 -52 24.5t-27 49.5q0 12 11.5 21t23.5 9q9 0 33.5 -12t38.5 -12q21 0 73 24t52 41
q0 14 2 20q-2 8 -2 10q-3 24 -18.5 53t-17.5 34q-3 8 -6.5 11.5t-7.5 4t-13 0.5h-5h-5q-78 -1 -78 36q0 19 11 27.5t25 7.5t25 1t11 11q0 12 -4.5 42t-4.5 46q0 69 42.5 131.5t108.5 62.5q37 0 58.5 -38.5t21.5 -78.5q0 -48 -20.5 -87.5t-61.5 -59.5q-16 -8 -16 -14
q0 -8 21 -12.5t35 -4.5q26 0 78.5 8.5t78.5 8.5q25 0 61 -7t36 -22zM252 379q0 43 -13 51q-6 3 -13 3q-26 0 -43 -25.5t-22.5 -53.5t-5.5 -54t16 -26q23 0 52 40.5t29 64.5z" />
    <glyph glyph-name="AEacute" unicode="&#x1fc;" horiz-adv-x="729" 
d="M733 373q0 -24 -64 -32q-10 -1 -68.5 -2.5t-90.5 -7.5q-11 -2 -52 -15.5t-61 -13.5q-16 0 -21 -22q-10 -31 -13 -79v-4q-2 -7 6 -7q1 0 3 0.5t4.5 1.5t3.5 1q27 9 97 13q20 1 61 16t62 15q13 0 27 -7.5t14 -19.5q0 -14 -20.5 -29t-36.5 -18q-15 -3 -51.5 -5.5t-55.5 -6.5
q-56 -11 -69.5 -11t-21.5 6.5t-18 6.5q-9 0 -14 -8l-2 -8v-6q0 -15 18.5 -26.5t44.5 -16.5t46.5 -7.5t33.5 -2.5q89 0 103 19q13 24 25 24q14 0 26 -25t12 -41q0 -28 -28 -35q-78 -20 -134 -20q-31 0 -85.5 17.5t-83.5 38.5q1 -3 3 -13t2.5 -15t-0.5 -14t-5 -18
q-6 -15 -25 -29.5t-34 -14.5q-9 0 -10.5 14t1 28.5t6.5 23.5q5 13 4 47t2 40q1 4 -4.5 6.5t-16 3.5t-21 1.5t-20 0.5h-11.5q-7 0 -26 2t-30 2q-40 0 -54 -22l-35 -48l-29 -39q-14 -20 -50 -20q-23 0 -11 29q10 24 102.5 116t114.5 129q8 14 38 56.5t41 68.5q20 61 41 61
q11 0 24 -13q27 -27 39 -66q14 -10 31 -10q10 0 22.5 3.5t28 9l21.5 7.5q55 14 119 14h65q2 0 10 0.5t14 0t15 -0.5t15.5 -2t12.5 -4.5t9.5 -7t3.5 -10.5zM312 310q-5 33 -16 33q-5 0 -14 -14t-18.5 -32t-11.5 -21q-6 -9 -37 -41.5t-35 -44.5q-4 -24 79 -23q25 0 37 19
q8 30 8 46q0 35 8 78zM557 631q0 -8 -17 -25.5t-39.5 -37t-28.5 -26.5q-9 -9 -27 -34t-32 -37.5t-30 -12.5q-17 0 -30.5 9t-13.5 25q0 6 5 14t15 18.5t17 17t20.5 18t15.5 12.5l49 45l13.5 14t16 16t15.5 10.5t19 5.5q32 0 32 -32z" />
    <glyph glyph-name="aeacute" unicode="&#x1fd;" horiz-adv-x="695" 
d="M695 37q0 -14 -18.5 -26t-34.5 -16q-143 -32 -206 -32q-41 0 -83 17.5t-70 46.5q-11 8 -12 8t-12.5 -9.5t-14.5 -10.5q-30 -18 -86 -18q-50 0 -79.5 24.5t-29.5 73.5q0 32 19 79.5t44 57.5q12 5 39.5 18t48.5 19t43 6q18 0 39.5 -7.5t30.5 -20.5q19 -4 31 -10
q40 28 88 28q32 0 53.5 -16t21.5 -48q0 -34 -19.5 -58t-41.5 -33.5t-52 -18.5t-37 -12l13 -32q36 -16 88 -16q15 0 45 2q39 1 91 10q5 1 24.5 4.5t29.5 3.5q47 0 47 -14zM265 125q0 15 -16 15q-4 0 -18 -8t-23 -8q-8 0 -16.5 6.5t-8.5 14.5q0 9 25 24t25 26q0 7 -11 7
q-31 0 -64.5 -34.5t-33.5 -64.5q0 -34 42 -34q19 0 50.5 11t43.5 27q1 6 5 18zM437 178q0 8 -11 12t-21 4q-21 0 -45 -26l-7 -34h2q15 -1 48.5 15.5t33.5 28.5zM475 466q0 -8 -17 -25.5t-39.5 -37t-28.5 -26.5q-9 -9 -27 -34t-32 -37.5t-30 -12.5q-17 0 -30.5 9t-13.5 25
q0 6 5 14t15 18.5t17 17t20.5 18t15.5 12.5l49 45l13.5 14t16 16t15.5 10.5t19 5.5q32 0 32 -32z" />
    <glyph glyph-name="Oslashacute" unicode="&#x1fe;" horiz-adv-x="414" 
d="M375 212q0 -124 -46 -172q-42 -43 -73.5 -60t-83.5 -17q-27 0 -47 7q-14 -22 -22 -32q-23 -30 -46 -30q-12 0 -23 12.5t-11 25.5q0 14 13 31q8 13 26 37q-25 36 -25 87q0 58 21 102.5t65 90.5q84 89 136 89q15 0 35 -9q5 12 5 13q9 26 40 26q12 0 22.5 -10t10.5 -22
q0 -11 -21 -45l-2 -2q19 -21 22 -40q4 -35 4 -82zM305 223q0 20 -4 32l-19.5 -35l-23 -41.5l-20.5 -34.5q-7 -13 -60 -94h36q41 0 66 62t25 111zM247 287h-1q-46 0 -87.5 -67t-41.5 -117v-11q32 44 57 82zM313 540q0 -8 -17 -25.5t-39.5 -37t-28.5 -26.5q-9 -9 -27 -34
t-32 -37.5t-30 -12.5q-17 0 -30.5 9t-13.5 25q0 6 5 14t15 18.5t17 17t20.5 18t15.5 12.5l49 45l13.5 14t16 16t15.5 10.5t19 5.5q32 0 32 -32z" />
    <glyph glyph-name="oslashacute" unicode="&#x1ff;" horiz-adv-x="373" 
d="M395 327q0 -12 -22 -46q-20 -30 -46 -75q5 -20 5 -39q0 -76 -37.5 -128.5t-106.5 -61.5l-16 -25q-34 -52 -47 -69q-22 -29 -45 -29q-13 0 -23.5 12t-10.5 25q0 12 12 32l26 36.5l20 27.5q-50 27 -50 91t47 119.5t110 55.5q8 0 17 -4t13 -4q5 0 15 3t16 3t8 -1
q33 57 42 83q7 25 39 25q12 0 23 -9.5t11 -21.5zM209 144q0 8 -7.5 13t-16.5 5q-19 0 -33.5 -23t-14.5 -43v-14q0 -21 16 -27q30 42 44 64l11 17q1 3 1 8zM357 468q0 -8 -17 -25.5t-39.5 -37t-28.5 -26.5q-9 -9 -27 -34t-32 -37.5t-30 -12.5q-17 0 -30.5 9t-13.5 25
q0 6 5 14t15 18.5t17 17t20.5 18t15.5 12.5l49 45l13.5 14t16 16t15.5 10.5t19 5.5q32 0 32 -32z" />
    <glyph glyph-name="uni0218" unicode="&#x218;" horiz-adv-x="452" 
d="M424 128q0 -31 -24 -59.5t-55 -43.5q-26 -13 -76 -29.5t-71 -16.5q-25 0 -52.5 24.5t-27.5 48.5q0 13 11.5 21.5t24.5 8.5q9 0 33 -12t38 -12q22 0 73.5 24.5t51.5 41.5q0 15 -32.5 28.5t-79 24.5t-92.5 25t-78.5 37.5t-32.5 54.5q0 38 40 67t86 41.5t82 12.5
q33 0 71 -25t38 -56q0 -21 -19 -45t-40 -24q-17 0 -17 15q0 6 3.5 19t3.5 20q0 33 -44 33q-29 0 -77 -16.5t-48 -39.5q0 -12 32 -24t77.5 -24t91 -26.5t77.5 -38.5t32 -55zM358 -161q0 -35 -22.5 -56t-65.5 -36q-31 -11 -65 -11q-14 0 -24 7.5t-10 19.5q0 4 1.5 7t5.5 5
t7.5 4t10.5 3.5t10.5 2t11.5 2t10 1.5q21 5 31.5 8t20 11t9.5 20q0 21 -15 30t-30.5 13t-15.5 12q-1 14 7 21t22 7q46 0 73.5 -23.5t27.5 -47.5z" />
    <glyph glyph-name="uni0219" unicode="&#x219;" horiz-adv-x="363" 
d="M312 240q0 -25 -12.5 -42.5t-28 -23.5t-28 -12t-12.5 -12q0 -4 14.5 -12t29.5 -23t15 -36q0 -37 -55 -80t-94 -43q-27 0 -58 20.5t-31 46.5q0 24 30 24q12 0 35 -7t34 -7q9 0 33.5 10.5t24.5 17.5t-16.5 13t-37.5 11t-26 8q-22 13 -41.5 39.5t-19.5 49.5q0 34 56.5 66.5
t94.5 32.5q93 0 93 -41zM301 -161q0 -35 -22.5 -56t-65.5 -36q-31 -11 -65 -11q-14 0 -24 7.5t-10 19.5q0 4 1.5 7t5.5 5t7.5 4t10.5 3.5t10.5 2t11.5 2t10 1.5q21 5 31.5 8t20 11t9.5 20q0 21 -15 30t-30.5 13t-15.5 12q-1 14 7 21t22 7q46 0 73.5 -23.5t27.5 -47.5z" />
    <glyph glyph-name="uni021A" unicode="&#x21a;" horiz-adv-x="614" 
d="M592 391q0 -23 -51 -23q-25 -1 -71 -4.5t-84 -5.5t-71 -2q-26 0 -26 -15q0 -5 2 -13q64 -266 64 -341q0 -46 -26 -46q-28 0 -39.5 17t-14.5 49q-23 236 -51 301q-15 32 -23 38q-9 6 -31 8l-24 1q-25 1 -41 3t-38 6t-34 12t-12 20q0 8 18.5 24.5t27.5 16.5q8 0 25 -5
t20 -6q21 -5 48 -7q17 -1 50 -1q169 0 238 17q37 10 69 10q42 0 58 -20q17 -22 17 -34zM400 -161q0 -35 -22.5 -56t-65.5 -36q-31 -11 -65 -11q-14 0 -24 7.5t-10 19.5q0 4 1.5 7t5.5 5t7.5 4t10.5 3.5t10.5 2t11.5 2t10 1.5q21 5 31.5 8t20 11t9.5 20q0 21 -15 30t-30.5 13
t-15.5 12q-1 14 7 21t22 7q46 0 73.5 -23.5t27.5 -47.5z" />
    <glyph glyph-name="uni021B" unicode="&#x21b;" horiz-adv-x="498" 
d="M482 200q0 -24 -31 -34t-68.5 -9.5t-68.5 -9.5t-31 -34q0 -26 17 -43t43 -17q13 0 38 9t38 9q39 0 39 -34q0 -18 -45.5 -37.5t-67.5 -19.5q-66 0 -99 36q-12 13 -20 40t-15 46.5t-19 19.5q-16 0 -71 -6t-65 -9q-6 -2 -10 -2q-12 0 -22 12.5t-10 25.5q0 22 32.5 29t71 5
t71.5 9t34 41q0 4 -0.5 11.5t-0.5 10.5q0 22 7.5 44t24.5 22q15 0 30 -12.5t15 -27.5q0 -7 -8 -23.5t-8 -24.5q0 -19 39 -19q19 0 59 3t60 3q41 0 41 -14zM342 -161q0 -35 -22.5 -56t-65.5 -36q-31 -11 -65 -11q-14 0 -24 7.5t-10 19.5q0 4 1.5 7t5.5 5t7.5 4t10.5 3.5
t10.5 2t11.5 2t10 1.5q21 5 31.5 8t20 11t9.5 20q0 21 -15 30t-30.5 13t-15.5 12q-1 14 7 21t22 7q46 0 73.5 -23.5t27.5 -47.5z" />
    <glyph glyph-name="uni0237" unicode="&#x237;" horiz-adv-x="310" 
d="M270 54q0 -26 -1 -40.5t-6 -35.5t-17 -35t-32 -23q-3 -1 -15 -6.5l-16.5 -7.5l-15 -6.5t-17 -6.5t-15.5 -4.5t-17.5 -3.5t-16.5 -1q-24 0 -46 14t-33 35q-20 40 -20 54q0 15 12 23.5t28 8.5q22 0 32 -7.5t10.5 -16.5t7.5 -16.5t23 -7.5q28 0 55.5 18.5t27.5 45.5
q0 41 -1 63t-9 57.5t-25 55.5q-15 18 -15 38q0 30 29 30q25 0 55 -48q18 -27 28 -81t10 -96z" />
    <glyph glyph-name="uni02BC" unicode="&#x2bc;" horiz-adv-x="311" 
d="M264 429q0 -33 -52.5 -90.5t-84.5 -57.5q-29 0 -29 41q0 24 20 41.5l39.5 33.5t19.5 36q0 30 -34 30q-3 0 -22.5 -12t-36.5 -12q-40 0 -40 40q0 24 39 44.5t66 20.5q51 0 83 -31.5t32 -83.5z" />
    <glyph glyph-name="circumflex" unicode="&#x2c6;" horiz-adv-x="328" 
d="M282 360q1 -3 1 -9q0 -13 -11 -22t-29 -9q-30 0 -42.5 30.5t-13.5 66.5l-1 3l1 1q-5 -1 -38 -41.5t-40 -52.5q-11 -18 -37 -18q-11 0 -20 6.5t-9 17.5t15 26q38 33 102 110q4 5 11.5 15.5t12.5 16t14 10.5t21 5q16 0 20.5 -10.5t6 -37t6.5 -44.5q4 -16 16.5 -39t13.5 -25
z" />
    <glyph glyph-name="caron" unicode="&#x2c7;" horiz-adv-x="328" 
d="M44 465q-1 3 -1 9q0 13 11 22t29 9q30 0 42.5 -30.5t13.5 -66.5l1 -3l-1 -1q5 1 38 41.5t40 52.5q11 18 37 18q11 0 20 -6.5t9 -17.5t-15 -26q-38 -33 -102 -110q-4 -5 -11.5 -15.5t-12.5 -16t-14 -10.5t-21 -5q-16 0 -20.5 10.5t-6 37t-6.5 44.5q-4 16 -16.5 39
t-13.5 25z" />
    <glyph glyph-name="uni02C9" unicode="&#x2c9;" horiz-adv-x="339" 
d="M305 407q0 -19 -19 -36.5t-38 -17.5q-27 0 -82.5 -5t-82.5 -5q-18 0 -36.5 14t-18.5 32q0 11 2.5 17t10.5 8.5t12 2.5h18q29 0 86 11t85 11q63 0 63 -32z" />
    <glyph glyph-name="breve" unicode="&#x2d8;" horiz-adv-x="315" 
d="M314 431q-2 -13 -24.5 -35.5t-39.5 -34.5q-24 -16 -62 -27.5t-65 -8.5q-51 7 -95 40q-32 24 -27 58q1 5 3 14t3 13q2 13 16.5 23.5t29.5 5t17 -30.5q0 -9 1 -14q7 -25 56 -32q63 -8 118 58q23 26 47.5 12.5t21.5 -41.5z" />
    <glyph glyph-name="dotaccent" unicode="&#x2d9;" horiz-adv-x="228" 
d="M151 381q0 -12 -16.5 -28t-29.5 -16q-20 0 -31.5 17t-11.5 37t9.5 41t26.5 19q53 -5 53 -70z" />
    <glyph glyph-name="ring" unicode="&#x2da;" horiz-adv-x="287" 
d="M250 442q0 -44 -34 -76.5t-91 -32.5q-34 0 -63.5 19t-29.5 43q0 31 44 61t89 30q5 0 12 -2t9 -2q3 0 10.5 1.5t11.5 1.5q42 0 42 -43zM160 419q0 9 -17 9q-14 0 -21.5 -6.5t-7.5 -16.5v-7q0 -15 23 -15q19 0 19 6q0 1 -1 4.5t-1 5.5q0 6 3 11t3 9z" />
    <glyph glyph-name="ogonek" unicode="&#x2db;" horiz-adv-x="344" 
d="M225 -139q-43 -19 -79 -19q-48 0 -70 22t-22 57q0 39 27.5 82.5t58.5 43.5q14 0 22.5 -9t8.5 -21q0 -11 -9 -20.5t-19.5 -15t-19.5 -19t-9 -32.5q0 -28 25 -28q19 0 45.5 6.5t34.5 6.5q35 0 35 -21q0 -20 -29 -33z" />
    <glyph glyph-name="tilde" unicode="&#x2dc;" horiz-adv-x="423" 
d="M359 443q0 -19 -2.5 -27t-12.5 -14.5t-15 -11.5l-12 -12t-14.5 -13.5t-14.5 -8.5t-23.5 -10.5t-28 -11.5t-24.5 -4q-15 0 -27.5 14t-12.5 35q0 6 3 16t3 12q-7 -4 -21.5 -18l-17.5 -17q-40 -42 -55 -42q-26 0 -26 34q0 30 66 77q4 3 17 14.5l22 19t21 14t20 6.5
q15 0 22.5 -17.5t7.5 -35.5q0 -7 -3 -19t-3 -18v-1q17 0 41.5 15.5t32.5 32.5q1 1 2.5 5t2 5.5t2.5 5t3 5t2.5 4.5t3.5 4t4 2.5t4 2t5 0.5q13 0 20.5 -13.5t7.5 -29.5z" />
    <glyph glyph-name="hungarumlaut" unicode="&#x2dd;" horiz-adv-x="322" 
d="M267 432q-2 -5 -6 -16l-7 -19t-8.5 -20t-10.5 -18t-12.5 -13.5t-15 -7t-18.5 2.5q-13 5 -16.5 21t1.5 28q8 18 14 27t14 28q15 40 15 54q0 31 6 45q10 24 36 13q9 -4 15.5 -9t10 -12t5.5 -13t1 -15.5t-2 -15.5t-4.5 -16.5t-5.5 -15.5t-6.5 -15t-5.5 -13zM168 492
q-6 -16 -37 -71t-41 -67q-20 -23 -49 -12q-14 6 -17 31t4 36q2 6 30.5 42t38.5 60q2 5 4.5 14t4.5 14q10 26 33 16q17 -7 26.5 -27t2.5 -36z" />
    <glyph glyph-name="uni0312" unicode="&#x312;" horiz-adv-x="256" 
d="M38 405q0 35 22.5 56t65.5 36q31 11 65 11q14 0 24 -7.5t10 -19.5q0 -4 -1.5 -7t-5.5 -5t-7.5 -4t-10.5 -3.5t-10.5 -2t-11.5 -2t-10 -1.5q-21 -5 -31.5 -8t-20 -11t-9.5 -20q0 -21 15 -30t30.5 -13t15.5 -12q1 -14 -7 -21t-22 -7q-46 0 -73.5 23.5t-27.5 47.5z" />
    <glyph glyph-name="uni0326" unicode="&#x326;" horiz-adv-x="256" 
d="M195 -161q0 -35 -22.5 -56t-65.5 -36q-31 -11 -65 -11q-14 0 -24 7.5t-10 19.5q0 4 1.5 7t5.5 5t7.5 4t10.5 3.5t10.5 2t11.5 2t10 1.5q21 5 31.5 8t20 11t9.5 20q0 21 -15 30t-30.5 13t-15.5 12q-1 14 7 21t22 7q46 0 73.5 -23.5t27.5 -47.5z" />
    <glyph glyph-name="Wgrave" unicode="&#x1e80;" horiz-adv-x="632" 
d="M575 293q0 -38 -10 -117t-20 -110q-13 -41 -56.5 -77t-84.5 -36q-31 0 -58 33.5t-39 69.5q-1 3 -3 13t-5 20l-6 20.5t-7.5 17t-8.5 6.5t-20 -19l-35.5 -41.5t-51 -41.5t-63.5 -19q-54 0 -54 75q0 45 -2 134.5t-2 133.5q0 12 6 23t18 11q18 0 28.5 -12.5t10.5 -31.5v-20
l1 -20v-36q0 -1 -0.5 -15t-0.5 -28t0.5 -34t1.5 -36.5t2.5 -32t5 -24t8.5 -8.5q22 0 88 66q13 13 25 44t24.5 52t31.5 21q23 0 39.5 -59.5l33.5 -119t40 -59.5q90 0 89 257v7q0 17 12 33t28 16q34 0 34 -56zM442 401q0 -20 -11 -35.5t-30 -15.5q-10 0 -16.5 5.5t-12.5 16.5
t-11 16q-16 17 -61.5 54l-52.5 43q-22 19 -22 44q0 28 34 28q13 0 45.5 -26t48.5 -43q3 -3 29.5 -23t43 -36.5t16.5 -27.5z" />
    <glyph glyph-name="wgrave" unicode="&#x1e81;" horiz-adv-x="578" 
d="M543 173q0 -30 -8.5 -72t-21.5 -62q-31 -45 -99 -45h-6q-22 0 -34 1t-29.5 7t-27.5 18q-3 3 -12.5 17.5t-18.5 24t-17 9.5t-29 -14.5t-53 -28.5t-65 -14q-81 0 -81 165q0 63 30 63q44 0 44 -31q0 -11 -4.5 -35t-4.5 -36q0 -22 15 -37t37 -15q28 0 49 22t38 44t36 22
q16 0 30 -16.5t23.5 -37t29.5 -37t46 -16.5q22 0 39.5 19.5t17.5 41.5q0 8 -4 24.5t-4 25.5q0 32 38 32q26 0 36 -7.5t10 -31.5zM410 280q0 -20 -11 -35.5t-30 -15.5q-10 0 -16.5 5.5t-12.5 16.5t-11 16q-16 17 -61.5 54l-52.5 43q-22 19 -22 44q0 28 34 28q13 0 45.5 -26
t48.5 -43q3 -3 29.5 -23t43 -36.5t16.5 -27.5z" />
    <glyph glyph-name="Wacute" unicode="&#x1e82;" horiz-adv-x="632" 
d="M575 293q0 -38 -10 -117t-20 -110q-13 -41 -56.5 -77t-84.5 -36q-31 0 -58 33.5t-39 69.5q-1 3 -3 13t-5 20l-6 20.5t-7.5 17t-8.5 6.5t-20 -19l-35.5 -41.5t-51 -41.5t-63.5 -19q-54 0 -54 75q0 45 -2 134.5t-2 133.5q0 12 6 23t18 11q18 0 28.5 -12.5t10.5 -31.5v-20
l1 -20v-36q0 -1 -0.5 -15t-0.5 -28t0.5 -34t1.5 -36.5t2.5 -32t5 -24t8.5 -8.5q22 0 88 66q13 13 25 44t24.5 52t31.5 21q23 0 39.5 -59.5l33.5 -119t40 -59.5q90 0 89 257v7q0 17 12 33t28 16q34 0 34 -56zM394 499q0 -8 -17 -25.5t-39.5 -37t-28.5 -26.5q-9 -9 -27 -34
t-32 -37.5t-30 -12.5q-17 0 -30.5 9t-13.5 25q0 6 5 14t15 18.5t17 17t20.5 18t15.5 12.5l49 45l13.5 14t16 16t15.5 10.5t19 5.5q32 0 32 -32z" />
    <glyph glyph-name="wacute" unicode="&#x1e83;" horiz-adv-x="578" 
d="M543 173q0 -30 -8.5 -72t-21.5 -62q-31 -45 -99 -45h-6q-22 0 -34 1t-29.5 7t-27.5 18q-3 3 -12.5 17.5t-18.5 24t-17 9.5t-29 -14.5t-53 -28.5t-65 -14q-81 0 -81 165q0 63 30 63q44 0 44 -31q0 -11 -4.5 -35t-4.5 -36q0 -22 15 -37t37 -15q28 0 49 22t38 44t36 22
q16 0 30 -16.5t23.5 -37t29.5 -37t46 -16.5q22 0 39.5 19.5t17.5 41.5q0 8 -4 24.5t-4 25.5q0 32 38 32q26 0 36 -7.5t10 -31.5zM417 398q0 -8 -17 -25.5t-39.5 -37t-28.5 -26.5q-9 -9 -27 -34t-32 -37.5t-30 -12.5q-17 0 -30.5 9t-13.5 25q0 6 5 14t15 18.5t17 17t20.5 18
t15.5 12.5l49 45l13.5 14t16 16t15.5 10.5t19 5.5q32 0 32 -32z" />
    <glyph glyph-name="Wdieresis" unicode="&#x1e84;" horiz-adv-x="632" 
d="M575 293q0 -38 -10 -117t-20 -110q-13 -41 -56.5 -77t-84.5 -36q-31 0 -58 33.5t-39 69.5q-1 3 -3 13t-5 20l-6 20.5t-7.5 17t-8.5 6.5t-20 -19l-35.5 -41.5t-51 -41.5t-63.5 -19q-54 0 -54 75q0 45 -2 134.5t-2 133.5q0 12 6 23t18 11q18 0 28.5 -12.5t10.5 -31.5v-20
l1 -20v-36q0 -1 -0.5 -15t-0.5 -28t0.5 -34t1.5 -36.5t2.5 -32t5 -24t8.5 -8.5q22 0 88 66q13 13 25 44t24.5 52t31.5 21q23 0 39.5 -59.5l33.5 -119t40 -59.5q90 0 89 257v7q0 17 12 33t28 16q34 0 34 -56zM420 406q0 -18 -11.5 -30.5t-29.5 -12.5q-28 0 -41 21t-13 50
q0 25 10.5 44t33.5 19q13 0 22.5 -14.5t9.5 -28.5q0 -8 9.5 -21.5t9.5 -26.5zM262 467q0 -119 -39 -119q-41 0 -41 94q0 65 43 65q18 0 27.5 -11t9.5 -29z" />
    <glyph glyph-name="wdieresis" unicode="&#x1e85;" horiz-adv-x="578" 
d="M543 173q0 -30 -8.5 -72t-21.5 -62q-31 -45 -99 -45h-6q-22 0 -34 1t-29.5 7t-27.5 18q-3 3 -12.5 17.5t-18.5 24t-17 9.5t-29 -14.5t-53 -28.5t-65 -14q-81 0 -81 165q0 63 30 63q44 0 44 -31q0 -11 -4.5 -35t-4.5 -36q0 -22 15 -37t37 -15q28 0 49 22t38 44t36 22
q16 0 30 -16.5t23.5 -37t29.5 -37t46 -16.5q22 0 39.5 19.5t17.5 41.5q0 8 -4 24.5t-4 25.5q0 32 38 32q26 0 36 -7.5t10 -31.5zM409 315q0 -18 -11.5 -30.5t-29.5 -12.5q-28 0 -41 21t-13 50q0 25 10.5 44t33.5 19q13 0 22.5 -14.5t9.5 -28.5q0 -8 9.5 -21.5t9.5 -26.5z
M251 376q0 -119 -39 -119q-41 0 -41 94q0 65 43 65q18 0 27.5 -11t9.5 -29z" />
    <glyph glyph-name="Ygrave" unicode="&#x1ef2;" horiz-adv-x="509" 
d="M494 423q0 -27 -35.5 -69t-63.5 -58q-11 -6 -70 -31t-63 -29q-12 -12 -24 -54t-12 -63q0 -26 5.5 -39t12.5 -15t12.5 -10.5t5.5 -26.5q0 -13 -15 -21.5t-29 -8.5q-24 0 -39 20t-19.5 42.5t-4.5 46.5q0 15 7.5 44.5t7.5 44.5q0 18 -11 18q-53 0 -92 35.5t-39 87.5
q0 23 3.5 45t17 43.5t35.5 21.5q12 0 25.5 -8t13.5 -20q0 -8 -16 -29.5t-16 -28.5q0 -67 88 -67q35 0 87 15.5t97.5 47.5t45.5 68q0 17 11.5 28t28.5 11q12 0 28.5 -14.5t16.5 -26.5zM363 460q0 -20 -11 -35.5t-30 -15.5q-10 0 -16.5 5.5t-12.5 16.5t-11 16q-16 17 -61.5 54
l-52.5 43q-22 19 -22 44q0 28 34 28q13 0 45.5 -26t48.5 -43q3 -3 29.5 -23t43 -36.5t16.5 -27.5z" />
    <glyph glyph-name="ygrave" unicode="&#x1ef3;" horiz-adv-x="455" 
d="M398 -52q0 -66 -29 -97.5t-96 -31.5h-21.5t-23 1t-26 4.5l-20.5 8.5t-17 14t-5 21q0 10 4.5 18t13.5 12.5t18 7t22.5 3.5t22 1t21 -0.5t16.5 -0.5q25 0 37 8.5t12 32.5q0 23 -11 77.5t-25 54.5q-11 0 -31.5 -16t-49.5 -31.5t-60 -15.5q-95 0 -95 153q0 99 44 99
q15 0 26 -10.5t11 -25.5q0 -12 -4 -37t-4 -38q0 -66 31 -66q14 0 45 18q60 39 83 95q1 2 4 9.5l4 10t4 8t5.5 7t6.5 4.5t9 4t11 1q8 0 14.5 -2.5t10.5 -8t6 -10.5t3 -14.5t1 -14v-15v-12.5q0 -38 16 -112.5t16 -113.5zM331 347q0 -20 -11 -35.5t-30 -15.5q-10 0 -16.5 5.5
t-12.5 16.5t-11 16q-16 17 -61.5 54l-52.5 43q-22 19 -22 44q0 28 34 28q13 0 45.5 -26t48.5 -43q3 -3 29.5 -23t43 -36.5t16.5 -27.5z" />
    <glyph glyph-name="endash" unicode="&#x2013;" horiz-adv-x="532" 
d="M489 209q0 -13 -9 -19t-19.5 -7t-34.5 -1h-7q-47 0 -138.5 -11t-137.5 -11q-22 0 -33 0.5t-31 3t-29.5 9.5t-9.5 19q0 18 31 35.5t62 17.5q45 0 133 5t133 5q31 0 60.5 -14t29.5 -32z" />
    <glyph glyph-name="emdash" unicode="&#x2014;" horiz-adv-x="695" 
d="M664 209q0 -18 -20 -22.5t-68 -4.5h-10q-64 0 -191.5 -11t-191.5 -11h-29.5t-30 1t-32.5 3t-25 5t-20 9t-6 14q0 18 43.5 35.5t85.5 17.5q61 0 185 5t185 5q42 0 83.5 -14t41.5 -32z" />
    <glyph glyph-name="quoteleft" unicode="&#x2018;" horiz-adv-x="294" 
d="M258 537q0 -9 -12 -17.5t-28 -17t-21 -13.5q-18 -16 -52 -77t-34 -82q0 -43 20 -43q6 0 15 10.5t24 21.5t35 11q42 0 42 -31q0 -37 -34 -62.5t-72 -25.5q-45 0 -73 30t-28 76q0 88 75 182q2 3 9 12t10.5 13l10 11.5t11.5 11.5l12 9.5t13 8t14 4.5t16 2q18 0 32.5 -8.5
t14.5 -25.5z" />
    <glyph glyph-name="quoteright" unicode="&#x2019;" horiz-adv-x="311" 
d="M264 429q0 -33 -52.5 -90.5t-84.5 -57.5q-29 0 -29 41q0 24 20 41.5l39.5 33.5t19.5 36q0 30 -34 30q-3 0 -22.5 -12t-36.5 -12q-40 0 -40 40q0 24 39 44.5t66 20.5q51 0 83 -31.5t32 -83.5z" />
    <glyph glyph-name="quotesinglbase" unicode="&#x201a;" horiz-adv-x="311" 
d="M264 -26q0 -34 -52.5 -91.5t-84.5 -57.5q-29 0 -29 42q0 24 20 41.5l39.5 33.5t19.5 36q0 30 -34 30q-3 0 -22.5 -12t-36.5 -12q-40 0 -40 39q0 25 39 45.5t66 20.5q51 0 83 -32t32 -83z" />
    </font>
</defs>
</svg>
