<?xml version="1.0" standalone="no"?>
<!DOCTYPE svg PUBLIC "-//W3C//DTD SVG 1.1//EN" "http://www.w3.org/Graphics/SVG/1.1/DTD/svg11.dtd" >
<svg>
<metadata>
Created by FontForge 20090622 at Wed Aug 12 15:52:46 2015
 By deploy user
Copyright (c) Mark Simonson, 2003. All rights reserved.
</metadata>
<defs>
<font id="Grad" horiz-adv-x="520" >
  <font-face 
    font-family="Grad"
    font-weight="400"
    font-stretch="normal"
    units-per-em="1000"
    panose-1="2 4 5 3 6 5 5 2 2 3"
    ascent="800"
    descent="-200"
    x-height="458"
    cap-height="722"
    bbox="-168 -287 1192 972"
    underline-thickness="61"
    underline-position="-44"
    unicode-range="U+000D-U+FB06"
  />
<missing-glyph horiz-adv-x="357" 
 />
    <glyph glyph-name="ff" unicode="ff" horiz-adv-x="564" 
d="M560 0h-247v38l52 4v370h-182v-328q0 -41 39 -43l55 -3v-38h-234v38l57 4v370h-102v46h102v18q0 68 16.5 119.5t43 79t54.5 40.5t56 13q46 0 76.5 -29t30.5 -62q0 -29 -14 -47.5t-34 -18.5q-24 0 -37.5 14t-13.5 37q0 19 12.5 31.5t12.5 18.5q0 8 -9.5 13t-20.5 5
q-42 0 -66.5 -47.5t-24.5 -142.5q0 -28 1 -43h182v19q0 68 16.5 119.5t43 79t54.5 40.5t56 13q46 0 76.5 -29t30.5 -62q0 -29 -14 -47.5t-34 -18.5q-24 0 -37.5 14t-13.5 37q0 19 12.5 31.5t12.5 18.5q0 8 -9.5 13t-20.5 5q-42 0 -66.5 -47.5t-24.5 -142.5q0 -27 1 -42h115
v-46h-115v-328q0 -41 39 -43l73 -3v-38z" />
    <glyph glyph-name="fi" unicode="fi" horiz-adv-x="540" 
d="M531 0h-222v38l54 4v322q0 21 -13 35t-34 14h-134v-337q0 -19 6 -26.5t25 -8.5l58 -3v-38h-228v38l57 4v371h-85v45h86q0 113 58 191.5t156 78.5q47 0 86 -27.5t39 -71.5q0 -25 -14.5 -44t-40.5 -19q-21 0 -37 14.5t-16 31.5q0 18 9.5 30t9.5 20q0 14 -13 20t-26 6
q-67 0 -98.5 -64t-32.5 -166h123q67 0 142 10v-393q0 -33 23 -34l62 -3v-38z" />
    <glyph glyph-name="fl" unicode="fl" horiz-adv-x="536" 
d="M534 0h-225v38l52 4v370h-183v-335q0 -34 26 -36l67 -3v-38h-228v38l57 4v370h-102v46h102q0 115 58 192.5t149 77.5q29 0 54 -9l83 12q-2 -48 -2 -72v-580q0 -22 7.5 -29t31.5 -9l53 -3v-38zM178 458h183v116q-21 0 -34 15.5t-13 35.5q0 15 8.5 29t8.5 22q0 15 -26 15
q-34 0 -59.5 -20.5t-40 -55t-21 -74t-6.5 -83.5z" />
    <glyph glyph-name="ffi" unicode="ffi" horiz-adv-x="805" 
d="M796 0h-222v38l54 4v324q0 20 -13 33t-34 13h-134v-336q0 -19 6 -26.5t25 -8.5l58 -3v-38h-228v38l57 4v370h-182v-328q0 -41 39 -43l52 -3v-38h-231v38l57 4v370h-102v46h102q0 109 58.5 189.5t149.5 80.5q49 0 80 -20.5t44 -48.5q59 69 148 69q47 0 86 -27.5t39 -71.5
q0 -25 -14.5 -44t-40.5 -19q-21 0 -37 14.5t-16 31.5q0 18 9.5 30t9.5 20q0 14 -13 20t-26 6q-67 0 -98.5 -64t-32.5 -166h123q67 0 142 10v-393q0 -33 23 -34l62 -3v-38zM365 458q0 60 18 112q-43 5 -43 49q0 17 8.5 29t8.5 18q0 11 -14 18.5t-32 7.5q-51 0 -89.5 -53
t-38.5 -141v-40h182z" />
    <glyph glyph-name="ffl" unicode="ffl" horiz-adv-x="800" 
d="M798 0h-224v38l51 4v370h-183v-335q0 -34 26 -36l68 -3v-38h-228v38l56 4v370h-181v-328q0 -41 39 -43l52 -3v-38h-231v38l57 4v370h-102v46h102v17q0 102 62.5 177.5t150.5 75.5q41 0 73 -21.5t41 -51.5q58 72 144 72q29 0 54 -9l83 12q-2 -48 -2 -72v-579
q0 -22 7.5 -29t31.5 -9l53 -3v-38zM364 458q0 57 17 111q-42 6 -42 51q0 16 8.5 26t8.5 17q0 12 -15 19.5t-31 7.5q-47 0 -87.5 -50t-40.5 -141q0 -26 1 -41h181zM625 458v115q-21 0 -34 15.5t-13 35.5q0 15 8.5 29t8.5 22q0 15 -26 15q-45 0 -74.5 -36t-41 -86t-11.5 -110
h183z" />
    <glyph glyph-name=".notdef" horiz-adv-x="357" 
 />
    <glyph glyph-name=".null" horiz-adv-x="0" 
 />
    <glyph glyph-name="nonmarkingreturn" horiz-adv-x="333" 
 />
    <glyph glyph-name="NULL" horiz-adv-x="0" 
 />
    <glyph glyph-name="NULL" horiz-adv-x="0" 
 />
    <glyph glyph-name="CR" unicode="&#xd;" horiz-adv-x="224" 
 />
    <glyph glyph-name="space" unicode=" " horiz-adv-x="224" 
 />
    <glyph glyph-name="exclam" unicode="!" horiz-adv-x="226" 
d="M114 -13q-26 0 -43.5 18.5t-17.5 45.5t18 46t43 19t43 -19t18 -46t-17.5 -45.5t-43.5 -18.5zM131 203h-36q0 105 -6.5 180t-15 106.5t-15 70t-6.5 78.5q0 41 16 66.5t46 25.5q60 0 60 -90q0 -41 -6.5 -79.5t-15 -70.5t-15 -107t-6.5 -180z" />
    <glyph glyph-name="quotedbl" unicode="&#x22;" horiz-adv-x="405" 
d="M131 426h-36q0 70 -16 141.5t-16 100.5q0 19 13.5 36.5t37.5 17.5t37 -17t13 -36q0 -30 -16.5 -101.5t-16.5 -141.5zM310 426h-36q0 70 -16 141.5t-16 100.5q0 19 13.5 36.5t37.5 17.5t37 -17t13 -36q0 -30 -16.5 -101.5t-16.5 -141.5z" />
    <glyph glyph-name="numbersign" unicode="#" horiz-adv-x="703" 
d="M353 -22h-60l84 242h-127l-83 -242h-60l84 242h-164l17 50h164l48 138h-176l17 50h176l84 242h60l-84 -242h126l84 242h60l-84 -242h157l-17 -50h-157l-48 -138h169l-17 -50h-170zM394 270l48 138h-126l-48 -138h126z" />
    <glyph glyph-name="dollar" unicode="$" 
d="M273 -146h-40v130q-93 3 -147.5 45.5t-54.5 114.5q0 31 18 55.5t44 24.5q22 0 39 -17t17 -40q0 -19 -7 -31.5t-15.5 -17t-15.5 -11.5t-7 -16q0 -33 40 -51t89 -21v288q-42 14 -67 25t-54.5 32.5t-43.5 55t-14 79.5q0 74 49.5 125t129.5 59v52h40v-51q72 -4 123.5 -43.5
t51.5 -93.5q0 -31 -16.5 -53.5t-43.5 -22.5q-21 0 -37 16t-16 39t21 41.5t21 27.5q0 19 -31.5 35t-72.5 19v-253q32 -11 49 -17.5t45 -19t43 -26.5t31.5 -34t24 -47t7.5 -60q0 -88 -55 -143t-145 -63v-132zM273 20q56 7 94 42.5t38 89.5q0 59 -33.5 89t-98.5 53v-274z
M233 409v238q-55 -7 -86.5 -38t-31.5 -79q0 -47 30.5 -74t87.5 -47z" />
    <glyph glyph-name="percent" unicode="%" horiz-adv-x="795" 
d="M213 -22h-44l369 653q-72 -39 -122 -39q-29 0 -49 5q4 -15 4 -37q0 -95 -75 -177.5t-157 -82.5q-52 0 -81.5 34t-29.5 89q0 96 73.5 179t155.5 83q49 0 76 -29q26 -26 44 -35t42 -9q43 0 90 25.5t68 62.5h44zM535 -22q-52 0 -82 35t-30 91q0 95 74 177t156 82
q51 0 82.5 -35t31.5 -91q0 -95 -75 -177t-157 -82zM555 11q61 0 123.5 73.5t62.5 152.5q0 39 -17.5 63.5t-47.5 24.5q-60 0 -121.5 -81t-61.5 -158q0 -34 15.5 -54.5t46.5 -20.5zM159 333q61 0 123.5 73.5t62.5 152.5q0 25 -8 46q-44 15 -67 41q-57 0 -115 -83.5t-58 -154.5
q0 -34 15.5 -54.5t46.5 -20.5z" />
    <glyph glyph-name="ampersand" unicode="&#x26;" horiz-adv-x="712" 
d="M548 -13q-68 0 -139 66q-89 -77 -181 -77q-83 0 -143 58.5t-60 140.5q0 145 165 228q-43 82 -43 155q0 71 45 121.5t124 50.5q65 0 102 -39.5t37 -96.5t-50.5 -107t-110.5 -75q67 -140 156 -256q37 55 51 93q13 33 13 55q0 55 -92 59v36h260v-36q-80 0 -108 -66
q-39 -89 -96 -170q60 -68 108 -68q31 0 54 30t28 76l32 -5q-8 -78 -49.5 -125.5t-102.5 -47.5zM278 447q108 44 108 144q0 44 -20 73t-54 29q-36 0 -60 -22.5t-24 -56.5q0 -63 50 -167zM279 41q53 0 102 43q-110 146 -175 282q-38 -15 -61 -52.5t-23 -80.5
q0 -65 46.5 -128.5t110.5 -63.5z" />
    <glyph glyph-name="quotesingle" unicode="'" horiz-adv-x="226" 
d="M131 426h-36q0 70 -16 141.5t-16 100.5q0 19 13.5 36.5t37.5 17.5t37 -17t13 -36q0 -30 -16.5 -101.5t-16.5 -141.5z" />
    <glyph glyph-name="parenleft" unicode="(" horiz-adv-x="343" 
d="M281 -120q-110 63 -171.5 179.5t-61.5 248.5t61.5 248.5t171.5 179.5l9 -21q-89 -55 -126 -168t-37 -239t37 -239t126 -168z" />
    <glyph glyph-name="parenright" unicode=")" horiz-adv-x="343" 
d="M62 -120l-9 21q89 55 126 168t37 239t-37 239t-126 168l9 21q110 -63 171.5 -179.5t61.5 -248.5t-61.5 -248.5t-171.5 -179.5z" />
    <glyph glyph-name="asterisk" unicode="*" 
d="M260 336q-18 0 -30 13t-12 29t16.5 56.5t18.5 90.5q-43 -26 -70 -60.5t-41 -42.5q-9 -6 -21 -6q-17 0 -29 12.5t-12 29.5q0 24 20 36q14 8 58 14t88 30q-44 23 -87.5 29t-57.5 15q-21 11 -21 37q0 17 12.5 29t29.5 12q10 0 20 -5q13 -8 40.5 -43t70.5 -62q-2 50 -18.5 91
t-16.5 57t12 29t30 13t30 -13t12 -29t-16.5 -57t-18.5 -91q42 26 69 61t42 43q9 6 21 6q17 0 29 -12.5t12 -29.5q0 -24 -20 -36q-14 -8 -58 -14.5t-88 -30.5q43 -23 86.5 -28.5t58.5 -14.5q21 -11 21 -37q0 -17 -12.5 -29t-29.5 -12q-10 0 -20 5q-14 8 -41.5 43.5
t-69.5 61.5q1 -51 18 -91.5t17 -56.5t-12 -29t-30 -13z" />
    <glyph glyph-name="plus" unicode="+" horiz-adv-x="562" 
d="M311 0h-59v241h-218v59h218v239h59v-239h218v-59h-218v-241z" />
    <glyph glyph-name="comma" unicode="," horiz-adv-x="228" 
d="M60 -173l-22 27q37 26 66 62t29 70q0 17 -7 17q-2 0 -9.5 -3.5t-16.5 -3.5q-22 0 -39 18t-17 41q0 24 18.5 42t45.5 18q31 0 53 -26.5t22 -68.5q0 -108 -123 -193z" />
    <glyph glyph-name="hyphen" unicode="-" horiz-adv-x="220" 
d="M203 186h-187v82h187v-82z" />
    <glyph glyph-name="period" unicode="." horiz-adv-x="210" 
d="M105 -15q-26 0 -43.5 19t-17.5 47t18 47.5t43 19.5t43 -19.5t18 -47.5t-17.5 -47t-43.5 -19z" />
    <glyph glyph-name="slash" unicode="/" horiz-adv-x="435" 
d="M61 -229l-47 17l359 980l47 -17z" />
    <glyph glyph-name="zero" unicode="0" 
d="M260 -21q-94 0 -160.5 104t-66.5 252t66.5 252.5t160.5 104.5t160.5 -104.5t66.5 -252.5t-66.5 -252t-160.5 -104zM260 19q128 0 128 317t-128 317t-128 -317t128 -317z" />
    <glyph glyph-name="one" unicode="1" horiz-adv-x="418" 
d="M389 0h-360v38l138 9v494q0 40 -38 40h-113v35q57 0 119 22.5t90 48.5h33q-8 -93 -8 -189v-411q0 -22 7.5 -30.5t23.5 -9.5l108 -8v-39z" />
    <glyph glyph-name="two" unicode="2" 
d="M468 -5q-118 5 -221 5q-88 0 -214 -6v31q63 93 150 185q44 46 68.5 74t57.5 72.5t48.5 86.5t15.5 84q0 54 -33 90t-89 36q-45 0 -92 -27.5t-47 -74.5q0 -12 8.5 -19.5t20.5 -7.5q18 0 31.5 -18.5t13.5 -43.5q0 -17 -17 -37t-43 -20q-31 0 -53 29.5t-22 71.5
q0 77 60.5 132.5t149.5 55.5q97 0 153 -52t56 -134q0 -103 -110 -201l-60 -52.5l-68.5 -61t-54 -52t-58.5 -61.5q35 2 87 2h156q38 0 54 25t24 95h35q-7 -96 -7 -156v-51z" />
    <glyph glyph-name="three" unicode="3" 
d="M236 -20q-96 0 -149 45.5t-53 119.5q0 39 19 62t50 23q21 0 37.5 -19.5t16.5 -38.5q0 -20 -8.5 -33t-19.5 -17.5t-19.5 -12.5t-8.5 -19q0 -34 38.5 -53.5t94.5 -19.5q63 0 99 40t36 120q0 160 -134 160q-9 0 -24.5 -4.5t-22.5 -4.5q-13 0 -22 7.5t-9 18.5q0 12 9 19t19 7
q11 0 23 -4t32 -4q56 0 85 40t29 111q0 58 -27 93t-80 35q-51 0 -84 -18t-33 -43q0 -11 20.5 -29.5t20.5 -39.5q0 -20 -16 -37.5t-36 -17.5q-58 0 -58 76q0 64 56 106.5t140 42.5q86 0 136 -45t50 -115q0 -56 -31.5 -102.5t-95.5 -66.5v-6q75 -14 113 -64.5t38 -111.5
q0 -87 -67.5 -143.5t-163.5 -56.5z" />
    <glyph glyph-name="four" unicode="4" 
d="M467 0h-272v35l100 5v136h-273v42l325 471h36q-5 -62 -5 -146v-321h115v-46h-115v-94q0 -22 6.5 -31t22.5 -10l60 -4v-37zM294 541l-221 -319h221v319z" />
    <glyph glyph-name="five" unicode="5" horiz-adv-x="483" 
d="M218 -22q-87 0 -141 46.5t-54 113.5q0 38 19.5 64.5t49.5 26.5q22 0 40 -17.5t18 -42.5q0 -22 -9 -34.5t-20.5 -16t-20.5 -10t-9 -16.5q0 -29 34 -51.5t90 -22.5q65 0 104 51t39 143q0 86 -35.5 136t-98.5 50q-34 0 -76 -17.5t-42 -31.5q0 -16 -8.5 -32.5t-25.5 -16.5
q-9 0 -17 7.5t-8 22.5q0 18 12.5 34.5t13.5 26.5q17 190 22 299q112 -28 197 -28q37 0 65 6.5t42.5 13t19.5 6.5q7 0 7 -8q0 -4 -4 -14.5t-16 -26.5t-29.5 -30t-48.5 -24.5t-68 -10.5q-25 0 -74 7.5t-59 8.5q-4 -81 -17 -193q54 42 128 42q96 0 157.5 -58t61.5 -156
q0 -100 -66.5 -173.5t-172.5 -73.5z" />
    <glyph glyph-name="six" unicode="6" 
d="M267 -19q-79 0 -134.5 48t-79.5 121t-24 163q0 94 30 178t94 142t150 58q70 0 112.5 -34.5t42.5 -81.5q0 -28 -15.5 -48.5t-41.5 -20.5t-43 17t-17 41q0 13 10 31.5t10 26.5q0 17 -20 24.5t-41 7.5q-60 0 -100.5 -50t-56.5 -123t-16 -164v-12q23 51 69 81.5t102 30.5
q82 0 133.5 -59.5t51.5 -141.5q0 -98 -64.5 -166.5t-151.5 -68.5zM269 19q41 0 68 28.5t38 68.5t11 88q0 71 -31 117.5t-89 46.5q-55 0 -91.5 -44t-36.5 -122q0 -87 36 -135t95 -48z" />
    <glyph glyph-name="seven" unicode="7" horiz-adv-x="486" 
d="M239 -22q-53 0 -53 76q1 84 73 253t140 295q-46 -3 -138 -3q-19 0 -56.5 1t-49.5 1q-41 0 -57.5 -32t-27.5 -120l-36 5l27 235q71 -10 210 -10q93 0 188 6v-23q-12 -30 -48.5 -113.5t-48 -114.5t-31.5 -94.5t-26.5 -120t-6.5 -124.5q0 -117 -59 -117z" />
    <glyph glyph-name="eight" unicode="8" 
d="M258 -21q-101 0 -163.5 50.5t-62.5 137.5q0 57 42 103t111 65q-59 27 -89.5 74.5t-30.5 101.5q0 81 56.5 134t140.5 53q87 0 141 -46t54 -112q0 -49 -28.5 -90t-84.5 -66q76 -31 109 -80t33 -122q0 -90 -67.5 -146.5t-160.5 -56.5zM313 396q78 45 78 132q0 62 -34.5 96.5
t-94.5 34.5q-59 0 -94.5 -32t-35.5 -82q0 -55 38 -87t143 -62zM265 19q69 0 111.5 37.5t42.5 99.5q0 61 -51 97.5t-152 66.5q-109 -40 -109 -153q0 -148 158 -148z" />
    <glyph glyph-name="nine" unicode="9" horiz-adv-x="508" 
d="M203 -18q-69 0 -112 32t-43 82q0 31 18 51t43 20t40 -20t15 -44q0 -14 -10 -28t-10 -24q0 -18 21 -26t42 -8q81 1 127 90t46 250v10q-30 -56 -75 -83.5t-93 -27.5q-80 0 -133.5 56.5t-53.5 145.5q0 97 64 165t157 68q108 0 168.5 -94.5t60.5 -227.5q0 -168 -74 -277.5
t-198 -109.5zM242 306q57 0 92.5 46.5t35.5 114.5q0 73 -33.5 130t-90.5 57q-61 0 -93 -47.5t-32 -133.5q0 -167 121 -167z" />
    <glyph glyph-name="colon" unicode=":" horiz-adv-x="206" 
d="M103 -15q-25 0 -42.5 19t-17.5 45t17.5 45t42.5 19t42.5 -19t17.5 -45t-17.5 -45t-42.5 -19zM103 340q-25 0 -42.5 19t-17.5 45t17.5 45t42.5 19t42.5 -19t17.5 -45t-17.5 -45t-42.5 -19z" />
    <glyph glyph-name="semicolon" unicode=";" horiz-adv-x="216" 
d="M103 340q-25 0 -42.5 19t-17.5 45t17.5 45t42.5 19t42.5 -19t17.5 -45t-17.5 -45t-42.5 -19zM53 -173l-21 28q44 31 69.5 67t25.5 67q0 16 -6 16q-2 0 -10.5 -4t-18.5 -4q-23 0 -36.5 18t-13.5 40q0 25 18 42.5t42 17.5q33 0 54 -29.5t21 -67.5q0 -54 -34 -104t-90 -87z
" />
    <glyph glyph-name="less" unicode="&#x3c;" 
d="M483 85l-459 153v50l459 153l16 -49l-397 -129l397 -129z" />
    <glyph glyph-name="equal" unicode="=" 
d="M502 327h-483v52h483v-52zM502 148h-483v52h483v-52z" />
    <glyph glyph-name="greater" unicode="&#x3e;" 
d="M41 85l-16 49l397 129l-397 129l16 49l459 -153v-50z" />
    <glyph glyph-name="question" unicode="?" horiz-adv-x="399" 
d="M169 -15q-25 0 -42.5 19t-17.5 45t17.5 45t42.5 19t42.5 -19t17.5 -45t-17.5 -45t-42.5 -19zM187 203h-36q0 61 13 106.5t31 72.5l36 51.5t31 56.5t13 73q0 57 -29.5 92t-72.5 35q-34 0 -63.5 -17t-29.5 -41q0 -13 7 -21.5t15.5 -13t15.5 -16t7 -28.5q0 -19 -17 -37
t-38 -18q-24 0 -42 21t-18 53q0 73 53 115.5t124 42.5q75 0 128.5 -50.5t53.5 -123.5q0 -42 -13.5 -75t-33.5 -52l-44 -41.5t-44 -43.5t-33.5 -57.5t-13.5 -83.5z" />
    <glyph glyph-name="at" unicode="@" horiz-adv-x="922" 
d="M480 -127q-122 0 -220.5 49t-158.5 148.5t-60 234.5q0 112 65.5 212t173.5 159.5t228 59.5q166 0 273 -91.5t107 -251.5q0 -72 -29.5 -144.5t-83.5 -122t-116 -49.5h-104q-9 0 -17 9t-8 20q0 6 14 81q-36 -57 -71.5 -83.5t-85.5 -26.5q-53 0 -88 47.5t-35 119.5
q0 108 75 190t167 82q34 0 62.5 -27t33.5 -76l30 97h68l-103 -360q-3 -11 -3 -22q0 -17 14 -21t61 -4q82 0 140.5 95t58.5 200q0 77 -30 139t-79.5 100.5t-111 59t-126.5 20.5q-114 0 -212.5 -58t-156.5 -157.5t-58 -216.5q0 -174 106.5 -281t277.5 -107q90 0 166 26.5
t160 79.5l9 -15q-90 -58 -162 -86.5t-171 -28.5zM407 106q68 0 123.5 89t55.5 188q0 46 -23 80.5t-55 34.5q-68 0 -125.5 -95.5t-57.5 -188.5q0 -47 22 -77.5t60 -30.5z" />
    <glyph glyph-name="A" unicode="A" horiz-adv-x="662" 
d="M414 280l-113 303l-112 -303h225zM696 0h-301v44l63 4q31 2 31 21q0 9 -4 20l-53 142h-261l-31 -84q-8 -24 -8 -40q0 -63 98 -63v-44h-234v44q31 4 50 23.5t34 59.5l231 606h40l241 -647q9 -24 20 -31t35 -9l49 -2v-44z" />
    <glyph glyph-name="B" unicode="B" horiz-adv-x="675" 
d="M366 0h-315v44l89 5v589q0 35 -27 36l-82 4v44h321q114 0 184 -43t70 -128q0 -69 -44.5 -113.5t-113.5 -55.5v-6q89 -10 143 -61t54 -123q0 -94 -71.5 -143t-207.5 -49zM341 396q73 0 116 31.5t43 112.5q0 77 -32.5 109t-119.5 32l-109 -1v-284h102zM343 41
q107 0 147 31.5t40 123.5q0 77 -42.5 115t-141.5 38h-107v-271q0 -18 8.5 -25.5t26.5 -9.5t69 -2z" />
    <glyph glyph-name="C" unicode="C" horiz-adv-x="623" 
d="M339 -20q-94 0 -166.5 56t-107.5 137t-35 168q0 90 27.5 166.5t71.5 125t97.5 76t107.5 27.5q92 0 170 -70l26 64h29l33 -285l-35 -5q-24 114 -83 183.5t-140 69.5q-88 0 -137 -87t-49 -252q0 -328 207 -328q80 0 136 59.5t73 165.5l39 -6q-15 -118 -83.5 -191.5
t-180.5 -73.5z" />
    <glyph glyph-name="D" unicode="D" horiz-adv-x="711" 
d="M355 0h-318v44l92 5v589q0 34 -27 35l-98 5v44h337q161 0 245 -100t84 -249q0 -101 -27.5 -176.5t-74 -116.5t-100 -60.5t-113.5 -19.5zM332 41q128 0 176 78t48 252q0 150 -50 230t-169 80l-109 -1v-602q0 -18 8.5 -25.5t26.5 -9.5t69 -2z" />
    <glyph glyph-name="E" unicode="E" horiz-adv-x="669" 
d="M592 0h-544v44l92 5v589q0 35 -30 36l-96 4v44h566l26 -248l-33 -3q-11 66 -30 108.5t-48 65t-61.5 30.5t-80.5 8q-67 0 -114 -3v-284h7q82 0 112.5 28.5t41.5 112.5h37v-336h-38q-4 49 -12 78t-26.5 45.5t-42.5 22t-65 5.5h-14v-273q0 -18 8.5 -25.5t26.5 -9.5
q40 -4 75 -4q110 0 159.5 50t77.5 184l33 -3l-10 -255q0 -16 -17 -16z" />
    <glyph glyph-name="F" unicode="F" horiz-adv-x="631" 
d="M366 0h-316v44l90 5v589q0 35 -27 36l-82 4v44h533q16 0 16 -14l27 -234l-33 -3q-22 126 -73 169t-148 43q-67 0 -114 -3v-284h7q49 0 79.5 8t47 28t23 42t11.5 63h37v-336h-38q-7 93 -39 121.5t-114 29.5h-14v-270q0 -18 8.5 -25.5t26.5 -8.5l92 -4v-44z" />
    <glyph glyph-name="G" unicode="G" horiz-adv-x="700" 
d="M612 -21h-34l-38 106q-34 -49 -80.5 -77t-127.5 -28q-71 0 -130 32.5t-95.5 85t-56.5 116t-20 127.5q0 89 29 166t75 125.5t101 76t109 27.5q109 0 178 -70l30 64h29l29 -276l-35 -4q-24 112 -84 177.5t-145 65.5q-89 0 -144.5 -88t-55.5 -251q0 -175 49 -251.5
t148 -76.5q53 0 88.5 17t53 48.5t24.5 66t7 80.5q0 42 -40 43l-88 4v44h312v-44l-95 -5q0 -195 7 -301z" />
    <glyph glyph-name="H" unicode="H" horiz-adv-x="785" 
d="M768 0h-311v44l89 4v302h-307v-268q0 -18 8.5 -25.5t26.5 -8.5l87 -4v-44h-310v44l89 5v589q0 35 -27 36l-93 4v44h309v-44l-90 -5v-270h307v235q0 35 -27 36l-92 4v44h311v-44l-93 -5v-591q0 -19 8.5 -26.5t26.5 -8.5l88 -3v-44z" />
    <glyph glyph-name="I" unicode="I" horiz-adv-x="379" 
d="M362 0h-311v44l89 5v589q0 35 -27 36l-92 4v44h310v-44l-92 -5v-591q0 -18 8.5 -25.5t26.5 -8.5l88 -4v-44z" />
    <glyph glyph-name="J" unicode="J" horiz-adv-x="527" 
d="M193 -18q-92 0 -137.5 47.5t-45.5 117.5q0 59 26 93t69 34q33 0 50.5 -21t17.5 -48q0 -31 -19 -49.5t-43 -18.5q-9 0 -18 3t-13 3q-8 0 -14 -8.5t-6 -21.5t8.5 -32t35.5 -38.5t67 -19.5q139 0 139 194v421q0 35 -27 36l-101 4v44h318v-44l-91 -5v-456q0 -105 -53 -170
t-163 -65z" />
    <glyph glyph-name="K" unicode="K" horiz-adv-x="733" 
d="M769 0h-331v44q54 1 73.5 4.5t19.5 15.5q0 9 -11 26l-176 278l-105 -120v-166q0 -18 8.5 -25.5t26.5 -8.5l85 -4v-44h-310v44l91 5v589q0 35 -27 36l-95 4v44h311v-44l-90 -5v-359l261 299l1 1q14 18 14 32q0 32 -109 32v44h302v-44q-49 0 -83 -18t-93 -81
q-29 -30 -120 -134l119.5 -187.5t114.5 -176.5q13 -19 38.5 -27t84.5 -10v-44z" />
    <glyph glyph-name="L" unicode="L" horiz-adv-x="628" 
d="M586 0h-537v44l91 5v589q0 35 -27 36l-94 4v44h317v-44l-97 -5v-594q0 -18 8.5 -25.5t26.5 -9.5q40 -4 75 -4q109 0 155.5 49.5t75.5 184.5l33 -3l-10 -255q0 -16 -17 -16z" />
    <glyph glyph-name="M" unicode="M" horiz-adv-x="898" 
d="M877 0h-317v44l99 5v607h-5l-208 -656h-37l-212 654h-7v-446q0 -56 3.5 -83.5t20.5 -46t41 -24t75 -10.5v-44h-292v44q71 6 86.5 33t15.5 125v436q0 35 -27 36l-96 4v44h261l178 -540l170 540h221v-44l-89 -5v-591q0 -18 8.5 -25.5t26.5 -8.5l84 -4v-44z" />
    <glyph glyph-name="N" unicode="N" horiz-adv-x="754" 
d="M634 -6h-38l-409 601v-387q0 -39 1 -61.5t7 -42t13 -28.5t24.5 -16.5t35.5 -10t52 -5.5v-44h-275v44q65 4 80 30.5t15 127.5v436q-24 36 -69 38l-48 2v44h198l365 -529v327q0 38 -1.5 62.5t-9 42t-14 26.5t-25 15t-33 8t-47.5 4v44h275v-44q-68 -7 -82.5 -33.5
t-14.5 -130.5v-520z" />
    <glyph glyph-name="O" unicode="O" horiz-adv-x="692" 
d="M346 -18q-131 0 -223.5 109.5t-92.5 263.5t92.5 264t223.5 110q130 0 223 -110t93 -264t-92.5 -263.5t-223.5 -109.5zM345 22q103 0 151.5 88t48.5 245t-48.5 245.5t-151.5 88.5q-198 0 -198 -334q0 -333 198 -333z" />
    <glyph glyph-name="P" unicode="P" horiz-adv-x="635" 
d="M341 367q33 0 54 2.5t44.5 11t36.5 25t22 45.5t9 71q0 51 -13.5 84.5t-38.5 49t-49.5 20.5t-57.5 5l-109 -1v-313h102zM366 0h-316v44l90 5v589q0 35 -27 36l-93 4v44h332q115 0 189 -50t74 -146q0 -103 -73.5 -152t-189.5 -49h-113v-243q0 -18 8.5 -25.5t26.5 -8.5
l92 -4v-44z" />
    <glyph glyph-name="Q" unicode="Q" horiz-adv-x="692" 
d="M719 -178h-130q-72 0 -109 41.5t-38 136.5q-46 -18 -96 -18q-131 0 -223.5 109.5t-92.5 263.5t92.5 264t223.5 110q130 0 223 -110t93 -264q0 -96 -39 -179t-105 -134l4 -12q45 -133 84 -150q24 -11 113 -11v-47zM497 100q47 77 47 255q0 157 -48.5 245.5t-150.5 88.5
t-150.5 -88.5t-48.5 -245.5q0 -199 73 -281q-10 23 -10 50q0 56 35 95t95 39q57 0 92 -37t66 -121zM345 20q51 0 96 24q-3 85 -26 130t-74 45q-45 0 -72.5 -28.5t-27.5 -69.5q0 -97 104 -101z" />
    <glyph glyph-name="R" unicode="R" horiz-adv-x="690" 
d="M330 396q29 0 46 1t43.5 8.5t41 21t26 41.5t11.5 67q0 86 -35 116t-115 30l-109 -1v-284h91zM572 -10q-56 0 -87.5 42.5t-35.5 151.5q-2 56 -15 91.5t-37.5 52t-48 21.5t-59.5 5h-50v-272q0 -18 8.5 -25.5t26.5 -8.5l88 -4v-44h-314v44l92 5v589q0 35 -27 36l-96 4v44
h335q116 0 185.5 -43.5t69.5 -139.5q0 -69 -59 -120t-143 -51v-6q57 -11 90.5 -49.5t49.5 -116.5q30 -139 64 -139q18 0 28.5 29.5t10.5 75.5l32 -2q0 -83 -28 -126.5t-80 -43.5z" />
    <glyph glyph-name="S" unicode="S" horiz-adv-x="567" 
d="M316 -18q-57 0 -111.5 24.5t-81.5 51.5l-33 -68h-31l-27 283l36 2q15 -102 85.5 -175.5t155.5 -73.5q75 0 117.5 40t42.5 95q0 25 -6.5 45.5t-22.5 35t-29.5 24.5t-41.5 19t-43.5 13t-49.5 12q-36 8 -56.5 14t-51.5 17.5t-49 26t-36.5 36t-27 51.5t-8.5 68q0 86 55.5 149
t151.5 63q98 0 171 -65l35 59h31l26 -258l-33 -4q-24 98 -85 163.5t-146 65.5q-64 0 -100.5 -37t-36.5 -87q0 -28 11 -49t24 -33.5t42.5 -24t47 -16t56.5 -13.5l13 -3q43 -10 68.5 -17.5t61 -24.5t55 -38.5t34 -58t14.5 -84.5q0 -102 -67 -165t-160 -63z" />
    <glyph glyph-name="T" unicode="T" horiz-adv-x="623" 
d="M492 0h-328v44l98 5v595q0 26 -9.5 34t-30.5 8q-149 0 -174 -236l-33 3l15 298h27q15 -29 38 -29h433q24 0 38 29h27l15 -298l-33 -3q-25 236 -174 236q-21 0 -30.5 -8t-9.5 -34v-555q0 -18 13 -29t31 -12l87 -4v-44z" />
    <glyph glyph-name="U" unicode="U" horiz-adv-x="761" 
d="M382 -19q-257 0 -257 251v406q0 35 -27 36l-88 4v44h308v-44l-94 -5v-416q0 -100 43 -163t136 -63q99 0 143.5 62t44.5 193q0 100 -1 171t-1 85q0 46 -6 73.5t-23 41t-38 17.5t-59 4v44h264v-44q-53 0 -70.5 -23t-17.5 -92q0 -41 1 -121t1 -153q0 -47 -4.5 -85
t-20.5 -81.5t-43 -73t-76 -49t-115 -19.5z" />
    <glyph glyph-name="V" unicode="V" horiz-adv-x="646" 
d="M352 -11h-41l-242 647q-9 24 -20.5 31.5t-34.5 8.5l-49 2v44h292v-44l-54 -2q-31 -2 -31 -23q0 -9 4 -20l182 -488l153 430q10 30 10 46q0 30 -24.5 43.5t-89.5 13.5v44h246v-44q-36 -4 -52 -20.5t-32 -62.5z" />
    <glyph glyph-name="W" unicode="W" horiz-adv-x="967" 
d="M708 -11h-41l-169 524l-161 -524h-42l-210 647q-12 37 -58 39l-63 3v44h288v-44l-33 -2q-17 -1 -24.5 -5t-7.5 -15q0 -10 5 -23l149 -467l133 417l-18 58q-11 32 -57 34l-70 3v44h295v-44l-36 -3q-30 -3 -30 -24q0 -9 5 -24l149 -463l123 411q7 21 7 43q0 60 -112 60v44
h246v-44q-36 -3 -54 -21.5t-35 -73.5z" />
    <glyph glyph-name="X" unicode="X" horiz-adv-x="667" 
d="M693 0h-307v44l38 3q31 3 31 19q0 12 -8 23l-142 226l-113 -184q-12 -19 -12 -43q0 -44 94 -44v-44h-270v44q77 9 125 82l149 231l-182 280q-25 38 -66 39l-52 2v44h298v-44l-40 -2q-27 -1 -27 -20q0 -9 10 -23l123 -190l104 163q12 20 12 34q0 20 -21.5 29t-72.5 9v44
h260v-44q-48 -5 -71 -19.5t-54 -62.5l-129 -198l200 -313q12 -18 21 -25.5t16.5 -9.5t28.5 -3l57 -3v-44z" />
    <glyph glyph-name="Y" unicode="Y" horiz-adv-x="632" 
d="M510 0h-327v44l96 5v243l-211 351q-11 19 -31.5 26.5t-72.5 8.5v44h303v-44l-51 -2q-31 -1 -31 -20q0 -13 13 -35l158 -261l122 235q9 18 9 38q0 22 -22.5 33.5t-87.5 11.5v44h262v-44q-31 -4 -44 -7.5t-30.5 -20.5t-35.5 -52l-151 -291v-225q0 -18 8.5 -25.5t26.5 -8.5
l97 -4v-44z" />
    <glyph glyph-name="Z" unicode="Z" horiz-adv-x="581" 
d="M524 -29h-27q-15 29 -38 29h-427v33l387 645q-62 5 -96 5q-113 0 -160.5 -45t-66.5 -167l-36 3l15 277h27q14 -29 38 -29h401v-32l-390 -644q84 -7 126 -7q110 0 162.5 48t79.5 187l36 -5z" />
    <glyph glyph-name="bracketleft" unicode="[" horiz-adv-x="399" 
d="M328 -110h-221v825h221v-34h-155v-757h155v-34z" />
    <glyph glyph-name="backslash" unicode="\" horiz-adv-x="435" 
d="M373 -228l-359 980l47 17l359 -980z" />
    <glyph glyph-name="bracketright" unicode="]" horiz-adv-x="399" 
d="M292 -110h-221v34h155v757h-155v34h221v-825z" />
    <glyph glyph-name="asciicircum" unicode="^" horiz-adv-x="516" 
d="M387 390l-129 270l-129 -270l-49 24l153 307h50l153 -307z" />
    <glyph glyph-name="underscore" unicode="_" 
d="M502 -103h-483v52h483v-52z" />
    <glyph glyph-name="grave" unicode="`" horiz-adv-x="480" 
d="M308 517l-149 87q-20 13 -20 37q0 18 13 31t31 13t31 -13l108 -139z" />
    <glyph glyph-name="a" unicode="a" horiz-adv-x="486" 
d="M410 -10q-42 0 -62.5 22t-29.5 60h-5q-15 -31 -55.5 -61t-93.5 -30q-137 0 -137 115q0 65 73 114t211 66v55q0 43 -24 69.5t-69 26.5q-27 0 -48.5 -8t-31 -17t-9.5 -15q0 -5 12.5 -19.5t12.5 -37.5q0 -22 -15 -35t-34 -13q-20 0 -37 15.5t-17 44.5q0 45 48 84.5t142 39.5
q151 0 151 -142q0 -64 -1 -120t-1 -74q0 -39 11 -64t29 -25q10 0 20.5 8t16.5 8q12 0 12 -18t-18.5 -33.5t-50.5 -15.5zM181 26q56 0 93 40t37 122v52q-101 -13 -147 -44.5t-46 -91.5q0 -34 16.5 -56t46.5 -22z" />
    <glyph glyph-name="b" unicode="b" horiz-adv-x="535" 
d="M306 -15q-101 0 -154 89l-43 -91h-26q11 88 11 211v412q0 27 -8 36.5t-38 9.5h-50v37q65 0 145 39h29v-355q19 42 57 69t89 27q78 0 132.5 -64.5t54.5 -167.5q0 -62 -20.5 -118t-67.5 -95t-111 -39zM298 21q114 0 114 204q0 104 -31 151.5t-83 47.5q-54 0 -89.5 -43.5
t-35.5 -140.5q0 -219 125 -219z" />
    <glyph glyph-name="c" unicode="c" horiz-adv-x="444" 
d="M238 -17q-92 0 -149.5 65.5t-57.5 171.5q0 110 63.5 181t163.5 71q64 0 106 -37.5t42 -80.5q0 -28 -16 -48t-39 -20t-38 17.5t-15 36.5q0 20 12.5 35t12.5 20q0 17 -24 29t-46 12q-64 0 -96.5 -56t-32.5 -147q0 -94 33 -147t100 -53q44 0 77.5 28t47.5 76l34 -10
q-44 -144 -178 -144z" />
    <glyph glyph-name="d" unicode="d" horiz-adv-x="533" 
d="M231 33q59 0 95 49.5t36 145.5q0 101 -33 149t-84 48q-57 0 -89.5 -52t-32.5 -155q0 -86 29 -135.5t79 -49.5zM539 0q-126 0 -169 -4l-7 91q-21 -41 -60 -69.5t-84 -28.5q-82 0 -135.5 64.5t-53.5 172.5q0 106 60.5 176t135.5 70q84 0 136 -97v231q0 27 -8 36.5t-38 9.5
h-51v37q65 0 145 39h29v-633q0 -35 14.5 -46t57.5 -11h28v-38z" />
    <glyph glyph-name="e" unicode="e" horiz-adv-x="463" 
d="M250 -18q-100 0 -160 66.5t-60 180.5q0 101 63.5 171t151.5 70q87 0 137.5 -55.5t50.5 -154.5l-308 -44q0 -183 132 -183q103 0 143 111l35 -16q-17 -56 -68.5 -101t-116.5 -45zM127 256l181 26q32 4 32 33q0 53 -24 85t-71 32q-58 0 -88 -50.5t-30 -125.5z" />
    <glyph glyph-name="f" unicode="f" horiz-adv-x="299" 
d="M294 0h-258v38l64 4v370h-102v46h102v18q0 68 16.5 119.5t43 79t54.5 40.5t56 13q46 0 76.5 -29t30.5 -62q0 -29 -14 -47.5t-34 -18.5q-24 0 -37.5 14t-13.5 37q0 19 12.5 31.5t12.5 18.5q0 8 -9.5 13t-20.5 5q-42 0 -66.5 -47.5t-24.5 -142.5q0 -27 1 -42h96v-46h-96
v-328q0 -41 39 -43l72 -3v-38z" />
    <glyph glyph-name="g" unicode="g" horiz-adv-x="509" 
d="M17 -107q0 16 -16 16h-39v32l137 18v-45q0 -76 114 -76q80 0 123.5 23t43.5 61t-24.5 56t-83.5 18q-9 0 -61 -1.5t-65 -1.5q-52 0 -81.5 26t-29.5 64q0 32 25.5 62.5t78.5 33.5q-47 13 -72.5 49t-25.5 84q0 62 53 108.5t129 46.5q79 0 123 -40q20 19 31.5 28t31 18.5
t38.5 9.5q21 0 35.5 -14.5t14.5 -36.5q0 -21 -11.5 -35.5t-28.5 -14.5q-19 0 -31 10t-12 24q0 11 -8 11q-6 0 -18.5 -6.5t-17.5 -15.5q34 -36 34 -98q0 -60 -49.5 -107t-122.5 -47q-13 0 -27.5 0.5t-18.5 0.5q-51 0 -71 -10.5t-20 -33.5q0 -35 52 -35q15 0 78 2t88 2
q67 0 100 -35t33 -83q0 -65 -55.5 -112t-168.5 -47q-114 0 -159.5 24t-45.5 67zM224 187q44 0 69 33.5t25 93.5q0 54 -26.5 86.5t-66.5 32.5q-42 0 -67 -31t-25 -92q0 -59 23.5 -91t67.5 -32z" />
    <glyph glyph-name="h" unicode="h" horiz-adv-x="565" 
d="M558 0h-228v38l60 4v241q0 54 -25.5 89.5t-69.5 35.5q-49 0 -81.5 -40.5t-32.5 -110.5v-182q0 -19 6.5 -26t24.5 -8l61 -3v-38h-231v38l58 4v564q0 27 -8 36.5t-38 9.5h-50v37q65 0 145 39h32v-353q64 90 150 90q68 0 104 -45.5t36 -124.5v-220q0 -18 6.5 -25.5
t24.5 -8.5l56 -3v-38z" />
    <glyph glyph-name="i" unicode="i" horiz-adv-x="276" 
d="M135 599q-24 0 -40.5 17.5t-16.5 43.5t16.5 43.5t40.5 17.5t41 -18t17 -43t-17 -43t-41 -18zM267 0h-230v38l63 4v301q0 27 -8 36.5t-38 9.5h-50v37q65 0 145 39h33v-390q0 -19 6.5 -25.5t24.5 -8.5l54 -3v-38z" />
    <glyph glyph-name="j" unicode="j" horiz-adv-x="262" 
d="M135 599q-24 0 -40.5 17.5t-16.5 43.5t16.5 43.5t40.5 17.5t41 -18t17 -43t-17 -43t-41 -18zM31 -193q-25 0 -46 16.5t-21 41.5q0 22 13 37t34 15q15 0 26.5 -9t11.5 -22q0 -25 19 -25q21 0 26.5 43.5t5.5 142.5v296q0 27 -8 36.5t-38 9.5h-50v37q65 0 145 39h33v-408
q0 -109 -42 -179.5t-109 -70.5z" />
    <glyph glyph-name="k" unicode="k" horiz-adv-x="543" 
d="M553 0h-244v38l26 1q23 1 23 14q0 8 -7 17l-111 164l-58 -54v-106q0 -19 6.5 -25.5t24.5 -7.5l61 -3v-38h-232v38l58 4v564q0 27 -8 36.5t-38 9.5h-50v37q65 0 145 39h33v-496l122 120q30 30 30 41q0 7 -5.5 12t-17 7.5t-19.5 3.5t-24 2t-19 1v39h246v-40
q-39 -1 -67.5 -17t-62.5 -48l-65 -62l155 -228q15 -21 42 -22l56 -3v-38z" />
    <glyph glyph-name="l" unicode="l" horiz-adv-x="276" 
d="M274 0h-234v38l60 4v564q0 27 -8 36.5t-38 9.5h-50v37q65 0 145 39h33v-653q0 -19 6.5 -26t24.5 -8l61 -3v-38z" />
    <glyph glyph-name="m" unicode="m" horiz-adv-x="825" 
d="M825 0h-235v38l61 4v239q0 55 -25 90t-65 35q-45 0 -75.5 -39t-30.5 -112v-180q0 -18 6.5 -25.5t24.5 -8.5l63 -3v-38h-233v38l59 4v239q0 56 -21.5 90.5t-60.5 34.5q-47 0 -79 -41.5t-32 -109.5v-180q0 -19 6.5 -26t24.5 -8l61 -3v-38h-233v38l59 4v301q0 27 -8 36.5
t-38 9.5h-50v37q57 0 137 39h33v-113q57 113 148 113q94 0 124 -99q60 99 149 99q65 0 100.5 -47.5t35.5 -124.5v-218q0 -18 6.5 -25.5t24.5 -8.5l63 -3v-38z" />
    <glyph glyph-name="n" unicode="n" horiz-adv-x="558" 
d="M175 465v-113q57 113 150 113q68 0 103.5 -45t35.5 -125v-220q0 -18 6.5 -25.5t24.5 -8.5l60 -3v-38h-234v38l62 4v241q0 55 -22.5 90t-65.5 35q-44 0 -79 -43.5t-35 -107.5v-182q0 -19 6.5 -26t24.5 -8l60 -3v-38h-232v38l60 4v301q0 27 -8 36.5t-38 9.5h-40v37
q48 0 128 39h33z" />
    <glyph glyph-name="o" unicode="o" horiz-adv-x="493" 
d="M246 -19q-90 0 -153 71.5t-63 172.5t63 172.5t153 71.5t153.5 -71.5t63.5 -172.5t-63.5 -172.5t-153.5 -71.5zM244 22q59 0 89.5 55.5t30.5 147.5t-30.5 148t-89.5 56t-89 -56t-30 -148t30 -147.5t89 -55.5z" />
    <glyph glyph-name="p" unicode="p" horiz-adv-x="534" 
d="M280 -194h-246v38l60 4v495q0 27 -8 36.5t-38 9.5h-51v37q76 8 139 39h33v-98q32 53 68 75.5t89 22.5q79 0 128.5 -69t49.5 -161q0 -107 -57 -178t-134 -71q-93 0 -137 89v-194q0 -19 6.5 -26t24.5 -8l73 -3v-38zM297 31q58 0 85.5 54.5t27.5 147.5q0 105 -33 147t-78 42
q-54 0 -89 -50t-35 -149q0 -87 32 -139.5t90 -52.5z" />
    <glyph glyph-name="q" unicode="q" horiz-adv-x="516" 
d="M532 -193h-236v38l63 4v228q-47 -90 -145 -90q-80 0 -132 64.5t-52 174.5q0 98 58 169t149 71q82 0 150 -79l41 80l23 -3q-15 -99 -15 -158v-432q0 -24 36 -26l60 -3v-38zM239 33q60 0 91 52t31 145q0 197 -116 197q-58 0 -89.5 -50.5t-31.5 -150.5q0 -193 115 -193z" />
    <glyph glyph-name="r" unicode="r" horiz-adv-x="408" 
d="M289 0h-256v38l68 4q0 149 -4 301q-1 27 -8.5 36.5t-37.5 9.5h-53v37q58 4 130 39h33l5 -171l5 -1q24 86 58.5 131.5t87.5 45.5q28 0 53 -23.5t25 -56.5q0 -29 -15 -49t-37 -20q-26 0 -40.5 16t-14.5 37q0 18 10 31t10 16q0 5 -6 5q-28 0 -56.5 -41t-47 -106t-18.5 -130
v-74q0 -19 8 -26t26 -8l75 -3v-38z" />
    <glyph glyph-name="s" unicode="s" horiz-adv-x="428" 
d="M235 -15q-75 0 -129 49l-19 -45h-29l-21 190h32q16 -62 62.5 -109t104.5 -47q46 0 73.5 21.5t27.5 59.5q0 17 -7.5 29.5t-16.5 20t-28.5 14t-31.5 9.5t-38 8q-31 6 -48.5 10.5t-44 16t-40 26t-24.5 39.5t-11 58q0 52 40.5 94t103.5 42q60 0 114 -45l16 39h29l21 -163
l-32 -3q-14 51 -54.5 92.5t-93.5 41.5q-39 0 -63.5 -18.5t-24.5 -52.5q0 -37 29.5 -52.5t105.5 -31.5q36 -8 58 -15t48 -23t38.5 -43t12.5 -66q0 -59 -45.5 -102.5t-114.5 -43.5z" />
    <glyph glyph-name="t" unicode="t" horiz-adv-x="368" 
d="M207 -16q-54 0 -84.5 27.5t-30.5 81.5v2l5 315h-89v37q72 8 97 54.5t36 153.5l41 2l-4 -199h132v-48h-133l-2 -285q0 -85 63 -85q30 0 48 24t23.5 52.5t5.5 62.5h31q4 -20 4 -43q0 -53 -36.5 -102.5t-106.5 -49.5z" />
    <glyph glyph-name="u" unicode="u" horiz-adv-x="552" 
d="M564 38v-38q-101 0 -181 -8l-5 78l-5 2q-58 -86 -134 -86q-144 0 -144 178q0 19 1.5 85.5t1.5 93.5t-8 36.5t-38 9.5h-26v37q47 0 127 39h33q-6 -126 -6 -264q0 -86 21.5 -119t64.5 -33q53 0 80.5 42.5t27.5 111.5v140q0 27 -8 36.5t-38 9.5h-50v37q65 0 145 39h33v-366
q0 -39 21.5 -50t86.5 -11z" />
    <glyph glyph-name="v" unicode="v" horiz-adv-x="477" 
d="M249 -16h-31l-173 407q-11 25 -32 26l-45 3v38h225v-38l-30 -2q-16 -1 -21.5 -4.5t-5.5 -14.5q0 -7 3 -14l116 -275l98 245q5 12 5 24q0 24 -17.5 32.5t-63.5 8.5v38h196v-38q-47 -1 -71 -59z" />
    <glyph glyph-name="w" unicode="w" horiz-adv-x="685" 
d="M482 -16h-27l-117 316l-113 -316h-28l-145 393q-14 39 -35 40l-48 3v38h202v-38l-17 -1q-20 -1 -20 -19q0 -8 2 -14l97 -259l84 227l-9 28q-11 36 -47 37l-29 1v38h209v-38l-25 -1q-27 -1 -27 -18q0 -7 3 -15l97 -260l81 223q5 12 5 27q0 44 -72 44v38h180v-38
q-44 -6 -65 -62z" />
    <glyph glyph-name="x" unicode="x" horiz-adv-x="534" 
d="M534 0h-238v38l26 2q27 1 27 14q0 10 -11 24l-86 112l-72 -93q-10 -11 -10 -26q0 -28 43 -31l32 -2v-38h-205v38q47 6 77 45l111 139l-127 169q-21 29 -87 29v38h225v-38h-7q-37 0 -37 -17q0 -8 7 -16l79 -105l70 86q11 12 11 26q0 21 -42 24l-32 2v38h205v-38
q-36 -6 -55.5 -19.5t-42.5 -41.5l-89 -110l145 -190q14 -17 42 -19l41 -2v-38z" />
    <glyph glyph-name="y" unicode="y" horiz-adv-x="470" 
d="M65 -195q-33 0 -57.5 21.5t-24.5 55.5q0 24 15.5 39.5t36.5 15.5t34 -16t13 -38q0 -26 15 -26q37 0 70 47.5t51 94.5l-168 380q-17 41 -82 41v38h222v-38q-26 0 -38.5 -3t-14.5 -6t-2 -10q0 -5 3 -11l125 -287l89 250q5 15 5 24q0 43 -82 43v38h191v-38q-43 -5 -69 -76
l-133 -351q-73 -188 -199 -188z" />
    <glyph glyph-name="z" unicode="z" horiz-adv-x="448" 
d="M380 -22h-22q-5 22 -18 22h-312v27l263 394h-107q-43 0 -69 -29t-40 -96l-28 1l19 185h23q11 -24 22 -24h274l8 -26l-260 -393h120q87 0 116 137l29 -3z" />
    <glyph glyph-name="braceleft" unicode="{" 
d="M414 -120q-56 0 -92.5 15t-54 45.5t-24 64t-6.5 83.5v86q0 54 -32 85.5t-96 31.5v38q64 0 96 31.5t32 85.5v86q0 50 6.5 83.5t24 64t54 45.5t92.5 15v-34q-64 0 -87.5 -29t-23.5 -105v-105q0 -143 -131 -155v-4q131 -12 131 -155v-105q0 -76 23.5 -105t87.5 -29v-34z" />
    <glyph glyph-name="bar" unicode="|" horiz-adv-x="435" 
d="M242 -222h-50v985h50v-985z" />
    <glyph glyph-name="braceright" unicode="}" 
d="M106 -120v34q64 0 87.5 29t23.5 105v105q0 143 131 155v4q-131 12 -131 155v105q0 76 -23.5 105t-87.5 29v34q56 0 92.5 -15t54 -45.5t24 -64t6.5 -83.5v-86q0 -54 32 -85.5t96 -31.5v-38q-64 0 -96 -31.5t-32 -85.5v-86q0 -50 -6.5 -83.5t-24 -64t-54 -45.5t-92.5 -15z
" />
    <glyph glyph-name="asciitilde" unicode="~" 
d="M360 200q-32 0 -113 40t-112 40q-46 0 -81 -62l-29 16q56 98 134 98q32 0 113 -40t112 -40q44 0 81 63l29 -17q-56 -98 -134 -98z" />
    <glyph glyph-name="uni00A0" unicode="&#xa0;" horiz-adv-x="224" 
 />
    <glyph glyph-name="exclamdown" unicode="&#xa1;" horiz-adv-x="226" 
d="M114 602q-25 0 -43 19t-18 46t17.5 45.5t43.5 18.5t43.5 -18.5t17.5 -45.5t-18 -46t-43 -19zM114 -12q-60 0 -60 90q0 41 6.5 79.5t15 70.5t15 107t6.5 180h36q0 -105 6.5 -180t15 -106.5t15 -70t6.5 -78.5q0 -41 -16 -66.5t-46 -25.5z" />
    <glyph glyph-name="cent" unicode="&#xa2;" horiz-adv-x="436" 
d="M264 -146h-40v130q-87 5 -140 69.5t-53 166.5q0 100 53 168.5t140 80.5v94h40v-91q62 -2 102 -39t40 -79q0 -28 -16 -48t-39 -20t-38 17.5t-15 36.5q0 20 12.5 35t12.5 20q0 15 -19 26t-40 14v-402q42 2 73 30t45 74l34 -10q-39 -130 -152 -142v-131zM224 36v396
q-50 -12 -75 -65.5t-25 -133.5q0 -173 100 -197z" />
    <glyph glyph-name="sterling" unicode="&#xa3;" horiz-adv-x="566" 
d="M374 -17q-68 0 -147 65q-48 -65 -113 -65q-37 0 -61 23.5t-24 57.5q0 36 25 60t59 24q38 0 97 -26q7 25 7 54q0 57 -32 153h-135v41h121q-29 85 -29 146q0 81 58 134.5t137 53.5q68 0 116 -40t48 -101q0 -34 -18.5 -56.5t-45.5 -22.5q-20 0 -37.5 15t-17.5 35
q0 21 11 33.5t23.5 15.5t23.5 10t11 19q0 21 -30 38t-75 17q-55 0 -88 -33.5t-33 -87.5q0 -14 1 -27.5t3.5 -28l4 -23.5t6 -25.5t6 -22.5t7.5 -25.5t7 -23.5h172v-41h-161q14 -58 14 -99q0 -65 -29 -129q74 -34 119 -34q107 0 126 94l33 -12q-16 -73 -61 -119.5t-99 -46.5z
M114 16q50 0 80 59q-50 41 -81 41q-22 0 -35 -14t-13 -34q0 -23 13.5 -37.5t35.5 -14.5z" />
    <glyph glyph-name="yen" unicode="&#xa5;" horiz-adv-x="699" 
d="M529 0h-327v44l113 5v212h-267v52h254l-76 127h-178v52h147l-91 151q-11 19 -31.5 26.5t-72.5 8.5v44h303v-44l-51 -3q-32 -2 -32 -19q0 -12 14 -35l158 -261l122 235q9 18 9 37q0 25 -25.5 35.5t-84.5 10.5v44h262v-44q-31 -4 -44 -7.5t-30.5 -20.5t-35.5 -52l-55 -106
h145v-52h-172l-66 -127h238v-52h-241v-179q0 -18 8.5 -25.5t26.5 -8.5l80 -4v-44z" />
    <glyph glyph-name="brokenbar" unicode="&#xa6;" horiz-adv-x="435" 
d="M242 320h-50v443h50v-443zM242 -222h-50v444h50v-444z" />
    <glyph glyph-name="section" unicode="&#xa7;" 
d="M245 -93q-57 0 -97.5 31.5t-40.5 71.5q0 24 15.5 39t36.5 15q19 0 34.5 -11.5t15.5 -29.5q0 -22 -16 -35.5t-16 -22.5q0 -17 23.5 -25t45.5 -8q37 0 62.5 20.5t25.5 50.5q0 33 -27 68.5t-66 66.5l-77.5 63t-65.5 70.5t-27 76.5q0 46 36 84.5t101 38.5h1q-89 74 -89 141
q0 50 42.5 89t107.5 39q57 0 92.5 -31t35.5 -72q0 -24 -15.5 -39t-36.5 -15q-19 0 -34.5 11.5t-15.5 29.5q0 22 16 35.5t16 22.5q0 17 -19.5 25t-39.5 8q-37 0 -60 -20t-23 -51q0 -33 27 -68.5t66 -66.5l77.5 -63t65.5 -70.5t27 -76.5q0 -56 -40 -89.5t-97 -33.5h-1
q89 -76 89 -141q0 -50 -45 -89t-110 -39zM310 202q32 0 52.5 19t20.5 48q0 56 -75 122q-60 54 -98 54q-32 0 -52.5 -19t-20.5 -48q0 -59 82 -129q57 -47 91 -47z" />
    <glyph glyph-name="dieresis" unicode="&#xa8;" horiz-adv-x="456" 
d="M146 538q-21 0 -36 16t-15 39t15 39t36 16t36 -16t15 -39t-15 -39t-36 -16zM310 538q-21 0 -36 16t-15 39t15 39t36 16t36 -16t15 -39t-15 -39t-36 -16z" />
    <glyph glyph-name="copyright" unicode="&#xa9;" horiz-adv-x="821" 
d="M411 -14q-145 0 -247.5 102.5t-102.5 247.5q0 144 102.5 246.5t247.5 102.5t247.5 -102.5t102.5 -246.5q0 -145 -102.5 -247.5t-247.5 -102.5zM411 6q137 0 233.5 97t96.5 233t-97 232.5t-233 96.5t-233 -96.5t-97 -232.5t96.5 -233t233.5 -97zM411 106q-104 0 -167 68.5
t-63 152.5q0 107 70 174t156 67q68 0 126 -42l18 38h22l29 -174l-26 -3q-18 69 -63 111.5t-106 42.5q-65 0 -101.5 -53t-36.5 -154q0 -199 154 -199q60 0 101 36t54 101l29 -4q-11 -72 -62 -117t-134 -45z" />
    <glyph glyph-name="ordfeminine" unicode="&#xaa;" horiz-adv-x="412" 
d="M343 392q-67 0 -82 60h-4q-12 -24 -42 -45.5t-72 -21.5q-51 0 -82 20.5t-31 63.5q0 49 58.5 86t167.5 50v36q0 31 -19 48.5t-55 17.5q-21 0 -36.5 -5t-21 -10t-5.5 -10q0 -4 10 -14.5t10 -27.5q0 -16 -14 -25.5t-29 -9.5q-16 0 -31.5 11.5t-15.5 32.5q0 33 38 62t113 29
q128 0 128 -104q0 -47 -0.5 -88t-0.5 -54q0 -29 8.5 -47t22.5 -18q9 0 17.5 6t12.5 6q9 0 9 -14q0 -13 -14.5 -24t-39.5 -11zM160 426q96 0 96 111v34q-80 -10 -113 -31t-33 -65q0 -49 50 -49z" />
    <glyph glyph-name="guillemotleft" unicode="&#xab;" horiz-adv-x="482" 
d="M406 43l-168 188l168 188l25 -15l-96 -173l96 -173zM225 43l-168 188l168 188l25 -15l-96 -173l96 -173z" />
    <glyph glyph-name="logicalnot" unicode="&#xac;" 
d="M476 95h-52v232h-405v52h457v-284z" />
    <glyph glyph-name="registered" unicode="&#xae;" horiz-adv-x="530" 
d="M265 277q-85 0 -144.5 59.5t-59.5 144.5q0 84 59.5 144t144.5 60t144.5 -60t59.5 -144q0 -85 -59.5 -144.5t-144.5 -59.5zM265 297q76 0 130 54t54 130t-54 129.5t-130 53.5t-130 -53.5t-54 -129.5t54 -130t130 -54zM256 499q65 0 65 46t-58 46l-36 -1v-91h29zM353 353
q-47 0 -51 69q-1 19 -5.5 31t-14.5 17t-18.5 6.5t-23.5 1.5h-13v-86q0 -11 13 -13l27 -1v-21h-117v21l32 2v195q0 12 -10 13l-22 2v21h118q101 0 101 -64q0 -24 -24 -42.5t-57 -18.5v-2q46 -8 57 -58q10 -43 20 -43q11 0 11 31l19 -1q0 -60 -42 -60z" />
    <glyph glyph-name="macron" unicode="&#xaf;" horiz-adv-x="322" 
d="M281 560h-244v62h244v-62z" />
    <glyph glyph-name="degree" unicode="&#xb0;" horiz-adv-x="402" 
d="M201 486q-53 0 -90 37t-37 90t37 90t90 37t90 -37t37 -90t-37 -90t-90 -37zM201 513q41 0 70.5 29.5t29.5 70.5t-29.5 70.5t-70.5 29.5t-70.5 -29.5t-29.5 -70.5t29.5 -70.5t70.5 -29.5z" />
    <glyph glyph-name="plusminus" unicode="&#xb1;" horiz-adv-x="562" 
d="M311 84h-59v157h-218v59h218v239h59v-239h218v-59h-218v-157zM529 0h-495v52h495v-52z" />
    <glyph glyph-name="twosuperior" unicode="&#xb2;" horiz-adv-x="426" 
d="M358 269q-72 3 -154 3q-63 0 -149 -4v26q41 55 103 111q39 36 60.5 58.5t43.5 58.5t22 67q0 30 -21 50t-56 20q-29 0 -59 -15t-30 -41q0 -11 15 -11q14 0 24.5 -12t10.5 -29q0 -12 -12.5 -25.5t-32.5 -13.5q-23 0 -39.5 18.5t-16.5 46.5q0 48 42 82t104 34
q68 0 107 -32.5t39 -82.5q0 -63 -76 -123l-32 -25q-86 -66 -121 -100q10 1 46 1h105q24 0 34 14.5t15 56.5h32l-1 -15q-3 -43 -3 -83v-35z" />
    <glyph glyph-name="threesuperior" unicode="&#xb3;" horiz-adv-x="426" 
d="M204 260q-67 0 -104 28.5t-37 74.5q0 25 14 40t37 15q17 0 29.5 -13t12.5 -26q0 -18 -19 -29t-19 -20q0 -18 24.5 -28t59.5 -10q40 0 63 22.5t23 67.5q0 90 -85 90q-5 0 -15.5 -3t-16.5 -3q-25 0 -25 21q0 9 7.5 14.5t15.5 5.5q10 0 18 -2.5t19 -2.5q35 0 53.5 22.5
t18.5 62.5q0 32 -16.5 51t-50.5 19q-32 0 -52.5 -9t-20.5 -22q0 -6 13.5 -17t13.5 -24t-12.5 -25t-27.5 -12q-44 0 -44 50q0 40 39 66.5t98 26.5q60 0 95 -28t35 -72q0 -70 -73 -102q44 -13 66.5 -42.5t22.5 -62.5q0 -54 -46.5 -89t-113.5 -35z" />
    <glyph glyph-name="acute" unicode="&#xb4;" horiz-adv-x="281" 
d="M63 517l-14 16l108 139q13 13 31 13t31 -13t13 -31q0 -24 -20 -37z" />
    <glyph glyph-name="uni00B5" unicode="&#xb5;" horiz-adv-x="600" 
d="M434 -14q-37 0 -57.5 26t-20.5 59q0 11 1 17l-5 2q-55 -104 -137 -104q-51 0 -82.5 31t-31.5 71h-6q-4 -28 -4 -62q0 -18 3 -61.5t3 -59.5q0 -86 -57 -86q-14 0 -26 11t-12 27q0 14 1 18q8 40 33.5 124.5t48.5 194.5l57 266l88 6l-56 -265q-8 -35 -8 -65q0 -40 21 -57.5
t52 -17.5q50 0 82.5 42.5t44.5 99.5l55 256l83 7l-71 -338q-3 -12 -3 -21q0 -21 10 -33t25 -12q10 0 18 2.5t19 10t21 26.5t19 48l31 -10q-27 -83 -58 -118t-81 -35z" />
    <glyph glyph-name="paragraph" unicode="&#xb6;" horiz-adv-x="443" 
d="M334 -68h-39v760h-74v-760h-39v523q-55 0 -94 39t-39 94t39 94.5t94 39.5h230v-30h-78v-760z" />
    <glyph glyph-name="periodcentered" unicode="&#xb7;" horiz-adv-x="210" 
d="M105 182q-26 0 -43.5 19t-17.5 47t18 47.5t43 19.5t43 -19.5t18 -47.5t-17.5 -47t-43.5 -19z" />
    <glyph glyph-name="cedilla" unicode="&#xb8;" horiz-adv-x="310" 
d="M156 -201q-67 0 -133 48l7 13q34 -15 54 -19.5t54 -4.5q35 0 54.5 12.5t19.5 30.5q0 31 -38 31q-22 0 -35 -10l-13 6v94h32v-70q21 7 41 7q34 0 55.5 -18.5t21.5 -43.5q0 -30 -32 -53t-88 -23z" />
    <glyph glyph-name="onesuperior" unicode="&#xb9;" horiz-adv-x="426" 
d="M341 272h-252v32l93 5v288q0 19 -21 19h-81v31q40 0 82.5 13.5t61.5 28.5h29q-5 -53 -5 -117v-243q0 -17 15 -19l78 -5v-33z" />
    <glyph glyph-name="ordmasculine" unicode="&#xba;" horiz-adv-x="406" 
d="M202 387q-69 0 -119.5 52t-50.5 124q0 73 50.5 125t119.5 52q70 0 121 -52t51 -125q0 -72 -51.5 -124t-120.5 -52zM202 416q45 0 67 40t22 107q0 68 -22 108t-67 40q-87 0 -87 -148q0 -147 87 -147z" />
    <glyph glyph-name="guillemotright" unicode="&#xbb;" horiz-adv-x="482" 
d="M257 43l-25 15l96 173l-96 173l25 15l168 -188zM76 43l-25 15l96 173l-96 173l25 15l168 -188z" />
    <glyph glyph-name="onequarter" unicode="&#xbc;" horiz-adv-x="903" 
d="M268 -22h-44l408 722h44zM828 0h-192v31l51 3q16 1 16 17v53h-184v32l222 282h31q-4 -44 -4 -92v-185h78v-36h-78v-51q0 -20 15 -20l45 -2v-32zM702 141v169l-133 -169h133zM315 272h-252v32l93 5v288q0 19 -21 19h-81v31q40 0 82.5 13.5t61.5 28.5h29q-5 -53 -5 -117
v-243q0 -17 15 -19l78 -5v-33z" />
    <glyph glyph-name="onehalf" unicode="&#xbd;" horiz-adv-x="903" 
d="M268 -22h-44l408 722h44zM836 -3q-72 3 -154 3q-63 0 -149 -4v26q41 55 103 111q39 36 60.5 58.5t43.5 58.5t22 67q0 30 -21 50t-56 20q-29 0 -59 -15t-30 -41q0 -11 15 -11q14 0 24.5 -12t10.5 -29q0 -12 -12.5 -25.5t-32.5 -13.5q-23 0 -39.5 18.5t-16.5 46.5
q0 48 42 82t104 34q68 0 107 -32.5t39 -82.5q0 -63 -76 -123l-32 -25q-86 -66 -121 -100q10 1 46 1h105q24 0 34 14.5t15 56.5h32l-1 -15q-3 -44 -3 -83v-35zM315 272h-252v32l93 5v288q0 19 -21 19h-81v31q40 0 82.5 13.5t61.5 28.5h29q-5 -53 -5 -117v-243q0 -17 15 -19
l78 -5v-33z" />
    <glyph glyph-name="threequarters" unicode="&#xbe;" horiz-adv-x="903" 
d="M268 -22h-44l408 722h44zM170 260q-67 0 -104 28.5t-37 74.5q0 25 14 40t37 15q17 0 29.5 -13t12.5 -26q0 -18 -19 -29t-19 -20q0 -18 24.5 -28t59.5 -10q40 0 63 22.5t23 67.5q0 90 -85 90q-5 0 -15.5 -3t-16.5 -3q-25 0 -25 21q0 9 7.5 14.5t15.5 5.5q10 0 18 -2.5
t19 -2.5q35 0 53.5 22.5t18.5 62.5q0 32 -16.5 51t-50.5 19q-32 0 -52.5 -9t-20.5 -22q0 -6 13.5 -17t13.5 -24t-12.5 -25t-27.5 -12q-44 0 -44 50q0 40 39 66.5t98 26.5q60 0 95 -28t35 -72q0 -70 -73 -102q44 -13 66.5 -42.5t22.5 -62.5q0 -54 -46.5 -89t-113.5 -35z
M828 0h-192v31l51 3q16 1 16 17v53h-184v32l222 282h31q-4 -44 -4 -92v-185h78v-36h-78v-51q0 -20 15 -20l45 -2v-32zM702 141v169l-133 -169h133z" />
    <glyph glyph-name="questiondown" unicode="&#xbf;" horiz-adv-x="399" 
d="M230 603q-25 0 -42.5 19t-17.5 45t17.5 45t42.5 19t42.5 -19t17.5 -45t-17.5 -45t-42.5 -19zM212 -14q-75 0 -128.5 50.5t-53.5 123.5q0 42 13.5 75t33.5 52l44 41.5t44 43.5t33.5 57.5t13.5 83.5h36q0 -61 -13 -106.5t-31 -72.5l-36 -51.5t-31 -56.5t-13 -73
q0 -57 29.5 -92t72.5 -35q34 0 63.5 17t29.5 41q0 13 -7 21.5t-15.5 13t-15.5 16t-7 28.5q0 19 17 37t38 18q24 0 42 -21t18 -53q0 -73 -53 -115.5t-124 -42.5z" />
    <glyph glyph-name="Agrave" unicode="&#xc0;" horiz-adv-x="662" 
d="M414 280l-113 303l-112 -303h225zM696 0h-301v44l63 4q31 2 31 21q0 9 -4 20l-53 142h-261l-31 -84q-8 -24 -8 -40q0 -63 98 -63v-44h-234v44q31 4 50 23.5t34 59.5l231 606h40l241 -647q9 -24 20 -31t35 -9l49 -2v-44zM381 758l-149 87q-20 13 -20 37q0 18 13 31t31 13
t31 -13l108 -139z" />
    <glyph glyph-name="Aacute" unicode="&#xc1;" horiz-adv-x="662" 
d="M414 280l-113 303l-112 -303h225zM696 0h-301v44l63 4q31 2 31 21q0 9 -4 20l-53 142h-261l-31 -84q-8 -24 -8 -40q0 -63 98 -63v-44h-234v44q31 4 50 23.5t34 59.5l231 606h40l241 -647q9 -24 20 -31t35 -9l49 -2v-44zM276 758l-14 16l108 139q13 13 31 13t31 -13
t13 -31q0 -24 -20 -37z" />
    <glyph glyph-name="Acircumflex" unicode="&#xc2;" horiz-adv-x="662" 
d="M414 280l-113 303l-112 -303h225zM696 0h-301v44l63 4q31 2 31 21q0 9 -4 20l-53 142h-261l-31 -84q-8 -24 -8 -40q0 -63 98 -63v-44h-234v44q31 4 50 23.5t34 59.5l231 606h40l241 -647q9 -24 20 -31t35 -9l49 -2v-44zM441 759l-110 104l-110 -104l-20 15l85 143
q6 12 17 12h56q10 0 16 -12l85 -143z" />
    <glyph glyph-name="Atilde" unicode="&#xc3;" horiz-adv-x="662" 
d="M414 280l-113 303l-112 -303h225zM696 0h-301v44l63 4q31 2 31 21q0 9 -4 20l-53 142h-261l-31 -84q-8 -24 -8 -40q0 -63 98 -63v-44h-234v44q31 4 50 23.5t34 59.5l231 606h40l241 -647q9 -24 20 -31t35 -9l49 -2v-44zM384 778q-25 0 -62 29.5t-57 29.5q-41 0 -53 -46
l-20 7q24 101 89 101q25 0 62 -29.5t57 -29.5q41 0 53 46l20 -7q-24 -101 -89 -101z" />
    <glyph glyph-name="Adieresis" unicode="&#xc4;" horiz-adv-x="662" 
d="M414 280l-113 303l-112 -303h225zM696 0h-301v44l63 4q31 2 31 21q0 9 -4 20l-53 142h-261l-31 -84q-8 -24 -8 -40q0 -63 98 -63v-44h-234v44q31 4 50 23.5t34 59.5l231 606h40l241 -647q9 -24 20 -31t35 -9l49 -2v-44zM247 779q-21 0 -36 16t-15 39t15 39t36 16t36 -16
t15 -39t-15 -39t-36 -16zM411 779q-21 0 -36 16t-15 39t15 39t36 16t36 -16t15 -39t-15 -39t-36 -16z" />
    <glyph glyph-name="Aring" unicode="&#xc5;" horiz-adv-x="662" 
d="M414 280l-113 303l-112 -303h225zM696 0h-301v44l63 4q31 2 31 21q0 9 -4 20l-53 142h-261l-31 -84q-8 -24 -8 -40q0 -63 98 -63v-44h-234v44q31 4 50 23.5t34 59.5l231 606h40l241 -647q9 -24 20 -31t35 -9l49 -2v-44zM332 768q-42 0 -72 30t-30 72t30 72t72 30t72 -30
t30 -72t-30 -72t-72 -30zM332 796q31 0 52.5 21.5t21.5 52.5t-21.5 52.5t-52.5 21.5t-52.5 -21.5t-21.5 -52.5t21.5 -52.5t52.5 -21.5z" />
    <glyph glyph-name="AE" unicode="&#xc6;" horiz-adv-x="1017" 
d="M488 321v354h-8l-209 -354h217zM940 0h-545v44l93 4v224h-246l-61 -103q-22 -35 -22 -60q0 -31 17 -48t70 -17v-44h-250v44q61 6 116 101l258 435q19 32 19 58q0 13 -10 24t-27 12l-64 4v44h640l26 -248l-33 -3q-11 66 -30 108.5t-48 65t-61.5 30.5t-80.5 8
q-67 0 -114 -3v-284h7q82 0 112.5 28.5t41.5 112.5h37v-336h-38q-4 49 -12 78t-26.5 45.5t-42.5 22t-65 5.5h-14v-273q0 -18 8.5 -25.5t26.5 -9.5q40 -4 75 -4q110 0 159.5 50t77.5 184l33 -3l-10 -255q0 -16 -17 -16z" />
    <glyph glyph-name="Ccedilla" unicode="&#xc7;" horiz-adv-x="623" 
d="M344 -201q-67 0 -133 48l7 13q34 -15 54 -19.5t54 -4.5q35 0 54.5 12.5t19.5 30.5q0 31 -38 31q-22 0 -35 -10l-13 6v75q-87 8 -153.5 64.5t-98.5 134.5t-32 161q0 90 27.5 166.5t71.5 125t97.5 76t107.5 27.5q92 0 170 -70l26 64h29l33 -285l-35 -5q-24 114 -83 183.5
t-140 69.5q-88 0 -137 -87t-49 -252q0 -328 207 -328q80 0 136 59.5t73 165.5l39 -6q-15 -116 -81.5 -189t-175.5 -76v-50q21 7 41 7q34 0 55.5 -18.5t21.5 -43.5q0 -30 -32 -53t-88 -23z" />
    <glyph glyph-name="Egrave" unicode="&#xc8;" horiz-adv-x="669" 
d="M592 0h-544v44l92 5v589q0 35 -30 36l-96 4v44h566l26 -248l-33 -3q-11 66 -30 108.5t-48 65t-61.5 30.5t-80.5 8q-67 0 -114 -3v-284h7q82 0 112.5 28.5t41.5 112.5h37v-336h-38q-4 49 -12 78t-26.5 45.5t-42.5 22t-65 5.5h-14v-273q0 -18 8.5 -25.5t26.5 -9.5
q40 -4 75 -4q110 0 159.5 50t77.5 184l33 -3l-10 -255q0 -16 -17 -16zM401 758l-149 87q-20 13 -20 37q0 18 13 31t31 13t31 -13l108 -139z" />
    <glyph glyph-name="Eacute" unicode="&#xc9;" horiz-adv-x="669" 
d="M592 0h-544v44l92 5v589q0 35 -30 36l-96 4v44h566l26 -248l-33 -3q-11 66 -30 108.5t-48 65t-61.5 30.5t-80.5 8q-67 0 -114 -3v-284h7q82 0 112.5 28.5t41.5 112.5h37v-336h-38q-4 49 -12 78t-26.5 45.5t-42.5 22t-65 5.5h-14v-273q0 -18 8.5 -25.5t26.5 -9.5
q40 -4 75 -4q110 0 159.5 50t77.5 184l33 -3l-10 -255q0 -16 -17 -16zM296 758l-14 16l108 139q13 13 31 13t31 -13t13 -31q0 -24 -20 -37z" />
    <glyph glyph-name="Ecircumflex" unicode="&#xca;" horiz-adv-x="669" 
d="M592 0h-544v44l92 5v589q0 35 -30 36l-96 4v44h566l26 -248l-33 -3q-11 66 -30 108.5t-48 65t-61.5 30.5t-80.5 8q-67 0 -114 -3v-284h7q82 0 112.5 28.5t41.5 112.5h37v-336h-38q-4 49 -12 78t-26.5 45.5t-42.5 22t-65 5.5h-14v-273q0 -18 8.5 -25.5t26.5 -9.5
q40 -4 75 -4q110 0 159.5 50t77.5 184l33 -3l-10 -255q0 -16 -17 -16zM461 759l-110 104l-110 -104l-20 15l85 143q6 12 17 12h56q10 0 16 -12l85 -143z" />
    <glyph glyph-name="Edieresis" unicode="&#xcb;" horiz-adv-x="669" 
d="M592 0h-544v44l92 5v589q0 35 -30 36l-96 4v44h566l26 -248l-33 -3q-11 66 -30 108.5t-48 65t-61.5 30.5t-80.5 8q-67 0 -114 -3v-284h7q82 0 112.5 28.5t41.5 112.5h37v-336h-38q-4 49 -12 78t-26.5 45.5t-42.5 22t-65 5.5h-14v-273q0 -18 8.5 -25.5t26.5 -9.5
q40 -4 75 -4q110 0 159.5 50t77.5 184l33 -3l-10 -255q0 -16 -17 -16zM267 779q-21 0 -36 16t-15 39t15 39t36 16t36 -16t15 -39t-15 -39t-36 -16zM431 779q-21 0 -36 16t-15 39t15 39t36 16t36 -16t15 -39t-15 -39t-36 -16z" />
    <glyph glyph-name="Igrave" unicode="&#xcc;" horiz-adv-x="379" 
d="M362 0h-311v44l89 5v589q0 35 -27 36l-92 4v44h310v-44l-92 -5v-591q0 -18 8.5 -25.5t26.5 -8.5l88 -4v-44zM240 758l-149 87q-20 13 -20 37q0 18 13 31t31 13t31 -13l108 -139z" />
    <glyph glyph-name="Iacute" unicode="&#xcd;" horiz-adv-x="379" 
d="M362 0h-311v44l89 5v589q0 35 -27 36l-92 4v44h310v-44l-92 -5v-591q0 -18 8.5 -25.5t26.5 -8.5l88 -4v-44zM135 758l-14 16l108 139q13 13 31 13t31 -13t13 -31q0 -24 -20 -37z" />
    <glyph glyph-name="Icircumflex" unicode="&#xce;" horiz-adv-x="379" 
d="M362 0h-311v44l89 5v589q0 35 -27 36l-92 4v44h310v-44l-92 -5v-591q0 -18 8.5 -25.5t26.5 -8.5l88 -4v-44zM300 759l-110 104l-110 -104l-20 15l85 143q6 12 17 12h56q10 0 16 -12l85 -143z" />
    <glyph glyph-name="Idieresis" unicode="&#xcf;" horiz-adv-x="379" 
d="M362 0h-311v44l89 5v589q0 35 -27 36l-92 4v44h310v-44l-92 -5v-591q0 -18 8.5 -25.5t26.5 -8.5l88 -4v-44zM106 779q-21 0 -36 16t-15 39t15 39t36 16t36 -16t15 -39t-15 -39t-36 -16zM270 779q-21 0 -36 16t-15 39t15 39t36 16t36 -16t15 -39t-15 -39t-36 -16z" />
    <glyph glyph-name="Eth" unicode="&#xd0;" horiz-adv-x="711" 
d="M681 373q0 -101 -27.5 -176.5t-74 -116.5t-100 -60.5t-113.5 -19.5h-318v44l92 5v295h-93v62h93v232q0 35 -27 36l-98 4v44h337q161 0 245 -100t84 -249zM567 371q0 150 -50 230t-169 80l-109 -1v-274h181v-62h-181v-266q0 -18 8.5 -25.5t26.5 -9.5t69 -2q128 0 176 78
t48 252z" />
    <glyph glyph-name="Ntilde" unicode="&#xd1;" horiz-adv-x="754" 
d="M634 -6h-38l-409 601v-387q0 -39 1 -61.5t7 -42t13 -28.5t24.5 -16.5t35.5 -10t52 -5.5v-44h-275v44q65 4 80 30.5t15 127.5v436q-24 36 -69 38l-48 2v44h198l365 -529v327q0 38 -1.5 62.5t-9 42t-14 26.5t-25 15t-33 8t-47.5 4v44h275v-44q-68 -7 -82.5 -33.5
t-14.5 -130.5v-520zM439 778q-25 0 -62 29.5t-57 29.5q-41 0 -53 -46l-20 7q24 101 89 101q25 0 62 -29.5t57 -29.5q41 0 53 46l20 -7q-24 -101 -89 -101z" />
    <glyph glyph-name="Ograve" unicode="&#xd2;" horiz-adv-x="692" 
d="M346 -18q-131 0 -223.5 109.5t-92.5 263.5t92.5 264t223.5 110q130 0 223 -110t93 -264t-92.5 -263.5t-223.5 -109.5zM345 22q103 0 151.5 88t48.5 245t-48.5 245.5t-151.5 88.5q-198 0 -198 -334q0 -333 198 -333zM397 758l-149 87q-20 13 -20 37q0 18 13 31t31 13
t31 -13l108 -139z" />
    <glyph glyph-name="Oacute" unicode="&#xd3;" horiz-adv-x="692" 
d="M346 -18q-131 0 -223.5 109.5t-92.5 263.5t92.5 264t223.5 110q130 0 223 -110t93 -264t-92.5 -263.5t-223.5 -109.5zM345 22q103 0 151.5 88t48.5 245t-48.5 245.5t-151.5 88.5q-198 0 -198 -334q0 -333 198 -333zM292 758l-14 16l108 139q13 13 31 13t31 -13t13 -31
q0 -24 -20 -37z" />
    <glyph glyph-name="Ocircumflex" unicode="&#xd4;" horiz-adv-x="692" 
d="M346 -18q-131 0 -223.5 109.5t-92.5 263.5t92.5 264t223.5 110q130 0 223 -110t93 -264t-92.5 -263.5t-223.5 -109.5zM345 22q103 0 151.5 88t48.5 245t-48.5 245.5t-151.5 88.5q-198 0 -198 -334q0 -333 198 -333zM457 759l-110 104l-110 -104l-20 15l85 143q6 12 17 12
h56q10 0 16 -12l85 -143z" />
    <glyph glyph-name="Otilde" unicode="&#xd5;" horiz-adv-x="692" 
d="M346 -18q-131 0 -223.5 109.5t-92.5 263.5t92.5 264t223.5 110q130 0 223 -110t93 -264t-92.5 -263.5t-223.5 -109.5zM345 22q103 0 151.5 88t48.5 245t-48.5 245.5t-151.5 88.5q-198 0 -198 -334q0 -333 198 -333zM400 778q-25 0 -62 29.5t-57 29.5q-41 0 -53 -46l-20 7
q24 101 89 101q25 0 62 -29.5t57 -29.5q41 0 53 46l20 -7q-24 -101 -89 -101z" />
    <glyph glyph-name="Odieresis" unicode="&#xd6;" horiz-adv-x="692" 
d="M346 -18q-131 0 -223.5 109.5t-92.5 263.5t92.5 264t223.5 110q130 0 223 -110t93 -264t-92.5 -263.5t-223.5 -109.5zM345 22q103 0 151.5 88t48.5 245t-48.5 245.5t-151.5 88.5q-198 0 -198 -334q0 -333 198 -333zM263 779q-21 0 -36 16t-15 39t15 39t36 16t36 -16
t15 -39t-15 -39t-36 -16zM427 779q-21 0 -36 16t-15 39t15 39t36 16t36 -16t15 -39t-15 -39t-36 -16z" />
    <glyph glyph-name="multiply" unicode="&#xd7;" horiz-adv-x="562" 
d="M443 67l-162 162l-163 -163l-41 42l162 163l-162 162l42 41l162 -162l161 162l42 -42l-161 -161l162 -162z" />
    <glyph glyph-name="Oslash" unicode="&#xd8;" horiz-adv-x="692" 
d="M346 -18q-100 0 -181 67l-63 -94l-34 22l67 100q-105 113 -105 278q0 154 92.5 264t223.5 110q97 0 180 -68l64 95l33 -22l-68 -101q50 -52 78.5 -124.5t28.5 -153.5q0 -154 -92.5 -263.5t-223.5 -109.5zM179 142l312 466q-50 81 -146 81q-102 0 -150.5 -88.5
t-48.5 -245.5q0 -134 33 -213zM345 22q199 0 199 333q0 133 -33 212l-312 -466q50 -79 146 -79z" />
    <glyph glyph-name="Ugrave" unicode="&#xd9;" horiz-adv-x="761" 
d="M382 -19q-257 0 -257 251v406q0 35 -27 36l-88 4v44h308v-44l-94 -5v-416q0 -100 43 -163t136 -63q99 0 143.5 62t44.5 193q0 100 -1 171t-1 85q0 46 -6 73.5t-23 41t-38 17.5t-59 4v44h264v-44q-53 0 -70.5 -23t-17.5 -92q0 -41 1 -121t1 -153q0 -47 -4.5 -85
t-20.5 -81.5t-43 -73t-76 -49t-115 -19.5zM441 758l-149 87q-20 13 -20 37q0 18 13 31t31 13t31 -13l108 -139z" />
    <glyph glyph-name="Uacute" unicode="&#xda;" horiz-adv-x="761" 
d="M382 -19q-257 0 -257 251v406q0 35 -27 36l-88 4v44h308v-44l-94 -5v-416q0 -100 43 -163t136 -63q99 0 143.5 62t44.5 193q0 100 -1 171t-1 85q0 46 -6 73.5t-23 41t-38 17.5t-59 4v44h264v-44q-53 0 -70.5 -23t-17.5 -92q0 -41 1 -121t1 -153q0 -47 -4.5 -85
t-20.5 -81.5t-43 -73t-76 -49t-115 -19.5zM367 758l-14 16l108 139q13 13 31 13t31 -13t13 -31q0 -24 -20 -37z" />
    <glyph glyph-name="Ucircumflex" unicode="&#xdb;" horiz-adv-x="761" 
d="M382 -19q-257 0 -257 251v406q0 35 -27 36l-88 4v44h308v-44l-94 -5v-416q0 -100 43 -163t136 -63q99 0 143.5 62t44.5 193q0 100 -1 171t-1 85q0 46 -6 73.5t-23 41t-38 17.5t-59 4v44h264v-44q-53 0 -70.5 -23t-17.5 -92q0 -41 1 -121t1 -153q0 -47 -4.5 -85
t-20.5 -81.5t-43 -73t-76 -49t-115 -19.5zM514 759l-110 104l-110 -104l-20 15l85 143q6 12 17 12h56q10 0 16 -12l85 -143z" />
    <glyph glyph-name="Udieresis" unicode="&#xdc;" horiz-adv-x="761" 
d="M382 -19q-257 0 -257 251v406q0 35 -27 36l-88 4v44h308v-44l-94 -5v-416q0 -100 43 -163t136 -63q99 0 143.5 62t44.5 193q0 100 -1 171t-1 85q0 46 -6 73.5t-23 41t-38 17.5t-59 4v44h264v-44q-53 0 -70.5 -23t-17.5 -92q0 -41 1 -121t1 -153q0 -47 -4.5 -85
t-20.5 -81.5t-43 -73t-76 -49t-115 -19.5zM320 779q-21 0 -36 16t-15 39t15 39t36 16t36 -16t15 -39t-15 -39t-36 -16zM484 779q-21 0 -36 16t-15 39t15 39t36 16t36 -16t15 -39t-15 -39t-36 -16z" />
    <glyph glyph-name="Yacute" unicode="&#xdd;" horiz-adv-x="632" 
d="M510 0h-327v44l96 5v243l-211 351q-11 19 -31.5 26.5t-72.5 8.5v44h303v-44l-51 -2q-31 -1 -31 -20q0 -13 13 -35l158 -261l122 235q9 18 9 38q0 22 -22.5 33.5t-87.5 11.5v44h262v-44q-31 -4 -44 -7.5t-30.5 -20.5t-35.5 -52l-151 -291v-225q0 -18 8.5 -25.5t26.5 -8.5
l97 -4v-44zM293 758l-14 16l108 139q13 13 31 13t31 -13t13 -31q0 -24 -20 -37z" />
    <glyph glyph-name="Thorn" unicode="&#xde;" horiz-adv-x="635" 
d="M507 372q0 51 -13.5 84.5t-38.5 49t-49.5 20.5t-57.5 5l-109 -1v-313h102q33 0 54 2.5t44.5 11t36.5 25t22 45.5t9 71zM362 0h-311v44l89 5v589q0 35 -27 36l-93 4v44h311v-44l-92 -5v-101h113q115 0 189 -50t74 -146q0 -103 -73.5 -152t-189.5 -49h-113v-93
q0 -18 8.5 -25.5t26.5 -8.5l88 -4v-44z" />
    <glyph glyph-name="germandbls" unicode="&#xdf;" horiz-adv-x="593" 
d="M388 -20q-53 0 -88 33t-35 74q0 35 17.5 56t45.5 21q20 0 35 -14t15 -30q0 -21 -15.5 -39t-15.5 -32q0 -18 12 -26.5t29 -8.5q40 0 60 56.5t20 140.5q0 107 -46 153t-149 46v45q62 0 92.5 25.5t30.5 89.5q0 55 -23.5 87t-69.5 32q-57 0 -88.5 -47.5t-31.5 -141.5v-416
q0 -41 39 -44l22 -2v-38h-202v38l58 4v434q0 116 58 183.5t142 67.5q85 0 134.5 -42.5t49.5 -114.5q0 -46 -29.5 -82.5t-90.5 -47.5v-6q93 -12 146 -77.5t53 -159.5q0 -89 -50 -153t-125 -64z" />
    <glyph glyph-name="agrave" unicode="&#xe0;" horiz-adv-x="486" 
d="M410 -10q-42 0 -62.5 22t-29.5 60h-5q-15 -31 -55.5 -61t-93.5 -30q-137 0 -137 115q0 65 73 114t211 66v55q0 43 -24 69.5t-69 26.5q-27 0 -48.5 -8t-31 -17t-9.5 -15q0 -5 12.5 -19.5t12.5 -37.5q0 -22 -15 -35t-34 -13q-20 0 -37 15.5t-17 44.5q0 45 48 84.5t142 39.5
q151 0 151 -142q0 -64 -1 -120t-1 -74q0 -39 11 -64t29 -25q10 0 20.5 8t16.5 8q12 0 12 -18t-18.5 -33.5t-50.5 -15.5zM181 26q56 0 93 40t37 122v52q-101 -13 -147 -44.5t-46 -91.5q0 -34 16.5 -56t46.5 -22zM268 517l-149 87q-20 13 -20 37q0 18 13 31t31 13t31 -13
l108 -139z" />
    <glyph glyph-name="aacute" unicode="&#xe1;" horiz-adv-x="486" 
d="M410 -10q-42 0 -62.5 22t-29.5 60h-5q-15 -31 -55.5 -61t-93.5 -30q-137 0 -137 115q0 65 73 114t211 66v55q0 43 -24 69.5t-69 26.5q-27 0 -48.5 -8t-31 -17t-9.5 -15q0 -5 12.5 -19.5t12.5 -37.5q0 -22 -15 -35t-34 -13q-20 0 -37 15.5t-17 44.5q0 45 48 84.5t142 39.5
q151 0 151 -142q0 -64 -1 -120t-1 -74q0 -39 11 -64t29 -25q10 0 20.5 8t16.5 8q12 0 12 -18t-18.5 -33.5t-50.5 -15.5zM181 26q56 0 93 40t37 122v52q-101 -13 -147 -44.5t-46 -91.5q0 -34 16.5 -56t46.5 -22zM192 517l-14 16l108 139q13 13 31 13t31 -13t13 -31
q0 -24 -20 -37z" />
    <glyph glyph-name="acircumflex" unicode="&#xe2;" horiz-adv-x="486" 
d="M410 -10q-42 0 -62.5 22t-29.5 60h-5q-15 -31 -55.5 -61t-93.5 -30q-137 0 -137 115q0 65 73 114t211 66v55q0 43 -24 69.5t-69 26.5q-27 0 -48.5 -8t-31 -17t-9.5 -15q0 -5 12.5 -19.5t12.5 -37.5q0 -22 -15 -35t-34 -13q-20 0 -37 15.5t-17 44.5q0 45 48 84.5t142 39.5
q151 0 151 -142q0 -64 -1 -120t-1 -74q0 -39 11 -64t29 -25q10 0 20.5 8t16.5 8q12 0 12 -18t-18.5 -33.5t-50.5 -15.5zM181 26q56 0 93 40t37 122v52q-101 -13 -147 -44.5t-46 -91.5q0 -34 16.5 -56t46.5 -22zM340 518l-110 104l-110 -104l-20 15l85 143q6 12 17 12h56
q10 0 16 -12l85 -143z" />
    <glyph glyph-name="atilde" unicode="&#xe3;" horiz-adv-x="486" 
d="M410 -10q-42 0 -62.5 22t-29.5 60h-5q-15 -31 -55.5 -61t-93.5 -30q-137 0 -137 115q0 65 73 114t211 66v55q0 43 -24 69.5t-69 26.5q-27 0 -48.5 -8t-31 -17t-9.5 -15q0 -5 12.5 -19.5t12.5 -37.5q0 -22 -15 -35t-34 -13q-20 0 -37 15.5t-17 44.5q0 45 48 84.5t142 39.5
q151 0 151 -142q0 -64 -1 -120t-1 -74q0 -39 11 -64t29 -25q10 0 20.5 8t16.5 8q12 0 12 -18t-18.5 -33.5t-50.5 -15.5zM181 26q56 0 93 40t37 122v52q-101 -13 -147 -44.5t-46 -91.5q0 -34 16.5 -56t46.5 -22zM281 537q-25 0 -62 29.5t-57 29.5q-41 0 -53 -46l-20 7
q24 101 89 101q25 0 62 -29.5t57 -29.5q41 0 53 46l20 -7q-24 -101 -89 -101z" />
    <glyph glyph-name="adieresis" unicode="&#xe4;" horiz-adv-x="486" 
d="M410 -10q-42 0 -62.5 22t-29.5 60h-5q-15 -31 -55.5 -61t-93.5 -30q-137 0 -137 115q0 65 73 114t211 66v55q0 43 -24 69.5t-69 26.5q-27 0 -48.5 -8t-31 -17t-9.5 -15q0 -5 12.5 -19.5t12.5 -37.5q0 -22 -15 -35t-34 -13q-20 0 -37 15.5t-17 44.5q0 45 48 84.5t142 39.5
q151 0 151 -142q0 -64 -1 -120t-1 -74q0 -39 11 -64t29 -25q10 0 20.5 8t16.5 8q12 0 12 -18t-18.5 -33.5t-50.5 -15.5zM181 26q56 0 93 40t37 122v52q-101 -13 -147 -44.5t-46 -91.5q0 -34 16.5 -56t46.5 -22zM147 538q-21 0 -36 16t-15 39t15 39t36 16t36 -16t15 -39
t-15 -39t-36 -16zM311 538q-21 0 -36 16t-15 39t15 39t36 16t36 -16t15 -39t-15 -39t-36 -16z" />
    <glyph glyph-name="aring" unicode="&#xe5;" horiz-adv-x="486" 
d="M410 -10q-42 0 -62.5 22t-29.5 60h-5q-15 -31 -55.5 -61t-93.5 -30q-137 0 -137 115q0 65 73 114t211 66v55q0 43 -24 69.5t-69 26.5q-27 0 -48.5 -8t-31 -17t-9.5 -15q0 -5 12.5 -19.5t12.5 -37.5q0 -22 -15 -35t-34 -13q-20 0 -37 15.5t-17 44.5q0 45 48 84.5t142 39.5
q151 0 151 -142q0 -64 -1 -120t-1 -74q0 -39 11 -64t29 -25q10 0 20.5 8t16.5 8q12 0 12 -18t-18.5 -33.5t-50.5 -15.5zM181 26q56 0 93 40t37 122v52q-101 -13 -147 -44.5t-46 -91.5q0 -34 16.5 -56t46.5 -22zM229 527q-42 0 -72 30t-30 72t30 72t72 30t72 -30t30 -72
t-30 -72t-72 -30zM229 555q31 0 52.5 21.5t21.5 52.5t-21.5 52.5t-52.5 21.5t-52.5 -21.5t-21.5 -52.5t21.5 -52.5t52.5 -21.5z" />
    <glyph glyph-name="ae" unicode="&#xe6;" horiz-adv-x="728" 
d="M515 -18q-130 0 -180 112q-25 -48 -71 -80.5t-100 -32.5q-137 0 -137 115q0 65 73 114t211 66v55q0 43 -24 69.5t-69 26.5q-27 0 -48.5 -8t-31 -17t-9.5 -15q0 -5 12.5 -19.5t12.5 -37.5q0 -22 -15 -35t-34 -13q-20 0 -37 15.5t-17 44.5q0 45 48 84.5t142 39.5t122 -77
q51 80 147 80q88 0 138 -55.5t50 -153.5l-308 -44q0 -183 132 -183q103 0 143 111l35 -16q-17 -56 -68.5 -101t-116.5 -45zM181 26q56 0 93 40t37 122v52q-101 -13 -147 -44.5t-46 -91.5q0 -34 16.5 -56t46.5 -22zM392 256l181 26q32 4 32 33q0 53 -24 85t-71 32
q-58 0 -88 -50.5t-30 -125.5z" />
    <glyph glyph-name="ccedilla" unicode="&#xe7;" horiz-adv-x="444" 
d="M239 -201q-67 0 -133 48l7 13q34 -15 54 -19.5t54 -4.5q35 0 54.5 12.5t19.5 30.5q0 31 -38 31q-22 0 -35 -10l-13 6v79q-81 11 -129.5 74t-48.5 161q0 110 63.5 181t163.5 71q64 0 106 -37.5t42 -80.5q0 -28 -16 -48t-39 -20t-38 17.5t-15 36.5q0 20 12.5 35t12.5 20
q0 17 -24 29t-46 12q-64 0 -96.5 -56t-32.5 -147q0 -94 33 -147t100 -53q44 0 77.5 28t47.5 76l34 -10q-44 -143 -175 -144v-53q21 7 41 7q34 0 55.5 -18.5t21.5 -43.5q0 -30 -32 -53t-88 -23z" />
    <glyph glyph-name="egrave" unicode="&#xe8;" horiz-adv-x="463" 
d="M250 -18q-100 0 -160 66.5t-60 180.5q0 101 63.5 171t151.5 70q87 0 137.5 -55.5t50.5 -154.5l-308 -44q0 -183 132 -183q103 0 143 111l35 -16q-17 -56 -68.5 -101t-116.5 -45zM127 256l181 26q32 4 32 33q0 53 -24 85t-71 32q-58 0 -88 -50.5t-30 -125.5zM283 517
l-149 87q-20 13 -20 37q0 18 13 31t31 13t31 -13l108 -139z" />
    <glyph glyph-name="eacute" unicode="&#xe9;" horiz-adv-x="463" 
d="M250 -18q-100 0 -160 66.5t-60 180.5q0 101 63.5 171t151.5 70q87 0 137.5 -55.5t50.5 -154.5l-308 -44q0 -183 132 -183q103 0 143 111l35 -16q-17 -56 -68.5 -101t-116.5 -45zM127 256l181 26q32 4 32 33q0 53 -24 85t-71 32q-58 0 -88 -50.5t-30 -125.5zM208 517
l-14 16l108 139q13 13 31 13t31 -13t13 -31q0 -24 -20 -37z" />
    <glyph glyph-name="ecircumflex" unicode="&#xea;" horiz-adv-x="463" 
d="M250 -18q-100 0 -160 66.5t-60 180.5q0 101 63.5 171t151.5 70q87 0 137.5 -55.5t50.5 -154.5l-308 -44q0 -183 132 -183q103 0 143 111l35 -16q-17 -56 -68.5 -101t-116.5 -45zM127 256l181 26q32 4 32 33q0 53 -24 85t-71 32q-58 0 -88 -50.5t-30 -125.5zM356 518
l-110 104l-110 -104l-20 15l85 143q6 12 17 12h56q10 0 16 -12l85 -143z" />
    <glyph glyph-name="edieresis" unicode="&#xeb;" horiz-adv-x="463" 
d="M250 -18q-100 0 -160 66.5t-60 180.5q0 101 63.5 171t151.5 70q87 0 137.5 -55.5t50.5 -154.5l-308 -44q0 -183 132 -183q103 0 143 111l35 -16q-17 -56 -68.5 -101t-116.5 -45zM127 256l181 26q32 4 32 33q0 53 -24 85t-71 32q-58 0 -88 -50.5t-30 -125.5zM163 538
q-21 0 -36 16t-15 39t15 39t36 16t36 -16t15 -39t-15 -39t-36 -16zM327 538q-21 0 -36 16t-15 39t15 39t36 16t36 -16t15 -39t-15 -39t-36 -16z" />
    <glyph glyph-name="igrave" unicode="&#xec;" horiz-adv-x="276" 
d="M267 0h-230v38l63 4v301q0 27 -8 36.5t-38 9.5h-50v37q65 0 145 39h33v-390q0 -19 6.5 -25.5t24.5 -8.5l54 -3v-38zM179 517l-149 87q-20 13 -20 37q0 18 13 31t31 13t31 -13l108 -139z" />
    <glyph glyph-name="iacute" unicode="&#xed;" horiz-adv-x="276" 
d="M267 0h-230v38l63 4v301q0 27 -8 36.5t-38 9.5h-50v37q65 0 145 39h33v-390q0 -19 6.5 -25.5t24.5 -8.5l54 -3v-38zM104 517l-14 16l108 139q13 13 31 13t31 -13t13 -31q0 -24 -20 -37z" />
    <glyph glyph-name="icircumflex" unicode="&#xee;" horiz-adv-x="276" 
d="M267 0h-230v38l63 4v301q0 27 -8 36.5t-38 9.5h-50v37q65 0 145 39h33v-390q0 -19 6.5 -25.5t24.5 -8.5l54 -3v-38zM251 518l-110 104l-110 -104l-20 15l85 143q6 12 17 12h56q10 0 16 -12l85 -143z" />
    <glyph glyph-name="idieresis" unicode="&#xef;" horiz-adv-x="276" 
d="M267 0h-230v38l63 4v301q0 27 -8 36.5t-38 9.5h-50v37q65 0 145 39h33v-390q0 -19 6.5 -25.5t24.5 -8.5l54 -3v-38zM57 538q-21 0 -36 16t-15 39t15 39t36 16t36 -16t15 -39t-15 -39t-36 -16zM221 538q-21 0 -36 16t-15 39t15 39t36 16t36 -16t15 -39t-15 -39t-36 -16z
" />
    <glyph glyph-name="eth" unicode="&#xf0;" horiz-adv-x="493" 
d="M157 519l-23 23l85 84q-47 47 -110 87l22 26q64 -37 119 -83l80 79l24 -23l-80 -78q189 -175 189 -409q0 -101 -63.5 -172.5t-153.5 -71.5t-153 71.5t-63 172.5t63 172.5t153 71.5q57 0 109 -57q-35 103 -113 190zM125 225q0 -92 30 -147.5t89 -55.5t89.5 55.5
t30.5 147.5t-30.5 148t-89.5 56t-89 -56t-30 -148z" />
    <glyph glyph-name="ntilde" unicode="&#xf1;" horiz-adv-x="558" 
d="M175 465v-113q57 113 150 113q68 0 103.5 -45t35.5 -125v-220q0 -18 6.5 -25.5t24.5 -8.5l60 -3v-38h-234v38l62 4v241q0 55 -22.5 90t-65.5 35q-44 0 -79 -43.5t-35 -107.5v-182q0 -19 6.5 -26t24.5 -8l60 -3v-38h-232v38l60 4v301q0 27 -8 36.5t-38 9.5h-40v37
q48 0 128 39h33zM334 537q-25 0 -62 29.5t-57 29.5q-41 0 -53 -46l-20 7q24 101 89 101q25 0 62 -29.5t57 -29.5q41 0 53 46l20 -7q-24 -101 -89 -101z" />
    <glyph glyph-name="ograve" unicode="&#xf2;" horiz-adv-x="493" 
d="M246 -19q-90 0 -153 71.5t-63 172.5t63 172.5t153 71.5t153.5 -71.5t63.5 -172.5t-63.5 -172.5t-153.5 -71.5zM244 22q59 0 89.5 55.5t30.5 147.5t-30.5 148t-89.5 56t-89 -56t-30 -148t30 -147.5t89 -55.5zM285 517l-149 87q-20 13 -20 37q0 18 13 31t31 13t31 -13
l108 -139z" />
    <glyph glyph-name="oacute" unicode="&#xf3;" horiz-adv-x="493" 
d="M246 -19q-90 0 -153 71.5t-63 172.5t63 172.5t153 71.5t153.5 -71.5t63.5 -172.5t-63.5 -172.5t-153.5 -71.5zM244 22q59 0 89.5 55.5t30.5 147.5t-30.5 148t-89.5 56t-89 -56t-30 -148t30 -147.5t89 -55.5zM210 517l-14 16l108 139q13 13 31 13t31 -13t13 -31
q0 -24 -20 -37z" />
    <glyph glyph-name="ocircumflex" unicode="&#xf4;" horiz-adv-x="493" 
d="M246 -19q-90 0 -153 71.5t-63 172.5t63 172.5t153 71.5t153.5 -71.5t63.5 -172.5t-63.5 -172.5t-153.5 -71.5zM244 22q59 0 89.5 55.5t30.5 147.5t-30.5 148t-89.5 56t-89 -56t-30 -148t30 -147.5t89 -55.5zM356 518l-110 104l-110 -104l-20 15l85 143q6 12 17 12h56
q10 0 16 -12l85 -143z" />
    <glyph glyph-name="otilde" unicode="&#xf5;" horiz-adv-x="493" 
d="M246 -19q-90 0 -153 71.5t-63 172.5t63 172.5t153 71.5t153.5 -71.5t63.5 -172.5t-63.5 -172.5t-153.5 -71.5zM244 22q59 0 89.5 55.5t30.5 147.5t-30.5 148t-89.5 56t-89 -56t-30 -148t30 -147.5t89 -55.5zM299 537q-25 0 -62 29.5t-57 29.5q-41 0 -53 -46l-20 7
q24 101 89 101q25 0 62 -29.5t57 -29.5q41 0 53 46l20 -7q-24 -101 -89 -101z" />
    <glyph glyph-name="odieresis" unicode="&#xf6;" horiz-adv-x="493" 
d="M246 -19q-90 0 -153 71.5t-63 172.5t63 172.5t153 71.5t153.5 -71.5t63.5 -172.5t-63.5 -172.5t-153.5 -71.5zM244 22q59 0 89.5 55.5t30.5 147.5t-30.5 148t-89.5 56t-89 -56t-30 -148t30 -147.5t89 -55.5zM164 538q-21 0 -36 16t-15 39t15 39t36 16t36 -16t15 -39
t-15 -39t-36 -16zM328 538q-21 0 -36 16t-15 39t15 39t36 16t36 -16t15 -39t-15 -39t-36 -16z" />
    <glyph glyph-name="divide" unicode="&#xf7;" 
d="M502 238h-483v52h483v-52zM261 357q-26 0 -43.5 19t-17.5 47t18 47.5t43 19.5t43 -19.5t18 -47.5t-17.5 -47t-43.5 -19zM261 39q-26 0 -43.5 19t-17.5 47t18 47.5t43 19.5t43 -19.5t18 -47.5t-17.5 -47t-43.5 -19z" />
    <glyph glyph-name="oslash" unicode="&#xf8;" horiz-adv-x="493" 
d="M246 -19q-61 0 -116 37l-62 -93l-33 23l65 97q-70 72 -70 180q0 101 63 172.5t153 71.5q61 0 113 -36l56 84l33 -22l-58 -87q73 -73 73 -183q0 -101 -63.5 -172.5t-153.5 -71.5zM244 22q59 0 89.5 55.5t30.5 147.5q0 67 -17 118l-185 -277q30 -44 82 -44zM141 107
l185 277q-31 45 -82 45q-59 0 -89 -56t-30 -148q0 -70 16 -118z" />
    <glyph glyph-name="ugrave" unicode="&#xf9;" horiz-adv-x="552" 
d="M564 38v-38q-101 0 -181 -8l-5 78l-5 2q-58 -86 -134 -86q-144 0 -144 178q0 19 1.5 85.5t1.5 93.5t-8 36.5t-38 9.5h-26v37q47 0 127 39h33q-6 -126 -6 -264q0 -86 21.5 -119t64.5 -33q53 0 80.5 42.5t27.5 111.5v140q0 27 -8 36.5t-38 9.5h-50v37q65 0 145 39h33v-366
q0 -39 21.5 -50t86.5 -11zM314 517l-149 87q-20 13 -20 37q0 18 13 31t31 13t31 -13l108 -139z" />
    <glyph glyph-name="uacute" unicode="&#xfa;" horiz-adv-x="552" 
d="M564 38v-38q-101 0 -181 -8l-5 78l-5 2q-58 -86 -134 -86q-144 0 -144 178q0 19 1.5 85.5t1.5 93.5t-8 36.5t-38 9.5h-26v37q47 0 127 39h33q-6 -126 -6 -264q0 -86 21.5 -119t64.5 -33q53 0 80.5 42.5t27.5 111.5v140q0 27 -8 36.5t-38 9.5h-50v37q65 0 145 39h33v-366
q0 -39 21.5 -50t86.5 -11zM239 517l-14 16l108 139q13 13 31 13t31 -13t13 -31q0 -24 -20 -37z" />
    <glyph glyph-name="ucircumflex" unicode="&#xfb;" horiz-adv-x="552" 
d="M564 38v-38q-101 0 -181 -8l-5 78l-5 2q-58 -86 -134 -86q-144 0 -144 178q0 19 1.5 85.5t1.5 93.5t-8 36.5t-38 9.5h-26v37q47 0 127 39h33q-6 -126 -6 -264q0 -86 21.5 -119t64.5 -33q53 0 80.5 42.5t27.5 111.5v140q0 27 -8 36.5t-38 9.5h-50v37q65 0 145 39h33v-366
q0 -39 21.5 -50t86.5 -11zM387 518l-110 104l-110 -104l-20 15l85 143q6 12 17 12h56q10 0 16 -12l85 -143z" />
    <glyph glyph-name="udieresis" unicode="&#xfc;" horiz-adv-x="552" 
d="M564 38v-38q-101 0 -181 -8l-5 78l-5 2q-58 -86 -134 -86q-144 0 -144 178q0 19 1.5 85.5t1.5 93.5t-8 36.5t-38 9.5h-26v37q47 0 127 39h33q-6 -126 -6 -264q0 -86 21.5 -119t64.5 -33q53 0 80.5 42.5t27.5 111.5v140q0 27 -8 36.5t-38 9.5h-50v37q65 0 145 39h33v-366
q0 -39 21.5 -50t86.5 -11zM194 538q-21 0 -36 16t-15 39t15 39t36 16t36 -16t15 -39t-15 -39t-36 -16zM358 538q-21 0 -36 16t-15 39t15 39t36 16t36 -16t15 -39t-15 -39t-36 -16z" />
    <glyph glyph-name="yacute" unicode="&#xfd;" horiz-adv-x="470" 
d="M65 -195q-33 0 -57.5 21.5t-24.5 55.5q0 24 15.5 39.5t36.5 15.5t34 -16t13 -38q0 -26 15 -26q37 0 70 47.5t51 94.5l-168 380q-17 41 -82 41v38h222v-38q-26 0 -38.5 -3t-14.5 -6t-2 -10q0 -5 3 -11l125 -287l89 250q5 15 5 24q0 43 -82 43v38h191v-38q-43 -5 -69 -76
l-133 -351q-73 -188 -199 -188zM202 517l-14 16l108 139q13 13 31 13t31 -13t13 -31q0 -24 -20 -37z" />
    <glyph glyph-name="thorn" unicode="&#xfe;" horiz-adv-x="534" 
d="M297 31q58 0 85.5 54.5t27.5 147.5q0 105 -33 147t-78 42q-54 0 -89 -50t-35 -149q0 -87 32 -139.5t90 -52.5zM280 -194h-246v38l60 4v758q0 27 -8 36.5t-38 9.5h-50v37q65 0 145 39h33v-352q31 48 65.5 68.5t84.5 20.5q79 0 128.5 -69t49.5 -161q0 -107 -57 -178
t-134 -71q-93 0 -137 89v-194q0 -19 6.5 -26t24.5 -8l73 -3v-38z" />
    <glyph glyph-name="ydieresis" unicode="&#xff;" horiz-adv-x="470" 
d="M65 -195q-33 0 -57.5 21.5t-24.5 55.5q0 24 15.5 39.5t36.5 15.5t34 -16t13 -38q0 -26 15 -26q37 0 70 47.5t51 94.5l-168 380q-17 41 -82 41v38h222v-38q-26 0 -38.5 -3t-14.5 -6t-2 -10q0 -5 3 -11l125 -287l89 250q5 15 5 24q0 43 -82 43v38h191v-38q-43 -5 -69 -76
l-133 -351q-73 -188 -199 -188zM157 538q-21 0 -36 16t-15 39t15 39t36 16t36 -16t15 -39t-15 -39t-36 -16zM321 538q-21 0 -36 16t-15 39t15 39t36 16t36 -16t15 -39t-15 -39t-36 -16z" />
    <glyph glyph-name="Amacron" unicode="&#x100;" horiz-adv-x="662" 
d="M414 280l-113 303l-112 -303h225zM696 0h-301v44l63 4q31 2 31 21q0 9 -4 20l-53 142h-261l-31 -84q-8 -24 -8 -40q0 -63 98 -63v-44h-234v44q31 4 50 23.5t34 59.5l231 606h40l241 -647q9 -24 20 -31t35 -9l49 -2v-44zM451 801h-244v62h244v-62z" />
    <glyph glyph-name="amacron" unicode="&#x101;" horiz-adv-x="486" 
d="M410 -10q-42 0 -62.5 22t-29.5 60h-5q-15 -31 -55.5 -61t-93.5 -30q-137 0 -137 115q0 65 73 114t211 66v55q0 43 -24 69.5t-69 26.5q-27 0 -48.5 -8t-31 -17t-9.5 -15q0 -5 12.5 -19.5t12.5 -37.5q0 -22 -15 -35t-34 -13q-20 0 -37 15.5t-17 44.5q0 45 48 84.5t142 39.5
q151 0 151 -142q0 -64 -1 -120t-1 -74q0 -39 11 -64t29 -25q10 0 20.5 8t16.5 8q12 0 12 -18t-18.5 -33.5t-50.5 -15.5zM181 26q56 0 93 40t37 122v52q-101 -13 -147 -44.5t-46 -91.5q0 -34 16.5 -56t46.5 -22zM351 560h-244v62h244v-62z" />
    <glyph glyph-name="Abreve" unicode="&#x102;" horiz-adv-x="662" 
d="M414 280l-113 303l-112 -303h225zM696 0h-301v44l63 4q31 2 31 21q0 9 -4 20l-53 142h-261l-31 -84q-8 -24 -8 -40q0 -63 98 -63v-44h-234v44q31 4 50 23.5t34 59.5l231 606h40l241 -647q9 -24 20 -31t35 -9l49 -2v-44zM331 778q-95 0 -132 101l19 7q30 -46 97 -46h32
q69 0 97 46l19 -7q-37 -101 -132 -101z" />
    <glyph glyph-name="abreve" unicode="&#x103;" horiz-adv-x="486" 
d="M410 -10q-42 0 -62.5 22t-29.5 60h-5q-15 -31 -55.5 -61t-93.5 -30q-137 0 -137 115q0 65 73 114t211 66v55q0 43 -24 69.5t-69 26.5q-27 0 -48.5 -8t-31 -17t-9.5 -15q0 -5 12.5 -19.5t12.5 -37.5q0 -22 -15 -35t-34 -13q-20 0 -37 15.5t-17 44.5q0 45 48 84.5t142 39.5
q151 0 151 -142q0 -64 -1 -120t-1 -74q0 -39 11 -64t29 -25q10 0 20.5 8t16.5 8q12 0 12 -18t-18.5 -33.5t-50.5 -15.5zM181 26q56 0 93 40t37 122v52q-101 -13 -147 -44.5t-46 -91.5q0 -34 16.5 -56t46.5 -22zM229 537q-95 0 -132 101l19 7q30 -46 97 -46h32q69 0 97 46
l19 -7q-37 -101 -132 -101z" />
    <glyph glyph-name="Aogonek" unicode="&#x104;" horiz-adv-x="662" 
d="M593 -235q-39 0 -67 28t-28 64q0 65 93 143h-196v44l63 4q31 2 31 21q0 9 -4 20l-53 142h-261l-31 -84q-8 -24 -8 -40q0 -63 98 -63v-44h-234v44q31 4 50 23.5t34 59.5l231 606h40l241 -647q9 -24 20 -31t35 -9l49 -2v-44h-76q-33 -29 -47 -52.5t-14 -59.5
q0 -26 19.5 -42t44.5 -16q8 0 15 1t11 2t10.5 4.5t9 4.5t11 7l11.5 8l10 -10q-39 -82 -108 -82zM414 280l-113 303l-112 -303h225z" />
    <glyph glyph-name="aogonek" unicode="&#x105;" horiz-adv-x="486" 
d="M410 -10q-42 0 -62.5 22t-29.5 60h-5q-15 -31 -55.5 -61t-93.5 -30q-137 0 -137 115q0 65 73 114t211 66v55q0 43 -24 69.5t-69 26.5q-27 0 -48.5 -8t-31 -17t-9.5 -15q0 -5 12.5 -19.5t12.5 -37.5q0 -22 -15 -35t-34 -13q-20 0 -37 15.5t-17 44.5q0 45 48 84.5t142 39.5
q151 0 151 -142q0 -64 -1 -120t-1 -74q0 -39 11 -64t29 -25q10 0 20.5 8t16.5 8q12 0 12 -18q0 -17 -25 -38q-33 -28 -47.5 -52t-14.5 -61q0 -26 19.5 -42t44.5 -16q8 0 15 1t11 2t10.5 4.5t9 4.5t11 7l11.5 8l10 -10q-39 -82 -108 -82q-39 0 -67 28t-28 64q0 61 81 133h-2z
M181 26q56 0 93 40t37 122v52q-101 -13 -147 -44.5t-46 -91.5q0 -34 16.5 -56t46.5 -22z" />
    <glyph glyph-name="Cacute" unicode="&#x106;" horiz-adv-x="623" 
d="M339 -20q-94 0 -166.5 56t-107.5 137t-35 168q0 90 27.5 166.5t71.5 125t97.5 76t107.5 27.5q92 0 170 -70l26 64h29l33 -285l-35 -5q-24 114 -83 183.5t-140 69.5q-88 0 -137 -87t-49 -252q0 -328 207 -328q80 0 136 59.5t73 165.5l39 -6q-15 -118 -83.5 -191.5
t-180.5 -73.5zM279 758l-14 16l108 139q13 13 31 13t31 -13t13 -31q0 -24 -20 -37z" />
    <glyph glyph-name="cacute" unicode="&#x107;" horiz-adv-x="444" 
d="M238 -17q-92 0 -149.5 65.5t-57.5 171.5q0 110 63.5 181t163.5 71q64 0 106 -37.5t42 -80.5q0 -28 -16 -48t-39 -20t-38 17.5t-15 36.5q0 20 12.5 35t12.5 20q0 17 -24 29t-46 12q-64 0 -96.5 -56t-32.5 -147q0 -94 33 -147t100 -53q44 0 77.5 28t47.5 76l34 -10
q-44 -144 -178 -144zM208 517l-14 16l108 139q13 13 31 13t31 -13t13 -31q0 -24 -20 -37z" />
    <glyph glyph-name="Ccircumflex" unicode="&#x108;" horiz-adv-x="623" 
d="M339 -20q-94 0 -166.5 56t-107.5 137t-35 168q0 90 27.5 166.5t71.5 125t97.5 76t107.5 27.5q92 0 170 -70l26 64h29l33 -285l-35 -5q-24 114 -83 183.5t-140 69.5q-88 0 -137 -87t-49 -252q0 -328 207 -328q80 0 136 59.5t73 165.5l39 -6q-15 -118 -83.5 -191.5
t-180.5 -73.5zM444 759l-110 104l-110 -104l-20 15l85 143q6 12 17 12h56q10 0 16 -12l85 -143z" />
    <glyph glyph-name="ccircumflex" unicode="&#x109;" horiz-adv-x="444" 
d="M238 -17q-92 0 -149.5 65.5t-57.5 171.5q0 110 63.5 181t163.5 71q64 0 106 -37.5t42 -80.5q0 -28 -16 -48t-39 -20t-38 17.5t-15 36.5q0 20 12.5 35t12.5 20q0 17 -24 29t-46 12q-64 0 -96.5 -56t-32.5 -147q0 -94 33 -147t100 -53q44 0 77.5 28t47.5 76l34 -10
q-44 -144 -178 -144zM366 518l-110 104l-110 -104l-20 15l85 143q6 12 17 12h56q10 0 16 -12l85 -143z" />
    <glyph glyph-name="Cdotaccent" unicode="&#x10a;" horiz-adv-x="623" 
d="M339 -20q-94 0 -166.5 56t-107.5 137t-35 168q0 90 27.5 166.5t71.5 125t97.5 76t107.5 27.5q92 0 170 -70l26 64h29l33 -285l-35 -5q-24 114 -83 183.5t-140 69.5q-88 0 -137 -87t-49 -252q0 -328 207 -328q80 0 136 59.5t73 165.5l39 -6q-15 -118 -83.5 -191.5
t-180.5 -73.5zM334 779q-28 0 -48 20t-20 49t20 49.5t48 20.5t48 -20.5t20 -49.5t-20 -49t-48 -20z" />
    <glyph glyph-name="cdotaccent" unicode="&#x10b;" horiz-adv-x="444" 
d="M238 -17q-92 0 -149.5 65.5t-57.5 171.5q0 110 63.5 181t163.5 71q64 0 106 -37.5t42 -80.5q0 -28 -16 -48t-39 -20t-38 17.5t-15 36.5q0 20 12.5 35t12.5 20q0 17 -24 29t-46 12q-64 0 -96.5 -56t-32.5 -147q0 -94 33 -147t100 -53q44 0 77.5 28t47.5 76l34 -10
q-44 -144 -178 -144zM256 538q-28 0 -48 20t-20 49t20 49.5t48 20.5t48 -20.5t20 -49.5t-20 -49t-48 -20z" />
    <glyph glyph-name="Ccaron" unicode="&#x10c;" horiz-adv-x="623" 
d="M339 -20q-94 0 -166.5 56t-107.5 137t-35 168q0 90 27.5 166.5t71.5 125t97.5 76t107.5 27.5q92 0 170 -70l26 64h29l33 -285l-35 -5q-24 114 -83 183.5t-140 69.5q-88 0 -137 -87t-49 -252q0 -328 207 -328q80 0 136 59.5t73 165.5l39 -6q-15 -118 -83.5 -191.5
t-180.5 -73.5zM361 775h-56q-10 0 -16 12l-85 135h27l102 -89l102 89h28l-85 -135q-6 -12 -17 -12z" />
    <glyph glyph-name="ccaron" unicode="&#x10d;" horiz-adv-x="444" 
d="M238 -17q-92 0 -149.5 65.5t-57.5 171.5q0 110 63.5 181t163.5 71q64 0 106 -37.5t42 -80.5q0 -28 -16 -48t-39 -20t-38 17.5t-15 36.5q0 20 12.5 35t12.5 20q0 17 -24 29t-46 12q-64 0 -96.5 -56t-32.5 -147q0 -94 33 -147t100 -53q44 0 77.5 28t47.5 76l34 -10
q-44 -144 -178 -144zM283 536h-56q-10 0 -16 12l-85 135h27l102 -89l102 89h28l-85 -135q-6 -12 -17 -12z" />
    <glyph glyph-name="Dcaron" unicode="&#x10e;" horiz-adv-x="711" 
d="M355 0h-318v44l92 5v589q0 34 -27 35l-98 5v44h337q161 0 245 -100t84 -249q0 -101 -27.5 -176.5t-74 -116.5t-100 -60.5t-113.5 -19.5zM332 41q128 0 176 78t48 252q0 150 -50 230t-169 80l-109 -1v-602q0 -18 8.5 -25.5t26.5 -9.5t69 -2zM367 775h-56q-10 0 -16 12
l-85 135h27l102 -89l102 89h28l-85 -135q-6 -12 -17 -12z" />
    <glyph glyph-name="dcaron" unicode="&#x10f;" horiz-adv-x="593" 
d="M231 33q59 0 95 49.5t36 145.5q0 101 -33 149t-84 48q-57 0 -89.5 -52t-32.5 -155q0 -86 29 -135.5t79 -49.5zM539 0q-126 0 -169 -4l-7 91q-21 -41 -60 -69.5t-84 -28.5q-82 0 -135.5 64.5t-53.5 172.5q0 106 60.5 176t135.5 70q84 0 136 -97v231q0 27 -8 36.5t-38 9.5
h-51v37q65 0 145 39h29v-633q0 -35 14.5 -46t57.5 -11h28v-38zM483 494l-18 23q29 18 52 46.5t23 55.5q0 14 -5 14q-1 0 -7 -2.5t-14 -2.5q-17 0 -28 13t-11 31q0 20 13 34.5t34 14.5q24 0 41 -21.5t17 -53.5q0 -84 -97 -152z" />
    <glyph glyph-name="Dcroat" unicode="&#x110;" horiz-adv-x="711" 
d="M355 0h-318v44l92 5v589q0 34 -27 35l-98 5v44h337q161 0 245 -100t84 -249q0 -101 -27.5 -176.5t-74 -116.5t-100 -60.5t-113.5 -19.5zM332 41q128 0 176 78t48 252q0 150 -50 230t-169 80l-109 -1v-602q0 -18 8.5 -25.5t26.5 -9.5t69 -2zM460 801h-244v62h244v-62z" />
    <glyph glyph-name="dcroat" unicode="&#x111;" horiz-adv-x="533" 
d="M539 0q-126 0 -169 -4l-7 91q-21 -41 -60 -69.5t-84 -28.5q-82 0 -135.5 64.5t-53.5 172.5q0 106 60.5 176t135.5 70q84 0 136 -97v150h-81v46h81v35q0 27 -8 36.5t-38 9.5h-51v37q65 0 145 39h29v-157h81v-46h-81v-430q0 -35 14.5 -46t57.5 -11h28v-38zM231 33
q59 0 95 49.5t36 145.5q0 101 -33 149t-84 48q-57 0 -89.5 -52t-32.5 -155q0 -86 29 -135.5t79 -49.5z" />
    <glyph glyph-name="Emacron" unicode="&#x112;" horiz-adv-x="669" 
d="M592 0h-544v44l92 5v589q0 35 -30 36l-96 4v44h566l26 -248l-33 -3q-11 66 -30 108.5t-48 65t-61.5 30.5t-80.5 8q-67 0 -114 -3v-284h7q82 0 112.5 28.5t41.5 112.5h37v-336h-38q-4 49 -12 78t-26.5 45.5t-42.5 22t-65 5.5h-14v-273q0 -18 8.5 -25.5t26.5 -9.5
q40 -4 75 -4q110 0 159.5 50t77.5 184l33 -3l-10 -255q0 -16 -17 -16zM471 801h-244v62h244v-62z" />
    <glyph glyph-name="emacron" unicode="&#x113;" horiz-adv-x="463" 
d="M250 -18q-100 0 -160 66.5t-60 180.5q0 101 63.5 171t151.5 70q87 0 137.5 -55.5t50.5 -154.5l-308 -44q0 -183 132 -183q103 0 143 111l35 -16q-17 -56 -68.5 -101t-116.5 -45zM127 256l181 26q32 4 32 33q0 53 -24 85t-71 32q-58 0 -88 -50.5t-30 -125.5zM367 560h-244
v62h244v-62z" />
    <glyph glyph-name="Ebreve" unicode="&#x114;" horiz-adv-x="669" 
d="M592 0h-544v44l92 5v589q0 35 -30 36l-96 4v44h566l26 -248l-33 -3q-11 66 -30 108.5t-48 65t-61.5 30.5t-80.5 8q-67 0 -114 -3v-284h7q82 0 112.5 28.5t41.5 112.5h37v-336h-38q-4 49 -12 78t-26.5 45.5t-42.5 22t-65 5.5h-14v-273q0 -18 8.5 -25.5t26.5 -9.5
q40 -4 75 -4q110 0 159.5 50t77.5 184l33 -3l-10 -255q0 -16 -17 -16zM351 778q-95 0 -132 101l19 7q30 -46 97 -46h32q69 0 97 46l19 -7q-37 -101 -132 -101z" />
    <glyph glyph-name="ebreve" unicode="&#x115;" horiz-adv-x="463" 
d="M250 -18q-100 0 -160 66.5t-60 180.5q0 101 63.5 171t151.5 70q87 0 137.5 -55.5t50.5 -154.5l-308 -44q0 -183 132 -183q103 0 143 111l35 -16q-17 -56 -68.5 -101t-116.5 -45zM127 256l181 26q32 4 32 33q0 53 -24 85t-71 32q-58 0 -88 -50.5t-30 -125.5zM245 537
q-95 0 -132 101l19 7q30 -46 97 -46h32q69 0 97 46l19 -7q-37 -101 -132 -101z" />
    <glyph glyph-name="Edotaccent" unicode="&#x116;" horiz-adv-x="669" 
d="M592 0h-544v44l92 5v589q0 35 -30 36l-96 4v44h566l26 -248l-33 -3q-11 66 -30 108.5t-48 65t-61.5 30.5t-80.5 8q-67 0 -114 -3v-284h7q82 0 112.5 28.5t41.5 112.5h37v-336h-38q-4 49 -12 78t-26.5 45.5t-42.5 22t-65 5.5h-14v-273q0 -18 8.5 -25.5t26.5 -9.5
q40 -4 75 -4q110 0 159.5 50t77.5 184l33 -3l-10 -255q0 -16 -17 -16zM351 779q-28 0 -48 20t-20 49t20 49.5t48 20.5t48 -20.5t20 -49.5t-20 -49t-48 -20z" />
    <glyph glyph-name="edotaccent" unicode="&#x117;" horiz-adv-x="463" 
d="M250 -18q-100 0 -160 66.5t-60 180.5q0 101 63.5 171t151.5 70q87 0 137.5 -55.5t50.5 -154.5l-308 -44q0 -183 132 -183q103 0 143 111l35 -16q-17 -56 -68.5 -101t-116.5 -45zM127 256l181 26q32 4 32 33q0 53 -24 85t-71 32q-58 0 -88 -50.5t-30 -125.5zM245 538
q-28 0 -48 20t-20 49t20 49.5t48 20.5t48 -20.5t20 -49.5t-20 -49t-48 -20z" />
    <glyph glyph-name="Eogonek" unicode="&#x118;" horiz-adv-x="669" 
d="M521 -235q-39 0 -67 28t-28 64q0 65 93 143h-471v44l92 5v589q0 35 -30 36l-96 4v44h566l26 -248l-33 -3q-11 66 -30 108.5t-48 65t-61.5 30.5t-80.5 8q-67 0 -114 -3v-284h7q82 0 112.5 28.5t41.5 112.5h37v-336h-38q-4 49 -12 78t-26.5 45.5t-42.5 22t-65 5.5h-14v-273
q0 -18 8.5 -25.5t26.5 -9.5q40 -4 75 -4q110 0 159.5 50t77.5 184l33 -3l-10 -255q0 -16 -17 -16h-44q-33 -29 -47 -52.5t-14 -59.5q0 -26 19.5 -42t44.5 -16q8 0 15 1t11 2t10.5 4.5t9 4.5t11 7l11.5 8l10 -10q-39 -82 -108 -82z" />
    <glyph glyph-name="eogonek" unicode="&#x119;" horiz-adv-x="463" 
d="M305 -235q-39 0 -67 28t-28 64q0 62 77 130q-20 -5 -37 -5q-100 0 -160 66.5t-60 180.5q0 101 63.5 171t151.5 70q87 0 137.5 -55.5t50.5 -154.5l-308 -44q0 -183 132 -183q103 0 143 111l35 -16q-23 -70 -90 -119q-40 -29 -57 -55t-17 -66q0 -26 19.5 -42t44.5 -16
q8 0 15 1t11 2t10.5 4.5t9 4.5t11 7l11.5 8l10 -10q-39 -82 -108 -82zM127 256l181 26q32 4 32 33q0 53 -24 85t-71 32q-58 0 -88 -50.5t-30 -125.5z" />
    <glyph glyph-name="Ecaron" unicode="&#x11a;" horiz-adv-x="669" 
d="M592 0h-544v44l92 5v589q0 35 -30 36l-96 4v44h566l26 -248l-33 -3q-11 66 -30 108.5t-48 65t-61.5 30.5t-80.5 8q-67 0 -114 -3v-284h7q82 0 112.5 28.5t41.5 112.5h37v-336h-38q-4 49 -12 78t-26.5 45.5t-42.5 22t-65 5.5h-14v-273q0 -18 8.5 -25.5t26.5 -9.5
q40 -4 75 -4q110 0 159.5 50t77.5 184l33 -3l-10 -255q0 -16 -17 -16zM378 775h-56q-10 0 -16 12l-85 135h27l102 -89l102 89h28l-85 -135q-6 -12 -17 -12z" />
    <glyph glyph-name="ecaron" unicode="&#x11b;" horiz-adv-x="463" 
d="M250 -18q-100 0 -160 66.5t-60 180.5q0 101 63.5 171t151.5 70q87 0 137.5 -55.5t50.5 -154.5l-308 -44q0 -183 132 -183q103 0 143 111l35 -16q-17 -56 -68.5 -101t-116.5 -45zM127 256l181 26q32 4 32 33q0 53 -24 85t-71 32q-58 0 -88 -50.5t-30 -125.5zM273 536h-56
q-10 0 -16 12l-85 135h27l102 -89l102 89h28l-85 -135q-6 -12 -17 -12z" />
    <glyph glyph-name="Gcircumflex" unicode="&#x11c;" horiz-adv-x="700" 
d="M612 -21h-34l-38 106q-34 -49 -80.5 -77t-127.5 -28q-71 0 -130 32.5t-95.5 85t-56.5 116t-20 127.5q0 89 29 166t75 125.5t101 76t109 27.5q109 0 178 -70l30 64h29l29 -276l-35 -4q-24 112 -84 177.5t-145 65.5q-89 0 -144.5 -88t-55.5 -251q0 -175 49 -251.5
t148 -76.5q53 0 88.5 17t53 48.5t24.5 66t7 80.5q0 42 -40 43l-88 4v44h312v-44l-95 -5q0 -195 7 -301zM460 759l-110 104l-110 -104l-20 15l85 143q6 12 17 12h56q10 0 16 -12l85 -143z" />
    <glyph glyph-name="gcircumflex" unicode="&#x11d;" horiz-adv-x="509" 
d="M17 -107q0 16 -16 16h-39v32l137 18v-45q0 -76 114 -76q80 0 123.5 23t43.5 61t-24.5 56t-83.5 18q-9 0 -61 -1.5t-65 -1.5q-52 0 -81.5 26t-29.5 64q0 32 25.5 62.5t78.5 33.5q-47 13 -72.5 49t-25.5 84q0 62 53 108.5t129 46.5q79 0 123 -40q20 19 31.5 28t31 18.5
t38.5 9.5q21 0 35.5 -14.5t14.5 -36.5q0 -21 -11.5 -35.5t-28.5 -14.5q-19 0 -31 10t-12 24q0 11 -8 11q-6 0 -18.5 -6.5t-17.5 -15.5q34 -36 34 -98q0 -60 -49.5 -107t-122.5 -47q-13 0 -27.5 0.5t-18.5 0.5q-51 0 -71 -10.5t-20 -33.5q0 -35 52 -35q15 0 78 2t88 2
q67 0 100 -35t33 -83q0 -65 -55.5 -112t-168.5 -47q-114 0 -159.5 24t-45.5 67zM224 187q44 0 69 33.5t25 93.5q0 54 -26.5 86.5t-66.5 32.5q-42 0 -67 -31t-25 -92q0 -59 23.5 -91t67.5 -32zM334 518l-110 104l-110 -104l-20 15l85 143q6 12 17 12h56q10 0 16 -12l85 -143z
" />
    <glyph glyph-name="Gbreve" unicode="&#x11e;" horiz-adv-x="700" 
d="M612 -21h-34l-38 106q-34 -49 -80.5 -77t-127.5 -28q-71 0 -130 32.5t-95.5 85t-56.5 116t-20 127.5q0 89 29 166t75 125.5t101 76t109 27.5q109 0 178 -70l30 64h29l29 -276l-35 -4q-24 112 -84 177.5t-145 65.5q-89 0 -144.5 -88t-55.5 -251q0 -175 49 -251.5
t148 -76.5q53 0 88.5 17t53 48.5t24.5 66t7 80.5q0 42 -40 43l-88 4v44h312v-44l-95 -5q0 -195 7 -301zM350 778q-95 0 -132 101l19 7q30 -46 97 -46h32q69 0 97 46l19 -7q-37 -101 -132 -101z" />
    <glyph glyph-name="gbreve" unicode="&#x11f;" horiz-adv-x="509" 
d="M17 -107q0 16 -16 16h-39v32l137 18v-45q0 -76 114 -76q80 0 123.5 23t43.5 61t-24.5 56t-83.5 18q-9 0 -61 -1.5t-65 -1.5q-52 0 -81.5 26t-29.5 64q0 32 25.5 62.5t78.5 33.5q-47 13 -72.5 49t-25.5 84q0 62 53 108.5t129 46.5q79 0 123 -40q20 19 31.5 28t31 18.5
t38.5 9.5q21 0 35.5 -14.5t14.5 -36.5q0 -21 -11.5 -35.5t-28.5 -14.5q-19 0 -31 10t-12 24q0 11 -8 11q-6 0 -18.5 -6.5t-17.5 -15.5q34 -36 34 -98q0 -60 -49.5 -107t-122.5 -47q-13 0 -27.5 0.5t-18.5 0.5q-51 0 -71 -10.5t-20 -33.5q0 -35 52 -35q15 0 78 2t88 2
q67 0 100 -35t33 -83q0 -65 -55.5 -112t-168.5 -47q-114 0 -159.5 24t-45.5 67zM224 187q44 0 69 33.5t25 93.5q0 54 -26.5 86.5t-66.5 32.5q-42 0 -67 -31t-25 -92q0 -59 23.5 -91t67.5 -32zM223 537q-95 0 -132 101l19 7q30 -46 97 -46h32q69 0 97 46l19 -7
q-37 -101 -132 -101z" />
    <glyph glyph-name="Gdotaccent" unicode="&#x120;" horiz-adv-x="700" 
d="M612 -21h-34l-38 106q-34 -49 -80.5 -77t-127.5 -28q-71 0 -130 32.5t-95.5 85t-56.5 116t-20 127.5q0 89 29 166t75 125.5t101 76t109 27.5q109 0 178 -70l30 64h29l29 -276l-35 -4q-24 112 -84 177.5t-145 65.5q-89 0 -144.5 -88t-55.5 -251q0 -175 49 -251.5
t148 -76.5q53 0 88.5 17t53 48.5t24.5 66t7 80.5q0 42 -40 43l-88 4v44h312v-44l-95 -5q0 -195 7 -301zM350 779q-28 0 -48 20t-20 49t20 49.5t48 20.5t48 -20.5t20 -49.5t-20 -49t-48 -20z" />
    <glyph glyph-name="gdotaccent" unicode="&#x121;" horiz-adv-x="509" 
d="M17 -107q0 16 -16 16h-39v32l137 18v-45q0 -76 114 -76q80 0 123.5 23t43.5 61t-24.5 56t-83.5 18q-9 0 -61 -1.5t-65 -1.5q-52 0 -81.5 26t-29.5 64q0 32 25.5 62.5t78.5 33.5q-47 13 -72.5 49t-25.5 84q0 62 53 108.5t129 46.5q79 0 123 -40q20 19 31.5 28t31 18.5
t38.5 9.5q21 0 35.5 -14.5t14.5 -36.5q0 -21 -11.5 -35.5t-28.5 -14.5q-19 0 -31 10t-12 24q0 11 -8 11q-6 0 -18.5 -6.5t-17.5 -15.5q34 -36 34 -98q0 -60 -49.5 -107t-122.5 -47q-13 0 -27.5 0.5t-18.5 0.5q-51 0 -71 -10.5t-20 -33.5q0 -35 52 -35q15 0 78 2t88 2
q67 0 100 -35t33 -83q0 -65 -55.5 -112t-168.5 -47q-114 0 -159.5 24t-45.5 67zM224 187q44 0 69 33.5t25 93.5q0 54 -26.5 86.5t-66.5 32.5q-42 0 -67 -31t-25 -92q0 -59 23.5 -91t67.5 -32zM223 538q-28 0 -48 20t-20 49t20 49.5t48 20.5t48 -20.5t20 -49.5t-20 -49
t-48 -20z" />
    <glyph glyph-name="uni0122" unicode="&#x122;" horiz-adv-x="700" 
d="M612 -21h-34l-38 106q-34 -49 -80.5 -77t-127.5 -28q-71 0 -130 32.5t-95.5 85t-56.5 116t-20 127.5q0 89 29 166t75 125.5t101 76t109 27.5q109 0 178 -70l30 64h29l29 -276l-35 -4q-24 112 -84 177.5t-145 65.5q-89 0 -144.5 -88t-55.5 -251q0 -175 49 -251.5
t148 -76.5q53 0 88.5 17t53 48.5t24.5 66t7 80.5q0 42 -40 43l-88 4v44h312v-44l-95 -5q0 -195 7 -301zM296 -287l-18 23q29 18 52 46.5t23 55.5q0 14 -5 14q-2 0 -8 -2.5t-13 -2.5q-17 0 -28 13t-11 31q0 20 13 34.5t34 14.5q24 0 41 -21.5t17 -53.5q0 -84 -97 -152z" />
    <glyph glyph-name="uni0123" unicode="&#x123;" horiz-adv-x="509" 
d="M17 -107q0 16 -16 16h-39v32l137 18v-45q0 -76 114 -76q80 0 123.5 23t43.5 61t-24.5 56t-83.5 18q-9 0 -61 -1.5t-65 -1.5q-52 0 -81.5 26t-29.5 64q0 32 25.5 62.5t78.5 33.5q-47 13 -72.5 49t-25.5 84q0 62 53 108.5t129 46.5q79 0 123 -40q20 19 31.5 28t31 18.5
t38.5 9.5q21 0 35.5 -14.5t14.5 -36.5q0 -21 -11.5 -35.5t-28.5 -14.5q-19 0 -31 10t-12 24q0 11 -8 11q-6 0 -18.5 -6.5t-17.5 -15.5q34 -36 34 -98q0 -60 -49.5 -107t-122.5 -47q-13 0 -27.5 0.5t-18.5 0.5q-51 0 -71 -10.5t-20 -33.5q0 -35 52 -35q15 0 78 2t88 2
q67 0 100 -35t33 -83q0 -65 -55.5 -112t-168.5 -47q-114 0 -159.5 24t-45.5 67zM224 187q44 0 69 33.5t25 93.5q0 54 -26.5 86.5t-66.5 32.5q-42 0 -67 -31t-25 -92q0 -59 23.5 -91t67.5 -32zM263 744l18 -23q-29 -18 -52 -46.5t-23 -55.5q0 -14 5 -14q1 0 7 2.5t14 2.5
q17 0 28 -13t11 -31q0 -20 -13 -34.5t-34 -14.5q-24 0 -41 21.5t-17 53.5q0 84 97 152z" />
    <glyph glyph-name="Hcircumflex" unicode="&#x124;" horiz-adv-x="785" 
d="M768 0h-311v44l89 4v302h-307v-268q0 -18 8.5 -25.5t26.5 -8.5l87 -4v-44h-310v44l89 5v589q0 35 -27 36l-93 4v44h309v-44l-90 -5v-270h307v235q0 35 -27 36l-92 4v44h311v-44l-93 -5v-591q0 -19 8.5 -26.5t26.5 -8.5l88 -3v-44zM503 759l-110 104l-110 -104l-20 15
l85 143q6 12 17 12h56q10 0 16 -12l85 -143z" />
    <glyph glyph-name="hcircumflex" unicode="&#x125;" horiz-adv-x="565" 
d="M558 0h-228v38l60 4v241q0 54 -25.5 89.5t-69.5 35.5q-49 0 -81.5 -40.5t-32.5 -110.5v-182q0 -19 6.5 -26t24.5 -8l61 -3v-38h-231v38l58 4v564q0 27 -8 36.5t-38 9.5h-50v37q65 0 145 39h32v-353q64 90 150 90q68 0 104 -45.5t36 -124.5v-220q0 -18 6.5 -25.5
t24.5 -8.5l56 -3v-38zM397 759l-110 104l-110 -104l-20 15l85 143q6 12 17 12h56q10 0 16 -12l85 -143z" />
    <glyph glyph-name="Hbar" unicode="&#x126;" horiz-adv-x="785" 
d="M737 513h-92v-431q0 -19 8.5 -26.5t26.5 -8.5l88 -3v-44h-311v44l89 4v302h-307v-268q0 -18 8.5 -25.5t26.5 -8.5l87 -4v-44h-310v44l89 5v464h-89v53h89v72q0 35 -27 36l-93 4v44h309v-44l-90 -5v-107h307v72q0 35 -27 36l-92 4v44h311v-44l-93 -5v-107h92v-53zM239 403
h307v110h-307v-110z" />
    <glyph glyph-name="hbar" unicode="&#x127;" horiz-adv-x="565" 
d="M558 0h-228v38l60 4v241q0 54 -25.5 89.5t-69.5 35.5q-49 0 -81.5 -40.5t-32.5 -110.5v-182q0 -19 6.5 -26t24.5 -8l61 -3v-38h-231v38l58 4v483h-79v46h79v35q0 27 -8 36.5t-38 9.5h-50v37q65 0 145 39h32v-157h79v-46h-79v-150q64 90 150 90q68 0 104 -45.5t36 -124.5
v-220q0 -18 6.5 -25.5t24.5 -8.5l56 -3v-38z" />
    <glyph glyph-name="Itilde" unicode="&#x128;" horiz-adv-x="379" 
d="M362 0h-311v44l89 5v589q0 35 -27 36l-92 4v44h310v-44l-92 -5v-591q0 -18 8.5 -25.5t26.5 -8.5l88 -4v-44zM243 778q-25 0 -62 29.5t-57 29.5q-41 0 -53 -46l-20 7q24 101 89 101q25 0 62 -29.5t57 -29.5q41 0 53 46l20 -7q-24 -101 -89 -101z" />
    <glyph glyph-name="itilde" unicode="&#x129;" horiz-adv-x="276" 
d="M267 0h-230v38l63 4v301q0 27 -8 36.5t-38 9.5h-50v37q65 0 145 39h33v-390q0 -19 6.5 -25.5t24.5 -8.5l54 -3v-38zM193 537q-25 0 -62 29.5t-57 29.5q-41 0 -53 -46l-20 7q24 101 89 101q25 0 62 -29.5t57 -29.5q41 0 53 46l20 -7q-24 -101 -89 -101z" />
    <glyph glyph-name="Imacron" unicode="&#x12a;" horiz-adv-x="379" 
d="M362 0h-311v44l89 5v589q0 35 -27 36l-92 4v44h310v-44l-92 -5v-591q0 -18 8.5 -25.5t26.5 -8.5l88 -4v-44zM310 801h-244v62h244v-62z" />
    <glyph glyph-name="imacron" unicode="&#x12b;" horiz-adv-x="276" 
d="M267 0h-230v38l63 4v301q0 27 -8 36.5t-38 9.5h-50v37q65 0 145 39h33v-390q0 -19 6.5 -25.5t24.5 -8.5l54 -3v-38zM263 560h-244v62h244v-62z" />
    <glyph glyph-name="Ibreve" unicode="&#x12c;" horiz-adv-x="379" 
d="M362 0h-311v44l89 5v589q0 35 -27 36l-92 4v44h310v-44l-92 -5v-591q0 -18 8.5 -25.5t26.5 -8.5l88 -4v-44zM190 778q-95 0 -132 101l19 7q30 -46 97 -46h32q69 0 97 46l19 -7q-37 -101 -132 -101z" />
    <glyph glyph-name="ibreve" unicode="&#x12d;" horiz-adv-x="276" 
d="M267 0h-230v38l63 4v301q0 27 -8 36.5t-38 9.5h-50v37q65 0 145 39h33v-390q0 -19 6.5 -25.5t24.5 -8.5l54 -3v-38zM141 537q-95 0 -132 101l19 7q30 -46 97 -46h32q69 0 97 46l19 -7q-37 -101 -132 -101z" />
    <glyph glyph-name="Iogonek" unicode="&#x12e;" horiz-adv-x="379" 
d="M330 -153q-39 -82 -108 -82q-39 0 -67 28t-28 64q0 66 94 143h-170v44l89 5v589q0 35 -27 36l-92 4v44h310v-44l-92 -5v-591q0 -18 8.5 -25.5t26.5 -8.5l88 -4v-44h-113q-33 -29 -47 -52.5t-14 -59.5q0 -26 19.5 -42t44.5 -16q8 0 15 1t11 2t10.5 4.5t9 4.5t11 7l11.5 8z
" />
    <glyph glyph-name="iogonek" unicode="&#x12f;" horiz-adv-x="276" 
d="M159 -235q-39 0 -67 28t-28 64q0 65 93 143h-120v38l63 4v301q0 27 -8 36.5t-38 9.5h-50v37q65 0 145 39h33v-390q0 -19 6.5 -25.5t24.5 -8.5l54 -3v-38h-81q-33 -29 -47 -52.5t-14 -59.5q0 -26 19.5 -42t44.5 -16q8 0 15 1t11 2t10.5 4.5t9 4.5t11 7l11.5 8l10 -10
q-39 -82 -108 -82zM135 599q-24 0 -40.5 17.5t-16.5 43.5t16.5 43.5t40.5 17.5t41 -18t17 -43t-17 -43t-41 -18z" />
    <glyph glyph-name="Idotaccent" unicode="&#x130;" horiz-adv-x="379" 
d="M362 0h-311v44l89 5v589q0 35 -27 36l-92 4v44h310v-44l-92 -5v-591q0 -18 8.5 -25.5t26.5 -8.5l88 -4v-44zM190 779q-28 0 -48 20t-20 49t20 49.5t48 20.5t48 -20.5t20 -49.5t-20 -49t-48 -20z" />
    <glyph glyph-name="dotlessi" unicode="&#x131;" horiz-adv-x="276" 
d="M267 0h-230v38l63 4v301q0 27 -8 36.5t-38 9.5h-50v37q65 0 145 39h33v-390q0 -19 6.5 -25.5t24.5 -8.5l54 -3v-38z" />
    <glyph glyph-name="IJ" unicode="&#x132;" horiz-adv-x="906" 
d="M362 0h-311v44l89 5v589q0 35 -27 36l-92 4v44h310v-44l-92 -5v-591q0 -18 8.5 -25.5t26.5 -8.5l88 -4v-44zM572 -18q-92 0 -137.5 47.5t-45.5 117.5q0 59 26 93t69 34q33 0 50.5 -21t17.5 -48q0 -31 -19 -49.5t-43 -18.5q-9 0 -18 3t-13 3q-8 0 -14 -8.5t-6 -21.5
t8.5 -32t35.5 -38.5t67 -19.5q139 0 139 194v421q0 35 -27 36l-101 4v44h318v-44l-91 -5v-456q0 -105 -53 -170t-163 -65z" />
    <glyph glyph-name="ij" unicode="&#x133;" horiz-adv-x="538" 
d="M135 599q-24 0 -40.5 17.5t-16.5 43.5t16.5 43.5t40.5 17.5t41 -18t17 -43t-17 -43t-41 -18zM267 0h-230v38l63 4v301q0 27 -8 36.5t-38 9.5h-50v37q65 0 145 39h33v-390q0 -19 6.5 -25.5t24.5 -8.5l54 -3v-38zM411 599q-24 0 -40.5 17.5t-16.5 43.5t16.5 43.5t40.5 17.5
t41 -18t17 -43t-17 -43t-41 -18zM307 -193q-25 0 -46 16.5t-21 41.5q0 22 13 37t34 15q15 0 26.5 -9t11.5 -22q0 -25 19 -25q21 0 26.5 43.5t5.5 142.5v296q0 27 -8 36.5t-38 9.5h-50v37q65 0 145 39h33v-408q0 -109 -42 -179.5t-109 -70.5z" />
    <glyph glyph-name="Jcircumflex" unicode="&#x134;" horiz-adv-x="527" 
d="M193 -18q-92 0 -137.5 47.5t-45.5 117.5q0 59 26 93t69 34q33 0 50.5 -21t17.5 -48q0 -31 -19 -49.5t-43 -18.5q-9 0 -18 3t-13 3q-8 0 -14 -8.5t-6 -21.5t8.5 -32t35.5 -38.5t67 -19.5q139 0 139 194v421q0 35 -27 36l-101 4v44h318v-44l-91 -5v-456q0 -105 -53 -170
t-163 -65zM470 759l-110 104l-110 -104l-20 15l85 143q6 12 17 12h56q10 0 16 -12l85 -143z" />
    <glyph glyph-name="jcircumflex" unicode="&#x135;" horiz-adv-x="262" 
d="M31 -193q-25 0 -46 16.5t-21 41.5q0 22 13 37t34 15q15 0 26.5 -9t11.5 -22q0 -25 19 -25q21 0 26.5 43.5t5.5 142.5v296q0 27 -8 36.5t-38 9.5h-50v37q65 0 145 39h33v-408q0 -109 -42 -179.5t-109 -70.5zM252 518l-110 104l-110 -104l-20 15l85 143q6 12 17 12h56
q10 0 16 -12l85 -143z" />
    <glyph glyph-name="uni0136" unicode="&#x136;" horiz-adv-x="733" 
d="M769 0h-331v44q54 1 73.5 4.5t19.5 15.5q0 9 -11 26l-176 278l-105 -120v-166q0 -18 8.5 -25.5t26.5 -8.5l85 -4v-44h-310v44l91 5v589q0 35 -27 36l-95 4v44h311v-44l-90 -5v-359l261 299l1 1q14 18 14 32q0 32 -109 32v44h302v-44q-49 0 -83 -18t-93 -81
q-29 -30 -120 -134l119.5 -187.5t114.5 -176.5q13 -19 38.5 -27t84.5 -10v-44zM357 -287l-18 23q29 18 52 46.5t23 55.5q0 14 -5 14q-1 0 -7 -2.5t-14 -2.5q-17 0 -28 13t-11 31q0 20 13 34.5t34 14.5q24 0 41 -21.5t17 -53.5q0 -84 -97 -152z" />
    <glyph glyph-name="uni0137" unicode="&#x137;" horiz-adv-x="543" 
d="M553 0h-244v38l26 1q23 1 23 14q0 8 -7 17l-111 164l-58 -54v-106q0 -19 6.5 -25.5t24.5 -7.5l61 -3v-38h-232v38l58 4v564q0 27 -8 36.5t-38 9.5h-50v37q65 0 145 39h33v-496l122 120q30 30 30 41q0 7 -5.5 12t-17 7.5t-19.5 3.5t-24 2t-19 1v39h246v-40
q-39 -1 -67.5 -17t-62.5 -48l-65 -62l155 -228q15 -21 42 -22l56 -3v-38zM252 -287l-18 23q29 18 52 46.5t23 55.5q0 14 -5 14q-2 0 -8 -2.5t-13 -2.5q-17 0 -28 13t-11 31q0 20 13 34.5t34 14.5q24 0 41 -21.5t17 -53.5q0 -84 -97 -152z" />
    <glyph glyph-name="kgreenlandic" unicode="&#x138;" horiz-adv-x="543" 
d="M553 0h-244v38l26 1q23 1 23 14q0 8 -7 17l-111 164l-58 -54v-106q0 -19 6.5 -25.5t24.5 -7.5l61 -3v-38h-232v38l58 4v301q0 27 -8 36.5t-38 9.5h-50v37q65 0 145 39h33v-233l122 120q30 30 30 41q0 7 -5.5 12t-17 7.5t-19.5 3.5t-24 2t-19 1v39h246v-40
q-39 -1 -67.5 -17t-62.5 -48l-65 -62l155 -228q15 -21 42 -22l56 -3v-38z" />
    <glyph glyph-name="Lacute" unicode="&#x139;" horiz-adv-x="628" 
d="M586 0h-537v44l91 5v589q0 35 -27 36l-94 4v44h317v-44l-97 -5v-594q0 -18 8.5 -25.5t26.5 -9.5q40 -4 75 -4q109 0 155.5 49.5t75.5 184.5l33 -3l-10 -255q0 -16 -17 -16zM279 758l-14 16l108 139q13 13 31 13t31 -13t13 -31q0 -24 -20 -37z" />
    <glyph glyph-name="lacute" unicode="&#x13a;" horiz-adv-x="276" 
d="M274 0h-234v38l60 4v564q0 27 -8 36.5t-38 9.5h-50v37q65 0 145 39h33v-653q0 -19 6.5 -26t24.5 -8l61 -3v-38zM104 758l-14 16l108 139q13 13 31 13t31 -13t13 -31q0 -24 -20 -37z" />
    <glyph glyph-name="uni013B" unicode="&#x13b;" horiz-adv-x="628" 
d="M586 0h-537v44l91 5v589q0 35 -27 36l-94 4v44h317v-44l-97 -5v-594q0 -18 8.5 -25.5t26.5 -9.5q40 -4 75 -4q109 0 155.5 49.5t75.5 184.5l33 -3l-10 -255q0 -16 -17 -16zM309 -287l-18 23q29 18 52 46.5t23 55.5q0 14 -5 14q-2 0 -8 -2.5t-13 -2.5q-17 0 -28 13t-11 31
q0 20 13 34.5t34 14.5q24 0 41 -21.5t17 -53.5q0 -84 -97 -152z" />
    <glyph glyph-name="uni013C" unicode="&#x13c;" horiz-adv-x="276" 
d="M274 0h-234v38l60 4v564q0 27 -8 36.5t-38 9.5h-50v37q65 0 145 39h33v-653q0 -19 6.5 -26t24.5 -8l61 -3v-38zM102 -287l-18 23q29 18 52 46.5t23 55.5q0 14 -5 14q-2 0 -8 -2.5t-13 -2.5q-17 0 -28 13t-11 31q0 20 13 34.5t34 14.5q24 0 41 -21.5t17 -53.5
q0 -84 -97 -152z" />
    <glyph glyph-name="Lcaron" unicode="&#x13d;" horiz-adv-x="628" 
d="M586 0h-537v44l91 5v589q0 35 -27 36l-94 4v44h317v-44l-97 -5v-594q0 -18 8.5 -25.5t26.5 -9.5q40 -4 75 -4q109 0 155.5 49.5t75.5 184.5l33 -3l-10 -255q0 -16 -17 -16zM404 501l-18 23q29 18 52 46.5t23 55.5q0 14 -5 14q-2 0 -8 -2.5t-13 -2.5q-17 0 -28 13t-11 31
q0 20 13 34.5t34 14.5q24 0 41 -21.5t17 -53.5q0 -84 -97 -152z" />
    <glyph glyph-name="lcaron" unicode="&#x13e;" horiz-adv-x="336" 
d="M274 0h-234v38l60 4v564q0 27 -8 36.5t-38 9.5h-50v37q65 0 145 39h33v-653q0 -19 6.5 -26t24.5 -8l61 -3v-38zM225 503l-18 23q29 18 52 46.5t23 55.5q0 14 -5 14q-1 0 -7 -2.5t-14 -2.5q-17 0 -28 13t-11 31q0 20 13 34.5t34 14.5q24 0 41 -21.5t17 -53.5
q0 -84 -97 -152z" />
    <glyph glyph-name="Ldot" unicode="&#x13f;" horiz-adv-x="628" 
d="M586 0h-537v44l91 5v589q0 35 -27 36l-94 4v44h317v-44l-97 -5v-594q0 -18 8.5 -25.5t26.5 -9.5q40 -4 75 -4q109 0 155.5 49.5t75.5 184.5l33 -3l-10 -255q0 -16 -17 -16zM506 308q-26 0 -43.5 19t-17.5 47t18 47.5t43 19.5t43 -19.5t18 -47.5t-17.5 -47t-43.5 -19z" />
    <glyph glyph-name="ldot" unicode="&#x140;" horiz-adv-x="354" 
d="M274 0h-234v38l60 4v564q0 27 -8 36.5t-38 9.5h-50v37q65 0 145 39h33v-653q0 -19 6.5 -26t24.5 -8l61 -3v-38zM316 182q-26 0 -43.5 19t-17.5 47t18 47.5t43 19.5t43 -19.5t18 -47.5t-17.5 -47t-43.5 -19z" />
    <glyph glyph-name="Lslash" unicode="&#x141;" horiz-adv-x="628" 
d="M586 0h-537v44l91 5v278l-105 -52v62l105 52v249q0 35 -27 36l-94 4v44h317v-44l-97 -5v-235l98 49v-62l-98 -49v-297q0 -18 8.5 -25.5t26.5 -9.5q40 -4 75 -4q109 0 155.5 49.5t75.5 184.5l33 -3l-10 -255q0 -16 -17 -16z" />
    <glyph glyph-name="lslash" unicode="&#x142;" horiz-adv-x="275" 
d="M274 0h-234v38l60 4v272l-79 -39v62l79 39v230q0 27 -8 36.5t-38 9.5h-50v37q65 0 145 39h33v-311l76 39v-62l-76 -39v-280q0 -19 6.5 -26t24.5 -8l61 -3v-38z" />
    <glyph glyph-name="Nacute" unicode="&#x143;" horiz-adv-x="754" 
d="M634 -6h-38l-409 601v-387q0 -39 1 -61.5t7 -42t13 -28.5t24.5 -16.5t35.5 -10t52 -5.5v-44h-275v44q65 4 80 30.5t15 127.5v436q-24 36 -69 38l-48 2v44h198l365 -529v327q0 38 -1.5 62.5t-9 42t-14 26.5t-25 15t-33 8t-47.5 4v44h275v-44q-68 -7 -82.5 -33.5
t-14.5 -130.5v-520zM331 758l-14 16l108 139q13 13 31 13t31 -13t13 -31q0 -24 -20 -37z" />
    <glyph glyph-name="nacute" unicode="&#x144;" horiz-adv-x="558" 
d="M175 465v-113q57 113 150 113q68 0 103.5 -45t35.5 -125v-220q0 -18 6.5 -25.5t24.5 -8.5l60 -3v-38h-234v38l62 4v241q0 55 -22.5 90t-65.5 35q-44 0 -79 -43.5t-35 -107.5v-182q0 -19 6.5 -26t24.5 -8l60 -3v-38h-232v38l60 4v301q0 27 -8 36.5t-38 9.5h-40v37
q48 0 128 39h33zM245 517l-14 16l108 139q13 13 31 13t31 -13t13 -31q0 -24 -20 -37z" />
    <glyph glyph-name="uni0145" unicode="&#x145;" horiz-adv-x="754" 
d="M634 -6h-38l-409 601v-387q0 -39 1 -61.5t7 -42t13 -28.5t24.5 -16.5t35.5 -10t52 -5.5v-44h-275v44q65 4 80 30.5t15 127.5v436q-24 36 -69 38l-48 2v44h198l365 -529v327q0 38 -1.5 62.5t-9 42t-14 26.5t-25 15t-33 8t-47.5 4v44h275v-44q-68 -7 -82.5 -33.5
t-14.5 -130.5v-520zM346 -287l-18 23q29 18 52 46.5t23 55.5q0 14 -5 14q-2 0 -8 -2.5t-13 -2.5q-17 0 -28 13t-11 31q0 20 13 34.5t34 14.5q24 0 41 -21.5t17 -53.5q0 -84 -97 -152z" />
    <glyph glyph-name="uni0146" unicode="&#x146;" horiz-adv-x="558" 
d="M175 465v-113q57 113 150 113q68 0 103.5 -45t35.5 -125v-220q0 -18 6.5 -25.5t24.5 -8.5l60 -3v-38h-234v38l62 4v241q0 55 -22.5 90t-65.5 35q-44 0 -79 -43.5t-35 -107.5v-182q0 -19 6.5 -26t24.5 -8l60 -3v-38h-232v38l60 4v301q0 27 -8 36.5t-38 9.5h-40v37
q48 0 128 39h33zM247 -287l-18 23q29 18 52 46.5t23 55.5q0 14 -5 14q-1 0 -7 -2.5t-14 -2.5q-17 0 -28 13t-11 31q0 20 13 34.5t34 14.5q24 0 41 -21.5t17 -53.5q0 -84 -97 -152z" />
    <glyph glyph-name="Ncaron" unicode="&#x147;" horiz-adv-x="754" 
d="M634 -6h-38l-409 601v-387q0 -39 1 -61.5t7 -42t13 -28.5t24.5 -16.5t35.5 -10t52 -5.5v-44h-275v44q65 4 80 30.5t15 127.5v436q-24 36 -69 38l-48 2v44h198l365 -529v327q0 38 -1.5 62.5t-9 42t-14 26.5t-25 15t-33 8t-47.5 4v44h275v-44q-68 -7 -82.5 -33.5
t-14.5 -130.5v-520zM413 775h-56q-10 0 -16 12l-85 135h27l102 -89l102 89h28l-85 -135q-6 -12 -17 -12z" />
    <glyph glyph-name="ncaron" unicode="&#x148;" horiz-adv-x="558" 
d="M175 465v-113q57 113 150 113q68 0 103.5 -45t35.5 -125v-220q0 -18 6.5 -25.5t24.5 -8.5l60 -3v-38h-234v38l62 4v241q0 55 -22.5 90t-65.5 35q-44 0 -79 -43.5t-35 -107.5v-182q0 -19 6.5 -26t24.5 -8l60 -3v-38h-232v38l60 4v301q0 27 -8 36.5t-38 9.5h-40v37
q48 0 128 39h33zM310 534h-56q-10 0 -16 12l-85 135h27l102 -89l102 89h28l-85 -135q-6 -12 -17 -12z" />
    <glyph glyph-name="napostrophe" unicode="&#x149;" horiz-adv-x="558" 
d="M175 465v-113q57 113 150 113q68 0 103.5 -45t35.5 -125v-220q0 -18 6.5 -25.5t24.5 -8.5l60 -3v-38h-234v38l62 4v241q0 55 -22.5 90t-65.5 35q-44 0 -79 -43.5t-35 -107.5v-182q0 -19 6.5 -26t24.5 -8l60 -3v-38h-232v38l60 4v301q0 27 -8 36.5t-38 9.5h-40v37
q48 0 128 39h33zM247 -287l-18 23q29 18 52 46.5t23 55.5q0 14 -5 14q-1 0 -7 -2.5t-14 -2.5q-17 0 -28 13t-11 31q0 20 13 34.5t34 14.5q24 0 41 -21.5t17 -53.5q0 -84 -97 -152z" />
    <glyph glyph-name="Eng" unicode="&#x14a;" horiz-adv-x="754" 
d="M634 514v-534q0 -86 -45.5 -131.5t-110.5 -45.5q-56 0 -89 27.5t-33 72.5q0 35 20 53.5t46 18.5q30 0 47 -20t17 -46q0 -9 -2.5 -18.5t-2.5 -13.5q0 -9 8 -15t20 -6q8 0 19.5 5.5t25 17.5t23 37t9.5 57v35l-399 587v-387q0 -39 1 -61.5t7 -42t13 -28.5t24.5 -16.5
t35.5 -10t52 -5.5v-44h-275v44q65 4 80 30.5t15 127.5v436q-24 36 -69 38l-48 2v44h198l365 -529v327q0 38 -1.5 62.5t-9 42t-14 26.5t-25 15t-33 8t-47.5 4v44h275v-44q-68 -7 -82.5 -33.5t-14.5 -130.5z" />
    <glyph glyph-name="eng" unicode="&#x14b;" horiz-adv-x="545" 
d="M465 295v-238q0 -109 -42 -179.5t-109 -70.5q-25 0 -46 16.5t-21 41.5q0 22 13 37t34 15q15 0 26.5 -9t11.5 -22q0 -25 19 -25q21 0 26.5 43.5t5.5 142.5v236q0 55 -22.5 90t-65.5 35q-44 0 -79 -43.5t-35 -107.5v-182q0 -19 6.5 -26t24.5 -8l60 -3v-38h-232v38l60 4v301
q0 27 -8 36.5t-38 9.5h-40v37q48 0 128 39h33v-113q57 113 150 113q68 0 104 -45.5t36 -124.5z" />
    <glyph glyph-name="Omacron" unicode="&#x14c;" horiz-adv-x="692" 
d="M346 -18q-131 0 -223.5 109.5t-92.5 263.5t92.5 264t223.5 110q130 0 223 -110t93 -264t-92.5 -263.5t-223.5 -109.5zM345 22q103 0 151.5 88t48.5 245t-48.5 245.5t-151.5 88.5q-198 0 -198 -334q0 -333 198 -333zM467 801h-244v62h244v-62z" />
    <glyph glyph-name="omacron" unicode="&#x14d;" horiz-adv-x="493" 
d="M246 -19q-90 0 -153 71.5t-63 172.5t63 172.5t153 71.5t153.5 -71.5t63.5 -172.5t-63.5 -172.5t-153.5 -71.5zM244 22q59 0 89.5 55.5t30.5 147.5t-30.5 148t-89.5 56t-89 -56t-30 -148t30 -147.5t89 -55.5zM368 560h-244v62h244v-62z" />
    <glyph glyph-name="Obreve" unicode="&#x14e;" horiz-adv-x="692" 
d="M346 -18q-131 0 -223.5 109.5t-92.5 263.5t92.5 264t223.5 110q130 0 223 -110t93 -264t-92.5 -263.5t-223.5 -109.5zM345 22q103 0 151.5 88t48.5 245t-48.5 245.5t-151.5 88.5q-198 0 -198 -334q0 -333 198 -333zM347 778q-95 0 -132 101l19 7q30 -46 97 -46h32
q69 0 97 46l19 -7q-37 -101 -132 -101z" />
    <glyph glyph-name="obreve" unicode="&#x14f;" horiz-adv-x="493" 
d="M246 -19q-90 0 -153 71.5t-63 172.5t63 172.5t153 71.5t153.5 -71.5t63.5 -172.5t-63.5 -172.5t-153.5 -71.5zM244 22q59 0 89.5 55.5t30.5 147.5t-30.5 148t-89.5 56t-89 -56t-30 -148t30 -147.5t89 -55.5zM246 537q-95 0 -132 101l19 7q30 -46 97 -46h32q69 0 97 46
l19 -7q-37 -101 -132 -101z" />
    <glyph glyph-name="Ohungarumlaut" unicode="&#x150;" horiz-adv-x="692" 
d="M346 -18q-131 0 -223.5 109.5t-92.5 263.5t92.5 264t223.5 110q130 0 223 -110t93 -264t-92.5 -263.5t-223.5 -109.5zM345 22q103 0 151.5 88t48.5 245t-48.5 245.5t-151.5 88.5q-198 0 -198 -334q0 -333 198 -333zM291 758l-16 7l38 140q8 22 34 22q14 0 24.5 -10
t10.5 -25q0 -12 -6 -21zM401 758l-16 7l38 140q8 22 34 22q14 0 24.5 -10t10.5 -25q0 -12 -6 -21z" />
    <glyph glyph-name="ohungarumlaut" unicode="&#x151;" horiz-adv-x="493" 
d="M246 -19q-90 0 -153 71.5t-63 172.5t63 172.5t153 71.5t153.5 -71.5t63.5 -172.5t-63.5 -172.5t-153.5 -71.5zM244 22q59 0 89.5 55.5t30.5 147.5t-30.5 148t-89.5 56t-89 -56t-30 -148t30 -147.5t89 -55.5zM194 517l-16 7l38 140q8 22 34 22q14 0 24.5 -10t10.5 -25
q0 -12 -6 -21zM304 517l-16 7l38 140q8 22 34 22q14 0 24.5 -10t10.5 -25q0 -12 -6 -21z" />
    <glyph glyph-name="OE" unicode="&#x152;" horiz-adv-x="1073" 
d="M996 0h-452q-17 0 -80.5 -9t-117.5 -9q-131 0 -223.5 109.5t-92.5 263.5t92.5 264t223.5 110q54 0 119.5 -3.5t78.5 -3.5h440l26 -248l-33 -3q-11 66 -30 108.5t-48 65t-61.5 30.5t-80.5 8q-67 0 -114 -3v-284h7q82 0 112.5 28.5t41.5 112.5h37v-336h-38q-4 49 -12 78
t-26.5 45.5t-42.5 22t-65 5.5h-14v-273q0 -18 8.5 -25.5t26.5 -9.5q40 -4 75 -4q110 0 159.5 50t77.5 184l33 -3l-10 -255q0 -16 -17 -16zM367 22q37 0 60.5 3t48 15t38 34t22 61t8.5 95v243q0 73 -11.5 118t-37.5 65.5t-53.5 26.5t-74.5 6q-105 0 -163 -90.5t-58 -243.5
t58 -243t163 -90z" />
    <glyph glyph-name="oe" unicode="&#x153;" horiz-adv-x="797" 
d="M584 -19q-129 0 -175 110q-52 -110 -163 -110q-90 0 -153 71.5t-63 172.5t63 172.5t153 71.5q57 0 100 -31t66 -85q25 54 68 85t99 31q87 0 137.5 -55.5t50.5 -154.5l-308 -44q0 -183 132 -183q103 0 143 111l35 -16q-17 -56 -68.5 -101t-116.5 -45zM244 22
q59 0 89.5 55.5t30.5 147.5t-30.5 148t-89.5 56t-89 -56t-30 -148t30 -147.5t89 -55.5zM461 255l181 26q32 4 32 33q0 53 -24 85t-71 32q-58 0 -88 -50.5t-30 -125.5z" />
    <glyph glyph-name="Racute" unicode="&#x154;" horiz-adv-x="690" 
d="M330 396q29 0 46 1t43.5 8.5t41 21t26 41.5t11.5 67q0 86 -35 116t-115 30l-109 -1v-284h91zM572 -10q-56 0 -87.5 42.5t-35.5 151.5q-2 56 -15 91.5t-37.5 52t-48 21.5t-59.5 5h-50v-272q0 -18 8.5 -25.5t26.5 -8.5l88 -4v-44h-314v44l92 5v589q0 35 -27 36l-96 4v44
h335q116 0 185.5 -43.5t69.5 -139.5q0 -69 -59 -120t-143 -51v-6q57 -11 90.5 -49.5t49.5 -116.5q30 -139 64 -139q18 0 28.5 29.5t10.5 75.5l32 -2q0 -83 -28 -126.5t-80 -43.5zM286 758l-14 16l108 139q13 13 31 13t31 -13t13 -31q0 -24 -20 -37z" />
    <glyph glyph-name="racute" unicode="&#x155;" horiz-adv-x="408" 
d="M289 0h-256v38l68 4q0 149 -4 301q-1 27 -8.5 36.5t-37.5 9.5h-53v37q58 4 130 39h33l5 -171l5 -1q24 86 58.5 131.5t87.5 45.5q28 0 53 -23.5t25 -56.5q0 -29 -15 -49t-37 -20q-26 0 -40.5 16t-14.5 37q0 18 10 31t10 16q0 5 -6 5q-28 0 -56.5 -41t-47 -106t-18.5 -130
v-74q0 -19 8 -26t26 -8l75 -3v-38zM176 517l-14 16l108 139q13 13 31 13t31 -13t13 -31q0 -24 -20 -37z" />
    <glyph glyph-name="uni0156" unicode="&#x156;" horiz-adv-x="690" 
d="M330 396q29 0 46 1t43.5 8.5t41 21t26 41.5t11.5 67q0 86 -35 116t-115 30l-109 -1v-284h91zM572 -10q-56 0 -87.5 42.5t-35.5 151.5q-2 56 -15 91.5t-37.5 52t-48 21.5t-59.5 5h-50v-272q0 -18 8.5 -25.5t26.5 -8.5l88 -4v-44h-314v44l92 5v589q0 35 -27 36l-96 4v44
h335q116 0 185.5 -43.5t69.5 -139.5q0 -69 -59 -120t-143 -51v-6q57 -11 90.5 -49.5t49.5 -116.5q30 -139 64 -139q18 0 28.5 29.5t10.5 75.5l32 -2q0 -83 -28 -126.5t-80 -43.5zM313 -287l-18 23q29 18 52 46.5t23 55.5q0 14 -5 14q-1 0 -7 -2.5t-14 -2.5q-17 0 -28 13
t-11 31q0 20 13 34.5t34 14.5q24 0 41 -21.5t17 -53.5q0 -84 -97 -152z" />
    <glyph glyph-name="uni0157" unicode="&#x157;" horiz-adv-x="408" 
d="M289 0h-256v38l68 4q0 149 -4 301q-1 27 -8.5 36.5t-37.5 9.5h-53v37q58 4 130 39h33l5 -171l5 -1q24 86 58.5 131.5t87.5 45.5q28 0 53 -23.5t25 -56.5q0 -29 -15 -49t-37 -20q-26 0 -40.5 16t-14.5 37q0 18 10 31t10 16q0 5 -6 5q-28 0 -56.5 -41t-47 -106t-18.5 -130
v-74q0 -19 8 -26t26 -8l75 -3v-38zM103 -287l-18 23q29 18 52 46.5t23 55.5q0 14 -5 14q-1 0 -7 -2.5t-14 -2.5q-17 0 -28 13t-11 31q0 20 13 34.5t34 14.5q24 0 41 -21.5t17 -53.5q0 -84 -97 -152z" />
    <glyph glyph-name="Rcaron" unicode="&#x158;" horiz-adv-x="690" 
d="M330 396q29 0 46 1t43.5 8.5t41 21t26 41.5t11.5 67q0 86 -35 116t-115 30l-109 -1v-284h91zM572 -10q-56 0 -87.5 42.5t-35.5 151.5q-2 56 -15 91.5t-37.5 52t-48 21.5t-59.5 5h-50v-272q0 -18 8.5 -25.5t26.5 -8.5l88 -4v-44h-314v44l92 5v589q0 35 -27 36l-96 4v44
h335q116 0 185.5 -43.5t69.5 -139.5q0 -69 -59 -120t-143 -51v-6q57 -11 90.5 -49.5t49.5 -116.5q30 -139 64 -139q18 0 28.5 29.5t10.5 75.5l32 -2q0 -83 -28 -126.5t-80 -43.5zM364 775h-56q-10 0 -16 12l-85 135h27l102 -89l102 89h28l-85 -135q-6 -12 -17 -12z" />
    <glyph glyph-name="rcaron" unicode="&#x159;" horiz-adv-x="408" 
d="M289 0h-256v38l68 4q0 149 -4 301q-1 27 -8.5 36.5t-37.5 9.5h-53v37q58 4 130 39h33l5 -171l5 -1q24 86 58.5 131.5t87.5 45.5q28 0 53 -23.5t25 -56.5q0 -29 -15 -49t-37 -20q-26 0 -40.5 16t-14.5 37q0 18 10 31t10 16q0 5 -6 5q-28 0 -56.5 -41t-47 -106t-18.5 -130
v-74q0 -19 8 -26t26 -8l75 -3v-38zM241 536h-56q-10 0 -16 12l-85 135h27l102 -89l102 89h28l-85 -135q-6 -12 -17 -12z" />
    <glyph glyph-name="Sacute" unicode="&#x15a;" horiz-adv-x="567" 
d="M316 -18q-57 0 -111.5 24.5t-81.5 51.5l-33 -68h-31l-27 283l36 2q15 -102 85.5 -175.5t155.5 -73.5q75 0 117.5 40t42.5 95q0 25 -6.5 45.5t-22.5 35t-29.5 24.5t-41.5 19t-43.5 13t-49.5 12q-36 8 -56.5 14t-51.5 17.5t-49 26t-36.5 36t-27 51.5t-8.5 68q0 86 55.5 149
t151.5 63q98 0 171 -65l35 59h31l26 -258l-33 -4q-24 98 -85 163.5t-146 65.5q-64 0 -100.5 -37t-36.5 -87q0 -28 11 -49t24 -33.5t42.5 -24t47 -16t56.5 -13.5l13 -3q43 -10 68.5 -17.5t61 -24.5t55 -38.5t34 -58t14.5 -84.5q0 -102 -67 -165t-160 -63zM249 758l-14 16
l108 139q13 13 31 13t31 -13t13 -31q0 -24 -20 -37z" />
    <glyph glyph-name="sacute" unicode="&#x15b;" horiz-adv-x="428" 
d="M235 -15q-75 0 -129 49l-19 -45h-29l-21 190h32q16 -62 62.5 -109t104.5 -47q46 0 73.5 21.5t27.5 59.5q0 17 -7.5 29.5t-16.5 20t-28.5 14t-31.5 9.5t-38 8q-31 6 -48.5 10.5t-44 16t-40 26t-24.5 39.5t-11 58q0 52 40.5 94t103.5 42q60 0 114 -45l16 39h29l21 -163
l-32 -3q-14 51 -54.5 92.5t-93.5 41.5q-39 0 -63.5 -18.5t-24.5 -52.5q0 -37 29.5 -52.5t105.5 -31.5q36 -8 58 -15t48 -23t38.5 -43t12.5 -66q0 -59 -45.5 -102.5t-114.5 -43.5zM178 517l-14 16l108 139q13 13 31 13t31 -13t13 -31q0 -24 -20 -37z" />
    <glyph glyph-name="Scircumflex" unicode="&#x15c;" horiz-adv-x="567" 
d="M316 -18q-57 0 -111.5 24.5t-81.5 51.5l-33 -68h-31l-27 283l36 2q15 -102 85.5 -175.5t155.5 -73.5q75 0 117.5 40t42.5 95q0 25 -6.5 45.5t-22.5 35t-29.5 24.5t-41.5 19t-43.5 13t-49.5 12q-36 8 -56.5 14t-51.5 17.5t-49 26t-36.5 36t-27 51.5t-8.5 68q0 86 55.5 149
t151.5 63q98 0 171 -65l35 59h31l26 -258l-33 -4q-24 98 -85 163.5t-146 65.5q-64 0 -100.5 -37t-36.5 -87q0 -28 11 -49t24 -33.5t42.5 -24t47 -16t56.5 -13.5l13 -3q43 -10 68.5 -17.5t61 -24.5t55 -38.5t34 -58t14.5 -84.5q0 -102 -67 -165t-160 -63zM397 759l-110 104
l-110 -104l-20 15l85 143q6 12 17 12h56q10 0 16 -12l85 -143z" />
    <glyph glyph-name="scircumflex" unicode="&#x15d;" horiz-adv-x="428" 
d="M235 -15q-75 0 -129 49l-19 -45h-29l-21 190h32q16 -62 62.5 -109t104.5 -47q46 0 73.5 21.5t27.5 59.5q0 17 -7.5 29.5t-16.5 20t-28.5 14t-31.5 9.5t-38 8q-31 6 -48.5 10.5t-44 16t-40 26t-24.5 39.5t-11 58q0 52 40.5 94t103.5 42q60 0 114 -45l16 39h29l21 -163
l-32 -3q-14 51 -54.5 92.5t-93.5 41.5q-39 0 -63.5 -18.5t-24.5 -52.5q0 -37 29.5 -52.5t105.5 -31.5q36 -8 58 -15t48 -23t38.5 -43t12.5 -66q0 -59 -45.5 -102.5t-114.5 -43.5zM327 518l-110 104l-110 -104l-20 15l85 143q6 12 17 12h56q10 0 16 -12l85 -143z" />
    <glyph glyph-name="uni015E" unicode="&#x15e;" horiz-adv-x="567" 
d="M285 -201q-67 0 -133 48l7 13q34 -15 54 -19.5t54 -4.5q35 0 54.5 12.5t19.5 30.5q0 31 -38 31q-22 0 -35 -10l-13 6v84q-42 9 -78 28.5t-54 39.5l-33 -68h-31l-27 283l36 2q15 -102 85.5 -175.5t155.5 -73.5q75 0 117.5 40t42.5 95q0 25 -6.5 45.5t-22.5 35t-29.5 24.5
t-41.5 19t-43.5 13t-49.5 12q-36 8 -56.5 14t-51.5 17.5t-49 26t-36.5 36t-27 51.5t-8.5 68q0 86 55.5 149t151.5 63q98 0 171 -65l35 59h31l26 -258l-33 -4q-24 98 -85 163.5t-146 65.5q-64 0 -100.5 -37t-36.5 -87q0 -28 11 -49t24 -33.5t42.5 -24t47 -16t56.5 -13.5
l13 -3q43 -10 68.5 -17.5t61 -24.5t55 -38.5t34 -58t14.5 -84.5q0 -102 -67 -165t-160 -63q-11 0 -29 2v-54q21 7 41 7q34 0 55.5 -18.5t21.5 -43.5q0 -30 -32 -53t-88 -23z" />
    <glyph glyph-name="uni015F" unicode="&#x15f;" horiz-adv-x="428" 
d="M213 -201q-67 0 -133 48l7 13q34 -15 54 -19.5t54 -4.5q35 0 54.5 12.5t19.5 30.5q0 31 -38 31q-22 0 -35 -10l-13 6v87q-47 13 -77 41l-19 -45h-29l-21 190h32q16 -62 62.5 -109t104.5 -47q46 0 73.5 21.5t27.5 59.5q0 17 -7.5 29.5t-16.5 20t-28.5 14t-31.5 9.5t-38 8
q-31 6 -48.5 10.5t-44 16t-40 26t-24.5 39.5t-11 58q0 52 40.5 94t103.5 42q60 0 114 -45l16 39h29l21 -163l-32 -3q-14 51 -54.5 92.5t-93.5 41.5q-39 0 -63.5 -18.5t-24.5 -52.5q0 -37 29.5 -52.5t105.5 -31.5q36 -8 58 -15t48 -23t38.5 -43t12.5 -66q0 -59 -45.5 -102.5
t-114.5 -43.5q-8 0 -20 2v-57q21 7 41 7q34 0 55.5 -18.5t21.5 -43.5q0 -30 -32 -53t-88 -23z" />
    <glyph glyph-name="Scaron" unicode="&#x160;" horiz-adv-x="567" 
d="M316 -18q-57 0 -111.5 24.5t-81.5 51.5l-33 -68h-31l-27 283l36 2q15 -102 85.5 -175.5t155.5 -73.5q75 0 117.5 40t42.5 95q0 25 -6.5 45.5t-22.5 35t-29.5 24.5t-41.5 19t-43.5 13t-49.5 12q-36 8 -56.5 14t-51.5 17.5t-49 26t-36.5 36t-27 51.5t-8.5 68q0 86 55.5 149
t151.5 63q98 0 171 -65l35 59h31l26 -258l-33 -4q-24 98 -85 163.5t-146 65.5q-64 0 -100.5 -37t-36.5 -87q0 -28 11 -49t24 -33.5t42.5 -24t47 -16t56.5 -13.5l13 -3q43 -10 68.5 -17.5t61 -24.5t55 -38.5t34 -58t14.5 -84.5q0 -102 -67 -165t-160 -63zM314 775h-56
q-10 0 -16 12l-85 135h27l102 -89l102 89h28l-85 -135q-6 -12 -17 -12z" />
    <glyph glyph-name="scaron" unicode="&#x161;" horiz-adv-x="428" 
d="M235 -15q-75 0 -129 49l-19 -45h-29l-21 190h32q16 -62 62.5 -109t104.5 -47q46 0 73.5 21.5t27.5 59.5q0 17 -7.5 29.5t-16.5 20t-28.5 14t-31.5 9.5t-38 8q-31 6 -48.5 10.5t-44 16t-40 26t-24.5 39.5t-11 58q0 52 40.5 94t103.5 42q60 0 114 -45l16 39h29l21 -163
l-32 -3q-14 51 -54.5 92.5t-93.5 41.5q-39 0 -63.5 -18.5t-24.5 -52.5q0 -37 29.5 -52.5t105.5 -31.5q36 -8 58 -15t48 -23t38.5 -43t12.5 -66q0 -59 -45.5 -102.5t-114.5 -43.5zM243 536h-56q-10 0 -16 12l-85 135h27l102 -89l102 89h28l-85 -135q-6 -12 -17 -12z" />
    <glyph glyph-name="Tcommaaccent" unicode="&#x162;" horiz-adv-x="623" 
d="M300 0h-136v44l98 5v595q0 26 -9.5 34t-30.5 8q-149 0 -174 -236l-33 3l15 298h27q15 -29 38 -29h433q24 0 38 29h27l15 -298l-33 -3q-25 236 -174 236q-21 0 -30.5 -8t-9.5 -34v-555q0 -18 13 -29t31 -12l87 -4v-44h-160v-70q21 7 41 7q34 0 55.5 -18.5t21.5 -43.5
q0 -30 -32 -53t-88 -23q-67 0 -133 48l7 13q34 -15 54 -19.5t54 -4.5q35 0 54.5 12.5t19.5 30.5q0 31 -38 31q-22 0 -35 -10l-13 6v94z" />
    <glyph glyph-name="tcommaaccent" unicode="&#x163;" horiz-adv-x="368" 
d="M220 -201q-67 0 -133 48l7 13q34 -15 54 -19.5t54 -4.5q35 0 54.5 12.5t19.5 30.5q0 31 -38 31q-22 0 -35 -10l-13 6v79q-46 4 -72 31.5t-26 76.5v2l5 315h-89v37q72 8 97 54.5t36 153.5l41 2l-4 -199h132v-48h-133l-2 -285q0 -85 63 -85q30 0 48 24t23.5 52.5t5.5 62.5
h31q4 -20 4 -43q0 -21 -7 -45t-21.5 -47t-40.5 -39.5t-59 -19.5v-55q21 7 41 7q34 0 55.5 -18.5t21.5 -43.5q0 -30 -32 -53t-88 -23z" />
    <glyph glyph-name="Tcaron" unicode="&#x164;" horiz-adv-x="623" 
d="M492 0h-328v44l98 5v595q0 26 -9.5 34t-30.5 8q-149 0 -174 -236l-33 3l15 298h27q15 -29 38 -29h433q24 0 38 29h27l15 -298l-33 -3q-25 236 -174 236q-21 0 -30.5 -8t-9.5 -34v-555q0 -18 13 -29t31 -12l87 -4v-44zM339 777h-56q-10 0 -16 12l-85 135h27l102 -89
l102 89h28l-85 -135q-6 -12 -17 -12z" />
    <glyph glyph-name="tcaron" unicode="&#x165;" horiz-adv-x="368" 
d="M207 -16q-54 0 -84.5 27.5t-30.5 81.5v2l5 315h-89v37q72 8 97 54.5t36 153.5l41 2l-4 -199h132v-48h-133l-2 -285q0 -85 63 -85q30 0 48 24t23.5 52.5t5.5 62.5h31q4 -20 4 -43q0 -53 -36.5 -102.5t-106.5 -49.5zM255 494l-18 23q29 18 52 46.5t23 55.5q0 14 -5 14
q-1 0 -7 -2.5t-14 -2.5q-17 0 -28 13t-11 31q0 20 13 34.5t34 14.5q24 0 41 -21.5t17 -53.5q0 -84 -97 -152z" />
    <glyph glyph-name="Tbar" unicode="&#x166;" horiz-adv-x="623" 
d="M492 0h-328v44l98 5v301h-98v53h98v241q0 26 -9.5 34t-30.5 8q-149 0 -174 -236l-33 3l15 298h27q15 -29 38 -29h433q24 0 38 29h27l15 -298l-33 -3q-25 236 -174 236q-21 0 -30.5 -8t-9.5 -34v-241h98v-53h-98v-261q0 -18 13 -29t31 -12l87 -4v-44z" />
    <glyph glyph-name="tbar" unicode="&#x167;" horiz-adv-x="368" 
d="M207 -16q-54 0 -84.5 27.5t-30.5 81.5v2l2 123h-65v48h65l3 144h-89v37q72 8 97 54.5t36 153.5l41 2l-4 -199h132v-48h-133l-1 -144h64v-48h-65v-93q0 -85 63 -85q30 0 48 24t23.5 52.5t5.5 62.5h31q4 -20 4 -43q0 -53 -36.5 -102.5t-106.5 -49.5z" />
    <glyph glyph-name="Utilde" unicode="&#x168;" horiz-adv-x="761" 
d="M382 -19q-257 0 -257 251v406q0 35 -27 36l-88 4v44h308v-44l-94 -5v-416q0 -100 43 -163t136 -63q99 0 143.5 62t44.5 193q0 100 -1 171t-1 85q0 46 -6 73.5t-23 41t-38 17.5t-59 4v44h264v-44q-53 0 -70.5 -23t-17.5 -92q0 -41 1 -121t1 -153q0 -47 -4.5 -85
t-20.5 -81.5t-43 -73t-76 -49t-115 -19.5zM457 778q-25 0 -62 29.5t-57 29.5q-41 0 -53 -46l-20 7q24 101 89 101q25 0 62 -29.5t57 -29.5q41 0 53 46l20 -7q-24 -101 -89 -101z" />
    <glyph glyph-name="utilde" unicode="&#x169;" horiz-adv-x="552" 
d="M564 38v-38q-101 0 -181 -8l-5 78l-5 2q-58 -86 -134 -86q-144 0 -144 178q0 19 1.5 85.5t1.5 93.5t-8 36.5t-38 9.5h-26v37q47 0 127 39h33q-6 -126 -6 -264q0 -86 21.5 -119t64.5 -33q53 0 80.5 42.5t27.5 111.5v140q0 27 -8 36.5t-38 9.5h-50v37q65 0 145 39h33v-366
q0 -39 21.5 -50t86.5 -11zM328 537q-25 0 -62 29.5t-57 29.5q-41 0 -53 -46l-20 7q24 101 89 101q25 0 62 -29.5t57 -29.5q41 0 53 46l20 -7q-24 -101 -89 -101z" />
    <glyph glyph-name="Umacron" unicode="&#x16a;" horiz-adv-x="761" 
d="M382 -19q-257 0 -257 251v406q0 35 -27 36l-88 4v44h308v-44l-94 -5v-416q0 -100 43 -163t136 -63q99 0 143.5 62t44.5 193q0 100 -1 171t-1 85q0 46 -6 73.5t-23 41t-38 17.5t-59 4v44h264v-44q-53 0 -70.5 -23t-17.5 -92q0 -41 1 -121t1 -153q0 -47 -4.5 -85
t-20.5 -81.5t-43 -73t-76 -49t-115 -19.5zM524 801h-244v62h244v-62z" />
    <glyph glyph-name="umacron" unicode="&#x16b;" horiz-adv-x="552" 
d="M564 38v-38q-101 0 -181 -8l-5 78l-5 2q-58 -86 -134 -86q-144 0 -144 178q0 19 1.5 85.5t1.5 93.5t-8 36.5t-38 9.5h-26v37q47 0 127 39h33q-6 -126 -6 -264q0 -86 21.5 -119t64.5 -33q53 0 80.5 42.5t27.5 111.5v140q0 27 -8 36.5t-38 9.5h-50v37q65 0 145 39h33v-366
q0 -39 21.5 -50t86.5 -11zM398 560h-244v62h244v-62z" />
    <glyph glyph-name="Ubreve" unicode="&#x16c;" horiz-adv-x="761" 
d="M382 -19q-257 0 -257 251v406q0 35 -27 36l-88 4v44h308v-44l-94 -5v-416q0 -100 43 -163t136 -63q99 0 143.5 62t44.5 193q0 100 -1 171t-1 85q0 46 -6 73.5t-23 41t-38 17.5t-59 4v44h264v-44q-53 0 -70.5 -23t-17.5 -92q0 -41 1 -121t1 -153q0 -47 -4.5 -85
t-20.5 -81.5t-43 -73t-76 -49t-115 -19.5zM404 778q-95 0 -132 101l19 7q30 -46 97 -46h32q69 0 97 46l19 -7q-37 -101 -132 -101z" />
    <glyph glyph-name="ubreve" unicode="&#x16d;" horiz-adv-x="552" 
d="M564 38v-38q-101 0 -181 -8l-5 78l-5 2q-58 -86 -134 -86q-144 0 -144 178q0 19 1.5 85.5t1.5 93.5t-8 36.5t-38 9.5h-26v37q47 0 127 39h33q-6 -126 -6 -264q0 -86 21.5 -119t64.5 -33q53 0 80.5 42.5t27.5 111.5v140q0 27 -8 36.5t-38 9.5h-50v37q65 0 145 39h33v-366
q0 -39 21.5 -50t86.5 -11zM276 537q-95 0 -132 101l19 7q30 -46 97 -46h32q69 0 97 46l19 -7q-37 -101 -132 -101z" />
    <glyph glyph-name="Uring" unicode="&#x16e;" horiz-adv-x="761" 
d="M382 -19q-257 0 -257 251v406q0 35 -27 36l-88 4v44h308v-44l-94 -5v-416q0 -100 43 -163t136 -63q99 0 143.5 62t44.5 193q0 100 -1 171t-1 85q0 46 -6 73.5t-23 41t-38 17.5t-59 4v44h264v-44q-53 0 -70.5 -23t-17.5 -92q0 -41 1 -121t1 -153q0 -47 -4.5 -85
t-20.5 -81.5t-43 -73t-76 -49t-115 -19.5zM405 768q-42 0 -72 30t-30 72t30 72t72 30t72 -30t30 -72t-30 -72t-72 -30zM405 796q31 0 52.5 21.5t21.5 52.5t-21.5 52.5t-52.5 21.5t-52.5 -21.5t-21.5 -52.5t21.5 -52.5t52.5 -21.5z" />
    <glyph glyph-name="uring" unicode="&#x16f;" horiz-adv-x="552" 
d="M564 38v-38q-101 0 -181 -8l-5 78l-5 2q-58 -86 -134 -86q-144 0 -144 178q0 19 1.5 85.5t1.5 93.5t-8 36.5t-38 9.5h-26v37q47 0 127 39h33q-6 -126 -6 -264q0 -86 21.5 -119t64.5 -33q53 0 80.5 42.5t27.5 111.5v140q0 27 -8 36.5t-38 9.5h-50v37q65 0 145 39h33v-366
q0 -39 21.5 -50t86.5 -11zM276 527q-42 0 -72 30t-30 72t30 72t72 30t72 -30t30 -72t-30 -72t-72 -30zM276 555q31 0 52.5 21.5t21.5 52.5t-21.5 52.5t-52.5 21.5t-52.5 -21.5t-21.5 -52.5t21.5 -52.5t52.5 -21.5z" />
    <glyph glyph-name="Uhungarumlaut" unicode="&#x170;" horiz-adv-x="761" 
d="M382 -19q-257 0 -257 251v406q0 35 -27 36l-88 4v44h308v-44l-94 -5v-416q0 -100 43 -163t136 -63q99 0 143.5 62t44.5 193q0 100 -1 171t-1 85q0 46 -6 73.5t-23 41t-38 17.5t-59 4v44h264v-44q-53 0 -70.5 -23t-17.5 -92q0 -41 1 -121t1 -153q0 -47 -4.5 -85
t-20.5 -81.5t-43 -73t-76 -49t-115 -19.5zM361 758l-16 7l38 140q8 22 34 22q14 0 24.5 -10t10.5 -25q0 -12 -6 -21zM471 758l-16 7l38 140q8 22 34 22q14 0 24.5 -10t10.5 -25q0 -12 -6 -21z" />
    <glyph glyph-name="uhungarumlaut" unicode="&#x171;" horiz-adv-x="552" 
d="M564 38v-38q-101 0 -181 -8l-5 78l-5 2q-58 -86 -134 -86q-144 0 -144 178q0 19 1.5 85.5t1.5 93.5t-8 36.5t-38 9.5h-26v37q47 0 127 39h33q-6 -126 -6 -264q0 -86 21.5 -119t64.5 -33q53 0 80.5 42.5t27.5 111.5v140q0 27 -8 36.5t-38 9.5h-50v37q65 0 145 39h33v-366
q0 -39 21.5 -50t86.5 -11zM224 517l-16 7l38 140q8 22 34 22q14 0 24.5 -10t10.5 -25q0 -12 -6 -21zM334 517l-16 7l38 140q8 22 34 22q14 0 24.5 -10t10.5 -25q0 -12 -6 -21z" />
    <glyph glyph-name="Uogonek" unicode="&#x172;" horiz-adv-x="761" 
d="M478 -235q-39 0 -67 28t-28 64q0 61 81 133q-36 -9 -82 -9q-257 0 -257 251v406q0 35 -27 36l-88 4v44h308v-44l-94 -5v-416q0 -100 43 -163t136 -63q99 0 143.5 62t44.5 193q0 100 -1 171t-1 85q0 46 -6 73.5t-23 41t-38 17.5t-59 4v44h264v-44q-53 0 -70.5 -23
t-17.5 -92q0 -41 1 -121t1 -153q0 -220 -129 -282q-38 -33 -53 -57t-15 -62q0 -26 19.5 -42t44.5 -16q8 0 15 1t11 2t10.5 4.5t9 4.5t11 7l11.5 8l10 -10q-39 -82 -108 -82z" />
    <glyph glyph-name="uogonek" unicode="&#x173;" horiz-adv-x="552" 
d="M466 -235q-39 0 -67 28t-28 64q0 67 91 141q-40 -1 -79 -6l-5 78l-5 2q-58 -86 -134 -86q-144 0 -144 178q0 19 1.5 85.5t1.5 93.5t-8 36.5t-38 9.5h-26v37q47 0 127 39h33q-6 -126 -6 -264q0 -86 21.5 -119t64.5 -33q53 0 80.5 42.5t27.5 111.5v140q0 27 -8 36.5
t-38 9.5h-50v37q65 0 145 39h33v-366q0 -39 21.5 -50t86.5 -11v-38q-48 0 -72 -1q-32 -28 -46 -51.5t-14 -59.5q0 -26 19.5 -42t44.5 -16q8 0 15 1t11 2t10.5 4.5t9 4.5t11 7l11.5 8l10 -10q-39 -82 -108 -82z" />
    <glyph glyph-name="Wcircumflex" unicode="&#x174;" horiz-adv-x="967" 
d="M708 -11h-41l-169 524l-161 -524h-42l-210 647q-12 37 -58 39l-63 3v44h288v-44l-33 -2q-17 -1 -24.5 -5t-7.5 -15q0 -10 5 -23l149 -467l133 417l-18 58q-11 32 -57 34l-70 3v44h295v-44l-36 -3q-30 -3 -30 -24q0 -9 5 -24l149 -463l123 411q7 21 7 43q0 60 -112 60v44
h246v-44q-36 -3 -54 -21.5t-35 -73.5zM608 759l-110 104l-110 -104l-20 15l85 143q6 12 17 12h56q10 0 16 -12l85 -143z" />
    <glyph glyph-name="wcircumflex" unicode="&#x175;" horiz-adv-x="685" 
d="M482 -16h-27l-117 316l-113 -316h-28l-145 393q-14 39 -35 40l-48 3v38h202v-38l-17 -1q-20 -1 -20 -19q0 -8 2 -14l97 -259l84 227l-9 28q-11 36 -47 37l-29 1v38h209v-38l-25 -1q-27 -1 -27 -18q0 -7 3 -15l97 -260l81 223q5 12 5 27q0 44 -72 44v38h180v-38
q-44 -6 -65 -62zM448 518l-110 104l-110 -104l-20 15l85 143q6 12 17 12h56q10 0 16 -12l85 -143z" />
    <glyph glyph-name="Ycircumflex" unicode="&#x176;" horiz-adv-x="632" 
d="M510 0h-327v44l96 5v243l-211 351q-11 19 -31.5 26.5t-72.5 8.5v44h303v-44l-51 -2q-31 -1 -31 -20q0 -13 13 -35l158 -261l122 235q9 18 9 38q0 22 -22.5 33.5t-87.5 11.5v44h262v-44q-31 -4 -44 -7.5t-30.5 -20.5t-35.5 -52l-151 -291v-225q0 -18 8.5 -25.5t26.5 -8.5
l97 -4v-44zM441 759l-110 104l-110 -104l-20 15l85 143q6 12 17 12h56q10 0 16 -12l85 -143z" />
    <glyph glyph-name="ycircumflex" unicode="&#x177;" horiz-adv-x="470" 
d="M65 -195q-33 0 -57.5 21.5t-24.5 55.5q0 24 15.5 39.5t36.5 15.5t34 -16t13 -38q0 -26 15 -26q37 0 70 47.5t51 94.5l-168 380q-17 41 -82 41v38h222v-38q-26 0 -38.5 -3t-14.5 -6t-2 -10q0 -5 3 -11l125 -287l89 250q5 15 5 24q0 43 -82 43v38h191v-38q-43 -5 -69 -76
l-133 -351q-73 -188 -199 -188zM350 518l-110 104l-110 -104l-20 15l85 143q6 12 17 12h56q10 0 16 -12l85 -143z" />
    <glyph glyph-name="Ydieresis" unicode="&#x178;" horiz-adv-x="632" 
d="M510 0h-327v44l96 5v243l-211 351q-11 19 -31.5 26.5t-72.5 8.5v44h303v-44l-51 -2q-31 -1 -31 -20q0 -13 13 -35l158 -261l122 235q9 18 9 38q0 22 -22.5 33.5t-87.5 11.5v44h262v-44q-31 -4 -44 -7.5t-30.5 -20.5t-35.5 -52l-151 -291v-225q0 -18 8.5 -25.5t26.5 -8.5
l97 -4v-44zM249 779q-21 0 -36 16t-15 39t15 39t36 16t36 -16t15 -39t-15 -39t-36 -16zM413 779q-21 0 -36 16t-15 39t15 39t36 16t36 -16t15 -39t-15 -39t-36 -16z" />
    <glyph glyph-name="Zacute" unicode="&#x179;" horiz-adv-x="581" 
d="M524 -29h-27q-15 29 -38 29h-427v33l387 645q-62 5 -96 5q-113 0 -160.5 -45t-66.5 -167l-36 3l15 277h27q14 -29 38 -29h401v-32l-390 -644q84 -7 126 -7q110 0 162.5 48t79.5 187l36 -5zM266 758l-14 16l108 139q13 13 31 13t31 -13t13 -31q0 -24 -20 -37z" />
    <glyph glyph-name="zacute" unicode="&#x17a;" horiz-adv-x="448" 
d="M380 -22h-22q-5 22 -18 22h-312v27l263 394h-107q-43 0 -69 -29t-40 -96l-28 1l19 185h23q11 -24 22 -24h274l8 -26l-260 -393h120q87 0 116 137l29 -3zM186 517l-14 16l108 139q13 13 31 13t31 -13t13 -31q0 -24 -20 -37z" />
    <glyph glyph-name="Zdotaccent" unicode="&#x17b;" horiz-adv-x="581" 
d="M524 -29h-27q-15 29 -38 29h-427v33l387 645q-62 5 -96 5q-113 0 -160.5 -45t-66.5 -167l-36 3l15 277h27q14 -29 38 -29h401v-32l-390 -644q84 -7 126 -7q110 0 162.5 48t79.5 187l36 -5zM302 779q-28 0 -48 20t-20 49t20 49.5t48 20.5t48 -20.5t20 -49.5t-20 -49
t-48 -20z" />
    <glyph glyph-name="zdotaccent" unicode="&#x17c;" horiz-adv-x="448" 
d="M380 -22h-22q-5 22 -18 22h-312v27l263 394h-107q-43 0 -69 -29t-40 -96l-28 1l19 185h23q11 -24 22 -24h274l8 -26l-260 -393h120q87 0 116 137l29 -3zM223 538q-28 0 -48 20t-20 49t20 49.5t48 20.5t48 -20.5t20 -49.5t-20 -49t-48 -20z" />
    <glyph glyph-name="Zcaron" unicode="&#x17d;" horiz-adv-x="581" 
d="M524 -29h-27q-15 29 -38 29h-427v33l387 645q-62 5 -96 5q-113 0 -160.5 -45t-66.5 -167l-36 3l15 277h27q14 -29 38 -29h401v-32l-390 -644q84 -7 126 -7q110 0 162.5 48t79.5 187l36 -5zM330 775h-56q-10 0 -16 12l-85 135h27l102 -89l102 89h28l-85 -135
q-6 -12 -17 -12z" />
    <glyph glyph-name="zcaron" unicode="&#x17e;" horiz-adv-x="448" 
d="M380 -22h-22q-5 22 -18 22h-312v27l263 394h-107q-43 0 -69 -29t-40 -96l-28 1l19 185h23q11 -24 22 -24h274l8 -26l-260 -393h120q87 0 116 137l29 -3zM251 536h-56q-10 0 -16 12l-85 135h27l102 -89l102 89h28l-85 -135q-6 -12 -17 -12z" />
    <glyph glyph-name="uni0192" unicode="&#x192;" horiz-adv-x="335" 
d="M-73 -209q-41 0 -67 25.5t-28 60.5q0 32 15.5 51.5t36.5 19.5t35.5 -12t15.5 -33q0 -17 -8.5 -28t-16.5 -16.5t-8 -10.5q1 -19 27 -19q41 0 71.5 47t44.5 142l57 394h-92l6 46h93l2 18q10 68 33.5 119t54 78.5t60.5 40.5t58 13q41 0 66.5 -25.5t27.5 -56.5q0 -33 -15 -54
t-36 -21t-35.5 12t-16.5 29q0 17 8.5 29.5t17 20t8.5 10.5q-2 18 -28 18q-42 0 -73 -47t-44 -142l-7 -43h116l-6 -45h-115l-57 -395q-10 -68 -33 -115.5t-53.5 -70t-58 -31.5t-56.5 -9z" />
    <glyph glyph-name="AEacute" unicode="&#x1fc;" horiz-adv-x="1017" 
d="M488 321v354h-8l-209 -354h217zM940 0h-545v44l93 4v224h-246l-61 -103q-22 -35 -22 -60q0 -31 17 -48t70 -17v-44h-250v44q61 6 116 101l258 435q19 32 19 58q0 13 -10 24t-27 12l-64 4v44h640l26 -248l-33 -3q-11 66 -30 108.5t-48 65t-61.5 30.5t-80.5 8
q-67 0 -114 -3v-284h7q82 0 112.5 28.5t41.5 112.5h37v-336h-38q-4 49 -12 78t-26.5 45.5t-42.5 22t-65 5.5h-14v-273q0 -18 8.5 -25.5t26.5 -9.5q40 -4 75 -4q110 0 159.5 50t77.5 184l33 -3l-10 -255q0 -16 -17 -16zM501 758l-14 16l108 139q13 13 31 13t31 -13t13 -31
q0 -24 -20 -37z" />
    <glyph glyph-name="aeacute" unicode="&#x1fd;" horiz-adv-x="728" 
d="M515 -18q-130 0 -180 112q-25 -48 -71 -80.5t-100 -32.5q-137 0 -137 115q0 65 73 114t211 66v55q0 43 -24 69.5t-69 26.5q-27 0 -48.5 -8t-31 -17t-9.5 -15q0 -5 12.5 -19.5t12.5 -37.5q0 -22 -15 -35t-34 -13q-20 0 -37 15.5t-17 44.5q0 45 48 84.5t142 39.5t122 -77
q51 80 147 80q88 0 138 -55.5t50 -153.5l-308 -44q0 -183 132 -183q103 0 143 111l35 -16q-17 -56 -68.5 -101t-116.5 -45zM181 26q56 0 93 40t37 122v52q-101 -13 -147 -44.5t-46 -91.5q0 -34 16.5 -56t46.5 -22zM392 256l181 26q32 4 32 33q0 53 -24 85t-71 32
q-58 0 -88 -50.5t-30 -125.5zM317 517l-14 16l108 139q13 13 31 13t31 -13t13 -31q0 -24 -20 -37z" />
    <glyph glyph-name="Oslashacute" unicode="&#x1fe;" horiz-adv-x="692" 
d="M346 -18q-100 0 -181 67l-63 -94l-34 22l67 100q-105 113 -105 278q0 154 92.5 264t223.5 110q97 0 180 -68l64 95l33 -22l-68 -101q50 -52 78.5 -124.5t28.5 -153.5q0 -154 -92.5 -263.5t-223.5 -109.5zM179 142l312 466q-50 81 -146 81q-102 0 -150.5 -88.5
t-48.5 -245.5q0 -134 33 -213zM345 22q199 0 199 333q0 133 -33 212l-312 -466q50 -79 146 -79zM302 758l-14 16l108 139q13 13 31 13t31 -13t13 -31q0 -24 -20 -37z" />
    <glyph glyph-name="oslashacute" unicode="&#x1ff;" horiz-adv-x="493" 
d="M246 -19q-61 0 -116 37l-62 -93l-33 23l65 97q-70 72 -70 180q0 101 63 172.5t153 71.5q61 0 113 -36l56 84l33 -22l-58 -87q73 -73 73 -183q0 -101 -63.5 -172.5t-153.5 -71.5zM244 22q59 0 89.5 55.5t30.5 147.5q0 67 -17 118l-185 -277q30 -44 82 -44zM141 107
l185 277q-31 45 -82 45q-59 0 -89 -56t-30 -148q0 -70 16 -118zM209 517l-14 16l108 139q13 13 31 13t31 -13t13 -31q0 -24 -20 -37z" />
    <glyph glyph-name="uni0218" unicode="&#x218;" horiz-adv-x="567" 
d="M316 -18q-57 0 -111.5 24.5t-81.5 51.5l-33 -68h-31l-27 283l36 2q15 -102 85.5 -175.5t155.5 -73.5q75 0 117.5 40t42.5 95q0 25 -6.5 45.5t-22.5 35t-29.5 24.5t-41.5 19t-43.5 13t-49.5 12q-36 8 -56.5 14t-51.5 17.5t-49 26t-36.5 36t-27 51.5t-8.5 68q0 86 55.5 149
t151.5 63q98 0 171 -65l35 59h31l26 -258l-33 -4q-24 98 -85 163.5t-146 65.5q-64 0 -100.5 -37t-36.5 -87q0 -28 11 -49t24 -33.5t42.5 -24t47 -16t56.5 -13.5l13 -3q43 -10 68.5 -17.5t61 -24.5t55 -38.5t34 -58t14.5 -84.5q0 -102 -67 -165t-160 -63zM257 -287l-18 23
q29 18 52 46.5t23 55.5q0 14 -5 14q-1 0 -7 -2.5t-14 -2.5q-17 0 -28 13t-11 31q0 20 13 34.5t34 14.5q24 0 41 -21.5t17 -53.5q0 -84 -97 -152z" />
    <glyph glyph-name="uni0219" unicode="&#x219;" horiz-adv-x="428" 
d="M235 -15q-75 0 -129 49l-19 -45h-29l-21 190h32q16 -62 62.5 -109t104.5 -47q46 0 73.5 21.5t27.5 59.5q0 17 -7.5 29.5t-16.5 20t-28.5 14t-31.5 9.5t-38 8q-31 6 -48.5 10.5t-44 16t-40 26t-24.5 39.5t-11 58q0 52 40.5 94t103.5 42q60 0 114 -45l16 39h29l21 -163
l-32 -3q-14 51 -54.5 92.5t-93.5 41.5q-39 0 -63.5 -18.5t-24.5 -52.5q0 -37 29.5 -52.5t105.5 -31.5q36 -8 58 -15t48 -23t38.5 -43t12.5 -66q0 -59 -45.5 -102.5t-114.5 -43.5zM177 -287l-18 23q29 18 52 46.5t23 55.5q0 14 -5 14q-1 0 -7 -2.5t-14 -2.5q-17 0 -28 13
t-11 31q0 20 13 34.5t34 14.5q24 0 41 -21.5t17 -53.5q0 -84 -97 -152z" />
    <glyph glyph-name="uni021A" unicode="&#x21a;" horiz-adv-x="623" 
d="M492 0h-328v44l98 5v595q0 26 -9.5 34t-30.5 8q-149 0 -174 -236l-33 3l15 298h27q15 -29 38 -29h433q24 0 38 29h27l15 -298l-33 -3q-25 236 -174 236q-21 0 -30.5 -8t-9.5 -34v-555q0 -18 13 -29t31 -12l87 -4v-44zM271 -287l-18 23q29 18 52 46.5t23 55.5q0 14 -5 14
q-1 0 -7 -2.5t-14 -2.5q-17 0 -28 13t-11 31q0 20 13 34.5t34 14.5q24 0 41 -21.5t17 -53.5q0 -84 -97 -152z" />
    <glyph glyph-name="uni021B" unicode="&#x21b;" horiz-adv-x="368" 
d="M207 -16q-54 0 -84.5 27.5t-30.5 81.5v2l5 315h-89v37q72 8 97 54.5t36 153.5l41 2l-4 -199h132v-48h-133l-2 -285q0 -85 63 -85q30 0 48 24t23.5 52.5t5.5 62.5h31q4 -20 4 -43q0 -53 -36.5 -102.5t-106.5 -49.5zM167 -287l-18 23q29 18 52 46.5t23 55.5q0 14 -5 14
q-1 0 -7 -2.5t-14 -2.5q-17 0 -28 13t-11 31q0 20 13 34.5t34 14.5q24 0 41 -21.5t17 -53.5q0 -84 -97 -152z" />
    <glyph glyph-name="uni0237" unicode="&#x237;" horiz-adv-x="262" 
d="M31 -193q-25 0 -46 16.5t-21 41.5q0 22 13 37t34 15q15 0 26.5 -9t11.5 -22q0 -25 19 -25q21 0 26.5 43.5t5.5 142.5v296q0 27 -8 36.5t-38 9.5h-50v37q65 0 145 39h33v-408q0 -109 -42 -179.5t-109 -70.5z" />
    <glyph glyph-name="circumflex" unicode="&#x2c6;" horiz-adv-x="326" 
d="M273 518l-110 104l-110 -104l-20 15l85 143q6 12 17 12h56q10 0 16 -12l85 -143z" />
    <glyph glyph-name="caron" unicode="&#x2c7;" horiz-adv-x="328" 
d="M191 534h-56q-10 0 -16 12l-85 135h27l102 -89l102 89h28l-85 -135q-6 -12 -17 -12z" />
    <glyph glyph-name="breve" unicode="&#x2d8;" horiz-adv-x="318" 
d="M160 537q-95 0 -132 101l19 7q30 -46 97 -46h32q69 0 97 46l19 -7q-37 -101 -132 -101z" />
    <glyph glyph-name="dotaccent" unicode="&#x2d9;" horiz-adv-x="215" 
d="M106 538q-28 0 -48 20t-20 49t20 49.5t48 20.5t48 -20.5t20 -49.5t-20 -49t-48 -20z" />
    <glyph glyph-name="ring" unicode="&#x2da;" horiz-adv-x="299" 
d="M151 527q-42 0 -72 30t-30 72t30 72t72 30t72 -30t30 -72t-30 -72t-72 -30zM151 555q31 0 52.5 21.5t21.5 52.5t-21.5 52.5t-52.5 21.5t-52.5 -21.5t-21.5 -52.5t21.5 -52.5t52.5 -21.5z" />
    <glyph glyph-name="ogonek" unicode="&#x2db;" horiz-adv-x="256" 
d="M176 -235q-39 0 -67 28t-28 64q0 44 32.5 83t87.5 81q3 3 8 3q7 0 7 -8q0 -4 -3 -7q-39 -34 -55 -58t-16 -63q0 -26 19.5 -42t44.5 -16q8 0 15 1t11 2t10.5 4.5t9 4.5t11 7l11.5 8l10 -10q-39 -82 -108 -82z" />
    <glyph glyph-name="tilde" unicode="&#x2dc;" horiz-adv-x="358" 
d="M229 537q-25 0 -62 29.5t-57 29.5q-41 0 -53 -46l-20 7q24 101 89 101q25 0 62 -29.5t57 -29.5q41 0 53 46l20 -7q-24 -101 -89 -101z" />
    <glyph glyph-name="hungarumlaut" unicode="&#x2dd;" horiz-adv-x="293" 
d="M55 517l-16 7l38 140q8 22 34 22q14 0 24.5 -10t10.5 -25q0 -12 -6 -21zM165 517l-16 7l38 140q8 22 34 22q14 0 24.5 -10t10.5 -25q0 -12 -6 -21z" />
    <glyph glyph-name="uni0312" unicode="&#x312;" horiz-adv-x="208" 
d="M132 744l18 -23q-29 -18 -52 -46.5t-23 -55.5q0 -14 5 -14q2 0 8 2.5t13 2.5q17 0 28 -13t11 -31q0 -20 -13 -34.5t-34 -14.5q-24 0 -41 21.5t-17 53.5q0 84 97 152z" />
    <glyph glyph-name="uni0326" unicode="&#x326;" horiz-adv-x="208" 
d="M53 -287l-18 23q29 18 52 46.5t23 55.5q0 14 -5 14q-1 0 -7 -2.5t-14 -2.5q-17 0 -28 13t-11 31q0 20 13 34.5t34 14.5q24 0 41 -21.5t17 -53.5q0 -84 -97 -152z" />
    <glyph glyph-name="Wgrave" unicode="&#x1e80;" horiz-adv-x="967" 
d="M708 -11h-41l-169 524l-161 -524h-42l-210 647q-12 37 -58 39l-63 3v44h288v-44l-33 -2q-17 -1 -24.5 -5t-7.5 -15q0 -10 5 -23l149 -467l133 417l-18 58q-11 32 -57 34l-70 3v44h295v-44l-36 -3q-30 -3 -30 -24q0 -9 5 -24l149 -463l123 411q7 21 7 43q0 60 -112 60v44
h246v-44q-36 -3 -54 -21.5t-35 -73.5zM536 758l-149 87q-20 13 -20 37q0 18 13 31t31 13t31 -13l108 -139z" />
    <glyph glyph-name="wgrave" unicode="&#x1e81;" horiz-adv-x="685" 
d="M482 -16h-27l-117 316l-113 -316h-28l-145 393q-14 39 -35 40l-48 3v38h202v-38l-17 -1q-20 -1 -20 -19q0 -8 2 -14l97 -259l84 227l-9 28q-11 36 -47 37l-29 1v38h209v-38l-25 -1q-27 -1 -27 -18q0 -7 3 -15l97 -260l81 223q5 12 5 27q0 44 -72 44v38h180v-38
q-44 -6 -65 -62zM375 517l-149 87q-20 13 -20 37q0 18 13 31t31 13t31 -13l108 -139z" />
    <glyph glyph-name="Wacute" unicode="&#x1e82;" horiz-adv-x="967" 
d="M708 -11h-41l-169 524l-161 -524h-42l-210 647q-12 37 -58 39l-63 3v44h288v-44l-33 -2q-17 -1 -24.5 -5t-7.5 -15q0 -10 5 -23l149 -467l133 417l-18 58q-11 32 -57 34l-70 3v44h295v-44l-36 -3q-30 -3 -30 -24q0 -9 5 -24l149 -463l123 411q7 21 7 43q0 60 -112 60v44
h246v-44q-36 -3 -54 -21.5t-35 -73.5zM461 758l-14 16l108 139q13 13 31 13t31 -13t13 -31q0 -24 -20 -37z" />
    <glyph glyph-name="wacute" unicode="&#x1e83;" horiz-adv-x="685" 
d="M482 -16h-27l-117 316l-113 -316h-28l-145 393q-14 39 -35 40l-48 3v38h202v-38l-17 -1q-20 -1 -20 -19q0 -8 2 -14l97 -259l84 227l-9 28q-11 36 -47 37l-29 1v38h209v-38l-25 -1q-27 -1 -27 -18q0 -7 3 -15l97 -260l81 223q5 12 5 27q0 44 -72 44v38h180v-38
q-44 -6 -65 -62zM300 517l-14 16l108 139q13 13 31 13t31 -13t13 -31q0 -24 -20 -37z" />
    <glyph glyph-name="Wdieresis" unicode="&#x1e84;" horiz-adv-x="967" 
d="M708 -11h-41l-169 524l-161 -524h-42l-210 647q-12 37 -58 39l-63 3v44h288v-44l-33 -2q-17 -1 -24.5 -5t-7.5 -15q0 -10 5 -23l149 -467l133 417l-18 58q-11 32 -57 34l-70 3v44h295v-44l-36 -3q-30 -3 -30 -24q0 -9 5 -24l149 -463l123 411q7 21 7 43q0 60 -112 60v44
h246v-44q-36 -3 -54 -21.5t-35 -73.5zM415 779q-21 0 -36 16t-15 39t15 39t36 16t36 -16t15 -39t-15 -39t-36 -16zM579 779q-21 0 -36 16t-15 39t15 39t36 16t36 -16t15 -39t-15 -39t-36 -16z" />
    <glyph glyph-name="wdieresis" unicode="&#x1e85;" horiz-adv-x="685" 
d="M482 -16h-27l-117 316l-113 -316h-28l-145 393q-14 39 -35 40l-48 3v38h202v-38l-17 -1q-20 -1 -20 -19q0 -8 2 -14l97 -259l84 227l-9 28q-11 36 -47 37l-29 1v38h209v-38l-25 -1q-27 -1 -27 -18q0 -7 3 -15l97 -260l81 223q5 12 5 27q0 44 -72 44v38h180v-38
q-44 -6 -65 -62zM255 538q-21 0 -36 16t-15 39t15 39t36 16t36 -16t15 -39t-15 -39t-36 -16zM419 538q-21 0 -36 16t-15 39t15 39t36 16t36 -16t15 -39t-15 -39t-36 -16z" />
    <glyph glyph-name="Ygrave" unicode="&#x1ef2;" horiz-adv-x="632" 
d="M510 0h-327v44l96 5v243l-211 351q-11 19 -31.5 26.5t-72.5 8.5v44h303v-44l-51 -2q-31 -1 -31 -20q0 -13 13 -35l158 -261l122 235q9 18 9 38q0 22 -22.5 33.5t-87.5 11.5v44h262v-44q-31 -4 -44 -7.5t-30.5 -20.5t-35.5 -52l-151 -291v-225q0 -18 8.5 -25.5t26.5 -8.5
l97 -4v-44zM368 758l-149 87q-20 13 -20 37q0 18 13 31t31 13t31 -13l108 -139z" />
    <glyph glyph-name="ygrave" unicode="&#x1ef3;" horiz-adv-x="470" 
d="M65 -195q-33 0 -57.5 21.5t-24.5 55.5q0 24 15.5 39.5t36.5 15.5t34 -16t13 -38q0 -26 15 -26q37 0 70 47.5t51 94.5l-168 380q-17 41 -82 41v38h222v-38q-26 0 -38.5 -3t-14.5 -6t-2 -10q0 -5 3 -11l125 -287l89 250q5 15 5 24q0 43 -82 43v38h191v-38q-43 -5 -69 -76
l-133 -351q-73 -188 -199 -188zM277 517l-149 87q-20 13 -20 37q0 18 13 31t31 13t31 -13l108 -139z" />
    <glyph glyph-name="endash" unicode="&#x2013;" 
d="M500 214h-480v69h480v-69z" />
    <glyph glyph-name="emdash" unicode="&#x2014;" horiz-adv-x="936" 
d="M916 214h-896v69h896v-69z" />
    <glyph glyph-name="quoteleft" unicode="&#x2018;" horiz-adv-x="208" 
d="M116 433q-30 0 -51.5 27.5t-21.5 67.5q0 108 123 193l22 -29q-37 -24 -66 -60t-29 -70q0 -17 7 -17q2 0 9.5 3t16.5 3q22 0 36 -16t14 -40q0 -25 -16.5 -43.5t-43.5 -18.5z" />
    <glyph glyph-name="quoteright" unicode="&#x2019;" horiz-adv-x="208" 
d="M42 433l-22 29q37 24 66 60t29 70q0 17 -7 17q-2 0 -9.5 -3t-16.5 -3q-22 0 -36 16t-14 40q0 25 16.5 43.5t43.5 18.5q30 0 51.5 -27.5t21.5 -67.5q0 -108 -123 -193z" />
    <glyph glyph-name="quotesinglbase" unicode="&#x201a;" horiz-adv-x="228" 
d="M60 -173l-22 29q37 24 66 60t29 70q0 17 -7 17q-2 0 -9.5 -3t-16.5 -3q-22 0 -36 16t-14 40q0 25 16.5 43.5t43.5 18.5q30 0 51.5 -27.5t21.5 -67.5q0 -108 -123 -193z" />
    <glyph glyph-name="quotedblleft" unicode="&#x201c;" horiz-adv-x="404" 
d="M312 433q-30 0 -51.5 27.5t-21.5 67.5q0 108 123 193l22 -29q-37 -24 -66 -60t-29 -70q0 -17 7 -17q2 0 9.5 3t16.5 3q22 0 36 -16t14 -40q0 -25 -16.5 -43.5t-43.5 -18.5zM116 433q-30 0 -51.5 27.5t-21.5 67.5q0 108 123 193l22 -29q-37 -24 -66 -60t-29 -70
q0 -17 7 -17q2 0 9.5 3t16.5 3q22 0 36 -16t14 -40q0 -25 -16.5 -43.5t-43.5 -18.5z" />
    <glyph glyph-name="quotedblright" unicode="&#x201d;" horiz-adv-x="404" 
d="M42 433l-22 29q37 24 66 60t29 70q0 17 -7 17q-2 0 -9.5 -3t-16.5 -3q-22 0 -36 16t-14 40q0 25 16.5 43.5t43.5 18.5q30 0 51.5 -27.5t21.5 -67.5q0 -108 -123 -193zM238 433l-22 29q37 24 66 60t29 70q0 17 -7 17q-2 0 -9.5 -3t-16.5 -3q-22 0 -36 16t-14 40
q0 25 16.5 43.5t43.5 18.5q30 0 51.5 -27.5t21.5 -67.5q0 -108 -123 -193z" />
    <glyph glyph-name="quotedblbase" unicode="&#x201e;" horiz-adv-x="424" 
d="M60 -173l-22 29q37 24 66 60t29 70q0 17 -7 17q-2 0 -9.5 -3t-16.5 -3q-22 0 -36 16t-14 40q0 25 16.5 43.5t43.5 18.5q30 0 51.5 -27.5t21.5 -67.5q0 -108 -123 -193zM256 -173l-22 29q37 24 66 60t29 70q0 17 -7 17q-2 0 -9.5 -3t-16.5 -3q-22 0 -36 16t-14 40
q0 25 16.5 43.5t43.5 18.5q30 0 51.5 -27.5t21.5 -67.5q0 -108 -123 -193z" />
    <glyph glyph-name="dagger" unicode="&#x2020;" 
d="M276 -109h-31q0 287 -41 456q25 38 35 73t10 87q-36 -2 -81 -21t-62 -19q-51 0 -51 49q0 23 14 36t38 13q16 0 61.5 -18.5t80.5 -18.5q0 49 -20.5 101t-20.5 59q0 23 14.5 37t38.5 14t37.5 -14t13.5 -37q0 -7 -20.5 -59t-20.5 -101q35 0 80.5 18.5t61.5 18.5q24 0 38 -13
t14 -36q0 -49 -51 -49q-17 0 -62 19t-81 21q0 -52 10 -87t35 -73q-40 -143 -40 -456z" />
    <glyph glyph-name="daggerdbl" unicode="&#x2021;" 
d="M261 -77q-24 0 -38.5 14t-14.5 37q0 7 20.5 59t20.5 101q-35 0 -80.5 -18.5t-61.5 -18.5q-24 0 -38 13t-14 36q0 49 51 49q17 0 62 -19t81 -21q0 107 -45 176q45 69 45 176q-36 -2 -81 -21t-62 -19q-51 0 -51 49q0 23 14 36t38 13q16 0 61.5 -18.5t80.5 -18.5
q0 49 -20.5 101t-20.5 59q0 23 14.5 37t38.5 14t37.5 -14t13.5 -37q0 -7 -20.5 -59t-20.5 -101q35 0 80.5 18.5t61.5 18.5q24 0 38 -13t14 -36q0 -49 -51 -49q-17 0 -62 19t-81 21q0 -107 45 -176q-45 -69 -45 -176q36 2 81 21t62 19q51 0 51 -49q0 -23 -14 -36t-38 -13
q-16 0 -61.5 18.5t-80.5 18.5q0 -49 20.5 -101t20.5 -59q0 -23 -13.5 -37t-37.5 -14z" />
    <glyph glyph-name="bullet" unicode="&#x2022;" horiz-adv-x="276" 
d="M138 151q-39 0 -66.5 28.5t-27.5 68.5q0 41 27.5 69.5t66.5 28.5t66.5 -28.5t27.5 -69.5q0 -40 -27.5 -68.5t-66.5 -28.5z" />
    <glyph glyph-name="ellipsis" unicode="&#x2026;" horiz-adv-x="590" 
d="M105 -15q-26 0 -43.5 19t-17.5 47t18 47.5t43 19.5t43 -19.5t18 -47.5t-17.5 -47t-43.5 -19zM295 -15q-26 0 -43.5 19t-17.5 47t18 47.5t43 19.5t43 -19.5t18 -47.5t-17.5 -47t-43.5 -19zM485 -15q-26 0 -43.5 19t-17.5 47t18 47.5t43 19.5t43 -19.5t18 -47.5t-17.5 -47
t-43.5 -19z" />
    <glyph glyph-name="perthousand" unicode="&#x2030;" horiz-adv-x="1179" 
d="M213 -22h-44l369 653q-72 -39 -122 -39q-29 0 -49 5q4 -15 4 -37q0 -95 -75 -177.5t-157 -82.5q-52 0 -81.5 34t-29.5 89q0 96 73.5 179t155.5 83q49 0 76 -29q26 -26 44 -35t42 -9q43 0 90 25.5t68 62.5h44zM535 -22q-52 0 -82 35t-30 91q0 95 74 177t156 82
q51 0 82.5 -35t31.5 -91q0 -95 -75 -177t-157 -82zM555 11q61 0 123.5 73.5t62.5 152.5q0 39 -17.5 63.5t-47.5 24.5q-60 0 -121.5 -81t-61.5 -158q0 -34 15.5 -54.5t46.5 -20.5zM159 333q61 0 123.5 73.5t62.5 152.5q0 25 -8 46q-44 15 -67 41q-57 0 -115 -83.5t-58 -154.5
q0 -34 15.5 -54.5t46.5 -20.5zM919 -22q-52 0 -82 35t-30 91q0 95 74 177t156 82q51 0 82.5 -35t31.5 -91q0 -95 -75 -177t-157 -82zM939 11q61 0 123.5 73.5t62.5 152.5q0 39 -17.5 63.5t-47.5 24.5q-60 0 -121.5 -81t-61.5 -158q0 -34 15.5 -54.5t46.5 -20.5z" />
    <glyph glyph-name="guilsinglleft" unicode="&#x2039;" horiz-adv-x="301" 
d="M225 43l-168 188l168 188l25 -15l-96 -173l96 -173z" />
    <glyph glyph-name="guilsinglright" unicode="&#x203a;" horiz-adv-x="301" 
d="M76 43l-25 15l96 173l-96 173l25 15l168 -188z" />
    <glyph glyph-name="fraction" unicode="&#x2044;" horiz-adv-x="122" 
d="M-121 -22h-44l408 722h44z" />
    <glyph glyph-name="Euro" unicode="&#x20ac;" horiz-adv-x="623" 
d="M374 -20q-110 0 -178.5 81t-84.5 197h-91v41h86v25q0 22 2 44h-88v41h92q21 135 101.5 215t185.5 80q62 0 111 -40t49 -101q0 -31 -17 -55t-47 -24q-23 0 -39 16.5t-16 34.5q0 21 10 33t21.5 15.5t21.5 10t10 18.5q0 21 -30 38t-74 17q-73 0 -120 -67.5t-58 -190.5h207
v-41h-210v-69h210v-41h-207q18 -238 164 -238q56 0 105 38t61 107l32 -7q-14 -78 -68 -128t-141 -50z" />
    <glyph glyph-name="trademark" unicode="&#x2122;" horiz-adv-x="653" 
d="M536 491h-98v18l22 1v183h-2l-59 -202h-18l-61 201h-2v-135q0 -27 8 -37.5t31 -12.5v-16h-87v16q15 1 19.5 11.5t4.5 36.5v136q0 11 -9 11l-28 2v18h91l51 -169l48 169h76v-18l-19 -2v-181q0 -11 11 -11l21 -1v-18zM208 509v-18h-105v18l25 2v182q0 13 -12 13
q-23 0 -33 -15.5t-15 -55.5l-15 1l5 94h10q2 -8 7 -8h146q5 0 7 8h10l5 -94l-14 -1q-5 40 -15 55.5t-33 15.5q-3 0 -5.5 -0.5t-4 -1.5t-2.5 -4t-1 -7v-172q0 -11 11 -11z" />
    <glyph glyph-name="minus" unicode="&#x2212;" horiz-adv-x="562" 
d="M529 241h-495v59h495v-59z" />
    <glyph glyph-name="torchleft" unicode="&#xe018;" horiz-adv-x="993" 
d="M227 825h25q8 -41 39 -82.5t68.5 -78t74 -78t61 -98.5t24.5 -122q0 -164 -20 -260h-31q-16 55 -55 102t-85 77.5l-96.5 64l-91 62.5t-67 70.5t-26.5 90.5q0 34 11.5 61.5t31.5 48.5t42 39.5t49 46t46 56.5zM371 106h-48q-14 19 -65 34.5t-101 27t-91 45t-41 86.5
q0 27 14 57h32q8 -20 32.5 -35.5t57 -30.5t68 -34.5t74.5 -58t68 -91.5zM639 106h-33q0 160 25 223q37 90 105.5 143t179.5 88l28 -18q-6 -22 -6 -52q0 -21 5.5 -61t5.5 -60q0 -54 -32 -90.5t-77.5 -54t-91 -31t-77.5 -34.5t-32 -53zM853 56v-19q0 -27 -42 -50.5t-74 -23.5
h-115q-12 0 -21 -10.5t-9 -26.5v-90q0 -15 -10.5 -27t-20.5 -12h-144q-10 0 -20.5 12t-10.5 27v90q0 16 -9 26.5t-21 10.5h-115q-32 0 -74 23.5t-42 50.5v19h728z" />
    <glyph glyph-name="torchright" unicode="&#xe019;" horiz-adv-x="993" 
d="M125 37v19h728v-19q0 -27 -42 -50.5t-74 -23.5h-115q-12 0 -21 -10.5t-9 -26.5v-90q0 -15 -10.5 -27t-20.5 -12h-144q-10 0 -20.5 12t-10.5 27v90q0 16 -9 26.5t-21 10.5h-115q-32 0 -74 23.5t-42 50.5zM372 106h-33q0 32 -32 53t-77.5 34.5t-91 31t-77.5 54t-32 90.5
q0 20 5.5 60t5.5 61q0 30 -6 52l28 18q111 -35 179.5 -88t105.5 -143q25 -63 25 -223zM655 106h-48q29 53 68 91.5t74.5 58t68 34.5t57 30.5t32.5 35.5h32q14 -30 14 -57q0 -53 -41 -86.5t-91 -45t-101 -27t-65 -34.5zM726 825h25q19 -29 46 -56.5t49 -46t42 -39.5
t31.5 -48.5t11.5 -61.5q0 -49 -26.5 -90.5t-67 -70.5l-91 -62.5l-96.5 -64t-85 -77.5t-55 -102h-31q-20 96 -20 260q0 65 24.5 122t61 98.5t74 78t68.5 78t39 82.5z" />
    <glyph glyph-name="RLlogo" unicode="&#xe01a;" horiz-adv-x="1110" 
d="M40 -77v886h1032v-886h-1032zM608 416q19 0 33 15t14 36t-14 36t-33 15q-20 0 -34 -15t-14 -36t14 -36t34 -15zM608 210q19 0 33 15t14 36t-14 36t-33 15q-20 0 -34 -15t-14 -36t14 -36t34 -15zM631 85h377q13 0 13 12l8 203l-26 3q-23 -109 -38 -137q-24 -43 -87 -49
q-13 -1 -29 -1q-22 0 -38 3q-28 3 -28 28v473l77 4v35h-252v-35l74 -3q22 -1 22 -29v-468l-73 -4v-35zM490 77q40 0 63 27.5t23 75.5q-26 0 -26 2q0 -23 -8.5 -37.5t-22.5 -14.5q-27 0 -51 111q-13 62 -39.5 93t-71.5 39v5q67 0 114 40.5t47 95.5q0 76 -55.5 110.5
t-147.5 34.5h-239v-35l76 -3q22 -1 22 -29v-468l-74 -4v-35h250v35l-70 3q-14 1 -20.5 6.5t-6.5 20.5v216h11q28 0 47 -4t38.5 -17t30 -41.5t12.5 -72.5q4 -87 28.5 -120.5t69.5 -33.5zM297 400h-44v226q18 1 58 1q64 0 92 -24t28 -93q0 -31 -9 -53t-21 -33t-33 -16.5
t-34.5 -6.5t-36.5 -1z" />
    <glyph glyph-name="PMlogo" unicode="&#xf8ff;" horiz-adv-x="989" 
d="M40 -77v886h909v-886h-909zM303 497h-73v223q41 1 78 1q51 0 82 -22.5t31 -90.5q0 -70 -29.5 -90.5t-88.5 -20.5zM230 467h141q19 0 19 -27v-313q0 -70 -11 -89t-61 -23v-32h207v32q-67 6 -83 24.5t-16 91.5v318h5l151 -466h26l148 467h4v-432l-71 -3v-32h226v32l-60 2
q-13 1 -19 6t-6 19v420l64 4v31h-158l-121 -384l-127 384h-59q69 37 69 113q0 69 -53 104.5t-135 35.5h-236v-31l66 -3q19 -1 19 -26v-419l-64 -4v-31h225v31l-65 3q-25 2 -25 24v173z" />
    <glyph glyph-name="s_t" unicode="&#xfb06;" horiz-adv-x="797" 
d="M636 -16q-54 0 -84.5 27.5t-30.5 81.5v2l5 315h-89v37q125 13 125 123q0 48 -34.5 75t-83.5 27q-51 0 -90 -32.5t-39 -93.5q0 -40 20 -97l52 -139l-33 -11q-13 48 -61 91t-102 43q-39 0 -63.5 -18.5t-24.5 -52.5q0 -37 29.5 -52.5t105.5 -31.5q36 -8 58 -15t48 -23
t38.5 -43t12.5 -66q0 -59 -45.5 -102.5t-114.5 -43.5q-75 0 -129 49l-19 -45h-29l-21 190h32q16 -62 62.5 -109t104.5 -47q46 0 73.5 21.5t27.5 59.5q0 17 -7.5 29.5t-16.5 20t-28.5 14t-31.5 9.5t-38 8q-31 6 -48.5 10.5t-44 16t-40 26t-24.5 39.5t-11 58q0 52 40.5 94
t103.5 42q64 0 114 -45q-28 59 -28 120q0 68 45 114.5t122 46.5q70 0 116 -40t46 -112v-97h133v-48h-133l-2 -285q0 -85 63 -85q30 0 48 24t23.5 52.5t5.5 62.5h31q4 -20 4 -43q0 -53 -36.5 -102.5t-106.5 -49.5z" />
    <glyph glyph-name="zero.onum" 
d="M260 -21q-94 0 -160.5 84.5t-66.5 207.5t66.5 208.5t160.5 85.5t160.5 -85.5t66.5 -208.5t-66.5 -207.5t-160.5 -84.5zM260 19q128 0 128 253q0 254 -128 254q-68 0 -98 -65t-30 -189q0 -253 128 -253z" />
    <glyph glyph-name="one.onum" horiz-adv-x="364" 
d="M140 47v405q0 22 -7 30t-24 10l-81 8v39h306v-38l-111 -9v-405q0 -21 7.5 -29.5t23.5 -10.5l81 -8v-39h-306v38z" />
    <glyph glyph-name="one.alt.onum" horiz-adv-x="418" 
d="M389 0h-360v38l138 9v366q0 40 -38 40h-113v35q57 0 119 22.5t90 48.5h33q-8 -93 -8 -189v-283q0 -22 7.5 -30.5t23.5 -9.5l108 -8v-39z" />
    <glyph glyph-name="two.onum" 
d="M468 -5q-118 5 -221 5q-88 0 -214 -6v31q21 38 65 78t89.5 73t88 67.5t70 74.5t27.5 82q0 54 -33 90t-89 36q-51 0 -95 -23t-44 -67q0 -12 8.5 -19.5t20.5 -7.5q18 0 31.5 -18.5t13.5 -43.5q0 -17 -17 -37t-43 -20q-31 0 -53 29.5t-22 71.5q0 74 59.5 125t150.5 51
q97 0 153 -50.5t56 -128.5q0 -46 -27 -84.5t-69.5 -67t-87 -52t-89 -51t-66.5 -53.5q35 2 87 2h144q38 0 54 20.5t24 75.5h35q-7 -96 -7 -132v-51z" />
    <glyph glyph-name="three.onum" 
d="M236 -147q-96 0 -149 45.5t-53 119.5q0 39 19 62t50 23q21 0 37.5 -19.5t16.5 -38.5q0 -20 -8.5 -33t-19.5 -17.5t-19.5 -12.5t-8.5 -19q0 -34 38.5 -53.5t94.5 -19.5q63 0 99 40t36 120q0 160 -134 160q-9 0 -24.5 -4.5t-22.5 -4.5q-13 0 -22 7.5t-9 18.5q0 12 9 19
t19 7q11 0 23 -4t32 -4q56 0 85 40t29 111q0 58 -27 93t-80 35q-51 0 -84 -18t-33 -43q0 -11 20.5 -29.5t20.5 -39.5q0 -20 -16 -37.5t-36 -17.5q-58 0 -58 76q0 64 56 106.5t140 42.5q86 0 136 -45t50 -115q0 -56 -31.5 -102.5t-95.5 -66.5v-6q75 -14 113 -64.5t38 -111.5
q0 -87 -67.5 -143.5t-163.5 -56.5z" />
    <glyph glyph-name="four.onum" 
d="M378 -127h-83v176h-273v42l325 471h36q-5 -62 -5 -146v-321h115v-46h-115v-176zM294 414l-221 -319h221v319z" />
    <glyph glyph-name="five.onum" horiz-adv-x="483" 
d="M218 -149q-87 0 -141 46.5t-54 113.5q0 38 19.5 64.5t49.5 26.5q22 0 40 -17.5t18 -42.5q0 -22 -9 -34.5t-20.5 -16t-20.5 -10t-9 -16.5q0 -29 34 -51.5t90 -22.5q65 0 104 51t39 143q0 86 -35.5 136t-98.5 50q-34 0 -76 -17.5t-42 -31.5q0 -16 -8.5 -32.5t-25.5 -16.5
q-9 0 -17 7.5t-8 22.5q0 18 12.5 34.5t13.5 26.5q17 190 22 299q112 -28 197 -28q37 0 65 6.5t42.5 13t19.5 6.5q7 0 7 -8q0 -4 -4 -14.5t-16 -26.5t-29.5 -30t-48.5 -24.5t-68 -10.5q-25 0 -74 7.5t-59 8.5q-4 -81 -17 -193q54 42 128 42q96 0 157.5 -58t61.5 -156
q0 -100 -66.5 -173.5t-172.5 -73.5z" />
    <glyph glyph-name="six.onum" 
d="M267 -19q-79 0 -134.5 48t-79.5 121t-24 163q0 94 30 178t94 142t150 58q70 0 112.5 -34.5t42.5 -81.5q0 -28 -15.5 -48.5t-41.5 -20.5t-43 17t-17 41q0 13 10 31.5t10 26.5q0 17 -20 24.5t-41 7.5q-60 0 -100.5 -50t-56.5 -123t-16 -164v-12q23 51 69 81.5t102 30.5
q82 0 133.5 -59.5t51.5 -141.5q0 -98 -64.5 -166.5t-151.5 -68.5zM269 19q41 0 68 28.5t38 68.5t11 88q0 71 -31 117.5t-89 46.5q-55 0 -91.5 -44t-36.5 -122q0 -87 36 -135t95 -48z" />
    <glyph glyph-name="seven.onum" horiz-adv-x="486" 
d="M239 -149q-53 0 -53 76q1 84 73 253t140 295q-46 -3 -138 -3q-19 0 -56.5 1t-49.5 1q-41 0 -57.5 -32t-27.5 -120l-36 5l27 235q71 -10 210 -10q93 0 188 6v-23q-12 -30 -48.5 -113.5t-48 -114.5t-31.5 -94.5t-26.5 -120t-6.5 -124.5q0 -117 -59 -117z" />
    <glyph glyph-name="eight.onum" 
d="M258 -21q-101 0 -163.5 50.5t-62.5 137.5q0 57 42 103t111 65q-59 27 -89.5 74.5t-30.5 101.5q0 81 56.5 134t140.5 53q87 0 141 -46t54 -112q0 -49 -28.5 -90t-84.5 -66q76 -31 109 -80t33 -122q0 -90 -67.5 -146.5t-160.5 -56.5zM313 396q78 45 78 132q0 62 -34.5 96.5
t-94.5 34.5q-59 0 -94.5 -32t-35.5 -82q0 -55 38 -87t143 -62zM265 19q69 0 111.5 37.5t42.5 99.5q0 61 -51 97.5t-152 66.5q-109 -40 -109 -153q0 -148 158 -148z" />
    <glyph glyph-name="nine.onum" horiz-adv-x="508" 
d="M203 -145q-69 0 -112 32t-43 82q0 31 18 51t43 20t40 -20t15 -44q0 -14 -10 -28t-10 -24q0 -18 21 -26t42 -8q81 1 127 90t46 250v10q-30 -56 -75 -83.5t-93 -27.5q-80 0 -133.5 56.5t-53.5 145.5q0 97 64 165t157 68q108 0 168.5 -94.5t60.5 -227.5q0 -168 -74 -277.5
t-198 -109.5zM242 179q57 0 92.5 46.5t35.5 114.5q0 73 -33.5 130t-90.5 57q-61 0 -93 -47.5t-32 -133.5q0 -167 121 -167z" />
    <glyph glyph-name="B.swsh" horiz-adv-x="826" 
d="M291 49v579q0 36 -16 52q-25 25 -92 25q-52 0 -95 -29t-60 -72l-68 49q62 87 222 87q30 0 103.5 -9t143.5 -9h74q114 0 184 -43t70 -128q0 -69 -44.5 -113.5t-113.5 -55.5v-6q89 -10 143 -61t54 -123q0 -94 -71.5 -143t-207.5 -49h-315v44zM492 396q73 0 116 31.5
t43 112.5q0 77 -32.5 109t-119.5 32l-109 -1v-284h102zM494 41q107 0 147 31.5t40 123.5q0 77 -42.5 115t-141.5 38h-107v-271q0 -18 8.5 -25.5t26.5 -9.5t69 -2z" />
    <glyph glyph-name="D.swsh" horiz-adv-x="862" 
d="M291 49v579q0 36 -16 52q-25 25 -92 25q-52 0 -95 -29t-60 -72l-68 49q62 87 222 87q30 0 103.5 -9t143.5 -9h74q161 0 245 -100t84 -249q0 -101 -27.5 -176.5t-74 -116.5t-100 -60.5t-113.5 -19.5h-318v44zM494 41q128 0 176 78t48 252q0 150 -50 230t-169 80l-109 -1
v-602q0 -18 8.5 -25.5t26.5 -9.5t69 -2z" />
    <glyph glyph-name="E.swsh" horiz-adv-x="820" 
d="M291 49v579q0 36 -16 52q-25 25 -92 25q-52 0 -95 -29t-60 -72l-68 49q62 87 222 87q30 0 103.5 -9t143.5 -9h302l26 -248l-33 -3q-11 66 -30 108.5t-48 65t-61.5 30.5t-80.5 8q-68 0 -114 -3v-284h7q82 0 112.5 28.5t41.5 112.5h37v-336h-38q-4 49 -12 78t-26.5 45.5
t-42.5 22t-65 5.5h-14v-273q0 -18 8.5 -25.5t26.5 -9.5q40 -4 75 -4q110 0 159.5 50t77.5 184l33 -3l-10 -255q0 -16 -17 -16h-544v44z" />
    <glyph glyph-name="F.swsh" horiz-adv-x="782" 
d="M291 49v579q0 36 -16 52q-25 25 -92 25q-52 0 -95 -29t-60 -72l-68 49q62 87 222 87q30 0 103.5 -9t143.5 -9h286q16 0 16 -14l27 -234l-33 -3q-22 126 -73 169t-148 43q-68 0 -114 -3v-284h7q49 0 79.5 8t47 28t23 42t11.5 63h37v-336h-38q-7 93 -39 121.5t-114 29.5
h-14v-270q0 -18 8.5 -25.5t26.5 -8.5l92 -4v-44h-316v44z" />
    <glyph glyph-name="H.swsh" horiz-adv-x="936" 
d="M291 49v579q0 36 -16 52q-25 25 -92 25q-52 0 -95 -29t-60 -72l-68 49q62 87 222 87q30 0 103.5 -9t143.5 -9h51v-44l-90 -5v-270h307v235q0 35 -27 36l-92 4v44h311v-44l-93 -5v-591q0 -19 8.5 -26.5t26.5 -8.5l88 -3v-44h-311v44l89 4v302h-307v-268q0 -18 8.5 -25.5
t26.5 -8.5l87 -4v-44h-310v44z" />
    <glyph glyph-name="I.swsh" horiz-adv-x="530" 
d="M291 49v579q0 36 -16 52q-25 25 -92 25q-52 0 -95 -29t-60 -72l-68 49q62 87 222 87q30 0 103.5 -9t143.5 -9h53v-44l-92 -5v-591q0 -18 8.5 -25.5t26.5 -8.5l88 -4v-44h-311v44z" />
    <glyph glyph-name="J.swsh" horiz-adv-x="548" 
d="M331 217v411q0 36 -16 52q-25 25 -132 25q-52 0 -95 -29t-60 -72l-68 49q62 87 222 87q30 0 123.5 -9t163.5 -9h52v-44l-91 -5v-456q0 -105 -53 -170t-163 -65q-92 0 -137.5 47.5t-45.5 117.5q0 59 26 93t69 34q33 0 50.5 -21t17.5 -48q0 -31 -19 -49.5t-43 -18.5
q-9 0 -18 3t-13 3q-8 0 -14 -8.5t-6 -21.5t8.5 -32t35.5 -38.5t67 -19.5q139 0 139 194z" />
    <glyph glyph-name="K.swsh" horiz-adv-x="884" 
d="M429 722h51v-44l-90 -5v-359l261 299l1 1q14 18 14 32q0 32 -109 32v44h302v-44q-49 0 -83 -18t-93 -81q-29 -30 -120 -134l119.5 -187.5t114.5 -176.5q13 -19 38.5 -27t84.5 -10v-44h-331v44q54 1 73.5 4.5t19.5 15.5q0 9 -11 26l-176 278l-105 -120v-166
q0 -18 8.5 -25.5t26.5 -8.5l85 -4v-44h-310v44l91 5v579q0 36 -16 52q-25 25 -92 25q-52 0 -95 -29t-60 -72l-68 49q62 87 222 87q30 0 103.5 -9t143.5 -9z" />
    <glyph glyph-name="L.swsh" horiz-adv-x="779" 
d="M291 49v579q0 36 -16 52q-25 25 -92 25q-52 0 -95 -29t-60 -72l-68 49q62 87 222 87q30 0 103.5 -9t143.5 -9h58v-44l-97 -5v-594q0 -18 8.5 -25.5t26.5 -9.5q40 -4 75 -4q109 0 155.5 49.5t75.5 184.5l33 -3l-10 -255q0 -16 -17 -16h-537v44z" />
    <glyph glyph-name="M.swsh" horiz-adv-x="1049" 
d="M291 202v426q0 36 -16 52q-25 25 -92 25q-52 0 -95 -29t-60 -72l-68 49q62 87 222 87q30 0 103.5 -9t143.5 -9l178 -540l170 540h221v-44l-89 -5v-591q0 -18 8.5 -25.5t26.5 -8.5l84 -4v-44h-317v44l99 5v607h-5l-208 -656h-37l-212 654h-7v-446q0 -56 3.5 -83.5
t20.5 -46t41 -24t75 -10.5v-44h-292v44q71 6 86.5 33t15.5 125z" />
    <glyph glyph-name="M.salt" horiz-adv-x="898" 
d="M877 0h-317v44l99 5v607h-5l-173 -546l46 -132q40 -113 158 -131v-38q-212 0 -267 168l-221 677h-7v-446q0 -56 3.5 -83.5t20.5 -46t41 -24t75 -10.5v-44h-292v44q71 6 86.5 33t15.5 125v436q0 35 -27 36l-96 4v44h261l178 -540l170 540h221v-44l-89 -5v-591
q0 -18 8.5 -25.5t26.5 -8.5l84 -4v-44z" />
    <glyph glyph-name="N.swsh" horiz-adv-x="905" 
d="M372 722l365 -529v327q0 38 -1.5 62.5t-9 42t-14 26.5t-25 15t-33 8t-47.5 4v44h275v-44q-68 -7 -82.5 -33.5t-14.5 -130.5v-520h-38l-409 601v-387q0 -39 1 -61.5t7 -42t13 -28.5t24.5 -16.5t35.5 -10t52 -5.5v-44h-275v44q65 4 80 30.5t15 127.5v426q0 36 -16 52
q-25 25 -92 25q-52 0 -95 -29t-60 -72l-68 49q62 87 222 87q42 0 104 -8t86 -10z" />
    <glyph glyph-name="P.swsh" horiz-adv-x="786" 
d="M492 367q33 0 54 2.5t44.5 11t36.5 25t22 45.5t9 71q0 51 -13.5 84.5t-38.5 49t-49.5 20.5t-57.5 5l-109 -1v-313h102zM291 49v579q0 36 -16 52q-25 25 -92 25q-52 0 -95 -29t-60 -72l-68 49q62 87 222 87q30 0 103.5 -9t143.5 -9h74q115 0 189 -50t74 -146
q0 -103 -73.5 -152t-189.5 -49h-113v-243q0 -18 8.5 -25.5t26.5 -8.5l92 -4v-44h-316v44z" />
    <glyph glyph-name="R.swsh" horiz-adv-x="841" 
d="M481 396q29 0 46 1t43.5 8.5t41 21t26 41.5t11.5 67q0 86 -35 116t-115 30l-109 -1v-284h91zM291 49v579q0 36 -16 52q-25 25 -92 25q-52 0 -95 -29t-60 -72l-68 49q62 87 222 87q30 0 103.5 -9t143.5 -9h74q116 0 185.5 -43.5t69.5 -139.5q0 -69 -59 -120t-143 -51v-6
q57 -11 90.5 -49.5t49.5 -116.5q30 -139 64 -139q18 0 28.5 29.5t10.5 75.5l32 -2q0 -83 -28 -126.5t-80 -43.5q-56 0 -87.5 42.5t-35.5 151.5q-2 56 -15 91.5t-37.5 52t-48 21.5t-59.5 5h-50v-272q0 -18 8.5 -25.5t26.5 -8.5l88 -4v-44h-314v44z" />
    <glyph glyph-name="T_h" horiz-adv-x="1060" 
d="M1053 0h-228v38l60 4v241q0 54 -25.5 89.5t-69.5 35.5q-49 0 -81.5 -40.5t-32.5 -110.5v-182q0 -19 6.5 -26t24.5 -8l61 -3v-38h-231v38l58 4v485q0 39 -3 64.5t-13.5 44t-22.5 28t-37.5 15t-49.5 6.5t-68 1q-21 0 -30.5 -8t-9.5 -34v-555q0 -18 13 -29t31 -12l87 -4v-44
h-328v44l98 5v595q0 26 -9.5 34t-30.5 8q-149 0 -174 -236l-33 3l15 298h27q15 -29 38 -29h499q14 0 30.5 8.5t23.5 20.5h28v-376q64 90 150 90q68 0 104 -45.5t36 -124.5v-220q0 -18 6.5 -25.5t24.5 -8.5l56 -3v-38z" />
    <glyph glyph-name="U.swsh" horiz-adv-x="927" 
d="M429 722h55v-44l-94 -5v-416q0 -100 43 -163t136 -63q99 0 143.5 62t44.5 193q0 100 -1 171t-1 85q0 46 -6 73.5t-23 41t-38 17.5t-59 4v44h264v-44q-53 0 -70.5 -23t-17.5 -92q0 -41 1 -121t1 -153q0 -47 -4.5 -85t-20.5 -81.5t-43 -73t-76 -49t-115 -19.5
q-257 0 -257 251v396q0 36 -16 52q-25 25 -92 25q-52 0 -95 -29t-60 -72l-68 49q62 87 222 87q30 0 103.5 -9t143.5 -9z" />
    <glyph glyph-name="V.swsh" horiz-adv-x="882" 
d="M547 -11l-242 647q-9 23 -30 44q-25 25 -92 25q-52 0 -95 -29t-60 -72l-68 49q62 87 222 87q30 0 103.5 -9t143.5 -9h64v-44l-54 -2q-31 -2 -31 -23q0 -9 4 -20l182 -488l153 430q10 30 10 46q0 30 -24.5 43.5t-89.5 13.5v44h246v-44q-36 -4 -52 -20.5t-32 -62.5
l-217 -606h-41z" />
    <glyph glyph-name="W.swsh" horiz-adv-x="1183" 
d="M511 -11l-210 647q-9 27 -26 44q-25 25 -92 25q-52 0 -95 -29t-60 -72l-68 49q62 87 222 87q30 0 103.5 -9t143.5 -9h39v-44l-33 -2q-17 -1 -24.5 -5t-7.5 -15q0 -10 5 -23l149 -467l133 417l-18 58q-11 32 -57 34l-70 3v44h295v-44l-36 -3q-30 -3 -30 -24q0 -9 5 -24
l149 -463l123 411q7 21 7 43q0 60 -112 60v44h246v-44q-36 -3 -54 -21.5t-35 -73.5l-179 -594h-41l-169 524l-161 -524h-42z" />
    <glyph glyph-name="X.swsh" horiz-adv-x="884" 
d="M495 357l-182 280q-18 26 -38 43q-28 25 -92 25q-52 0 -95 -29t-60 -72l-68 49q62 87 222 87q30 0 103.5 -9t143.5 -9h64v-44l-40 -2q-27 -1 -27 -20q0 -9 10 -23l123 -190l104 163q12 20 12 34q0 20 -21.5 29t-72.5 9v44h260v-44q-48 -5 -71 -19.5t-54 -62.5l-129 -198
l200 -313q12 -18 21 -25.5t16.5 -9.5t28.5 -3l57 -3v-44h-307v44l38 3q31 3 31 19q0 12 -8 23l-142 226l-113 -184q-12 -19 -12 -43q0 -44 94 -44v-44h-270v44q77 9 125 82z" />
    <glyph glyph-name="Y.swsh" horiz-adv-x="868" 
d="M515 292l-211 351q-13 21 -29 37q-27 25 -92 25q-52 0 -95 -29t-60 -72l-68 49q62 87 222 87q30 0 103.5 -9t143.5 -9h74v-44l-51 -2q-31 -1 -31 -20q0 -13 13 -35l158 -261l122 235q9 18 9 38q0 22 -22.5 33.5t-87.5 11.5v44h262v-44q-31 -4 -44 -7.5t-30.5 -20.5
t-35.5 -52l-151 -291v-225q0 -18 8.5 -25.5t26.5 -8.5l97 -4v-44h-327v44l96 5v243z" />
    <glyph glyph-name="c_t" horiz-adv-x="811" 
d="M650 -16q-54 0 -84.5 27.5t-30.5 81.5v2l5 315h-89v37q125 13 125 123q0 39 -30 70.5t-88 31.5q-56 0 -96 -33t-40 -94q0 -69 51 -119q33 -31 33 -72q0 -28 -16 -48t-39 -20t-38 17.5t-15 36.5q0 20 12.5 35t12.5 20q0 17 -24 29t-46 12q-64 0 -96.5 -56t-32.5 -147
q0 -94 33 -147t100 -53q44 0 77.5 28t47.5 76l34 -10q-44 -144 -178 -144q-92 0 -149.5 65.5t-57.5 171.5q0 110 63.5 181t163.5 71q33 0 61 -20q-36 44 -36 102q0 59 47.5 106t127.5 47q79 0 120.5 -44.5t41.5 -107.5v-97h133v-48h-133l-2 -285q0 -85 63 -85q30 0 48 24
t23.5 52.5t5.5 62.5h31q4 -20 4 -43q0 -53 -36.5 -102.5t-106.5 -49.5z" />
    <glyph glyph-name="i.dotaccent" horiz-adv-x="276" 
d="M135 599q-24 0 -40.5 17.5t-16.5 43.5t16.5 43.5t40.5 17.5t41 -18t17 -43t-17 -43t-41 -18zM267 0h-230v38l63 4v301q0 27 -8 36.5t-38 9.5h-50v37q65 0 145 39h33v-390q0 -19 6.5 -25.5t24.5 -8.5l54 -3v-38z" />
    <glyph glyph-name="m.swsh" horiz-adv-x="1082" 
d="M650 0h-60v38l61 4v241q0 55 -25 90t-65 35q-45 0 -75.5 -39t-30.5 -112v-182q0 -18 6.5 -25.5t24.5 -8.5l63 -3v-38h-233v38l59 4v241q0 56 -21.5 90.5t-60.5 34.5q-47 0 -79 -41.5t-32 -109.5v-182q0 -19 6.5 -26t24.5 -8l61 -3v-38h-233v38l59 4v302q0 27 -8 36.5
t-38 9.5h-50v37q57 0 137 39h33v-112q57 113 148 113q94 0 124 -99q60 99 149 99q65 0 100.5 -47.5t35.5 -124.5v-209q0 -32 16 -48q32 -32 121 -32q52 0 91.5 27t56.5 70l54 -47q-59 -83 -202 -83q-47 0 -108 13.5t-110 13.5z" />
    <glyph glyph-name="n.swsh" horiz-adv-x="815" 
d="M464 295v-209q0 -32 16 -48q32 -32 121 -32q52 0 91.5 27t56.5 70l54 -47q-59 -83 -202 -83q-47 0 -108 13.5t-110 13.5h-62v38l62 4v241q0 55 -22.5 90t-65.5 35q-44 0 -79 -43.5t-35 -107.5v-182q0 -19 6.5 -26t24.5 -8l60 -3v-38h-232v38l60 4v301q0 27 -8 36.5
t-38 9.5h-40v37q48 0 128 39h33v-113q57 113 150 113q68 0 103.5 -45t35.5 -125z" />
    <glyph glyph-name="A.smcp" horiz-adv-x="532" 
d="M566 0h-251v43l55 3q20 2 20 10q0 7 -3 13l-41 102h-201l-24 -59q-6 -14 -6 -28q0 -41 78 -41v-43h-197v43q46 4 67 58l186 451h40l194 -481q6 -17 13.5 -21t25.5 -5l44 -2v-43zM327 217l-82 205l-82 -205h164z" />
    <glyph glyph-name="Aacute.smcp" horiz-adv-x="532" 
d="M566 0h-251v43l55 3q20 2 20 10q0 7 -3 13l-41 102h-201l-24 -59q-6 -14 -6 -28q0 -41 78 -41v-43h-197v43q46 4 67 58l186 451h40l194 -481q6 -17 13.5 -21t25.5 -5l44 -2v-43zM327 217l-82 205l-82 -205h164zM214 578l-14 16l108 139q13 13 31 13t31 -13t13 -31
q0 -24 -20 -37z" />
    <glyph glyph-name="Agrave.smcp" horiz-adv-x="532" 
d="M566 0h-251v43l55 3q20 2 20 10q0 7 -3 13l-41 102h-201l-24 -59q-6 -14 -6 -28q0 -41 78 -41v-43h-197v43q46 4 67 58l186 451h40l194 -481q6 -17 13.5 -21t25.5 -5l44 -2v-43zM327 217l-82 205l-82 -205h164zM319 578l-149 87q-20 13 -20 37q0 18 13 31t31 13t31 -13
l108 -139z" />
    <glyph glyph-name="Acircumflex.smcp" horiz-adv-x="532" 
d="M566 0h-251v43l55 3q20 2 20 10q0 7 -3 13l-41 102h-201l-24 -59q-6 -14 -6 -28q0 -41 78 -41v-43h-197v43q46 4 67 58l186 451h40l194 -481q6 -17 13.5 -21t25.5 -5l44 -2v-43zM327 217l-82 205l-82 -205h164zM379 579l-110 104l-110 -104l-20 15l85 143q6 12 17 12h56
q10 0 16 -12l85 -143z" />
    <glyph glyph-name="Adieresis.smcp" horiz-adv-x="532" 
d="M566 0h-251v43l55 3q20 2 20 10q0 7 -3 13l-41 102h-201l-24 -59q-6 -14 -6 -28q0 -41 78 -41v-43h-197v43q46 4 67 58l186 451h40l194 -481q6 -17 13.5 -21t25.5 -5l44 -2v-43zM327 217l-82 205l-82 -205h164zM185 599q-21 0 -36 16t-15 39t15 39t36 16t36 -16t15 -39
t-15 -39t-36 -16zM349 599q-21 0 -36 16t-15 39t15 39t36 16t36 -16t15 -39t-15 -39t-36 -16z" />
    <glyph glyph-name="Atilde.smcp" horiz-adv-x="532" 
d="M566 0h-251v43l55 3q20 2 20 10q0 7 -3 13l-41 102h-201l-24 -59q-6 -14 -6 -28q0 -41 78 -41v-43h-197v43q46 4 67 58l186 451h40l194 -481q6 -17 13.5 -21t25.5 -5l44 -2v-43zM327 217l-82 205l-82 -205h164zM322 598q-25 0 -62 29.5t-57 29.5q-41 0 -53 -46l-20 7
q24 101 89 101q25 0 62 -29.5t57 -29.5q41 0 53 46l20 -7q-24 -101 -89 -101z" />
    <glyph glyph-name="Aring.smcp" horiz-adv-x="532" 
d="M566 0h-251v43l55 3q20 2 20 10q0 7 -3 13l-41 102h-201l-24 -59q-6 -14 -6 -28q0 -41 78 -41v-43h-197v43q46 4 67 58l186 451h40l194 -481q6 -17 13.5 -21t25.5 -5l44 -2v-43zM327 217l-82 205l-82 -205h164zM270 588q-42 0 -72 30t-30 72t30 72t72 30t72 -30t30 -72
t-30 -72t-72 -30zM270 616q31 0 52.5 21.5t21.5 52.5t-21.5 52.5t-52.5 21.5t-52.5 -21.5t-21.5 -52.5t21.5 -52.5t52.5 -21.5z" />
    <glyph glyph-name="Abreve.smcp" horiz-adv-x="532" 
d="M566 0h-251v43l55 3q20 2 20 10q0 7 -3 13l-41 102h-201l-24 -59q-6 -14 -6 -28q0 -41 78 -41v-43h-197v43q46 4 67 58l186 451h40l194 -481q6 -17 13.5 -21t25.5 -5l44 -2v-43zM327 217l-82 205l-82 -205h164zM269 598q-95 0 -132 101l19 7q30 -46 97 -46h32q69 0 97 46
l19 -7q-37 -101 -132 -101z" />
    <glyph glyph-name="Amacron.smcp" horiz-adv-x="532" 
d="M566 0h-251v43l55 3q20 2 20 10q0 7 -3 13l-41 102h-201l-24 -59q-6 -14 -6 -28q0 -41 78 -41v-43h-197v43q46 4 67 58l186 451h40l194 -481q6 -17 13.5 -21t25.5 -5l44 -2v-43zM327 217l-82 205l-82 -205h164zM389 621h-244v62h244v-62z" />
    <glyph glyph-name="Aogonek.smcp" horiz-adv-x="532" 
d="M465 -235q-39 0 -67 28t-28 64q0 65 93 143h-148v43l55 3q20 2 20 10q0 7 -3 13l-41 102h-201l-24 -59q-6 -14 -6 -28q0 -41 78 -41v-43h-197v43q46 4 67 58l186 451h40l194 -481q6 -17 13.5 -21t25.5 -5l44 -2v-43h-74q-33 -29 -47 -52.5t-14 -59.5q0 -26 19.5 -42
t44.5 -16q8 0 15 1t11 2t10.5 4.5t9 4.5t11 7l11.5 8l10 -10q-39 -82 -108 -82zM327 217l-82 205l-82 -205h164z" />
    <glyph glyph-name="AE.smcp" horiz-adv-x="833" 
d="M756 0h-441v43l74 3v155h-188l-48 -74q-17 -23 -17 -41q0 -21 14 -32t56 -11v-43h-210v43q50 4 94 72l206 322q14 22 14 40q0 8 -6.5 14.5t-17.5 7.5l-57 4v41h522l22 -193l-36 -2q-18 93 -57.5 124.5t-114.5 31.5q-62 0 -86 -2v-200q63 0 87 21t32 83h39v-258h-40
q-6 70 -28.5 90.5t-83.5 20.5h-6v-197q0 -11 5.5 -15t18.5 -5q24 -3 59 -3q86 0 124.5 37t60.5 136l36 -2l-8 -194q0 -17 -19 -17zM389 248v255l-159 -255h159z" />
    <glyph glyph-name="AEacute.smcp" horiz-adv-x="833" 
d="M756 0h-441v43l74 3v155h-188l-48 -74q-17 -23 -17 -41q0 -21 14 -32t56 -11v-43h-210v43q50 4 94 72l206 322q14 22 14 40q0 8 -6.5 14.5t-17.5 7.5l-57 4v41h522l22 -193l-36 -2q-18 93 -57.5 124.5t-114.5 31.5q-62 0 -86 -2v-200q63 0 87 21t32 83h39v-258h-40
q-6 70 -28.5 90.5t-83.5 20.5h-6v-197q0 -11 5.5 -15t18.5 -5q24 -3 59 -3q86 0 124.5 37t60.5 136l36 -2l-8 -194q0 -17 -19 -17zM389 248v255l-159 -255h159zM397 578l-14 16l108 139q13 13 31 13t31 -13t13 -31q0 -24 -20 -37z" />
    <glyph glyph-name="B.smcp" horiz-adv-x="562" 
d="M304 0h-257v43l71 3v431q0 20 -17 22l-70 3v42h262q93 0 150.5 -33t57.5 -98q0 -51 -35 -84.5t-90 -42.5q71 -8 113.5 -46.5t42.5 -92.5q0 -72 -58.5 -109.5t-169.5 -37.5zM285 40q83 0 114 22.5t31 87.5q0 54 -33 81t-109 27h-81v-195q0 -12 5.5 -16t18.5 -5
q15 -2 54 -2zM284 303q122 0 122 102q0 54 -25 76.5t-92 22.5l-82 -1v-200h77z" />
    <glyph glyph-name="C.smcp" horiz-adv-x="519" 
d="M282 -15q-77 0 -136 42.5t-87.5 103.5t-28.5 126q0 133 77 215.5t171 82.5q71 0 134 -49q17 40 19 44h31l29 -220l-38 -5q-19 84 -65.5 136t-109.5 52q-68 0 -106 -63t-38 -183q0 -238 161 -238q63 0 106.5 44t56.5 123l41 -6q-13 -91 -69.5 -148t-147.5 -57z" />
    <glyph glyph-name="Ccedilla.smcp" horiz-adv-x="519" 
d="M280 -201q-67 0 -133 48l7 13q34 -15 54 -19.5t54 -4.5q35 0 54.5 12.5t19.5 30.5q0 31 -38 31q-22 0 -35 -10l-13 6v81q-100 13 -160 94t-60 176q0 133 77 215.5t171 82.5q71 0 134 -49q17 40 19 44h31l29 -220l-38 -5q-19 84 -65.5 136t-109.5 52q-68 0 -106 -63
t-38 -183q0 -238 161 -238q63 0 106.5 44t56.5 123l41 -6q-13 -91 -69.5 -148t-147.5 -57v-55q21 7 41 7q34 0 55.5 -18.5t21.5 -43.5q0 -30 -32 -53t-88 -23z" />
    <glyph glyph-name="Cacute.smcp" horiz-adv-x="519" 
d="M282 -15q-77 0 -136 42.5t-87.5 103.5t-28.5 126q0 133 77 215.5t171 82.5q71 0 134 -49q17 40 19 44h31l29 -220l-38 -5q-19 84 -65.5 136t-109.5 52q-68 0 -106 -63t-38 -183q0 -238 161 -238q63 0 106.5 44t56.5 123l41 -6q-13 -91 -69.5 -148t-147.5 -57zM223 578
l-14 16l108 139q13 13 31 13t31 -13t13 -31q0 -24 -20 -37z" />
    <glyph glyph-name="Ccircumflex.smcp" horiz-adv-x="519" 
d="M282 -15q-77 0 -136 42.5t-87.5 103.5t-28.5 126q0 133 77 215.5t171 82.5q71 0 134 -49q17 40 19 44h31l29 -220l-38 -5q-19 84 -65.5 136t-109.5 52q-68 0 -106 -63t-38 -183q0 -238 161 -238q63 0 106.5 44t56.5 123l41 -6q-13 -91 -69.5 -148t-147.5 -57zM388 579
l-110 104l-110 -104l-20 15l85 143q6 12 17 12h56q10 0 16 -12l85 -143z" />
    <glyph glyph-name="Cdotaccent.smcp" horiz-adv-x="519" 
d="M282 -15q-77 0 -136 42.5t-87.5 103.5t-28.5 126q0 133 77 215.5t171 82.5q71 0 134 -49q17 40 19 44h31l29 -220l-38 -5q-19 84 -65.5 136t-109.5 52q-68 0 -106 -63t-38 -183q0 -238 161 -238q63 0 106.5 44t56.5 123l41 -6q-13 -91 -69.5 -148t-147.5 -57zM278 599
q-28 0 -48 20t-20 49t20 49.5t48 20.5t48 -20.5t20 -49.5t-20 -49t-48 -20z" />
    <glyph glyph-name="Ccaron.smcp" horiz-adv-x="519" 
d="M282 -15q-77 0 -136 42.5t-87.5 103.5t-28.5 126q0 133 77 215.5t171 82.5q71 0 134 -49q17 40 19 44h31l29 -220l-38 -5q-19 84 -65.5 136t-109.5 52q-68 0 -106 -63t-38 -183q0 -238 161 -238q63 0 106.5 44t56.5 123l41 -6q-13 -91 -69.5 -148t-147.5 -57zM305 595
h-56q-10 0 -16 12l-85 135h27l102 -89l102 89h28l-85 -135q-6 -12 -17 -12z" />
    <glyph glyph-name="D.smcp" horiz-adv-x="588" 
d="M301 0h-260v43l74 3v431q0 20 -17 21l-83 4v42h275q131 0 199.5 -75t68.5 -188q0 -76 -22.5 -133t-60.5 -88t-81.5 -45.5t-92.5 -14.5zM282 40q100 0 137.5 57t37.5 183q0 108 -39 166t-132 58l-82 -1v-440q0 -12 5.5 -16t18.5 -5q15 -2 54 -2z" />
    <glyph glyph-name="Dcroat.smcp" horiz-adv-x="588" 
d="M558 281q0 -76 -22.5 -133t-60.5 -88t-81.5 -45.5t-92.5 -14.5h-260v43l74 3v209h-74v55h74v167q0 20 -17 22l-83 3v42h275q131 0 199.5 -75t68.5 -188zM457 280q0 108 -39 166t-132 58l-82 -1v-193h145v-55h-145v-192q0 -12 5.5 -16t18.5 -5q15 -2 54 -2q100 0 137.5 57
t37.5 183z" />
    <glyph glyph-name="Dcaron.smcp" horiz-adv-x="588" 
d="M301 0h-260v43l74 3v431q0 20 -17 21l-83 4v42h275q131 0 199.5 -75t68.5 -188q0 -76 -22.5 -133t-60.5 -88t-81.5 -45.5t-92.5 -14.5zM282 40q100 0 137.5 57t37.5 183q0 108 -39 166t-132 58l-82 -1v-440q0 -12 5.5 -16t18.5 -5q15 -2 54 -2zM317 595h-56q-10 0 -16 12
l-85 135h27l102 -89l102 89h28l-85 -135q-6 -12 -17 -12z" />
    <glyph glyph-name="E.smcp" horiz-adv-x="558" 
d="M482 0h-441v43l74 3v431q0 19 -19 22l-82 3v42h463l22 -193l-37 -2q-17 93 -57 124.5t-115 31.5q-71 0 -86 -1v-201h1q63 0 87 21t32 83h39v-258h-41q-6 70 -28.5 90.5t-83.5 20.5h-6v-197q0 -11 5.5 -15t18.5 -5q24 -3 59 -3q86 0 124.5 37t61.5 136l35 -2l-8 -194
q0 -17 -18 -17z" />
    <glyph glyph-name="Eacute.smcp" horiz-adv-x="558" 
d="M482 0h-441v43l74 3v431q0 19 -19 22l-82 3v42h463l22 -193l-37 -2q-17 93 -57 124.5t-115 31.5q-71 0 -86 -1v-201h1q63 0 87 21t32 83h39v-258h-41q-6 70 -28.5 90.5t-83.5 20.5h-6v-197q0 -11 5.5 -15t18.5 -5q24 -3 59 -3q86 0 124.5 37t61.5 136l35 -2l-8 -194
q0 -17 -18 -17zM231 578l-14 16l108 139q13 13 31 13t31 -13t13 -31q0 -24 -20 -37z" />
    <glyph glyph-name="Egrave.smcp" horiz-adv-x="558" 
d="M482 0h-441v43l74 3v431q0 19 -19 22l-82 3v42h463l22 -193l-37 -2q-17 93 -57 124.5t-115 31.5q-71 0 -86 -1v-201h1q63 0 87 21t32 83h39v-258h-41q-6 70 -28.5 90.5t-83.5 20.5h-6v-197q0 -11 5.5 -15t18.5 -5q24 -3 59 -3q86 0 124.5 37t61.5 136l35 -2l-8 -194
q0 -17 -18 -17zM336 578l-149 87q-20 13 -20 37q0 18 13 31t31 13t31 -13l108 -139z" />
    <glyph glyph-name="Ecircumflex.smcp" horiz-adv-x="558" 
d="M482 0h-441v43l74 3v431q0 19 -19 22l-82 3v42h463l22 -193l-37 -2q-17 93 -57 124.5t-115 31.5q-71 0 -86 -1v-201h1q63 0 87 21t32 83h39v-258h-41q-6 70 -28.5 90.5t-83.5 20.5h-6v-197q0 -11 5.5 -15t18.5 -5q24 -3 59 -3q86 0 124.5 37t61.5 136l35 -2l-8 -194
q0 -17 -18 -17zM396 579l-110 104l-110 -104l-20 15l85 143q6 12 17 12h56q10 0 16 -12l85 -143z" />
    <glyph glyph-name="Edieresis.smcp" horiz-adv-x="558" 
d="M482 0h-441v43l74 3v431q0 19 -19 22l-82 3v42h463l22 -193l-37 -2q-17 93 -57 124.5t-115 31.5q-71 0 -86 -1v-201h1q63 0 87 21t32 83h39v-258h-41q-6 70 -28.5 90.5t-83.5 20.5h-6v-197q0 -11 5.5 -15t18.5 -5q24 -3 59 -3q86 0 124.5 37t61.5 136l35 -2l-8 -194
q0 -17 -18 -17zM202 599q-21 0 -36 16t-15 39t15 39t36 16t36 -16t15 -39t-15 -39t-36 -16zM366 599q-21 0 -36 16t-15 39t15 39t36 16t36 -16t15 -39t-15 -39t-36 -16z" />
    <glyph glyph-name="Ebreve.smcp" horiz-adv-x="558" 
d="M482 0h-441v43l74 3v431q0 19 -19 22l-82 3v42h463l22 -193l-37 -2q-17 93 -57 124.5t-115 31.5q-71 0 -86 -1v-201h1q63 0 87 21t32 83h39v-258h-41q-6 70 -28.5 90.5t-83.5 20.5h-6v-197q0 -11 5.5 -15t18.5 -5q24 -3 59 -3q86 0 124.5 37t61.5 136l35 -2l-8 -194
q0 -17 -18 -17zM286 598q-95 0 -132 101l19 7q30 -46 97 -46h32q69 0 97 46l19 -7q-37 -101 -132 -101z" />
    <glyph glyph-name="Emacron.smcp" horiz-adv-x="558" 
d="M482 0h-441v43l74 3v431q0 19 -19 22l-82 3v42h463l22 -193l-37 -2q-17 93 -57 124.5t-115 31.5q-71 0 -86 -1v-201h1q63 0 87 21t32 83h39v-258h-41q-6 70 -28.5 90.5t-83.5 20.5h-6v-197q0 -11 5.5 -15t18.5 -5q24 -3 59 -3q86 0 124.5 37t61.5 136l35 -2l-8 -194
q0 -17 -18 -17zM406 621h-244v62h244v-62z" />
    <glyph glyph-name="Edotaccent.smcp" horiz-adv-x="558" 
d="M482 0h-441v43l74 3v431q0 19 -19 22l-82 3v42h463l22 -193l-37 -2q-17 93 -57 124.5t-115 31.5q-71 0 -86 -1v-201h1q63 0 87 21t32 83h39v-258h-41q-6 70 -28.5 90.5t-83.5 20.5h-6v-197q0 -11 5.5 -15t18.5 -5q24 -3 59 -3q86 0 124.5 37t61.5 136l35 -2l-8 -194
q0 -17 -18 -17zM286 599q-28 0 -48 20t-20 49t20 49.5t48 20.5t48 -20.5t20 -49.5t-20 -49t-48 -20z" />
    <glyph glyph-name="Ecaron.smcp" horiz-adv-x="558" 
d="M482 0h-441v43l74 3v431q0 19 -19 22l-82 3v42h463l22 -193l-37 -2q-17 93 -57 124.5t-115 31.5q-71 0 -86 -1v-201h1q63 0 87 21t32 83h39v-258h-41q-6 70 -28.5 90.5t-83.5 20.5h-6v-197q0 -11 5.5 -15t18.5 -5q24 -3 59 -3q86 0 124.5 37t61.5 136l35 -2l-8 -194
q0 -17 -18 -17zM313 595h-56q-10 0 -16 12l-85 135h27l102 -89l102 89h28l-85 -135q-6 -12 -17 -12z" />
    <glyph glyph-name="Eogonek.smcp" horiz-adv-x="558" 
d="M407 -235q-39 0 -67 28t-28 64q0 65 93 143h-364v43l74 3v431q0 19 -19 22l-82 3v42h463l22 -193l-37 -2q-17 93 -57 124.5t-115 31.5q-71 0 -86 -1v-201h1q63 0 87 21t32 83h39v-258h-41q-6 70 -28.5 90.5t-83.5 20.5h-6v-197q0 -11 5.5 -15t18.5 -5q24 -3 59 -3
q86 0 124.5 37t61.5 136l35 -2l-8 -194q0 -17 -18 -17h-48q-33 -29 -47 -52.5t-14 -59.5q0 -26 19.5 -42t44.5 -16q8 0 15 1t11 2t10.5 4.5t9 4.5t11 7l11.5 8l10 -10q-39 -82 -108 -82z" />
    <glyph glyph-name="F.smcp" horiz-adv-x="527" 
d="M309 0h-263v43l72 3v431q0 20 -17 22l-70 3v42h431q17 0 18 -14l23 -179l-37 -2q-18 93 -58 124.5t-115 31.5q-73 0 -86 -1v-201h1q72 0 94.5 23t30.5 81h38v-258h-40q-6 69 -30.5 90t-87.5 21h-6v-194q0 -20 23 -20l79 -3v-43z" />
    <glyph glyph-name="G.smcp" horiz-adv-x="576" 
d="M506 -16h-37l-27 74q-58 -73 -165 -73q-77 0 -135 42.5t-85 103t-27 126.5q0 132 80.5 215t175.5 83q88 0 142 -49l23 44h30l24 -213l-38 -5q-19 84 -66 132.5t-113 48.5q-69 0 -112 -64t-43 -182q0 -127 38 -182.5t114 -55.5q77 0 105.5 41t28.5 111q0 26 -27 27l-76 3
v42h260v-42l-76 -4q0 -145 6 -223z" />
    <glyph glyph-name="Gcircumflex.smcp" horiz-adv-x="576" 
d="M506 -16h-37l-27 74q-58 -73 -165 -73q-77 0 -135 42.5t-85 103t-27 126.5q0 132 80.5 215t175.5 83q88 0 142 -49l23 44h30l24 -213l-38 -5q-19 84 -66 132.5t-113 48.5q-69 0 -112 -64t-43 -182q0 -127 38 -182.5t114 -55.5q77 0 105.5 41t28.5 111q0 26 -27 27l-76 3
v42h260v-42l-76 -4q0 -145 6 -223zM398 579l-110 104l-110 -104l-20 15l85 143q6 12 17 12h56q10 0 16 -12l85 -143z" />
    <glyph glyph-name="Gbreve.smcp" horiz-adv-x="576" 
d="M506 -16h-37l-27 74q-58 -73 -165 -73q-77 0 -135 42.5t-85 103t-27 126.5q0 132 80.5 215t175.5 83q88 0 142 -49l23 44h30l24 -213l-38 -5q-19 84 -66 132.5t-113 48.5q-69 0 -112 -64t-43 -182q0 -127 38 -182.5t114 -55.5q77 0 105.5 41t28.5 111q0 26 -27 27l-76 3
v42h260v-42l-76 -4q0 -145 6 -223zM288 598q-95 0 -132 101l19 7q30 -46 97 -46h32q69 0 97 46l19 -7q-37 -101 -132 -101z" />
    <glyph glyph-name="Gdotaccent.smcp" horiz-adv-x="576" 
d="M506 -16h-37l-27 74q-58 -73 -165 -73q-77 0 -135 42.5t-85 103t-27 126.5q0 132 80.5 215t175.5 83q88 0 142 -49l23 44h30l24 -213l-38 -5q-19 84 -66 132.5t-113 48.5q-69 0 -112 -64t-43 -182q0 -127 38 -182.5t114 -55.5q77 0 105.5 41t28.5 111q0 26 -27 27l-76 3
v42h260v-42l-76 -4q0 -145 6 -223zM288 599q-28 0 -48 20t-20 49t20 49.5t48 20.5t48 -20.5t20 -49.5t-20 -49t-48 -20z" />
    <glyph glyph-name="uni0122.smcp" horiz-adv-x="576" 
d="M506 -16h-37l-27 74q-58 -73 -165 -73q-77 0 -135 42.5t-85 103t-27 126.5q0 132 80.5 215t175.5 83q88 0 142 -49l23 44h30l24 -213l-38 -5q-19 84 -66 132.5t-113 48.5q-69 0 -112 -64t-43 -182q0 -127 38 -182.5t114 -55.5q77 0 105.5 41t28.5 111q0 26 -27 27l-76 3
v42h260v-42l-76 -4q0 -145 6 -223zM240 -287l-18 23q29 18 52 46.5t23 55.5q0 14 -5 14q-2 0 -8 -2.5t-13 -2.5q-17 0 -28 13t-11 31q0 20 13 34.5t34 14.5q24 0 41 -21.5t17 -53.5q0 -84 -97 -152z" />
    <glyph glyph-name="H.smcp" horiz-adv-x="645" 
d="M628 0h-258v43l71 3v213h-236v-193q0 -20 23 -20l75 -3v-43h-258v43l71 3v431q0 20 -17 22l-79 3v42h257v-42l-72 -4v-190h236v169q0 20 -17 22l-78 3v42h258v-42l-74 -4v-432q0 -12 5 -15.5t18 -4.5l75 -3v-43z" />
    <glyph glyph-name="Hbar.smcp" horiz-adv-x="645" 
d="M605 379h-75v-313q0 -12 5 -15.5t18 -4.5l75 -3v-43h-258v43l71 3v213h-236v-193q0 -20 23 -20l75 -3v-43h-258v43l71 3v333h-71v49h71v49q0 20 -17 22l-79 3v42h257v-42l-72 -4v-70h236v49q0 20 -17 22l-78 3v42h258v-42l-74 -4v-70h75v-49zM205 308h236v71h-236v-71z
" />
    <glyph glyph-name="Hcircumflex.smcp" horiz-adv-x="645" 
d="M628 0h-258v43l71 3v213h-236v-193q0 -20 23 -20l75 -3v-43h-258v43l71 3v431q0 20 -17 22l-79 3v42h257v-42l-72 -4v-190h236v169q0 20 -17 22l-78 3v42h258v-42l-74 -4v-432q0 -12 5 -15.5t18 -4.5l75 -3v-43zM433 579l-110 104l-110 -104l-20 15l85 143q6 12 17 12h56
q10 0 16 -12l85 -143z" />
    <glyph glyph-name="I.smcp" horiz-adv-x="321" 
d="M304 0h-259v43l71 3v431q0 20 -17 22l-78 3v42h258v-42l-74 -4v-432q0 -20 23 -20l76 -3v-43z" />
    <glyph glyph-name="Iacute.smcp" horiz-adv-x="321" 
d="M304 0h-259v43l71 3v431q0 20 -17 22l-78 3v42h258v-42l-74 -4v-432q0 -20 23 -20l76 -3v-43zM106 578l-14 16l108 139q13 13 31 13t31 -13t13 -31q0 -24 -20 -37z" />
    <glyph glyph-name="Igrave.smcp" horiz-adv-x="321" 
d="M304 0h-259v43l71 3v431q0 20 -17 22l-78 3v42h258v-42l-74 -4v-432q0 -20 23 -20l76 -3v-43zM211 578l-149 87q-20 13 -20 37q0 18 13 31t31 13t31 -13l108 -139z" />
    <glyph glyph-name="Icircumflex.smcp" horiz-adv-x="321" 
d="M304 0h-259v43l71 3v431q0 20 -17 22l-78 3v42h258v-42l-74 -4v-432q0 -20 23 -20l76 -3v-43zM271 579l-110 104l-110 -104l-20 15l85 143q6 12 17 12h56q10 0 16 -12l85 -143z" />
    <glyph glyph-name="Idieresis.smcp" horiz-adv-x="321" 
d="M304 0h-259v43l71 3v431q0 20 -17 22l-78 3v42h258v-42l-74 -4v-432q0 -20 23 -20l76 -3v-43zM77 599q-21 0 -36 16t-15 39t15 39t36 16t36 -16t15 -39t-15 -39t-36 -16zM241 599q-21 0 -36 16t-15 39t15 39t36 16t36 -16t15 -39t-15 -39t-36 -16z" />
    <glyph glyph-name="Itilde.smcp" horiz-adv-x="321" 
d="M304 0h-259v43l71 3v431q0 20 -17 22l-78 3v42h258v-42l-74 -4v-432q0 -20 23 -20l76 -3v-43zM214 598q-25 0 -62 29.5t-57 29.5q-41 0 -53 -46l-20 7q24 101 89 101q25 0 62 -29.5t57 -29.5q41 0 53 46l20 -7q-24 -101 -89 -101z" />
    <glyph glyph-name="Ibreve.smcp" horiz-adv-x="321" 
d="M304 0h-259v43l71 3v431q0 20 -17 22l-78 3v42h258v-42l-74 -4v-432q0 -20 23 -20l76 -3v-43zM161 598q-95 0 -132 101l19 7q30 -46 97 -46h32q69 0 97 46l19 -7q-37 -101 -132 -101z" />
    <glyph glyph-name="Imacron.smcp" horiz-adv-x="321" 
d="M304 0h-259v43l71 3v431q0 20 -17 22l-78 3v42h258v-42l-74 -4v-432q0 -20 23 -20l76 -3v-43zM281 621h-244v62h244v-62z" />
    <glyph glyph-name="Idotaccent.smcp" horiz-adv-x="321" 
d="M304 0h-259v43l71 3v431q0 20 -17 22l-78 3v42h258v-42l-74 -4v-432q0 -20 23 -20l76 -3v-43zM161 599q-28 0 -48 20t-20 49t20 49.5t48 20.5t48 -20.5t20 -49.5t-20 -49t-48 -20z" />
    <glyph glyph-name="Iogonek.smcp" horiz-adv-x="321" 
d="M196 -235q-39 0 -67 28t-28 64q0 65 93 143h-149v43l71 3v431q0 20 -17 22l-78 3v42h258v-42l-74 -4v-432q0 -20 23 -20l76 -3v-43h-81q-33 -29 -47 -52.5t-14 -59.5q0 -26 19.5 -42t44.5 -16q8 0 15 1t11 2t10.5 4.5t9 4.5t11 7l11.5 8l10 -10q-39 -82 -108 -82z" />
    <glyph glyph-name="IJ.smcp" horiz-adv-x="760" 
d="M304 0h-259v43l71 3v431q0 20 -17 22l-78 3v42h258v-42l-74 -4v-432q0 -20 23 -20l76 -3v-43zM482 -13q-76 0 -113.5 36.5t-37.5 90.5q0 45 22.5 72t58.5 27q29 0 44 -17t15 -39q0 -26 -16.5 -41t-37.5 -15q-7 0 -13.5 2.5t-11.5 2.5q-11 0 -11 -17t20.5 -39.5
t63.5 -22.5q106 0 106 139v311q0 20 -17 22l-85 3v42h264v-42l-73 -4v-332q0 -81 -43.5 -130t-134.5 -49z" />
    <glyph glyph-name="J.smcp" horiz-adv-x="439" 
d="M161 -13q-76 0 -113.5 36.5t-37.5 90.5q0 45 22.5 72t58.5 27q29 0 44 -17t15 -39q0 -26 -16.5 -41t-37.5 -15q-7 0 -13.5 2.5t-11.5 2.5q-11 0 -11 -17t20.5 -39.5t63.5 -22.5q106 0 106 139v311q0 20 -17 22l-85 3v42h264v-42l-73 -4v-332q0 -81 -43.5 -130t-134.5 -49
z" />
    <glyph glyph-name="Jcircumflex.smcp" horiz-adv-x="439" 
d="M161 -13q-76 0 -113.5 36.5t-37.5 90.5q0 45 22.5 72t58.5 27q29 0 44 -17t15 -39q0 -26 -16.5 -41t-37.5 -15q-7 0 -13.5 2.5t-11.5 2.5q-11 0 -11 -17t20.5 -39.5t63.5 -22.5q106 0 106 139v311q0 20 -17 22l-85 3v42h264v-42l-73 -4v-332q0 -81 -43.5 -130t-134.5 -49
zM406 579l-110 104l-110 -104l-20 15l85 143q6 12 17 12h56q10 0 16 -12l85 -143z" />
    <glyph glyph-name="K.smcp" horiz-adv-x="593" 
d="M629 0h-275v43q43 0 57.5 2t14.5 9q0 8 -5 15l-137 200l-79 -83v-120q0 -20 23 -20l73 -3v-43h-258v43l73 3v431q0 20 -17 22l-81 3v42h259v-42l-72 -4v-248l197 207q11 11 11 23q0 22 -84 22v42h251v-42q-40 0 -67.5 -13.5t-73.5 -59.5l-94 -95q171 -248 185 -266
q10 -13 30.5 -18.5t68.5 -6.5v-43z" />
    <glyph glyph-name="uni0136.smcp" horiz-adv-x="593" 
d="M629 0h-275v43q43 0 57.5 2t14.5 9q0 8 -5 15l-137 200l-79 -83v-120q0 -20 23 -20l73 -3v-43h-258v43l73 3v431q0 20 -17 22l-81 3v42h259v-42l-72 -4v-248l197 207q11 11 11 23q0 22 -84 22v42h251v-42q-40 0 -67.5 -13.5t-73.5 -59.5l-94 -95q171 -248 185 -266
q10 -13 30.5 -18.5t68.5 -6.5v-43zM287 -287l-18 23q29 18 52 46.5t23 55.5q0 14 -5 14q-1 0 -7 -2.5t-14 -2.5q-17 0 -28 13t-11 31q0 20 13 34.5t34 14.5q24 0 41 -21.5t17 -53.5q0 -84 -97 -152z" />
    <glyph glyph-name="L.smcp" horiz-adv-x="519" 
d="M478 0h-435v43l73 3v431q0 20 -17 22l-80 3v42h264v-42l-78 -4v-435q0 -11 5.5 -15t18.5 -5q24 -3 59 -3q85 0 121.5 36.5t59.5 136.5l35 -2l-8 -194q0 -17 -18 -17z" />
    <glyph glyph-name="Lslash.smcp" horiz-adv-x="519" 
d="M478 0h-435v43l73 3v193l-39 -18t-45 -20v57l84 39v180q0 20 -17 22l-80 3v42h264v-42l-78 -4v-160q6 3 79 35v-57l-79 -37v-216q0 -11 5.5 -15t18.5 -5q24 -3 59 -3q85 0 121.5 36.5t59.5 136.5l35 -2l-8 -194q0 -17 -18 -17z" />
    <glyph glyph-name="Lacute.smcp" horiz-adv-x="519" 
d="M478 0h-435v43l73 3v431q0 20 -17 22l-80 3v42h264v-42l-78 -4v-435q0 -11 5.5 -15t18.5 -5q24 -3 59 -3q85 0 121.5 36.5t59.5 136.5l35 -2l-8 -194q0 -17 -18 -17zM245 578l-14 16l108 139q13 13 31 13t31 -13t13 -31q0 -24 -20 -37z" />
    <glyph glyph-name="Lcaron.smcp" horiz-adv-x="519" 
d="M478 0h-435v43l73 3v431q0 20 -17 22l-80 3v42h264v-42l-78 -4v-435q0 -11 5.5 -15t18.5 -5q24 -3 59 -3q85 0 121.5 36.5t59.5 136.5l35 -2l-8 -194q0 -17 -18 -17zM342 328l-18 23q29 18 52 46.5t23 55.5q0 14 -5 14q-2 0 -8 -2.5t-13 -2.5q-17 0 -28 13t-11 31
q0 20 13 34.5t34 14.5q24 0 41 -21.5t17 -53.5q0 -84 -97 -152z" />
    <glyph glyph-name="uni013B.smcp" horiz-adv-x="519" 
d="M478 0h-435v43l73 3v431q0 20 -17 22l-80 3v42h264v-42l-78 -4v-435q0 -11 5.5 -15t18.5 -5q24 -3 59 -3q85 0 121.5 36.5t59.5 136.5l35 -2l-8 -194q0 -17 -18 -17zM248 -287l-18 23q29 18 52 46.5t23 55.5q0 14 -5 14q-2 0 -8 -2.5t-13 -2.5q-17 0 -28 13t-11 31
q0 20 13 34.5t34 14.5q24 0 41 -21.5t17 -53.5q0 -84 -97 -152z" />
    <glyph glyph-name="Ldot.smcp" horiz-adv-x="519" 
d="M478 0h-435v43l73 3v431q0 20 -17 22l-80 3v42h264v-42l-78 -4v-435q0 -11 5.5 -15t18.5 -5q24 -3 59 -3q85 0 121.5 36.5t59.5 136.5l35 -2l-8 -194q0 -17 -18 -17zM428 232q-26 0 -43.5 19t-17.5 47t18 47.5t43 19.5t43 -19.5t18 -47.5t-17.5 -47t-43.5 -19z" />
    <glyph glyph-name="M.smcp" horiz-adv-x="736" 
d="M715 0h-264v43l79 3v433l-161 -479h-38l-166 475v-316q0 -73 18.5 -91.5t93.5 -24.5v-43h-244v43q57 4 69.5 23t12.5 88v323q0 20 -17 22l-81 3v42h217l139 -387l132 387h186v-42l-72 -4v-432q0 -20 23 -20l73 -3v-43z" />
    <glyph glyph-name="N.smcp" horiz-adv-x="623" 
d="M522 -4h-38l-319 434v-271q0 -75 16.5 -92.5t89.5 -23.5v-43h-230v43q52 3 64 21.5t12 89.5v322q-17 23 -50 24l-44 2v42h167l284 -380v226q0 32 -3.5 51t-8 31t-20 18t-28.5 8t-44 4v42h230v-42q-55 -5 -66.5 -24t-11.5 -93v-389z" />
    <glyph glyph-name="Ntilde.smcp" horiz-adv-x="623" 
d="M522 -4h-38l-319 434v-271q0 -75 16.5 -92.5t89.5 -23.5v-43h-230v43q52 3 64 21.5t12 89.5v322q-17 23 -50 24l-44 2v42h167l284 -380v226q0 32 -3.5 51t-8 31t-20 18t-28.5 8t-44 4v42h230v-42q-55 -5 -66.5 -24t-11.5 -93v-389zM372 598q-25 0 -62 29.5t-57 29.5
q-41 0 -53 -46l-20 7q24 101 89 101q25 0 62 -29.5t57 -29.5q41 0 53 46l20 -7q-24 -101 -89 -101z" />
    <glyph glyph-name="Nacute.smcp" horiz-adv-x="623" 
d="M522 -4h-38l-319 434v-271q0 -75 16.5 -92.5t89.5 -23.5v-43h-230v43q52 3 64 21.5t12 89.5v322q-17 23 -50 24l-44 2v42h167l284 -380v226q0 32 -3.5 51t-8 31t-20 18t-28.5 8t-44 4v42h230v-42q-55 -5 -66.5 -24t-11.5 -93v-389zM264 578l-14 16l108 139q13 13 31 13
t31 -13t13 -31q0 -24 -20 -37z" />
    <glyph glyph-name="Ncaron.smcp" horiz-adv-x="623" 
d="M522 -4h-38l-319 434v-271q0 -75 16.5 -92.5t89.5 -23.5v-43h-230v43q52 3 64 21.5t12 89.5v322q-17 23 -50 24l-44 2v42h167l284 -380v226q0 32 -3.5 51t-8 31t-20 18t-28.5 8t-44 4v42h230v-42q-55 -5 -66.5 -24t-11.5 -93v-389zM346 595h-56q-10 0 -16 12l-85 135h27
l102 -89l102 89h28l-85 -135q-6 -12 -17 -12z" />
    <glyph glyph-name="uni0145.smcp" horiz-adv-x="623" 
d="M522 -4h-38l-319 434v-271q0 -75 16.5 -92.5t89.5 -23.5v-43h-230v43q52 3 64 21.5t12 89.5v322q-17 23 -50 24l-44 2v42h167l284 -380v226q0 32 -3.5 51t-8 31t-20 18t-28.5 8t-44 4v42h230v-42q-55 -5 -66.5 -24t-11.5 -93v-389zM279 -287l-18 23q29 18 52 46.5
t23 55.5q0 14 -5 14q-2 0 -8 -2.5t-13 -2.5q-17 0 -28 13t-11 31q0 20 13 34.5t34 14.5q24 0 41 -21.5t17 -53.5q0 -84 -97 -152z" />
    <glyph glyph-name="Eng.smcp" horiz-adv-x="623" 
d="M522 385v-441q0 -69 -38.5 -105t-96.5 -36q-45 0 -72 22.5t-27 58.5q0 29 17 44t39 15q26 0 41 -16.5t15 -37.5q0 -7 -2.5 -13.5t-2.5 -11.5q0 -11 17 -11q9 0 22 6.5t26.5 28.5t13.5 56v65l-309 421v-271q0 -75 16.5 -92.5t89.5 -23.5v-43h-230v43q52 3 64 21.5t12 89.5
v322q-17 23 -50 24l-44 2v42h167l284 -380v226q0 32 -3.5 51t-8 31t-20 18t-28.5 8t-44 4v42h230v-42q-55 -5 -66.5 -24t-11.5 -93z" />
    <glyph glyph-name="O.smcp" horiz-adv-x="576" 
d="M288 -13q-107 0 -182.5 82t-75.5 199q0 116 75.5 198.5t182.5 82.5q106 0 182 -83t76 -198q0 -117 -75.5 -199t-182.5 -82zM287 26q155 0 155 242t-155 242q-153 0 -153 -242t153 -242z" />
    <glyph glyph-name="Oacute.smcp" horiz-adv-x="576" 
d="M288 -13q-107 0 -182.5 82t-75.5 199q0 116 75.5 198.5t182.5 82.5q106 0 182 -83t76 -198q0 -117 -75.5 -199t-182.5 -82zM287 26q155 0 155 242t-155 242q-153 0 -153 -242t153 -242zM232 578l-14 16l108 139q13 13 31 13t31 -13t13 -31q0 -24 -20 -37z" />
    <glyph glyph-name="Ograve.smcp" horiz-adv-x="576" 
d="M288 -13q-107 0 -182.5 82t-75.5 199q0 116 75.5 198.5t182.5 82.5q106 0 182 -83t76 -198q0 -117 -75.5 -199t-182.5 -82zM287 26q155 0 155 242t-155 242q-153 0 -153 -242t153 -242zM337 578l-149 87q-20 13 -20 37q0 18 13 31t31 13t31 -13l108 -139z" />
    <glyph glyph-name="Ocircumflex.smcp" horiz-adv-x="576" 
d="M288 -13q-107 0 -182.5 82t-75.5 199q0 116 75.5 198.5t182.5 82.5q106 0 182 -83t76 -198q0 -117 -75.5 -199t-182.5 -82zM287 26q155 0 155 242t-155 242q-153 0 -153 -242t153 -242zM397 579l-110 104l-110 -104l-20 15l85 143q6 12 17 12h56q10 0 16 -12l85 -143z
" />
    <glyph glyph-name="Odieresis.smcp" horiz-adv-x="576" 
d="M288 -13q-107 0 -182.5 82t-75.5 199q0 116 75.5 198.5t182.5 82.5q106 0 182 -83t76 -198q0 -117 -75.5 -199t-182.5 -82zM287 26q155 0 155 242t-155 242q-153 0 -153 -242t153 -242zM203 599q-21 0 -36 16t-15 39t15 39t36 16t36 -16t15 -39t-15 -39t-36 -16zM367 599
q-21 0 -36 16t-15 39t15 39t36 16t36 -16t15 -39t-15 -39t-36 -16z" />
    <glyph glyph-name="Otilde.smcp" horiz-adv-x="576" 
d="M288 -13q-107 0 -182.5 82t-75.5 199q0 116 75.5 198.5t182.5 82.5q106 0 182 -83t76 -198q0 -117 -75.5 -199t-182.5 -82zM287 26q155 0 155 242t-155 242q-153 0 -153 -242t153 -242zM340 598q-25 0 -62 29.5t-57 29.5q-41 0 -53 -46l-20 7q24 101 89 101
q25 0 62 -29.5t57 -29.5q41 0 53 46l20 -7q-24 -101 -89 -101z" />
    <glyph glyph-name="Obreve.smcp" horiz-adv-x="576" 
d="M288 -13q-107 0 -182.5 82t-75.5 199q0 116 75.5 198.5t182.5 82.5q106 0 182 -83t76 -198q0 -117 -75.5 -199t-182.5 -82zM287 26q155 0 155 242t-155 242q-153 0 -153 -242t153 -242zM287 598q-95 0 -132 101l19 7q30 -46 97 -46h32q69 0 97 46l19 -7
q-37 -101 -132 -101z" />
    <glyph glyph-name="Omacron.smcp" horiz-adv-x="576" 
d="M288 -13q-107 0 -182.5 82t-75.5 199q0 116 75.5 198.5t182.5 82.5q106 0 182 -83t76 -198q0 -117 -75.5 -199t-182.5 -82zM287 26q155 0 155 242t-155 242q-153 0 -153 -242t153 -242zM407 621h-244v62h244v-62z" />
    <glyph glyph-name="Ohungarumlaut.smcp" horiz-adv-x="576" 
d="M288 -13q-107 0 -182.5 82t-75.5 199q0 116 75.5 198.5t182.5 82.5q106 0 182 -83t76 -198q0 -117 -75.5 -199t-182.5 -82zM287 26q155 0 155 242t-155 242q-153 0 -153 -242t153 -242zM245 578l-16 7l38 140q8 22 34 22q14 0 24.5 -10t10.5 -25q0 -12 -6 -21zM355 578
l-16 7l38 140q8 22 34 22q14 0 24.5 -10t10.5 -25q0 -12 -6 -21z" />
    <glyph glyph-name="Oslash.smcp" horiz-adv-x="576" 
d="M288 -13q-80 0 -145 46l-49 -67l-35 21l54 74q-83 85 -83 207q0 116 75.5 198.5t182.5 82.5q79 0 145 -48l50 70l32 -22l-54 -75q85 -85 85 -206q0 -117 -75.5 -199t-182.5 -82zM156 121l243 334q-42 55 -112 55q-154 0 -154 -242q0 -90 23 -147zM287 26q154 0 154 242
q0 88 -23 146l-243 -334q41 -54 112 -54z" />
    <glyph glyph-name="Oslashacute.smcp" horiz-adv-x="576" 
d="M288 -13q-80 0 -145 46l-49 -67l-35 21l54 74q-83 85 -83 207q0 116 75.5 198.5t182.5 82.5q79 0 145 -48l50 70l32 -22l-54 -75q85 -85 85 -206q0 -117 -75.5 -199t-182.5 -82zM156 121l243 334q-42 55 -112 55q-154 0 -154 -242q0 -90 23 -147zM287 26q154 0 154 242
q0 88 -23 146l-243 -334q41 -54 112 -54zM260 578l-14 16l108 139q13 13 31 13t31 -13t13 -31q0 -24 -20 -37z" />
    <glyph glyph-name="OE.smcp" horiz-adv-x="884" 
d="M808 0h-362q-17 0 -50 -5q-56 -8 -108 -8q-107 0 -182.5 82t-75.5 199q0 116 75.5 198.5t182.5 82.5q24 0 111 -3q38 -2 47 -2h357l22 -193l-36 -2q-18 93 -57.5 124.5t-114.5 31.5q-62 0 -87 -2v-200h1q63 0 87 21t32 83h39v-258h-41q-6 70 -28 90.5t-83 20.5h-7v-197
q0 -11 5.5 -15t18.5 -5q24 -3 59 -3q86 0 124.5 37t61.5 136l35 -2l-8 -194q0 -17 -18 -17zM305 26q36 0 57 4.5t41 18.5t29 45t9 81v180q0 52 -9 84t-29 47t-41 19.5t-57 4.5q-82 0 -127 -65.5t-45 -176.5t45 -176.5t127 -65.5z" />
    <glyph glyph-name="P.smcp" horiz-adv-x="526" 
d="M307 0h-263v43l72 3v431q0 20 -17 22l-79 3v42h271q94 0 154.5 -38t60.5 -112q0 -79 -60 -116t-155 -37h-86v-175q0 -20 23 -20l79 -3v-43zM282 282q65 0 96.5 20t31.5 89q0 36 -10.5 60t-30 35t-38 14.5t-44.5 3.5l-82 -1v-221h77z" />
    <glyph glyph-name="Q.smcp" horiz-adv-x="576" 
d="M591 -132h-109q-60 0 -90.5 29.5t-31.5 100.5q-36 -11 -72 -11q-107 0 -182.5 82t-75.5 199q0 116 75.5 198.5t182.5 82.5q106 0 182 -83t76 -198q0 -70 -31 -132t-83 -101q39 -103 66 -114q19 -8 93 -8v-45zM282 201q45 0 74 -26.5t54 -84.5q31 56 31 178
q0 242 -154 242t-154 -242q0 -119 41 -184l-1 13q0 44 29.5 74t79.5 30zM287 25q40 0 72 15q-5 122 -75 122q-34 0 -54.5 -19.5t-20.5 -47.5q0 -68 78 -70z" />
    <glyph glyph-name="R.smcp" horiz-adv-x="567" 
d="M466 -7q-48 0 -74 32t-30 116q-2 40 -12 65.5t-28.5 37t-37 15t-45.5 3.5h-35v-196q0 -20 23 -20l76 -3v-43h-262v43l74 3v431q0 20 -17 22l-81 3v42h273q209 0 209 -140q0 -49 -42 -86.5t-103 -44.5q71 -22 95 -122q24 -99 46 -99q12 0 19 20.5t7 52.5h36
q0 -132 -91 -132zM272 303q22 0 35.5 1t33.5 6t31.5 15t20 29t8.5 47q0 61 -26.5 82t-88.5 21l-82 -1v-200h68z" />
    <glyph glyph-name="Racute.smcp" horiz-adv-x="567" 
d="M466 -7q-48 0 -74 32t-30 116q-2 40 -12 65.5t-28.5 37t-37 15t-45.5 3.5h-35v-196q0 -20 23 -20l76 -3v-43h-262v43l74 3v431q0 20 -17 22l-81 3v42h273q209 0 209 -140q0 -49 -42 -86.5t-103 -44.5q71 -22 95 -122q24 -99 46 -99q12 0 19 20.5t7 52.5h36
q0 -132 -91 -132zM272 303q22 0 35.5 1t33.5 6t31.5 15t20 29t8.5 47q0 61 -26.5 82t-88.5 21l-82 -1v-200h68zM235 578l-14 16l108 139q13 13 31 13t31 -13t13 -31q0 -24 -20 -37z" />
    <glyph glyph-name="Rcaron.smcp" horiz-adv-x="567" 
d="M466 -7q-48 0 -74 32t-30 116q-2 40 -12 65.5t-28.5 37t-37 15t-45.5 3.5h-35v-196q0 -20 23 -20l76 -3v-43h-262v43l74 3v431q0 20 -17 22l-81 3v42h273q209 0 209 -140q0 -49 -42 -86.5t-103 -44.5q71 -22 95 -122q24 -99 46 -99q12 0 19 20.5t7 52.5h36
q0 -132 -91 -132zM272 303q22 0 35.5 1t33.5 6t31.5 15t20 29t8.5 47q0 61 -26.5 82t-88.5 21l-82 -1v-200h68zM317 595h-56q-10 0 -16 12l-85 135h27l102 -89l102 89h28l-85 -135q-6 -12 -17 -12z" />
    <glyph glyph-name="uni0156.smcp" horiz-adv-x="567" 
d="M466 -7q-48 0 -74 32t-30 116q-2 40 -12 65.5t-28.5 37t-37 15t-45.5 3.5h-35v-196q0 -20 23 -20l76 -3v-43h-262v43l74 3v431q0 20 -17 22l-81 3v42h273q209 0 209 -140q0 -49 -42 -86.5t-103 -44.5q71 -22 95 -122q24 -99 46 -99q12 0 19 20.5t7 52.5h36
q0 -132 -91 -132zM272 303q22 0 35.5 1t33.5 6t31.5 15t20 29t8.5 47q0 61 -26.5 82t-88.5 21l-82 -1v-200h68zM251 -287l-18 23q29 18 52 46.5t23 55.5q0 14 -5 14q-1 0 -7 -2.5t-14 -2.5q-17 0 -28 13t-11 31q0 20 13 34.5t34 14.5q24 0 41 -21.5t17 -53.5q0 -84 -97 -152
z" />
    <glyph glyph-name="S.smcp" horiz-adv-x="475" 
d="M254 332q36 -8 58.5 -13.5t52 -19t46 -30t28.5 -44.5t12 -65q0 -78 -54.5 -125.5t-131.5 -47.5q-44 0 -87.5 16.5t-66.5 36.5q-24 -45 -25 -47h-32l-22 219l38 2q12 -76 67 -130.5t122 -54.5q58 0 90.5 28t32.5 67q0 21 -9 37.5t-20.5 26.5t-35.5 18.5t-39 12.5t-46 10
q-35 8 -55 13.5t-49 18t-44.5 28t-27 42t-11.5 61.5q0 66 45.5 114t124.5 48t136 -45q8 13 26 40h33l22 -199l-37 -5q-19 72 -67 121t-114 49q-49 0 -76.5 -26t-27.5 -61q0 -19 8.5 -34t19.5 -24t33.5 -17t37.5 -11.5t45 -9.5z" />
    <glyph glyph-name="Scaron.smcp" horiz-adv-x="475" 
d="M254 332q36 -8 58.5 -13.5t52 -19t46 -30t28.5 -44.5t12 -65q0 -78 -54.5 -125.5t-131.5 -47.5q-44 0 -87.5 16.5t-66.5 36.5q-24 -45 -25 -47h-32l-22 219l38 2q12 -76 67 -130.5t122 -54.5q58 0 90.5 28t32.5 67q0 21 -9 37.5t-20.5 26.5t-35.5 18.5t-39 12.5t-46 10
q-35 8 -55 13.5t-49 18t-44.5 28t-27 42t-11.5 61.5q0 66 45.5 114t124.5 48t136 -45q8 13 26 40h33l22 -199l-37 -5q-19 72 -67 121t-114 49q-49 0 -76.5 -26t-27.5 -61q0 -19 8.5 -34t19.5 -24t33.5 -17t37.5 -11.5t45 -9.5zM258 595h-56q-10 0 -16 12l-85 135h27l102 -89
l102 89h28l-85 -135q-6 -12 -17 -12z" />
    <glyph glyph-name="Sacute.smcp" horiz-adv-x="475" 
d="M254 332q36 -8 58.5 -13.5t52 -19t46 -30t28.5 -44.5t12 -65q0 -78 -54.5 -125.5t-131.5 -47.5q-44 0 -87.5 16.5t-66.5 36.5q-24 -45 -25 -47h-32l-22 219l38 2q12 -76 67 -130.5t122 -54.5q58 0 90.5 28t32.5 67q0 21 -9 37.5t-20.5 26.5t-35.5 18.5t-39 12.5t-46 10
q-35 8 -55 13.5t-49 18t-44.5 28t-27 42t-11.5 61.5q0 66 45.5 114t124.5 48t136 -45q8 13 26 40h33l22 -199l-37 -5q-19 72 -67 121t-114 49q-49 0 -76.5 -26t-27.5 -61q0 -19 8.5 -34t19.5 -24t33.5 -17t37.5 -11.5t45 -9.5zM199 578l-14 16l108 139q13 13 31 13t31 -13
t13 -31q0 -24 -20 -37z" />
    <glyph glyph-name="Scircumflex.smcp" horiz-adv-x="475" 
d="M254 332q36 -8 58.5 -13.5t52 -19t46 -30t28.5 -44.5t12 -65q0 -78 -54.5 -125.5t-131.5 -47.5q-44 0 -87.5 16.5t-66.5 36.5q-24 -45 -25 -47h-32l-22 219l38 2q12 -76 67 -130.5t122 -54.5q58 0 90.5 28t32.5 67q0 21 -9 37.5t-20.5 26.5t-35.5 18.5t-39 12.5t-46 10
q-35 8 -55 13.5t-49 18t-44.5 28t-27 42t-11.5 61.5q0 66 45.5 114t124.5 48t136 -45q8 13 26 40h33l22 -199l-37 -5q-19 72 -67 121t-114 49q-49 0 -76.5 -26t-27.5 -61q0 -19 8.5 -34t19.5 -24t33.5 -17t37.5 -11.5t45 -9.5zM342 579l-110 104l-110 -104l-20 15l85 143
q6 12 17 12h56q10 0 16 -12l85 -143z" />
    <glyph glyph-name="uni015E.smcp" horiz-adv-x="475" 
d="M243 -201q-67 0 -133 48l7 13q34 -15 54 -19.5t54 -4.5q35 0 54.5 12.5t19.5 30.5q0 31 -38 31q-22 0 -35 -10l-13 6v87q-66 15 -102 47l-25 -47h-32l-22 219l38 2q12 -76 67 -130.5t122 -54.5q58 0 90.5 28t32.5 67q0 21 -9 37.5t-20.5 26.5t-35.5 18.5t-39 12.5t-46 10
q-35 8 -55 13.5t-49 18t-44.5 28t-27 42t-11.5 61.5q0 66 45.5 114t124.5 48t136 -45l26 40h33l22 -199l-37 -5q-19 72 -67 121t-114 49q-49 0 -76.5 -26t-27.5 -61q0 -19 8.5 -34t19.5 -24t33.5 -17t37.5 -11.5t45 -9.5q36 -8 58.5 -13.5t52 -19t46 -30t28.5 -44.5t12 -65
q0 -78 -54.5 -125.5t-131.5 -47.5q-4 0 -10.5 0.5t-9.5 0.5v-58q21 7 41 7q34 0 55.5 -18.5t21.5 -43.5q0 -30 -32 -53t-88 -23z" />
    <glyph glyph-name="uni0218.smcp" horiz-adv-x="475" 
d="M254 332q36 -8 58.5 -13.5t52 -19t46 -30t28.5 -44.5t12 -65q0 -78 -54.5 -125.5t-131.5 -47.5q-44 0 -87.5 16.5t-66.5 36.5q-24 -45 -25 -47h-32l-22 219l38 2q12 -76 67 -130.5t122 -54.5q58 0 90.5 28t32.5 67q0 21 -9 37.5t-20.5 26.5t-35.5 18.5t-39 12.5t-46 10
q-35 8 -55 13.5t-49 18t-44.5 28t-27 42t-11.5 61.5q0 66 45.5 114t124.5 48t136 -45q8 13 26 40h33l22 -199l-37 -5q-19 72 -67 121t-114 49q-49 0 -76.5 -26t-27.5 -61q0 -19 8.5 -34t19.5 -24t33.5 -17t37.5 -11.5t45 -9.5zM206 -287l-18 23q29 18 52 46.5t23 55.5
q0 14 -5 14q-2 0 -8 -2.5t-13 -2.5q-17 0 -28 13t-11 31q0 20 13 34.5t34 14.5q24 0 41 -21.5t17 -53.5q0 -84 -97 -152z" />
    <glyph glyph-name="T.smcp" horiz-adv-x="514" 
d="M407 0h-273v43l79 3v436q0 16 -6.5 21t-20.5 5q-114 0 -135 -175l-36 2l12 231h30q11 -22 27 -22h346q15 0 28 22h29l12 -231l-36 -2q-20 175 -134 175q-14 0 -20.5 -5t-6.5 -21v-411q0 -11 9 -18t21 -7l75 -3v-43z" />
    <glyph glyph-name="Tbar.smcp" horiz-adv-x="514" 
d="M407 0h-273v43l79 3v213h-79v49h79v174q0 16 -6.5 21t-20.5 5q-114 0 -135 -175l-36 2l12 231h30q11 -22 27 -22h346q15 0 28 22h29l12 -231l-36 -2q-20 175 -134 175q-14 0 -20.5 -5t-6.5 -21v-174h79v-49h-79v-188q0 -11 9 -18t21 -7l75 -3v-43z" />
    <glyph glyph-name="Tcaron.smcp" horiz-adv-x="514" 
d="M407 0h-273v43l79 3v436q0 16 -6.5 21t-20.5 5q-114 0 -135 -175l-36 2l12 231h30q11 -22 27 -22h346q15 0 28 22h29l12 -231l-36 -2q-20 175 -134 175q-14 0 -20.5 -5t-6.5 -21v-411q0 -11 9 -18t21 -7l75 -3v-43zM286 595h-56q-10 0 -16 12l-85 135h27l102 -89l102 89
h28l-85 -135q-6 -12 -17 -12z" />
    <glyph glyph-name="Tcommaaccent.smcp" horiz-adv-x="514" 
d="M246 0h-112v43l79 3v436q0 16 -6.5 21t-20.5 5q-114 0 -135 -175l-36 2l12 231h30q11 -22 27 -22h346q15 0 28 22h29l12 -231l-36 -2q-20 175 -134 175q-14 0 -20.5 -5t-6.5 -21v-411q0 -11 9 -18t21 -7l75 -3v-43h-129v-70q21 7 41 7q34 0 55.5 -18.5t21.5 -43.5
q0 -30 -32 -53t-88 -23q-67 0 -133 48l7 13q34 -15 54 -19.5t54 -4.5q35 0 54.5 12.5t19.5 30.5q0 31 -38 31q-22 0 -35 -10l-13 6v94z" />
    <glyph glyph-name="uni021A.smcp" horiz-adv-x="514" 
d="M407 0h-273v43l79 3v436q0 16 -6.5 21t-20.5 5q-114 0 -135 -175l-36 2l12 231h30q11 -22 27 -22h346q15 0 28 22h29l12 -231l-36 -2q-20 175 -134 175q-14 0 -20.5 -5t-6.5 -21v-411q0 -11 9 -18t21 -7l75 -3v-43zM220 -287l-18 23q29 18 52 46.5t23 55.5q0 14 -5 14
q-2 0 -8 -2.5t-13 -2.5q-17 0 -28 13t-11 31q0 20 13 34.5t34 14.5q24 0 41 -21.5t17 -53.5q0 -84 -97 -152z" />
    <glyph glyph-name="U.smcp" horiz-adv-x="628" 
d="M313 -14q-211 0 -211 191v300q0 20 -17 22l-75 3v42h256v-42l-75 -4v-303q0 -71 33 -116.5t105 -45.5q77 0 111.5 44.5t34.5 139.5v189q0 62 -21.5 79t-81.5 17v42h222v-42q-42 0 -55.5 -16t-13.5 -64v-203q0 -35 -4 -64t-17 -62t-35 -55t-62 -37t-94 -15z" />
    <glyph glyph-name="Uacute.smcp" horiz-adv-x="628" 
d="M313 -14q-211 0 -211 191v300q0 20 -17 22l-75 3v42h256v-42l-75 -4v-303q0 -71 33 -116.5t105 -45.5q77 0 111.5 44.5t34.5 139.5v189q0 62 -21.5 79t-81.5 17v42h222v-42q-42 0 -55.5 -16t-13.5 -64v-203q0 -35 -4 -64t-17 -62t-35 -55t-62 -37t-94 -15zM281 578
l-14 16l108 139q13 13 31 13t31 -13t13 -31q0 -24 -20 -37z" />
    <glyph glyph-name="Ugrave.smcp" horiz-adv-x="628" 
d="M313 -14q-211 0 -211 191v300q0 20 -17 22l-75 3v42h256v-42l-75 -4v-303q0 -71 33 -116.5t105 -45.5q77 0 111.5 44.5t34.5 139.5v189q0 62 -21.5 79t-81.5 17v42h222v-42q-42 0 -55.5 -16t-13.5 -64v-203q0 -35 -4 -64t-17 -62t-35 -55t-62 -37t-94 -15zM386 578
l-149 87q-20 13 -20 37q0 18 13 31t31 13t31 -13l108 -139z" />
    <glyph glyph-name="Ucircumflex.smcp" horiz-adv-x="628" 
d="M313 -14q-211 0 -211 191v300q0 20 -17 22l-75 3v42h256v-42l-75 -4v-303q0 -71 33 -116.5t105 -45.5q77 0 111.5 44.5t34.5 139.5v189q0 62 -21.5 79t-81.5 17v42h222v-42q-42 0 -55.5 -16t-13.5 -64v-203q0 -35 -4 -64t-17 -62t-35 -55t-62 -37t-94 -15zM446 579
l-110 104l-110 -104l-20 15l85 143q6 12 17 12h56q10 0 16 -12l85 -143z" />
    <glyph glyph-name="Udieresis.smcp" horiz-adv-x="628" 
d="M313 -14q-211 0 -211 191v300q0 20 -17 22l-75 3v42h256v-42l-75 -4v-303q0 -71 33 -116.5t105 -45.5q77 0 111.5 44.5t34.5 139.5v189q0 62 -21.5 79t-81.5 17v42h222v-42q-42 0 -55.5 -16t-13.5 -64v-203q0 -35 -4 -64t-17 -62t-35 -55t-62 -37t-94 -15zM252 599
q-21 0 -36 16t-15 39t15 39t36 16t36 -16t15 -39t-15 -39t-36 -16zM416 599q-21 0 -36 16t-15 39t15 39t36 16t36 -16t15 -39t-15 -39t-36 -16z" />
    <glyph glyph-name="Utilde.smcp" horiz-adv-x="628" 
d="M313 -14q-211 0 -211 191v300q0 20 -17 22l-75 3v42h256v-42l-75 -4v-303q0 -71 33 -116.5t105 -45.5q77 0 111.5 44.5t34.5 139.5v189q0 62 -21.5 79t-81.5 17v42h222v-42q-42 0 -55.5 -16t-13.5 -64v-203q0 -35 -4 -64t-17 -62t-35 -55t-62 -37t-94 -15zM389 598
q-25 0 -62 29.5t-57 29.5q-41 0 -53 -46l-20 7q24 101 89 101q25 0 62 -29.5t57 -29.5q41 0 53 46l20 -7q-24 -101 -89 -101z" />
    <glyph glyph-name="Uring.smcp" horiz-adv-x="628" 
d="M313 -14q-211 0 -211 191v300q0 20 -17 22l-75 3v42h256v-42l-75 -4v-303q0 -71 33 -116.5t105 -45.5q77 0 111.5 44.5t34.5 139.5v189q0 62 -21.5 79t-81.5 17v42h222v-42q-42 0 -55.5 -16t-13.5 -64v-203q0 -35 -4 -64t-17 -62t-35 -55t-62 -37t-94 -15zM337 588
q-42 0 -72 30t-30 72t30 72t72 30t72 -30t30 -72t-30 -72t-72 -30zM337 616q31 0 52.5 21.5t21.5 52.5t-21.5 52.5t-52.5 21.5t-52.5 -21.5t-21.5 -52.5t21.5 -52.5t52.5 -21.5z" />
    <glyph glyph-name="Ubreve.smcp" horiz-adv-x="628" 
d="M313 -14q-211 0 -211 191v300q0 20 -17 22l-75 3v42h256v-42l-75 -4v-303q0 -71 33 -116.5t105 -45.5q77 0 111.5 44.5t34.5 139.5v189q0 62 -21.5 79t-81.5 17v42h222v-42q-42 0 -55.5 -16t-13.5 -64v-203q0 -35 -4 -64t-17 -62t-35 -55t-62 -37t-94 -15zM336 598
q-95 0 -132 101l19 7q30 -46 97 -46h32q69 0 97 46l19 -7q-37 -101 -132 -101z" />
    <glyph glyph-name="Umacron.smcp" horiz-adv-x="628" 
d="M313 -14q-211 0 -211 191v300q0 20 -17 22l-75 3v42h256v-42l-75 -4v-303q0 -71 33 -116.5t105 -45.5q77 0 111.5 44.5t34.5 139.5v189q0 62 -21.5 79t-81.5 17v42h222v-42q-42 0 -55.5 -16t-13.5 -64v-203q0 -35 -4 -64t-17 -62t-35 -55t-62 -37t-94 -15zM456 621h-244
v62h244v-62z" />
    <glyph glyph-name="Uhungarumlaut.smcp" horiz-adv-x="628" 
d="M313 -14q-211 0 -211 191v300q0 20 -17 22l-75 3v42h256v-42l-75 -4v-303q0 -71 33 -116.5t105 -45.5q77 0 111.5 44.5t34.5 139.5v189q0 62 -21.5 79t-81.5 17v42h222v-42q-42 0 -55.5 -16t-13.5 -64v-203q0 -35 -4 -64t-17 -62t-35 -55t-62 -37t-94 -15zM280 578l-16 7
l38 140q8 22 34 22q14 0 24.5 -10t10.5 -25q0 -12 -6 -21zM390 578l-16 7l38 140q8 22 34 22q14 0 24.5 -10t10.5 -25q0 -12 -6 -21z" />
    <glyph glyph-name="Uogonek.smcp" horiz-adv-x="628" 
d="M389 -235q-39 0 -67 28t-28 64q0 64 84 135q-28 -6 -65 -6q-211 0 -211 191v300q0 20 -17 22l-75 3v42h256v-42l-75 -4v-303q0 -71 33 -116.5t105 -45.5q77 0 111.5 44.5t34.5 139.5v189q0 62 -21.5 79t-81.5 17v42h222v-42q-42 0 -55.5 -16t-13.5 -64v-203
q0 -70 -19.5 -123t-75.5 -90q-39 -25 -57 -52t-18 -66q0 -26 19.5 -42t44.5 -16q8 0 15 1t11 2t10.5 4.5t9 4.5t11 7l11.5 8l10 -10q-39 -82 -108 -82z" />
    </font>
</defs>
</svg>
