<?xml version="1.0" standalone="no"?>
<!DOCTYPE svg PUBLIC "-//W3C//DTD SVG 1.1//EN" "http://www.w3.org/Graphics/SVG/1.1/DTD/svg11.dtd">
<svg xmlns="http://www.w3.org/2000/svg"><metadata>This SVG WebFont was generated by YouWorkForThem.
Copyright  2007-2011 Canada Type. All rights reserved.</metadata><defs><font horiz-adv-x="1179" id="ywftsvg"><font-face ascent="1731" bbox="-123 -717 3074 2474" cap-height="1696" descent="-317" font-family="" font-stretch="normal" font-weight="400" panose-1="2 0 5 6 0 0 0 2 0 4" underline-position="0" underline-thickness="0" unicode-range="U+0020-FB04" units-per-em="2048" x-height="1696"/><missing-glyph d="M1282 0h-1128v1622h1128v-1622zM1034 240v1142h-633v-1142h633z" horiz-adv-x="1435"/><glyph d="M797 733h-332v-733h-342v1696h686v-283h-344v-397h332v-283zM1647 733h-332v-733h-342v1696h686v-283h-344v-397h332v-283z" glyph-name="uniFB00" horiz-adv-x="1699" unicode="FF"/><glyph d="M797 733h-332v-733h-342v1696h686v-283h-344v-397h332v-283zM973 0v1696h342v-1696h-342z" glyph-name="uniFB01" horiz-adv-x="1437" unicode="FI"/><glyph d="M797 733h-332v-733h-342v1696h686v-283h-344v-397h332v-283zM973 0v1696h342v-1413h368v-283h-710z" glyph-name="uniFB02" horiz-adv-x="1703" unicode="FL"/><glyph d="M797 733h-332v-733h-342v1696h686v-283h-344v-397h332v-283zM1647 733h-332v-733h-342v1696h686v-283h-344v-397h332v-283zM1823 0v1696h342v-1696h-342z" glyph-name="uniFB03" horiz-adv-x="2287" unicode="FFI"/><glyph d="M797 733h-332v-733h-342v1696h686v-283h-344v-397h332v-283zM1647 733h-332v-733h-342v1696h686v-283h-344v-397h332v-283zM1823 0v1696h342v-1413h368v-283h-710z" glyph-name="uniFB04" horiz-adv-x="2553" unicode="FFL"/><glyph d="M1442 0h-342v1413h-635v-397h332v-283h-332v-733h-342v1696h1550v-283h-231v-1413z" glyph-name="F_T.liga" horiz-adv-x="1693" unicode="FT"/><glyph d="M2388 0h-342v1413h-502v-1413h-342v1413h-737v-397h403v-283h-403v-450h416v-283h-758v1696h2496v-283h-231v-1413z" glyph-name="E_T_T.liga" horiz-adv-x="2639" unicode="ETT"/><glyph d="M1436 0h-342v1413h-502v-1413h-342v1413h-230v283h1647v-283h-231v-1413z" glyph-name="T_T.liga" horiz-adv-x="1687" unicode="TT"/><glyph d="M1544 0h-342v1413h-737v-397h403v-283h-403v-450h416v-283h-758v1696h1653v-283h-232v-1413z" glyph-name="E_T.liga" horiz-adv-x="1796" unicode="ET"/><glyph d="M1282 0h-1128v1622h1128v-1622zM1034 240v1142h-633v-1142h633z" glyph-name=".notdef" horiz-adv-x="1435"/><glyph glyph-name="glyph1" horiz-adv-x="0"/><glyph glyph-name="glyph2" horiz-adv-x="681"/><glyph glyph-name="space" horiz-adv-x="471" unicode=" "/><glyph d="M412 471h-295l-35 1225h364zM94 0v352h342v-352h-342z" glyph-name="exclam" horiz-adv-x="528" unicode="!"/><glyph d="M301 1128h-219l-41 568h301zM657 1128h-219l-41 568h301z" glyph-name="quotedbl" horiz-adv-x="739" unicode="&quot;"/><glyph d="M1100 0h-506l-164 1329v-1329h-307v1696h514l156 -1260v1260h307v-1696zM2154 1239v-412q0 -328 -436 -327.5t-436 327.5v412q0 168 109.5 259t325.5 91t326.5 -91t110.5 -259zM1624 1184v-277q0 -63 18.5 -94t76.5 -31t75.5 30t17.5 93v277q0 63 -18 94t-76 31t-76 -30 t-18 -93zM1380 102v283h678v-283h-678z" glyph-name="numbersign" horiz-adv-x="2226" unicode="#"/><glyph d="M442 -156v129q-168 20 -259 101.5t-91 218.5v323h342v-245q0 -55 36 -89t98 -34t99.5 34.5t37.5 90.5v139q0 76 -63.5 130t-154 93t-179.5 85t-152.5 132t-63.5 207v221q0 139 92 228.5t258 113.5v119h252v-121q164 -25 258.5 -113.5t94.5 -226.5v-247h-342v190 q0 55 -37.5 90t-99.5 35t-98 -34t-36 -89v-100q0 -70 45 -118t114 -72.5t147.5 -60.5t147 -78t114 -128t45.5 -207v-268q0 -137 -93.5 -218t-259.5 -102v-129h-252z" glyph-name="dollar" horiz-adv-x="1138" unicode="$"/><glyph d="M616 0l750 1696h240l-750 -1696h-240zM2150 719v-412q0 -170 -90 -248.5t-304 -78.5t-305 79.5t-91 247.5v412q0 172 91 261t302 89t304 -89t93 -261zM1661 664v-277q0 -63 18.5 -94t76.5 -31t75.5 30t17.5 93v277q0 63 -18.5 93.5t-76.5 30.5t-75.5 -29.5t-17.5 -92.5z M862 1366v-412q0 -170 -90 -248.5t-304 -78.5t-305 79.5t-91 247.5v412q0 172 91 261t302 89t304 -89t93 -261zM373 1311v-277q0 -63 18.5 -94t76.5 -31t75.5 30t17.5 93v277q0 63 -18.5 94t-76.5 31t-75.5 -30t-17.5 -93z" glyph-name="percent" horiz-adv-x="2222" unicode="%"/><glyph d="M725 1102v223q0 55 -36 89t-98 34t-99 -35t-37 -90v-168q0 -53 35.5 -88t99.5 -35h117v-278h-115q-63 0 -100 -36t-37 -89v-258q0 -55 35.5 -89t97.5 -34t99.5 34.5t37.5 90.5v346l438 256l142 -244l-238 -139v-299q0 -162 -127 -245t-351 -83t-350 83t-126 245v319 q0 207 211 285q-211 78 -211 287v196q0 164 129 257.5t349 93.5t348 -93.5t128 -257.5v-278h-342z" glyph-name="ampersand" horiz-adv-x="1304" unicode="&amp;"/><glyph d="M301 1128h-219l-41 568h301z" glyph-name="quotesingle" horiz-adv-x="382" unicode="'"/><glyph d="M414 1366v-1034q0 -55 36.5 -90t98.5 -35v-242q-436 0 -436 328v1087q0 168 109.5 259.5t324.5 91.5v-242q-61 0 -97 -34t-36 -89z" glyph-name="parenleft" horiz-adv-x="589" unicode="("/><glyph d="M176 332v1034q0 55 -36 89t-97 34v242q215 0 324.5 -91.5t109.5 -259.5v-1087q0 -328 -436 -328v242q61 0 98 35t37 90z" glyph-name="parenright" horiz-adv-x="589" unicode=")"/><glyph d="M270 1731h150v-195l176 59l53 -139l-176 -72l111 -157l-117 -90l-123 159l-115 -159l-125 90l111 162l-180 67l53 139l182 -59v195z" glyph-name="asterisk" horiz-adv-x="686" unicode="*"/><glyph d="M377 1325h282v-336h336v-282h-336v-336h-282v336h-336v282h336v336z" glyph-name="plus" horiz-adv-x="1036" unicode="+"/><glyph d="M403 352v-352l-342 -246l150 246h-150v352h342z" glyph-name="comma" horiz-adv-x="464" unicode=","/><glyph d="M41 707v282h678v-282h-678z" glyph-name="hyphen" horiz-adv-x="759" unicode="-"/><glyph d="M61 0v352h342v-352h-342z" glyph-name="period" horiz-adv-x="464" unicode="."/><glyph d="M4 0l340 1696h240l-340 -1696h-240z" glyph-name="slash" horiz-adv-x="581" unicode="/"/><glyph d="M1067 1380v-1087q0 -162 -126 -245t-350 -83t-351 83t-127 245v1087q0 164 128 257.5t348 93.5t349 -93.5t129 -257.5zM455 1325v-952q0 -55 36.5 -90t98.5 -35t98.5 33.5t36.5 89.5v952q0 55 -37 90t-99 35t-98 -34t-36 -89z" glyph-name="zero" unicode="0"/><glyph d="M123 0v1696h342v-1696h-342z" glyph-name="one" horiz-adv-x="587" unicode="1"/><glyph d="M113 0v397q0 121 44 209t108.5 133t141 85t141 68t108.5 79t44 121v233q0 123 -122 123q-61 0 -92 -34t-31 -91v-313h-342v370q0 164 122.5 257.5t342 93.5t342 -93.5t122.5 -257.5v-354q0 -121 -60 -210t-146 -140t-233.5 -123.5t-147.5 -204.5v-65h583v-283h-925z" glyph-name="two" horiz-adv-x="1134" unicode="2"/><glyph d="M434 1325v-223h-342v278q0 164 128 257.5t348 93.5t349.5 -93.5t129.5 -257.5v-217q0 -209 -211 -286q211 -78 211 -285v-299q0 -162 -126.5 -245t-350.5 -83t-351 83t-127 245v344h342v-264q0 -55 37 -90t99 -35t98.5 33.5t36.5 89.5v237q0 53 -37 89t-101 36h-133v279 h135q63 0 99.5 34.5t36.5 88.5v188q0 55 -37.5 90t-99.5 35t-98 -34t-36 -89z" glyph-name="three" horiz-adv-x="1138" unicode="3"/><glyph d="M983 1696v-1063h125v-283h-125v-350h-344v350h-588v361l369 985h563zM639 633v831l-309 -831h309z" glyph-name="four" horiz-adv-x="1128" unicode="4"/><glyph d="M725 778q0 55 -37 90t-97 35t-98 -31.5t-38 -80.5v-35h-342v940h942v-283h-600v-291q102 86 284 86q137 0 232.5 -95t95.5 -271v-527q0 -164 -128 -257t-348 -93t-349 93.5t-129 256.5v281h342v-223q0 -55 36.5 -90t98.5 -35t98.5 33.5t36.5 89.5v407z" glyph-name="five" horiz-adv-x="1159" unicode="5"/><glyph d="M770 1065q137 0 232.5 -95.5t95.5 -271.5v-383q0 -164 -128 -257t-348 -93t-349.5 93.5t-129.5 256.5v1088q0 162 126.5 245t350.5 83t351 -83t127 -245v-242h-342v162q0 55 -37 90t-99 35t-98.5 -34t-36.5 -89v-346q103 86 285 86zM756 371v264q0 55 -37 90t-97 35 t-96.5 -31t-40.5 -82v-274q0 -55 37.5 -90t99.5 -35t98 34t36 89z" glyph-name="six" horiz-adv-x="1214" unicode="6"/><glyph d="M20 1413v283h865v-361l-412 -1335h-369l439 1413h-523z" glyph-name="seven" horiz-adv-x="935" unicode="7"/><glyph d="M570 -35q-224 0 -351 83t-127 245v299q0 207 209 285q-209 78 -209 286v217q0 164 128 257.5t348 93.5t349.5 -93.5t129.5 -257.5v-217q0 -209 -211 -286q211 -78 211 -285v-299q0 -162 -126.5 -245t-350.5 -83zM434 610v-237q0 -55 37 -90t99 -35t98.5 33.5t36.5 89.5 v237q0 53 -37.5 89t-99.5 36t-98 -35t-36 -88zM434 1325v-188q0 -53 37 -89t99 -36t98.5 34.5t36.5 88.5v188q0 55 -37.5 90t-99.5 35t-98 -34t-36 -89z" glyph-name="eight" horiz-adv-x="1138" unicode="8"/><glyph d="M440 631q-137 0 -232 95t-95 271v383q0 164 128 257.5t348 93.5t349 -93.5t129 -257.5v-1087q0 -162 -126 -245t-350 -83t-351 83t-127 245v242h342v-162q0 -55 36.5 -90t98.5 -35t98.5 33.5t36.5 89.5v346q-103 -86 -285 -86zM455 1325v-264q0 -55 36.5 -90t96.5 -35 t96.5 30.5t40.5 82.5v274q0 55 -37 90t-99 35t-98 -34t-36 -89z" glyph-name="nine" unicode="9"/><glyph d="M61 0v352h342v-352h-342zM61 618v355h342v-355h-342z" glyph-name="colon" horiz-adv-x="464" unicode=":"/><glyph d="M61 618v355h342v-355h-342zM403 352v-352l-342 -246l150 246h-150v352h342z" glyph-name="semicolon" horiz-adv-x="464" unicode=";"/><glyph d="M31 848l280 487h348l-280 -487l280 -516h-348z" glyph-name="less" horiz-adv-x="690" unicode="&lt;"/><glyph d="M41 956v283h954v-283h-954zM41 459v282h954v-282h-954z" glyph-name="equal" horiz-adv-x="1036" unicode="="/><glyph d="M379 1335l280 -487l-280 -516h-348l280 516l-280 487h348z" glyph-name="greater" horiz-adv-x="690" unicode=">"/><glyph d="M190 0v352h342v-352h-342zM532 457h-342v174q0 207 82.5 272.5t168 87t153.5 46t68 141.5v137q0 121 -123 121q-61 0 -93 -34t-32 -89v-250h-342v305q0 164 123.5 257t343 93t342.5 -93t123 -257v-281q0 -102 -35 -169.5t-87.5 -94t-113.5 -48t-113.5 -36t-87.5 -53.5 t-35 -104v-125z" glyph-name="question" horiz-adv-x="1075" unicode="?"/><glyph d="M961 1731q393 0 651 -260.5t258 -626.5t-259 -622.5t-626 -256.5t-625 257t-258 624q0 252 128 458.5t323 316.5t408 110zM1006 1587q-332 0 -545 -218t-213 -523t215 -521t520 -216t524 217t219 520q0 209 -106.5 383t-271 266t-342.5 92zM1376 1128v-847h-301v100 q-61 -68 -109 -92.5t-135 -24.5q-117 0 -181 88t-64 269v69q0 143 35.5 187.5t61.5 64t76 30.5t88 16t108.5 12.5t119.5 15.5v57q0 63 -17.5 93t-75.5 30t-76.5 -30.5t-18.5 -94.5v-27h-301v84q0 172 92 261.5t303 89.5t303 -89.5t92 -261.5zM887 623v-11q0 -63 18.5 -94 t66.5 -31t68.5 16.5t26.5 37t8 59.5v174q-117 -18 -152.5 -42.5t-35.5 -108.5z" glyph-name="at" horiz-adv-x="1972" unicode="@"/><glyph d="M10 0l223 1696h594l224 -1696h-340l-43 344h-275l-41 -344h-342zM530 1462l-102 -835h205z" glyph-name="A" horiz-adv-x="1060" unicode="A"/><glyph d="M123 0v1696h665q82 0 138.5 -24.5t103.5 -77.5t47 -275v-49q0 -188 -28.5 -237.5t-71.5 -100.5t-186 -64q222 -17 254 -136t32 -238v-117q0 -222 -47 -275t-103.5 -77.5t-138.5 -24.5h-665zM465 283h158q61 0 86.5 36.5t25.5 110.5v154q0 74 -25.5 111.5t-86.5 37.5h-158 v-450zM623 1413h-158v-397h158q61 0 86.5 37t25.5 110v103q0 74 -25.5 110.5t-86.5 36.5z" glyph-name="B" horiz-adv-x="1169" unicode="B"/><glyph d="M455 1325v-952q0 -55 36.5 -90t98.5 -35t98.5 33.5t36.5 89.5v364h342v-442q0 -162 -126 -245t-350 -83t-351 83t-127 245v1087q0 164 128 257.5t348 93.5t349 -93.5t129 -257.5v-364h-342v307q0 55 -37 90t-99 35t-98 -34t-36 -89z" glyph-name="C" unicode="C"/><glyph d="M123 0v1696h665q82 0 138.5 -24.5t103.5 -77.5t47 -275v-942q0 -222 -47 -275t-103.5 -77.5t-138.5 -24.5h-665zM623 1413h-158v-1130h158q61 0 86.5 36.5t25.5 110.5v836q0 74 -25.5 110.5t-86.5 36.5z" glyph-name="D" horiz-adv-x="1189" unicode="D"/><glyph d="M881 1413h-416v-397h403v-283h-403v-450h416v-283h-758v1696h758v-283z" glyph-name="E" horiz-adv-x="952" unicode="E"/><glyph d="M797 733h-332v-733h-342v1696h686v-283h-344v-397h332v-283z" glyph-name="F" horiz-adv-x="849" unicode="F"/><glyph d="M1067 0h-141l-23 125q-41 -76 -127 -118t-186 -42q-223 0 -350 83t-127 245v1087q0 164 128 257.5t348 93.5t349 -93.5t129 -257.5v-295h-342v238q0 55 -37 90t-99 35t-98 -34t-36 -89v-952q0 -55 36.5 -90t98.5 -35t98.5 33.5t36.5 89.5v305h-137v282h479v-958z" glyph-name="G" unicode="G"/><glyph d="M735 0v733h-270v-733h-342v1696h342v-680h270v680h342v-1696h-342z" glyph-name="H" horiz-adv-x="1200" unicode="H"/><glyph d="M123 0v1696h342v-1696h-342z" glyph-name="I" horiz-adv-x="587" unicode="I"/><glyph d="M928 293q0 -328 -433 -328t-434 328v440h342v-360q0 -63 17.5 -94t75 -31t74 29.5t16.5 93.5v1325h342v-1403z" glyph-name="J" horiz-adv-x="1040" unicode="J"/><glyph d="M123 0v1696h342v-625l268 625h342l-377 -848l439 -848h-342l-330 629v-629h-342z" glyph-name="K" horiz-adv-x="1126" unicode="K"/><glyph d="M123 0v1696h342v-1413h369v-283h-711z" glyph-name="L" horiz-adv-x="854" unicode="L"/><glyph d="M430 0h-307v1696h536l144 -1258l145 1258h535v-1696h-305v1329l-156 -1329h-436l-156 1329v-1329z" glyph-name="M" horiz-adv-x="1605" unicode="M"/><glyph d="M1100 0h-506l-164 1329v-1329h-307v1696h514l156 -1260v1260h307v-1696z" glyph-name="N" horiz-adv-x="1222" unicode="N"/><glyph d="M1067 1380v-1087q0 -162 -126 -245t-350 -83t-351 83t-127 245v1087q0 164 128 257.5t348 93.5t349 -93.5t129 -257.5zM455 1325v-952q0 -55 36.5 -90t98.5 -35t98.5 33.5t36.5 89.5v952q0 55 -37 90t-99 35t-98 -34t-36 -89z" glyph-name="O" unicode="O"/><glyph d="M123 0v1696h665q82 0 138.5 -24.5t103.5 -77.5t47 -275v-311q0 -224 -47 -276t-103.5 -76.5t-138.5 -24.5h-323v-631h-342zM465 1413v-500h158q61 0 86.5 38t25.5 112v203q0 74 -25.5 110.5t-86.5 36.5h-158z" glyph-name="P" horiz-adv-x="1159" unicode="P"/><glyph d="M1102 0h-559q-242 0 -336 87t-94 263v1030q0 164 128 257.5t348 93.5t349 -93.5t129 -257.5v-1052q0 -113 -66 -195l101 -10v-123zM455 1325v-917q0 -55 36.5 -90t98.5 -35t98.5 33.5t36.5 89.5v917q0 55 -37 90t-99 35t-98 -34t-36 -89z" glyph-name="Q" unicode="Q"/><glyph d="M735 309v275q0 74 -25.5 111.5t-86.5 37.5h-158v-733h-342v1696h665q82 0 138.5 -24.5t103.5 -77.5t47 -275v-49q0 -188 -28.5 -237.5t-71.5 -100.5t-186 -64q222 -17 254 -136t32 -238v-254q0 -190 19 -240h-338q-23 53 -23 309zM623 1413h-158v-397h158q61 0 86.5 37 t25.5 110v103q0 74 -25.5 110.5t-86.5 36.5z" glyph-name="R" horiz-adv-x="1189" unicode="R"/><glyph d="M1047 561v-268q0 -162 -127.5 -245t-351.5 -83t-350 83t-126 245v323h342v-245q0 -55 36 -89t98 -34t99.5 34.5t37.5 90.5v139q0 76 -63.5 130t-154 93t-179.5 85t-152.5 132t-63.5 207v221q0 164 128 257.5t348 93.5t349.5 -93.5t129.5 -257.5v-247h-342v190 q0 55 -37.5 90t-99.5 35t-98 -34t-36 -89v-100q0 -70 45 -118t114 -72.5t147.5 -60.5t147 -78t114 -128t45.5 -207z" glyph-name="S" horiz-adv-x="1138" unicode="S"/><glyph d="M250 0v1413h-230v283h803v-283h-231v-1413h-342z" glyph-name="T" horiz-adv-x="843" unicode="T"/><glyph d="M591 -35q-224 0 -351 83t-127 245v1403h342v-1323q0 -55 36.5 -90t98.5 -35t98.5 33.5t36.5 89.5v1325h342v-1403q0 -162 -126 -245t-350 -83z" glyph-name="U" unicode="U"/><glyph d="M1004 1696l-199 -1696h-594l-201 1696h365l133 -1415l131 1415h365z" glyph-name="V" horiz-adv-x="1013" unicode="V"/><glyph d="M870 0l-102 1262l-98 -1262h-506l-154 1696h365l86 -1415l108 1415h402l108 -1415l84 1415h367l-154 -1696h-506z" glyph-name="W" horiz-adv-x="1540" unicode="W"/><glyph d="M1024 1696l-336 -848l336 -848h-342l-166 416l-164 -416h-342l336 848l-336 848h342l164 -416l166 416h342z" glyph-name="X" horiz-adv-x="1034" unicode="X"/><glyph d="M334 0v528l-324 1168h326l166 -738l168 738h327l-323 -1182v-514h-340z" glyph-name="Y" horiz-adv-x="1007" unicode="Y"/><glyph d="M41 1413v283h864v-283l-512 -1130h512v-283h-864v283l512 1130h-512z" glyph-name="Z" horiz-adv-x="946" unicode="Z"/><glyph d="M123 0v1696h450v-242h-149v-1212h149v-242h-450z" glyph-name="bracketleft" horiz-adv-x="614" unicode="["/><glyph d="M244 1696l340 -1696h-240l-340 1696h240z" glyph-name="backslash" horiz-adv-x="581" unicode="\"/><glyph d="M492 1696v-1696h-451v242h149v1212h-149v242h451z" glyph-name="bracketright" horiz-adv-x="614" unicode="]"/><glyph d="M1085 -319h-720l59 708l-274 219l-48 674l162 -369l606 45l-122 -165l38 -27l228 242l-33 47h-256l27 245l424 -53l96 -463l-244 -188zM653 1051l-141 -7l-88 560l211 73zM440 1032l-129 -18l-192 471l198 71zM889 1380l-168 6v312l186 6zM1149 1337l-174 31l14 330 l133 -15z" glyph-name="asciicircum" horiz-adv-x="1374" unicode="^"/><glyph d="M0 -141v282h1036v-282h-1036z" glyph-name="underscore" horiz-adv-x="1036" unicode="_"/><glyph d="M209 1796l-168 346h276l70 -346h-178z" glyph-name="grave" horiz-adv-x="428" unicode="`"/><glyph d="M420 -27q-137 0 -232.5 95.5t-95.5 271.5v397q0 150 64.5 200t133 69.5t191.5 31t224 25.5v262q0 55 -36.5 89t-98.5 34t-99 -35t-37 -90v-190h-342v247q0 164 129 257.5t349 93.5t348.5 -93.5t128.5 -257.5v-1206q0 -125 18 -174h-338q-10 23 -18 96q-55 -57 -135 -90 t-154 -33zM434 629v-256q0 -55 37 -90t97 -35t96 28.5t41 77.5v426q-14 -2 -58.5 -8t-59 -9t-47 -11.5t-45 -17.5t-37 -28t-24.5 -77z" glyph-name="a" horiz-adv-x="1159" unicode="a"/><glyph d="M123 0v1696h665q82 0 138.5 -24.5t103.5 -77.5t47 -275v-49q0 -188 -28.5 -237.5t-71.5 -100.5t-186 -64q222 -17 254 -136t32 -238v-117q0 -222 -47 -275t-103.5 -77.5t-138.5 -24.5h-665zM465 283h158q61 0 86.5 36.5t25.5 110.5v154q0 74 -25.5 111.5t-86.5 37.5h-158 v-450zM623 1413h-158v-397h158q61 0 86.5 37t25.5 110v103q0 74 -25.5 110.5t-86.5 36.5z" glyph-name="b" horiz-adv-x="1169" unicode="b"/><glyph d="M455 1325v-952q0 -55 36.5 -90t98.5 -35t98.5 33.5t36.5 89.5v364h342v-442q0 -162 -126 -245t-350 -83t-351 83t-127 245v1087q0 164 128 257.5t348 93.5t349 -93.5t129 -257.5v-364h-342v307q0 55 -37 90t-99 35t-98 -34t-36 -89z" glyph-name="c" unicode="c"/><glyph d="M123 0v1696h665q82 0 138.5 -24.5t103.5 -77.5t47 -275v-942q0 -222 -47 -275t-103.5 -77.5t-138.5 -24.5h-665zM623 1413h-158v-1130h158q61 0 86.5 36.5t25.5 110.5v836q0 74 -25.5 110.5t-86.5 36.5z" glyph-name="d" horiz-adv-x="1189" unicode="d"/><glyph d="M1067 733h-612v-360q0 -55 36.5 -90t98.5 -35t98.5 33.5t36.5 89.5v245h342v-323q0 -162 -126 -245t-350 -83t-351 83t-127 245v1087q0 164 128 257.5t348 93.5t349 -93.5t129 -257.5v-647zM455 1325v-309h270v307q0 55 -37 90t-99 35t-98 -34t-36 -89z" glyph-name="e" unicode="e"/><glyph d="M797 733h-332v-733h-342v1696h686v-283h-344v-397h332v-283z" glyph-name="f" horiz-adv-x="849" unicode="f"/><glyph d="M1067 0h-141l-23 125q-41 -76 -127 -118t-186 -42q-223 0 -350 83t-127 245v1087q0 164 128 257.5t348 93.5t349 -93.5t129 -257.5v-295h-342v238q0 55 -37 90t-99 35t-98 -34t-36 -89v-952q0 -55 36.5 -90t98.5 -35t98.5 33.5t36.5 89.5v305h-137v282h479v-958z" glyph-name="g" unicode="g"/><glyph d="M735 0v733h-270v-733h-342v1696h342v-680h270v680h342v-1696h-342z" glyph-name="h" horiz-adv-x="1200" unicode="h"/><glyph d="M123 0v1696h342v-1696h-342z" glyph-name="i" horiz-adv-x="587" unicode="i"/><glyph d="M928 293q0 -328 -433 -328t-434 328v440h342v-360q0 -63 17.5 -94t75 -31t74 29.5t16.5 93.5v1325h342v-1403z" glyph-name="j" horiz-adv-x="1040" unicode="j"/><glyph d="M739 309v299q0 53 -37.5 89t-99.5 36h-137v-733h-342v1696h342v-684h139q61 0 98 34.5t37 88.5v561h340v-533q0 -209 -209 -286q209 -78 209 -285v-352q0 -190 19 -240h-336q-23 66 -23 309z" glyph-name="k" horiz-adv-x="1191" unicode="k"/><glyph d="M123 0v1696h342v-1413h369v-283h-711z" glyph-name="l" horiz-adv-x="854" unicode="l"/><glyph d="M465 0h-342v1696h338l4 -101q115 127 254 127q170 0 252 -147q119 147 303 147q133 0 216 -94t83 -272v-1356h-342v1329q0 119 -109 119q-49 0 -76.5 -27.5t-27.5 -74.5v-1346h-340v1329q0 53 -28 86t-80 33t-78.5 -31t-26.5 -82v-1335z" glyph-name="m" horiz-adv-x="1685" unicode="m"/><glyph d="M465 0h-342v1696h338l4 -101q115 127 285 127q137 0 232 -95t95 -271v-1356h-342v1323q0 55 -36.5 90t-96.5 35t-96.5 -31t-40.5 -82v-1335z" glyph-name="n" horiz-adv-x="1189" unicode="n"/><glyph d="M1067 1380v-1087q0 -162 -126 -245t-350 -83t-351 83t-127 245v1087q0 164 128 257.5t348 93.5t349 -93.5t129 -257.5zM455 1325v-952q0 -55 36.5 -90t98.5 -35t98.5 33.5t36.5 89.5v952q0 55 -37 90t-99 35t-98 -34t-36 -89z" glyph-name="o" unicode="o"/><glyph d="M123 0v1696h665q82 0 138.5 -24.5t103.5 -77.5t47 -275v-311q0 -224 -47 -276t-103.5 -76.5t-138.5 -24.5h-323v-631h-342zM465 1413v-500h158q61 0 86.5 38t25.5 112v203q0 74 -25.5 110.5t-86.5 36.5h-158z" glyph-name="p" horiz-adv-x="1159" unicode="p"/><glyph d="M463 -256v227q-168 23 -259 104t-91 218v1087q0 164 128 257.5t348 93.5t349 -93.5t129 -257.5v-1087q0 -137 -92 -218t-260 -104v-227h-252zM455 1325v-952q0 -55 36.5 -90t98.5 -35t98.5 33.5t36.5 89.5v952q0 55 -37 90t-99 35t-98 -34t-36 -89z" glyph-name="q" unicode="q"/><glyph d="M735 309v275q0 74 -25.5 111.5t-86.5 37.5h-158v-733h-342v1696h665q82 0 138.5 -24.5t103.5 -77.5t47 -275v-49q0 -188 -28.5 -237.5t-71.5 -100.5t-186 -64q222 -17 254 -136t32 -238v-254q0 -190 19 -240h-338q-23 53 -23 309zM623 1413h-158v-397h158q61 0 86.5 37 t25.5 110v103q0 74 -25.5 110.5t-86.5 36.5z" glyph-name="r" horiz-adv-x="1189" unicode="r"/><glyph d="M1047 561v-268q0 -162 -127.5 -245t-351.5 -83t-350 83t-126 245v323h342v-245q0 -55 36 -89t98 -34t99.5 34.5t37.5 90.5v139q0 76 -63.5 130t-154 93t-179.5 85t-152.5 132t-63.5 207v221q0 164 128 257.5t348 93.5t349.5 -93.5t129.5 -257.5v-247h-342v190 q0 55 -37.5 90t-99.5 35t-98 -34t-36 -89v-100q0 -70 45 -118t114 -72.5t147.5 -60.5t147 -78t114 -128t45.5 -207z" glyph-name="s" horiz-adv-x="1138" unicode="s"/><glyph d="M250 0v1413h-230v283h803v-283h-231v-1413h-342z" glyph-name="t" horiz-adv-x="843" unicode="t"/><glyph d="M725 1696h342v-1696h-342v100q-115 -127 -285 -127q-137 0 -232 95.5t-95 271.5v1356h342v-1323q0 -55 36.5 -90t96.5 -35t96.5 30.5t40.5 81.5v1336z" glyph-name="u" horiz-adv-x="1189" unicode="u"/><glyph d="M1004 1696l-199 -1696h-594l-201 1696h365l133 -1415l131 1415h365z" glyph-name="v" horiz-adv-x="1013" unicode="v"/><glyph d="M870 0l-102 1262l-98 -1262h-506l-154 1696h365l86 -1415l108 1415h402l108 -1415l84 1415h367l-154 -1696h-506z" glyph-name="w" horiz-adv-x="1540" unicode="w"/><glyph d="M1067 1163q0 -209 -211 -286q211 -78 211 -285v-592h-342v608q0 53 -37 89t-99 36t-98 -34.5t-36 -88.5v-610h-342v592q0 207 209 285q-209 78 -209 286v533h342v-559q0 -53 36.5 -89t98.5 -36t98.5 34.5t36.5 88.5v561h342v-533z" glyph-name="x" unicode="x"/><glyph d="M455 1386v-286q0 -55 36.5 -90t96.5 -35t96.5 30.5t40.5 81.5v609h342v-1403q0 -162 -126 -245t-350 -83t-351 83t-127 245v321h342v-241q0 -55 36.5 -90t98.5 -35t98.5 33.5t36.5 89.5v385q-102 -86 -285 -86q-137 0 -232 95t-95 271v420q0 190 -19 240h338 q23 -53 23 -310z" glyph-name="y" unicode="y"/><glyph d="M41 1413v283h864v-283l-512 -1130h512v-283h-864v283l512 1130h-512z" glyph-name="z" horiz-adv-x="946" unicode="z"/><glyph d="M461 1366v-274q0 -106 -35 -157.5t-135 -88.5q100 -37 135 -87t35 -157v-270q0 -55 37 -90t98 -35v-242q-436 0 -436 328v325q0 53 -38 89t-102 36v197q66 0 103 35t37 88v317q0 168 109.5 259.5t324.5 91.5v-242q-61 0 -97 -34t-36 -89z" glyph-name="braceleft" horiz-adv-x="636" unicode="{"/><glyph d="M123 -35v1766h342v-1766h-342z" glyph-name="bar" horiz-adv-x="587" unicode="|"/><glyph d="M176 1096v270q0 55 -36 89t-97 34v242q215 0 324.5 -91.5t109.5 -259.5v-313q0 -53 37 -88t102 -35v-196q-63 0 -101 -36t-38 -89v-330q0 -328 -436 -328v242q61 0 98 34.5t37 90.5v274q0 106 35 156.5t135 87.5q-100 37 -135 88.5t-35 157.5z" glyph-name="braceright" horiz-adv-x="636" unicode="}"/><glyph d="M1776 203l-674 47l-219 274l-781 -65l11 737l977 -68l188 244l463 -96l53 -424l-246 -12v241l-47 33l-241 -227l26 -39l146 123l-46 -606zM2097 524l-559 88l10 123h623zM1978 219l-471 193l17 129l526 -123zM2191 821h-311l-6 168l324 19zM2748 1096l-886 -21l-31 174 l903 -20z" glyph-name="asciitilde" horiz-adv-x="2850" unicode="~"/><glyph glyph-name="uni00A0" horiz-adv-x="358" unicode=" "/><glyph d="M117 1225h295l34 -1225h-364zM434 1696v-353h-342v353h342z" glyph-name="exclamdown" horiz-adv-x="528" unicode="¡"/><glyph d="M403 1001v-276q0 -63 18.5 -94t76.5 -31t76 29.5t18 93.5v63h342v-141q0 -279 -311 -321v-170h-252v172q-309 43 -310 319v412q0 139 78 227t232 113v172h252v-172q154 -25 232.5 -113t78.5 -227v-74h-342v16q0 63 -18.5 94t-76.5 31t-76 -30t-18 -93z" glyph-name="cent" horiz-adv-x="995" unicode="¢"/><glyph d="M135 557v242h191q-18 27 -68.5 92t-77 105t-52.5 105.5t-26 129.5v149q0 164 123 257.5t342 93.5t342 -93.5t123 -257.5v-309h-342v252q0 57 -30.5 91t-92.5 34q-123 0 -123 -123v-70q0 -70 95.5 -226.5t122.5 -229.5h358v-242h-348q-43 -141 -213 -274h581v-283h-925 v250q231 168 270 307h-250z" glyph-name="sterling" horiz-adv-x="1142" unicode="£"/><glyph d="M10 922v159h84v299q0 164 128 257.5t348 93.5t349.5 -93.5t129.5 -257.5v-200h-342v143q0 55 -37.5 90t-99.5 35t-98 -34t-36 -89v-244h596v-159h-596v-121h596v-158h-596v-270q0 -55 37 -90t99 -35t98.5 33.5t36.5 89.5v174h342v-252q0 -162 -126.5 -245t-350.5 -83 t-351 83t-127 245v350h-84v158h84v121h-84z" glyph-name="currency" horiz-adv-x="1142" unicode="¤"/><glyph d="M25 379v283h272l-287 1034h326l166 -738l168 738h327l-284 -1034h266v-283h-305v-379h-340v379h-309z" glyph-name="yen" horiz-adv-x="1007" unicode="¥"/><glyph d="M123 -35v709h342v-709h-342zM465 1731v-707h-342v707h342z" glyph-name="brokenbar" horiz-adv-x="587" unicode="¦"/><glyph d="M1427 705v-43q0 -147 -105 -247t-284 -118q0 -156 -114.5 -239t-321.5 -91q92 141 0 285q39 10 65.5 36.5t26.5 61.5q0 68 -62.5 119t-152.5 89t-180 84t-152.5 130t-62.5 203v37q0 150 106.5 258t282.5 129q8 150 127 237.5t320 94.5q-92 -143 0 -285q-45 -8 -75 -36 t-30 -78t46 -95t113.5 -67.5t147.5 -58.5t147.5 -78t112.5 -126.5t45 -201.5zM426 432v-61q0 -47 28.5 -80t75.5 -41q92 -143 0 -285q-211 4 -328.5 88t-117.5 240v139h342zM1427 1276h-342v47q0 96 -94 119q-92 143 0 287q203 -10 319.5 -101.5t116.5 -247.5v-104z M522 1116q-96 -22 -96 -112q0 -49 45 -92.5t115.5 -71t145.5 -56t148.5 -80t112.5 -124.5q90 26 90 90t-43 108.5t-112.5 77.5t-200 89t-205.5 171z" glyph-name="section" horiz-adv-x="1519" unicode="§"/><glyph d="M31 2032h231v-234h-231v234zM422 2032h235v-234h-235v234z" glyph-name="dieresis" horiz-adv-x="688" unicode="¨"/><glyph d="M961 1731q393 0 651 -260.5t258 -626.5t-259 -622.5t-626 -256.5t-625 257t-258 624q0 252 128 458.5t323 316.5t408 110zM1006 1587q-332 0 -545 -218t-213 -523t215 -521t520 -216t524 217t219 520q0 209 -106.5 383t-271 266t-342.5 92zM895 983v-276q0 -63 18.5 -94 t76.5 -31t75.5 29.5t17.5 93.5v63h342v-141q0 -328 -436 -328t-436 328v411q0 168 109.5 259.5t325.5 91.5t326.5 -91.5t110.5 -259.5v-73h-342v16q0 63 -18.5 94t-76.5 31t-75.5 -30t-17.5 -93z" glyph-name="copyright" horiz-adv-x="1972" unicode="©"/><glyph d="M465 0h-342v1696h338l4 -101q115 127 285 127q137 0 232 -95t95 -271v-1356h-342v1323q0 55 -36.5 90t-96.5 35t-96.5 -31t-40.5 -82v-1335zM2134 1239v-412q0 -328 -436 -327.5t-436 327.5v412q0 168 109.5 259t325.5 91t326.5 -91t110.5 -259zM1604 1184v-277 q0 -63 18 -94t76 -31t76 30t18 93v277q0 63 -18.5 94t-76.5 31t-75.5 -30t-17.5 -93zM1360 102v283h678v-283h-678z" glyph-name="ordfeminine" horiz-adv-x="2205" unicode="ª"/><glyph d="M31 848l280 487h348l-280 -487l280 -516h-348zM522 848l281 487h348l-281 -487l281 -516h-348z" glyph-name="guillemotleft" horiz-adv-x="1181" unicode="«"/><glyph d="M41 989h954v-618h-282v336h-672v282z" glyph-name="logicalnot" horiz-adv-x="1085" unicode="¬"/><glyph d="M719 707h-678v282h678v-282z" glyph-name="uni00AD" horiz-adv-x="759" unicode="­"/><glyph d="M961 1731q393 0 651 -260.5t258 -626.5t-259 -622.5t-626 -256.5t-625 257t-258 624q0 252 128 458.5t323 316.5t408 110zM1454 375v-99q127 104 199.5 253t72.5 337t-106.5 362.5t-271 266.5t-342.5 92q-332 0 -545 -218t-213 -523q0 -205 101.5 -376t273.5 -267v1206 h542q188 0 238.5 -83.5t50.5 -211.5q0 -214 -58.5 -292t-187.5 -93q130 -11 184 -77t58 -140t4 -137zM983 109q154 0 289 59h-119v297q0 74 -25.5 111.5t-87.5 37.5h-116v-446h-230q135 -59 289 -59zM1040 1167h-116v-311h116q61 0 87 37t26 111v16q0 74 -26 110.5t-87 36.5 z" glyph-name="registered" horiz-adv-x="1972" unicode="®"/><glyph d="M143 1812v242h750v-242h-750z" glyph-name="macron" horiz-adv-x="1036" unicode="¯"/><glyph d="M831 1284v-63q0 -170 -90 -249t-304 -79t-305 80t-91 248v63q0 172 91 261t302 89t304 -89t93 -261zM301 1270v-10q0 -55 37 -90t99 -35t98 33.5t36 88.5v11q0 55 -36.5 90t-98.5 35t-98.5 -34t-36.5 -89z" glyph-name="degree" horiz-adv-x="872" unicode="°"/><glyph d="M377 1509h282v-335h336v-283h-336v-336h-282v336h-336v283h336v335zM41 188v283h954v-283h-954z" glyph-name="plusminus" horiz-adv-x="1036" unicode="±"/><glyph d="M387 2142l-168 -346h-178l70 346h276z" glyph-name="acute" horiz-adv-x="428" unicode="´"/><glyph d="M797 0v1487h-117v-1487h-242v647q-240 0 -313.5 46t-73.5 204v533q0 141 59.5 203.5t188.5 62.5h662v-1696h-164z" glyph-name="paragraph" horiz-adv-x="1011" unicode="¶"/><glyph d="M61 672v354h342v-354h-342z" glyph-name="periodcentered" horiz-adv-x="464" unicode="·"/><glyph d="M256 -172h-23v182h107v-112q59 -2 94 -35t35 -93t-55.5 -109.5t-125.5 -49.5t-119.5 37t-68.5 104h133q18 -37 50 -37q51 0 51 54q0 59 -78 59z" glyph-name="cedilla" horiz-adv-x="614" unicode="¸"/><glyph d="M944 1239v-412q0 -328 -436 -327.5t-436 327.5v412q0 168 109.5 259t325.5 91t326.5 -91t110.5 -259zM414 1184v-277q0 -63 18.5 -94t76.5 -31t75.5 30t17.5 93v277q0 63 -18.5 94t-76.5 31t-75.5 -30t-17.5 -93zM170 102v283h678v-283h-678z" glyph-name="ordmasculine" horiz-adv-x="1015" unicode="º"/><glyph d="M379 1335l280 -487l-280 -516h-348l280 516l-280 487h348zM870 1335l281 -487l-281 -516h-348l281 516l-281 487h348z" glyph-name="guillemotright" horiz-adv-x="1181" unicode="»"/><glyph d="M61 352h342v-289q0 -78 -35.5 -140t-120.5 -115.5t-186 -53.5v598z" glyph-name="onequarter" horiz-adv-x="464" unicode="¼"/><glyph d="M61 618v355h342v-355h-342zM61 352h342v-289q0 -78 -35.5 -140t-120.5 -115.5t-186 -53.5v598z" glyph-name="onehalf" horiz-adv-x="464" unicode="½"/><glyph d="M885 1718v-352h-342v352h342zM543 1262h342v-175q0 -206 -82 -272.5t-168 -87t-153.5 -45.5t-67.5 -141v-138q0 -121 123 -120q61 0 93 33.5t32 89.5v249h342v-305q0 -164 -124 -257t-343.5 -93t-342 93t-122.5 257v281q0 102 34.5 169.5t87 94.5t114 48.5t113.5 35.5 t87 53t35 105v125z" glyph-name="questiondown" horiz-adv-x="1075" unicode="¿"/><glyph d="M10 0l223 1696h594l224 -1696h-340l-43 344h-275l-41 -344h-342zM530 1462l-102 -835h205zM465 1796l-168 346h276l70 -346h-178z" glyph-name="Agrave" horiz-adv-x="1060" unicode="À"/><glyph d="M10 0l223 1696h594l224 -1696h-340l-43 344h-275l-41 -344h-342zM530 1462l-102 -835h205zM780 2142l-168 -346h-178l70 346h276z" glyph-name="Aacute" horiz-adv-x="1060" unicode="Á"/><glyph d="M10 0l223 1696h594l224 -1696h-340l-43 344h-275l-41 -344h-342zM530 1462l-102 -835h205zM596 1796l-59 117l-64 -117h-213l172 254h211l156 -254h-203z" glyph-name="Acircumflex" horiz-adv-x="1060" unicode="Â"/><glyph d="M10 0l223 1696h594l224 -1696h-340l-43 344h-275l-41 -344h-342zM530 1462l-102 -835h205zM211 1845q97 166 207 166q58 0 112.5 -36t87.5 -36q70 0 95 76l135 -98q-78 -156 -201 -156q-53 0 -113.5 41t-84.5 41q-66 0 -105 -86z" glyph-name="Atilde" horiz-adv-x="1060" unicode="Ã"/><glyph d="M10 0l223 1696h594l224 -1696h-340l-43 344h-275l-41 -344h-342zM530 1462l-102 -835h205zM217 2032h232v-234h-232v234zM608 2032h236v-234h-236v234z" glyph-name="Adieresis" horiz-adv-x="1060" unicode="Ä"/><glyph d="M10 0l223 1696h594l224 -1696h-340l-43 344h-275l-41 -344h-342zM530 1462l-102 -835h205zM727 1933v-32q0 -84 -43.5 -123t-151.5 -39t-153 39t-45 123v32q0 86 45 130t149 44q199 0 199 -174zM440 1925q0 -39 24.5 -63.5t66.5 -24.5t66 23.5t24 62.5t-25 62.5t-67 23.5 t-65.5 -22.5t-23.5 -61.5z" glyph-name="Aring" horiz-adv-x="1060" unicode="Å"/><glyph d="M1470 1413h-415v-397h403v-283h-403v-450h415v-283h-757v344h-279l-80 -344h-344l428 1696h1032v-283zM713 627v835l-205 -835h205z" glyph-name="AE" horiz-adv-x="1542" unicode="Æ"/><glyph d="M561 -172h-22v139q-201 10 -313.5 92t-112.5 234v1087q0 164 128 257.5t348 93.5t349 -93.5t129 -257.5v-364h-342v307q0 55 -37 90t-99 35t-98 -34t-36 -89v-952q0 -55 36.5 -90t98.5 -35t98.5 33.5t36.5 89.5v364h342v-442q0 -150 -110.5 -233t-311.5 -93v-69 q59 -2 94 -35t35 -93t-55 -109.5t-125 -49.5t-120 37t-68 104h133q18 -37 49 -37q51 0 51 54q0 59 -78 59z" glyph-name="Ccedilla" unicode="Ç"/><glyph d="M881 1413h-416v-397h403v-283h-403v-450h416v-283h-758v1696h758v-283zM430 1796l-168 346h277l69 -346h-178z" glyph-name="Egrave" horiz-adv-x="952" unicode="È"/><glyph d="M881 1413h-416v-397h403v-283h-403v-450h416v-283h-758v1696h758v-283zM748 2142l-168 -346h-179l70 346h277z" glyph-name="Eacute" horiz-adv-x="952" unicode="É"/><glyph d="M881 1413h-416v-397h403v-283h-403v-450h416v-283h-758v1696h758v-283zM578 1796l-60 117l-63 -117h-213l172 254h211l155 -254h-202z" glyph-name="Ecircumflex" horiz-adv-x="952" unicode="Ê"/><glyph d="M881 1413h-416v-397h403v-283h-403v-450h416v-283h-758v1696h758v-283zM182 2032h232v-234h-232v234zM573 2032h236v-234h-236v234z" glyph-name="Edieresis" horiz-adv-x="952" unicode="Ë"/><glyph d="M123 0v1696h342v-1696h-342zM213 1796l-168 346h277l69 -346h-178z" glyph-name="Igrave" horiz-adv-x="587" unicode="Ì"/><glyph d="M123 0v1696h342v-1696h-342zM547 2142l-168 -346h-178l69 346h277z" glyph-name="Iacute" horiz-adv-x="587" unicode="Í"/><glyph d="M123 0v1696h342v-1696h-342zM360 1796l-59 117l-63 -117h-213l172 254h211l155 -254h-203z" glyph-name="Icircumflex" horiz-adv-x="587" unicode="Î"/><glyph d="M123 0v1696h342v-1696h-342zM-18 2032h231v-234h-231v234zM373 2032h235v-234h-235v234z" glyph-name="Idieresis" horiz-adv-x="587" unicode="Ï"/><glyph d="M10 707v282h113v707h665q82 0 138.5 -24.5t103.5 -77.5t47 -275v-942q0 -222 -47 -275t-103.5 -77.5t-138.5 -24.5h-665v707h-113zM623 1413h-158v-424h151v-282h-151v-424h158q61 0 86.5 36.5t25.5 110.5v836q0 74 -25.5 110.5t-86.5 36.5z" glyph-name="Eth" horiz-adv-x="1189" unicode="Ð"/><glyph d="M1100 0h-506l-164 1329v-1329h-307v1696h514l156 -1260v1260h307v-1696zM305 1866q97 166 208 166q58 0 112.5 -36t87.5 -36q70 0 94 76l135 -99q-78 -156 -201 -155q-53 0 -113.5 41t-84.5 41q-66 0 -105 -86z" glyph-name="Ntilde" horiz-adv-x="1222" unicode="Ñ"/><glyph d="M1067 1380v-1087q0 -162 -126 -245t-350 -83t-351 83t-127 245v1087q0 164 128 257.5t348 93.5t349 -93.5t129 -257.5zM455 1325v-952q0 -55 36.5 -90t98.5 -35t98.5 33.5t36.5 89.5v952q0 55 -37 90t-99 35t-98 -34t-36 -89zM528 1796l-168 346h277l70 -346h-179z" glyph-name="Ograve" unicode="Ò"/><glyph d="M1067 1380v-1087q0 -162 -126 -245t-350 -83t-351 83t-127 245v1087q0 164 128 257.5t348 93.5t349 -93.5t129 -257.5zM455 1325v-952q0 -55 36.5 -90t98.5 -35t98.5 33.5t36.5 89.5v952q0 55 -37 90t-99 35t-98 -34t-36 -89zM850 2142l-168 -346h-178l69 346h277z" glyph-name="Oacute" unicode="Ó"/><glyph d="M1067 1380v-1087q0 -162 -126 -245t-350 -83t-351 83t-127 245v1087q0 164 128 257.5t348 93.5t349 -93.5t129 -257.5zM455 1325v-952q0 -55 36.5 -90t98.5 -35t98.5 33.5t36.5 89.5v952q0 55 -37 90t-99 35t-98 -34t-36 -89zM655 1796l-59 117l-64 -117h-213l173 254 h210l156 -254h-203z" glyph-name="Ocircumflex" unicode="Ô"/><glyph d="M1067 1380v-1087q0 -162 -126 -245t-350 -83t-351 83t-127 245v1087q0 164 128 257.5t348 93.5t349 -93.5t129 -257.5zM455 1325v-952q0 -55 36.5 -90t98.5 -35t98.5 33.5t36.5 89.5v952q0 55 -37 90t-99 35t-98 -34t-36 -89zM270 1866q97 166 208 166q58 0 112.5 -36 t87.5 -36q70 0 94 76l135 -99q-78 -156 -200 -155q-53 0 -114 41t-85 41q-66 0 -105 -86z" glyph-name="Otilde" unicode="Õ"/><glyph d="M1067 1380v-1087q0 -162 -126 -245t-350 -83t-351 83t-127 245v1087q0 164 128 257.5t348 93.5t349 -93.5t129 -257.5zM455 1325v-952q0 -55 36.5 -90t98.5 -35t98.5 33.5t36.5 89.5v952q0 55 -37 90t-99 35t-98 -34t-36 -89zM276 2032h232v-234h-232v234zM668 2032h235 v-234h-235v234z" glyph-name="Odieresis" unicode="Ö"/><glyph d="M717 1286l201 -201l-238 -237l238 -238l-201 -200l-238 237l-237 -237l-201 200l238 238l-238 237l201 201l237 -237z" glyph-name="multiply" horiz-adv-x="958" unicode="×"/><glyph d="M1067 1380v-1087q0 -162 -126 -245t-351 -83q-125 0 -217 27l-25 -94h-55l29 108q-209 82 -209 287v1087q0 164 128 257.5t347 93.5q100 0 190 -23l25 90h55l-29 -106q113 -41 175.5 -121t62.5 -191zM590 248q63 0 99 33.5t36 89.5v932l-262 -977q27 -78 127 -78z M455 1325v-825l241 903q-35 45 -102 45t-103 -34t-36 -89z" glyph-name="Oslash" unicode="Ø"/><glyph d="M591 -35q-224 0 -351 83t-127 245v1403h342v-1323q0 -55 36.5 -90t98.5 -35t98.5 33.5t36.5 89.5v1325h342v-1403q0 -162 -126 -245t-350 -83zM504 1796l-168 346h276l70 -346h-178z" glyph-name="Ugrave" unicode="Ù"/><glyph d="M591 -35q-224 0 -351 83t-127 245v1403h342v-1323q0 -55 36.5 -90t98.5 -35t98.5 33.5t36.5 89.5v1325h342v-1403q0 -162 -126 -245t-350 -83zM840 2142l-168 -346h-178l69 346h277z" glyph-name="Uacute" unicode="Ú"/><glyph d="M591 -35q-224 0 -351 83t-127 245v1403h342v-1323q0 -55 36.5 -90t98.5 -35t98.5 33.5t36.5 89.5v1325h342v-1403q0 -162 -126 -245t-350 -83zM655 1796l-59 117l-64 -117h-213l173 254h210l156 -254h-203z" glyph-name="Ucircumflex" unicode="Û"/><glyph d="M591 -35q-224 0 -351 83t-127 245v1403h342v-1323q0 -55 36.5 -90t98.5 -35t98.5 33.5t36.5 89.5v1325h342v-1403q0 -162 -126 -245t-350 -83zM276 2032h232v-234h-232v234zM668 2032h235v-234h-235v234z" glyph-name="Udieresis" unicode="Ü"/><glyph d="M334 0v528l-324 1168h326l166 -738l168 738h327l-323 -1182v-514h-340zM754 2142l-168 -346h-178l69 346h277z" glyph-name="Yacute" horiz-adv-x="1007" unicode="Ý"/><glyph d="M123 0v1696h342v-314h323q82 0 138.5 -24.5t103.5 -76.5t47 -275v-312q0 -223 -47 -275t-103.5 -77t-138.5 -25h-323v-317h-342zM623 1100h-158v-500h158q61 0 86.5 38t25.5 112v202q0 74 -25.5 111t-86.5 37z" glyph-name="Thorn" horiz-adv-x="1159" unicode="Þ"/><glyph d="M1047 561v-268q0 -162 -127.5 -245t-351.5 -83t-350 83t-126 245v323h342v-245q0 -55 36 -89t98 -34t99.5 34.5t37.5 90.5v139q0 76 -63.5 130t-154 93t-179.5 85t-152.5 132t-63.5 207v221q0 164 128 257.5t348 93.5t349.5 -93.5t129.5 -257.5v-247h-342v190 q0 55 -37.5 90t-99.5 35t-98 -34t-36 -89v-100q0 -70 45 -118t114 -72.5t147.5 -60.5t147 -78t114 -128t45.5 -207zM2144 561v-268q0 -162 -127 -245t-351 -83t-350 83t-126 245v323h342v-245q0 -55 36 -89t98 -34t99 34.5t37 90.5v139q0 76 -63.5 130t-153.5 93t-179 85 t-152.5 132t-63.5 207v221q0 164 128 257.5t348 93.5t349 -93.5t129 -257.5v-247h-342v190q0 55 -37 90t-99 35t-98 -34t-36 -89v-100q0 -70 45 -118t113.5 -72.5t147.5 -60.5t147.5 -78t113.5 -128t45 -207z" glyph-name="germandbls" horiz-adv-x="2236" unicode="ß"/><glyph d="M510 1796l-168 346h276l70 -346h-178zM420 -27q-137 0 -232.5 95.5t-95.5 271.5v397q0 150 64.5 200t133 69.5t191.5 31t224 25.5v262q0 55 -36.5 89t-98.5 34t-99 -35t-37 -90v-190h-342v247q0 164 129 257.5t349 93.5t348.5 -93.5t128.5 -257.5v-1206q0 -125 18 -174 h-338q-10 23 -18 96q-55 -57 -135 -90t-154 -33zM434 629v-256q0 -55 37 -90t97 -35t96 28.5t41 77.5v426q-14 -2 -58.5 -8t-59 -9t-47 -11.5t-45 -17.5t-37 -28t-24.5 -77z" glyph-name="agrave" horiz-adv-x="1159" unicode="à"/><glyph d="M819 2142l-168 -346h-178l70 346h276zM420 -27q-137 0 -232.5 95.5t-95.5 271.5v397q0 150 64.5 200t133 69.5t191.5 31t224 25.5v262q0 55 -36.5 89t-98.5 34t-99 -35t-37 -90v-190h-342v247q0 164 129 257.5t349 93.5t348.5 -93.5t128.5 -257.5v-1206q0 -125 18 -174 h-338q-10 23 -18 96q-55 -57 -135 -90t-154 -33zM434 629v-256q0 -55 37 -90t97 -35t96 28.5t41 77.5v426q-14 -2 -58.5 -8t-59 -9t-47 -11.5t-45 -17.5t-37 -28t-24.5 -77z" glyph-name="aacute" horiz-adv-x="1159" unicode="á"/><glyph d="M635 1796l-60 117l-63 -117h-213l172 254h211l156 -254h-203zM420 -27q-137 0 -232.5 95.5t-95.5 271.5v397q0 150 64.5 200t133 69.5t191.5 31t224 25.5v262q0 55 -36.5 89t-98.5 34t-99 -35t-37 -90v-190h-342v247q0 164 129 257.5t349 93.5t348.5 -93.5t128.5 -257.5 v-1206q0 -125 18 -174h-338q-10 23 -18 96q-55 -57 -135 -90t-154 -33zM434 629v-256q0 -55 37 -90t97 -35t96 28.5t41 77.5v426q-14 -2 -58.5 -8t-59 -9t-47 -11.5t-45 -17.5t-37 -28t-24.5 -77z" glyph-name="acircumflex" horiz-adv-x="1159" unicode="â"/><glyph d="M246 1866q98 166 208 166q58 0 112 -36t87 -36q70 0 95 76l135 -99q-78 -156 -201 -155q-53 0 -113.5 41t-85.5 41q-66 0 -104 -86zM420 -27q-137 0 -232.5 95.5t-95.5 271.5v397q0 150 64.5 200t133 69.5t191.5 31t224 25.5v262q0 55 -36.5 89t-98.5 34t-99 -35t-37 -90 v-190h-342v247q0 164 129 257.5t349 93.5t348.5 -93.5t128.5 -257.5v-1206q0 -125 18 -174h-338q-10 23 -18 96q-55 -57 -135 -90t-154 -33zM434 629v-256q0 -55 37 -90t97 -35t96 28.5t41 77.5v426q-14 -2 -58.5 -8t-59 -9t-47 -11.5t-45 -17.5t-37 -28t-24.5 -77z" glyph-name="atilde" horiz-adv-x="1159" unicode="ã"/><glyph d="M254 2032h231v-234h-231v234zM645 2032h236v-234h-236v234zM420 -27q-137 0 -232.5 95.5t-95.5 271.5v397q0 150 64.5 200t133 69.5t191.5 31t224 25.5v262q0 55 -36.5 89t-98.5 34t-99 -35t-37 -90v-190h-342v247q0 164 129 257.5t349 93.5t348.5 -93.5t128.5 -257.5 v-1206q0 -125 18 -174h-338q-10 23 -18 96q-55 -57 -135 -90t-154 -33zM434 629v-256q0 -55 37 -90t97 -35t96 28.5t41 77.5v426q-14 -2 -58.5 -8t-59 -9t-47 -11.5t-45 -17.5t-37 -28t-24.5 -77z" glyph-name="adieresis" horiz-adv-x="1159" unicode="ä"/><glyph d="M764 1974v-32q0 -84 -44 -123t-152 -39t-152.5 39t-44.5 123v32q0 86 45 130t149 44q199 0 199 -174zM477 1966q0 -39 24.5 -63.5t66.5 -24.5t65.5 23.5t23.5 62.5t-24.5 62.5t-66.5 23.5t-65.5 -22.5t-23.5 -61.5zM420 -27q-137 0 -232.5 95.5t-95.5 271.5v397 q0 150 64.5 200t133 69.5t191.5 31t224 25.5v262q0 55 -36.5 89t-98.5 34t-99 -35t-37 -90v-190h-342v247q0 164 129 257.5t349 93.5t348.5 -93.5t128.5 -257.5v-1206q0 -125 18 -174h-338q-10 23 -18 96q-55 -57 -135 -90t-154 -33zM434 629v-256q0 -55 37 -90t97 -35 t96 28.5t41 77.5v426q-14 -2 -58.5 -8t-59 -9t-47 -11.5t-45 -17.5t-37 -28t-24.5 -77z" glyph-name="aring" horiz-adv-x="1159" unicode="å"/><glyph d="M1679 733h-612v-371q4 -51 40 -82.5t97 -31.5t97 33.5t36 89.5v245h342v-323q0 -162 -126 -245t-351 -83q-338 0 -440 178q-46 -103 -144.5 -136.5t-177.5 -33.5q-137 0 -232 95.5t-95 271.5v397q0 150 64.5 200t133 69.5t194.5 31t220 25.5v262q0 55 -36 89t-98 34 t-99 -35t-37 -90v-190h-342v247q0 164 129.5 257.5t329.5 93.5t323 -68q125 68 325 68t329.5 -93.5t129.5 -257.5v-647zM455 629v-256q0 -55 36.5 -90t96.5 -35t96.5 30.5t40.5 81.5v420q-14 -2 -58 -8t-58.5 -9t-47.5 -11.5t-45 -17.5t-36.5 -28t-24.5 -77zM1067 1016h270 v307q0 55 -36.5 90t-98.5 35t-96.5 -31t-38.5 -82v-319z" glyph-name="ae" horiz-adv-x="1792" unicode="æ"/><glyph d="M561 -172h-22v139q-201 10 -313.5 92t-112.5 234v1087q0 164 128 257.5t348 93.5t349 -93.5t129 -257.5v-364h-342v307q0 55 -37 90t-99 35t-98 -34t-36 -89v-952q0 -55 36.5 -90t98.5 -35t98.5 33.5t36.5 89.5v364h342v-442q0 -150 -110.5 -233t-311.5 -93v-69 q59 -2 94 -35t35 -93t-55 -109.5t-125 -49.5t-120 37t-68 104h133q18 -37 49 -37q51 0 51 54q0 59 -78 59z" glyph-name="ccedilla" unicode="ç"/><glyph d="M1067 733h-612v-360q0 -55 36.5 -90t98.5 -35t98.5 33.5t36.5 89.5v245h342v-323q0 -162 -126 -245t-350 -83t-351 83t-127 245v1087q0 164 128 257.5t348 93.5t349 -93.5t129 -257.5v-647zM455 1325v-309h270v307q0 55 -37 90t-99 35t-98 -34t-36 -89zM535 1796 l-168 346h276l70 -346h-178z" glyph-name="egrave" unicode="è"/><glyph d="M1067 733h-612v-360q0 -55 36.5 -90t98.5 -35t98.5 33.5t36.5 89.5v245h342v-323q0 -162 -126 -245t-350 -83t-351 83t-127 245v1087q0 164 128 257.5t348 93.5t349 -93.5t129 -257.5v-647zM455 1325v-309h270v307q0 55 -37 90t-99 35t-98 -34t-36 -89zM846 2142 l-168 -346h-178l69 346h277z" glyph-name="eacute" unicode="é"/><glyph d="M1067 733h-612v-360q0 -55 36.5 -90t98.5 -35t98.5 33.5t36.5 89.5v245h342v-323q0 -162 -126 -245t-350 -83t-351 83t-127 245v1087q0 164 128 257.5t348 93.5t349 -93.5t129 -257.5v-647zM455 1325v-309h270v307q0 55 -37 90t-99 35t-98 -34t-36 -89zM655 1796l-59 117 l-64 -117h-213l173 254h210l156 -254h-203z" glyph-name="ecircumflex" unicode="ê"/><glyph d="M1067 733h-612v-360q0 -55 36.5 -90t98.5 -35t98.5 33.5t36.5 89.5v245h342v-323q0 -162 -126 -245t-350 -83t-351 83t-127 245v1087q0 164 128 257.5t348 93.5t349 -93.5t129 -257.5v-647zM455 1325v-309h270v307q0 55 -37 90t-99 35t-98 -34t-36 -89zM276 2032h232 v-234h-232v234zM668 2032h235v-234h-235v234z" glyph-name="edieresis" unicode="ë"/><glyph d="M123 0v1696h342v-1696h-342zM213 1796l-168 346h277l69 -346h-178z" glyph-name="igrave" horiz-adv-x="587" unicode="ì"/><glyph d="M123 0v1696h342v-1696h-342zM547 2142l-168 -346h-178l69 346h277z" glyph-name="iacute" horiz-adv-x="587" unicode="í"/><glyph d="M123 0v1696h342v-1696h-342zM360 1796l-59 117l-63 -117h-213l172 254h211l155 -254h-203z" glyph-name="icircumflex" horiz-adv-x="587" unicode="î"/><glyph d="M123 0v1696h342v-1696h-342zM-18 2032h231v-234h-231v234zM373 2032h235v-234h-235v234z" glyph-name="idieresis" horiz-adv-x="587" unicode="ï"/><glyph d="M10 707v282h113v707h665q82 0 138.5 -24.5t103.5 -77.5t47 -275v-942q0 -222 -47 -275t-103.5 -77.5t-138.5 -24.5h-665v707h-113zM623 1413h-158v-424h151v-282h-151v-424h158q61 0 86.5 36.5t25.5 110.5v836q0 74 -25.5 110.5t-86.5 36.5z" glyph-name="eth" horiz-adv-x="1189" unicode="ð"/><glyph d="M465 0h-342v1696h338l4 -101q115 127 285 127q137 0 232 -95t95 -271v-1356h-342v1323q0 55 -36.5 90t-96.5 35t-96.5 -31t-40.5 -82v-1335zM276 1866q96 166 208 166q58 0 112.5 -36t87.5 -36q70 0 94 76l135 -99q-78 -156 -200 -155q-53 0 -113.5 41t-85.5 41 q-66 0 -104 -86z" glyph-name="ntilde" horiz-adv-x="1189" unicode="ñ"/><glyph d="M1067 1380v-1087q0 -162 -126 -245t-350 -83t-351 83t-127 245v1087q0 164 128 257.5t348 93.5t349 -93.5t129 -257.5zM455 1325v-952q0 -55 36.5 -90t98.5 -35t98.5 33.5t36.5 89.5v952q0 55 -37 90t-99 35t-98 -34t-36 -89zM528 1796l-168 346h277l70 -346h-179z" glyph-name="ograve" unicode="ò"/><glyph d="M1067 1380v-1087q0 -162 -126 -245t-350 -83t-351 83t-127 245v1087q0 164 128 257.5t348 93.5t349 -93.5t129 -257.5zM455 1325v-952q0 -55 36.5 -90t98.5 -35t98.5 33.5t36.5 89.5v952q0 55 -37 90t-99 35t-98 -34t-36 -89zM850 2142l-168 -346h-178l69 346h277z" glyph-name="oacute" unicode="ó"/><glyph d="M1067 1380v-1087q0 -162 -126 -245t-350 -83t-351 83t-127 245v1087q0 164 128 257.5t348 93.5t349 -93.5t129 -257.5zM455 1325v-952q0 -55 36.5 -90t98.5 -35t98.5 33.5t36.5 89.5v952q0 55 -37 90t-99 35t-98 -34t-36 -89zM655 1796l-59 117l-64 -117h-213l173 254 h210l156 -254h-203z" glyph-name="ocircumflex" unicode="ô"/><glyph d="M1067 1380v-1087q0 -162 -126 -245t-350 -83t-351 83t-127 245v1087q0 164 128 257.5t348 93.5t349 -93.5t129 -257.5zM455 1325v-952q0 -55 36.5 -90t98.5 -35t98.5 33.5t36.5 89.5v952q0 55 -37 90t-99 35t-98 -34t-36 -89zM270 1866q97 166 208 166q58 0 112.5 -36 t87.5 -36q70 0 94 76l135 -99q-78 -156 -200 -155q-53 0 -114 41t-85 41q-66 0 -105 -86z" glyph-name="otilde" unicode="õ"/><glyph d="M1067 1380v-1087q0 -162 -126 -245t-350 -83t-351 83t-127 245v1087q0 164 128 257.5t348 93.5t349 -93.5t129 -257.5zM455 1325v-952q0 -55 36.5 -90t98.5 -35t98.5 33.5t36.5 89.5v952q0 55 -37 90t-99 35t-98 -34t-36 -89zM276 2032h232v-234h-232v234zM668 2032h235 v-234h-235v234z" glyph-name="odieresis" unicode="ö"/><glyph d="M346 219v352h342v-352h-342zM346 1124v355h342v-355h-342zM41 707v282h954v-282h-954z" glyph-name="divide" horiz-adv-x="1036" unicode="÷"/><glyph d="M1067 1380v-1087q0 -162 -126 -245t-351 -83q-125 0 -217 27l-25 -94h-55l29 108q-209 82 -209 287v1087q0 164 128 257.5t347 93.5q100 0 190 -23l25 90h55l-29 -106q113 -41 175.5 -121t62.5 -191zM590 248q63 0 99 33.5t36 89.5v932l-262 -977q27 -78 127 -78z M455 1325v-825l241 903q-35 45 -102 45t-103 -34t-36 -89z" glyph-name="oslash" unicode="ø"/><glyph d="M508 1796l-168 346h276l70 -346h-178zM725 1696h342v-1696h-342v100q-115 -127 -285 -127q-137 0 -232 95.5t-95 271.5v1356h342v-1323q0 -55 36.5 -90t96.5 -35t96.5 30.5t40.5 81.5v1336z" glyph-name="ugrave" horiz-adv-x="1189" unicode="ù"/><glyph d="M725 1696h342v-1696h-342v100q-115 -127 -285 -127q-137 0 -232 95.5t-95 271.5v1356h342v-1323q0 -55 36.5 -90t96.5 -35t96.5 30.5t40.5 81.5v1336zM840 2142l-168 -346h-178l69 346h277z" glyph-name="uacute" horiz-adv-x="1189" unicode="ú"/><glyph d="M725 1696h342v-1696h-342v100q-115 -127 -285 -127q-137 0 -232 95.5t-95 271.5v1356h342v-1323q0 -55 36.5 -90t96.5 -35t96.5 30.5t40.5 81.5v1336zM662 1796l-60 117l-63 -117h-213l172 254h211l155 -254h-202z" glyph-name="ucircumflex" horiz-adv-x="1189" unicode="û"/><glyph d="M725 1696h342v-1696h-342v100q-115 -127 -285 -127q-137 0 -232 95.5t-95 271.5v1356h342v-1323q0 -55 36.5 -90t96.5 -35t96.5 30.5t40.5 81.5v1336zM281 2032h231v-234h-231v234zM672 2032h235v-234h-235v234z" glyph-name="udieresis" horiz-adv-x="1189" unicode="ü"/><glyph d="M850 2142l-168 -346h-178l69 346h277zM455 1386v-286q0 -55 36.5 -90t96.5 -35t96.5 30.5t40.5 81.5v609h342v-1403q0 -162 -126 -245t-350 -83t-351 83t-127 245v321h342v-241q0 -55 36.5 -90t98.5 -35t98.5 33.5t36.5 89.5v385q-102 -86 -285 -86q-137 0 -232 95 t-95 271v420q0 190 -19 240h338q23 -53 23 -310z" glyph-name="yacute" unicode="ý"/><glyph d="M123 0v1696h342v-314h323q82 0 138.5 -24.5t103.5 -76.5t47 -275v-312q0 -223 -47 -275t-103.5 -77t-138.5 -25h-323v-317h-342zM623 1100h-158v-500h158q61 0 86.5 38t25.5 112v202q0 74 -25.5 111t-86.5 37z" glyph-name="thorn" horiz-adv-x="1159" unicode="þ"/><glyph d="M276 2032h232v-234h-232v234zM668 2032h235v-234h-235v234zM455 1386v-286q0 -55 36.5 -90t96.5 -35t96.5 30.5t40.5 81.5v609h342v-1403q0 -162 -126 -245t-350 -83t-351 83t-127 245v321h342v-241q0 -55 36.5 -90t98.5 -35t98.5 33.5t36.5 89.5v385q-102 -86 -285 -86 q-137 0 -232 95t-95 271v420q0 190 -19 240h338q23 -53 23 -310z" glyph-name="ydieresis" unicode="ÿ"/><glyph d="M10 0l223 1696h594l224 -1696h-340l-43 344h-275l-41 -344h-342zM530 1462l-102 -835h205zM143 1812v242h750v-242h-750z" glyph-name="Amacron" horiz-adv-x="1060" unicode="Ā"/><glyph d="M205 1812v242h749v-242h-749zM420 -27q-137 0 -232.5 95.5t-95.5 271.5v397q0 150 64.5 200t133 69.5t191.5 31t224 25.5v262q0 55 -36.5 89t-98.5 34t-99 -35t-37 -90v-190h-342v247q0 164 129 257.5t349 93.5t348.5 -93.5t128.5 -257.5v-1206q0 -125 18 -174h-338 q-10 23 -18 96q-55 -57 -135 -90t-154 -33zM434 629v-256q0 -55 37 -90t97 -35t96 28.5t41 77.5v426q-14 -2 -58.5 -8t-59 -9t-47 -11.5t-45 -17.5t-37 -28t-24.5 -77z" glyph-name="amacron" horiz-adv-x="1159" unicode="ā"/><glyph d="M10 0l223 1696h594l224 -1696h-340l-43 344h-275l-41 -344h-342zM530 1462l-102 -835h205zM530 1796q-168 0 -250.5 75t-82.5 212h178q0 -57 40 -92t115 -35q156 0 156 127h178q0 -287 -334 -287z" glyph-name="Abreve" horiz-adv-x="1060" unicode="Ă"/><glyph d="M580 1796q-168 0 -251 75t-83 212h178q0 -57 40 -92t116 -35q156 0 155 127h178q1 -287 -333 -287zM420 -27q-137 0 -232.5 95.5t-95.5 271.5v397q0 150 64.5 200t133 69.5t191.5 31t224 25.5v262q0 55 -36.5 89t-98.5 34t-99 -35t-37 -90v-190h-342v247q0 164 129 257.5 t349 93.5t348.5 -93.5t128.5 -257.5v-1206q0 -125 18 -174h-338q-10 23 -18 96q-55 -57 -135 -90t-154 -33zM434 629v-256q0 -55 37 -90t97 -35t96 28.5t41 77.5v426q-14 -2 -58.5 -8t-59 -9t-47 -11.5t-45 -17.5t-37 -28t-24.5 -77z" glyph-name="abreve" horiz-adv-x="1159" unicode="ă"/><glyph d="M885 -299q-74 0 -122 38.5t-48 108.5t88 152h-92l-43 344h-275l-41 -344h-342l223 1696h594l224 -1696h-115q-90 -84 -90 -133q0 -57 65 -57q44 -1 103 22l37 -90q-92 -41 -166 -41zM530 1462l-102 -835h205z" glyph-name="Aogonek" horiz-adv-x="1060" unicode="Ą"/><glyph d="M420 -27q-137 0 -232.5 95.5t-95.5 271.5v397q0 150 64.5 200t133 69.5t191.5 31t224 25.5v262q0 55 -36.5 89t-98.5 34t-99 -35t-37 -90v-190h-342v247q0 164 129 257.5t349 93.5t348.5 -93.5t128.5 -257.5v-1206q0 -125 18 -174h-119q-90 -84 -90 -133q0 -57 66 -57 q43 0 102 22l37 -90q-92 -41 -166 -41t-122 38.5t-48 108.5t88 152h-86q-10 23 -18 96q-55 -57 -135 -90t-154 -33zM434 629v-256q0 -55 37 -90t97 -35t96 28.5t41 77.5v426q-14 -2 -58.5 -8t-59 -9t-47 -11.5t-45 -17.5t-37 -28t-24.5 -77z" glyph-name="aogonek" horiz-adv-x="1159" unicode="ą"/><glyph d="M455 1325v-952q0 -55 36.5 -90t98.5 -35t98.5 33.5t36.5 89.5v364h342v-442q0 -162 -126 -245t-350 -83t-351 83t-127 245v1087q0 164 128 257.5t348 93.5t349 -93.5t129 -257.5v-364h-342v307q0 55 -37 90t-99 35t-98 -34t-36 -89zM836 2142l-168 -346h-179l70 346h277z " glyph-name="Cacute" unicode="Ć"/><glyph d="M455 1325v-952q0 -55 36.5 -90t98.5 -35t98.5 33.5t36.5 89.5v364h342v-442q0 -162 -126 -245t-350 -83t-351 83t-127 245v1087q0 164 128 257.5t348 93.5t349 -93.5t129 -257.5v-364h-342v307q0 55 -37 90t-99 35t-98 -34t-36 -89zM823 2142l-168 -346h-178l70 346h276z " glyph-name="cacute" unicode="ć"/><glyph d="M455 1325v-952q0 -55 36.5 -90t98.5 -35t98.5 33.5t36.5 89.5v364h342v-442q0 -162 -126 -245t-350 -83t-351 83t-127 245v1087q0 164 128 257.5t348 93.5t349 -93.5t129 -257.5v-364h-342v307q0 55 -37 90t-99 35t-98 -34t-36 -89zM655 1796l-59 117l-64 -117h-213 l173 254h210l156 -254h-203z" glyph-name="Ccircumflex" unicode="Ĉ"/><glyph d="M455 1325v-952q0 -55 36.5 -90t98.5 -35t98.5 33.5t36.5 89.5v364h342v-442q0 -162 -126 -245t-350 -83t-351 83t-127 245v1087q0 164 128 257.5t348 93.5t349 -93.5t129 -257.5v-364h-342v307q0 55 -37 90t-99 35t-98 -34t-36 -89zM655 1796l-59 117l-64 -117h-213 l173 254h210l156 -254h-203z" glyph-name="ccircumflex" unicode="ĉ"/><glyph d="M455 1325v-952q0 -55 36.5 -90t98.5 -35t98.5 33.5t36.5 89.5v364h342v-442q0 -162 -126 -245t-350 -83t-351 83t-127 245v1087q0 164 128 257.5t348 93.5t349 -93.5t129 -257.5v-364h-342v307q0 55 -37 90t-99 35t-98 -34t-36 -89zM471 2032h236v-234h-236v234z" glyph-name="Cdotaccent" unicode="Ċ"/><glyph d="M455 1325v-952q0 -55 36.5 -90t98.5 -35t98.5 33.5t36.5 89.5v364h342v-442q0 -162 -126 -245t-350 -83t-351 83t-127 245v1087q0 164 128 257.5t348 93.5t349 -93.5t129 -257.5v-364h-342v307q0 55 -37 90t-99 35t-98 -34t-36 -89zM471 2032h236v-234h-236v234z" glyph-name="cdotaccent" unicode="ċ"/><glyph d="M455 1325v-952q0 -55 36.5 -90t98.5 -35t98.5 33.5t36.5 89.5v364h342v-442q0 -162 -126 -245t-350 -83t-351 83t-127 245v1087q0 164 128 257.5t348 93.5t349 -93.5t129 -257.5v-364h-342v307q0 55 -37 90t-99 35t-98 -34t-36 -89zM596 1933l59 117h203l-156 -254h-210 l-173 254h213z" glyph-name="Ccaron" unicode="Č"/><glyph d="M455 1325v-952q0 -55 36.5 -90t98.5 -35t98.5 33.5t36.5 89.5v364h342v-442q0 -162 -126 -245t-350 -83t-351 83t-127 245v1087q0 164 128 257.5t348 93.5t349 -93.5t129 -257.5v-364h-342v307q0 55 -37 90t-99 35t-98 -34t-36 -89zM596 1933l59 117h203l-156 -254h-210 l-173 254h213z" glyph-name="ccaron" unicode="č"/><glyph d="M123 0v1696h665q82 0 138.5 -24.5t103.5 -77.5t47 -275v-942q0 -222 -47 -275t-103.5 -77.5t-138.5 -24.5h-665zM623 1413h-158v-1130h158q61 0 86.5 36.5t25.5 110.5v836q0 74 -25.5 110.5t-86.5 36.5zM588 1933l59 117h203l-156 -254h-211l-172 254h213z" glyph-name="Dcaron" horiz-adv-x="1189" unicode="Ď"/><glyph d="M123 0v1696h665q82 0 138.5 -24.5t103.5 -77.5t47 -275v-942q0 -222 -47 -275t-103.5 -77.5t-138.5 -24.5h-665zM623 1413h-158v-1130h158q61 0 86.5 36.5t25.5 110.5v836q0 74 -25.5 110.5t-86.5 36.5zM588 1933l59 117h203l-156 -254h-211l-172 254h213z" glyph-name="dcaron" horiz-adv-x="1189" unicode="ď"/><glyph d="M10 707v282h113v707h665q82 0 138.5 -24.5t103.5 -77.5t47 -275v-942q0 -222 -47 -275t-103.5 -77.5t-138.5 -24.5h-665v707h-113zM623 1413h-158v-424h151v-282h-151v-424h158q61 0 86.5 36.5t25.5 110.5v836q0 74 -25.5 110.5t-86.5 36.5z" glyph-name="Dcroat" horiz-adv-x="1189" unicode="Đ"/><glyph d="M10 707v282h113v707h665q82 0 138.5 -24.5t103.5 -77.5t47 -275v-942q0 -222 -47 -275t-103.5 -77.5t-138.5 -24.5h-665v707h-113zM623 1413h-158v-424h151v-282h-151v-424h158q61 0 86.5 36.5t25.5 110.5v836q0 74 -25.5 110.5t-86.5 36.5z" glyph-name="dcroat" horiz-adv-x="1189" unicode="đ"/><glyph d="M881 1413h-416v-397h403v-283h-403v-450h416v-283h-758v1696h758v-283zM123 1812v242h749v-242h-749z" glyph-name="Emacron" horiz-adv-x="952" unicode="Ē"/><glyph d="M1067 733h-612v-360q0 -55 36.5 -90t98.5 -35t98.5 33.5t36.5 89.5v245h342v-323q0 -162 -126 -245t-350 -83t-351 83t-127 245v1087q0 164 128 257.5t348 93.5t349 -93.5t129 -257.5v-647zM455 1325v-309h270v307q0 55 -37 90t-99 35t-98 -34t-36 -89zM215 1812v242h750 v-242h-750z" glyph-name="emacron" unicode="ē"/><glyph d="M651 2083h178q0 -287 -333 -287q-168 0 -251 75t-83 212h178q0 -57 40 -92t116 -35q155 0 155 127zM881 1413h-416v-397h403v-283h-403v-450h416v-283h-758v1696h758v-283z" glyph-name="Ebreve" horiz-adv-x="952" unicode="Ĕ"/><glyph d="M1067 733h-612v-360q0 -55 36.5 -90t98.5 -35t98.5 33.5t36.5 89.5v245h342v-323q0 -162 -126 -245t-350 -83t-351 83t-127 245v1087q0 164 128 257.5t348 93.5t349 -93.5t129 -257.5v-647zM455 1325v-309h270v307q0 55 -37 90t-99 35t-98 -34t-36 -89zM590 1796 q-168 0 -251 75t-83 212h178q0 -57 40 -92t116 -35q156 0 155 127h179q0 -287 -334 -287z" glyph-name="ebreve" unicode="ĕ"/><glyph d="M881 1413h-416v-397h403v-283h-403v-450h416v-283h-758v1696h758v-283zM416 2032h235v-234h-235v234z" glyph-name="Edotaccent" horiz-adv-x="952" unicode="Ė"/><glyph d="M1067 733h-612v-360q0 -55 36.5 -90t98.5 -35t98.5 33.5t36.5 89.5v245h342v-323q0 -162 -126 -245t-350 -83t-351 83t-127 245v1087q0 164 128 257.5t348 93.5t349 -93.5t129 -257.5v-647zM455 1325v-309h270v307q0 55 -37 90t-99 35t-98 -34t-36 -89zM471 2032h236 v-234h-236v234z" glyph-name="edotaccent" unicode="ė"/><glyph d="M654 -299q-74 0 -122.5 38.5t-48.5 108.5t88 152h-448v1696h758v-283h-416v-397h403v-283h-403v-450h416v-283h-176q-91 -84 -91 -137t66 -53q43 -1 102 22l37 -90q-91 -41 -165 -41z" glyph-name="Eogonek" horiz-adv-x="952" unicode="Ę"/><glyph d="M514 -172q0 70 74 137q-223 2 -349 85t-126 243v1087q0 164 128 257.5t348 93.5t349 -93.5t129 -257.5v-647h-612v-360q0 -55 36.5 -90t98.5 -35t98.5 33.5t36.5 89.5v245h342v-323q0 -135 -88 -215t-250 -103q-84 -84 -84 -129q0 -57 66 -57q43 0 102 23l37 -91 q-186 -83 -261 -23t-75 130zM455 1325v-309h270v307q0 55 -37 90t-99 35t-98 -34t-36 -89z" glyph-name="eogonek" unicode="ę"/><glyph d="M881 1413h-416v-397h403v-283h-403v-450h416v-283h-758v1696h758v-283zM530 1933l60 117h203l-156 -254h-211l-172 254h213z" glyph-name="Ecaron" horiz-adv-x="952" unicode="Ě"/><glyph d="M1067 733h-612v-360q0 -55 36.5 -90t98.5 -35t98.5 33.5t36.5 89.5v245h342v-323q0 -162 -126 -245t-350 -83t-351 83t-127 245v1087q0 164 128 257.5t348 93.5t349 -93.5t129 -257.5v-647zM455 1325v-309h270v307q0 55 -37 90t-99 35t-98 -34t-36 -89zM596 1933l59 117 h203l-156 -254h-210l-173 254h213z" glyph-name="ecaron" unicode="ě"/><glyph d="M1067 0h-141l-23 125q-41 -76 -127 -118t-186 -42q-223 0 -350 83t-127 245v1087q0 164 128 257.5t348 93.5t349 -93.5t129 -257.5v-295h-342v238q0 55 -37 90t-99 35t-98 -34t-36 -89v-952q0 -55 36.5 -90t98.5 -35t98.5 33.5t36.5 89.5v305h-137v282h479v-958z M655 1796l-59 117l-64 -117h-213l173 254h210l156 -254h-203z" glyph-name="Gcircumflex" unicode="Ĝ"/><glyph d="M1067 0h-141l-23 125q-41 -76 -127 -118t-186 -42q-223 0 -350 83t-127 245v1087q0 164 128 257.5t348 93.5t349 -93.5t129 -257.5v-295h-342v238q0 55 -37 90t-99 35t-98 -34t-36 -89v-952q0 -55 36.5 -90t98.5 -35t98.5 33.5t36.5 89.5v305h-137v282h479v-958z M655 1796l-59 117l-64 -117h-213l173 254h210l156 -254h-203z" glyph-name="gcircumflex" unicode="ĝ"/><glyph d="M1067 0h-141l-23 125q-41 -76 -127 -118t-186 -42q-223 0 -350 83t-127 245v1087q0 164 128 257.5t348 93.5t349 -93.5t129 -257.5v-295h-342v238q0 55 -37 90t-99 35t-98 -34t-36 -89v-952q0 -55 36.5 -90t98.5 -35t98.5 33.5t36.5 89.5v305h-137v282h479v-958z M590 1796q-168 0 -251 75t-83 212h178q0 -57 40 -92t116 -35q156 0 155 127h179q0 -287 -334 -287z" glyph-name="Gbreve" unicode="Ğ"/><glyph d="M1067 0h-141l-23 125q-41 -76 -127 -118t-186 -42q-223 0 -350 83t-127 245v1087q0 164 128 257.5t348 93.5t349 -93.5t129 -257.5v-295h-342v238q0 55 -37 90t-99 35t-98 -34t-36 -89v-952q0 -55 36.5 -90t98.5 -35t98.5 33.5t36.5 89.5v305h-137v282h479v-958z M590 1796q-168 0 -251 75t-83 212h178q0 -57 40 -92t116 -35q156 0 155 127h179q0 -287 -334 -287z" glyph-name="gbreve" unicode="ğ"/><glyph d="M1067 0h-141l-23 125q-41 -76 -127 -118t-186 -42q-223 0 -350 83t-127 245v1087q0 164 128 257.5t348 93.5t349 -93.5t129 -257.5v-295h-342v238q0 55 -37 90t-99 35t-98 -34t-36 -89v-952q0 -55 36.5 -90t98.5 -35t98.5 33.5t36.5 89.5v305h-137v282h479v-958z M471 2032h236v-234h-236v234z" glyph-name="Gdotaccent" unicode="Ġ"/><glyph d="M1067 0h-141l-23 125q-41 -76 -127 -118t-186 -42q-223 0 -350 83t-127 245v1087q0 164 128 257.5t348 93.5t349 -93.5t129 -257.5v-295h-342v238q0 55 -37 90t-99 35t-98 -34t-36 -89v-952q0 -55 36.5 -90t98.5 -35t98.5 33.5t36.5 89.5v305h-137v282h479v-958z M471 2032h236v-234h-236v234z" glyph-name="gdotaccent" unicode="ġ"/><glyph d="M1067 0h-141l-23 125q-41 -76 -127 -118t-186 -42q-223 0 -350 83t-127 245v1087q0 164 128 257.5t348 93.5t349 -93.5t129 -257.5v-295h-342v238q0 55 -37 90t-99 35t-98 -34t-36 -89v-952q0 -55 36.5 -90t98.5 -35t98.5 33.5t36.5 89.5v305h-137v282h479v-958z M760 -119v-352l-342 -246l149 246h-149v352h342z" glyph-name="Gcommaaccent" unicode="Ģ"/><glyph d="M1067 0h-141l-23 125q-41 -76 -127 -118t-186 -42q-223 0 -350 83t-127 245v1087q0 164 128 257.5t348 93.5t349 -93.5t129 -257.5v-295h-342v238q0 55 -37 90t-99 35t-98 -34t-36 -89v-952q0 -55 36.5 -90t98.5 -35t98.5 33.5t36.5 89.5v305h-137v282h479v-958z M760 -119v-352l-342 -246l149 246h-149v352h342z" glyph-name="gcommaaccent" unicode="ģ"/><glyph d="M735 0v733h-270v-733h-342v1696h342v-680h270v680h342v-1696h-342zM666 1796l-60 117l-63 -117h-213l172 254h211l155 -254h-202z" glyph-name="Hcircumflex" horiz-adv-x="1200" unicode="Ĥ"/><glyph d="M735 0v733h-270v-733h-342v1696h342v-680h270v680h342v-1696h-342zM666 1796l-60 117l-63 -117h-213l172 254h211l155 -254h-202z" glyph-name="hcircumflex" horiz-adv-x="1200" unicode="ĥ"/><glyph d="M20 1225v241h103v230h342v-230h270v230h342v-230h103v-241h-103v-1225h-342v733h-270v-733h-342v1225h-103zM465 1016h270v209h-270v-209z" glyph-name="Hbar" horiz-adv-x="1200" unicode="Ħ"/><glyph d="M20 1225v241h103v230h342v-230h270v230h342v-230h103v-241h-103v-1225h-342v733h-270v-733h-342v1225h-103zM465 1016h270v209h-270v-209z" glyph-name="hbar" horiz-adv-x="1200" unicode="ħ"/><glyph d="M123 0v1696h342v-1696h-342zM-25 1845q97 166 208 166q58 0 112.5 -36t87.5 -36q70 0 94 76l135 -98q-78 -156 -200 -156q-53 0 -113.5 41t-85.5 41q-66 0 -104 -86z" glyph-name="Itilde" horiz-adv-x="587" unicode="Ĩ"/><glyph d="M123 0v1696h342v-1696h-342zM-25 1845q97 166 208 166q58 0 112.5 -36t87.5 -36q70 0 94 76l135 -98q-78 -156 -200 -156q-53 0 -113.5 41t-85.5 41q-66 0 -104 -86z" glyph-name="itilde" horiz-adv-x="587" unicode="ĩ"/><glyph d="M123 0v1696h342v-1696h-342zM-80 1812v242h750v-242h-750z" glyph-name="Imacron" horiz-adv-x="587" unicode="Ī"/><glyph d="M123 0v1696h342v-1696h-342zM-80 1812v242h750v-242h-750z" glyph-name="imacron" horiz-adv-x="587" unicode="ī"/><glyph d="M465 0h-342v1696h342v-1696zM451 2083h178q0 -287 -334 -287q-168 0 -251 75t-83 212h178q0 -57 40 -92t116 -35q156 0 156 127z" glyph-name="Ibreve" horiz-adv-x="587" unicode="Ĭ"/><glyph d="M465 0h-342v1696h342v-1696zM451 2083h178q0 -287 -334 -287q-168 0 -251 75t-83 212h178q0 -57 40 -92t116 -35q156 0 156 127z" glyph-name="ibreve" horiz-adv-x="587" unicode="ĭ"/><glyph d="M123 0v1696h342v-1696h-96q-90 -84 -90 -133q0 -57 65 -57q43 0 102 22l37 -90q-91 -41 -165 -41t-122.5 38.5t-48.5 108.5t89 152h-113z" glyph-name="Iogonek" horiz-adv-x="587" unicode="Į"/><glyph d="M123 0v1696h342v-1696h-96q-90 -84 -90 -133q0 -57 65 -57q43 0 102 22l37 -90q-91 -41 -165 -41t-122.5 38.5t-48.5 108.5t89 152h-113z" glyph-name="iogonek" horiz-adv-x="587" unicode="į"/><glyph d="M123 0v1696h342v-1696h-342zM176 2032h236v-234h-236v234z" glyph-name="Idotaccent" horiz-adv-x="587" unicode="İ"/><glyph d="M123 0v1696h342v-1696h-342z" glyph-name="dotlessi" horiz-adv-x="587" unicode="ı"/><glyph d="M123 0v1696h342v-1696h-342zM1082 -35q-433 0 -433 328v440h342v-360q0 -63 17.5 -94t75 -31t74 29.5t16.5 93.5v1325h342v-1403q-1 -328 -434 -328z" glyph-name="IJ" horiz-adv-x="1628" unicode="Ĳ"/><glyph d="M123 0v1696h342v-1696h-342zM1082 -35q-433 0 -433 328v440h342v-360q0 -63 17.5 -94t75 -31t74 29.5t16.5 93.5v1325h342v-1403q-1 -328 -434 -328z" glyph-name="ij" horiz-adv-x="1628" unicode="ĳ"/><glyph d="M928 293q0 -328 -433 -328t-434 328v440h342v-360q0 -63 17.5 -94t75 -31t74 29.5t16.5 93.5v1325h342v-1403zM825 1796l-59 117l-64 -117h-213l173 254h210l156 -254h-203z" glyph-name="Jcircumflex" horiz-adv-x="1040" unicode="Ĵ"/><glyph d="M928 293q0 -328 -433 -328t-434 328v440h342v-360q0 -63 17.5 -94t75 -31t74 29.5t16.5 93.5v1325h342v-1403zM825 1796l-59 117l-64 -117h-213l173 254h210l156 -254h-203z" glyph-name="jcircumflex" horiz-adv-x="1040" unicode="ĵ"/><glyph d="M123 0v1696h342v-625l268 625h342l-377 -848l439 -848h-342l-330 629v-629h-342zM743 -119v-352l-342 -246l150 246h-150v352h342z" glyph-name="Kcommaaccent" horiz-adv-x="1126" unicode="Ķ"/><glyph d="M123 0v1696h342v-684h139q61 0 98 34.5t37 88.5v561h340v-533q0 -209 -209 -286q209 -78 209 -285v-592h-340v608q0 53 -37.5 89t-99.5 36h-137v-733h-342zM766 -119v-352l-342 -246l149 246h-149v352h342z" glyph-name="kcommaaccent" horiz-adv-x="1191" unicode="ķ"/><glyph d="M123 0v1696h342v-684h139q61 0 98 34.5t37 88.5v561h340v-533q0 -209 -209 -286q209 -78 209 -285v-592h-340v608q0 53 -37.5 89t-99.5 36h-137v-733h-342z" glyph-name="kgreenlandic" horiz-adv-x="1191" unicode="ĸ"/><glyph d="M123 0v1696h342v-1413h369v-283h-711zM547 2142l-168 -346h-178l69 346h277z" glyph-name="Lacute" horiz-adv-x="854" unicode="Ĺ"/><glyph d="M123 0v1696h342v-1413h369v-283h-711zM553 2142l-168 -346h-178l69 346h277z" glyph-name="lacute" horiz-adv-x="854" unicode="ĺ"/><glyph d="M123 0v1696h342v-1413h369v-283h-711zM637 -119v-352l-342 -246l149 246h-149v352h342z" glyph-name="Lcommaaccent" horiz-adv-x="854" unicode="Ļ"/><glyph d="M123 0v1696h342v-1413h369v-283h-711zM637 -119v-352l-342 -246l149 246h-149v352h342z" glyph-name="lcommaaccent" horiz-adv-x="854" unicode="ļ"/><glyph d="M123 0v1696h342v-1413h369v-283h-711zM958 1696v-353l-342 -245l150 245h-150v353h342z" glyph-name="Lcaron" horiz-adv-x="921" unicode="Ľ"/><glyph d="M123 0v1696h342v-1413h369v-283h-711zM958 1696v-353l-342 -245l150 245h-150v353h342z" glyph-name="lcaron" horiz-adv-x="921" unicode="ľ"/><glyph d="M834 0h-711v1696h342v-1413h369v-283zM926 672h-342v354h342v-354z" glyph-name="Ldot" horiz-adv-x="954" unicode="Ŀ"/><glyph d="M834 0h-711v1696h342v-1413h369v-283zM926 672h-342v354h342v-354z" glyph-name="ldot" horiz-adv-x="954" unicode="ŀ"/><glyph d="M123 1696h342v-725l252 80v-283l-252 -80v-405h369v-283h-711v582l-123 -39v282l123 39v832z" glyph-name="Lslash" horiz-adv-x="854" unicode="Ł"/><glyph d="M123 1696h342v-725l252 80v-283l-252 -80v-405h369v-283h-711v582l-123 -39v282l123 39v832z" glyph-name="lslash" horiz-adv-x="854" unicode="ł"/><glyph d="M1100 0h-506l-164 1329v-1329h-307v1696h514l156 -1260v1260h307v-1696zM893 2142l-168 -346h-178l69 346h277z" glyph-name="Nacute" horiz-adv-x="1222" unicode="Ń"/><glyph d="M465 0h-342v1696h338l4 -101q115 127 285 127q137 0 232 -95t95 -271v-1356h-342v1323q0 55 -36.5 90t-96.5 35t-96.5 -31t-40.5 -82v-1335zM836 2142l-168 -346h-179l70 346h277z" glyph-name="nacute" horiz-adv-x="1189" unicode="ń"/><glyph d="M1100 0h-506l-164 1329v-1329h-307v1696h514l156 -1260v1260h307v-1696zM782 -119v-352l-342 -246l150 246h-150v352h342z" glyph-name="Ncommaaccent" horiz-adv-x="1222" unicode="Ņ"/><glyph d="M465 0h-342v1696h338l4 -101q115 127 285 127q137 0 232 -95t95 -271v-1356h-342v1323q0 55 -36.5 90t-96.5 35t-96.5 -31t-40.5 -82v-1335zM766 -119v-352l-342 -246l149 246h-149v352h342z" glyph-name="ncommaaccent" horiz-adv-x="1189" unicode="ņ"/><glyph d="M1100 0h-506l-164 1329v-1329h-307v1696h514l156 -1260v1260h307v-1696zM651 1933l60 117h202l-155 -254h-211l-172 254h213z" glyph-name="Ncaron" horiz-adv-x="1222" unicode="Ň"/><glyph d="M465 0h-342v1696h338l4 -101q115 127 285 127q137 0 232 -95t95 -271v-1356h-342v1323q0 55 -36.5 90t-96.5 35t-96.5 -31t-40.5 -82v-1335zM602 1933l60 117h202l-155 -254h-211l-172 254h213z" glyph-name="ncaron" horiz-adv-x="1189" unicode="ň"/><glyph d="M1067 1380v-1087q0 -162 -126 -245t-350 -83t-351 83t-127 245v1087q0 164 128 257.5t348 93.5t349 -93.5t129 -257.5zM455 1325v-952q0 -55 36.5 -90t98.5 -35t98.5 33.5t36.5 89.5v952q0 55 -37 90t-99 35t-98 -34t-36 -89zM215 1812v242h750v-242h-750z" glyph-name="Omacron" unicode="Ō"/><glyph d="M1067 1380v-1087q0 -162 -126 -245t-350 -83t-351 83t-127 245v1087q0 164 128 257.5t348 93.5t349 -93.5t129 -257.5zM455 1325v-952q0 -55 36.5 -90t98.5 -35t98.5 33.5t36.5 89.5v952q0 55 -37 90t-99 35t-98 -34t-36 -89zM215 1812v242h750v-242h-750z" glyph-name="omacron" unicode="ō"/><glyph d="M1067 1380v-1087q0 -162 -126 -245t-350 -83t-351 83t-127 245v1087q0 164 128 257.5t348 93.5t349 -93.5t129 -257.5zM455 1325v-952q0 -55 36.5 -90t98.5 -35t98.5 33.5t36.5 89.5v952q0 55 -37 90t-99 35t-98 -34t-36 -89zM590 1796q-168 0 -251 75t-83 212h178 q0 -57 40 -92t116 -35q156 0 155 127h179q0 -287 -334 -287z" glyph-name="Obreve" unicode="Ŏ"/><glyph d="M1067 1380v-1087q0 -162 -126 -245t-350 -83t-351 83t-127 245v1087q0 164 128 257.5t348 93.5t349 -93.5t129 -257.5zM455 1325v-952q0 -55 36.5 -90t98.5 -35t98.5 33.5t36.5 89.5v952q0 55 -37 90t-99 35t-98 -34t-36 -89zM590 1796q-168 0 -251 75t-83 212h178 q0 -57 40 -92t116 -35q156 0 155 127h179q0 -287 -334 -287z" glyph-name="obreve" unicode="ŏ"/><glyph d="M1067 1380v-1087q0 -162 -126 -245t-350 -83t-351 83t-127 245v1087q0 164 128 257.5t348 93.5t349 -93.5t129 -257.5zM455 1325v-952q0 -55 36.5 -90t98.5 -35t98.5 33.5t36.5 89.5v952q0 55 -37 90t-99 35t-98 -34t-36 -89zM637 2142l-168 -346h-178l69 346h277z M985 2142l-168 -346h-178l70 346h276z" glyph-name="Ohungarumlaut" unicode="Ő"/><glyph d="M1067 1380v-1087q0 -162 -126 -245t-350 -83t-351 83t-127 245v1087q0 164 128 257.5t348 93.5t349 -93.5t129 -257.5zM455 1325v-952q0 -55 36.5 -90t98.5 -35t98.5 33.5t36.5 89.5v952q0 55 -37 90t-99 35t-98 -34t-36 -89zM637 2142l-168 -346h-178l69 346h277z M985 2142l-168 -346h-178l70 346h276z" glyph-name="ohungarumlaut" unicode="ő"/><glyph d="M1483 1413h-416v-397h403v-283h-403v-450h416v-283h-725q-90 -14 -168 -14q-223 0 -350 83t-127 244v1047q0 164 128 257t347 93q74 0 155 -14h740v-283zM455 1305v-912q0 -55 36.5 -90t98.5 -35t98.5 34t36.5 89v912q0 55 -37 89.5t-99 34.5t-98 -33.5t-36 -88.5z" glyph-name="OE" horiz-adv-x="1554" unicode="Œ"/><glyph d="M1679 733h-612v-371q4 -51 40 -82.5t97 -31.5t97 33.5t36 89.5v245h342v-323q0 -162 -125.5 -245t-329.5 -83t-329 58q-121 -57 -325 -57t-330.5 82.5t-126.5 244.5v1087q0 164 128.5 257.5t328.5 93.5t325 -68q123 68 325 68t330.5 -93.5t128.5 -257.5v-647zM455 1325 v-952q0 -55 36.5 -90t96.5 -35t96.5 30.5t40.5 81.5v963q0 55 -37 90t-99 35t-98 -34t-36 -89zM1067 1325v-309h270v307q0 55 -36.5 90t-98.5 35t-98.5 -34t-36.5 -89z" glyph-name="oe" horiz-adv-x="1792" unicode="œ"/><glyph d="M811 2142l-168 -346h-178l70 346h276zM735 309v275q0 74 -25.5 111.5t-86.5 37.5h-158v-733h-342v1696h665q82 0 138.5 -24.5t103.5 -77.5t47 -275v-49q0 -188 -28.5 -237.5t-71.5 -100.5t-186 -64q222 -17 254 -136t32 -238v-254q0 -190 19 -240h-338q-23 53 -23 309z M623 1413h-158v-397h158q61 0 86.5 37t25.5 110v103q0 74 -25.5 110.5t-86.5 36.5z" glyph-name="Racute" horiz-adv-x="1189" unicode="Ŕ"/><glyph d="M811 2142l-168 -346h-178l70 346h276zM735 309v275q0 74 -25.5 111.5t-86.5 37.5h-158v-733h-342v1696h665q82 0 138.5 -24.5t103.5 -77.5t47 -275v-49q0 -188 -28.5 -237.5t-71.5 -100.5t-186 -64q222 -17 254 -136t32 -238v-254q0 -190 19 -240h-338q-23 53 -23 309z M623 1413h-158v-397h158q61 0 86.5 37t25.5 110v103q0 74 -25.5 110.5t-86.5 36.5z" glyph-name="racute" horiz-adv-x="1189" unicode="ŕ"/><glyph d="M766 -119v-352l-342 -246l149 246h-149v352h342zM735 309v275q0 74 -25.5 111.5t-86.5 37.5h-158v-733h-342v1696h665q82 0 138.5 -24.5t103.5 -77.5t47 -275v-49q0 -188 -28.5 -237.5t-71.5 -100.5t-186 -64q222 -17 254 -136t32 -238v-254q0 -190 19 -240h-338 q-23 53 -23 309zM623 1413h-158v-397h158q61 0 86.5 37t25.5 110v103q0 74 -25.5 110.5t-86.5 36.5z" glyph-name="Rcommaaccent" horiz-adv-x="1189" unicode="Ŗ"/><glyph d="M766 -119v-352l-342 -246l149 246h-149v352h342zM735 309v275q0 74 -25.5 111.5t-86.5 37.5h-158v-733h-342v1696h665q82 0 138.5 -24.5t103.5 -77.5t47 -275v-49q0 -188 -28.5 -237.5t-71.5 -100.5t-186 -64q222 -17 254 -136t32 -238v-254q0 -190 19 -240h-338 q-23 53 -23 309zM623 1413h-158v-397h158q61 0 86.5 37t25.5 110v103q0 74 -25.5 110.5t-86.5 36.5z" glyph-name="rcommaaccent" horiz-adv-x="1189" unicode="ŗ"/><glyph d="M580 1933l59 117h203l-156 -254h-211l-172 254h213zM735 309v275q0 74 -25.5 111.5t-86.5 37.5h-158v-733h-342v1696h665q82 0 138.5 -24.5t103.5 -77.5t47 -275v-49q0 -188 -28.5 -237.5t-71.5 -100.5t-186 -64q222 -17 254 -136t32 -238v-254q0 -190 19 -240h-338 q-23 53 -23 309zM623 1413h-158v-397h158q61 0 86.5 37t25.5 110v103q0 74 -25.5 110.5t-86.5 36.5z" glyph-name="Rcaron" horiz-adv-x="1189" unicode="Ř"/><glyph d="M580 1933l59 117h203l-156 -254h-211l-172 254h213zM735 309v275q0 74 -25.5 111.5t-86.5 37.5h-158v-733h-342v1696h665q82 0 138.5 -24.5t103.5 -77.5t47 -275v-49q0 -188 -28.5 -237.5t-71.5 -100.5t-186 -64q222 -17 254 -136t32 -238v-254q0 -190 19 -240h-338 q-23 53 -23 309zM623 1413h-158v-397h158q61 0 86.5 37t25.5 110v103q0 74 -25.5 110.5t-86.5 36.5z" glyph-name="rcaron" horiz-adv-x="1189" unicode="ř"/><glyph d="M1047 561v-268q0 -162 -127.5 -245t-351.5 -83t-350 83t-126 245v323h342v-245q0 -55 36 -89t98 -34t99.5 34.5t37.5 90.5v139q0 76 -63.5 130t-154 93t-179.5 85t-152.5 132t-63.5 207v221q0 164 128 257.5t348 93.5t349.5 -93.5t129.5 -257.5v-247h-342v190 q0 55 -37.5 90t-99.5 35t-98 -34t-36 -89v-100q0 -70 45 -118t114 -72.5t147.5 -60.5t147 -78t114 -128t45.5 -207zM813 2142l-168 -346h-178l70 346h276z" glyph-name="Sacute" horiz-adv-x="1138" unicode="Ś"/><glyph d="M1047 561v-268q0 -162 -127.5 -245t-351.5 -83t-350 83t-126 245v323h342v-245q0 -55 36 -89t98 -34t99.5 34.5t37.5 90.5v139q0 76 -63.5 130t-154 93t-179.5 85t-152.5 132t-63.5 207v221q0 164 128 257.5t348 93.5t349.5 -93.5t129.5 -257.5v-247h-342v190 q0 55 -37.5 90t-99.5 35t-98 -34t-36 -89v-100q0 -70 45 -118t114 -72.5t147.5 -60.5t147 -78t114 -128t45.5 -207zM813 2142l-168 -346h-178l70 346h276z" glyph-name="sacute" horiz-adv-x="1138" unicode="ś"/><glyph d="M1047 561v-268q0 -162 -127.5 -245t-351.5 -83t-350 83t-126 245v323h342v-245q0 -55 36 -89t98 -34t99.5 34.5t37.5 90.5v139q0 76 -63.5 130t-154 93t-179.5 85t-152.5 132t-63.5 207v221q0 164 128 257.5t348 93.5t349.5 -93.5t129.5 -257.5v-247h-342v190 q0 55 -37.5 90t-99.5 35t-98 -34t-36 -89v-100q0 -70 45 -118t114 -72.5t147.5 -60.5t147 -78t114 -128t45.5 -207zM635 1796l-60 117l-63 -117h-213l172 254h211l156 -254h-203z" glyph-name="Scircumflex" horiz-adv-x="1138" unicode="Ŝ"/><glyph d="M1047 561v-268q0 -162 -127.5 -245t-351.5 -83t-350 83t-126 245v323h342v-245q0 -55 36 -89t98 -34t99.5 34.5t37.5 90.5v139q0 76 -63.5 130t-154 93t-179.5 85t-152.5 132t-63.5 207v221q0 164 128 257.5t348 93.5t349.5 -93.5t129.5 -257.5v-247h-342v190 q0 55 -37.5 90t-99.5 35t-98 -34t-36 -89v-100q0 -70 45 -118t114 -72.5t147.5 -60.5t147 -78t114 -128t45.5 -207zM635 1796l-60 117l-63 -117h-213l172 254h211l156 -254h-203z" glyph-name="scircumflex" horiz-adv-x="1138" unicode="ŝ"/><glyph d="M541 -172h-23v139q-201 8 -313.5 91t-112.5 235v323h342v-245q0 -55 36 -89t98 -34t99.5 34.5t37.5 90.5v139q0 76 -63.5 130t-154 93t-179.5 85t-152.5 132t-63.5 207v221q0 164 128 257.5t348 93.5t349.5 -93.5t129.5 -257.5v-247h-342v190q0 55 -37.5 90t-99.5 35 t-98 -34t-36 -89v-100q0 -70 45 -118t114 -72.5t147.5 -60.5t147 -78t114 -128t45.5 -207v-268q0 -150 -111 -233t-311 -93v-69q59 -2 94 -35t35 -93t-56 -109.5t-126 -49.5t-119.5 37t-67.5 104h133q18 -37 49 -37q51 0 51 54q1 59 -77 59z" glyph-name="Scedilla" horiz-adv-x="1138" unicode="Ş"/><glyph d="M541 -172h-23v139q-201 8 -313.5 91t-112.5 235v323h342v-245q0 -55 36 -89t98 -34t99.5 34.5t37.5 90.5v139q0 76 -63.5 130t-154 93t-179.5 85t-152.5 132t-63.5 207v221q0 164 128 257.5t348 93.5t349.5 -93.5t129.5 -257.5v-247h-342v190q0 55 -37.5 90t-99.5 35 t-98 -34t-36 -89v-100q0 -70 45 -118t114 -72.5t147.5 -60.5t147 -78t114 -128t45.5 -207v-268q0 -150 -111 -233t-311 -93v-69q59 -2 94 -35t35 -93t-56 -109.5t-126 -49.5t-119.5 37t-67.5 104h133q18 -37 49 -37q51 0 51 54q1 59 -77 59z" glyph-name="scedilla" horiz-adv-x="1138" unicode="ş"/><glyph d="M1047 561v-268q0 -162 -127.5 -245t-351.5 -83t-350 83t-126 245v323h342v-245q0 -55 36 -89t98 -34t99.5 34.5t37.5 90.5v139q0 76 -63.5 130t-154 93t-179.5 85t-152.5 132t-63.5 207v221q0 164 128 257.5t348 93.5t349.5 -93.5t129.5 -257.5v-247h-342v190 q0 55 -37.5 90t-99.5 35t-98 -34t-36 -89v-100q0 -70 45 -118t114 -72.5t147.5 -60.5t147 -78t114 -128t45.5 -207zM575 1933l60 117h203l-156 -254h-211l-172 254h213z" glyph-name="Scaron" horiz-adv-x="1138" unicode="Š"/><glyph d="M1047 561v-268q0 -162 -127.5 -245t-351.5 -83t-350 83t-126 245v323h342v-245q0 -55 36 -89t98 -34t99.5 34.5t37.5 90.5v139q0 76 -63.5 130t-154 93t-179.5 85t-152.5 132t-63.5 207v221q0 164 128 257.5t348 93.5t349.5 -93.5t129.5 -257.5v-247h-342v190 q0 55 -37.5 90t-99.5 35t-98 -34t-36 -89v-100q0 -70 45 -118t114 -72.5t147.5 -60.5t147 -78t114 -128t45.5 -207zM575 1933l60 117h203l-156 -254h-211l-172 254h213z" glyph-name="scaron" horiz-adv-x="1138" unicode="š"/><glyph d="M250 0v1413h-230v283h803v-283h-231v-1413h-342zM592 -119v-352l-342 -246l149 246h-149v352h342z" glyph-name="Tcommaaccent" horiz-adv-x="843" unicode="Ţ"/><glyph d="M250 0v1413h-230v283h803v-283h-231v-1413h-342zM592 -119v-352l-342 -246l149 246h-149v352h342z" glyph-name="tcommaaccent" horiz-adv-x="843" unicode="ţ"/><glyph d="M250 0v1413h-230v283h803v-283h-231v-1413h-342zM428 1933l59 117h203l-155 -254h-211l-172 254h213z" glyph-name="Tcaron" horiz-adv-x="843" unicode="Ť"/><glyph d="M250 0v1413h-230v283h803v-283h-231v-1413h-342zM428 1933l59 117h203l-155 -254h-211l-172 254h213z" glyph-name="tcaron" horiz-adv-x="843" unicode="ť"/><glyph d="M47 840v241h203v332h-230v283h803v-283h-231v-332h205v-241h-205v-840h-342v840h-203z" glyph-name="Tbar" horiz-adv-x="843" unicode="Ŧ"/><glyph d="M47 840v241h203v332h-230v283h803v-283h-231v-332h205v-241h-205v-840h-342v840h-203z" glyph-name="tbar" horiz-adv-x="843" unicode="ŧ"/><glyph d="M591 -35q-224 0 -351 83t-127 245v1403h342v-1323q0 -55 36.5 -90t98.5 -35t98.5 33.5t36.5 89.5v1325h342v-1403q0 -162 -126 -245t-350 -83zM270 1845q97 166 208 166q58 0 112.5 -36t87.5 -36q70 0 94 76l135 -98q-78 -156 -200 -156q-53 0 -114 41t-85 41 q-66 0 -105 -86z" glyph-name="Utilde" unicode="Ũ"/><glyph d="M725 1696h342v-1696h-342v100q-115 -127 -285 -127q-137 0 -232 95.5t-95 271.5v1356h342v-1323q0 -55 36.5 -90t96.5 -35t96.5 30.5t40.5 81.5v1336zM276 1845q96 166 208 166q58 0 112.5 -36t87.5 -36q70 0 94 76l135 -98q-78 -156 -200 -156q-53 0 -113.5 41t-85.5 41 q-66 0 -104 -86z" glyph-name="utilde" horiz-adv-x="1189" unicode="ũ"/><glyph d="M591 -35q-224 0 -351 83t-127 245v1403h342v-1323q0 -55 36.5 -90t98.5 -35t98.5 33.5t36.5 89.5v1325h342v-1403q0 -162 -126 -245t-350 -83zM215 1812v242h750v-242h-750z" glyph-name="Umacron" unicode="Ū"/><glyph d="M725 1696h342v-1696h-342v100q-115 -127 -285 -127q-137 0 -232 95.5t-95 271.5v1356h342v-1323q0 -55 36.5 -90t96.5 -35t96.5 30.5t40.5 81.5v1336zM219 1812v242h750v-242h-750z" glyph-name="umacron" horiz-adv-x="1189" unicode="ū"/><glyph d="M591 -35q-224 0 -351 83t-127 245v1403h342v-1323q0 -55 36.5 -90t98.5 -35t98.5 33.5t36.5 89.5v1325h342v-1403q0 -162 -126 -245t-350 -83zM590 1796q-168 0 -251 75t-83 212h178q0 -57 40 -92t116 -35q156 0 155 127h179q0 -287 -334 -287z" glyph-name="Ubreve" unicode="Ŭ"/><glyph d="M725 1696h342v-1696h-342v100q-115 -127 -285 -127q-137 0 -232 95.5t-95 271.5v1356h342v-1323q0 -55 36.5 -90t96.5 -35t96.5 30.5t40.5 81.5v1336zM594 1796q-168 0 -251 75t-83 212h178q0 -57 40 -92t116 -35q156 0 156 127h178q0 -287 -334 -287z" glyph-name="ubreve" horiz-adv-x="1189" unicode="ŭ"/><glyph d="M591 -35q-224 0 -351 83t-127 245v1403h342v-1323q0 -55 36.5 -90t98.5 -35t98.5 33.5t36.5 89.5v1325h342v-1403q0 -162 -126 -245t-350 -83zM786 1933v-32q0 -84 -44 -123t-151 -39t-152.5 39t-45.5 123v32q0 86 45 130t150 44q198 0 198 -174zM500 1925 q0 -39 24.5 -63.5t66.5 -24.5t65.5 23.5t23.5 62.5t-24.5 62.5t-66.5 23.5t-65.5 -22.5t-23.5 -61.5z" glyph-name="Uring" unicode="Ů"/><glyph d="M725 1696h342v-1696h-342v100q-115 -127 -285 -127q-137 0 -232 95.5t-95 271.5v1356h342v-1323q0 -55 36.5 -90t96.5 -35t96.5 30.5t40.5 81.5v1336zM791 1933v-32q0 -84 -44.5 -123t-151.5 -39t-152.5 39t-45.5 123v32q0 86 45 130t150 44q199 0 199 -174zM504 1925 q0 -39 24.5 -63.5t66.5 -24.5t65.5 23.5t23.5 62.5t-24.5 62.5t-66.5 23.5t-65.5 -22.5t-23.5 -61.5z" glyph-name="uring" horiz-adv-x="1189" unicode="ů"/><glyph d="M591 -35q-224 0 -351 83t-127 245v1403h342v-1323q0 -55 36.5 -90t98.5 -35t98.5 33.5t36.5 89.5v1325h342v-1403q0 -162 -126 -245t-350 -83zM664 2142l-168 -346h-179l70 346h277zM1012 2142l-168 -346h-178l69 346h277z" glyph-name="Uhungarumlaut" unicode="Ű"/><glyph d="M725 1696h342v-1696h-342v100q-115 -127 -285 -127q-137 0 -232 95.5t-95 271.5v1356h342v-1323q0 -55 36.5 -90t96.5 -35t96.5 30.5t40.5 81.5v1336zM670 2142l-168 -346h-178l69 346h277zM1018 2142l-168 -346h-178l69 346h277z" glyph-name="uhungarumlaut" horiz-adv-x="1189" unicode="ű"/><glyph d="M455 -173q0 69 75 140q-197 10 -307 93t-110 233v1403h342v-1323q0 -55 36.5 -90t98.5 -35t98.5 33.5t36.5 89.5v1325h342v-1403q0 -147 -106.5 -230t-298.5 -96q-76 -76 -76 -121q0 -57 65 -57q44 0 103 23l37 -91q-186 -83 -261 -23t-75 129z" glyph-name="Uogonek" unicode="Ų"/><glyph d="M901 -299q-74 0 -122 38.5t-48 108.5t88 152h-94v100q-115 -127 -285 -127q-137 0 -232 95.5t-95 271.5v1356h342v-1323q0 -55 36.5 -90t96.5 -35t96.5 30.5t40.5 81.5v1336h342v-1696h-115q-90 -84 -90 -133q0 -57 66 -57q43 -1 102 22l37 -90q-92 -41 -166 -41z" glyph-name="uogonek" horiz-adv-x="1189" unicode="ų"/><glyph d="M870 0l-102 1262l-98 -1262h-506l-154 1696h365l86 -1415l108 1415h402l108 -1415l84 1415h367l-154 -1696h-506zM836 1796l-60 117l-63 -117h-213l172 254h211l155 -254h-202z" glyph-name="Wcircumflex" horiz-adv-x="1540" unicode="Ŵ"/><glyph d="M870 0l-102 1262l-98 -1262h-506l-154 1696h365l86 -1415l108 1415h402l108 -1415l84 1415h367l-154 -1696h-506zM836 1796l-60 117l-63 -117h-213l172 254h211l155 -254h-202z" glyph-name="wcircumflex" horiz-adv-x="1540" unicode="ŵ"/><glyph d="M334 0v528l-324 1168h326l166 -738l168 738h327l-323 -1182v-514h-340zM569 1796l-59 117l-64 -117h-213l173 254h210l156 -254h-203z" glyph-name="Ycircumflex" horiz-adv-x="1007" unicode="Ŷ"/><glyph d="M655 1796l-59 117l-64 -117h-213l173 254h210l156 -254h-203zM455 1386v-286q0 -55 36.5 -90t96.5 -35t96.5 30.5t40.5 81.5v609h342v-1403q0 -162 -126 -245t-350 -83t-351 83t-127 245v321h342v-241q0 -55 36.5 -90t98.5 -35t98.5 33.5t36.5 89.5v385 q-102 -86 -285 -86q-137 0 -232 95t-95 271v420q0 190 -19 240h338q23 -53 23 -310z" glyph-name="ycircumflex" unicode="ŷ"/><glyph d="M334 0v528l-324 1168h326l166 -738l168 738h327l-323 -1182v-514h-340zM186 2032h232v-234h-232v234zM578 2032h235v-234h-235v234z" glyph-name="Ydieresis" horiz-adv-x="1007" unicode="Ÿ"/><glyph d="M41 1413v283h864v-283l-512 -1130h512v-283h-864v283l512 1130h-512zM729 2142l-168 -346h-178l70 346h276z" glyph-name="Zacute" horiz-adv-x="946" unicode="Ź"/><glyph d="M41 1413v283h864v-283l-512 -1130h512v-283h-864v283l512 1130h-512zM729 2142l-168 -346h-178l70 346h276z" glyph-name="zacute" horiz-adv-x="946" unicode="ź"/><glyph d="M41 1413v283h864v-283l-512 -1130h512v-283h-864v283l512 1130h-512zM354 2032h236v-234h-236v234z" glyph-name="Zdotaccent" horiz-adv-x="946" unicode="Ż"/><glyph d="M41 1413v283h864v-283l-512 -1130h512v-283h-864v283l512 1130h-512zM354 2032h236v-234h-236v234z" glyph-name="zdotaccent" horiz-adv-x="946" unicode="ż"/><glyph d="M41 1413v283h864v-283l-512 -1130h512v-283h-864v283l512 1130h-512zM479 1933l60 117h202l-155 -254h-211l-172 254h213z" glyph-name="Zcaron" horiz-adv-x="946" unicode="Ž"/><glyph d="M41 1413v283h864v-283l-512 -1130h512v-283h-864v283l512 1130h-512zM479 1933l60 117h202l-155 -254h-211l-172 254h213z" glyph-name="zcaron" horiz-adv-x="946" unicode="ž"/><glyph d="M117 0v1294h342v-1294h-342zM459 1696v-283h-342v283h342z" glyph-name="florin" horiz-adv-x="577" unicode="ƒ"/><glyph d="M1067 1380v-1087q0 -162 -126 -245t-350 -83t-351 83t-127 245v1087q0 164 127.5 257.5t365.5 93.5t367 -123q39 78 39 160t-49 165h290q-14 -158 -70.5 -249t-150.5 -156q35 -66 35 -148zM455 1325v-952q0 -55 36.5 -90t98.5 -35t98.5 33.5t36.5 89.5v952q0 55 -37 90 t-99 35t-98 -34t-36 -89z" glyph-name="Ohorn" unicode="Ơ"/><glyph d="M1067 1380v-1087q0 -162 -126 -245t-350 -83t-351 83t-127 245v1087q0 164 127.5 257.5t365.5 93.5t367 -123q39 78 39 160t-49 165h290q-14 -158 -70.5 -249t-150.5 -156q35 -66 35 -148zM455 1325v-952q0 -55 36.5 -90t98.5 -35t98.5 33.5t36.5 89.5v952q0 55 -37 90 t-99 35t-98 -34t-36 -89z" glyph-name="ohorn" unicode="ơ"/><glyph d="M591 -35q-224 0 -351 83t-127 245v1403h342v-1323q0 -55 36.5 -90t98.5 -35t98.5 33.5t36.5 89.5v1325q205 0 276.5 11t71.5 58q0 86 -49 168h291q-16 -174 -83 -255t-165 -87v-1298q0 -162 -126 -245t-350 -83z" glyph-name="Uhorn" unicode="Ư"/><glyph d="M1067 0h-342v100q-115 -127 -285 -127q-137 0 -232 95.5t-95 271.5v1356h342v-1323q0 -55 36.5 -90t96.5 -35t96.5 30.5t40.5 81.5v1336q205 0 276.5 11t71.5 58q0 86 -49 168h291q-16 -174 -83 -255t-165 -87v-1591z" glyph-name="uhorn" unicode="ư"/><glyph d="M1022 1796h-178l69 346h277zM1470 1413h-415v-397h403v-283h-403v-450h415v-283h-757v344h-279l-80 -344h-344l428 1696h1032v-283zM713 627v835l-205 -835h205z" glyph-name="AEacute" horiz-adv-x="1542" unicode="Ǽ"/><glyph d="M985 1796h-178l70 346h276zM1679 733h-612v-371q4 -51 40 -82.5t97 -31.5t97 33.5t36 89.5v245h342v-323q0 -162 -126 -245t-351 -83q-338 0 -440 178q-46 -103 -144.5 -136.5t-177.5 -33.5q-137 0 -232 95.5t-95 271.5v397q0 150 64.5 200t133 69.5t194.5 31t220 25.5 v262q0 55 -36 89t-98 34t-99 -35t-37 -90v-190h-342v247q0 164 129.5 257.5t329.5 93.5t323 -68q125 68 325 68t329.5 -93.5t129.5 -257.5v-647zM455 629v-256q0 -55 36.5 -90t96.5 -35t96.5 30.5t40.5 81.5v420q-14 -2 -58 -8t-58.5 -9t-47.5 -11.5t-45 -17.5t-36.5 -28 t-24.5 -77zM1067 1016h270v307q0 55 -36.5 90t-98.5 35t-96.5 -31t-38.5 -82v-319z" glyph-name="aeacute" horiz-adv-x="1792" unicode="ǽ"/><glyph d="M682 1796h-178l69 346h277zM1067 1380v-1087q0 -162 -126 -245t-351 -83q-125 0 -217 27l-25 -94h-55l29 108q-209 82 -209 287v1087q0 164 128 257.5t347 93.5q100 0 190 -23l25 90h55l-29 -106q113 -41 175.5 -121t62.5 -191zM590 248q63 0 99 33.5t36 89.5v932 l-262 -977q27 -78 127 -78zM455 1325v-825l241 903q-35 45 -102 45t-103 -34t-36 -89z" glyph-name="Oslashacute" unicode="Ǿ"/><glyph d="M682 1796h-178l69 346h277zM1067 1380v-1087q0 -162 -126 -245t-351 -83q-125 0 -217 27l-25 -94h-55l29 108q-209 82 -209 287v1087q0 164 128 257.5t347 93.5q100 0 190 -23l25 90h55l-29 -106q113 -41 175.5 -121t62.5 -191zM590 248q63 0 99 33.5t36 89.5v932 l-262 -977q27 -78 127 -78zM455 1325v-825l241 903q-35 45 -102 45t-103 -34t-36 -89z" glyph-name="oslashacute" unicode="ǿ"/><glyph d="M1047 561v-268q0 -162 -127.5 -245t-351.5 -83t-350 83t-126 245v323h342v-245q0 -55 36 -89t98 -34t99.5 34.5t37.5 90.5v139q0 76 -63.5 130t-154 93t-179.5 85t-152.5 132t-63.5 207v221q0 164 128 257.5t348 93.5t349.5 -93.5t129.5 -257.5v-247h-342v190 q0 55 -37.5 90t-99.5 35t-98 -34t-36 -89v-100q0 -70 45 -118t114 -72.5t147.5 -60.5t147 -78t114 -128t45.5 -207zM739 -119v-352l-342 -246l150 246h-150v352h342z" glyph-name="Scommaaccent" horiz-adv-x="1138" unicode="Ș"/><glyph d="M1047 561v-268q0 -162 -127.5 -245t-351.5 -83t-350 83t-126 245v323h342v-245q0 -55 36 -89t98 -34t99.5 34.5t37.5 90.5v139q0 76 -63.5 130t-154 93t-179.5 85t-152.5 132t-63.5 207v221q0 164 128 257.5t348 93.5t349.5 -93.5t129.5 -257.5v-247h-342v190 q0 55 -37.5 90t-99.5 35t-98 -34t-36 -89v-100q0 -70 45 -118t114 -72.5t147.5 -60.5t147 -78t114 -128t45.5 -207zM739 -119v-352l-342 -246l150 246h-150v352h342z" glyph-name="scommaaccent" horiz-adv-x="1138" unicode="ș"/><glyph d="M928 293q0 -328 -433 -328t-434 328v440h342v-360q0 -63 17.5 -94t75 -31t74 29.5t16.5 93.5v1325h342v-1403z" glyph-name="uni0237" horiz-adv-x="1040" unicode="ȷ"/><glyph d="M377 1796l-60 117l-63 -117h-213l172 254h211l156 -254h-203z" glyph-name="circumflex" horiz-adv-x="620" unicode="ˆ"/><glyph d="M317 1933l60 117h203l-156 -254h-211l-172 254h213z" glyph-name="caron" horiz-adv-x="620" unicode="ˇ"/><glyph d="M893 1812h-750v242h750v-242z" glyph-name="uni02C9" horiz-adv-x="1036" unicode="ˉ"/><glyph d="M440 1796q-168 0 -251 75t-83 212h179q0 -57 40 -92t115 -35q156 0 156 127h178q0 -287 -334 -287z" glyph-name="breve" horiz-adv-x="872" unicode="˘"/><glyph d="M61 2032h236v-234h-236v234z" glyph-name="dotaccent" horiz-adv-x="358" unicode="˙"/><glyph d="M633 1933v-32q0 -84 -43.5 -123t-151.5 -39t-153 39t-45 123v32q0 86 45 130t149 44q199 0 199 -174zM346 1925q0 -39 24.5 -63.5t66.5 -24.5t65.5 23.5t23.5 62.5t-24.5 62.5t-66.5 23.5t-65.5 -22.5t-23.5 -61.5z" glyph-name="ring" horiz-adv-x="872" unicode="˚"/><glyph d="M514 -299q-74 0 -122 39.5t-48 109.5t96 156h131q-96 -92 -96 -139q0 -57 66 -57q43 -1 102 22l37 -90q-92 -41 -166 -41z" glyph-name="ogonek" horiz-adv-x="614" unicode="˛"/><glyph d="M6 1845q97 166 208 166q58 0 112.5 -36t87.5 -36q70 0 94 76l135 -98q-78 -156 -201 -156q-53 0 -113.5 41t-84.5 41q-66 0 -105 -86z" glyph-name="tilde" horiz-adv-x="649" unicode="˜"/><glyph d="M387 2142l-168 -346h-178l70 346h276zM735 2142l-168 -346h-178l70 346h276z" glyph-name="hungarumlaut" horiz-adv-x="776" unicode="˝"/><glyph d="M340 1796h-107v141q101 1 101 57t-51 56q-31 0 -50 -37h-133q18 68 67.5 104.5t111.5 36.5q190 0 190 -167q0 -51 -35 -84t-94 -35v-72z" glyph-name="hookabovecomb" horiz-adv-x="614" unicode="̉"/><glyph d="M219 1796h-178l70 346h276z" glyph-name="tonos" horiz-adv-x="428" unicode="΄"/><glyph d="M160 1839h-232v234h232v-234zM760 1839h-236v234h236v-234zM365 1796h-179l60 346h276z" glyph-name="dieresistonos" horiz-adv-x="688" unicode="΅"/><glyph d="M109 1509h-179l70 346h276zM141 0l224 1696h593l224 -1696h-340l-43 344h-275l-41 -344h-342zM662 1462l-103 -835h205z" glyph-name="Alphatonos" horiz-adv-x="1191" unicode="Ά"/><glyph d="M1083 1413h-415v-397h403v-283h-403v-450h415v-283h-757v1696h757v-283zM96 1509h-178l70 346h276z" glyph-name="Epsilontonos" horiz-adv-x="1155" unicode="Έ"/><glyph d="M668 0h-342v1696h342v-680h270v680h342v-1696h-342v733h-270v-733zM92 1509h-178l70 346h276z" glyph-name="Etatonos" horiz-adv-x="1402" unicode="Ή"/><glyph d="M668 0h-342v1696h342v-1696zM92 1509h-178l70 346h276z" glyph-name="Iotatonos" horiz-adv-x="790" unicode="Ί"/><glyph d="M94 1507h-178l70 346h276zM1171 1380v-1087q0 -162 -125.5 -245t-349.5 -83t-351.5 83t-127.5 245v1087q0 164 128 257.5t348 93.5t349 -93.5t129 -257.5zM559 1325v-952q0 -55 37 -90t99 -35t98 33.5t36 89.5v952q0 55 -36.5 90t-98.5 35t-98.5 -34t-36.5 -89z" glyph-name="Omicrontonos" horiz-adv-x="1284" unicode="Ό"/><glyph d="M86 1509h-178l69 346h277zM600 0v528l-324 1168h326l166 -738l168 738h328l-324 -1182v-514h-340z" glyph-name="Upsilontonos" horiz-adv-x="1273" unicode="Ύ"/><glyph d="M829 750v573q0 55 -36.5 90t-98.5 35t-98.5 -34t-36.5 -89v-573q0 -49 27.5 -82t77.5 -41v-285q-211 6 -329 89t-118 239v708q0 164 128 257.5t348 93.5t349 -93.5t129 -257.5v-708q0 -154 -115.5 -237t-322.5 -91v285q45 8 70.5 42t25.5 79zM1130 0h-397v283h397v-283z M664 0h-398v283h398v-283zM94 1507h-178l70 346h276z" glyph-name="Omegatonos" horiz-adv-x="1284" unicode="Ώ"/><glyph d="M465 0h-342v1696h342v-1696zM109 1839h-232v234h232v-234zM709 1839h-236v234h236v-234zM313 1796h-178l60 346h276z" glyph-name="iotadieresistonos" horiz-adv-x="587" unicode="ΐ"/><glyph d="M10 0l223 1696h594l224 -1696h-340l-43 344h-275l-41 -344h-342zM530 1462l-102 -835h205z" glyph-name="Alpha" horiz-adv-x="1060" unicode="Α"/><glyph d="M123 0v1696h665q82 0 138.5 -24.5t103.5 -77.5t47 -275v-49q0 -188 -28.5 -237.5t-71.5 -100.5t-186 -64q222 -17 254 -136t32 -238v-117q0 -222 -47 -275t-103.5 -77.5t-138.5 -24.5h-665zM465 283h158q61 0 86.5 36.5t25.5 110.5v154q0 74 -25.5 111.5t-86.5 37.5h-158 v-450zM623 1413h-158v-397h158q61 0 86.5 37t25.5 110v103q0 74 -25.5 110.5t-86.5 36.5z" glyph-name="Beta" horiz-adv-x="1169" unicode="Β"/><glyph d="M465 0h-342v1696h686v-283h-344v-1413z" glyph-name="Gamma" horiz-adv-x="849" unicode="Γ"/><glyph d="M10 0l201 1696h594l199 -1696h-994zM508 1415l-107 -1132h211z" glyph-name="Delta" horiz-adv-x="1013" unicode="Δ"/><glyph d="M881 1413h-416v-397h403v-283h-403v-450h416v-283h-758v1696h758v-283z" glyph-name="Epsilon" horiz-adv-x="952" unicode="Ε"/><glyph d="M41 1413v283h864v-283l-512 -1130h512v-283h-864v283l512 1130h-512z" glyph-name="Zeta" horiz-adv-x="946" unicode="Ζ"/><glyph d="M735 0v733h-270v-733h-342v1696h342v-680h270v680h342v-1696h-342z" glyph-name="Eta" horiz-adv-x="1200" unicode="Η"/><glyph d="M1067 1380v-1087q0 -162 -126 -245t-350 -83t-351 83t-127 245v1087q0 164 128 257.5t348 93.5t349 -93.5t129 -257.5zM455 733v-360q0 -55 36.5 -90t98.5 -35t98.5 33.5t36.5 89.5v362h-270zM455 1325v-309h270v307q0 55 -37 90t-99 35t-98 -34t-36 -89z" glyph-name="Theta" unicode="Θ"/><glyph d="M465 0h-342v1696h342v-1696z" glyph-name="Iota" horiz-adv-x="587" unicode="Ι"/><glyph d="M123 0v1696h342v-625l268 625h342l-377 -848l439 -848h-342l-330 629v-629h-342z" glyph-name="Kappa" horiz-adv-x="1126" unicode="Κ"/><glyph d="M352 0h-342l223 1696h594l224 -1696h-340l-179 1444z" glyph-name="Lambda" horiz-adv-x="1060" unicode="Λ"/><glyph d="M430 0h-307v1696h536l144 -1258l145 1258h535v-1696h-305v1329l-156 -1329h-436l-156 1329v-1329z" glyph-name="Mu" horiz-adv-x="1605" unicode="Μ"/><glyph d="M1100 0h-506l-164 1329v-1329h-307v1696h514l156 -1260v1260h307v-1696z" glyph-name="Nu" horiz-adv-x="1222" unicode="Ν"/><glyph d="M905 0h-864v283h864v-283zM905 1413h-864v283h864v-283zM786 700h-626v283h626v-283z" glyph-name="Xi" horiz-adv-x="946" unicode="Ξ"/><glyph d="M1067 1380v-1087q0 -162 -126 -245t-350 -83t-351 83t-127 245v1087q0 164 128 257.5t348 93.5t349 -93.5t129 -257.5zM455 1325v-952q0 -55 36.5 -90t98.5 -35t98.5 33.5t36.5 89.5v952q0 55 -37 90t-99 35t-98 -34t-36 -89z" glyph-name="Omicron" unicode="Ο"/><glyph d="M465 0h-342v1696h954v-1696h-342v1413h-270v-1413z" glyph-name="Pi" horiz-adv-x="1200" unicode="Π"/><glyph d="M123 0v1696h665q82 0 138.5 -24.5t103.5 -77.5t47 -275v-311q0 -224 -47 -276t-103.5 -76.5t-138.5 -24.5h-323v-631h-342zM465 1413v-500h158q61 0 86.5 38t25.5 112v203q0 74 -25.5 110.5t-86.5 36.5h-158z" glyph-name="Rho" horiz-adv-x="1159" unicode="Ρ"/><glyph d="M895 1413h-502l365 -569l-369 -561h516v-283h-864v283l358 567l-358 563v283h854v-283z" glyph-name="Sigma" horiz-adv-x="946" unicode="Σ"/><glyph d="M250 0v1413h-230v283h803v-283h-231v-1413h-342z" glyph-name="Tau" horiz-adv-x="843" unicode="Τ"/><glyph d="M334 0v528l-324 1168h326l166 -738l168 738h327l-323 -1182v-514h-340z" glyph-name="Upsilon" horiz-adv-x="1007" unicode="Υ"/><glyph d="M1006 0h-342v201q-33 -4 -195 -4t-269.5 89t-107.5 236v615q0 150 108.5 248t288.5 98q109 0 175 -4v217h342v-217q61 4 174 4q180 0 288.5 -98.5t108.5 -247.5v-615q0 -147 -107.5 -236t-269.5 -89t-194 4v-201zM1122 1194h-116v-709h116q61 0 87 37t26 111v414 q0 74 -26 110.5t-87 36.5zM434 633q0 -74 25.5 -111t87.5 -37h117v709h-117q-61 0 -87 -37t-26 -110v-414z" glyph-name="Phi" horiz-adv-x="1669" unicode="Φ"/><glyph d="M1024 1696l-336 -848l336 -848h-342l-166 416l-164 -416h-342l336 848l-336 848h342l164 -416l166 416h342z" glyph-name="Chi" horiz-adv-x="1034" unicode="Χ"/><glyph d="M1006 0h-342v487q-33 -4 -195 -4t-269.5 89.5t-107.5 236.5v858h342v-747q0 -74 25.5 -111t87.5 -37h117v924h342v-924h116q61 0 87 37t26 111v747h342v-858q0 -147 -107.5 -236.5t-269.5 -89.5t-194 4v-487z" glyph-name="Psi" horiz-adv-x="1669" unicode="Ψ"/><glyph d="M725 750v573q0 55 -37 90t-99 35t-98 -34t-36 -89v-573q0 -49 27.5 -82t76.5 -41v-285q-211 6 -328.5 89t-117.5 239v708q0 164 128 257.5t348 93.5t349 -93.5t129 -257.5v-708q0 -154 -115.5 -237t-322.5 -91v285q45 8 70.5 42t25.5 79zM1026 0h-397v283h397v-283z M559 0h-397v283h397v-283z" glyph-name="Omega" unicode="Ω"/><glyph d="M465 0h-342v1696h342v-1696zM213 1798h-231v234h231v-234zM608 1798h-235v234h235v-234z" glyph-name="Iotadieresis" horiz-adv-x="587" unicode="Ϊ"/><glyph d="M334 0v528l-324 1168h326l166 -738l168 738h327l-323 -1182v-514h-340zM186 2032h232v-234h-232v234zM578 2032h235v-234h-235v234z" glyph-name="Upsilondieresis" horiz-adv-x="1007" unicode="Ϋ"/><glyph d="M10 0l223 1696h594l224 -1696h-340l-43 344h-275l-41 -344h-342zM530 1462l-102 -835h205zM780 2142l-168 -346h-178l70 346h276z" glyph-name="alphatonos" horiz-adv-x="1060" unicode="ά"/><glyph d="M881 1413h-416v-397h403v-283h-403v-450h416v-283h-758v1696h758v-283zM748 2142l-168 -346h-179l70 346h277z" glyph-name="epsilontonos" horiz-adv-x="952" unicode="έ"/><glyph d="M465 0h-342v1696h342v-680h270v680h342v-1696h-342v733h-270v-733zM676 1796h-178l69 346h277z" glyph-name="etatonos" horiz-adv-x="1200" unicode="ή"/><glyph d="M465 0h-342v1696h342v-1696zM379 1796h-178l69 346h277z" glyph-name="iotatonos" horiz-adv-x="587" unicode="ί"/><glyph d="M324 1839h-232v234h232v-234zM924 1839h-236v234h236v-234zM528 1796h-178l60 346h276zM334 0v528l-324 1168h326l166 -738l168 738h327l-323 -1182v-514h-340z" glyph-name="upsilondieresistonos" horiz-adv-x="1007" unicode="ΰ"/><glyph d="M10 0l223 1696h594l224 -1696h-340l-43 344h-275l-41 -344h-342zM530 1462l-102 -835h205z" glyph-name="alpha" horiz-adv-x="1060" unicode="α"/><glyph d="M123 0v1696h665q82 0 138.5 -24.5t103.5 -77.5t47 -275v-49q0 -188 -28.5 -237.5t-71.5 -100.5t-186 -64q222 -17 254 -136t32 -238v-117q0 -222 -47 -275t-103.5 -77.5t-138.5 -24.5h-665zM465 283h158q61 0 86.5 36.5t25.5 110.5v154q0 74 -25.5 111.5t-86.5 37.5h-158 v-450zM623 1413h-158v-397h158q61 0 86.5 37t25.5 110v103q0 74 -25.5 110.5t-86.5 36.5z" glyph-name="beta" horiz-adv-x="1169" unicode="β"/><glyph d="M465 0h-342v1696h686v-283h-344v-1413z" glyph-name="gamma" horiz-adv-x="849" unicode="γ"/><glyph d="M10 0l201 1696h594l199 -1696h-994zM508 1415l-107 -1132h211z" glyph-name="delta" horiz-adv-x="1013" unicode="δ"/><glyph d="M881 1413h-416v-397h403v-283h-403v-450h416v-283h-758v1696h758v-283z" glyph-name="epsilon" horiz-adv-x="952" unicode="ε"/><glyph d="M41 1413v283h864v-283l-512 -1130h512v-283h-864v283l512 1130h-512z" glyph-name="zeta" horiz-adv-x="946" unicode="ζ"/><glyph d="M735 0v733h-270v-733h-342v1696h342v-680h270v680h342v-1696h-342z" glyph-name="eta" horiz-adv-x="1200" unicode="η"/><glyph d="M1067 1380v-1087q0 -162 -126 -245t-350 -83t-351 83t-127 245v1087q0 164 128 257.5t348 93.5t349 -93.5t129 -257.5zM455 733v-360q0 -55 36.5 -90t98.5 -35t98.5 33.5t36.5 89.5v362h-270zM455 1325v-309h270v307q0 55 -37 90t-99 35t-98 -34t-36 -89z" glyph-name="theta" unicode="θ"/><glyph d="M465 0h-342v1696h342v-1696z" glyph-name="iota" horiz-adv-x="587" unicode="ι"/><glyph d="M123 0v1696h342v-625l268 625h342l-377 -848l439 -848h-342l-330 629v-629h-342z" glyph-name="kappa" horiz-adv-x="1126" unicode="κ"/><glyph d="M352 0h-342l223 1696h594l224 -1696h-340l-179 1444z" glyph-name="lambda" horiz-adv-x="1060" unicode="λ"/><glyph d="M430 0h-307v1696h536l144 -1258l145 1258h535v-1696h-305v1329l-156 -1329h-436l-156 1329v-1329z" glyph-name="mu" horiz-adv-x="1605" unicode="μ"/><glyph d="M1100 0h-506l-164 1329v-1329h-307v1696h514l156 -1260v1260h307v-1696z" glyph-name="nu" horiz-adv-x="1222" unicode="ν"/><glyph d="M905 0h-864v283h864v-283zM905 1413h-864v283h864v-283zM786 700h-626v283h626v-283z" glyph-name="xi" horiz-adv-x="946" unicode="ξ"/><glyph d="M1067 1380v-1087q0 -162 -126 -245t-350 -83t-351 83t-127 245v1087q0 164 128 257.5t348 93.5t349 -93.5t129 -257.5zM455 1325v-952q0 -55 36.5 -90t98.5 -35t98.5 33.5t36.5 89.5v952q0 55 -37 90t-99 35t-98 -34t-36 -89z" glyph-name="omicron" unicode="ο"/><glyph d="M465 0h-342v1696h954v-1696h-342v1413h-270v-1413z" glyph-name="pi" horiz-adv-x="1200" unicode="π"/><glyph d="M123 0v1696h665q82 0 138.5 -24.5t103.5 -77.5t47 -275v-311q0 -224 -47 -276t-103.5 -76.5t-138.5 -24.5h-323v-631h-342zM465 1413v-500h158q61 0 86.5 38t25.5 112v203q0 74 -25.5 110.5t-86.5 36.5h-158z" glyph-name="rho" horiz-adv-x="1159" unicode="ρ"/><glyph d="M895 1413h-502l365 -569l-369 -561h516v-283h-864v283l358 567l-358 563v283h854v-283z" glyph-name="sigma1" horiz-adv-x="946" unicode="ς"/><glyph d="M895 1413h-502l365 -569l-369 -561h516v-283h-864v283l358 567l-358 563v283h854v-283z" glyph-name="sigma" horiz-adv-x="946" unicode="σ"/><glyph d="M250 0v1413h-230v283h803v-283h-231v-1413h-342z" glyph-name="tau" horiz-adv-x="843" unicode="τ"/><glyph d="M334 0v528l-324 1168h326l166 -738l168 738h327l-323 -1182v-514h-340z" glyph-name="upsilon" horiz-adv-x="1007" unicode="υ"/><glyph d="M1006 0h-342v201q-33 -4 -195 -4t-269.5 89t-107.5 236v615q0 150 108.5 248t288.5 98q109 0 175 -4v217h342v-217q61 4 174 4q180 0 288.5 -98.5t108.5 -247.5v-615q0 -147 -107.5 -236t-269.5 -89t-194 4v-201zM1122 1194h-116v-709h116q61 0 87 37t26 111v414 q0 74 -26 110.5t-87 36.5zM434 633q0 -74 25.5 -111t87.5 -37h117v709h-117q-61 0 -87 -37t-26 -110v-414z" glyph-name="phi" horiz-adv-x="1669" unicode="φ"/><glyph d="M1024 1696l-336 -848l336 -848h-342l-166 416l-164 -416h-342l336 848l-336 848h342l164 -416l166 416h342z" glyph-name="chi" horiz-adv-x="1034" unicode="χ"/><glyph d="M1006 0h-342v487q-33 -4 -195 -4t-269.5 89.5t-107.5 236.5v858h342v-747q0 -74 25.5 -111t87.5 -37h117v924h342v-924h116q61 0 87 37t26 111v747h342v-858q0 -147 -107.5 -236.5t-269.5 -89.5t-194 4v-487z" glyph-name="psi" horiz-adv-x="1669" unicode="ψ"/><glyph d="M725 750v573q0 55 -37 90t-99 35t-98 -34t-36 -89v-573q0 -49 27.5 -82t76.5 -41v-285q-211 6 -328.5 89t-117.5 239v708q0 164 128 257.5t348 93.5t349 -93.5t129 -257.5v-708q0 -154 -115.5 -237t-322.5 -91v285q45 8 70.5 42t25.5 79zM1026 0h-397v283h397v-283z M559 0h-397v283h397v-283z" glyph-name="omega" unicode="ω"/><glyph d="M465 0h-342v1696h342v-1696zM213 1798h-231v234h231v-234zM608 1798h-235v234h235v-234z" glyph-name="iotadieresis" horiz-adv-x="587" unicode="ϊ"/><glyph d="M334 0v528l-324 1168h326l166 -738l168 738h327l-323 -1182v-514h-340zM186 2032h232v-234h-232v234zM578 2032h235v-234h-235v234z" glyph-name="upsilondieresis" horiz-adv-x="1007" unicode="ϋ"/><glyph d="M682 1796h-178l69 346h277zM1067 1380v-1087q0 -162 -126 -245t-350 -83t-351 83t-127 245v1087q0 164 128 257.5t348 93.5t349 -93.5t129 -257.5zM455 1325v-952q0 -55 36.5 -90t98.5 -35t98.5 33.5t36.5 89.5v952q0 55 -37 90t-99 35t-98 -34t-36 -89z" glyph-name="omicrontonos" unicode="ό"/><glyph d="M586 1796h-178l69 346h277zM334 0v528l-324 1168h326l166 -738l168 738h327l-323 -1182v-514h-340z" glyph-name="upsilontonos" horiz-adv-x="1007" unicode="ύ"/><glyph d="M635 1796h-178l69 346h277zM725 750v573q0 55 -37 90t-99 35t-98 -34t-36 -89v-573q0 -49 27.5 -82t76.5 -41v-285q-211 6 -328.5 89t-117.5 239v708q0 164 128 257.5t348 93.5t349 -93.5t129 -257.5v-708q0 -154 -115.5 -237t-322.5 -91v285q45 8 70.5 42t25.5 79z M1026 0h-397v283h397v-283zM559 0h-397v283h397v-283z" glyph-name="omegatonos" unicode="ώ"/><glyph d="M881 1413h-416v-397h403v-283h-403v-450h416v-283h-758v1696h758v-283zM182 2032h232v-234h-232v234zM573 2032h236v-234h-236v234z" glyph-name="afii10023" horiz-adv-x="952" unicode="Ё"/><glyph d="M592 0h-342v1413h-230v283h803v-283h-231v-444q126 119 274 119t243 -95.5t95 -271.5v-672q0 -176 -95 -271t-225 -95t-227 69v221q29 -16 80 -16t88 35t37 90v608q0 55 -37 90t-98 35q-135 0 -135 -131v-684z" glyph-name="afii10051" horiz-adv-x="1286" unicode="Ђ"/><glyph d="M465 0h-342v1696h686v-283h-344v-1413zM539 1796h-179l70 346h277z" glyph-name="afii10052" horiz-adv-x="849" unicode="Ѓ"/><glyph d="M434 1325v-311h314v-279h-314v-362q0 -55 37 -90t99 -35t98.5 33.5t36.5 89.5v176h342v-254q0 -162 -126.5 -245t-350.5 -83t-351 83t-127 245v1087q0 164 128 257.5t348 93.5t349.5 -93.5t129.5 -257.5v-200h-342v143q0 55 -37.5 90t-99.5 35t-98 -34t-36 -89z" glyph-name="afii10053" horiz-adv-x="1138" unicode="Є"/><glyph d="M1047 561v-268q0 -162 -127.5 -245t-351.5 -83t-350 83t-126 245v323h342v-245q0 -55 36 -89t98 -34t99.5 34.5t37.5 90.5v139q0 76 -63.5 130t-154 93t-179.5 85t-152.5 132t-63.5 207v221q0 164 128 257.5t348 93.5t349.5 -93.5t129.5 -257.5v-247h-342v190 q0 55 -37.5 90t-99.5 35t-98 -34t-36 -89v-100q0 -70 45 -118t114 -72.5t147.5 -60.5t147 -78t114 -128t45.5 -207z" glyph-name="afii10054" horiz-adv-x="1138" unicode="Ѕ"/><glyph d="M465 0h-342v1696h342v-1696z" glyph-name="afii10055" horiz-adv-x="587" unicode="І"/><glyph d="M465 0h-342v1696h342v-1696zM213 1798h-231v234h231v-234zM608 1798h-235v234h235v-234z" glyph-name="afii10056" horiz-adv-x="587" unicode="Ї"/><glyph d="M928 293q0 -328 -433 -328t-434 328v440h342v-360q0 -63 17.5 -94t75 -31t74 29.5t16.5 93.5v1325h342v-1403z" glyph-name="afii10057" horiz-adv-x="1040" unicode="Ј"/><glyph d="M123 381v1315h954v-631h324q222 0 255.5 -127t33.5 -250v-311q0 -223 -69.5 -300t-219.5 -77h-666v1413h-270v-1110q0 -314 -399 -326v285q37 8 47 36t10 83zM1235 782h-158v-499h158q61 0 87 36.5t26 110.5v203q0 74 -26 111.5t-87 37.5z" glyph-name="afii10058" horiz-adv-x="1771" unicode="Љ"/><glyph d="M465 0h-342v1696h342v-680h270v680h342v-680h324q223 0 256 -127.5t33 -249.5v-262q0 -223 -69.5 -300t-219.5 -77h-666v733h-270v-733zM1235 733h-158v-450h158q61 0 87 36.5t26 110.5v154q0 74 -26 111.5t-87 37.5z" glyph-name="afii10059" horiz-adv-x="1771" unicode="Њ"/><glyph d="M592 0h-342v1413h-230v283h803v-283h-231v-444q126 119 274 119t243 -95.5t95 -271.5v-721h-342v690q0 55 -37 90t-98 35q-135 0 -135 -131v-684z" glyph-name="afii10060" horiz-adv-x="1286" unicode="Ћ"/><glyph d="M674 1796h-178l69 346h277zM123 0v1696h342v-625l268 625h342l-377 -848l439 -848h-342l-330 629v-629h-342z" glyph-name="afii10061" horiz-adv-x="1126" unicode="Ќ"/><glyph d="M664 2066h178q0 -287 -334 -286q-168 0 -251 74.5t-83 211.5h178q0 -57 40 -92t116 -35q156 0 156 127zM997 1696l-467 -1696h-323l135 489l-332 1207h328l166 -674l170 674h323z" glyph-name="afii10062" horiz-adv-x="1007" unicode="Ў"/><glyph d="M1077 0h-342l-20 -285h-219l-21 285h-352v1696h342v-1413h270v1413h342v-1696z" glyph-name="afii10145" horiz-adv-x="1200" unicode="Џ"/><glyph d="M10 0l223 1696h594l224 -1696h-340l-43 344h-275l-41 -344h-342zM530 1462l-102 -835h205z" glyph-name="afii10017" horiz-adv-x="1060" unicode="А"/><glyph d="M1055 1413h-590v-348h323q82 0 138.5 -24.5t103.5 -77.5t47 -275v-311q0 -222 -47 -275t-103.5 -77.5t-138.5 -24.5h-665v1696h932v-283zM623 782h-158v-499h158q61 0 86.5 36.5t25.5 110.5v203q0 74 -25.5 111.5t-86.5 37.5z" glyph-name="afii10018" horiz-adv-x="1159" unicode="Б"/><glyph d="M123 0v1696h665q82 0 138.5 -24.5t103.5 -77.5t47 -275v-49q0 -188 -28.5 -237.5t-71.5 -100.5t-186 -64q222 -17 254 -136t32 -238v-117q0 -222 -47 -275t-103.5 -77.5t-138.5 -24.5h-665zM465 283h158q61 0 86.5 36.5t25.5 110.5v154q0 74 -25.5 111.5t-86.5 37.5h-158 v-450zM623 1413h-158v-397h158q61 0 86.5 37t25.5 110v103q0 74 -25.5 110.5t-86.5 36.5z" glyph-name="afii10019" horiz-adv-x="1169" unicode="В"/><glyph d="M465 0h-342v1696h686v-283h-344v-1413z" glyph-name="afii10020" horiz-adv-x="849" unicode="Г"/><glyph d="M127 281q70 0 78 118l82 1297h872v-1415h156l-21 -566h-219l-20 285h-756l-20 -285h-220l-20 566h88zM817 281v1132h-209l-61 -926q-10 -147 -84 -206h354z" glyph-name="afii10021" horiz-adv-x="1353" unicode="Д"/><glyph d="M881 1413h-416v-397h403v-283h-403v-450h416v-283h-758v1696h758v-283z" glyph-name="afii10022" horiz-adv-x="952" unicode="Е"/><glyph d="M1004 1696v-656l268 656h342l-377 -848l438 -848h-342l-329 659v-659h-342v659l-330 -659h-342l438 848l-377 848h342l269 -656v656h342z" glyph-name="afii10024" horiz-adv-x="1665" unicode="Ж"/><glyph d="M434 1325v-121h-342v176q0 164 128 257.5t348 93.5t349.5 -93.5t129.5 -257.5v-217q0 -209 -211 -286q211 -78 211 -285v-299q0 -162 -126.5 -245t-350.5 -83t-351 83t-127 245v242h342v-162q0 -55 37 -90t99 -35t98.5 33.5t36.5 89.5v237q0 53 -37 89t-101 36h-174v279 h176q63 0 99.5 34.5t36.5 88.5v188q0 55 -37.5 90t-99.5 35t-98 -34t-36 -89z" glyph-name="afii10025" horiz-adv-x="1138" unicode="З"/><glyph d="M123 0v1696h307v-1260l156 1260h514v-1696h-307v1329l-164 -1329h-506z" glyph-name="afii10026" horiz-adv-x="1222" unicode="И"/><glyph d="M776 2052h178q0 -287 -333 -287q-168 0 -251 75t-83 212h178q0 -57 40 -92t116 -35q155 0 155 127zM123 0v1696h307v-1260l156 1260h514v-1696h-307v1329l-164 -1329h-506z" glyph-name="afii10027" horiz-adv-x="1222" unicode="Й"/><glyph d="M123 0v1696h342v-625l268 625h342l-377 -848l439 -848h-342l-330 629v-629h-342z" glyph-name="afii10028" horiz-adv-x="1126" unicode="К"/><glyph d="M123 381v1315h954v-1696h-342v1413h-270v-1110q0 -314 -399 -326v285q37 8 47 36t10 83z" glyph-name="afii10029" horiz-adv-x="1200" unicode="Л"/><glyph d="M430 0h-307v1696h536l144 -1258l145 1258h535v-1696h-305v1329l-156 -1329h-436l-156 1329v-1329z" glyph-name="afii10030" horiz-adv-x="1605" unicode="М"/><glyph d="M735 0v733h-270v-733h-342v1696h342v-680h270v680h342v-1696h-342z" glyph-name="afii10031" horiz-adv-x="1200" unicode="Н"/><glyph d="M1067 1380v-1087q0 -162 -126 -245t-350 -83t-351 83t-127 245v1087q0 164 128 257.5t348 93.5t349 -93.5t129 -257.5zM455 1325v-952q0 -55 36.5 -90t98.5 -35t98.5 33.5t36.5 89.5v952q0 55 -37 90t-99 35t-98 -34t-36 -89z" glyph-name="afii10032" unicode="О"/><glyph d="M465 0h-342v1696h954v-1696h-342v1413h-270v-1413z" glyph-name="afii10033" horiz-adv-x="1200" unicode="П"/><glyph d="M123 0v1696h665q82 0 138.5 -24.5t103.5 -77.5t47 -275v-311q0 -224 -47 -276t-103.5 -76.5t-138.5 -24.5h-323v-631h-342zM465 1413v-500h158q61 0 86.5 38t25.5 112v203q0 74 -25.5 110.5t-86.5 36.5h-158z" glyph-name="afii10034" horiz-adv-x="1159" unicode="Р"/><glyph d="M455 1325v-952q0 -55 36.5 -90t98.5 -35t98.5 33.5t36.5 89.5v364h342v-442q0 -162 -126 -245t-350 -83t-351 83t-127 245v1087q0 164 128 257.5t348 93.5t349 -93.5t129 -257.5v-364h-342v307q0 55 -37 90t-99 35t-98 -34t-36 -89z" glyph-name="afii10035" unicode="С"/><glyph d="M250 0v1413h-230v283h803v-283h-231v-1413h-342z" glyph-name="afii10036" horiz-adv-x="843" unicode="Т"/><glyph d="M997 1696l-467 -1696h-323l135 489l-332 1207h328l166 -674l170 674h323z" glyph-name="afii10037" horiz-adv-x="1007" unicode="У"/><glyph d="M1006 0h-342v201q-33 -4 -195 -4t-269.5 89t-107.5 236v615q0 150 108.5 248t288.5 98q109 0 175 -4v217h342v-217q61 4 174 4q180 0 288.5 -98.5t108.5 -247.5v-615q0 -147 -107.5 -236t-269.5 -89t-194 4v-201zM1122 1194h-116v-709h116q61 0 87 37t26 111v414 q0 74 -26 110.5t-87 36.5zM434 633q0 -74 25.5 -111t87.5 -37h117v709h-117q-61 0 -87 -37t-26 -110v-414z" glyph-name="afii10038" horiz-adv-x="1669" unicode="Ф"/><glyph d="M1024 1696l-336 -848l336 -848h-342l-166 416l-164 -416h-342l336 848l-336 848h342l164 -416l166 416h342z" glyph-name="afii10039" horiz-adv-x="1034" unicode="Х"/><glyph d="M123 0v1696h342v-1413h270v1413h342v-1413h156l-21 -568h-219l-20 285h-850z" glyph-name="afii10040" horiz-adv-x="1271" unicode="Ц"/><glyph d="M1036 0h-342v635q-49 -8 -224 -8t-281.5 80.5t-106.5 226.5v762h342v-633q0 -74 25.5 -111t99.5 -37t145 9v772h342v-1696z" glyph-name="afii10041" horiz-adv-x="1159" unicode="Ч"/><glyph d="M1608 0h-1485v1696h342v-1413h229v1413h342v-1413h230v1413h342v-1696z" glyph-name="afii10042" horiz-adv-x="1730" unicode="Ш"/><glyph d="M123 0v1696h342v-1413h229v1413h342v-1413h230v1413h342v-1413h155l-20 -568h-219l-21 285h-1380z" glyph-name="afii10043" horiz-adv-x="1802" unicode="Щ"/><glyph d="M387 0v1413h-344v283h686v-631h324q222 0 255 -125t33 -252v-311q0 -224 -69 -300.5t-219 -76.5h-666zM887 782h-158v-499h158q61 0 86.5 36.5t25.5 110.5v203q0 74 -25.5 111.5t-86.5 37.5z" glyph-name="afii10044" horiz-adv-x="1423" unicode="Ъ"/><glyph d="M788 0h-665v1696h342v-631h323q82 0 138.5 -24.5t103.5 -77.5t47 -275v-311q0 -222 -47 -275t-103.5 -77.5t-138.5 -24.5zM1622 0h-342v1696h342v-1696zM623 782h-158v-499h158q61 0 86.5 36.5t25.5 110.5v203q0 74 -25.5 111.5t-86.5 37.5z" glyph-name="afii10045" horiz-adv-x="1744" unicode="Ы"/><glyph d="M788 0h-665v1696h342v-631h323q82 0 138.5 -24.5t103.5 -77.5t47 -275v-311q0 -222 -47 -275t-103.5 -77.5t-138.5 -24.5zM623 782h-158v-499h158q61 0 86.5 36.5t25.5 110.5v203q0 74 -25.5 111.5t-86.5 37.5z" glyph-name="afii10046" horiz-adv-x="1159" unicode="Ь"/><glyph d="M705 1014v311q0 55 -36.5 89t-98.5 34t-99 -35t-37 -90v-143h-342v200q0 164 129 257.5t349 93.5t348.5 -93.5t128.5 -257.5v-1087q0 -162 -127.5 -245t-351.5 -83t-350 83t-126 245v254h342v-176q0 -55 36 -89t98 -34t99.5 34.5t37.5 90.5v362h-314v279h314z" glyph-name="afii10047" horiz-adv-x="1138" unicode="Э"/><glyph d="M1655 1380v-1087q0 -162 -126 -245t-350 -83t-351.5 83t-127.5 245v440h-235v-733h-342v1696h342v-680h235v364q0 164 128 257.5t348 93.5t349.5 -93.5t129.5 -257.5zM1042 1325v-952q0 -55 37 -90t99 -35t98.5 33.5t36.5 89.5v952q0 55 -37 90t-99 35t-98.5 -34 t-36.5 -89z" glyph-name="afii10048" horiz-adv-x="1767" unicode="Ю"/><glyph d="M113 494q0 210 67 286.5t219 87.5q-143 13 -186 64t-71.5 100.5t-28.5 237.5v49q0 222 69 299.5t219 77.5h666v-1696h-342v733h-158q-61 0 -86.5 -38t-25.5 -111v-275q0 -256 -23 -309h-338q18 49 19 240v254zM455 1163q0 -74 25.5 -110.5t86.5 -36.5h158v397h-158 q-61 0 -86.5 -37t-25.5 -110v-103z" glyph-name="afii10049" horiz-adv-x="1189" unicode="Я"/><glyph d="M420 -27q-137 0 -232.5 95.5t-95.5 271.5v397q0 150 64.5 200t133 69.5t191.5 31t224 25.5v262q0 55 -36.5 89t-98.5 34t-99 -35t-37 -90v-190h-342v247q0 164 129 257.5t349 93.5t348.5 -93.5t128.5 -257.5v-1206q0 -125 18 -174h-338q-10 23 -18 96q-55 -57 -135 -90 t-154 -33zM434 629v-256q0 -55 37 -90t97 -35t96 28.5t41 77.5v426q-14 -2 -58.5 -8t-59 -9t-47 -11.5t-45 -17.5t-37 -28t-24.5 -77z" glyph-name="afii10065" horiz-adv-x="1159" unicode="а"/><glyph d="M1055 1413h-590v-348h323q82 0 138.5 -24.5t103.5 -77.5t47 -275v-311q0 -222 -47 -275t-103.5 -77.5t-138.5 -24.5h-665v1696h932v-283zM623 782h-158v-499h158q61 0 86.5 36.5t25.5 110.5v203q0 74 -25.5 111.5t-86.5 37.5z" glyph-name="afii10066" horiz-adv-x="1159" unicode="б"/><glyph d="M123 0v1696h665q82 0 138.5 -24.5t103.5 -77.5t47 -275v-49q0 -188 -28.5 -237.5t-71.5 -100.5t-186 -64q222 -17 254 -136t32 -238v-117q0 -222 -47 -275t-103.5 -77.5t-138.5 -24.5h-665zM465 283h158q61 0 86.5 36.5t25.5 110.5v154q0 74 -25.5 111.5t-86.5 37.5h-158 v-450zM623 1413h-158v-397h158q61 0 86.5 37t25.5 110v103q0 74 -25.5 110.5t-86.5 36.5z" glyph-name="afii10067" horiz-adv-x="1169" unicode="в"/><glyph d="M465 0h-342v1696h686v-283h-344v-1413z" glyph-name="afii10068" horiz-adv-x="849" unicode="г"/><glyph d="M127 281q70 0 78 118l82 1297h872v-1415h156l-21 -566h-219l-20 285h-756l-20 -285h-220l-20 566h88zM817 281v1132h-209l-61 -926q-10 -147 -84 -206h354z" glyph-name="afii10069" horiz-adv-x="1353" unicode="д"/><glyph d="M1067 733h-612v-360q0 -55 36.5 -90t98.5 -35t98.5 33.5t36.5 89.5v245h342v-323q0 -162 -126 -245t-350 -83t-351 83t-127 245v1087q0 164 128 257.5t348 93.5t349 -93.5t129 -257.5v-647zM455 1325v-309h270v307q0 55 -37 90t-99 35t-98 -34t-36 -89z" glyph-name="afii10070" unicode="е"/><glyph d="M1004 1696v-656l268 656h342l-377 -848l438 -848h-342l-329 659v-659h-342v659l-330 -659h-342l438 848l-377 848h342l269 -656v656h342z" glyph-name="afii10072" horiz-adv-x="1665" unicode="ж"/><glyph d="M434 1325v-121h-342v176q0 164 128 257.5t348 93.5t349.5 -93.5t129.5 -257.5v-217q0 -209 -211 -286q211 -78 211 -285v-299q0 -162 -126.5 -245t-350.5 -83t-351 83t-127 245v242h342v-162q0 -55 37 -90t99 -35t98.5 33.5t36.5 89.5v237q0 53 -37 89t-101 36h-174v279 h176q63 0 99.5 34.5t36.5 88.5v188q0 55 -37.5 90t-99.5 35t-98 -34t-36 -89z" glyph-name="afii10073" horiz-adv-x="1138" unicode="з"/><glyph d="M123 0v1696h307v-1260l156 1260h514v-1696h-307v1329l-164 -1329h-506z" glyph-name="afii10074" horiz-adv-x="1222" unicode="и"/><glyph d="M776 2052h178q0 -287 -333 -287q-168 0 -251 75t-83 212h178q0 -57 40 -92t116 -35q155 0 155 127zM123 0v1696h307v-1260l156 1260h514v-1696h-307v1329l-164 -1329h-506z" glyph-name="afii10075" horiz-adv-x="1222" unicode="й"/><glyph d="M123 0v1696h342v-625l268 625h342l-377 -848l439 -848h-342l-330 629v-629h-342z" glyph-name="afii10076" horiz-adv-x="1126" unicode="к"/><glyph d="M123 381v1315h954v-1696h-342v1413h-270v-1110q0 -314 -399 -326v285q37 8 47 36t10 83z" glyph-name="afii10077" horiz-adv-x="1200" unicode="л"/><glyph d="M430 0h-307v1696h536l144 -1258l145 1258h535v-1696h-305v1329l-156 -1329h-436l-156 1329v-1329z" glyph-name="afii10078" horiz-adv-x="1605" unicode="м"/><glyph d="M735 0v733h-270v-733h-342v1696h342v-680h270v680h342v-1696h-342z" glyph-name="afii10079" horiz-adv-x="1200" unicode="н"/><glyph d="M1067 1380v-1087q0 -162 -126 -245t-350 -83t-351 83t-127 245v1087q0 164 128 257.5t348 93.5t349 -93.5t129 -257.5zM455 1325v-952q0 -55 36.5 -90t98.5 -35t98.5 33.5t36.5 89.5v952q0 55 -37 90t-99 35t-98 -34t-36 -89z" glyph-name="afii10080" unicode="о"/><glyph d="M465 0h-342v1696h954v-1696h-342v1413h-270v-1413z" glyph-name="afii10081" horiz-adv-x="1200" unicode="п"/><glyph d="M123 0v1696h665q82 0 138.5 -24.5t103.5 -77.5t47 -275v-311q0 -224 -47 -276t-103.5 -76.5t-138.5 -24.5h-323v-631h-342zM465 1413v-500h158q61 0 86.5 38t25.5 112v203q0 74 -25.5 110.5t-86.5 36.5h-158z" glyph-name="afii10082" horiz-adv-x="1159" unicode="р"/><glyph d="M455 1325v-952q0 -55 36.5 -90t98.5 -35t98.5 33.5t36.5 89.5v364h342v-442q0 -162 -126 -245t-350 -83t-351 83t-127 245v1087q0 164 128 257.5t348 93.5t349 -93.5t129 -257.5v-364h-342v307q0 55 -37 90t-99 35t-98 -34t-36 -89z" glyph-name="afii10083" unicode="с"/><glyph d="M250 0v1413h-230v283h803v-283h-231v-1413h-342z" glyph-name="afii10084" horiz-adv-x="843" unicode="т"/><glyph d="M997 1696l-467 -1696h-323l135 489l-332 1207h328l166 -674l170 674h323z" glyph-name="afii10085" horiz-adv-x="1007" unicode="у"/><glyph d="M1006 0h-342v201q-33 -4 -195 -4t-269.5 89t-107.5 236v615q0 150 108.5 248t288.5 98q109 0 175 -4v217h342v-217q61 4 174 4q180 0 288.5 -98.5t108.5 -247.5v-615q0 -147 -107.5 -236t-269.5 -89t-194 4v-201zM1122 1194h-116v-709h116q61 0 87 37t26 111v414 q0 74 -26 110.5t-87 36.5zM434 633q0 -74 25.5 -111t87.5 -37h117v709h-117q-61 0 -87 -37t-26 -110v-414z" glyph-name="afii10086" horiz-adv-x="1669" unicode="ф"/><glyph d="M1024 1696l-336 -848l336 -848h-342l-166 416l-164 -416h-342l336 848l-336 848h342l164 -416l166 416h342z" glyph-name="afii10087" horiz-adv-x="1034" unicode="х"/><glyph d="M123 0v1696h342v-1413h270v1413h342v-1413h156l-21 -568h-219l-20 285h-850z" glyph-name="afii10088" horiz-adv-x="1271" unicode="ц"/><glyph d="M1036 0h-342v635q-49 -8 -224 -8t-281.5 80.5t-106.5 226.5v762h342v-633q0 -74 25.5 -111t99.5 -37t145 9v772h342v-1696z" glyph-name="afii10089" horiz-adv-x="1159" unicode="ч"/><glyph d="M1608 0h-1485v1696h342v-1413h229v1413h342v-1413h230v1413h342v-1696z" glyph-name="afii10090" horiz-adv-x="1730" unicode="ш"/><glyph d="M123 0v1696h342v-1413h229v1413h342v-1413h230v1413h342v-1413h155l-20 -568h-219l-21 285h-1380z" glyph-name="afii10091" horiz-adv-x="1802" unicode="щ"/><glyph d="M387 0v1413h-344v283h686v-631h324q222 0 255 -125t33 -252v-311q0 -224 -69 -300.5t-219 -76.5h-666zM887 782h-158v-499h158q61 0 86.5 36.5t25.5 110.5v203q0 74 -25.5 111.5t-86.5 37.5z" glyph-name="afii10092" horiz-adv-x="1423" unicode="ъ"/><glyph d="M788 0h-665v1696h342v-631h323q82 0 138.5 -24.5t103.5 -77.5t47 -275v-311q0 -222 -47 -275t-103.5 -77.5t-138.5 -24.5zM1622 0h-342v1696h342v-1696zM623 782h-158v-499h158q61 0 86.5 36.5t25.5 110.5v203q0 74 -25.5 111.5t-86.5 37.5z" glyph-name="afii10093" horiz-adv-x="1744" unicode="ы"/><glyph d="M788 0h-665v1696h342v-631h323q82 0 138.5 -24.5t103.5 -77.5t47 -275v-311q0 -222 -47 -275t-103.5 -77.5t-138.5 -24.5zM623 782h-158v-499h158q61 0 86.5 36.5t25.5 110.5v203q0 74 -25.5 111.5t-86.5 37.5z" glyph-name="afii10094" horiz-adv-x="1159" unicode="ь"/><glyph d="M705 1014v311q0 55 -36.5 89t-98.5 34t-99 -35t-37 -90v-143h-342v200q0 164 129 257.5t349 93.5t348.5 -93.5t128.5 -257.5v-1087q0 -162 -127.5 -245t-351.5 -83t-350 83t-126 245v254h342v-176q0 -55 36 -89t98 -34t99.5 34.5t37.5 90.5v362h-314v279h314z" glyph-name="afii10095" horiz-adv-x="1138" unicode="э"/><glyph d="M1655 1380v-1087q0 -162 -126 -245t-350 -83t-351.5 83t-127.5 245v440h-235v-733h-342v1696h342v-680h235v364q0 164 128 257.5t348 93.5t349.5 -93.5t129.5 -257.5zM1042 1325v-952q0 -55 37 -90t99 -35t98.5 33.5t36.5 89.5v952q0 55 -37 90t-99 35t-98.5 -34 t-36.5 -89z" glyph-name="afii10096" horiz-adv-x="1767" unicode="ю"/><glyph d="M113 494q0 210 67 286.5t219 87.5q-143 13 -186 64t-71.5 100.5t-28.5 237.5v49q0 222 69 299.5t219 77.5h666v-1696h-342v733h-158q-61 0 -86.5 -38t-25.5 -111v-275q0 -256 -23 -309h-338q18 49 19 240v254zM455 1163q0 -74 25.5 -110.5t86.5 -36.5h158v397h-158 q-61 0 -86.5 -37t-25.5 -110v-103z" glyph-name="afii10097" horiz-adv-x="1189" unicode="я"/><glyph d="M1067 733h-612v-360q0 -55 36.5 -90t98.5 -35t98.5 33.5t36.5 89.5v245h342v-323q0 -162 -126 -245t-350 -83t-351 83t-127 245v1087q0 164 128 257.5t348 93.5t349 -93.5t129 -257.5v-647zM455 1325v-309h270v307q0 55 -37 90t-99 35t-98 -34t-36 -89zM276 2032h232 v-234h-232v234zM668 2032h235v-234h-235v234z" glyph-name="afii10071" unicode="ё"/><glyph d="M592 0h-342v1413h-230v283h803v-283h-231v-444q126 119 274 119t243 -95.5t95 -271.5v-672q0 -176 -95 -271t-225 -95t-227 69v221q29 -16 80 -16t88 35t37 90v608q0 55 -37 90t-98 35q-135 0 -135 -131v-684z" glyph-name="afii10099" horiz-adv-x="1286" unicode="ђ"/><glyph d="M465 0h-342v1696h686v-283h-344v-1413zM539 1796h-179l70 346h277z" glyph-name="afii10100" horiz-adv-x="849" unicode="ѓ"/><glyph d="M434 1325v-311h314v-279h-314v-362q0 -55 37 -90t99 -35t98.5 33.5t36.5 89.5v176h342v-254q0 -162 -126.5 -245t-350.5 -83t-351 83t-127 245v1087q0 164 128 257.5t348 93.5t349.5 -93.5t129.5 -257.5v-200h-342v143q0 55 -37.5 90t-99.5 35t-98 -34t-36 -89z" glyph-name="afii10101" horiz-adv-x="1138" unicode="є"/><glyph d="M1047 561v-268q0 -162 -127.5 -245t-351.5 -83t-350 83t-126 245v323h342v-245q0 -55 36 -89t98 -34t99.5 34.5t37.5 90.5v139q0 76 -63.5 130t-154 93t-179.5 85t-152.5 132t-63.5 207v221q0 164 128 257.5t348 93.5t349.5 -93.5t129.5 -257.5v-247h-342v190 q0 55 -37.5 90t-99.5 35t-98 -34t-36 -89v-100q0 -70 45 -118t114 -72.5t147.5 -60.5t147 -78t114 -128t45.5 -207z" glyph-name="afii10102" horiz-adv-x="1138" unicode="ѕ"/><glyph d="M465 0h-342v1696h342v-1696z" glyph-name="afii10103" horiz-adv-x="587" unicode="і"/><glyph d="M465 0h-342v1696h342v-1696zM213 1798h-231v234h231v-234zM608 1798h-235v234h235v-234z" glyph-name="afii10104" horiz-adv-x="587" unicode="ї"/><glyph d="M928 293q0 -328 -433 -328t-434 328v440h342v-360q0 -63 17.5 -94t75 -31t74 29.5t16.5 93.5v1325h342v-1403z" glyph-name="afii10105" horiz-adv-x="1040" unicode="ј"/><glyph d="M123 381v1315h954v-631h324q222 0 255.5 -127t33.5 -250v-311q0 -223 -69.5 -300t-219.5 -77h-666v1413h-270v-1110q0 -314 -399 -326v285q37 8 47 36t10 83zM1235 782h-158v-499h158q61 0 87 36.5t26 110.5v203q0 74 -26 111.5t-87 37.5z" glyph-name="afii10106" horiz-adv-x="1771" unicode="љ"/><glyph d="M465 0h-342v1696h342v-680h270v680h342v-680h324q223 0 256 -127.5t33 -249.5v-262q0 -223 -69.5 -300t-219.5 -77h-666v733h-270v-733zM1235 733h-158v-450h158q61 0 87 36.5t26 110.5v154q0 74 -26 111.5t-87 37.5z" glyph-name="afii10107" horiz-adv-x="1771" unicode="њ"/><glyph d="M592 0h-342v1413h-230v283h803v-283h-231v-444q126 119 274 119t243 -95.5t95 -271.5v-721h-342v690q0 55 -37 90t-98 35q-135 0 -135 -131v-684z" glyph-name="afii10108" horiz-adv-x="1286" unicode="ћ"/><glyph d="M674 1796h-178l69 346h277zM123 0v1696h342v-625l268 625h342l-377 -848l439 -848h-342l-330 629v-629h-342z" glyph-name="afii10109" horiz-adv-x="1126" unicode="ќ"/><glyph d="M664 2066h178q0 -287 -334 -286q-168 0 -251 74.5t-83 211.5h178q0 -57 40 -92t116 -35q156 0 156 127zM997 1696l-467 -1696h-323l135 489l-332 1207h328l166 -674l170 674h323z" glyph-name="afii10110" horiz-adv-x="1007" unicode="ў"/><glyph d="M1077 0h-342l-20 -285h-219l-21 285h-352v1696h342v-1413h270v1413h342v-1696z" glyph-name="afii10193" horiz-adv-x="1200" unicode="џ"/><glyph d="M465 0h-342v1696h522l-31 284h256v-567h-405v-1413z" glyph-name="afii10050" horiz-adv-x="911" unicode="Ґ"/><glyph d="M465 0h-342v1696h522l-31 284h256v-567h-405v-1413z" glyph-name="afii10098" horiz-adv-x="911" unicode="ґ"/><glyph d="M123 0v1696h665q82 0 138.5 -24.5t103.5 -77.5t47 -275v-49q0 -188 -28.5 -237.5t-71.5 -100.5t-186 -64q222 -17 254 -136t32 -238v-117q0 -222 -47 -275t-103.5 -77.5t-138.5 -24.5h-665zM465 283h158q61 0 86.5 36.5t25.5 110.5v154q0 74 -25.5 111.5t-86.5 37.5h-158 v-450zM623 1413h-158v-397h158q61 0 86.5 37t25.5 110v103q0 74 -25.5 110.5t-86.5 36.5zM446 2032h236v-234h-236v234z" glyph-name="uni1E02" horiz-adv-x="1169" unicode="Ḃ"/><glyph d="M123 0v1696h665q82 0 138.5 -24.5t103.5 -77.5t47 -275v-49q0 -188 -28.5 -237.5t-71.5 -100.5t-186 -64q222 -17 254 -136t32 -238v-117q0 -222 -47 -275t-103.5 -77.5t-138.5 -24.5h-665zM465 283h158q61 0 86.5 36.5t25.5 110.5v154q0 74 -25.5 111.5t-86.5 37.5h-158 v-450zM623 1413h-158v-397h158q61 0 86.5 37t25.5 110v103q0 74 -25.5 110.5t-86.5 36.5zM446 2032h236v-234h-236v234z" glyph-name="uni1E03" horiz-adv-x="1169" unicode="ḃ"/><glyph d="M123 0v1696h665q82 0 138.5 -24.5t103.5 -77.5t47 -275v-942q0 -222 -47 -275t-103.5 -77.5t-138.5 -24.5h-665zM623 1413h-158v-1130h158q61 0 86.5 36.5t25.5 110.5v836q0 74 -25.5 110.5t-86.5 36.5zM457 2032h235v-234h-235v234z" glyph-name="uni1E0A" horiz-adv-x="1189" unicode="Ḋ"/><glyph d="M123 0v1696h665q82 0 138.5 -24.5t103.5 -77.5t47 -275v-942q0 -222 -47 -275t-103.5 -77.5t-138.5 -24.5h-665zM623 1413h-158v-1130h158q61 0 86.5 36.5t25.5 110.5v836q0 74 -25.5 110.5t-86.5 36.5zM457 2032h235v-234h-235v234z" glyph-name="uni1E0B" horiz-adv-x="1189" unicode="ḋ"/><glyph d="M797 733h-332v-733h-342v1696h686v-283h-344v-397h332v-283zM348 2032h236v-234h-236v234z" glyph-name="uni1E1E" horiz-adv-x="849" unicode="Ḟ"/><glyph d="M797 733h-332v-733h-342v1696h686v-283h-344v-397h332v-283zM348 2032h236v-234h-236v234z" glyph-name="uni1E1F" horiz-adv-x="849" unicode="ḟ"/><glyph d="M465 0h-342v1696h342v-680h270v680h342v-1696h-342v733h-270v-733zM717 1798h-236v234h236v-234z" glyph-name="uni1E22" horiz-adv-x="1200" unicode="Ḣ"/><glyph d="M465 0h-342v1696h342v-680h270v680h342v-1696h-342v733h-270v-733zM717 1798h-236v234h236v-234z" glyph-name="uni1E23" horiz-adv-x="1200" unicode="ḣ"/><glyph d="M430 0h-307v1696h536l144 -1258l145 1258h535v-1696h-305v1329l-156 -1329h-436l-156 1329v-1329zM684 2032h236v-234h-236v234z" glyph-name="uni1E40" horiz-adv-x="1605" unicode="Ṁ"/><glyph d="M465 0h-342v1696h338l4 -101q115 127 254 127q170 0 252 -147q119 147 303 147q133 0 216 -94t83 -272v-1356h-342v1329q0 119 -109 119q-49 0 -76.5 -27.5t-27.5 -74.5v-1346h-340v1329q0 53 -28 86t-80 33t-78.5 -31t-26.5 -82v-1335zM725 2032h236v-234h-236v234z" glyph-name="uni1E41" horiz-adv-x="1685" unicode="ṁ"/><glyph d="M123 0v1696h665q82 0 138.5 -24.5t103.5 -77.5t47 -275v-311q0 -224 -47 -276t-103.5 -76.5t-138.5 -24.5h-323v-631h-342zM465 1413v-500h158q61 0 86.5 38t25.5 112v203q0 74 -25.5 110.5t-86.5 36.5h-158zM440 2032h236v-234h-236v234z" glyph-name="uni1E56" horiz-adv-x="1159" unicode="Ṗ"/><glyph d="M123 0v1696h665q82 0 138.5 -24.5t103.5 -77.5t47 -275v-311q0 -224 -47 -276t-103.5 -76.5t-138.5 -24.5h-323v-631h-342zM465 1413v-500h158q61 0 86.5 38t25.5 112v203q0 74 -25.5 110.5t-86.5 36.5h-158zM440 2032h236v-234h-236v234z" glyph-name="uni1E57" horiz-adv-x="1159" unicode="ṗ"/><glyph d="M1047 561v-268q0 -162 -127.5 -245t-351.5 -83t-350 83t-126 245v323h342v-245q0 -55 36 -89t98 -34t99.5 34.5t37.5 90.5v139q0 76 -63.5 130t-154 93t-179.5 85t-152.5 132t-63.5 207v221q0 164 128 257.5t348 93.5t349.5 -93.5t129.5 -257.5v-247h-342v190 q0 55 -37.5 90t-99.5 35t-98 -34t-36 -89v-100q0 -70 45 -118t114 -72.5t147.5 -60.5t147 -78t114 -128t45.5 -207zM451 2032h235v-234h-235v234z" glyph-name="uni1E60" horiz-adv-x="1138" unicode="Ṡ"/><glyph d="M1047 561v-268q0 -162 -127.5 -245t-351.5 -83t-350 83t-126 245v323h342v-245q0 -55 36 -89t98 -34t99.5 34.5t37.5 90.5v139q0 76 -63.5 130t-154 93t-179.5 85t-152.5 132t-63.5 207v221q0 164 128 257.5t348 93.5t349.5 -93.5t129.5 -257.5v-247h-342v190 q0 55 -37.5 90t-99.5 35t-98 -34t-36 -89v-100q0 -70 45 -118t114 -72.5t147.5 -60.5t147 -78t114 -128t45.5 -207zM451 2032h235v-234h-235v234z" glyph-name="uni1E61" horiz-adv-x="1138" unicode="ṡ"/><glyph d="M250 0v1413h-230v283h803v-283h-231v-1413h-342zM303 2032h236v-234h-236v234z" glyph-name="uni1E6A" horiz-adv-x="843" unicode="Ṫ"/><glyph d="M250 0v1413h-230v283h803v-283h-231v-1413h-342zM303 2032h236v-234h-236v234z" glyph-name="uni1E6B" horiz-adv-x="843" unicode="ṫ"/><glyph d="M870 0l-102 1262l-98 -1262h-506l-154 1696h365l86 -1415l108 1415h402l108 -1415l84 1415h367l-154 -1696h-506zM694 1796l-168 346h277l69 -346h-178z" glyph-name="Wgrave" horiz-adv-x="1540" unicode="Ẁ"/><glyph d="M870 0l-102 1262l-98 -1262h-506l-154 1696h365l86 -1415l108 1415h402l108 -1415l84 1415h367l-154 -1696h-506zM694 1796l-168 346h277l69 -346h-178z" glyph-name="wgrave" horiz-adv-x="1540" unicode="ẁ"/><glyph d="M870 0l-102 1262l-98 -1262h-506l-154 1696h365l86 -1415l108 1415h402l108 -1415l84 1415h367l-154 -1696h-506zM1042 2142l-168 -346h-178l70 346h276z" glyph-name="Wacute" horiz-adv-x="1540" unicode="Ẃ"/><glyph d="M870 0l-102 1262l-98 -1262h-506l-154 1696h365l86 -1415l108 1415h402l108 -1415l84 1415h367l-154 -1696h-506zM1042 2142l-168 -346h-178l70 346h276z" glyph-name="wacute" horiz-adv-x="1540" unicode="ẃ"/><glyph d="M870 0l-102 1262l-98 -1262h-506l-154 1696h365l86 -1415l108 1415h402l108 -1415l84 1415h367l-154 -1696h-506zM457 2032h231v-234h-231v234zM848 2032h235v-234h-235v234z" glyph-name="Wdieresis" horiz-adv-x="1540" unicode="Ẅ"/><glyph d="M870 0l-102 1262l-98 -1262h-506l-154 1696h365l86 -1415l108 1415h402l108 -1415l84 1415h367l-154 -1696h-506zM457 2032h231v-234h-231v234zM848 2032h235v-234h-235v234z" glyph-name="wdieresis" horiz-adv-x="1540" unicode="ẅ"/><glyph d="M700 -471h-342v352h342v-352zM10 0l223 1696h594l224 -1696h-340l-43 344h-275l-41 -344h-342zM530 1462l-102 -835h205z" glyph-name="uni1EA0" horiz-adv-x="1060" unicode="Ạ"/><glyph d="M778 -471h-342v352h342v-352zM420 -27q-137 0 -232.5 95.5t-95.5 271.5v397q0 150 64.5 200t133 69.5t191.5 31t224 25.5v262q0 55 -36.5 89t-98.5 34t-99 -35t-37 -90v-190h-342v247q0 164 129 257.5t349 93.5t348.5 -93.5t128.5 -257.5v-1206q0 -125 18 -174h-338 q-10 23 -18 96q-55 -57 -135 -90t-154 -33zM434 629v-256q0 -55 37 -90t97 -35t96 28.5t41 77.5v426q-14 -2 -58.5 -8t-59 -9t-47 -11.5t-45 -17.5t-37 -28t-24.5 -77z" glyph-name="uni1EA1" horiz-adv-x="1159" unicode="ạ"/><glyph d="M586 1778h-107v141q101 0 101 56t-52 57q-31 0 -49 -37h-133q18 68 67.5 104.5t110.5 36.5q190 0 191 -168q0 -51 -35 -84t-94 -35v-71zM10 0l223 1696h594l224 -1696h-340l-43 344h-275l-41 -344h-342zM530 1462l-102 -835h205z" glyph-name="uni1EA2" horiz-adv-x="1060" unicode="Ả"/><glyph d="M614 1796h-106v141q100 0 100 60q0 53 -51 53q-31 0 -49 -37h-133q18 68 67.5 104.5t110.5 36.5q190 0 190 -167q0 -51 -35 -84t-94 -35v-72zM420 -27q-137 0 -232.5 95.5t-95.5 271.5v397q0 150 64.5 200t133 69.5t191.5 31t224 25.5v262q0 55 -36.5 89t-98.5 34 t-99 -35t-37 -90v-190h-342v247q0 164 129 257.5t349 93.5t348.5 -93.5t128.5 -257.5v-1206q0 -125 18 -174h-338q-10 23 -18 96q-55 -57 -135 -90t-154 -33zM434 629v-256q0 -55 37 -90t97 -35t96 28.5t41 77.5v426q-14 -2 -58.5 -8t-59 -9t-47 -11.5t-45 -17.5t-37 -28 t-24.5 -77z" glyph-name="uni1EA3" horiz-adv-x="1159" unicode="ả"/><glyph d="M799 1796h-203l-59 117l-64 -117h-213l172 254h211zM625 2116h-179l70 346h277zM10 0l223 1696h594l224 -1696h-340l-43 344h-275l-41 -344h-342zM530 1462l-102 -835h205z" glyph-name="uni1EA4" horiz-adv-x="1060" unicode="Ấ"/><glyph d="M838 1796h-203l-60 117l-63 -117h-213l172 254h211zM668 2116h-179l70 346h277zM420 -27q-137 0 -232.5 95.5t-95.5 271.5v397q0 150 64.5 200t133 69.5t191.5 31t224 25.5v262q0 55 -36.5 89t-98.5 34t-99 -35t-37 -90v-190h-342v247q0 164 129 257.5t349 93.5 t348.5 -93.5t128.5 -257.5v-1206q0 -125 18 -174h-338q-10 23 -18 96q-55 -57 -135 -90t-154 -33zM434 629v-256q0 -55 37 -90t97 -35t96 28.5t41 77.5v426q-14 -2 -58.5 -8t-59 -9t-47 -11.5t-45 -17.5t-37 -28t-24.5 -77z" glyph-name="uni1EA5" horiz-adv-x="1159" unicode="ấ"/><glyph d="M799 1796h-203l-59 117l-64 -117h-213l172 254h211zM618 2114h-178l-168 346h277zM10 0l223 1696h594l224 -1696h-340l-43 344h-275l-41 -344h-342zM530 1462l-102 -835h205z" glyph-name="uni1EA6" horiz-adv-x="1060" unicode="Ầ"/><glyph d="M838 1796h-203l-60 117l-63 -117h-213l172 254h211zM651 2122h-178l-168 346h277zM420 -27q-137 0 -232.5 95.5t-95.5 271.5v397q0 150 64.5 200t133 69.5t191.5 31t224 25.5v262q0 55 -36.5 89t-98.5 34t-99 -35t-37 -90v-190h-342v247q0 164 129 257.5t349 93.5 t348.5 -93.5t128.5 -257.5v-1206q0 -125 18 -174h-338q-10 23 -18 96q-55 -57 -135 -90t-154 -33zM434 629v-256q0 -55 37 -90t97 -35t96 28.5t41 77.5v426q-14 -2 -58.5 -8t-59 -9t-47 -11.5t-45 -17.5t-37 -28t-24.5 -77z" glyph-name="uni1EA7" horiz-adv-x="1159" unicode="ầ"/><glyph d="M799 1796h-203l-59 117l-64 -117h-213l172 254h211zM586 2116h-107v141q101 0 101 56t-52 57q-31 0 -49 -37h-133q18 68 67.5 104.5t110.5 36.5q190 0 191 -168q0 -51 -35 -84t-94 -35v-71zM10 0l223 1696h594l224 -1696h-340l-43 344h-275l-41 -344h-342zM530 1462 l-102 -835h205z" glyph-name="uni1EA8" horiz-adv-x="1060" unicode="Ẩ"/><glyph d="M838 1796h-203l-60 117l-63 -117h-213l172 254h211zM627 2107h-107v142q100 0 100 56t-51 56q-31 0 -49 -37h-133q18 68 67.5 105t110.5 37q190 0 191 -168q0 -51 -35 -84t-94 -35v-72zM420 -27q-137 0 -232.5 95.5t-95.5 271.5v397q0 150 64.5 200t133 69.5t191.5 31 t224 25.5v262q0 55 -36.5 89t-98.5 34t-99 -35t-37 -90v-190h-342v247q0 164 129 257.5t349 93.5t348.5 -93.5t128.5 -257.5v-1206q0 -125 18 -174h-338q-10 23 -18 96q-55 -57 -135 -90t-154 -33zM434 629v-256q0 -55 37 -90t97 -35t96 28.5t41 77.5v426q-14 -2 -58.5 -8 t-59 -9t-47 -11.5t-45 -17.5t-37 -28t-24.5 -77z" glyph-name="uni1EA9" horiz-adv-x="1159" unicode="ẩ"/><glyph d="M799 1796h-203l-59 117l-64 -117h-213l172 254h211zM217 2189q97 166 208 166q58 0 112.5 -35.5t87.5 -35.5q69 -1 94 75l135 -98q-78 -156 -201 -156q-53 0 -113.5 41t-84.5 41q-66 0 -105 -86zM10 0l223 1696h594l224 -1696h-340l-43 344h-275l-41 -344h-342zM530 1462 l-102 -835h205z" glyph-name="uni1EAA" horiz-adv-x="1060" unicode="Ẫ"/><glyph d="M838 1796h-203l-60 117l-63 -117h-213l172 254h211zM260 2183q97 166 208 166q58 0 112.5 -36t87.5 -36q69 0 94 76l135 -98q-78 -156 -201 -156q-53 0 -113.5 41t-84.5 41q-66 0 -105 -86zM420 -27q-137 0 -232.5 95.5t-95.5 271.5v397q0 150 64.5 200t133 69.5 t191.5 31t224 25.5v262q0 55 -36.5 89t-98.5 34t-99 -35t-37 -90v-190h-342v247q0 164 129 257.5t349 93.5t348.5 -93.5t128.5 -257.5v-1206q0 -125 18 -174h-338q-10 23 -18 96q-55 -57 -135 -90t-154 -33zM434 629v-256q0 -55 37 -90t97 -35t96 28.5t41 77.5v426 q-14 -2 -58.5 -8t-59 -9t-47 -11.5t-45 -17.5t-37 -28t-24.5 -77z" glyph-name="uni1EAB" horiz-adv-x="1159" unicode="ẫ"/><glyph d="M700 -471h-342v352h342v-352zM799 1796h-203l-59 117l-64 -117h-213l172 254h211zM10 0l223 1696h594l224 -1696h-340l-43 344h-275l-41 -344h-342zM530 1462l-102 -835h205z" glyph-name="uni1EAC" horiz-adv-x="1060" unicode="Ậ"/><glyph d="M778 -471h-342v352h342v-352zM848 1796h-203l-59 117l-64 -117h-213l172 254h211zM420 -27q-137 0 -232.5 95.5t-95.5 271.5v397q0 150 64.5 200t133 69.5t191.5 31t224 25.5v262q0 55 -36.5 89t-98.5 34t-99 -35t-37 -90v-190h-342v247q0 164 129 257.5t349 93.5 t348.5 -93.5t128.5 -257.5v-1206q0 -125 18 -174h-338q-10 23 -18 96q-55 -57 -135 -90t-154 -33zM434 629v-256q0 -55 37 -90t97 -35t96 28.5t41 77.5v426q-14 -2 -58.5 -8t-59 -9t-47 -11.5t-45 -17.5t-37 -28t-24.5 -77z" glyph-name="uni1EAD" horiz-adv-x="1159" unicode="ậ"/><glyph d="M686 2083h178q0 -287 -334 -287q-168 0 -250.5 75t-82.5 212h178q0 -57 40 -92t115 -35q156 0 156 127zM621 2083h-179l70 346h276zM10 0l223 1696h594l224 -1696h-340l-43 344h-275l-41 -344h-342zM530 1462l-102 -835h205z" glyph-name="uni1EAE" horiz-adv-x="1060" unicode="Ắ"/><glyph d="M735 2083h178q0 -287 -333 -287q-168 0 -251 75t-83 212h178q0 -57 40 -92t116 -35q155 0 155 127zM670 2081h-178l69 346h277zM420 -27q-137 0 -232.5 95.5t-95.5 271.5v397q0 150 64.5 200t133 69.5t191.5 31t224 25.5v262q0 55 -36.5 89t-98.5 34t-99 -35t-37 -90 v-190h-342v247q0 164 129 257.5t349 93.5t348.5 -93.5t128.5 -257.5v-1206q0 -125 18 -174h-338q-10 23 -18 96q-55 -57 -135 -90t-154 -33zM434 629v-256q0 -55 37 -90t97 -35t96 28.5t41 77.5v426q-14 -2 -58.5 -8t-59 -9t-47 -11.5t-45 -17.5t-37 -28t-24.5 -77z" glyph-name="uni1EAF" horiz-adv-x="1159" unicode="ắ"/><glyph d="M686 2083h178q0 -287 -334 -287q-168 0 -250.5 75t-82.5 212h178q0 -57 40 -92t115 -35q156 0 156 127zM633 2046h-178l-168 346h276zM10 0l223 1696h594l224 -1696h-340l-43 344h-275l-41 -344h-342zM530 1462l-102 -835h205z" glyph-name="uni1EB0" horiz-adv-x="1060" unicode="Ằ"/><glyph d="M735 2083h178q0 -287 -333 -287q-168 0 -251 75t-83 212h178q0 -57 40 -92t116 -35q155 0 155 127zM678 2046h-178l-168 346h276zM420 -27q-137 0 -232.5 95.5t-95.5 271.5v397q0 150 64.5 200t133 69.5t191.5 31t224 25.5v262q0 55 -36.5 89t-98.5 34t-99 -35t-37 -90 v-190h-342v247q0 164 129 257.5t349 93.5t348.5 -93.5t128.5 -257.5v-1206q0 -125 18 -174h-338q-10 23 -18 96q-55 -57 -135 -90t-154 -33zM434 629v-256q0 -55 37 -90t97 -35t96 28.5t41 77.5v426q-14 -2 -58.5 -8t-59 -9t-47 -11.5t-45 -17.5t-37 -28t-24.5 -77z" glyph-name="uni1EB1" horiz-adv-x="1159" unicode="ằ"/><glyph d="M686 2083h178q0 -287 -334 -287q-168 0 -250.5 75t-82.5 212h178q0 -57 40 -92t115 -35q156 0 156 127zM586 2050h-107v141q101 1 101 57t-52 56q-31 0 -49 -37h-133q18 68 67.5 104.5t110.5 36.5q190 0 191 -167q0 -51 -35 -84t-94 -35v-72zM10 0l223 1696h594 l224 -1696h-340l-43 344h-275l-41 -344h-342zM530 1462l-102 -835h205z" glyph-name="uni1EB2" horiz-adv-x="1060" unicode="Ẳ"/><glyph d="M735 2083h178q0 -287 -333 -287q-168 0 -251 75t-83 212h178q0 -57 40 -92t116 -35q155 0 155 127zM635 2048h-107v141q100 1 100 57t-50 56q-31 0 -50 -37h-133q18 68 67.5 104.5t110.5 36.5q190 0 191 -168q0 -51 -35 -83.5t-94 -34.5v-72zM420 -27q-137 0 -232.5 95.5 t-95.5 271.5v397q0 150 64.5 200t133 69.5t191.5 31t224 25.5v262q0 55 -36.5 89t-98.5 34t-99 -35t-37 -90v-190h-342v247q0 164 129 257.5t349 93.5t348.5 -93.5t128.5 -257.5v-1206q0 -125 18 -174h-338q-10 23 -18 96q-55 -57 -135 -90t-154 -33zM434 629v-256 q0 -55 37 -90t97 -35t96 28.5t41 77.5v426q-14 -2 -58.5 -8t-59 -9t-47 -11.5t-45 -17.5t-37 -28t-24.5 -77z" glyph-name="uni1EB3" horiz-adv-x="1159" unicode="ẳ"/><glyph d="M686 2083h178q0 -287 -334 -287q-168 0 -250.5 75t-82.5 212h178q0 -57 40 -92t115 -35q156 0 156 127zM211 2238q97 166 207 166q58 0 113 -35.5t87 -35.5q70 -1 95 75l135 -98q-78 -156 -201 -156q-53 0 -113.5 41t-84.5 41q-66 0 -105 -86zM10 0l223 1696h594 l224 -1696h-340l-43 344h-275l-41 -344h-342zM530 1462l-102 -835h205z" glyph-name="uni1EB4" horiz-adv-x="1060" unicode="Ẵ"/><glyph d="M735 2083h178q0 -287 -333 -287q-168 0 -251 75t-83 212h178q0 -57 40 -92t116 -35q155 0 155 127zM260 2234q97 166 208 166q58 0 112.5 -35.5t87.5 -35.5q69 -1 94 75l135 -98q-78 -156 -201 -156q-53 0 -113.5 41t-84.5 41q-66 0 -105 -86zM420 -27 q-137 0 -232.5 95.5t-95.5 271.5v397q0 150 64.5 200t133 69.5t191.5 31t224 25.5v262q0 55 -36.5 89t-98.5 34t-99 -35t-37 -90v-190h-342v247q0 164 129 257.5t349 93.5t348.5 -93.5t128.5 -257.5v-1206q0 -125 18 -174h-338q-10 23 -18 96q-55 -57 -135 -90t-154 -33z M434 629v-256q0 -55 37 -90t97 -35t96 28.5t41 77.5v426q-14 -2 -58.5 -8t-59 -9t-47 -11.5t-45 -17.5t-37 -28t-24.5 -77z" glyph-name="uni1EB5" horiz-adv-x="1159" unicode="ẵ"/><glyph d="M700 -471h-342v352h342v-352zM686 2083h178q0 -287 -334 -287q-168 0 -250.5 75t-82.5 212h178q0 -57 40 -92t115 -35q156 0 156 127zM10 0l223 1696h594l224 -1696h-340l-43 344h-275l-41 -344h-342zM530 1462l-102 -835h205z" glyph-name="uni1EB6" horiz-adv-x="1060" unicode="Ặ"/><glyph d="M778 -471h-342v352h342v-352zM735 2083h178q0 -287 -333 -287q-168 0 -251 75t-83 212h178q0 -57 40 -92t116 -35q155 0 155 127zM420 -27q-137 0 -232.5 95.5t-95.5 271.5v397q0 150 64.5 200t133 69.5t191.5 31t224 25.5v262q0 55 -36.5 89t-98.5 34t-99 -35t-37 -90 v-190h-342v247q0 164 129 257.5t349 93.5t348.5 -93.5t128.5 -257.5v-1206q0 -125 18 -174h-338q-10 23 -18 96q-55 -57 -135 -90t-154 -33zM434 629v-256q0 -55 37 -90t97 -35t96 28.5t41 77.5v426q-14 -2 -58.5 -8t-59 -9t-47 -11.5t-45 -17.5t-37 -28t-24.5 -77z" glyph-name="uni1EB7" horiz-adv-x="1159" unicode="ặ"/><glyph d="M670 -471h-342v352h342v-352zM881 1413h-416v-397h403v-283h-403v-450h416v-283h-758v1696h758v-283z" glyph-name="uni1EB8" horiz-adv-x="952" unicode="Ẹ"/><glyph d="M774 -471h-342v352h342v-352zM1067 733h-612v-360q0 -55 36.5 -90t98.5 -35t98.5 33.5t36.5 89.5v245h342v-323q0 -162 -126 -245t-350 -83t-351 83t-127 245v1087q0 164 128 257.5t348 93.5t349 -93.5t129 -257.5v-647zM455 1325v-309h270v307q0 55 -37 90t-99 35 t-98 -34t-36 -89z" glyph-name="uni1EB9" unicode="ẹ"/><glyph d="M530 1796h-106v141q100 0 100 60q0 53 -51 53q-31 0 -49 -37h-133q18 68 67.5 104.5t110.5 36.5q190 0 190 -167q0 -51 -35 -84t-94 -35v-72zM881 1413h-416v-397h403v-283h-403v-450h416v-283h-758v1696h758v-283z" glyph-name="uni1EBA" horiz-adv-x="952" unicode="Ẻ"/><glyph d="M645 1796h-106v141q100 0 100 60q0 53 -51 53q-31 0 -49 -37h-133q18 68 67 104.5t111 36.5q190 0 190 -167q0 -51 -35 -84t-94 -35v-72zM1067 733h-612v-360q0 -55 36.5 -90t98.5 -35t98.5 33.5t36.5 89.5v245h342v-323q0 -162 -126 -245t-350 -83t-351 83t-127 245 v1087q0 164 128 257.5t348 93.5t349 -93.5t129 -257.5v-647zM455 1325v-309h270v307q0 55 -37 90t-99 35t-98 -34t-36 -89z" glyph-name="uni1EBB" unicode="ẻ"/><glyph d="M178 1845q97 166 208 166q58 0 112.5 -36t87.5 -36q69 0 94 76l135 -98q-78 -156 -201 -156q-53 0 -113.5 41t-84.5 41q-66 0 -105 -86zM881 1413h-416v-397h403v-283h-403v-450h416v-283h-758v1696h758v-283z" glyph-name="uni1EBC" horiz-adv-x="952" unicode="Ẽ"/><glyph d="M270 1866q97 166 208 166q58 0 112.5 -36t87.5 -36q69 0 94 76l135 -99q-78 -156 -200 -155q-53 0 -114 41t-85 41q-66 0 -105 -86zM1067 733h-612v-360q0 -55 36.5 -90t98.5 -35t98.5 33.5t36.5 89.5v245h342v-323q0 -162 -126 -245t-350 -83t-351 83t-127 245v1087 q0 164 128 257.5t348 93.5t349 -93.5t129 -257.5v-647zM455 1325v-309h270v307q0 55 -37 90t-99 35t-98 -34t-36 -89z" glyph-name="uni1EBD" unicode="ẽ"/><glyph d="M780 1796h-202l-60 117l-63 -117h-213l172 254h211zM606 2109h-178l70 347h276zM881 1413h-416v-397h403v-283h-403v-450h416v-283h-758v1696h758v-283z" glyph-name="uni1EBE" horiz-adv-x="952" unicode="Ế"/><glyph d="M858 1796h-203l-59 117l-64 -117h-213l173 254h210zM682 2103h-178l69 346h277zM1067 733h-612v-360q0 -55 36.5 -90t98.5 -35t98.5 33.5t36.5 89.5v245h342v-323q0 -162 -126 -245t-350 -83t-351 83t-127 245v1087q0 164 128 257.5t348 93.5t349 -93.5t129 -257.5v-647z M455 1325v-309h270v307q0 55 -37 90t-99 35t-98 -34t-36 -89z" glyph-name="uni1EBF" unicode="ế"/><glyph d="M780 1796h-202l-60 117l-63 -117h-213l172 254h211zM602 2105h-178l-168 346h276zM881 1413h-416v-397h403v-283h-403v-450h416v-283h-758v1696h758v-283z" glyph-name="uni1EC0" horiz-adv-x="952" unicode="Ề"/><glyph d="M858 1796h-203l-59 117l-64 -117h-213l173 254h210zM676 2116h-178l-168 346h276zM1067 733h-612v-360q0 -55 36.5 -90t98.5 -35t98.5 33.5t36.5 89.5v245h342v-323q0 -162 -126 -245t-350 -83t-351 83t-127 245v1087q0 164 128 257.5t348 93.5t349 -93.5t129 -257.5 v-647zM455 1325v-309h270v307q0 55 -37 90t-99 35t-98 -34t-36 -89z" glyph-name="uni1EC1" unicode="ề"/><glyph d="M780 1796h-202l-60 117l-63 -117h-213l172 254h211zM569 2101h-106v142q100 0 100 59q0 53 -51 53q-31 0 -49 -37h-133q18 68 67 105t111 37q190 0 190 -168q0 -51 -35 -84t-94 -35v-72zM881 1413h-416v-397h403v-283h-403v-450h416v-283h-758v1696h758v-283z" glyph-name="uni1EC2" horiz-adv-x="952" unicode="Ể"/><glyph d="M858 1796h-203l-59 117l-64 -117h-213l173 254h210zM647 2114h-106v141q100 0 100 59q0 53 -51 53q-31 0 -49 -36h-133q18 68 67 104.5t111 36.5q190 0 190 -168q0 -51 -35 -84t-94 -35v-71zM1067 733h-612v-360q0 -55 36.5 -90t98.5 -35t98.5 33.5t36.5 89.5v245h342 v-323q0 -162 -126 -245t-350 -83t-351 83t-127 245v1087q0 164 128 257.5t348 93.5t349 -93.5t129 -257.5v-647zM455 1325v-309h270v307q0 55 -37 90t-99 35t-98 -34t-36 -89z" glyph-name="uni1EC3" unicode="ể"/><glyph d="M780 1796h-202l-60 117l-63 -117h-213l172 254h211zM178 2193q97 166 208 166q58 0 112.5 -35.5t87.5 -35.5q69 -1 94 75l135 -98q-78 -156 -201 -156q-53 0 -113.5 41t-84.5 41q-66 0 -105 -86zM881 1413h-416v-397h403v-283h-403v-450h416v-283h-758v1696h758v-283z " glyph-name="uni1EC4" horiz-adv-x="952" unicode="Ễ"/><glyph d="M858 1796h-203l-59 117l-64 -117h-213l173 254h210zM270 2193q97 166 208 166q58 0 112.5 -35.5t87.5 -35.5q69 -1 94 75l135 -98q-78 -156 -200 -156q-53 0 -114 41t-85 41q-66 0 -105 -86zM1067 733h-612v-360q0 -55 36.5 -90t98.5 -35t98.5 33.5t36.5 89.5v245h342 v-323q0 -162 -126 -245t-350 -83t-351 83t-127 245v1087q0 164 128 257.5t348 93.5t349 -93.5t129 -257.5v-647zM455 1325v-309h270v307q0 55 -37 90t-99 35t-98 -34t-36 -89z" glyph-name="uni1EC5" unicode="ễ"/><glyph d="M881 1413h-416v-397h403v-283h-403v-450h416v-283h-758v1696h758v-283zM670 -471h-342v352h342v-352zM766 1796h-203l-59 117l-64 -117h-213l172 254h211z" glyph-name="uni1EC6" horiz-adv-x="952" unicode="Ệ"/><glyph d="M774 -471h-342v352h342v-352zM858 1796h-203l-59 117l-64 -117h-213l173 254h210zM1067 733h-612v-360q0 -55 36.5 -90t98.5 -35t98.5 33.5t36.5 89.5v245h342v-323q0 -162 -126 -245t-350 -83t-351 83t-127 245v1087q0 164 128 257.5t348 93.5t349 -93.5t129 -257.5 v-647zM455 1325v-309h270v307q0 55 -37 90t-99 35t-98 -34t-36 -89z" glyph-name="uni1EC7" unicode="ệ"/><glyph d="M465 0h-342v1696h342v-1696zM348 1796h-106v141q100 0 100 60q0 53 -51 53q-31 0 -49 -37h-133q18 68 67 104.5t111 36.5q190 0 190 -167q0 -51 -35 -84t-94 -35v-72z" glyph-name="uni1EC8" horiz-adv-x="587" unicode="Ỉ"/><glyph d="M465 0h-342v1696h342v-1696zM348 1796h-106v141q100 0 100 60q0 53 -51 53q-31 0 -49 -37h-133q18 68 67 104.5t111 36.5q190 0 190 -167q0 -51 -35 -84t-94 -35v-72z" glyph-name="uni1EC9" horiz-adv-x="587" unicode="ỉ"/><glyph d="M465 0h-342v1696h342v-1696zM465 -471h-342v352h342v-352z" glyph-name="uni1ECA" horiz-adv-x="587" unicode="Ị"/><glyph d="M465 0h-342v1696h342v-1696zM465 -471h-342v352h342v-352z" glyph-name="uni1ECB" horiz-adv-x="587" unicode="ị"/><glyph d="M762 -471h-342v352h342v-352zM1067 1380v-1087q0 -162 -126 -245t-350 -83t-351 83t-127 245v1087q0 164 128 257.5t348 93.5t349 -93.5t129 -257.5zM455 1325v-952q0 -55 36.5 -90t98.5 -35t98.5 33.5t36.5 89.5v952q0 55 -37 90t-99 35t-98 -34t-36 -89z" glyph-name="uni1ECC" unicode="Ọ"/><glyph d="M762 -471h-342v352h342v-352zM1067 1380v-1087q0 -162 -126 -245t-350 -83t-351 83t-127 245v1087q0 164 128 257.5t348 93.5t349 -93.5t129 -257.5zM455 1325v-952q0 -55 36.5 -90t98.5 -35t98.5 33.5t36.5 89.5v952q0 55 -37 90t-99 35t-98 -34t-36 -89z" glyph-name="uni1ECD" unicode="ọ"/><glyph d="M645 1796h-106v141q100 0 100 60q0 53 -51 53q-31 0 -49 -37h-133q18 68 67 104.5t111 36.5q190 0 190 -167q0 -51 -35 -84t-94 -35v-72zM1067 1380v-1087q0 -162 -126 -245t-350 -83t-351 83t-127 245v1087q0 164 128 257.5t348 93.5t349 -93.5t129 -257.5zM455 1325 v-952q0 -55 36.5 -90t98.5 -35t98.5 33.5t36.5 89.5v952q0 55 -37 90t-99 35t-98 -34t-36 -89z" glyph-name="uni1ECE" unicode="Ỏ"/><glyph d="M645 1796h-106v141q100 0 100 60q0 53 -51 53q-31 0 -49 -37h-133q18 68 67 104.5t111 36.5q190 0 190 -167q0 -51 -35 -84t-94 -35v-72zM1067 1380v-1087q0 -162 -126 -245t-350 -83t-351 83t-127 245v1087q0 164 128 257.5t348 93.5t349 -93.5t129 -257.5zM455 1325 v-952q0 -55 36.5 -90t98.5 -35t98.5 33.5t36.5 89.5v952q0 55 -37 90t-99 35t-98 -34t-36 -89z" glyph-name="uni1ECF" unicode="ỏ"/><glyph d="M858 1796h-203l-59 117l-64 -117h-213l173 254h210zM686 2124h-178l70 346h276zM1067 1380v-1087q0 -162 -126 -245t-350 -83t-351 83t-127 245v1087q0 164 128 257.5t348 93.5t349 -93.5t129 -257.5zM455 1325v-952q0 -55 36.5 -90t98.5 -35t98.5 33.5t36.5 89.5v952 q0 55 -37 90t-99 35t-98 -34t-36 -89z" glyph-name="uni1ED0" unicode="Ố"/><glyph d="M858 1796h-203l-59 117l-64 -117h-213l173 254h210zM686 2124h-178l70 346h276zM1067 1380v-1087q0 -162 -126 -245t-350 -83t-351 83t-127 245v1087q0 164 128 257.5t348 93.5t349 -93.5t129 -257.5zM455 1325v-952q0 -55 36.5 -90t98.5 -35t98.5 33.5t36.5 89.5v952 q0 55 -37 90t-99 35t-98 -34t-36 -89z" glyph-name="uni1ED1" unicode="ố"/><glyph d="M858 1796h-203l-59 117l-64 -117h-213l173 254h210zM676 2097h-178l-168 346h276zM1067 1380v-1087q0 -162 -126 -245t-350 -83t-351 83t-127 245v1087q0 164 128 257.5t348 93.5t349 -93.5t129 -257.5zM455 1325v-952q0 -55 36.5 -90t98.5 -35t98.5 33.5t36.5 89.5v952 q0 55 -37 90t-99 35t-98 -34t-36 -89z" glyph-name="uni1ED2" unicode="Ồ"/><glyph d="M858 1796h-203l-59 117l-64 -117h-213l173 254h210zM676 2097h-178l-168 346h276zM1067 1380v-1087q0 -162 -126 -245t-350 -83t-351 83t-127 245v1087q0 164 128 257.5t348 93.5t349 -93.5t129 -257.5zM455 1325v-952q0 -55 36.5 -90t98.5 -35t98.5 33.5t36.5 89.5v952 q0 55 -37 90t-99 35t-98 -34t-36 -89z" glyph-name="uni1ED3" unicode="ồ"/><glyph d="M858 1796h-203l-59 117l-64 -117h-213l173 254h210zM651 2103h-106v142q100 0 100 59q0 53 -51 53q-31 0 -49 -37h-133q18 68 67 105t111 37q190 0 190 -168q0 -51 -35 -84t-94 -35v-72zM1067 1380v-1087q0 -162 -126 -245t-350 -83t-351 83t-127 245v1087 q0 164 128 257.5t348 93.5t349 -93.5t129 -257.5zM455 1325v-952q0 -55 36.5 -90t98.5 -35t98.5 33.5t36.5 89.5v952q0 55 -37 90t-99 35t-98 -34t-36 -89z" glyph-name="uni1ED4" unicode="Ổ"/><glyph d="M858 1796h-203l-59 117l-64 -117h-213l173 254h210zM651 2103h-106v142q100 0 100 59q0 53 -51 53q-31 0 -49 -37h-133q18 68 67 105t111 37q190 0 190 -168q0 -51 -35 -84t-94 -35v-72zM1067 1380v-1087q0 -162 -126 -245t-350 -83t-351 83t-127 245v1087 q0 164 128 257.5t348 93.5t349 -93.5t129 -257.5zM455 1325v-952q0 -55 36.5 -90t98.5 -35t98.5 33.5t36.5 89.5v952q0 55 -37 90t-99 35t-98 -34t-36 -89z" glyph-name="uni1ED5" unicode="ổ"/><glyph d="M858 1796h-203l-59 117l-64 -117h-213l173 254h210zM270 2189q97 166 208 166q58 0 112.5 -35.5t87.5 -35.5q69 -1 94 75l135 -98q-78 -156 -200 -156q-53 0 -114 41t-85 41q-66 0 -105 -86zM1067 1380v-1087q0 -162 -126 -245t-350 -83t-351 83t-127 245v1087 q0 164 128 257.5t348 93.5t349 -93.5t129 -257.5zM455 1325v-952q0 -55 36.5 -90t98.5 -35t98.5 33.5t36.5 89.5v952q0 55 -37 90t-99 35t-98 -34t-36 -89z" glyph-name="uni1ED6" unicode="Ỗ"/><glyph d="M858 1796h-203l-59 117l-64 -117h-213l173 254h210zM270 2189q97 166 208 166q58 0 112.5 -35.5t87.5 -35.5q69 -1 94 75l135 -98q-78 -156 -200 -156q-53 0 -114 41t-85 41q-66 0 -105 -86zM1067 1380v-1087q0 -162 -126 -245t-350 -83t-351 83t-127 245v1087 q0 164 128 257.5t348 93.5t349 -93.5t129 -257.5zM455 1325v-952q0 -55 36.5 -90t98.5 -35t98.5 33.5t36.5 89.5v952q0 55 -37 90t-99 35t-98 -34t-36 -89z" glyph-name="uni1ED7" unicode="ỗ"/><glyph d="M762 -471h-342v352h342v-352zM858 1796h-203l-59 117l-64 -117h-213l173 254h210zM1067 1380v-1087q0 -162 -126 -245t-350 -83t-351 83t-127 245v1087q0 164 128 257.5t348 93.5t349 -93.5t129 -257.5zM455 1325v-952q0 -55 36.5 -90t98.5 -35t98.5 33.5t36.5 89.5v952 q0 55 -37 90t-99 35t-98 -34t-36 -89z" glyph-name="uni1ED8" unicode="Ộ"/><glyph d="M762 -471h-342v352h342v-352zM858 1796h-203l-59 117l-64 -117h-213l173 254h210zM1067 1380v-1087q0 -162 -126 -245t-350 -83t-351 83t-127 245v1087q0 164 128 257.5t348 93.5t349 -93.5t129 -257.5zM455 1325v-952q0 -55 36.5 -90t98.5 -35t98.5 33.5t36.5 89.5v952 q0 55 -37 90t-99 35t-98 -34t-36 -89z" glyph-name="uni1ED9" unicode="ộ"/><glyph d="M682 1796h-178l69 346h277zM1067 1380v-1087q0 -162 -126 -245t-350 -83t-351 83t-127 245v1087q0 164 127.5 257.5t365.5 93.5t367 -123q39 78 39 160t-49 165h290q-14 -158 -70.5 -249t-150.5 -156q35 -66 35 -148zM455 1325v-952q0 -55 36.5 -90t98.5 -35t98.5 33.5 t36.5 89.5v952q0 55 -37 90t-99 35t-98 -34t-36 -89z" glyph-name="uni1EDA" unicode="Ớ"/><glyph d="M682 1796h-178l69 346h277zM1067 1380v-1087q0 -162 -126 -245t-350 -83t-351 83t-127 245v1087q0 164 127.5 257.5t365.5 93.5t367 -123q39 78 39 160t-49 165h290q-14 -158 -70.5 -249t-150.5 -156q35 -66 35 -148zM455 1325v-952q0 -55 36.5 -90t98.5 -35t98.5 33.5 t36.5 89.5v952q0 55 -37 90t-99 35t-98 -34t-36 -89z" glyph-name="uni1EDB" unicode="ớ"/><glyph d="M707 1796h-179l-168 346h277zM1067 1380v-1087q0 -162 -126 -245t-350 -83t-351 83t-127 245v1087q0 164 127.5 257.5t365.5 93.5t367 -123q39 78 39 160t-49 165h290q-14 -158 -70.5 -249t-150.5 -156q35 -66 35 -148zM455 1325v-952q0 -55 36.5 -90t98.5 -35t98.5 33.5 t36.5 89.5v952q0 55 -37 90t-99 35t-98 -34t-36 -89z" glyph-name="uni1EDC" unicode="Ờ"/><glyph d="M707 1796h-179l-168 346h277zM1067 1380v-1087q0 -162 -126 -245t-350 -83t-351 83t-127 245v1087q0 164 127.5 257.5t365.5 93.5t367 -123q39 78 39 160t-49 165h290q-14 -158 -70.5 -249t-150.5 -156q35 -66 35 -148zM455 1325v-952q0 -55 36.5 -90t98.5 -35t98.5 33.5 t36.5 89.5v952q0 55 -37 90t-99 35t-98 -34t-36 -89z" glyph-name="uni1EDD" unicode="ờ"/><glyph d="M645 1796h-106v141q100 0 100 60q0 53 -51 53q-31 0 -49 -37h-133q18 68 67 104.5t111 36.5q190 0 190 -167q0 -51 -35 -84t-94 -35v-72zM1067 1380v-1087q0 -162 -126 -245t-350 -83t-351 83t-127 245v1087q0 164 127.5 257.5t365.5 93.5t367 -123q39 78 39 160t-49 165 h290q-14 -158 -70.5 -249t-150.5 -156q35 -66 35 -148zM455 1325v-952q0 -55 36.5 -90t98.5 -35t98.5 33.5t36.5 89.5v952q0 55 -37 90t-99 35t-98 -34t-36 -89z" glyph-name="uni1EDE" unicode="Ở"/><glyph d="M645 1796h-106v141q100 0 100 60q0 53 -51 53q-31 0 -49 -37h-133q18 68 67 104.5t111 36.5q190 0 190 -167q0 -51 -35 -84t-94 -35v-72zM1067 1380v-1087q0 -162 -126 -245t-350 -83t-351 83t-127 245v1087q0 164 127.5 257.5t365.5 93.5t367 -123q39 78 39 160t-49 165 h290q-14 -158 -70.5 -249t-150.5 -156q35 -66 35 -148zM455 1325v-952q0 -55 36.5 -90t98.5 -35t98.5 33.5t36.5 89.5v952q0 55 -37 90t-99 35t-98 -34t-36 -89z" glyph-name="uni1EDF" unicode="ở"/><glyph d="M270 1866q97 166 208 166q58 0 112.5 -36t87.5 -36q69 0 94 76l135 -99q-78 -156 -200 -155q-53 0 -114 41t-85 41q-66 0 -105 -86zM1067 1380v-1087q0 -162 -126 -245t-350 -83t-351 83t-127 245v1087q0 164 127.5 257.5t365.5 93.5t367 -123q39 78 39 160t-49 165h290 q-14 -158 -70.5 -249t-150.5 -156q35 -66 35 -148zM455 1325v-952q0 -55 36.5 -90t98.5 -35t98.5 33.5t36.5 89.5v952q0 55 -37 90t-99 35t-98 -34t-36 -89z" glyph-name="uni1EE0" unicode="Ỡ"/><glyph d="M270 1866q97 166 208 166q58 0 112.5 -36t87.5 -36q69 0 94 76l135 -99q-78 -156 -200 -155q-53 0 -114 41t-85 41q-66 0 -105 -86zM1067 1380v-1087q0 -162 -126 -245t-350 -83t-351 83t-127 245v1087q0 164 127.5 257.5t365.5 93.5t367 -123q39 78 39 160t-49 165h290 q-14 -158 -70.5 -249t-150.5 -156q35 -66 35 -148zM455 1325v-952q0 -55 36.5 -90t98.5 -35t98.5 33.5t36.5 89.5v952q0 55 -37 90t-99 35t-98 -34t-36 -89z" glyph-name="uni1EE1" unicode="ỡ"/><glyph d="M762 -471h-342v352h342v-352zM1067 1380v-1087q0 -162 -126 -245t-350 -83t-351 83t-127 245v1087q0 164 127.5 257.5t365.5 93.5t367 -123q39 78 39 160t-49 165h290q-14 -158 -70.5 -249t-150.5 -156q35 -66 35 -148zM455 1325v-952q0 -55 36.5 -90t98.5 -35t98.5 33.5 t36.5 89.5v952q0 55 -37 90t-99 35t-98 -34t-36 -89z" glyph-name="uni1EE2" unicode="Ợ"/><glyph d="M762 -471h-342v352h342v-352zM1067 1380v-1087q0 -162 -126 -245t-350 -83t-351 83t-127 245v1087q0 164 127.5 257.5t365.5 93.5t367 -123q39 78 39 160t-49 165h290q-14 -158 -70.5 -249t-150.5 -156q35 -66 35 -148zM455 1325v-952q0 -55 36.5 -90t98.5 -35t98.5 33.5 t36.5 89.5v952q0 55 -37 90t-99 35t-98 -34t-36 -89z" glyph-name="uni1EE3" unicode="ợ"/><glyph d="M762 -471h-342v352h342v-352zM591 -35q-224 0 -351 83t-127 245v1403h342v-1323q0 -55 36.5 -90t98.5 -35t98.5 33.5t36.5 89.5v1325h342v-1403q0 -162 -126 -245t-350 -83z" glyph-name="uni1EE4" unicode="Ụ"/><glyph d="M782 -471h-342v352h342v-352zM725 1696h342v-1696h-342v100q-115 -127 -285 -127q-137 0 -232 95.5t-95 271.5v1356h342v-1323q0 -55 36.5 -90t96.5 -35t96.5 30.5t40.5 81.5v1336z" glyph-name="uni1EE5" horiz-adv-x="1189" unicode="ụ"/><glyph d="M645 1796h-106v141q100 0 100 60q0 53 -51 53q-31 0 -49 -37h-133q18 68 67 104.5t111 36.5q190 0 190 -167q0 -51 -35 -84t-94 -35v-72zM591 -35q-224 0 -351 83t-127 245v1403h342v-1323q0 -55 36.5 -90t98.5 -35t98.5 33.5t36.5 89.5v1325h342v-1403q0 -162 -126 -245 t-350 -83z" glyph-name="uni1EE6" unicode="Ủ"/><glyph d="M649 1796h-106v141q100 0 100 60q0 53 -51 53q-31 0 -49 -37h-133q18 68 67 104.5t111 36.5q190 0 190 -167q0 -51 -35 -84t-94 -35v-72zM725 1696h342v-1696h-342v100q-115 -127 -285 -127q-137 0 -232 95.5t-95 271.5v1356h342v-1323q0 -55 36.5 -90t96.5 -35 t96.5 30.5t40.5 81.5v1336z" glyph-name="uni1EE7" horiz-adv-x="1189" unicode="ủ"/><glyph d="M672 1796h-178l69 346h277zM591 -35q-224 0 -351 83t-127 245v1403h342v-1323q0 -55 36.5 -90t98.5 -35t98.5 33.5t36.5 89.5v1325q205 0 276.5 11t71.5 58q0 86 -49 168h291q-16 -174 -83 -255t-165 -87v-1298q0 -162 -126 -245t-350 -83z" glyph-name="uni1EE8" unicode="Ứ"/><glyph d="M672 1796h-178l69 346h277zM1067 0h-342v100q-115 -127 -285 -127q-137 0 -232 95.5t-95 271.5v1356h342v-1323q0 -55 36.5 -90t96.5 -35t96.5 30.5t40.5 81.5v1336q205 0 276.5 11t71.5 58q0 86 -49 168h291q-16 -174 -83 -255t-165 -87v-1591z" glyph-name="uni1EE9" horiz-adv-x="1189" unicode="ứ"/><glyph d="M682 1796h-178l-168 346h276zM591 -35q-224 0 -351 83t-127 245v1403h342v-1323q0 -55 36.5 -90t98.5 -35t98.5 33.5t36.5 89.5v1325q205 0 276.5 11t71.5 58q0 86 -49 168h291q-16 -174 -83 -255t-165 -87v-1298q0 -162 -126 -245t-350 -83z" glyph-name="uni1EEA" unicode="Ừ"/><glyph d="M686 1796h-178l-168 346h276zM1067 0h-342v100q-115 -127 -285 -127q-137 0 -232 95.5t-95 271.5v1356h342v-1323q0 -55 36.5 -90t96.5 -35t96.5 30.5t40.5 81.5v1336q205 0 276.5 11t71.5 58q0 86 -49 168h291q-16 -174 -83 -255t-165 -87v-1591z" glyph-name="uni1EEB" horiz-adv-x="1189" unicode="ừ"/><glyph d="M645 1796h-106v141q100 0 100 60q0 53 -51 53q-31 0 -49 -37h-133q18 68 67 104.5t111 36.5q190 0 190 -167q0 -51 -35 -84t-94 -35v-72zM591 -35q-224 0 -351 83t-127 245v1403h342v-1323q0 -55 36.5 -90t98.5 -35t98.5 33.5t36.5 89.5v1325q205 0 276.5 11t71.5 58 q0 86 -49 168h291q-16 -174 -83 -255t-165 -87v-1298q0 -162 -126 -245t-350 -83z" glyph-name="uni1EEC" unicode="Ử"/><glyph d="M649 1796h-106v141q100 0 100 60q0 53 -51 53q-31 0 -49 -37h-133q18 68 67 104.5t111 36.5q190 0 190 -167q0 -51 -35 -84t-94 -35v-72zM1067 0h-342v100q-115 -127 -285 -127q-137 0 -232 95.5t-95 271.5v1356h342v-1323q0 -55 36.5 -90t96.5 -35t96.5 30.5t40.5 81.5 v1336q205 0 276.5 11t71.5 58q0 86 -49 168h291q-16 -174 -83 -255t-165 -87v-1591z" glyph-name="uni1EED" horiz-adv-x="1189" unicode="ử"/><glyph d="M270 1845q97 166 208 166q58 0 112.5 -36t87.5 -36q69 0 94 76l135 -98q-78 -156 -200 -156q-53 0 -114 41t-85 41q-66 0 -105 -86zM591 -35q-224 0 -351 83t-127 245v1403h342v-1323q0 -55 36.5 -90t98.5 -35t98.5 33.5t36.5 89.5v1325q205 0 276.5 11t71.5 58 q0 86 -49 168h291q-16 -174 -83 -255t-165 -87v-1298q0 -162 -126 -245t-350 -83z" glyph-name="uni1EEE" unicode="Ữ"/><glyph d="M272 1845q97 166 208 166q58 0 112.5 -36t87.5 -36q69 0 94 76l135 -98q-78 -156 -200 -156q-53 0 -113.5 41t-85.5 41q-66 0 -104 -86zM1067 0h-342v100q-115 -127 -285 -127q-137 0 -232 95.5t-95 271.5v1356h342v-1323q0 -55 36.5 -90t96.5 -35t96.5 30.5t40.5 81.5 v1336q205 0 276.5 11t71.5 58q0 86 -49 168h291q-16 -174 -83 -255t-165 -87v-1591z" glyph-name="uni1EEF" horiz-adv-x="1189" unicode="ữ"/><glyph d="M762 -471h-342v352h342v-352zM591 -35q-224 0 -351 83t-127 245v1403h342v-1323q0 -55 36.5 -90t98.5 -35t98.5 33.5t36.5 89.5v1325q205 0 276.5 11t71.5 58q0 86 -49 168h291q-16 -174 -83 -255t-165 -87v-1298q0 -162 -126 -245t-350 -83z" glyph-name="uni1EF0" unicode="Ự"/><glyph d="M782 -471h-342v352h342v-352zM1067 0h-342v100q-115 -127 -285 -127q-137 0 -232 95.5t-95 271.5v1356h342v-1323q0 -55 36.5 -90t96.5 -35t96.5 30.5t40.5 81.5v1336q205 0 276.5 11t71.5 58q0 86 -49 168h291q-16 -174 -83 -255t-165 -87v-1591z" glyph-name="uni1EF1" horiz-adv-x="1189" unicode="ự"/><glyph d="M334 0v528l-324 1168h326l166 -738l168 738h327l-323 -1182v-514h-340zM418 1796l-168 346h276l70 -346h-178z" glyph-name="Ygrave" horiz-adv-x="1007" unicode="Ỳ"/><glyph d="M498 1796l-168 346h276l70 -346h-178zM455 1386v-286q0 -55 36.5 -90t96.5 -35t96.5 30.5t40.5 81.5v609h342v-1403q0 -162 -126 -245t-350 -83t-351 83t-127 245v321h342v-241q0 -55 36.5 -90t98.5 -35t98.5 33.5t36.5 89.5v385q-102 -86 -285 -86q-137 0 -232 95 t-95 271v420q0 190 -19 240h338q23 -53 23 -310z" glyph-name="ygrave" unicode="ỳ"/><glyph d="M41 707v282h954v-282h-954z" glyph-name="endash" horiz-adv-x="1036" unicode="–"/><glyph d="M41 707v282h1450v-282h-1450z" glyph-name="emdash" horiz-adv-x="1531" unicode="—"/><glyph d="M2007 707h-1966v282h1966v-282z" glyph-name="afii00208" horiz-adv-x="2048" unicode="―"/><glyph d="M403 1139h-342v352l342 246l-149 -246h149v-352z" glyph-name="quoteleft" horiz-adv-x="464" unicode="‘"/><glyph d="M403 1696v-353l-342 -245l150 245h-150v353h342z" glyph-name="quoteright" horiz-adv-x="464" unicode="’"/><glyph d="M403 352v-352l-342 -246l150 246h-150v352h342z" glyph-name="quotesinglbase" horiz-adv-x="464" unicode="‚"/><glyph d="M61 1696h342v-353h-149l149 -245l-342 245v353z" glyph-name="quotereversed" horiz-adv-x="464" unicode="‛"/><glyph d="M848 1139h-342v352l342 246l-150 -246h150v-352zM403 1139h-342v352l342 246l-149 -246h149v-352z" glyph-name="quotedblleft" horiz-adv-x="909" unicode="“"/><glyph d="M403 1696v-353l-342 -245l150 245h-150v353h342zM848 1696v-353l-342 -245l149 245h-149v353h342z" glyph-name="quotedblright" horiz-adv-x="909" unicode="”"/><glyph d="M403 352v-352l-342 -246l150 246h-150v352h342zM848 352v-352l-342 -246l149 246h-149v352h342z" glyph-name="quotedblbase" horiz-adv-x="909" unicode="„"/><glyph d="M72 1049v282h307v365h342v-365h305v-282h-305v-1049h-342v1049h-307z" glyph-name="dagger" horiz-adv-x="1097" unicode="†"/><glyph d="M72 1049v282h307v365h342v-365h305v-282h-305v-410h305v-283h-305v-356h-342v356h-307v283h307v410h-307z" glyph-name="daggerdbl" horiz-adv-x="1097" unicode="‡"/><glyph d="M502 847q0 -91 -66.5 -157.5t-159 -66.5t-159 65.5t-66.5 158.5t65.5 159.5t160 66.5t160 -67.5t65.5 -158.5z" glyph-name="bullet" horiz-adv-x="552" unicode="•"/><glyph d="M61 0v352h342v-352h-342zM526 0v352h342v-352h-342zM991 0v352h342v-352h-342z" glyph-name="ellipsis" horiz-adv-x="1394" unicode="…"/><glyph d="M616 0l750 1696h240l-750 -1696h-240zM2150 719v-412q0 -170 -90 -248.5t-304 -78.5t-305 79.5t-91 247.5v412q0 172 91 261t302 89t304 -89t93 -261zM1661 664v-277q0 -63 18.5 -94t76.5 -31t75.5 30t17.5 93v277q0 63 -18.5 93.5t-76.5 30.5t-75.5 -29.5t-17.5 -92.5z M862 1366v-412q0 -170 -90 -248.5t-304 -78.5t-305 79.5t-91 247.5v412q0 172 91 261t302 89t304 -89t93 -261zM373 1311v-277q0 -63 18.5 -94t76.5 -31t75.5 30t17.5 93v277q0 63 -18.5 94t-76.5 31t-75.5 -30t-17.5 -93zM3074 719v-412q0 -170 -90 -248.5t-304 -78.5 t-305 79.5t-91 247.5v412q0 172 91 261t302 89t304 -89t93 -261zM2585 664v-277q0 -63 18.5 -94t76.5 -31t75.5 30t17.5 93v277q0 63 -18.5 93.5t-76.5 30.5t-75.5 -29.5t-17.5 -92.5z" glyph-name="perthousand" horiz-adv-x="3145" unicode="‰"/><glyph d="M31 848l280 487h348l-280 -487l280 -516h-348z" glyph-name="guilsinglleft" horiz-adv-x="690" unicode="‹"/><glyph d="M379 1335l280 -487l-280 -516h-348l280 516l-280 487h348z" glyph-name="guilsinglright" horiz-adv-x="690" unicode="›"/><glyph d="M0 0l750 1696h239l-749 -1696h-240z" glyph-name="fraction" horiz-adv-x="987" unicode="⁄"/><glyph d="M371 1065h323v162h-463v282h463v187h342v-187h101v-282h-101v-1227h-665q-82 0 -138.5 24.5t-103.5 77.5t-47 275v311q0 222 47 275t103.5 77.5t138.5 24.5zM1016 -385h-852v283h852v-283zM424 430q0 -74 25.5 -110.5t87.5 -36.5h157v499h-157q-61 0 -87 -37.5 t-26 -111.5v-203z" glyph-name="dong" horiz-adv-x="1159" unicode="₫"/><glyph d="M10 922v159h84v299q0 164 128 257.5t348 93.5t349.5 -93.5t129.5 -257.5v-200h-342v143q0 55 -37.5 90t-99.5 35t-98 -34t-36 -89v-244h596v-159h-596v-121h596v-158h-596v-270q0 -55 37 -90t99 -35t98.5 33.5t36.5 89.5v174h342v-252q0 -162 -126.5 -245t-350.5 -83 t-351 83t-127 245v350h-84v158h84v121h-84z" glyph-name="Euro" horiz-adv-x="1142" unicode="€"/><glyph d="M1100 0h-506l-164 1329v-1329h-307v1696h514l156 -1260v1260h307v-1696zM2154 1239v-412q0 -328 -436 -327.5t-436 327.5v412q0 168 109.5 259t325.5 91t326.5 -91t110.5 -259zM1624 1184v-277q0 -63 18.5 -94t76.5 -31t75.5 30t17.5 93v277q0 63 -18 94t-76 31t-76 -30 t-18 -93zM1380 102v283h678v-283h-678z" glyph-name="afii61352" horiz-adv-x="2226" unicode="№"/><glyph d="M180 801v745h-160v185h551v-185h-159v-745h-232zM850 801h-207v930h275l133 -359l135 359h254v-930h-228v610l-137 -610h-86l-139 610v-610z" glyph-name="trademark" horiz-adv-x="1480" unicode="™"/><glyph d="M725 750v573q0 55 -37 90t-99 35t-98 -34t-36 -89v-573q0 -49 27.5 -82t76.5 -41v-285q-211 6 -328.5 89t-117.5 239v708q0 164 128 257.5t348 93.5t349 -93.5t129 -257.5v-708q0 -154 -115.5 -237t-322.5 -91v285q45 8 70.5 42t25.5 79zM1026 0h-397v283h397v-283z M559 0h-397v283h397v-283z" glyph-name="uni2126" unicode="Ω"/><glyph d="M1067 733h-612v-360q0 -55 36.5 -90t98.5 -35t98.5 33.5t36.5 89.5v245h342v-323q0 -162 -126 -245t-350 -83t-351 83t-127 245v1087q0 164 128 257.5t348 93.5t349 -93.5t129 -257.5v-647zM455 1325v-309h270v307q0 55 -37 90t-99 35t-98 -34t-36 -89z" glyph-name="estimated" unicode="℮"/><glyph d="M10 0l201 1696h594l199 -1696h-994zM508 1415l-107 -1132h211z" glyph-name="uni2206" horiz-adv-x="1013" unicode="∆"/><glyph d="M735 -317v1730h-270v-1730h-342v2013h954v-2013h-342z" glyph-name="product" horiz-adv-x="1200" unicode="∏"/><glyph d="M895 1696v-283h-502l365 -569l-365 -561h512v-283h-864v283l358 567l-358 563v283h854z" glyph-name="summation" horiz-adv-x="946" unicode="∑"/><glyph d="M41 707v282h954v-282h-954z" glyph-name="minus" horiz-adv-x="1036" unicode="−"/><glyph d="M1094 1696l-322 -1696h-553l-215 782h342l150 -501l233 1415h365z" glyph-name="radical" horiz-adv-x="1103" unicode="√"/><glyph d="M465 0h-342v1696h338l4 -101q115 127 285 127q137 0 232 -95t95 -271v-1356h-342v1323q0 55 -36.5 90t-96.5 35t-96.5 -31t-40.5 -82v-1335zM2134 1239v-412q0 -328 -436 -327.5t-436 327.5v412q0 168 109.5 259t325.5 91t326.5 -91t110.5 -259zM1604 1184v-277 q0 -63 18 -94t76 -31t76 30t18 93v277q0 63 -18.5 94t-76.5 31t-75.5 -30t-17.5 -93zM1360 102v283h678v-283h-678z" glyph-name="uniE000" horiz-adv-x="2205" unicode=""/><glyph d="M928 293q0 -328 -433 -328t-434 328v321h342v-241q0 -63 17.5 -94t75 -31t74 29.5t16.5 93.5v1325h342v-1403z" glyph-name="uniE001" horiz-adv-x="1040" unicode=""/><glyph d="M1049 0h-342v733h-271v-733h-342v1380q0 164 128 257.5t348 93.5t349.5 -93.5t129.5 -257.5v-1380zM436 1325v-309h271v307q0 55 -37.5 90t-99.5 35t-98 -34t-36 -89z" glyph-name="uniE480" horiz-adv-x="1142" unicode=""/><glyph d="M436 1325v-952q0 -55 37 -90t99 -35t98.5 33.5t36.5 89.5v176h342v-254q0 -162 -126.5 -245t-350.5 -83t-351 83t-127 245v1087q0 164 128 257.5t348 93.5t349.5 -93.5t129.5 -257.5v-200h-342v143q0 55 -37.5 90t-99.5 35t-98 -34t-36 -89z" glyph-name="uniE482" horiz-adv-x="1142" unicode=""/><glyph d="M705 616h342v-323q0 -162 -127.5 -245t-351.5 -83t-350 83t-126 245v272q0 207 211 285q-211 78 -211 287v243q0 164 129 257.5t349 93.5t348.5 -93.5t128.5 -257.5v-282h-342v227q0 55 -36.5 89t-98.5 34t-99 -35t-37 -90v-215q0 -53 36 -88t99 -35h117v-278h-115 q-63 0 -100 -36t-37 -89v-211q0 -55 36 -89t98 -34t99.5 34.5t37.5 90.5v243z" glyph-name="uniE484" horiz-adv-x="1138" unicode=""/><glyph d="M403 -119v-352l-342 -246l150 246h-150v352h342z" glyph-name="uniF6C3" horiz-adv-x="464" unicode=""/><glyph d="M1470 0h-497l-248 1243l496 488l497 -488zM848 0h-422l-324 422l211 403l412 -202zM2017 0h-422l123 623l412 202l211 -403z" glyph-name="uniF8FF" horiz-adv-x="2443" unicode=""/><glyph d="M403 -471h-342v352h342v-352z" glyph-name="glyph648" horiz-adv-x="464"/><glyph d="M1100 0h-506l-164 1329v-1329h-307v1696h514l156 -1260v1260h307v-1696z" glyph-name="N.aalt" horiz-adv-x="1222"/></font>
</defs>
</svg>
